<svg xmlns="http://www.w3.org/2000/svg" xmlns:xlink="http://www.w3.org/1999/xlink" viewBox="0 0 339.03 515.91"><defs><style>.cls-1{fill:none;}.cls-2{fill:#fff;}.cls-3{fill:#2d2d2d;}.cls-4{fill:#222272;}.cls-5{fill:#191956;}.cls-6{fill:#b70027;}.cls-7{fill:#0c0a35;}.cls-8{fill:#ffd6a1;}.cls-9{clip-path:url(#clip-path);}.cls-10{clip-path:url(#clip-path-2);}.cls-11{clip-path:url(#clip-path-3);}.cls-12{fill:#f70032;}.cls-13{fill:#990028;}.cls-14{clip-path:url(#clip-path-4);}.cls-15{clip-path:url(#clip-path-5);}.cls-16{clip-path:url(#clip-path-6);}.cls-17{clip-path:url(#clip-path-7);}.cls-18{clip-path:url(#clip-path-8);}</style><clipPath id="clip-path" transform="translate(-310.45 -102.01)"><path class="cls-1" d="M514.93,493.26a1.64,1.64,0,0,0,2,1.59,24.39,24.39,0,0,0,13.22-8.41c4-4.62,7.11-8.15,6.84-14.23-2-.9-11,.17-20.16,14.08A13,13,0,0,0,514.93,493.26Z"/></clipPath><clipPath id="clip-path-2" transform="translate(-310.45 -102.01)"><path class="cls-1" d="M513.38,491.87c0,1.12-.33,2.43-1.35,2.86a3,3,0,0,1-2-.1c-12.78-4-18.7-10.74-23.4-20a1,1,0,0,1,.63-1.36c3.26-.82,8.7-2.3,16.82,1.47a11.59,11.59,0,0,1,2.85,1.84A19.79,19.79,0,0,1,513.38,491.87Z"/></clipPath><clipPath id="clip-path-3" transform="translate(-310.45 -102.01)"><path class="cls-1" d="M418.75,452.13c-6.73.8-14.05,5.3-18.11,10.72a41.25,41.25,0,0,0-8.09,17.29,39.22,39.22,0,0,0,3.2,23.51,46.27,46.27,0,0,0,6.11,8.77,146.08,146.08,0,0,0,11.76,13.22,74.5,74.5,0,0,0,34.08,18.61c7.45,1.78,15.66,2.31,22.42-1.28a9.32,9.32,0,0,0,3.55-2.94,11.2,11.2,0,0,0,1.44-5c3.12-27.41-9.38-54.45-26.33-72.21a53.48,53.48,0,0,0-10.25-7.72C427.77,449.6,422.7,451.66,418.75,452.13Z"/></clipPath><clipPath id="clip-path-4" transform="translate(-310.45 -102.01)"><path class="cls-1" d="M444.5,227.5a1.64,1.64,0,0,0-2-1.59,24.4,24.4,0,0,0-13.21,8.41c-3.94,4.62-7.12,8.15-6.85,14.22,2,.9,11-.16,20.17-14.07A13.23,13.23,0,0,0,444.5,227.5Z"/></clipPath><clipPath id="clip-path-5" transform="translate(-310.45 -102.01)"><path class="cls-1" d="M446,228.89c0-1.12.34-2.43,1.36-2.86a3,3,0,0,1,2,.1c12.78,4,18.7,10.74,23.39,20a1,1,0,0,1-.62,1.36c-3.26.81-8.7,2.3-16.82-1.47a11.34,11.34,0,0,1-2.85-1.85A19.78,19.78,0,0,1,446,228.89Z"/></clipPath><clipPath id="clip-path-6" transform="translate(-310.45 -102.01)"><path class="cls-1" d="M464.52,299.62a31.74,31.74,0,0,1-13.38-.62c-4.37-1-7.74-2.86-12.7-8.94-3.56-4.36-4.31-6.48-5.17-14.22-.81-7.27,1-20.25,3.88-22.62a22,22,0,0,0,19,13.72c6.91.22,14.42-2.2,20.61-5.32,5.58-2.8,6.78-4.13,11.8-6.94,1.74,12.69-.33,22.23-6.38,33.52-1.52,2.83-4.45,5.44-7,7.35A21,21,0,0,1,464.52,299.62Z"/></clipPath><clipPath id="clip-path-7" transform="translate(-310.45 -102.01)"><path class="cls-1" d="M495,421a31.76,31.76,0,0,1,13.38.63c4.37,1,7.75,2.85,12.7,8.93,3.56,4.37,4.31,6.48,5.18,14.22.8,7.27-1,20.25-3.88,22.62a22,22,0,0,0-19-13.72c-6.92-.22-14.43,2.2-20.61,5.31-5.58,2.82-6.78,4.14-11.79,7-1.75-12.68.31-22.23,6.36-33.52,1.52-2.84,4.45-5.43,7-7.35A21,21,0,0,1,495,421Z"/></clipPath><clipPath id="clip-path-8" transform="translate(-310.45 -102.01)"><path class="cls-1" d="M540.68,268.63c6.73-.8,14.05-5.3,18.11-10.72a41,41,0,0,0,8.08-17.28,39.24,39.24,0,0,0-3.2-23.52,45.07,45.07,0,0,0-6.11-8.77,147.46,147.46,0,0,0-11.75-13.23,74.62,74.62,0,0,0-34.09-18.61c-7.44-1.77-15.65-2.3-22.42,1.28a9.58,9.58,0,0,0-3.55,2.94,11.4,11.4,0,0,0-1.43,5c-3.13,27.4,9.37,54.44,26.33,72.21a53.85,53.85,0,0,0,10.25,7.71C531.65,271.16,536.73,269.1,540.68,268.63Z"/></clipPath></defs><g id="Layer_1" data-name="Layer 1"><path class="cls-2" d="M620.12,617.16H339.79a28.58,28.58,0,0,1-28.57-28.58V131.36a28.57,28.57,0,0,1,28.57-28.57H620.12a28.58,28.58,0,0,1,28.58,28.57V588.58A28.59,28.59,0,0,1,620.12,617.16Z" transform="translate(-310.45 -102.01)"/><path class="cls-3" d="M620.13,617.93H339.79a29.38,29.38,0,0,1-29.34-29.35V131.36A29.38,29.38,0,0,1,339.79,102H620.13a29.39,29.39,0,0,1,29.35,29.35V588.58A29.39,29.39,0,0,1,620.13,617.93ZM339.79,103.56a27.83,27.83,0,0,0-27.8,27.8V588.58a27.83,27.83,0,0,0,27.8,27.8H620.13a27.82,27.82,0,0,0,27.79-27.8V131.36a27.82,27.82,0,0,0-27.79-27.8Z" transform="translate(-310.45 -102.01)"/><path class="cls-4" d="M365.3,359.86a6.36,6.36,0,0,0-4,1.35,6.71,6.71,0,0,0-1.55,3.29,92.42,92.42,0,0,0,3.94,57.09,5.21,5.21,0,0,0,1,1.79,4.83,4.83,0,0,0,2.32,1.11c8.51,2.17,17.4-1,25.62-4.12l11.59-4.4-8.43-40.59a16.51,16.51,0,0,0-1.73-5.3,13.78,13.78,0,0,0-4.78-4.41A39.42,39.42,0,0,0,365.3,359.86Z" transform="translate(-310.45 -102.01)"/><path class="cls-4" d="M593.13,357.56a6.33,6.33,0,0,0,4-1.34,6.64,6.64,0,0,0,1.56-3.29,92.56,92.56,0,0,0-3.94-57.09,5.08,5.08,0,0,0-1-1.79,4.81,4.81,0,0,0-2.31-1.12c-8.53-2.17-17.4,1-25.63,4.12l-11.59,4.4,8.43,40.6a17,17,0,0,0,1.73,5.29,13.89,13.89,0,0,0,4.78,4.42A39.35,39.35,0,0,0,593.13,357.56Z" transform="translate(-310.45 -102.01)"/><path class="cls-5" d="M545.18,420.56c-14.84,4.81-30.87,6.35-46.74,7.27-16.33.95-32.82,1.28-49-.8-7.28-.94-14.51-2.37-21.88-2.64-12.15-.46-16.63,2.27-28.38-.4-1.92-.44-8.61-2.58-8.7-4.56-.35-8.05-1.42-28.59-2.89-17.39-1.82,13.68-.29-12.28-.84-26.07-.6-15.17-3.12-30.34-1.79-45.48s-12.31-28.92.9-39.25c6.3-4.92,24.58-15.46,45.6-17.05,6.18-.46,8.59,3.54,14.77,2.86,8.1-.9,16.07-2.49,24.12-3.58a198.63,198.63,0,0,1,48.79-.55c10.89,1.23,19.36-3.09,36.41,9.2,9.22,6.65,17.41,14.57,20.22,24.59,4.24,15.06-3.09,34-1.73,49.46s-.06,31.25-6.49,45.76a31.94,31.94,0,0,1-6.8,10.4C556.65,416.23,551,418.68,545.18,420.56Z" transform="translate(-310.45 -102.01)"/><path class="cls-5" d="M414.24,300.2c14.84-4.81,30.88-6.35,46.75-7.27,16.33-.95,32.82-1.28,49,.8,7.28.94,14.52,2.36,21.88,2.64,12.16.46,20.39-1,32.13,1.72,1.91.44,2.72,3.94,3.72,5.38a11.74,11.74,0,0,1,1.66,5.38c-.7,13.79,2.76,22.15,3.31,35.94.6,15.17,3.11,30.34,1.79,45.48s12.3,28.92-.91,39.24C567.29,434.44,549,445,528,446.56c-6.18.47-8.59-3.54-14.78-2.85-8.09.9-16.06,2.49-24.11,3.58a198.71,198.71,0,0,1-48.8.55c-10.88-1.23-19.36,3.08-36.41-9.21-9.21-6.64-17.4-14.56-20.21-24.58-4.24-15.06,3.09-34,1.73-49.46s.06-31.26,6.5-45.76a31.85,31.85,0,0,1,6.79-10.4C402.78,304.52,408.47,302.08,414.24,300.2Z" transform="translate(-310.45 -102.01)"/><path class="cls-6" d="M578,309.37c.38,2.42-1.06,4.38-2.88,6-15.22,13.76-26.4,23.07-37.58,32.81-13.48,11.73-44,36.17-47,39.64a269.71,269.71,0,0,1-54.8,49c-6.3,4.24-9.94,9.09-17.52,8.7a67.37,67.37,0,0,1-13.67-2.9c-12.47-4.57-21.18-17.24-24-30.23a7.45,7.45,0,0,1,.18-4.74,8.79,8.79,0,0,1,3-3c41.62-30.25,81-55.55,118.44-90.86,12.76-12,22.9-26.51,35.19-39,4.35-4.42,14.92-1.44,23.4,5.1A45.28,45.28,0,0,1,578,309.37Z" transform="translate(-310.45 -102.01)"/><path class="cls-7" d="M486.19,599.47c-1.57,3-3.22,6.11-6,8.11a2.72,2.72,0,0,1-1.47.62,3,3,0,0,1-1.89-1,58.18,58.18,0,0,1-14-19.27c-.21-.46-.39-1-.08-1.41a1.39,1.39,0,0,1,.84-.38,74.14,74.14,0,0,1,27.66,0,1.65,1.65,0,0,1,.85.35c.48.47.2,1.29-.11,1.89Q489.09,593.91,486.19,599.47Z" transform="translate(-310.45 -102.01)"/><path class="cls-7" d="M505.76,467.83a42.73,42.73,0,0,0,5-3.71c5.29-4.74,10.19-9.51,23.28-21.63,4.12-3.82,8.07-4.84,7.1-7.59-1.27-3.6-6.95-14.7-32.55-41.31-7.79-8.09-18.65-20.21-27.93-20.85-7.53-.52-15.78,12.57-33.39,31.51-9.94,10.7-21.44,20.31-28.16,33.27a8.31,8.31,0,0,0-1.07,3c-.24,2.95,2.41,5.24,4.75,7.07,9.22,7.24,17.61,15.84,23,26.24a60,60,0,0,1,5.48,15.44,3.6,3.6,0,0,0,.91,2.08c.88.78,2.25.48,3.37.13A201.81,201.81,0,0,0,505.76,467.83Z" transform="translate(-310.45 -102.01)"/><path class="cls-8" d="M521.74,540.93c1-1.08.58-2.79.15-4.19a68.25,68.25,0,0,1-3-20.47,12,12,0,0,1,1.06-5.63c1.36-2.53,5.67-4.95,7.76-6.94,1.6-1.54,3.07-1.78,3.39-4,.16-1.16-1.35-1.42-1.58-1.77a1.62,1.62,0,0,0-1.07-.57l-7.85-1.85c-1-3.13,1-6.35,1.8-9.53,1.27-5.36,2.46-10.85,1.89-16.33s-3.18-11-7.94-13.79c-3-1.77-6.66-2.26-10.18-2.33-18.52-.34-36.73,11.17-44.36,28a71,71,0,0,0-4,12A74.63,74.63,0,0,0,455.08,515c.32,7.24,2.29,14.54,6.5,20.45,5.56,7.82,14.71,12.64,24.17,14.23s19.24.18,28.42-2.62a15.56,15.56,0,0,0,5.94-2.87c1.65-1.48,2.7-3.85,2-6Z" transform="translate(-310.45 -102.01)"/><path class="cls-2" d="M466.39,516.64c10.25-5.83,24.54-6.93,35.11-1.68.61.31,1.31.85,1.11,1.5-4.32,4.74-11.06,6.82-17.44,6.37S471.61,520.35,466.39,516.64Z" transform="translate(-310.45 -102.01)"/><path class="cls-7" d="M486.39,520.65c2.21-.65,2.53-4.09,1-5.8s-4.25-2-6.41-1.13a4,4,0,0,0-1.82,1.23,3.4,3.4,0,0,0,.67,4.34C481,520.39,482,521.91,486.39,520.65Z" transform="translate(-310.45 -102.01)"/><path class="cls-4" d="M514.93,493.26a1.64,1.64,0,0,0,2,1.59,24.39,24.39,0,0,0,13.22-8.41c4-4.62,7.11-8.15,6.84-14.23-2-.9-11,.17-20.16,14.08A13,13,0,0,0,514.93,493.26Z" transform="translate(-310.45 -102.01)"/><path class="cls-4" d="M513.38,491.87c0,1.12-.33,2.43-1.35,2.86a3,3,0,0,1-2-.1c-12.78-4-18.7-10.74-23.4-20a1,1,0,0,1,.63-1.36c3.26-.82,8.7-2.3,16.82,1.47a11.59,11.59,0,0,1,2.85,1.84A19.79,19.79,0,0,1,513.38,491.87Z" transform="translate(-310.45 -102.01)"/><path class="cls-4" d="M494.9,421.14a31.78,31.78,0,0,1,13.39.62c4.37,1,7.74,2.86,12.7,8.94,3.55,4.36,4.31,6.48,5.17,14.21.81,7.27-1,20.25-3.88,22.63a22,22,0,0,0-19-13.72c-6.92-.22-14.43,2.2-20.61,5.31-5.58,2.81-6.79,4.14-11.8,6.95-1.74-12.69.33-22.23,6.38-33.52,1.51-2.84,4.44-5.44,7-7.35A20.82,20.82,0,0,1,494.9,421.14Z" transform="translate(-310.45 -102.01)"/><path class="cls-4" d="M418.75,452.13c-6.73.8-14.05,5.3-18.11,10.72a41.25,41.25,0,0,0-8.09,17.29,39.22,39.22,0,0,0,3.2,23.51,46.27,46.27,0,0,0,6.11,8.77,146.08,146.08,0,0,0,11.76,13.22,74.5,74.5,0,0,0,34.08,18.61c7.45,1.78,15.66,2.31,22.42-1.28a9.32,9.32,0,0,0,3.55-2.94,11.2,11.2,0,0,0,1.44-5c3.12-27.41-9.38-54.45-26.33-72.21a53.48,53.48,0,0,0-10.25-7.72C427.77,449.6,422.7,451.66,418.75,452.13Z" transform="translate(-310.45 -102.01)"/><path class="cls-4" d="M446,591.58a12.33,12.33,0,0,1-4.24-3.8,114.08,114.08,0,0,1-20-37.81c7.67-1.35,15.52-.71,23.31-.37,12.52.53,25.05.27,37.58,0l44.69-1c1.91,0,4.18.08,5.24,1.68,1.43,2.14-.44,4.89-2.16,6.8-7.48,8.29-14.13,20.25-19.67,30a8,8,0,0,1-2.63,3.21,11.18,11.18,0,0,1-2.8.77c-22.18.54-35.86,1.09-53.93,1.26A12.86,12.86,0,0,1,446,591.58Z" transform="translate(-310.45 -102.01)"/><g class="cls-9"><path class="cls-6" d="M515,495.84c5.1-3.2,10-6.09,14.33-10.4s7.61-10.76,10-16.23a.61.61,0,0,0-1-.73c-3.83,3.4-6,8.58-8.87,12.76-3.87,5.62-10.28,9.15-14.93,14.09-.24.27.08.71.4.51Z" transform="translate(-310.45 -102.01)"/><path class="cls-6" d="M514.35,492.89c5.46-5.45,16.63-11.26,16.23-20.35a1,1,0,0,0-1.62-.67c-2.78,3-4.26,7-7,10.12-3,3.45-6.54,5.9-8.67,10.08a.67.67,0,0,0,1.05.82Z" transform="translate(-310.45 -102.01)"/></g><g class="cls-10"><path class="cls-6" d="M513.49,493.52c-3.56-5-9.93-8-14.48-12.09-2.92-2.66-5.75-5.45-8.4-8.39s-4.33-6.44-7-9.26a.75.75,0,0,0-1.27.52c.61,6.06,5.8,11.35,9.85,15.54a85.36,85.36,0,0,0,9.17,7.81c3.4,2.63,7.85,4,11,6.69.55.46,1.54-.16,1.06-.82Z" transform="translate(-310.45 -102.01)"/><path class="cls-6" d="M517,488.8c-4.58-2.55-7.8-6.71-11.49-10.33-4.14-4.06-8.71-7.62-12-12.48a.49.49,0,0,0-.89.38c1.08,5.82,4.83,9.93,9.23,13.67s8.85,8.1,14.53,10.24c.87.34,1.41-1,.62-1.48Z" transform="translate(-310.45 -102.01)"/></g><g class="cls-11"><path class="cls-6" d="M483.13,534.28c-11.22,4.56-10.8-17.84-10.15-22.73.85-6.43.95-12-1.71-18-2.33-5.24-7.73-9.18-11.46-13.34-7.67-8.54-4-19-2-28.72a1.14,1.14,0,0,0-1.89-1.11c-5.61,5.92-5.14,15.46-3.83,23,1.59,9.24,11.35,14.59,15.93,22.08,6.08,10-2.18,23.2,2.94,34,2.71,5.71,6.65,10.32,12.83,6.26.72-.48.26-1.85-.63-1.48Z" transform="translate(-310.45 -102.01)"/><path class="cls-6" d="M478.2,544.59c-14.72-3.91-14.38-20.32-12.61-32.42,1.2-8.24-1-13.41-8-17.74-4.57-2.81-8.93-5.49-11.89-10.09-4.53-7-1.34-16.12.38-23.45,2-8.71-2.18-17.23-9.27-22.13-.87-.59-1.66.52-1.31,1.3,4.33,9.29,7.2,14.89,4.41,25.4a36.92,36.92,0,0,0-.67,14.91c1.23,8.73,9,14,16,18.08,10.93,6.44,4.1,22.65,6.76,33.38,1.93,7.8,7.33,15.19,16,14.08.71-.09,1-1.11.19-1.32Z" transform="translate(-310.45 -102.01)"/><path class="cls-6" d="M463.23,548.24c-12.57-4.13-9.42-22.42-9-32.27s-6.13-13.43-12.74-19.45c-18-16.41,8.63-44.95-14.38-58.06a1.87,1.87,0,0,0-2.54,2.54c4.39,8.15,9,12.41,6.56,22.72-1.54,6.48-2.46,11.66-1.78,18.35.93,9.16,5.43,15.82,12.51,21.44,6.62,5.24,7.82,9.37,7.39,17.46a59.61,59.61,0,0,0,.92,14.24C451.55,542.68,455,549,463,550c1.06.13,1.16-1.48.24-1.78Z" transform="translate(-310.45 -102.01)"/><path class="cls-6" d="M447,548.59c-11.22-9-1.88-22.59-4.37-34.06-1-4.5-6.27-8.38-9.52-11.08-6-5-10-9.32-12.49-17-4.14-12.73,1.64-23.17,3.26-35.5,1.11-8.48-4.82-15.33-12.74-17.1a1.94,1.94,0,0,0-1.88,3.22c5.48,5.43,9.38,8.87,7.82,17.16-.93,4.92-3.08,9.58-3.73,14.56-1.44,11,.91,22.54,7.53,31.52,3.25,4.39,8.35,7.43,12.4,11,6.42,5.73,3.32,14.42,3.55,21.83.18,6.23,2.09,15.65,9.45,16.65.64.08,1.39-.71.72-1.24Z" transform="translate(-310.45 -102.01)"/><path class="cls-6" d="M429.46,547.42c1.42-7.72,3.5-16.83-.11-24.3-4.05-8.42-12.3-12.87-17.17-20.65-6.67-10.67-4.64-26.85-1.4-38.21,1.88-6.62,2.48-12.91-2.09-18.36a1.36,1.36,0,0,0-2.3,1c.58,9.9-1.89,17.57-3.53,27.17-1.33,7.8-.42,16.73,1.45,24.39,1.8,7.41,6.84,12.74,12.33,17.66,5.83,5.22,9.28,9.82,10,18,.38,4.53.27,8.89,1.09,13.38a.92.92,0,0,0,1.75,0Z" transform="translate(-310.45 -102.01)"/><path class="cls-6" d="M420.47,546.51c2.83-17-11.74-25.63-20.3-38.07s0-26.22-1.18-39.66c-.66-7.56-4.51-17.12-11.09-21.22a2,2,0,0,0-3,1.71c.35,4,1.67,6.35,3.53,10,3.64,7.21,4.06,13.82,2.51,21.65-1.75,8.94-3.41,18.5.95,27,7.35,14.35,23.13,21.84,26.38,38.54a1.14,1.14,0,0,0,2.19,0Z" transform="translate(-310.45 -102.01)"/></g><path class="cls-5" d="M521.59,535.65a8.25,8.25,0,0,0-3.88-.76c-27.38,1.29-52.69,1.72-80.2,1.41a12.87,12.87,0,0,0-9.9,4.41c-2.68,2.84-6.88,7.81-6.14,11.15,1,4.25,5.49,3.07,12.12,3.55,9.38.69,24.85.28,34.25.33,24.12.12,36.83-.16,62.84-1.3,3.14-.13,3.79-2.42,3.78-5.56a4.54,4.54,0,0,0-1.49-3.27l-9.22-8.52a8.37,8.37,0,0,0-2.12-1.42Z" transform="translate(-310.45 -102.01)"/><path class="cls-12" d="M537.12,433.68l-.18-.06a1.68,1.68,0,0,0-2.06,2.05,1.51,1.51,0,0,0,.09.18,1.76,1.76,0,1,0,2.15-2.17Z" transform="translate(-310.45 -102.01)"/><path class="cls-12" d="M532.13,426.44c-2.78,0-2.78,4.32,0,4.32s2.79-4.32,0-4.32Z" transform="translate(-310.45 -102.01)"/><path class="cls-12" d="M526.64,420.14c-2.57,0-2.57,4,0,4s2.57-4,0-4Z" transform="translate(-310.45 -102.01)"/><path class="cls-12" d="M522.52,414.36c0-.11-.09-.22-.14-.33-1-2.3-4.71-.28-3.43,2l.17.32a2,2,0,0,0,3.4-2Z" transform="translate(-310.45 -102.01)"/><path class="cls-12" d="M516.94,409.74a2.3,2.3,0,0,0-1-2.75,1.88,1.88,0,0,0-1.94,0,2,2,0,0,0-.88,2.17s0,.1,0,.15v-1.05a3.52,3.52,0,0,0,0,1.48,2,2,0,0,0,1.91,1.47,2.09,2.09,0,0,0,1.94-1.47Z" transform="translate(-310.45 -102.01)"/><path class="cls-12" d="M509.57,400.76l-.16-.16a2.14,2.14,0,0,0-3,0l-.17.15a1.93,1.93,0,0,0,0,2.71l.17.15a2.14,2.14,0,0,0,3,0l.16-.16a2,2,0,0,0,0-2.69Z" transform="translate(-310.45 -102.01)"/><path class="cls-12" d="M501,397.21l.18.06a1.75,1.75,0,0,0,2-.81l.05-.1a1.75,1.75,0,0,0-2.37-2.37,2.16,2.16,0,0,0-.83.84,1.63,1.63,0,0,0,1,2.38Z" transform="translate(-310.45 -102.01)"/><path class="cls-12" d="M496.85,388.92a3,3,0,0,0-.74-.58c-2-1.11-3.8,2.13-1.77,3h.05a1.74,1.74,0,0,0,2.46-2.46Z" transform="translate(-310.45 -102.01)"/><path class="cls-12" d="M488.2,382.34a1.67,1.67,0,0,0,0,3.34,1.67,1.67,0,0,0,0-3.34Z" transform="translate(-310.45 -102.01)"/><path class="cls-12" d="M472.45,384.2c0,.06.05.11.07.17v-1a.5.5,0,0,0,0,.13,1.77,1.77,0,0,0,2.16,2.16,2.36,2.36,0,0,0,1.33-1,1.94,1.94,0,0,0-1.15-2.82c-1.28-.36-3,1-2.37,2.36Z" transform="translate(-310.45 -102.01)"/><path class="cls-12" d="M467.51,387.19c-2.57,0-2.57,4,0,4a2,2,0,0,0,0-4Z" transform="translate(-310.45 -102.01)"/><path class="cls-12" d="M462.34,392.63c-2.62,0-2.62,4.08,0,4.08s2.63-4.08,0-4.08Z" transform="translate(-310.45 -102.01)"/><path class="cls-12" d="M457.18,399.1a1.72,1.72,0,0,0,0,3.43,1.72,1.72,0,0,0,0-3.43Z" transform="translate(-310.45 -102.01)"/><path class="cls-12" d="M449.37,407.32a1.78,1.78,0,0,0,1.67,1.32,1.69,1.69,0,1,0-.46-3.32c-.73.2-1.53,1.19-1.21,2Z" transform="translate(-310.45 -102.01)"/><path class="cls-12" d="M445.54,411c-2.72,0-2.72,4.22,0,4.22s2.72-4.22,0-4.22Z" transform="translate(-310.45 -102.01)"/><path class="cls-12" d="M439.09,417.35c-2.85,0-2.85,4.41,0,4.41s2.84-4.41,0-4.41Z" transform="translate(-310.45 -102.01)"/><path class="cls-12" d="M434.56,424.14a1.55,1.55,0,0,0,0,3.1,1.55,1.55,0,0,0,0-3.1Z" transform="translate(-310.45 -102.01)"/><path class="cls-12" d="M430,429.49a1.37,1.37,0,0,0,0,2.74,1.37,1.37,0,0,0,0-2.74Z" transform="translate(-310.45 -102.01)"/><path class="cls-12" d="M425.19,436c-2.51,0-2.51,3.9,0,3.9s2.51-3.9,0-3.9Z" transform="translate(-310.45 -102.01)"/><path class="cls-7" d="M492.94,527.86a27.55,27.55,0,0,1-8.26.15c-2.41-.25-7.77.53-5.57,4.29,1.69,2.89,6.48,2.3,9.22,1.93s6.25-1.68,6.63-4.82c.14-1.1-1.11-1.74-2-1.55Z" transform="translate(-310.45 -102.01)"/><path class="cls-12" d="M485.13,505.27c-1.58,1.59.95-1.06,1.12-1.32a6.93,6.93,0,0,0,.87-2.25,14,14,0,0,0,.11-4.29c-.34-3.86-1.89-7.48-5.74-8.93-4.67-1.76-9.25,4.43-6.5,8.45.35.52.76,1,1.15,1.5-1.25-1.58-.42-.54-.17-.07.55,1-.5-1.32-.06-.13.17.46.35.92.53,1.38.42,1.11.69,2.25,1.22,3.33a11.05,11.05,0,0,0,.55,1c.09.14,2.75,3.07,1.14,1.32a4.11,4.11,0,0,0,5.78,0Z" transform="translate(-310.45 -102.01)"/><path class="cls-12" d="M504.49,586.41c2.87-3.25,5-7.09,7.14-10.82s4.62-8.59,3.54-13.05c-.83-3.51-5.94-4.16-7.66-1-1.95,3.58-2.66,8.25-3.95,12.15s-2.5,7.83-1.71,12a1.59,1.59,0,0,0,2.64.69Z" transform="translate(-310.45 -102.01)"/><path class="cls-12" d="M492,586.87c3.37-4,4.23-9.66,5.41-14.61,1.05-4.36,2.24-9.44-1.85-12.48-2-1.5-5.61-.47-6.67,1.75-1.41,3-.8,7-1,10.24a42.84,42.84,0,0,0,1.17,14.32,1.77,1.77,0,0,0,2.94.78Z" transform="translate(-310.45 -102.01)"/><path class="cls-12" d="M478.18,586.9c3.16-7.17,3.59-16.68,3.63-24.43,0-6.35-9.65-6.32-9.82,0-.23,7.74-.18,17.22,2.95,24.43a1.89,1.89,0,0,0,3.24,0Z" transform="translate(-310.45 -102.01)"/><path class="cls-12" d="M466.69,587c1.1-3.64.32-7.26-.18-11-.6-4.32-1.27-8.72-2.05-13-1-5.62-9.66-4.11-9.69,1.32,0,7.53,3.9,18,9.43,23.29a1.51,1.51,0,0,0,2.49-.65Z" transform="translate(-310.45 -102.01)"/><path class="cls-12" d="M452.35,585.66c1.67-4.72-2.43-10-4-14.23-1.41-3.82-1.73-9.79-6.77-10.62-3.66-.6-6.38,2-5.72,5.74.49,2.81,2.93,6.63,4.5,9.06,2.3,3.56,6.12,9,10,10.87a1.38,1.38,0,0,0,2-.82Z" transform="translate(-310.45 -102.01)"/><path class="cls-7" d="M511.13,562.28c-2.6,0-2.6,4,0,4s2.6-4,0-4Z" transform="translate(-310.45 -102.01)"/><path class="cls-7" d="M493.36,561.25c-2.69,0-2.69,4.17,0,4.17s2.7-4.17,0-4.17Z" transform="translate(-310.45 -102.01)"/><path class="cls-7" d="M477.2,560.37c-3,0-3,4.63,0,4.63s3-4.63,0-4.63Z" transform="translate(-310.45 -102.01)"/><path class="cls-7" d="M460.4,562.17c-2.75,0-2.75,4.26,0,4.26s2.75-4.26,0-4.26Z" transform="translate(-310.45 -102.01)"/><path class="cls-7" d="M441.66,563.65a2,2,0,0,0,0,3.89,1.95,1.95,0,0,0,0-3.89Z" transform="translate(-310.45 -102.01)"/><path class="cls-7" d="M516.22,540.07a15.55,15.55,0,0,0,3,8.74,3.36,3.36,0,1,0,5.28-4.08c-1.83-1.94-3.49-4-5.38-5.86a1.71,1.71,0,0,0-2.89,1.2Z" transform="translate(-310.45 -102.01)"/><path class="cls-7" d="M508,541.55a12,12,0,0,1,.19,3.4,15.21,15.21,0,0,0,.55,4.56,3.14,3.14,0,0,0,3,2.25c1.51,0,3.28-1.4,3.07-3.06a36.73,36.73,0,0,0-1.05-5,10.23,10.23,0,0,0-2.46-4.06c-1.27-1.45-3.91.08-3.26,1.89Z" transform="translate(-310.45 -102.01)"/><path class="cls-7" d="M497.65,540.39c0-.63-.27.85-.32,1.07a14.9,14.9,0,0,0-.27,2.75c-.1,1.46-.35,2.85-.55,4.29-.25,1.73.4,3.44,2.24,4a3.27,3.27,0,0,0,4-2.24,14.13,14.13,0,0,0,.29-6.27,7.52,7.52,0,0,0-1.05-3.09,7.35,7.35,0,0,0-1-1.11s-1.28-1-.72-.43a1.54,1.54,0,0,0-2.61,1.08Z" transform="translate(-310.45 -102.01)"/><path class="cls-7" d="M487.14,539.45a6,6,0,0,0-3,4.26,13.58,13.58,0,0,0,0,6.37c.84,3,5.6,3.23,6.31,0a16,16,0,0,0-.13-5.81c-.1-.73-.17-1.46-.26-2.19-.09-.31-.19-.63-.3-.94,0,0-.6-1.59-.41-.81a1.46,1.46,0,0,0-2.13-.88Z" transform="translate(-310.45 -102.01)"/><path class="cls-7" d="M474.22,539.8a6.36,6.36,0,0,0-2.65,3.83c-.58,1.7-1.49,3.93-1.39,5.74.14,2.07,2.57,4.08,4.57,2.62,2.19-1.61,2.57-3.94,2.87-6.48A6.18,6.18,0,0,0,476,540a1.48,1.48,0,0,0-1.75-.22Z" transform="translate(-310.45 -102.01)"/><path class="cls-7" d="M463.48,539.23c-.87,1.36-2,2.5-2.79,3.94s-1.61,2.89-2.35,4.38a3.12,3.12,0,0,0,0,3.14l.23.34a2.64,2.64,0,0,0,2.83,1.15c2.52-.35,3.19-3.47,4-5.51a23.35,23.35,0,0,0,1.25-6.6c.14-1.75-2.28-2.14-3.12-.84Z" transform="translate(-310.45 -102.01)"/><path class="cls-7" d="M450.53,539.57c-.19.15-1,.88-.19.27a4.22,4.22,0,0,0-1.12,1.11,26.53,26.53,0,0,0-1.39,2.36c-1,1.74-2.5,3.57-2.63,5.59a3.11,3.11,0,0,0,3.92,3c2.42-.8,3.53-3.45,4.27-5.71.63-1.93,1-4.54-.31-6.29a1.67,1.67,0,0,0-2.55-.32Z" transform="translate(-310.45 -102.01)"/><path class="cls-7" d="M437.24,539.54l-.24.14,1.47-.19c-2.07-.35-3.77,1.2-5.14,2.59-1.8,1.83-4.12,3.29-4.29,6.08-.1,1.72,1.21,2.85,2.62,3.44,3.18,1.34,6.1-2.15,7.39-4.58,1-1.88,2.13-5.31.27-7,.19.45.38.9.56,1.36l0-.3a1.75,1.75,0,0,0-2.61-1.5Z" transform="translate(-310.45 -102.01)"/><path class="cls-7" d="M508.55,569.76c-3,0-3,4.59,0,4.59s3-4.59,0-4.59Z" transform="translate(-310.45 -102.01)"/><path class="cls-7" d="M506.28,576.55a1.65,1.65,0,0,0,0,3.29,1.65,1.65,0,0,0,0-3.29Z" transform="translate(-310.45 -102.01)"/><path class="cls-7" d="M493.36,568.91c-2.81,0-2.81,4.36,0,4.36s2.81-4.36,0-4.36Z" transform="translate(-310.45 -102.01)"/><path class="cls-7" d="M493,575.76a1.79,1.79,0,0,0,0,3.57,1.79,1.79,0,0,0,0-3.57Z" transform="translate(-310.45 -102.01)"/><path class="cls-7" d="M477.2,569a1.76,1.76,0,0,0,0,3.52,1.76,1.76,0,0,0,0-3.52Z" transform="translate(-310.45 -102.01)"/><path class="cls-7" d="M477.86,575.64a1.91,1.91,0,0,0,0,3.81,1.91,1.91,0,0,0,0-3.81Z" transform="translate(-310.45 -102.01)"/><path class="cls-7" d="M460.26,572.85l.16.16a1.84,1.84,0,0,0,2.56,0l.17-.16a2,2,0,1,0-2.89,0Z" transform="translate(-310.45 -102.01)"/><path class="cls-7" d="M464,576.36a1.51,1.51,0,0,0,0,3,1.51,1.51,0,0,0,0-3Z" transform="translate(-310.45 -102.01)"/><path class="cls-7" d="M443.6,573.1c2.21-.06,2.38-3.34.13-3.34s-2.16,3.39-.13,3.34Z" transform="translate(-310.45 -102.01)"/><path class="cls-7" d="M446.52,575.14c-2.7,0-2.7,4.17,0,4.17s2.68-4.17,0-4.17Z" transform="translate(-310.45 -102.01)"/><path class="cls-13" d="M482.87,406.14c0-2.66.22-5.31.16-8,0-2.19,0-5.28-2.37-6.29a1.45,1.45,0,0,0-1.91.5c-1.36,1.79-.4,4.37-.08,6.38.42,2.62.73,5.21,1.32,7.79a1.47,1.47,0,0,0,2.88-.39Z" transform="translate(-310.45 -102.01)"/><path class="cls-13" d="M492.94,412.27c.88-1.45,1.61-3,2.39-4.52a17.94,17.94,0,0,0,2.06-4.74c.43-2.32-2.81-4.05-4-1.7-.8,1.56-1.34,3.25-2.05,4.86a12.43,12.43,0,0,0-1.32,5.31,1.58,1.58,0,0,0,2.93.79Z" transform="translate(-310.45 -102.01)"/><path class="cls-13" d="M502.65,416.88c1.74-1,3.75-2.24,4.38-4.24a1.66,1.66,0,0,0-2.42-1.86c-1.45.66-2.46,2.11-3.74,3.05-1.79,1.32-.23,4.21,1.78,3.05Z" transform="translate(-310.45 -102.01)"/><path class="cls-13" d="M471.61,411.48c0-1.51-.8-3.09-1.34-4.47-.81-2.07-1.72-3.92-3.94-4.72-1.74-.63-3.22,1.25-2.84,2.83s1.6,3.14,2.54,4.57,2.33,3.14,4.23,3.13a1.36,1.36,0,0,0,1.35-1.34Z" transform="translate(-310.45 -102.01)"/><path class="cls-13" d="M463.53,418.84a12.53,12.53,0,0,0-3.41-4.21,17.91,17.91,0,0,0-2.14-1.55,5.35,5.35,0,0,0-3.21-.58,2.07,2.07,0,0,0-1.46,3.51,9.65,9.65,0,0,0,1.95,1.71c.73.4,1.43.81,2.12,1.27a21.67,21.67,0,0,0,4.18,2.4c1.59.62,2.52-1.34,2-2.55Z" transform="translate(-310.45 -102.01)"/><path class="cls-13" d="M454.73,426a27.49,27.49,0,0,0-3.31-2.45c-.54-.39-1.06-.8-1.61-1.17a6.42,6.42,0,0,0-2.39-.79,1.8,1.8,0,0,0-1.74,3,9.29,9.29,0,0,0,1.79,1.81,13.76,13.76,0,0,0,2.16,1.19,6,6,0,0,0,4.51.66,1.35,1.35,0,0,0,.59-2.24Z" transform="translate(-310.45 -102.01)"/><path class="cls-13" d="M447.64,434.57a12.36,12.36,0,0,0-3.12-3.21,7.73,7.73,0,0,0-4.36-2c-2-.15-2.76,2.43-1.55,3.71a12.24,12.24,0,0,0,3.59,2.28,8.7,8.7,0,0,0,4.32,1.17,1.32,1.32,0,0,0,1.12-1.95Z" transform="translate(-310.45 -102.01)"/><path class="cls-13" d="M441.92,441.76c-1.85-2-4.24-4.22-7.1-4.34a1.86,1.86,0,0,0-1.31,3.15,11.7,11.7,0,0,0,7.67,3,1.05,1.05,0,0,0,.74-1.78Z" transform="translate(-310.45 -102.01)"/><path class="cls-4" d="M382.31,352.44c3,.27,3.42-3.07.42-3.34s-3.42,3.07-.42,3.34Z" transform="translate(-310.45 -102.01)"/><path class="cls-4" d="M389.55,352.92a3.13,3.13,0,0,0,2.48,1.37c1.8.19,3.45-1.58,1.94-2.63l-.61-.43c-.59-.12-.75-.2-.47-.23-1.77-1.12-4.28.5-3.34,1.92Z" transform="translate(-310.45 -102.01)"/><path class="cls-4" d="M399.56,354.88c2.73.25,3.11-2.8.36-3s-3.1,2.8-.36,3Z" transform="translate(-310.45 -102.01)"/><path class="cls-4" d="M568,355.79c2.78-.61,1.84-3.7-.94-3.09s-1.83,3.71.94,3.09Z" transform="translate(-310.45 -102.01)"/><path class="cls-4" d="M576.44,350.26l-.2,0c-1.54-.14-3.13.76-2.76,2s2.28,1.37,3.55.6l.17-.09a1.34,1.34,0,0,0-.76-2.48Z" transform="translate(-310.45 -102.01)"/><path class="cls-4" d="M450.79,342.52c1.37,0,1.37-1.53,0-1.53s-1.38,1.53,0,1.53Z" transform="translate(-310.45 -102.01)"/><path class="cls-4" d="M569,343.87c2.06,0,2.06-2.3,0-2.3s-2.07,2.3,0,2.3Z" transform="translate(-310.45 -102.01)"/><path class="cls-4" d="M456.07,321.06c1.88.25,4.7.82,6.4-.16a.63.63,0,0,0,0-1.16c-1.7-1-4.52-.41-6.4-.16a.74.74,0,0,0,0,1.48Z" transform="translate(-310.45 -102.01)"/><path class="cls-4" d="M431.94,331.1a17.23,17.23,0,0,0,2.82.92c.47.13,1,.17,1.49.26a4.57,4.57,0,0,0,1.23.18c.31,0,.65-.24.52-.49-.68-1.28-3.55-1.52-5-2.16-1.16-.51-2.18.77-1.05,1.29Z" transform="translate(-310.45 -102.01)"/><path class="cls-4" d="M446.12,347.22c.09,1.21-.12,3.11,1.67,3.78.76.28,1.91.07,2.1-.61.32-1.23-.88-2.6-1.87-3.54-.55-.52-2-.44-1.9.37Z" transform="translate(-310.45 -102.01)"/><path class="cls-4" d="M499.4,322.79c.83.56,1.59,1.19,2.37,1.81a4.32,4.32,0,0,0,2.54,1.31c.36,0,.64-.32.54-.6a4.69,4.69,0,0,0-1.75-1.85c-.78-.61-1.55-1.23-2.39-1.79s-2.26.48-1.31,1.12Z" transform="translate(-310.45 -102.01)"/><path class="cls-4" d="M491.81,333.81c.58.61,1.95,2.55,3.34,2s-.86-2.28-1.33-2.8c-.81-.9-2.84-.05-2,.84Z" transform="translate(-310.45 -102.01)"/><path class="cls-7" d="M598.66,387.13c-5,1.44.42,36-24.38,49.16-4.51,2.39-11.81,2.4-16.12-.42a14.14,14.14,0,0,1-3.3-3.19,42.9,42.9,0,0,1-9.15-26c-.21-8.92,1.85-17.72,4.41-26.38-5.68-1.65-11.53-3.69-15-7.24-4.44-4.55-3.76-10.76.21-15.27s10.71-7.51,17.81-9.49a29.45,29.45,0,0,1,5.47-1.1,38.68,38.68,0,0,1,9,.66q13.8,2.14,27.44,4.87c1.65.33,17.5.92,20.54,11.39C619.74,378.27,613.81,382.77,598.66,387.13Z" transform="translate(-310.45 -102.01)"/><path class="cls-12" d="M481.6,377.52l-.19-.09c-1.64-.78-3.45.77-2.54,2.17a1.4,1.4,0,0,0,.1.16,2.15,2.15,0,0,0,3,.34,1.52,1.52,0,0,0-.39-2.58Z" transform="translate(-310.45 -102.01)"/><path class="cls-13" d="M593.79,383.41c6.4-1.76,10.1-5.52,12.11-10.07,1.93-4.39,1.94-12-4.78-14.73-3.53-1.44-9.33-.09-8,3.38,1.12,3,3,5.27,2.82,8.5a10.37,10.37,0,0,1-5.71,8.88c-3.21,1.51.23,5,3.6,4Z" transform="translate(-310.45 -102.01)"/><path class="cls-13" d="M577.66,378.89l.11.05a3.64,3.64,0,0,0,3.25,0c6.94-4.43,7.08-14.51,4-20.55-1.24-2.44-6.15-2-7.33,0-2.13,3.67-.63,8.13-.25,12a20.14,20.14,0,0,1-.24,5.48c-.17,1-1.24,2.21.45,3Z" transform="translate(-310.45 -102.01)"/><path class="cls-13" d="M565.76,376.18c1.14-3.17.9-6.62,1.49-9.88.66-3.7,2.67-6.94,3.82-10.51,1-3.2-5.37-4.16-7.77-2.23-6.31,5.07-6.32,17.18-1.08,22.95.81.9,3.18.67,3.54-.33Z" transform="translate(-310.45 -102.01)"/><path class="cls-13" d="M552.23,371.45c-1.54-4.08-3.81-8.49-.21-12.23,2.24-2.32,6.56-3.38,6.09-6.63-.08-.58-.84-.91-1.56-1-5.56-1-10.67,3.73-12.84,6.65-3.07,4.15.21,11.23,4.84,14.37,1.36.92,4.31.51,3.68-1.12Z" transform="translate(-310.45 -102.01)"/><path class="cls-12" d="M567.06,429.52a1.22,1.22,0,1,0-.3,2.4,1.22,1.22,0,1,0,.3-2.4Z" transform="translate(-310.45 -102.01)"/><path class="cls-12" d="M574.49,424.64c-2.69-.25-3.13,3.29-.44,3.53s3.11-3.29.44-3.53Z" transform="translate(-310.45 -102.01)"/><path class="cls-12" d="M564.71,422.28a1.06,1.06,0,1,0-.26,2.08,1.06,1.06,0,1,0,.26-2.08Z" transform="translate(-310.45 -102.01)"/><path class="cls-12" d="M580.94,417.2a2.05,2.05,0,0,0-1.16-1c-1.1-.47-2.58.56-2.28,1.58a.21.21,0,0,1,0,.11c0-.27.07-.53.09-.79a.61.61,0,0,1-.07.14c-.5.93.38,2,1.52,2.12,1.39.12,2.42-1.12,1.86-2.19Z" transform="translate(-310.45 -102.01)"/><path class="cls-12" d="M583.43,408.26l-.26.07a1.27,1.27,0,0,0-.3,2.32l.25.11c1.1.52,2.58.19,2.73-1s-1.22-1.79-2.42-1.48Z" transform="translate(-310.45 -102.01)"/><path class="cls-12" d="M568.87,407.94a2.12,2.12,0,0,0,1.32-.68c1-1.07-.5-2.62-1.93-2l-.13,0,1.25,0-.18,0c-1-.22-2.13.16-2.27,1.17a1.6,1.6,0,0,0,1.94,1.55Z" transform="translate(-310.45 -102.01)"/><path class="cls-12" d="M562.23,413.35a1.2,1.2,0,1,0-.29,2.36,1.2,1.2,0,1,0,.29-2.36Z" transform="translate(-310.45 -102.01)"/><path class="cls-12" d="M558.25,420s-.12-.07-.18-.12c-1.12-.72-2.7.37-2.11,1.46l.1.17c1,1.86,4.12-.28,2.19-1.51Z" transform="translate(-310.45 -102.01)"/><path class="cls-12" d="M559.9,428.09c0-.08,0-.17,0-.26-.14-1.18-2.28-1.37-2.71-.24l-.09.25c-.76,2,3.1,2.33,2.84.25Z" transform="translate(-310.45 -102.01)"/><path class="cls-12" d="M555.2,408.1a1.21,1.21,0,0,0-.21-1c-.78-1.09-3-.75-2.67.69,0,.14,0,.27.08.41.3,1.33,2.61,1.28,2.8-.08Z" transform="translate(-310.45 -102.01)"/><path class="cls-12" d="M557.2,396.23H557a1.66,1.66,0,0,0-1.79,1.23c0,.05,0,.09,0,.14-.37,1.37,1.83,2.12,2.95,1.35a1.51,1.51,0,0,0-1-2.72Z" transform="translate(-310.45 -102.01)"/><path class="cls-12" d="M573.24,396.14a2.23,2.23,0,0,0-1.24-1c-1.31-.43-2.7.53-2.47,1.7,0,0,0,.08,0,.11.12-.41.23-.81.34-1.22l-.07.12a1.69,1.69,0,0,0,1.4,2.7c1.4.12,2.77-1.24,2-2.39Z" transform="translate(-310.45 -102.01)"/><path class="cls-12" d="M583.57,395.82c-2.32-.2-2.7,2.86-.38,3.07s2.7-2.86.38-3.07Z" transform="translate(-310.45 -102.01)"/><path class="cls-12" d="M593.24,388.45c0-.08,0-.17,0-.26-.08-1.34-2.7-1.57-3.11-.28,0,.08,0,.17-.08.26-.69,2.24,3.34,2.6,3.2.28Z" transform="translate(-310.45 -102.01)"/><path class="cls-12" d="M581.35,383.49a2.8,2.8,0,0,0-3-.72,1.5,1.5,0,0,0-.69,2.46c.15.16.38.31.53.45,1.73,1.68,4.91-.5,3.17-2.19Z" transform="translate(-310.45 -102.01)"/><path class="cls-12" d="M568.32,387.74l-.08,0c-1.28-.38-2.75,1-1.66,1.94a3.45,3.45,0,0,0,1,.63c2.08.91,3.09-2.57.73-2.59Z" transform="translate(-310.45 -102.01)"/><path class="cls-12" d="M557.1,389.19a1.11,1.11,0,1,0-.27,2.19,1.11,1.11,0,1,0,.27-2.19Z" transform="translate(-310.45 -102.01)"/><path class="cls-12" d="M554.82,378.71c-2.56-.23-3,3.15-.42,3.38s3-3.15.42-3.38Z" transform="translate(-310.45 -102.01)"/><path class="cls-12" d="M568.66,382.38a2.89,2.89,0,0,0-2.55-.89,1.6,1.6,0,0,0-.84,2.95c.07.13.13.17.22.13,1.74,1.68,4.92-.5,3.17-2.19Z" transform="translate(-310.45 -102.01)"/><path class="cls-12" d="M577.2,400.21l-.17,0c-1.5.3-2.12,1.93-.79,2.77l.15.09a2.08,2.08,0,0,0,2.89-.71,1.73,1.73,0,0,0-2.08-2.19Z" transform="translate(-310.45 -102.01)"/><path class="cls-12" d="M573,376.05a2.44,2.44,0,0,1,0-.27c-.07-1.28-2.6-1.51-3-.27a2.58,2.58,0,0,0-.08.26c-.65,2.15,3.17,2.49,3.07.28Z" transform="translate(-310.45 -102.01)"/><path class="cls-12" d="M601,370.52c-2.5-.23-2.83,2.49-.34,2.71s2.83-2.49.34-2.71Z" transform="translate(-310.45 -102.01)"/><path class="cls-12" d="M582.39,365.91c-1.85-.17-2.1,1.88-.25,2s2.09-1.89.25-2Z" transform="translate(-310.45 -102.01)"/><path class="cls-12" d="M562,363.7l-.25.07a1,1,0,0,0-.24,1.9l.24.12c1.09.53,2.61.13,2.73-.82s-1.28-1.6-2.48-1.27Z" transform="translate(-310.45 -102.01)"/><path class="cls-12" d="M546.85,359.09c-2.47-.22-2.8,2.46-.33,2.68s2.79-2.46.33-2.68Z" transform="translate(-310.45 -102.01)"/><path class="cls-12" d="M413.16,357.52a2.85,2.85,0,0,0-.82.11c-2.47.72-1.75,3.09.82,2.7a3,3,0,0,0,.79-.24c1.75-.74,1.16-2.65-.79-2.57Z" transform="translate(-310.45 -102.01)"/><path class="cls-12" d="M393.68,364.88s0,0,.05-.06a1.2,1.2,0,0,0,.12-1.59,2.58,2.58,0,0,0-2.46-.65l-.11,0c-2,.25-2.26,2.32-.75,2.87l.1,0-1-.93s0,0,0,.06a2.58,2.58,0,0,0,4,.24Z" transform="translate(-310.45 -102.01)"/><path class="cls-4" d="M516.4,390.85c-.4-1.24-.57-3-2-3.66-.38-.18-.89.05-.87.43,0,1.2.83,2.47,1.29,3.6.35.83,1.85.5,1.58-.37Z" transform="translate(-310.45 -102.01)"/><path class="cls-4" d="M533.4,376.15a7.35,7.35,0,0,0-5.3-1.55.58.58,0,0,0-.42.87c.9,1.28,2.8,1.18,4,2.13s2.84-.55,1.7-1.45Z" transform="translate(-310.45 -102.01)"/><path class="cls-4" d="M559.86,340.74c-1.89-.24-4.72-.81-6.41.17a.63.63,0,0,0,0,1.16c1.69,1,4.52.41,6.41.16a.75.75,0,0,0,0-1.49Z" transform="translate(-310.45 -102.01)"/><path class="cls-4" d="M521.08,404.66c.61-.65,1.24-1.28,1.84-1.94.31-.33.58-.68.85-1a6.16,6.16,0,0,0,.71-1.37c.44-.93-1.06-1.88-2-1.31a4.24,4.24,0,0,0-1.13.71,7.27,7.27,0,0,0-1,1.3,7.36,7.36,0,0,0-.93,2.8c-.11.73,1,1.59,1.66.83Z" transform="translate(-310.45 -102.01)"/><path class="cls-4" d="M526.93,368.72a19.41,19.41,0,0,0-2.82-.93c-.47-.12-1-.16-1.48-.26a5.16,5.16,0,0,0-1.25-.17c-.31,0-.64.24-.51.49.68,1.27,3.55,1.52,5,2.16,1.16.51,2.19-.78,1.06-1.29Z" transform="translate(-310.45 -102.01)"/><path class="cls-4" d="M394.12,394.42c-2.37-.86-4.74-1.75-7.34-1.16a.48.48,0,0,0-.14.91c2.17.93,4.52,1,6.85,1.52.86.17,1.5-.95.63-1.27Z" transform="translate(-310.45 -102.01)"/><path class="cls-4" d="M421,297.19c-1.31-.06-4.27-1.23-5.1.11a.51.51,0,0,0,0,.58c.57.67,1.44.52,2.33.62a11.74,11.74,0,0,0,3-.11c.83-.12.58-1.17-.19-1.2Z" transform="translate(-310.45 -102.01)"/><path class="cls-4" d="M399.84,391.19c.18-1.4.08-5.21-2.46-5.06-1.27.07-1.09,1.38-.88,2.12a14.53,14.53,0,0,1,.92,2.94,1.23,1.23,0,0,0,2.42,0Z" transform="translate(-310.45 -102.01)"/><path class="cls-4" d="M426,311.91c-.84-.56-1.61-1.19-2.37-1.81a4.37,4.37,0,0,0-2.56-1.31c-.35,0-.63.32-.52.6.25.79,1.06,1.3,1.74,1.84s1.55,1.24,2.4,1.8,2.25-.49,1.31-1.12Z" transform="translate(-310.45 -102.01)"/><path class="cls-4" d="M543,416.65c-.58-1.23-1.41-3.06-3-3.46a.57.57,0,0,0-.74.47c.06,1.26,1.35,2.3,1.9,3.43.47,1,2.35.55,1.88-.44Z" transform="translate(-310.45 -102.01)"/><path class="cls-7" d="M473.24,121.28c1.56-3,3.23-6.11,5.95-8.1a2.72,2.72,0,0,1,1.47-.62,2.93,2.93,0,0,1,1.9,1,58.32,58.32,0,0,1,14,19.27,1.41,1.41,0,0,1,.08,1.41,1.45,1.45,0,0,1-.84.38,74.36,74.36,0,0,1-27.66,0,1.58,1.58,0,0,1-.85-.35c-.48-.48-.2-1.29.11-1.89C469.36,128.71,471.31,125,473.24,121.28Z" transform="translate(-310.45 -102.01)"/><path class="cls-7" d="M453.66,252.93a41.53,41.53,0,0,0-5,3.71c-5.3,4.74-10.19,9.51-23.27,21.62-4.14,3.83-8.08,4.85-7.11,7.6,1.26,3.6,6.94,14.7,32.54,41.3,7.8,8.1,18.67,20.21,27.94,20.86,7.53.52,15.06-10.28,32.67-29.23,9.94-10.69,22.15-22.59,28.87-35.55a8.2,8.2,0,0,0,1.07-3c.24-2.95-2.4-5.25-4.74-7.07-9.23-7.24-17.62-15.84-23-26.25a59,59,0,0,1-5.49-15.43,3.66,3.66,0,0,0-.91-2.08c-.88-.78-2.25-.48-3.37-.13A201.68,201.68,0,0,0,453.66,252.93Z" transform="translate(-310.45 -102.01)"/><path class="cls-8" d="M437.69,179.83c-1,1.08-.58,2.78-.15,4.19a68.52,68.52,0,0,1,3,20.47,11.88,11.88,0,0,1-1.06,5.63c-1.36,2.53-5.68,4.95-7.76,6.94-1.6,1.54-3.07,1.78-3.39,4-.17,1.15,1.34,1.42,1.58,1.77a1.66,1.66,0,0,0,1.07.57l7.85,1.85c1,3.13-1,6.35-1.81,9.53-1.27,5.36-2.45,10.85-1.89,16.33s3.19,11,7.95,13.79a21,21,0,0,0,10.18,2.33c18.52.34,36.73-11.17,44.37-28a71.41,71.41,0,0,0,4-12,74.32,74.32,0,0,0,2.72-21.51c-.31-7.24-2.28-14.54-6.49-20.45-5.56-7.82-14.71-12.64-24.17-14.23s-19.25-.18-28.43,2.62a15.26,15.26,0,0,0-5.93,2.88c-1.65,1.47-2.7,3.84-2,5.94Z" transform="translate(-310.45 -102.01)"/><path class="cls-2" d="M493.05,204.11c-10.27,5.83-24.57,6.94-35.12,1.69-.61-.31-1.31-.86-1.11-1.5,4.31-4.74,11.05-6.83,17.43-6.37S487.82,200.41,493.05,204.11Z" transform="translate(-310.45 -102.01)"/><path class="cls-7" d="M473,200.11c-2.21.65-2.53,4.09-1,5.81s4.25,1.94,6.41,1.11a3.92,3.92,0,0,0,1.82-1.22,3.4,3.4,0,0,0-.68-4.35C478.44,200.37,477.39,198.85,473,200.11Z" transform="translate(-310.45 -102.01)"/><path class="cls-4" d="M444.5,227.5a1.64,1.64,0,0,0-2-1.59,24.4,24.4,0,0,0-13.21,8.41c-3.94,4.62-7.12,8.15-6.85,14.22,2,.9,11-.16,20.17-14.07A13.23,13.23,0,0,0,444.5,227.5Z" transform="translate(-310.45 -102.01)"/><path class="cls-4" d="M446,228.89c0-1.12.34-2.43,1.36-2.86a3,3,0,0,1,2,.1c12.78,4,18.7,10.74,23.39,20a1,1,0,0,1-.62,1.36c-3.26.81-8.7,2.3-16.82-1.47a11.34,11.34,0,0,1-2.85-1.85A19.78,19.78,0,0,1,446,228.89Z" transform="translate(-310.45 -102.01)"/><path class="cls-4" d="M464.52,299.62a31.74,31.74,0,0,1-13.38-.62c-4.37-1-7.74-2.86-12.7-8.94-3.56-4.36-4.31-6.48-5.17-14.22-.81-7.27,1-20.25,3.88-22.62a22,22,0,0,0,19,13.72c6.91.22,14.42-2.2,20.61-5.32,5.58-2.8,6.78-4.13,11.8-6.94,1.74,12.69-.33,22.23-6.38,33.52-1.52,2.83-4.45,5.44-7,7.35A21,21,0,0,1,464.52,299.62Z" transform="translate(-310.45 -102.01)"/><path class="cls-4" d="M540.68,268.63c6.73-.8,14.05-5.3,18.11-10.72a41,41,0,0,0,8.08-17.28,39.24,39.24,0,0,0-3.2-23.52,45.07,45.07,0,0,0-6.11-8.77,147.46,147.46,0,0,0-11.75-13.23,74.62,74.62,0,0,0-34.09-18.61c-7.44-1.77-15.65-2.3-22.42,1.28a9.58,9.58,0,0,0-3.55,2.94,11.4,11.4,0,0,0-1.43,5c-3.13,27.4,9.37,54.44,26.33,72.21a53.85,53.85,0,0,0,10.25,7.71C531.65,271.16,536.73,269.1,540.68,268.63Z" transform="translate(-310.45 -102.01)"/><path class="cls-4" d="M513.41,129.18a12.23,12.23,0,0,1,4.24,3.8,114.08,114.08,0,0,1,20,37.81c-7.67,1.34-15.52.71-23.31.37-12.51-.54-25-.27-37.58,0l-44.69,1c-1.91,0-4.18-.08-5.25-1.68-1.42-2.14.45-4.89,2.16-6.8,7.48-8.3,14.14-20.25,19.67-29.95a7.91,7.91,0,0,1,2.64-3.2,10.8,10.8,0,0,1,2.8-.78c22.19-.54,35.86-1.09,53.92-1.27A12.89,12.89,0,0,1,513.41,129.18Z" transform="translate(-310.45 -102.01)"/><g class="cls-14"><path class="cls-6" d="M444.41,224.92c-5.09,3.2-10,6.09-14.32,10.4s-7.61,10.76-10,16.23a.6.6,0,0,0,.94.73c3.84-3.41,6-8.58,8.88-12.77,3.87-5.61,10.28-9.14,14.92-14.08a.33.33,0,0,0-.4-.51Z" transform="translate(-310.45 -102.01)"/><path class="cls-6" d="M445.07,227.87c-5.45,5.45-16.62,11.26-16.22,20.35a1,1,0,0,0,1.62.67c2.78-3,4.25-7,7-10.12,3-3.45,6.53-5.9,8.67-10.08a.68.68,0,0,0-1.06-.82Z" transform="translate(-310.45 -102.01)"/></g><g class="cls-15"><path class="cls-6" d="M445.94,227.24c3.56,5,9.93,8,14.47,12.09,2.93,2.66,5.76,5.45,8.41,8.39s4.32,6.44,7,9.26a.75.75,0,0,0,1.27-.52c-.61-6.06-5.8-11.35-9.86-15.54a83.46,83.46,0,0,0-9.17-7.81c-3.4-2.64-7.84-4-11.05-6.69-.54-.47-1.53.15-1.05.82Z" transform="translate(-310.45 -102.01)"/><path class="cls-6" d="M442.48,232c4.58,2.55,7.8,6.7,11.49,10.33,4.15,4.06,8.71,7.62,12,12.47a.49.49,0,0,0,.89-.37c-1.08-5.82-4.84-9.93-9.22-13.67-4.56-3.88-8.86-8.1-14.54-10.25-.87-.33-1.41,1-.62,1.49Z" transform="translate(-310.45 -102.01)"/></g><g class="cls-16"><path class="cls-6" d="M433,251.64c11.45,3.26.23,19.61-1.56,25.55-2.06,6.85,4.77,16.34,6.41,22.66a1,1,0,0,0,1.87,0c1.06-4.81-.34-8.3-2.41-12.71-2.71-5.81-2.85-10.41.94-16,1.11-1.65,2.92-3.48,3.06-5.62.33-5.53-.34-16.21-8.1-15.39a.79.79,0,0,0-.21,1.55Z" transform="translate(-310.45 -102.01)"/><path class="cls-6" d="M441.35,254.26c2.59,5.11,5.33,12.06,2.14,17.56-1.56,2.68-4.3,5-4.51,8.29-.27,4.09,1,7.3,3,10.85,4.37,8.05,2.74,12.7.85,20.94a1.11,1.11,0,0,0,1.85,1.08c4.17-3.44,5.64-7.8,5.75-13.09.16-8.07-10.24-14-5.27-22.33,2.88-4.85,4.89-7.09,4.1-13-.62-4.76-2-9.46-6.6-11.55a.94.94,0,0,0-1.27,1.27Z" transform="translate(-310.45 -102.01)"/><path class="cls-6" d="M450.62,257.47A21,21,0,0,1,453.23,271c-.69,4.26-3.29,7.22-3.51,11.67-.15,2.95,2.13,6.27,3.51,8.63,5,8.51,3.19,14,.63,22.74a1.19,1.19,0,0,0,1.74,1.33A13.89,13.89,0,0,0,462,303.18c0-8.29-9.24-16.63-7.09-24.42,1.33-4.83,6.87-22.26-3.75-22.15a.58.58,0,0,0-.51.86Z" transform="translate(-310.45 -102.01)"/><path class="cls-6" d="M459.53,258.86c3.83,7.48,1.84,10.06-.22,17-.62,2.15-1.39,4.56-.4,6.74,2,4.34,5.33,7.77,7.84,11.81,3.89,6.22-.94,10.62-.89,16.29a1.27,1.27,0,0,0,1.89,1.08c8.36-5.38,6.77-15.09,2.12-22.45-1-1.63-2.71-3.58-3.91-5.09-4.1-5.18-.35-9.5.48-14.53s-1.8-9.1-5.45-12a.93.93,0,0,0-1.46,1.12Z" transform="translate(-310.45 -102.01)"/><path class="cls-6" d="M469,257.72c3.08,6.95,2.61,12,1.28,19.11-.44,2.34.36,4.36,1.18,6.46a22,22,0,0,0,3.56,5.4c5,6.06,5.57,10,5.14,17.44a1.71,1.71,0,0,0,2.9,1.2c6-6.69,2.56-14-2.65-20.31-5.08-6.18-5.18-10.36-4.22-17.82.63-4.79-3.09-9.22-6.28-12.18a.58.58,0,0,0-.91.7Z" transform="translate(-310.45 -102.01)"/><path class="cls-6" d="M476.45,254.77c5.4,7.08.61,16.18,4.76,23.82,2.51,4.62,6.92,11,12.87,10a1.17,1.17,0,0,0,.81-1.43c-.64-2.22-1.79-3.36-3.51-5a24.07,24.07,0,0,1-6.9-11.12c-1.92-6.57-.87-12.67-6.5-17.49-.78-.66-2.24.26-1.53,1.19Z" transform="translate(-310.45 -102.01)"/><path class="cls-6" d="M484.78,253.79c-.84,6.52,4.23,18.69,11.9,19.09a1.16,1.16,0,0,0,1.12-1.46c-2.55-6.39-9.6-10.82-10.6-18-.21-1.5-2.25-.9-2.42.33Z" transform="translate(-310.45 -102.01)"/></g><g class="cls-17"><path class="cls-6" d="M526.49,469c-11.45-3.26-.22-19.61,1.57-25.55,2.05-6.85-4.78-16.33-6.42-22.66a1,1,0,0,0-1.87,0c-1,4.81.34,8.3,2.41,12.72,2.71,5.81,2.85,10.4-.93,16-1.11,1.65-2.93,3.48-3.06,5.62-.35,5.53.33,16.21,8.09,15.39a.79.79,0,0,0,.21-1.55Z" transform="translate(-310.45 -102.01)"/><path class="cls-6" d="M518.12,466.33c-2.59-5.11-5.33-12.05-2.13-17.56,1.55-2.68,4.29-5,4.5-8.29.28-4.09-1-7.3-3-10.85-4.38-8.05-2.75-12.7-.84-20.93a1.13,1.13,0,0,0-1.87-1.09c-4.16,3.44-5.64,7.81-5.75,13.09-.15,8.07,10.25,14,5.28,22.33-2.89,4.85-4.9,7.1-4.11,13,.63,4.76,2,9.46,6.6,11.55a.93.93,0,0,0,1.27-1.27Z" transform="translate(-310.45 -102.01)"/><path class="cls-6" d="M508.85,463.12a21,21,0,0,1-2.61-13.55c.7-4.26,3.3-7.22,3.52-11.67.15-2.95-2.13-6.27-3.51-8.63-5-8.5-3.2-14-.64-22.73a1.19,1.19,0,0,0-1.73-1.34,13.89,13.89,0,0,0-6.38,12.22c0,8.28,9.24,16.63,7.09,24.41-1.33,4.83-6.87,22.26,3.76,22.16a.59.59,0,0,0,.5-.87Z" transform="translate(-310.45 -102.01)"/><path class="cls-6" d="M499.94,461.73c-3.83-7.48-1.84-10.06.21-17,.64-2.14,1.4-4.56.41-6.74-2-4.34-5.33-7.76-7.84-11.81-3.89-6.22.93-10.62.89-16.29a1.27,1.27,0,0,0-1.89-1.08c-8.35,5.38-6.77,15.09-2.12,22.45,1,1.63,2.72,3.58,3.91,5.09,4.11,5.19.35,9.49-.48,14.54s1.8,9.09,5.46,12a.93.93,0,0,0,1.45-1.12Z" transform="translate(-310.45 -102.01)"/><path class="cls-6" d="M490.44,462.88c-3.09-7-2.61-12-1.29-19.13.44-2.33-.36-4.35-1.18-6.44a21.26,21.26,0,0,0-3.55-5.41c-5-6.06-5.58-10-5.15-17.44a1.71,1.71,0,0,0-2.89-1.2c-6,6.69-2.57,14,2.64,20.31,5.08,6.18,5.19,10.36,4.22,17.82-.62,4.79,3.1,9.22,6.28,12.19a.59.59,0,0,0,.92-.7Z" transform="translate(-310.45 -102.01)"/><path class="cls-6" d="M483,465.82c-5.4-7.07-.61-16.18-4.76-23.82-2.5-4.62-6.91-11-12.87-10a1.16,1.16,0,0,0-.81,1.42c.64,2.23,1.79,3.37,3.51,5a24.07,24.07,0,0,1,6.9,11.12c1.92,6.57.87,12.68,6.5,17.49.78.67,2.24-.25,1.53-1.19Z" transform="translate(-310.45 -102.01)"/><path class="cls-6" d="M474.69,466.8c.84-6.52-4.23-18.68-11.89-19.09a1.18,1.18,0,0,0-1.13,1.47c2.57,6.38,9.6,10.81,10.6,17.95.22,1.5,2.26.91,2.42-.33Z" transform="translate(-310.45 -102.01)"/></g><g class="cls-18"><path class="cls-6" d="M476.3,186.48c11.22-4.56,10.8,17.84,10.15,22.73-.84,6.43-.95,12,1.71,18,2.33,5.24,7.73,9.18,11.46,13.34,7.66,8.53,4,19,2,28.72a1.14,1.14,0,0,0,1.9,1.1c5.61-5.91,5.13-15.46,3.83-23-1.59-9.24-11.35-14.59-15.94-22.09-6.07-10,2.18-23.2-2.93-34-2.71-5.72-6.65-10.32-12.83-6.26-.72.48-.26,1.84.63,1.48Z" transform="translate(-310.45 -102.01)"/><path class="cls-6" d="M481.24,176.17c14.71,3.91,14.37,20.31,12.59,32.41-1.19,8.25,1,13.41,8,17.75,4.56,2.81,8.93,5.49,11.89,10.09,4.53,7,1.33,16.12-.38,23.45-2.05,8.71,2.18,17.22,9.27,22.12.86.6,1.67-.52,1.3-1.3-4.33-9.28-7.19-14.89-4.41-25.39a36.79,36.79,0,0,0,.68-14.92c-1.24-8.72-9-14-16-18.07-10.92-6.43-4.1-22.65-6.76-33.38-1.93-7.8-7.33-15.19-16-14.09-.7.1-1,1.12-.17,1.33Z" transform="translate(-310.45 -102.01)"/><path class="cls-6" d="M496.2,172.51c12.56,4.14,9.41,22.43,9,32.28s6.13,13.42,12.74,19.45c18,16.4-8.64,44.95,14.38,58.05a1.87,1.87,0,0,0,2.54-2.54c-4.4-8.14-9-12.41-6.56-22.71,1.53-6.48,2.46-11.67,1.78-18.35-.93-9.16-5.44-15.82-12.52-21.44-6.61-5.24-7.82-9.37-7.38-17.46a60.1,60.1,0,0,0-.92-14.24c-1.4-7.47-4.87-13.83-12.84-14.81-1.06-.13-1.16,1.48-.24,1.77Z" transform="translate(-310.45 -102.01)"/><path class="cls-6" d="M512.39,172.17c11.23,9,1.89,22.59,4.38,34.06,1,4.49,6.26,8.38,9.51,11.08,6,5,10,9.31,12.5,17,4.13,12.74-1.64,23.18-3.26,35.51-1.12,8.48,4.82,15.33,12.75,17.1a1.94,1.94,0,0,0,1.87-3.22c-5.48-5.44-9.38-8.87-7.82-17.16.93-4.92,3.07-9.58,3.73-14.56,1.44-11-.91-22.54-7.54-31.52-3.25-4.39-8.35-7.43-12.39-11-6.42-5.73-3.32-14.42-3.55-21.82-.19-6.23-2.1-15.67-9.45-16.66-.63-.08-1.39.71-.73,1.24Z" transform="translate(-310.45 -102.01)"/><path class="cls-6" d="M530,173.34c-1.43,7.71-3.5,16.83.1,24.3,4.06,8.42,12.31,12.86,17.17,20.65,6.68,10.67,4.64,26.85,1.41,38.21-1.88,6.62-2.48,12.9,2.09,18.35a1.36,1.36,0,0,0,2.3-1c-.58-9.89,1.88-17.56,3.53-27.16,1.33-7.8.41-16.73-1.45-24.39-1.8-7.41-6.84-12.74-12.34-17.66-5.82-5.22-9.27-9.82-10-18-.39-4.53-.27-8.89-1.09-13.38a.91.91,0,0,0-1.75,0Z" transform="translate(-310.45 -102.01)"/><path class="cls-6" d="M539,174.25c-2.84,17,11.74,25.63,20.3,38.07s0,26.22,1.18,39.66c.66,7.56,4.51,17.12,11.08,21.22a2,2,0,0,0,3-1.72c-.36-4-1.68-6.34-3.54-10-3.64-7.21-4.06-13.81-2.52-21.64,1.76-8.95,3.42-18.5-.94-27-7.35-14.35-23.14-21.84-26.38-38.54a1.14,1.14,0,0,0-2.19,0Z" transform="translate(-310.45 -102.01)"/></g><path class="cls-5" d="M437.84,185.11a8.37,8.37,0,0,0,3.88.76c27.37-1.29,52.69-1.73,80.2-1.41a12.87,12.87,0,0,0,9.9-4.41c2.69-2.84,6.89-7.81,6.13-11.15-1-4.25-5.48-3.07-12.11-3.56-9.38-.68-24.85-.27-34.25-.32-24.12-.12-36.83.16-62.84,1.29-3.15.14-3.79,2.42-3.78,5.57a4.55,4.55,0,0,0,1.48,3.28l9.23,8.51a8.37,8.37,0,0,0,2.12,1.42Z" transform="translate(-310.45 -102.01)"/><path class="cls-12" d="M422.31,287.08l.18.06a1.68,1.68,0,0,0,2.05-2.05c0-.06,0-.12-.07-.19a1.76,1.76,0,1,0-2.16,2.18Z" transform="translate(-310.45 -102.01)"/><path class="cls-12" d="M427.3,294.32c2.78,0,2.78-4.32,0-4.32s-2.79,4.32,0,4.32Z" transform="translate(-310.45 -102.01)"/><path class="cls-12" d="M432.79,300.62c2.57,0,2.57-4,0-4s-2.57,4,0,4Z" transform="translate(-310.45 -102.01)"/><path class="cls-12" d="M436.91,306.4c0,.11.09.22.14.33,1,2.3,4.7.28,3.43-2l-.17-.31a2,2,0,0,0-2.7-.71,2,2,0,0,0-.7,2.7Z" transform="translate(-310.45 -102.01)"/><path class="cls-12" d="M442.49,311a2.29,2.29,0,0,0,1,2.76,1.88,1.88,0,0,0,1.94,0,2,2,0,0,0,.88-2.17.77.77,0,0,0,0-.15v1.05a3.56,3.56,0,0,0,0-1.49,2,2,0,0,0-1.94-1.46,2.06,2.06,0,0,0-1.92,1.46Z" transform="translate(-310.45 -102.01)"/><path class="cls-12" d="M449.86,320l.16.16a2.13,2.13,0,0,0,3,0,1.29,1.29,0,0,0,.17-.15,1.91,1.91,0,0,0,0-2.71,1.33,1.33,0,0,0-.17-.16,2.14,2.14,0,0,0-3,0l-.16.17a2,2,0,0,0,0,2.69Z" transform="translate(-310.45 -102.01)"/><path class="cls-12" d="M458.42,323.55l-.19-.06a1.75,1.75,0,0,0-2,.81l-.05.1a1.75,1.75,0,0,0,2.37,2.37,2.1,2.1,0,0,0,.83-.84,1.63,1.63,0,0,0-1-2.38Z" transform="translate(-310.45 -102.01)"/><path class="cls-12" d="M462.57,331.84a2.66,2.66,0,0,0,.75.57c2,1.12,3.8-2.12,1.77-3H465a1.74,1.74,0,0,0-2.46,2.46Z" transform="translate(-310.45 -102.01)"/><path class="cls-12" d="M471.23,338.41a1.67,1.67,0,0,0,0-3.33,1.67,1.67,0,0,0,0,3.33Z" transform="translate(-310.45 -102.01)"/><path class="cls-12" d="M487,336.56a1.77,1.77,0,0,1-.06-.17v1a.5.5,0,0,1,0-.13,1.77,1.77,0,0,0-2.17-2.16,2.29,2.29,0,0,0-1.32,1,1.94,1.94,0,0,0,1.15,2.82c1.28.35,3-1,2.37-2.36Z" transform="translate(-310.45 -102.01)"/><path class="cls-12" d="M491.92,333.57c2.57,0,2.57-4,0-4a2,2,0,0,0,0,4Z" transform="translate(-310.45 -102.01)"/><path class="cls-12" d="M497.09,328.13c2.62,0,2.62-4.08,0-4.08s-2.64,4.08,0,4.08Z" transform="translate(-310.45 -102.01)"/><path class="cls-12" d="M502.25,321.66a1.72,1.72,0,0,0,0-3.43,1.72,1.72,0,0,0,0,3.43Z" transform="translate(-310.45 -102.01)"/><path class="cls-12" d="M510.06,313.43a1.8,1.8,0,0,0-1.67-1.32,1.7,1.7,0,1,0,.45,3.33c.74-.21,1.54-1.19,1.22-2Z" transform="translate(-310.45 -102.01)"/><path class="cls-12" d="M513.89,309.78c2.71,0,2.71-4.23,0-4.23s-2.73,4.23,0,4.23Z" transform="translate(-310.45 -102.01)"/><path class="cls-12" d="M520.35,303.41c2.84,0,2.84-4.41,0-4.41s-2.84,4.41,0,4.41Z" transform="translate(-310.45 -102.01)"/><path class="cls-12" d="M524.87,296.62a1.56,1.56,0,0,0,0-3.11,1.56,1.56,0,0,0,0,3.11Z" transform="translate(-310.45 -102.01)"/><path class="cls-12" d="M529.39,291.27a1.37,1.37,0,0,0,0-2.74,1.37,1.37,0,0,0,0,2.74Z" transform="translate(-310.45 -102.01)"/><path class="cls-12" d="M534.24,284.74c2.51,0,2.51-3.9,0-3.9s-2.51,3.9,0,3.9Z" transform="translate(-310.45 -102.01)"/><path class="cls-7" d="M466.49,192.89a27.55,27.55,0,0,1,8.26-.14c2.4.25,7.77-.53,5.56-4.29-1.69-2.89-6.47-2.3-9.22-1.94s-6.24,1.69-6.63,4.83c-.13,1.1,1.12,1.73,2,1.54Z" transform="translate(-310.45 -102.01)"/><path class="cls-12" d="M474.3,215.49c1.58-1.59-.95,1.06-1.12,1.32a6.69,6.69,0,0,0-.86,2.25,13.07,13.07,0,0,0-.12,4.28c.34,3.86,1.89,7.49,5.74,8.94,4.67,1.76,9.24-4.43,6.49-8.45-.35-.52-.75-1-1.14-1.5,1.25,1.58.42.54.17.07-.55-1,.5,1.32.05.13l-.51-1.39c-.43-1.1-.7-2.24-1.23-3.32a9.87,9.87,0,0,0-.55-1c-.09-.14-2.75-3.07-1.15-1.32a4.1,4.1,0,0,0-5.77,0Z" transform="translate(-310.45 -102.01)"/><path class="cls-12" d="M454.94,134.34c-2.88,3.25-5,7.1-7.14,10.83s-4.62,8.59-3.56,13.05c.84,3.5,6,4.15,7.68,1,1.95-3.57,2.66-8.24,3.94-12.14s2.5-7.83,1.7-12a1.58,1.58,0,0,0-2.62-.7Z" transform="translate(-310.45 -102.01)"/><path class="cls-12" d="M467.4,133.89c-3.37,4-4.22,9.66-5.41,14.61-1,4.36-2.23,9.44,1.86,12.48,2,1.49,5.61.47,6.67-1.75,1.41-2.95.8-7,1-10.25a42.88,42.88,0,0,0-1.16-14.32,1.78,1.78,0,0,0-3-.77Z" transform="translate(-310.45 -102.01)"/><path class="cls-12" d="M481.24,133.86c-3.15,7.17-3.59,16.68-3.63,24.43,0,6.35,9.66,6.32,9.83,0,.21-7.74.18-17.22-2.95-24.43a1.9,1.9,0,0,0-3.25,0Z" transform="translate(-310.45 -102.01)"/><path class="cls-12" d="M492.74,133.77c-1.11,3.64-.32,7.27.18,10.95.59,4.32,1.27,8.72,2,13,1,5.62,9.67,4.11,9.7-1.32,0-7.53-3.9-18-9.44-23.29a1.5,1.5,0,0,0-2.48.65Z" transform="translate(-310.45 -102.01)"/><path class="cls-12" d="M507.08,135.09c-1.68,4.73,2.42,10,4,14.23,1.41,3.83,1.74,9.8,6.77,10.62,3.66.61,6.4-2,5.74-5.73-.51-2.81-3-6.63-4.52-9.06-2.29-3.57-6.12-9-10-10.87a1.38,1.38,0,0,0-2,.81Z" transform="translate(-310.45 -102.01)"/><path class="cls-7" d="M448.29,158.48c2.61,0,2.61-4,0-4s-2.6,4,0,4Z" transform="translate(-310.45 -102.01)"/><path class="cls-7" d="M466.07,159.52c2.68,0,2.68-4.18,0-4.18s-2.7,4.18,0,4.18Z" transform="translate(-310.45 -102.01)"/><path class="cls-7" d="M482.22,160.39c3,0,3-4.64,0-4.64s-3,4.64,0,4.64Z" transform="translate(-310.45 -102.01)"/><path class="cls-7" d="M499,158.59c2.75,0,2.75-4.27,0-4.27s-2.75,4.27,0,4.27Z" transform="translate(-310.45 -102.01)"/><path class="cls-7" d="M517.76,157.11a2,2,0,0,0,0-3.89,1.95,1.95,0,0,0,0,3.89Z" transform="translate(-310.45 -102.01)"/><path class="cls-7" d="M443.21,180.69a15.52,15.52,0,0,0-3-8.74,3.36,3.36,0,1,0-5.28,4.07c1.82,1.95,3.49,4,5.37,5.87a1.71,1.71,0,0,0,2.9-1.2Z" transform="translate(-310.45 -102.01)"/><path class="cls-7" d="M451.46,179.2a12.67,12.67,0,0,1-.19-3.39,15.53,15.53,0,0,0-.54-4.56,3.15,3.15,0,0,0-3-2.26c-1.51,0-3.28,1.41-3.07,3.07a36.73,36.73,0,0,0,1.05,5,10.12,10.12,0,0,0,2.46,4.06c1.26,1.45,3.91-.08,3.25-1.9Z" transform="translate(-310.45 -102.01)"/><path class="cls-7" d="M461.79,180.37c0,.63.26-.85.31-1.07a14.9,14.9,0,0,0,.27-2.75c.1-1.46.35-2.85.56-4.29.24-1.73-.41-3.45-2.25-4a3.28,3.28,0,0,0-4,2.25,14.09,14.09,0,0,0-.29,6.26,7.52,7.52,0,0,0,1.05,3.1,7.87,7.87,0,0,0,1,1.11s1.29,1,.73.43a1.55,1.55,0,0,0,2.62-1.08Z" transform="translate(-310.45 -102.01)"/><path class="cls-7" d="M472.29,181.3a6,6,0,0,0,3-4.25,13.71,13.71,0,0,0,0-6.37c-.83-3-5.59-3.22-6.3,0a16.22,16.22,0,0,0,.12,5.81c.11.73.18,1.46.27,2.18.09.32.19.64.3,1,0,0,.6,1.59.4.81a1.46,1.46,0,0,0,2.14.87Z" transform="translate(-310.45 -102.01)"/><path class="cls-7" d="M485.21,181a6.39,6.39,0,0,0,2.65-3.83c.59-1.7,1.49-3.93,1.38-5.74-.13-2.06-2.56-4.08-4.56-2.62-2.2,1.61-2.58,3.94-2.87,6.48a6.21,6.21,0,0,0,1.65,5.49,1.48,1.48,0,0,0,1.75.22Z" transform="translate(-310.45 -102.01)"/><path class="cls-7" d="M495.94,181.53c.87-1.36,2-2.51,2.8-3.95s1.61-2.89,2.36-4.37a3.17,3.17,0,0,0,0-3.14l-.24-.34a2.66,2.66,0,0,0-2.83-1.15c-2.53.35-3.19,3.47-3.95,5.51a23.71,23.71,0,0,0-1.25,6.6c-.15,1.75,2.28,2.14,3.11.84Z" transform="translate(-310.45 -102.01)"/><path class="cls-7" d="M508.89,181.19c.2-.15,1-.88.2-.27a4.38,4.38,0,0,0,1.12-1.11c.52-.76,1-1.56,1.4-2.36,1-1.74,2.49-3.57,2.62-5.59a3.12,3.12,0,0,0-3.93-3c-2.4.8-3.52,3.45-4.26,5.71-.64,1.93-1,4.54.31,6.28a1.65,1.65,0,0,0,2.54.33Z" transform="translate(-310.45 -102.01)"/><path class="cls-7" d="M522.19,181.22l.24-.14-1.47.19c2.07.35,3.77-1.21,5.13-2.6,1.81-1.82,4.12-3.28,4.3-6.07.1-1.72-1.21-2.85-2.63-3.44-3.17-1.34-6.1,2.15-7.38,4.58-1,1.88-2.14,5.31-.27,7l-.57-1.36c0,.1,0,.2,0,.3a1.76,1.76,0,0,0,2.62,1.5Z" transform="translate(-310.45 -102.01)"/><path class="cls-7" d="M450.88,151c3,0,3-4.6,0-4.6s-3,4.6,0,4.6Z" transform="translate(-310.45 -102.01)"/><path class="cls-7" d="M453.15,144.21a1.65,1.65,0,0,0,0-3.29,1.65,1.65,0,0,0,0,3.29Z" transform="translate(-310.45 -102.01)"/><path class="cls-7" d="M466.07,151.85c2.8,0,2.8-4.35,0-4.35s-2.82,4.35,0,4.35Z" transform="translate(-310.45 -102.01)"/><path class="cls-7" d="M466.39,145a1.79,1.79,0,0,0,0-3.57,1.79,1.79,0,0,0,0,3.57Z" transform="translate(-310.45 -102.01)"/><path class="cls-7" d="M482.22,151.76a1.77,1.77,0,0,0,0-3.53,1.77,1.77,0,0,0,0,3.53Z" transform="translate(-310.45 -102.01)"/><path class="cls-7" d="M481.57,145.11a1.9,1.9,0,0,0,0-3.8,1.9,1.9,0,0,0,0,3.8Z" transform="translate(-310.45 -102.01)"/><path class="cls-7" d="M499.17,147.9l-.16-.15a1.84,1.84,0,0,0-2.56,0l-.16.15a2,2,0,1,0,2.88,0Z" transform="translate(-310.45 -102.01)"/><path class="cls-7" d="M495.47,144.39a1.51,1.51,0,0,0,0-3,1.51,1.51,0,0,0,0,3Z" transform="translate(-310.45 -102.01)"/><path class="cls-7" d="M515.83,147.66c-2.22.06-2.38,3.34-.13,3.34,2.1,0,2.15-3.39.13-3.34Z" transform="translate(-310.45 -102.01)"/><path class="cls-7" d="M512.92,145.62c2.69,0,2.69-4.17,0-4.17s-2.7,4.17,0,4.17Z" transform="translate(-310.45 -102.01)"/><path class="cls-13" d="M476.56,314.61c0,2.67-.22,5.33-.17,8,.05,2.19.05,5.28,2.38,6.29a1.44,1.44,0,0,0,1.9-.5c1.36-1.8.41-4.37.08-6.39-.41-2.61-.73-5.2-1.32-7.78a1.47,1.47,0,0,0-2.87.38Z" transform="translate(-310.45 -102.01)"/><path class="cls-13" d="M466.48,308.49c-.88,1.45-1.6,3-2.39,4.51a18.46,18.46,0,0,0-2,4.75c-.44,2.32,2.81,4.05,4,1.69.8-1.55,1.34-3.25,2-4.85a12.34,12.34,0,0,0,1.33-5.31,1.59,1.59,0,0,0-2.94-.79Z" transform="translate(-310.45 -102.01)"/><path class="cls-13" d="M456.78,303.88c-1.73,1-3.76,2.24-4.38,4.24a1.66,1.66,0,0,0,2.41,1.86c1.46-.67,2.47-2.11,3.75-3.05,1.78-1.32.23-4.21-1.78-3.05Z" transform="translate(-310.45 -102.01)"/><path class="cls-13" d="M487.82,309.28c0,1.5.79,3.09,1.33,4.47.82,2.07,1.73,3.92,4,4.72,1.73.63,3.21-1.25,2.84-2.84a15.39,15.39,0,0,0-2.54-4.56c-1-1.47-2.33-3.14-4.23-3.13a1.36,1.36,0,0,0-1.35,1.34Z" transform="translate(-310.45 -102.01)"/><path class="cls-13" d="M495.9,301.92a12.53,12.53,0,0,0,3.41,4.21,17.42,17.42,0,0,0,2.14,1.55,5.35,5.35,0,0,0,3.21.58,2.07,2.07,0,0,0,1.46-3.51,10.32,10.32,0,0,0-1.95-1.72c-.73-.39-1.43-.8-2.12-1.26a22.29,22.29,0,0,0-4.18-2.4c-1.58-.62-2.52,1.33-2,2.55Z" transform="translate(-310.45 -102.01)"/><path class="cls-13" d="M504.69,294.72a28.41,28.41,0,0,0,3.32,2.45c.53.39,1.05.8,1.62,1.17a6.32,6.32,0,0,0,2.38.79,1.8,1.8,0,0,0,1.73-3,8.72,8.72,0,0,0-1.78-1.81,14.78,14.78,0,0,0-2.17-1.2,6.08,6.08,0,0,0-4.5-.66,1.37,1.37,0,0,0-.6,2.25Z" transform="translate(-310.45 -102.01)"/><path class="cls-13" d="M511.8,286.19a12.13,12.13,0,0,0,3.1,3.21,7.83,7.83,0,0,0,4.37,2c2,.15,2.75-2.43,1.54-3.71a11.87,11.87,0,0,0-3.58-2.28,8.72,8.72,0,0,0-4.31-1.17,1.3,1.3,0,0,0-1.12,1.95Z" transform="translate(-310.45 -102.01)"/><path class="cls-13" d="M517.51,279c1.85,2,4.24,4.21,7.1,4.34a1.86,1.86,0,0,0,1.31-3.15,11.65,11.65,0,0,0-7.67-3,1.05,1.05,0,0,0-.74,1.78Z" transform="translate(-310.45 -102.01)"/><path class="cls-4" d="M391.39,365c-2.78.61-1.84,3.71.94,3.1s1.83-3.71-.94-3.1Z" transform="translate(-310.45 -102.01)"/><path class="cls-4" d="M383,370.5l.2,0c1.54.14,3.14-.77,2.77-2s-2.28-1.37-3.55-.61a1,1,0,0,1-.17.1,1.34,1.34,0,0,0,.75,2.48Z" transform="translate(-310.45 -102.01)"/><path class="cls-4" d="M508.64,378.24c-1.37,0-1.37,1.52,0,1.52s1.38-1.52,0-1.52Z" transform="translate(-310.45 -102.01)"/><path class="cls-4" d="M393.79,377.6c-2.07,0-2.07,2.29,0,2.29s2.06-2.29,0-2.29Z" transform="translate(-310.45 -102.01)"/><path class="cls-4" d="M542.46,400.79c-1.89-.24-4.71-.81-6.4.17a.63.63,0,0,0,0,1.16c1.69,1,4.51.4,6.4.16a.75.75,0,0,0,0-1.49Z" transform="translate(-310.45 -102.01)"/><path class="cls-4" d="M534.52,387.64a18.27,18.27,0,0,0-2.82-.93c-.47-.12-1-.16-1.49-.26a5.08,5.08,0,0,0-1.24-.17c-.31,0-.65.24-.52.49.68,1.27,3.55,1.52,5,2.16,1.15.5,2.18-.78,1-1.29Z" transform="translate(-310.45 -102.01)"/><path class="cls-4" d="M518.05,376c-.1-1.21.11-3.11-1.68-3.77-.76-.28-1.91-.07-2.1.61-.32,1.23.89,2.59,1.88,3.54.55.51,2,.43,1.9-.38Z" transform="translate(-310.45 -102.01)"/><path class="cls-4" d="M414.52,377.49c-.58-.61-1.95-2.54-3.34-2s.87,2.29,1.33,2.8c.81.9,2.84.05,2-.84Z" transform="translate(-310.45 -102.01)"/><path class="cls-7" d="M360.77,333.63c5-1.44-.43-36,24.38-49.16,4.5-2.4,11.81-2.41,16.12.42a14.14,14.14,0,0,1,3.3,3.19,42.88,42.88,0,0,1,9.14,26c.22,8.92-1.84,17.72-4.39,26.38,5.66,1.65,11.52,3.69,15,7.23,4.44,4.56,3.76,10.77-.21,15.27s-10.71,7.51-17.82,9.5a30.18,30.18,0,0,1-5.46,1.1,38.68,38.68,0,0,1-9-.66Q378,370.74,364.34,368c-1.66-.33-17.5-.93-20.54-11.39C339.7,342.49,345.62,338,360.77,333.63Z" transform="translate(-310.45 -102.01)"/><path class="cls-12" d="M477.83,343.24l.18.09c1.64.77,3.46-.77,2.56-2.17a1.77,1.77,0,0,0-.12-.17,2.14,2.14,0,0,0-3-.33,1.51,1.51,0,0,0,.39,2.58Z" transform="translate(-310.45 -102.01)"/><path class="cls-13" d="M365.64,337.34c-6.41,1.77-10.1,5.53-12.11,10.08-1.94,4.39-1.94,12,4.78,14.73,3.53,1.44,9.32.09,8-3.39-1.13-3-3-5.26-2.82-8.49a10.38,10.38,0,0,1,5.71-8.89c3.21-1.51-.22-5-3.6-4Z" transform="translate(-310.45 -102.01)"/><path class="cls-13" d="M381.76,341.86l-.1,0a3.61,3.61,0,0,0-3.25,0c-6.94,4.43-7.08,14.5-4,20.55,1.23,2.44,6.15,2,7.33,0,2.14-3.66.63-8.12.25-12a20.21,20.21,0,0,1,.24-5.49c.17-1,1.24-2.2-.46-3Z" transform="translate(-310.45 -102.01)"/><path class="cls-13" d="M393.66,344.58c-1.14,3.17-.89,6.62-1.48,9.88-.66,3.7-2.67,6.94-3.81,10.51-1,3.2,5.36,4.15,7.76,2.22,6.31-5.06,6.32-17.17,1.08-22.94-.82-.91-3.19-.68-3.55.33Z" transform="translate(-310.45 -102.01)"/><path class="cls-13" d="M407.19,349.31c1.56,4.08,3.82,8.49.22,12.23-2.24,2.31-6.56,3.38-6.09,6.63.08.58.84.91,1.56,1,5.55,1,10.67-3.72,12.84-6.65,3.07-4.14-.21-11.22-4.85-14.36-1.35-.92-4.3-.51-3.68,1.12Z" transform="translate(-310.45 -102.01)"/><path class="cls-12" d="M392.37,291.23a1.21,1.21,0,1,0,.3-2.39,1.21,1.21,0,1,0-.3,2.39Z" transform="translate(-310.45 -102.01)"/><path class="cls-12" d="M384.94,296.12c2.68.24,3.12-3.29.44-3.53s-3.11,3.29-.44,3.53Z" transform="translate(-310.45 -102.01)"/><path class="cls-12" d="M394.72,298.47a1.05,1.05,0,1,0,.26-2.07,1.05,1.05,0,1,0-.26,2.07Z" transform="translate(-310.45 -102.01)"/><path class="cls-12" d="M378.49,303.56a2,2,0,0,0,1.15,1c1.11.48,2.59-.55,2.28-1.57l0-.11c0,.26-.07.53-.11.79l.09-.14c.5-.93-.39-2-1.52-2.12-1.39-.12-2.41,1.11-1.86,2.19Z" transform="translate(-310.45 -102.01)"/><path class="cls-12" d="M376,312.5l.26-.07a1.26,1.26,0,0,0,.29-2.32l-.25-.12c-1.09-.51-2.57-.18-2.72,1s1.21,1.8,2.42,1.49Z" transform="translate(-310.45 -102.01)"/><path class="cls-12" d="M390.56,312.82a2.09,2.09,0,0,0-1.32.68c-1,1.07.49,2.62,1.93,2l.13,0-1.26,0,.18,0c1,.22,2.15-.16,2.26-1.17a1.57,1.57,0,0,0-1.92-1.55Z" transform="translate(-310.45 -102.01)"/><path class="cls-12" d="M397.2,307.41a1.2,1.2,0,1,0,.29-2.36,1.2,1.2,0,1,0-.29,2.36Z" transform="translate(-310.45 -102.01)"/><path class="cls-12" d="M401.17,300.74a1.18,1.18,0,0,0,.19.11c1.12.73,2.7-.37,2.11-1.45l-.1-.17c-1-1.86-4.12.28-2.2,1.51Z" transform="translate(-310.45 -102.01)"/><path class="cls-12" d="M399.53,292.66l0,.27c.15,1.17,2.29,1.36,2.72.24l.09-.25c.77-2-3.1-2.33-2.84-.26Z" transform="translate(-310.45 -102.01)"/><path class="cls-12" d="M404.23,312.65a1.2,1.2,0,0,0,.21,1c.78,1.09,3,.75,2.67-.69,0-.14-.05-.27-.08-.41-.31-1.34-2.62-1.29-2.8.07Z" transform="translate(-310.45 -102.01)"/><path class="cls-12" d="M402.23,324.53h.16a1.65,1.65,0,0,0,1.79-1.23l0-.14c.38-1.37-1.81-2.12-2.94-1.36a1.51,1.51,0,0,0,1,2.73Z" transform="translate(-310.45 -102.01)"/><path class="cls-12" d="M386.19,324.62a2.13,2.13,0,0,0,1.25,1c1.29.43,2.68-.53,2.45-1.69,0,0,0-.08,0-.11-.12.4-.24.81-.35,1.22l.08-.12a1.68,1.68,0,0,0-1.39-2.69c-1.42-.13-2.78,1.23-2,2.38Z" transform="translate(-310.45 -102.01)"/><path class="cls-12" d="M375.86,324.94c2.32.21,2.7-2.86.38-3.07s-2.7,2.85-.38,3.07Z" transform="translate(-310.45 -102.01)"/><path class="cls-12" d="M366.19,332.3v.27c.09,1.34,2.71,1.57,3.11.28l.09-.26c.7-2.24-3.34-2.61-3.2-.29Z" transform="translate(-310.45 -102.01)"/><path class="cls-12" d="M378.08,337.27a2.78,2.78,0,0,0,3,.71,1.5,1.5,0,0,0,.69-2.45c-.14-.17-.38-.31-.52-.45-1.74-1.68-4.92.5-3.18,2.19Z" transform="translate(-310.45 -102.01)"/><path class="cls-12" d="M391.11,333l.07,0c1.29.38,2.76-1,1.67-1.94a3.26,3.26,0,0,0-1-.63c-2.08-.91-3.09,2.57-.73,2.59Z" transform="translate(-310.45 -102.01)"/><path class="cls-12" d="M402.33,331.57a1.12,1.12,0,1,0,.27-2.2,1.12,1.12,0,1,0-.27,2.2Z" transform="translate(-310.45 -102.01)"/><path class="cls-12" d="M404.62,342.05c2.54.23,3-3.15.41-3.38s-3,3.15-.41,3.38Z" transform="translate(-310.45 -102.01)"/><path class="cls-12" d="M390.77,338.37a2.89,2.89,0,0,0,2.55.9,1.6,1.6,0,0,0,.83-2.95c0-.13-.13-.17-.22-.13-1.73-1.68-4.91.5-3.16,2.18Z" transform="translate(-310.45 -102.01)"/><path class="cls-12" d="M382.23,320.55l.17,0c1.5-.31,2.12-1.93.79-2.77l-.15-.09a2.07,2.07,0,0,0-2.89.71,1.73,1.73,0,0,0,2.08,2.19Z" transform="translate(-310.45 -102.01)"/><path class="cls-12" d="M386.47,344.71a2.45,2.45,0,0,0,0,.27c.05,1.28,2.6,1.51,3,.27a1.29,1.29,0,0,1,.08-.26c.64-2.15-3.18-2.5-3.08-.28Z" transform="translate(-310.45 -102.01)"/><path class="cls-12" d="M358.44,350.24c2.5.22,2.83-2.49.33-2.71s-2.83,2.48-.33,2.71Z" transform="translate(-310.45 -102.01)"/><path class="cls-12" d="M377,354.85c1.85.16,2.11-1.89.26-2.05s-2.1,1.89-.26,2.05Z" transform="translate(-310.45 -102.01)"/><path class="cls-12" d="M397.46,357.06l.26-.07a1,1,0,0,0,.24-1.91l-.24-.11c-1.09-.53-2.62-.14-2.73.81s1.28,1.6,2.47,1.28Z" transform="translate(-310.45 -102.01)"/><path class="cls-12" d="M412.57,361.67c2.48.22,2.81-2.46.34-2.68s-2.8,2.46-.34,2.68Z" transform="translate(-310.45 -102.01)"/><path class="cls-4" d="M427.75,340.74c1.37,0,1.37-1.53,0-1.53s-1.38,1.53,0,1.53Z" transform="translate(-310.45 -102.01)"/><path class="cls-4" d="M443,329.91c.38,1.24.55,2.94,2,3.66.38.18.88-.05.87-.43,0-1.21-.83-2.47-1.3-3.6-.34-.83-1.85-.5-1.56.37Z" transform="translate(-310.45 -102.01)"/><path class="cls-4" d="M417.38,329.05a7.33,7.33,0,0,0,5.31,1.55.56.56,0,0,0,.41-.86c-.9-1.29-2.79-1.19-4-2.14s-2.85.55-1.71,1.45Z" transform="translate(-310.45 -102.01)"/><path class="cls-4" d="M456.63,342c1.89.24,4.7.82,6.4-.17a.62.62,0,0,0,0-1.15c-1.7-1-4.51-.41-6.4-.17a.75.75,0,0,0,0,1.49Z" transform="translate(-310.45 -102.01)"/><path class="cls-4" d="M438.34,316.1c-.61.65-1.23,1.28-1.83,1.94-.31.33-.58.67-.85,1a5.81,5.81,0,0,0-.72,1.37c-.44.93,1.08,1.88,2,1.31a4.5,4.5,0,0,0,1.13-.71,8.26,8.26,0,0,0,1-1.3,7.5,7.5,0,0,0,.92-2.81c.11-.72-1-1.58-1.67-.82Z" transform="translate(-310.45 -102.01)"/><path class="cls-4" d="M432.5,352a17.9,17.9,0,0,0,2.82.92c.47.13,1,.17,1.48.27a4.69,4.69,0,0,0,1.24.16c.31,0,.65-.23.52-.48-.68-1.28-3.55-1.53-5-2.16-1.15-.51-2.19.77-1.05,1.29Z" transform="translate(-310.45 -102.01)"/><path class="cls-4" d="M432.18,361.53c.09,1.21-.11,3.12,1.68,3.78.76.28,1.91.07,2.09-.61.33-1.23-.88-2.6-1.87-3.54-.56-.52-2-.43-1.9.37Z" transform="translate(-310.45 -102.01)"/><path class="cls-4" d="M563.66,329.15c-.17,1.4-.09,5.21,2.45,5.06,1.27-.07,1.1-1.39.89-2.12a15.44,15.44,0,0,1-.93-2.94,1.23,1.23,0,0,0-2.41,0Z" transform="translate(-310.45 -102.01)"/><path class="cls-12" d="M480.75,360.39c-1.37,1.49-1.41,3.63-1.53,5.36s-.79,4.61,1.53,5.76c1.74.86,3.78-.55,3.35-1.85a5.15,5.15,0,0,1-.37-1.43,31.9,31.9,0,0,1-.12-3.24c0-1.5.08-3.51-1.32-4.74a1.22,1.22,0,0,0-1.54.14Z" transform="translate(-310.45 -102.01)"/><path class="cls-12" d="M483.25,361.86c1,.19,1.95.55,3,.68a13.61,13.61,0,0,0,3.55,0,1.6,1.6,0,0,0,1.54-1.95c-.35-.92-1.53-1.23-2.72-1.11-.88.08-1.77.17-2.66.24s-1.82.31-2.75.47c-1.17.19-1.14,1.44,0,1.65Z" transform="translate(-310.45 -102.01)"/><path class="cls-12" d="M479.81,360.61a21.15,21.15,0,0,0-7.73-.78c-1.68.23-1.63,2.14,0,2.39a21.13,21.13,0,0,0,7.73-.21c1-.24.94-1.15,0-1.4Z" transform="translate(-310.45 -102.01)"/><path class="cls-13" d="M481.76,367.9c-.79,0-1.45.48-1.45,1s.66,1,1.45,1,1.45-.47,1.45-1-.66-1-1.45-1Z" transform="translate(-310.45 -102.01)"/><path class="cls-13" d="M490.06,360.68s0,0,0,0a1.7,1.7,0,0,0-1.62-.48c-.74.15-1.21.73-1,1.27v0a1.59,1.59,0,0,0,1.77.72,1.4,1.4,0,0,0,.85-.48.78.78,0,0,0,0-1Z" transform="translate(-310.45 -102.01)"/><path class="cls-13" d="M486.76,360.64a.37.37,0,0,0-.21-.15c-.42-.16-.85.15-.64.45l0,0c0-.09,0-.18-.05-.26a0,0,0,0,0,0,0c-.06.22.14.44.47.44s.56-.29.42-.52Z" transform="translate(-310.45 -102.01)"/><path class="cls-13" d="M472.94,360.37c-.57,0-1.05.34-1.05.75s.48.76,1.05.76,1.05-.35,1.05-.76-.48-.75-1.05-.75Z" transform="translate(-310.45 -102.01)"/><path class="cls-12" d="M482.05,361.53c1.37-1.49,1.41-3.63,1.54-5.36s.79-4.61-1.53-5.76c-1.75-.86-3.79.55-3.36,1.85a5.15,5.15,0,0,1,.37,1.43,29.24,29.24,0,0,1,.12,3.24c0,1.5-.08,3.51,1.32,4.74a1.22,1.22,0,0,0,1.54-.14Z" transform="translate(-310.45 -102.01)"/><path class="cls-13" d="M481.15,353.26c.79,0,1.45-.47,1.45-1s-.66-1-1.45-1-1.44.47-1.44,1,.66,1,1.44,1Z" transform="translate(-310.45 -102.01)"/><path class="cls-13" d="M481.63,366.32c.64,0,.64-.72,0-.72s-.65.72,0,.72Z" transform="translate(-310.45 -102.01)"/><path class="cls-13" d="M475.47,361.63c.66,0,.66-.72,0-.72s-.64.72,0,.72Z" transform="translate(-310.45 -102.01)"/><path class="cls-12" d="M523,330.29c-1.37,1.5-1.41,3.64-1.54,5.36s-.78,4.61,1.53,5.76c1.75.86,3.79-.55,3.36-1.85a5.17,5.17,0,0,1-.37-1.42,29.42,29.42,0,0,1-.12-3.25c0-1.49.08-3.5-1.32-4.74a1.25,1.25,0,0,0-1.54.14Z" transform="translate(-310.45 -102.01)"/><path class="cls-12" d="M525.48,331.76c1,.19,2,.56,3,.68a13.61,13.61,0,0,0,3.55,0,1.61,1.61,0,0,0,1.54-2c-.35-.92-1.53-1.22-2.72-1.11l-2.65.24c-1,.08-1.83.32-2.77.47-1.15.19-1.12,1.44,0,1.65Z" transform="translate(-310.45 -102.01)"/><path class="cls-12" d="M522.05,330.51a20.92,20.92,0,0,0-7.73-.77c-1.68.23-1.63,2.13,0,2.39a21.35,21.35,0,0,0,7.73-.21c1-.25.94-1.16,0-1.41Z" transform="translate(-310.45 -102.01)"/><path class="cls-13" d="M524,337.81c-.79,0-1.44.47-1.44,1s.65,1,1.44,1,1.45-.48,1.45-1-.65-1-1.45-1Z" transform="translate(-310.45 -102.01)"/><path class="cls-13" d="M532.31,330.58l0,0a1.7,1.7,0,0,0-1.61-.47c-.75.14-1.22.72-1,1.26l0,0a1.57,1.57,0,0,0,1.76.71,1.42,1.42,0,0,0,.86-.47.81.81,0,0,0,0-1Z" transform="translate(-310.45 -102.01)"/><path class="cls-13" d="M529,330.54a.44.44,0,0,0-.21-.15c-.41-.16-.85.15-.63.45a0,0,0,0,0,0,0c0-.08,0-.17-.06-.26v0c-.06.23.14.45.46.45s.57-.29.42-.53Z" transform="translate(-310.45 -102.01)"/><path class="cls-13" d="M515.19,330.27c-.58,0-1.06.35-1.06.76s.48.75,1.06.75,1-.35,1-.75-.47-.76-1-.76Z" transform="translate(-310.45 -102.01)"/><path class="cls-12" d="M524.3,331.43c1.37-1.49,1.4-3.63,1.53-5.35s.79-4.62-1.53-5.76c-1.74-.86-3.78.55-3.35,1.84a5.15,5.15,0,0,1,.37,1.43,32.09,32.09,0,0,1,.12,3.25c0,1.49-.08,3.5,1.31,4.74a1.25,1.25,0,0,0,1.55-.15Z" transform="translate(-310.45 -102.01)"/><path class="cls-13" d="M523.4,323.16c.79,0,1.45-.47,1.45-1s-.66-1.05-1.45-1.05-1.45.48-1.45,1.05.66,1,1.45,1Z" transform="translate(-310.45 -102.01)"/><path class="cls-13" d="M523.88,336.23c.64,0,.64-.72,0-.72s-.65.72,0,.72Z" transform="translate(-310.45 -102.01)"/><path class="cls-13" d="M517.73,331.54c.64,0,.64-.72,0-.72s-.66.72,0,.72Z" transform="translate(-310.45 -102.01)"/><path class="cls-12" d="M439,390.58c-1.37,1.5-1.41,3.64-1.54,5.37s-.78,4.61,1.54,5.75c1.74.86,3.78-.55,3.36-1.85a5.12,5.12,0,0,1-.38-1.43,29.15,29.15,0,0,1-.12-3.24c0-1.49.08-3.5-1.31-4.74a1.26,1.26,0,0,0-1.55.14Z" transform="translate(-310.45 -102.01)"/><path class="cls-12" d="M441.53,392.05c1.05.19,2,.56,3,.68a13.61,13.61,0,0,0,3.55,0c1.19-.16,1.85-1.17,1.55-1.95s-1.53-1.23-2.73-1.11l-2.65.23c-1,.08-1.83.32-2.76.47-1.16.19-1.12,1.44,0,1.65Z" transform="translate(-310.45 -102.01)"/><path class="cls-12" d="M438.09,390.8a21.13,21.13,0,0,0-7.73-.77c-1.67.23-1.62,2.13,0,2.39a21.34,21.34,0,0,0,7.73-.21c1-.25,1-1.15,0-1.41Z" transform="translate(-310.45 -102.01)"/><path class="cls-13" d="M440,398.1c-.78,0-1.44.47-1.44,1s.66,1,1.44,1,1.45-.48,1.45-1-.65-1-1.45-1Z" transform="translate(-310.45 -102.01)"/><path class="cls-13" d="M448.36,390.87s0,0,0,0a1.7,1.7,0,0,0-1.61-.47c-.75.15-1.22.72-1,1.26a.06.06,0,0,0,0,0,1.57,1.57,0,0,0,1.77.71,1.43,1.43,0,0,0,.86-.47.83.83,0,0,0,0-1Z" transform="translate(-310.45 -102.01)"/><path class="cls-13" d="M445.05,390.83a.49.49,0,0,0-.21-.15c-.43-.15-.85.15-.64.46l0,0c0-.09,0-.18-.05-.27v0c-.06.22.14.44.47.44s.56-.29.42-.53Z" transform="translate(-310.45 -102.01)"/><path class="cls-13" d="M431.23,390.57c-.58,0-1.05.34-1.05.75s.47.75,1.05.75,1-.34,1-.75-.49-.75-1-.75Z" transform="translate(-310.45 -102.01)"/><path class="cls-12" d="M440.34,391.73c1.37-1.5,1.41-3.64,1.54-5.36s.78-4.62-1.54-5.76c-1.74-.86-3.78.55-3.35,1.84a5.33,5.33,0,0,1,.37,1.44,31.79,31.79,0,0,1,.12,3.24c0,1.5-.08,3.51,1.32,4.74a1.25,1.25,0,0,0,1.54-.14Z" transform="translate(-310.45 -102.01)"/><path class="cls-13" d="M439.44,383.46c.79,0,1.45-.48,1.45-1s-.66-1-1.45-1-1.44.47-1.44,1,.65,1,1.44,1Z" transform="translate(-310.45 -102.01)"/><path class="cls-13" d="M439.91,396.52c.65,0,.65-.72,0-.72s-.64.72,0,.72Z" transform="translate(-310.45 -102.01)"/><path class="cls-13" d="M433.77,391.83c.64,0,.64-.72,0-.72s-.65.72,0,.72Z" transform="translate(-310.45 -102.01)"/><path class="cls-13" d="M535.91,312.66c3.77-4.32,8.62-7.33,13.07-10.88,4.22-3.38,7.91-7,12.63-9.72,3.39-2,1.08-8-2.74-6.48-5.37,2.1-9.15,6.59-13.25,10.48-4.71,4.48-9.3,8.68-12.64,14.34-1.06,1.79,1.52,3.88,2.93,2.26Z" transform="translate(-310.45 -102.01)"/><path class="cls-13" d="M539.15,322.81c5.93-3.24,11.27-7.13,16.91-10.84,4.26-2.82,12.49-5.32,13.9-10.6a1.48,1.48,0,0,0-1-1.79c-5.29-1.88-11.88,4.26-16,7.15-5.94,4.23-11,8.79-15,15-.45.71.43,1.49,1.12,1.11Z" transform="translate(-310.45 -102.01)"/><path class="cls-13" d="M419.14,391.77c-5.76,4.78-13.85,7.31-20.32,11.13-3.26,1.92-13.16,9-8.42,13.7,3.65,3.66,13-5.61,15.81-7.45,6.61-4.25,11.92-8.14,16.41-14.69,1.51-2.22-1.67-4.18-3.48-2.69Z" transform="translate(-310.45 -102.01)"/><path class="cls-13" d="M420.18,407.05c-7.7,4.2-20,10.62-21.4,20.35-.35,2.46,2.1,5.4,4.7,3.61,3.83-2.64,6.49-6.52,9.75-9.81a77.7,77.7,0,0,0,9.5-11.6c1.09-1.62-1-3.39-2.55-2.55Z" transform="translate(-310.45 -102.01)"/><path class="cls-13" d="M551.3,327.26c3.64.86,9-2.07,11.09-5,1.43-2-.91-4.61-3-4s-3.81,2.13-5.61,3.36a7,7,0,0,0-3.17,4.29,1.06,1.06,0,0,0,.74,1.29Z" transform="translate(-310.45 -102.01)"/><path class="cls-7" d="M355.37,199.49c0,.83-.33,2-.33,2.86s0,1.69.1,2.53a11.49,11.49,0,0,0,3.49,7.53c-1.95.12-6.83.12-8.78,0a11.44,11.44,0,0,0,3.49-7.53,21.32,21.32,0,0,0,.1-2.53c0-.84-.33-2-.33-2.86Z" transform="translate(-310.45 -102.01)"/><path class="cls-7" d="M354.79,201.57c.82.13,1.28.91,2.76,2.52,1.36,1.46,2.7,3,5.74,3.39a5.45,5.45,0,0,0,4.54-1.89A10.28,10.28,0,0,0,369.4,202a9.36,9.36,0,0,0-.79-7,4.89,4.89,0,0,0-6.32-2c-1,.63-1.39,1.39-2.35,1.57a.42.42,0,0,1-.47-.52c.38-1.47,1.43-1.64,1.91-3.39.58-2.07.89-3.68-2.06-6.28-2.27-2-7.76-1.8-10.13,0s-2.66,3.52-2.08,5.59c.46,1.63,1.39,2.37,1.82,3.76a.59.59,0,0,1-.76.73c-.69-.28-1.08-.92-2-1.46-1.95-1.17-5.12-.22-6.3,2a9.22,9.22,0,0,0-.78,7,10.26,10.26,0,0,0,1.56,3.62,5.45,5.45,0,0,0,4.54,1.89c3-.37,4.38-1.93,5.72-3.39,1.5-1.61,2-2.39,2.78-2.52Z" transform="translate(-310.45 -102.01)"/><path class="cls-7" d="M364.07,126.83v33.09q0,8.66-3.91,12.08t-10.35,3.42a25.35,25.35,0,0,1-6.95-1v-4.88a29.83,29.83,0,0,0,6.21.74,11.26,11.26,0,0,0,5.86-1.19,5.91,5.91,0,0,0,2.53-3.07,20.79,20.79,0,0,0,.64-6.12V126.83Z" transform="translate(-310.45 -102.01)"/><path class="cls-7" d="M604.54,520.46c0-.84.34-2,.34-2.87a23.78,23.78,0,0,0-.1-2.53,11.52,11.52,0,0,0-3.5-7.53c2-.11,6.84-.11,8.78,0a11.51,11.51,0,0,0-3.49,7.53c-.09.84-.09,1.69-.1,2.53s.34,2,.34,2.87Z" transform="translate(-310.45 -102.01)"/><path class="cls-7" d="M605.13,518.37c-.82-.12-1.29-.91-2.77-2.53-1.36-1.45-2.69-3-5.73-3.38a5.46,5.46,0,0,0-4.53,1.89,10.3,10.3,0,0,0-1.58,3.62,9.39,9.39,0,0,0,.79,7c1.17,2.17,4.35,3.13,6.31,1.95,1-.62,1.4-1.39,2.35-1.57a.43.43,0,0,1,.48.52c-.39,1.47-1.42,1.65-1.92,3.4-.57,2.07-.89,3.67,2.07,6.27,2.25,2,7.75,1.8,10.13,0s2.65-3.51,2.08-5.59c-.45-1.63-1.39-2.37-1.83-3.75a.59.59,0,0,1,.76-.74c.71.28,1.09.93,2,1.46,1.95,1.18,5.13.22,6.31-1.95a9.34,9.34,0,0,0,.79-7,10.64,10.64,0,0,0-1.56-3.62,5.51,5.51,0,0,0-4.55-1.89c-3.05.38-4.38,1.93-5.73,3.38-1.49,1.62-2,2.41-2.78,2.53Z" transform="translate(-310.45 -102.01)"/><path class="cls-7" d="M595.85,593.11V560q0-8.65,3.91-12.08t10.35-3.42a25.67,25.67,0,0,1,6.94,1v4.88a29.6,29.6,0,0,0-6.2-.73c-2.66,0-4.61.39-5.87,1.19a5.81,5.81,0,0,0-2.52,3.07,20.59,20.59,0,0,0-.65,6.11v33.09Z" transform="translate(-310.45 -102.01)"/><path class="cls-5" d="M432.8,591.64H361.75c-13.72,0-24.87-11.85-24.87-26.43V231.72a.78.78,0,0,1,.78-.77.77.77,0,0,1,.77.77V565.21c0,13.72,10.46,24.88,23.32,24.88H432.8a.78.78,0,0,1,0,1.55Z" transform="translate(-310.45 -102.01)"/><path class="cls-5" d="M582,591.64h-64a.78.78,0,1,1,0-1.55h64a.78.78,0,0,1,0,1.55Z" transform="translate(-310.45 -102.01)"/><path class="cls-5" d="M622.26,490.63a.78.78,0,0,1-.78-.77V154.73c0-13.72-10.46-24.88-23.32-24.88H528a.78.78,0,1,1,0-1.55h70.15c13.72,0,24.88,11.86,24.88,26.43V489.86A.78.78,0,0,1,622.26,490.63Z" transform="translate(-310.45 -102.01)"/><path class="cls-5" d="M441.32,129.85H380.41a.78.78,0,1,1,0-1.55h60.91a.78.78,0,1,1,0,1.55Z" transform="translate(-310.45 -102.01)"/></g></svg>