<svg xmlns="http://www.w3.org/2000/svg" viewBox="0 0 336.99 512.81"><defs><style>.cls-1{fill:#fff;}.cls-2{fill:#2d2d2d;}.cls-3{fill:#0c0a35;}</style></defs><g id="Layer_1" data-name="Layer 1"><path class="cls-1" d="M619.29,615.61H340.64a28.4,28.4,0,0,1-28.4-28.4V132.74a28.39,28.39,0,0,1,28.4-28.4H619.29a28.39,28.39,0,0,1,28.39,28.4V587.21A28.4,28.4,0,0,1,619.29,615.61Z" transform="translate(-311.47 -103.57)"/><path class="cls-2" d="M619.29,616.38H340.64a29.2,29.2,0,0,1-29.17-29.17V132.74a29.2,29.2,0,0,1,29.17-29.17H619.29a29.2,29.2,0,0,1,29.17,29.17V587.21A29.21,29.21,0,0,1,619.29,616.38ZM340.64,105.11A27.66,27.66,0,0,0,313,132.74V587.21a27.66,27.66,0,0,0,27.63,27.63H619.29a27.67,27.67,0,0,0,27.63-27.63V132.74a27.66,27.66,0,0,0-27.63-27.63Z" transform="translate(-311.47 -103.57)"/><path class="cls-3" d="M356.13,200.45c0,.83-.33,2-.33,2.85a21.24,21.24,0,0,0,.1,2.52,11.41,11.41,0,0,0,3.47,7.48c-1.93.11-6.8.11-8.73,0a11.47,11.47,0,0,0,3.48-7.48c.08-.84.09-1.68.09-2.52s-.34-2-.33-2.85Z" transform="translate(-311.47 -103.57)"/><path class="cls-3" d="M355.54,202.52c.81.13,1.28.91,2.76,2.51,1.34,1.45,2.67,3,5.69,3.37a5.43,5.43,0,0,0,4.52-1.88,10.25,10.25,0,0,0,1.55-3.6,9.21,9.21,0,0,0-.78-6.92,4.86,4.86,0,0,0-6.27-1.95c-1.05.63-1.39,1.39-2.34,1.56a.41.41,0,0,1-.47-.51c.38-1.47,1.41-1.63,1.89-3.37.58-2.06.89-3.66-2-6.24-2.24-2-7.71-1.79-10.07,0s-2.64,3.49-2.07,5.55c.45,1.62,1.38,2.36,1.82,3.74a.58.58,0,0,1-.76.72c-.7-.27-1.07-.91-2-1.45a4.87,4.87,0,0,0-6.28,1.95,9.3,9.3,0,0,0-.78,6.92,10.45,10.45,0,0,0,1.56,3.6A5.43,5.43,0,0,0,346,208.4c3-.37,4.34-1.92,5.68-3.37,1.49-1.6,1.95-2.38,2.76-2.51Z" transform="translate(-311.47 -103.57)"/><path class="cls-3" d="M373.79,175.56h-6.06L363,161.73H345.41l-4.24,13.83h-4.95l15.38-47.33h6.7Zm-12.08-18.27-7.33-22.74-7.32,22.74Z" transform="translate(-311.47 -103.57)"/><path class="cls-3" d="M603.66,519.49c0-.83.33-2,.33-2.85a23.3,23.3,0,0,0-.1-2.51,11.41,11.41,0,0,0-3.47-7.48c1.93-.12,6.79-.12,8.73,0a11.47,11.47,0,0,0-3.48,7.48,23.3,23.3,0,0,0-.09,2.51c0,.84.33,2,.32,2.85Z" transform="translate(-311.47 -103.57)"/><path class="cls-3" d="M604.24,517.42c-.81-.13-1.27-.91-2.76-2.51-1.34-1.45-2.66-3-5.69-3.37a5.42,5.42,0,0,0-4.51,1.88,10.35,10.35,0,0,0-1.56,3.6,9.3,9.3,0,0,0,.78,6.92c1.17,2.16,4.33,3.12,6.28,1.95,1-.62,1.39-1.38,2.34-1.56a.41.41,0,0,1,.47.51c-.39,1.46-1.42,1.64-1.9,3.38-.57,2.06-.89,3.65,2,6.24,2.24,2,7.71,1.78,10.07,0s2.64-3.5,2.06-5.56c-.45-1.62-1.37-2.36-1.81-3.73a.59.59,0,0,1,.75-.74c.7.29,1.08.92,2,1.46,2,1.17,5.1.21,6.27-1.95a9.21,9.21,0,0,0,.78-6.92,10.33,10.33,0,0,0-1.55-3.6,5.43,5.43,0,0,0-4.52-1.88c-3,.38-4.35,1.92-5.69,3.37-1.48,1.6-1.94,2.38-2.76,2.51Z" transform="translate(-311.47 -103.57)"/><path class="cls-3" d="M586.27,544.38h6.06l4.76,13.83h17.56l4.24-13.83h5l-15.37,47.33h-6.71Zm12.08,18.28,7.33,22.74L613,562.66Z" transform="translate(-311.47 -103.57)"/><path class="cls-3" d="M477.09,364.38c0,2.12.85,5.15.85,7.27a62.61,62.61,0,0,1-.25,6.43c-.8,7.29-3.42,14.24-8.89,19.13,4.95.29,17.37.29,22.32,0-5.47-4.89-8.08-11.84-8.88-19.13a59.9,59.9,0,0,1-.25-6.43c0-2.12.85-5.15.85-7.27Z" transform="translate(-311.47 -103.57)"/><path class="cls-3" d="M478.59,369.67c-2.09.32-3.27,2.31-7.06,6.41-3.43,3.71-6.82,7.66-14.54,8.61-3.93.49-9.18-1.64-11.54-4.8a26.08,26.08,0,0,1-4-9.2,23.6,23.6,0,0,1,2-17.7c3-5.52,11.05-7.95,16-5,2.66,1.59,3.55,3.53,6,4a1.06,1.06,0,0,0,1.19-1.32c-1-3.74-3.61-4.18-4.85-8.62-1.46-5.26-2.26-9.34,5.23-15.95,5.74-5.05,19.71-4.57,25.75,0s6.74,8.94,5.28,14.2c-1.16,4.15-3.52,6-4.63,9.54a1.49,1.49,0,0,0,1.93,1.87c1.77-.72,2.74-2.35,5-3.71,5-3,13.05-.55,16,5a23.65,23.65,0,0,1,2,17.7,26.29,26.29,0,0,1-4,9.2c-2.36,3.16-7.61,5.29-11.54,4.8-7.72-.95-11.11-4.9-14.53-8.61-3.8-4.1-5-6.09-7.06-6.41Z" transform="translate(-311.47 -103.57)"/></g></svg>