<svg xmlns="http://www.w3.org/2000/svg" xmlns:xlink="http://www.w3.org/1999/xlink" viewBox="0 0 339.02 515.91"><defs><style>.cls-1{fill:none;}.cls-2{fill:#191956;}.cls-3{fill:#fff;}.cls-4{fill:#2d2d2d;}.cls-5{fill:#b70027;}.cls-6{fill:#141247;}.cls-7{fill:#0c0a35;}.cls-8{fill:#ffd6a1;}.cls-9{fill:#f70032;}.cls-10{clip-path:url(#clip-path);}.cls-11{clip-path:url(#clip-path-2);}.cls-12{clip-path:url(#clip-path-3);}.cls-13{fill:#222272;}.cls-14{fill:#990028;}.cls-15{clip-path:url(#clip-path-4);}.cls-16{clip-path:url(#clip-path-5);}.cls-17{clip-path:url(#clip-path-6);}</style><clipPath id="clip-path" transform="translate(-310.45 -102.01)"><path class="cls-1" d="M419.07,271.5c-4.62.45-6.86,5.26-7.87,9.78a31.65,31.65,0,0,0-.66,6.79c0,7.7,1.61,15.59,5.9,22s11.51,11.1,19.22,11.12a33.71,33.71,0,0,0,10.45-2.08c14.33-4.71,27.81-12.47,38.13-23.47s17.35-25.32,18.41-40.37c.07-.89,0-2-.74-2.42-2.2-5.74-6.51-9.6-12.22-11.9a22.67,22.67,0,0,0-17.91.54,15.72,15.72,0,0,0-6.94,5.95c-1.85,3.14-2.17,6.92-2.85,10.5s-1.95,7.38-5,9.41a15.18,15.18,0,0,1-5.68,2q-7.65,1.5-15.43,2.24Z"/></clipPath><clipPath id="clip-path-2" transform="translate(-310.45 -102.01)"><path class="cls-1" d="M430.68,250.39a31.35,31.35,0,0,1,10.32-.6,25,25,0,0,1,10.22,3.12,27.13,27.13,0,0,1,8.77,7.92,9.75,9.75,0,0,1,1.83,3.67,7.5,7.5,0,0,1-2.14,6.52,13.79,13.79,0,0,1-6.16,3.42,24.25,24.25,0,0,1-24.8-7.6c-.77-.93-1.67-2-2.88-2s-1.79,1.27-2.6,2.31c-1.69,2.22-2.85,2.93-5.79,5.65-1.35,1.25-2.91,2.39-4.74,2.21-3-.29-4.73-3.9-4.5-6.95a17.36,17.36,0,0,1,6.89-11.69C418.64,253.92,421.12,252.87,430.68,250.39Z"/></clipPath><clipPath id="clip-path-3" transform="translate(-310.45 -102.01)"><path class="cls-2" d="M526.45,292.55a21.06,21.06,0,0,0,5.28-4.62,43.77,43.77,0,0,0,7.48-24,48.08,48.08,0,0,0-.84-9.94A80,80,0,0,0,523,219.37c-2.8-3.63-6.07-7.13-10.33-8.87a54.34,54.34,0,0,0-5.66-1.71c-4.34-1.27-8.41-3.35-12.77-4.59s-9.23-1.58-13.22.56c-1.73,15.26,2.27,30.58,7,45.2,3.31,10.33,7.05,20.64,12.9,29.77a37.14,37.14,0,0,0,8.85,10.07,18.86,18.86,0,0,0,12.57,4A9.57,9.57,0,0,0,526.45,292.55Z"/></clipPath><clipPath id="clip-path-4" transform="translate(-310.45 -102.01)"><path class="cls-1" d="M540.94,442.87c4.62-.45,6.86-5.25,7.86-9.78a31,31,0,0,0,.67-6.79c0-7.7-1.62-15.59-5.9-22s-11.51-11.11-19.21-11.12a33.51,33.51,0,0,0-10.45,2.06c-14.33,4.72-27.82,12.49-38.14,23.48s-17.35,25.32-18.42,40.37c-.06.89,0,2,.75,2.42,2.19,5.75,6.51,9.6,12.22,11.9a22.66,22.66,0,0,0,17.91-.54,15.64,15.64,0,0,0,6.93-5.95c1.86-3.14,2.18-6.91,2.86-10.5s2-7.38,5-9.41a15.11,15.11,0,0,1,5.69-2c5.1-1,10.25-1.75,15.42-2.24Z"/></clipPath><clipPath id="clip-path-5" transform="translate(-310.45 -102.01)"><path class="cls-1" d="M529.33,464a31.13,31.13,0,0,1-10.33.59,24.88,24.88,0,0,1-10.21-3.11,26.8,26.8,0,0,1-8.76-7.92,9.79,9.79,0,0,1-1.85-3.67,7.5,7.5,0,0,1,2.14-6.51,13.82,13.82,0,0,1,6.16-3.43,24.26,24.26,0,0,1,24.81,7.6c.78.93,1.67,2,2.88,2s1.79-1.26,2.59-2.31c1.7-2.21,2.85-2.92,5.8-5.65,1.35-1.25,2.91-2.39,4.74-2.21,3.05.3,4.73,3.9,4.49,7A17.27,17.27,0,0,1,544.9,458C541.38,460.45,538.89,461.5,529.33,464Z"/></clipPath><clipPath id="clip-path-6" transform="translate(-310.45 -102.01)"><path class="cls-2" d="M433.55,421.82a21,21,0,0,0-5.27,4.62,43.6,43.6,0,0,0-7.48,24,47.41,47.41,0,0,0,.85,9.94A79.9,79.9,0,0,0,437,495c2.81,3.63,6.08,7.13,10.33,8.87a54.12,54.12,0,0,0,5.66,1.71c4.34,1.27,8.42,3.35,12.77,4.59s9.23,1.59,13.22-.55c1.74-15.27-2.26-30.58-7-45.21-3.32-10.33-7.06-20.64-12.91-29.78a37.06,37.06,0,0,0-8.84-10.06,18.93,18.93,0,0,0-12.59-4A9.61,9.61,0,0,0,433.55,421.82Z"/></clipPath></defs><g id="Layer_1" data-name="Layer 1"><path class="cls-3" d="M620.13,617.16H339.8a28.58,28.58,0,0,1-28.58-28.58V131.36a28.57,28.57,0,0,1,28.58-28.57H620.13a28.57,28.57,0,0,1,28.57,28.57V588.58A28.58,28.58,0,0,1,620.13,617.16Z" transform="translate(-310.45 -102.01)"/><path class="cls-4" d="M620.13,617.93H339.8a29.38,29.38,0,0,1-29.35-29.35V131.36A29.38,29.38,0,0,1,339.8,102H620.13a29.39,29.39,0,0,1,29.34,29.35V588.58A29.39,29.39,0,0,1,620.13,617.93ZM339.8,103.56A27.83,27.83,0,0,0,312,131.36V588.58a27.83,27.83,0,0,0,27.81,27.8H620.13a27.82,27.82,0,0,0,27.79-27.8V131.36a27.82,27.82,0,0,0-27.79-27.8Z" transform="translate(-310.45 -102.01)"/><path class="cls-5" d="M351.67,351.13c3,6.77,10.63,8.66,17.26,9,10.77.58,21.53-.84,32.23-2.24,2.91-.38,6.48-1.41,7.1-4.69a8.73,8.73,0,0,0-.31-3.62,36.57,36.57,0,0,0-2.45-7.7c-3.36-7-10.11-10.95-16.78-13.33-9.13-3.25-19.39-4.22-28,.57a20.26,20.26,0,0,0-8.63,9A16.13,16.13,0,0,0,351.67,351.13Z" transform="translate(-310.45 -102.01)"/><path class="cls-5" d="M602.57,366.19c-2.62-6.71-10.1-9-16.7-9.74-10.71-1.22-21.53-.52-32.3.18-2.93.19-6.56,1-7.36,4.08a8.28,8.28,0,0,0,.09,3.5,34.91,34.91,0,0,0,2,7.56c3,7,9.45,11.17,16,13.87,8.91,3.69,19.11,5.26,28,1.17a19.89,19.89,0,0,0,9.14-8.1A15.1,15.1,0,0,0,602.57,366.19Z" transform="translate(-310.45 -102.01)"/><path class="cls-6" d="M363.62,313.82a8.07,8.07,0,0,1,1.6-4.42c13.75-22.21,45.64-36,78.08-39.68s65.53,1.2,97.1,7.86c5.82,1.22,11.68,2.53,16.93,4.75,14.65,6.19,22.56,18.48,27.68,30.44-6.57.9-13.5,1.92-18.45,5.25-7.61,5.1-8.09,13.73-7.79,21.35a394.66,394.66,0,0,0,10.43,76.18c-7.78,1.71-16,1.69-24.13,1.64-48.94-.25-97.9-.5-146.82-1.59a5.15,5.15,0,0,1-2.86-.62,2.56,2.56,0,0,1-.89-1.79c-4.86-27.84-.19-53.36-7.51-80.91-.63-2.32,11.39-7.52,9.56-9.45-2.42-2.55-6.31-4.05-10.05-5.47C379.35,314.66,371.2,311.89,363.62,313.82Z" transform="translate(-310.45 -102.01)"/><path class="cls-6" d="M596.39,398.28a8.7,8.7,0,0,1-1.6,4.63c-13.75,23.33-45.63,37.77-78.08,41.67s-65.53-1.25-97.11-8.25c-5.82-1.28-11.66-2.65-16.92-5-14.66-6.5-22.56-19.41-27.67-32,6.56-.95,13.49-2,18.45-5.52,7.59-5.35,8.08-14.4,7.79-22.41a436,436,0,0,0-10.43-80c7.76-1.79,16-1.76,24.11-1.72,48.95.27,97.91.53,146.84,1.68a4.92,4.92,0,0,1,2.85.65,2.69,2.69,0,0,1,.88,1.88c4.87,29.24.21,56,7.53,85,.6,2.44-11.4,7.9-9.56,9.93,2.41,2.67,6.3,4.25,10,5.73C580.65,397.39,588.8,400.3,596.39,398.28Z" transform="translate(-310.45 -102.01)"/><path class="cls-7" d="M573.62,426c-4.07,1.35-105.43-48.44-122.3-58.7-21.71-13.2-82.36-32.33-86-35.32s-6.26-7.52-5.79-12.18c.3-3,1.79-5.65,3.3-8.21,5.76-9.75,13.46-20,24.66-21.71,12.5-2,22.53,8.91,33.64,14.95C474.3,333.7,519,351.92,551.34,366.83c26,12,31.47,12.43,45.14,20.3,1.64.94,3.72,8.49-2.49,17.81C584.62,419,584.62,422.3,573.62,426Z" transform="translate(-310.45 -102.01)"/><path class="cls-8" d="M442.88,281.78c4.13.26,8.42.44,12.28-1.07,3.3-1.29,6-3.71,8.64-6.08a148.08,148.08,0,0,0,11.85-11.51c9.94-11.19,16.29-25.28,19.48-39.88.67-3,1.17-6.3,0-9.16-1.76-4.14-6.47-6-10.72-7.5-6-2.07-12-4.16-18.36-4.34a62.47,62.47,0,0,0-11.3,1.07l-18.2,2.85c-2.54.4-3.46,1.34-5.42,3-3.58,3-5.09,7.95-5.08,12.63a7,7,0,0,1-.64,3.55,8.32,8.32,0,0,1-2.72,2.45A49.39,49.39,0,0,0,406.9,245.1c-.93,1.71-1.76,3.76-1,5.54s3.16,2.58,5.2,2.51,4.05-.72,6.1-.67q-.14,6.57-.25,13.15c-.05,2.78-.07,5.72,1.29,8.16,1.6,2.84,4.76,4.42,7.86,5.42C431.52,280.94,437.23,281.42,442.88,281.78Z" transform="translate(-310.45 -102.01)"/><path class="cls-7" d="M419.07,271.5c-4.62.45-6.86,5.26-7.87,9.78a31.65,31.65,0,0,0-.66,6.79c0,7.7,1.61,15.59,5.9,22s11.51,11.1,19.22,11.12a33.71,33.71,0,0,0,10.45-2.08c14.33-4.71,27.81-12.47,38.13-23.47s17.35-25.32,18.41-40.37c.07-.89,0-2-.74-2.42-2.2-5.74-6.51-9.6-12.22-11.9a22.67,22.67,0,0,0-17.91.54,15.72,15.72,0,0,0-6.94,5.95c-1.85,3.14-2.17,6.92-2.85,10.5s-1.95,7.38-5,9.41a15.18,15.18,0,0,1-5.68,2q-7.65,1.5-15.43,2.24Z" transform="translate(-310.45 -102.01)"/><path class="cls-3" d="M457.09,231.14c-4.86-.56-9.41-2.57-13.88-4.55,3.39-3,8.17-3.87,12.69-4.45,9-1.17,18.65-1.76,26.65,2.52C474.48,228.37,465.9,232.17,457.09,231.14Z" transform="translate(-310.45 -102.01)"/><path class="cls-7" d="M514.75,198.74c2.17-1.08,3.48-3.29,4.66-5.41q4.08-7.46,7.53-15.24c.81-1.84,2.16-1.45,1.71-3.41a19,19,0,0,0-3.91-7.07c-1.86-1.7-5.83-6-7.68-7.75-2.9-2.67-12.29-8.92-15.7-10.12-11.19-3.94-24.69-4.65-36.12-1.4A63.56,63.56,0,0,0,453.82,153c-6.57,3.37-13.14,7.85-16,14.68-2.65,6.4-1.53,13.66-.36,20.48,2.18,2.48,3.24,5.17,5.43,7.65a19.31,19.31,0,0,0,5.51,4.85,18.86,18.86,0,0,0,6.19,1.51,221,221,0,0,0,52.74,0C510.3,201.8,513.73,201.5,514.75,198.74Z" transform="translate(-310.45 -102.01)"/><path class="cls-9" d="M467.51,139a8.26,8.26,0,0,0-3.2,1.57,6.41,6.41,0,0,0-2.67,3.91,5.2,5.2,0,0,0,2.15,4.78,8.43,8.43,0,0,0,5.18,1.5,6.6,6.6,0,0,0,4.19-1.29,5.27,5.27,0,0,0,1.31-1.76,6.21,6.21,0,0,0-7-8.71Z" transform="translate(-310.45 -102.01)"/><path class="cls-7" d="M461.5,230.73a3.84,3.84,0,1,0-3.84-3.84,3.88,3.88,0,0,0,3.84,3.84Z" transform="translate(-310.45 -102.01)"/><path class="cls-7" d="M443.71,222.5c5.58.64,11.42-.64,17-1.08s12.09,1.82,17.5.11a1.75,1.75,0,0,0,.76-2.89c-4.11-4.82-12.55-3.91-18.26-3.45-6,.47-12.89,1.89-17.51,6.06-.52.47-.06,1.18.52,1.25Z" transform="translate(-310.45 -102.01)"/><path class="cls-7" d="M423.34,248.82c.74-1.53-1.11-3.23-2.45-1.9-1.68,1.68,1.51,3.89,2.45,1.9Z" transform="translate(-310.45 -102.01)"/><g class="cls-10"><path class="cls-5" d="M414.29,269.26c-.7,3.9-2.59,7.79-1.83,11.83,1,5.51,5.3,10.16,4.22,15.9-1.27,6.74-6.19,12.45-4.46,19.51.12.43.82.34.79-.11-.71-8.71,6.62-13.09,7.13-20.84a12.7,12.7,0,0,0-1.05-6.66c-3.17-6.75-2.8-12.3-3.45-19.44-.06-.72-1.2-1-1.35-.19Z" transform="translate(-310.45 -102.01)"/><path class="cls-5" d="M406.1,282.65c.07,3.06,1.34,5.86,2.14,8.77a13.3,13.3,0,0,1,.48,5.67c-.26,1.45-1,2.54-.84,4.05.06.59.5,1.28,1.2,1.2,3.8-.41,4.58-4.89,4.1-8.09-.66-4.27-2.91-8.56-5.33-12.07a1,1,0,0,0-1.75.47Z" transform="translate(-310.45 -102.01)"/><path class="cls-5" d="M416.57,266c7.2,8.76,8.81,26.34,5.91,37.07-1.34,4.9-6.46,8.85-6.34,14.17a20.43,20.43,0,0,0,4.95,13.52c.62.74,1.58-.09,1.46-.85-.84-5.13-3.1-9.33-2.06-14.81.58-3,3.49-6.08,4.62-9,2.26-5.85,2-11.64,1.57-17.8-.49-7.44-1.42-20-9.55-23.25-.6-.24-.9.58-.56,1Z" transform="translate(-310.45 -102.01)"/><path class="cls-5" d="M422.27,269.46c5.48,4.62,8.85,12.41,9.77,19.38,1.06,8-2.2,14.15-6,20.76-4.35,7.66-1.31,17,4.57,23.06.57.58,1.87.2,1.74-.72-1.08-8.42-6.9-13.31-1.72-22.52,2.86-5.08,4.73-9.16,5.23-15,.76-8.65-2.94-24-12.81-26.37-.77-.17-1.52.85-.83,1.43Z" transform="translate(-310.45 -102.01)"/><path class="cls-5" d="M429.12,268.48c4.08,5,8.77,8.58,12.42,14.13,6.26,9.46-1.35,16.26-4.36,25-3.45,10-.59,21.44,8.85,27.17a1.22,1.22,0,0,0,1.77-1.37c-3.16-9-9.73-13.9-6.18-24.57,2.1-6.28,6-11.35,6.65-18.05,1-10-10.74-19.36-18.28-23.39a.71.71,0,0,0-.87,1.11Z" transform="translate(-310.45 -102.01)"/><path class="cls-5" d="M434.72,265.24c5.76,5.49,11.43,9.92,16.23,16.4,7.46,10.09-.87,16.36-2.09,26.08-1.11,8.8,4.29,24.15,14.8,24.85.89.05,1.09-1,.65-1.57-5.38-6.87-11.49-11-12.07-20.56-.44-7.22,5.8-12.91,6-20.08.34-10.73-14-22.5-22.73-26.2-.66-.29-1.44.5-.82,1.08Z" transform="translate(-310.45 -102.01)"/><path class="cls-5" d="M445.17,265.86c6.95,3.59,11.22,9.86,15.29,16.33,3.52,5.56,4.57,11.4,1,17.49-1.18,2-2.71,3.93-3.58,6.14-3.82,9.76,3.31,22.5,12.26,27.07a1.11,1.11,0,0,0,1.51-1.5c-4.08-9.37-15.36-14.26-9.71-26.26,2.14-4.53,5.79-8.95,5-14.33-1.34-9.33-10.66-25.84-21.51-26.07a.61.61,0,0,0-.3,1.13Z" transform="translate(-310.45 -102.01)"/><path class="cls-5" d="M448.74,259.43c9.86,10.26,26.78,18.65,21.61,35.8-3.14,10.38-4.34,21.25,5.3,28.82.63.48,1.78.07,1.47-.85-3.11-9-7.35-14.42-4-24.54,1.94-5.93,2.57-10.23.88-16.29-3.11-11.09-15.24-18.6-24.79-23.5a.36.36,0,0,0-.43.56Z" transform="translate(-310.45 -102.01)"/><path class="cls-5" d="M455.23,257.72c8.85,5.14,16.33,11.88,21.4,20.85,4.14,7.32,3.08,15.32,2.63,23.3-.49,8.79.65,23.09,12,24.11,1,.1,1.38-1.21.77-1.85-3-3.07-6.09-5-7.68-9.25-1.3-3.44-1.15-7.38-1.08-11,.13-5.89,1.58-12.24.27-18.08-3.08-13.67-14-25.95-28-28.89a.44.44,0,0,0-.33.8Z" transform="translate(-310.45 -102.01)"/><path class="cls-5" d="M458,255.51c8.71,3.34,15.72,6.82,22.47,13.48,6.49,6.41,7.15,16.9,7.09,25.42-.07,9.52-1,24.84,11.33,27.16a1.11,1.11,0,0,0,1.06-1.85c-3.3-3.73-6.76-5.89-8.62-10.85-1.64-4.41-1-9.84-.95-14.46.09-6.87-.37-14.38-3.42-20.67-4.37-9-18.15-21.28-29-19-.4.09-.32.6,0,.73Z" transform="translate(-310.45 -102.01)"/><path class="cls-5" d="M461.05,250.62c9.72,1.73,17.65,8.05,24,15.32,6.86,7.83,7,17.34,8.83,27,1.76,9.18-.11,22.62,11.49,25.42a.82.82,0,0,0,.63-1.49c-12.81-9.32-6.85-31.5-12.44-44.54s-18.49-21.61-32.35-23.1c-.79-.08-1,1.26-.19,1.4Z" transform="translate(-310.45 -102.01)"/><path class="cls-5" d="M460.77,245.23c2.29,1.3,3.83,1.2,6.57,1.26,7.08.12,12.5,5.64,17.6,9.91,4.12,3.46,8.27,7.16,11,11.82,2.67,4.5,4.32,10,6.66,14.72,6.6,13.3,15.29,26.61,31.33,16.76.35-.22.12-.86-.29-.69-22.9,9.62-27.47-24.22-37.65-37-8.6-10.79-21-19.9-35.15-17.71-.44.07-.46.71-.11.91Z" transform="translate(-310.45 -102.01)"/><path class="cls-5" d="M467.77,239.56c9.84,1.28,17.1,6.64,23.12,14.06,4.27,5.28,9.49,9.78,15.93,12.09a1,1,0,0,0,1-1.66c-3.54-3.4-7.63-6.08-11.32-9.31s-5.84-7.41-9.54-10.47c-5.06-4.17-12.73-6.23-19.16-6a.63.63,0,0,0,0,1.26Z" transform="translate(-310.45 -102.01)"/></g><path class="cls-2" d="M430.68,250.39a31.35,31.35,0,0,1,10.32-.6,25,25,0,0,1,10.22,3.12,27.13,27.13,0,0,1,8.77,7.92,9.75,9.75,0,0,1,1.83,3.67,7.5,7.5,0,0,1-2.14,6.52,13.79,13.79,0,0,1-6.16,3.42,24.25,24.25,0,0,1-24.8-7.6c-.77-.93-1.67-2-2.88-2s-2.07,1.23-2.77,2.25a23.5,23.5,0,0,1-5.1,5.2c-1.44,1.16-3.43,2.9-5.26,2.72-3-.29-4.73-3.9-4.5-6.95a17.36,17.36,0,0,1,6.89-11.69C418.64,253.92,421.12,252.87,430.68,250.39Z" transform="translate(-310.45 -102.01)"/><g class="cls-11"><path class="cls-5" d="M417.76,249.44c5.33,7.61-7,15.06-8.81,22.48A9.34,9.34,0,0,0,414.49,283c.53.22,1.07-.53.74-1-6.42-9.19-.66-13.77,4.55-21.38,2.77-4.05,2.32-8.62-1.26-11.78-.38-.34-1.07.11-.76.58Z" transform="translate(-310.45 -102.01)"/><path class="cls-5" d="M422.27,246.42c.86,4.58,2.05,8.46.9,13.18-.73,3-3.21,5.91-4.57,8.69-1.61,3.28-2.63,6.65-.65,9.93.25.41,1,.28,1-.26-.87-7.11,5.05-11.26,7.55-17.45,2-5,.24-10.87-3.28-14.64-.41-.44-1,0-.93.55Z" transform="translate(-310.45 -102.01)"/><path class="cls-5" d="M422.71,242.34c9.23,11.95,12.18,37,30.06,40a.4.4,0,0,0,.31-.72c-7.88-5.3-12.7-11.73-17.08-20.06-3.68-7-6.76-14.34-12.8-19.68-.35-.31-.77.14-.49.5Z" transform="translate(-310.45 -102.01)"/><path class="cls-5" d="M431.73,247c8.61,13.3,13.82,29.55,30.34,35.22.72.25,1.19-.72.72-1.21-5.59-5.83-12.41-9.64-17.4-16.22-4.65-6.1-6.61-13.4-12.42-18.74-.64-.59-1.75.17-1.24.95Z" transform="translate(-310.45 -102.01)"/><path class="cls-5" d="M432.61,238.52c8.12,15.54,19.11,30.91,34.46,40a.38.38,0,0,0,.45-.59c-13-12-23.15-26-33.83-40a.63.63,0,0,0-1.08.64Z" transform="translate(-310.45 -102.01)"/><path class="cls-5" d="M439.7,242.94c9.84,9.09,18,19.64,27.28,29.13.39.41,1.23,0,1-.58-2-5.13-6.73-9.79-10.4-13.86a128.86,128.86,0,0,0-16.93-15.93c-.72-.56-1.61.64-1,1.24Z" transform="translate(-310.45 -102.01)"/></g><path class="cls-2" d="M526.45,292.55a21.06,21.06,0,0,0,5.28-4.62,43.77,43.77,0,0,0,7.48-24,48.08,48.08,0,0,0-.84-9.94A80,80,0,0,0,523,219.37c-2.8-3.63-6.07-7.13-10.33-8.87a54.34,54.34,0,0,0-5.66-1.71c-4.34-1.27-8.41-3.35-12.77-4.59s-9.23-1.58-13.22.56c-1.73,15.26,2.27,30.58,7,45.2,3.31,10.33,7.05,20.64,12.9,29.77a37.14,37.14,0,0,0,8.85,10.07,18.86,18.86,0,0,0,12.57,4A9.57,9.57,0,0,0,526.45,292.55Z" transform="translate(-310.45 -102.01)"/><g class="cls-12"><path class="cls-5" d="M478.46,207.54c-1.08,8.27-.11,14.46,4.86,21.31,4.11,5.66,6.74,9.69,3.51,17-1.06,2.39-2.37,5.74-1.58,8.45,2.44,8.45,10.7,12,12.4,20.92,1.75,9.22-2.19,20.3,3.48,28.25.58.82,2.2.66,2.09-.57-.83-8.94.85-17.71-.82-26.56-.59-3.11-.92-6.83-2.6-9.6-2.37-3.92-6.21-6.27-8.89-10-3.43-4.8,1.26-11.22,2.48-16,.76-2.94-.45-5.66-1.76-8.18-2.49-4.72-6.76-8.11-8.8-13.22-1.63-4.11-.7-8.31-3-12.21a.75.75,0,0,0-1.39.38Z" transform="translate(-310.45 -102.01)"/><path class="cls-5" d="M484.26,204c-.49,4.19,1.29,7.43,2.73,11.33,2,5.4,7.46,7.76,10.63,12.35,5.54,8-1.05,14.07-2.33,21.67a10.24,10.24,0,0,0,2.6,7.9c3.71,3.77,8.26,5.89,11.56,10.23,6.15,8.09-1.67,14-2,21.67-.17,4.74,2.15,15.49,9.1,14.33a1.55,1.55,0,0,0,.92-2.26c-3-5-5.88-7.67-4.43-14,1.12-4.86,3.78-8,3.84-13.19.08-7.88-7.35-13.79-13.34-17.41-7.78-4.71-2.66-10.14-.77-16,1.34-4.2.91-7.43-.66-11.57a18.78,18.78,0,0,0-5.86-7.86c-5.58-4.08-9-10.67-11-17.27a.53.53,0,0,0-1,.14Z" transform="translate(-310.45 -102.01)"/><path class="cls-5" d="M494,205a50,50,0,0,0,7,12.17c4.81,6.39,10.85,8.41,8.63,18.08-1.55,6.76-5.26,13.56,1.84,18.44,6.38,4.38,14.78,9.62,13.34,18.72-.75,4.73-4.4,8.48-5.77,13-2.23,7.27.49,15.2,8,17.93a1.09,1.09,0,0,0,1.22-1.59c-4.36-6.15-8-10.91-3.92-18.52,1.72-3.23,3.62-6.14,4.77-9.62,2.53-7.57-4-15.58-9.61-19.63-6.48-4.66-9.41-6.54-6.58-15.16a21.32,21.32,0,0,0,.65-13c-.77-3-3.12-5.2-5.36-7.1a108.68,108.68,0,0,1-13.42-14.21c-.28-.34-.93,0-.76.45Z" transform="translate(-310.45 -102.01)"/><path class="cls-5" d="M508,210.22c9.34,6.26,13.44,14.47,10.51,25.77-1.53,5.89-.84,10.13,3.26,14.65,3.23,3.58,7.52,5.36,10.59,9.4,3.91,5.15,1.89,11.26.2,16.74-1.8,5.81-3,12,.47,17.45a.87.87,0,0,0,1.6-.43c.94-16.22,12.33-33.05-6.1-43.73-9.33-5.4-5.77-10.31-5.09-18.58.32-3.85.36-8-1.44-11.58-2.55-5.07-7.48-10.94-13.46-11.68-1.14-.13-1.32,1.46-.54,2Z" transform="translate(-310.45 -102.01)"/><path class="cls-5" d="M534.73,216.4c-5.76,5.13-9.63,14.73-7.43,22.3,2.52,8.74,13.49,15.25,22.28,14a.93.93,0,0,0,.22-1.68c-7.75-3.36-15.53-4.46-19.14-13.28-2.16-5.27,1.58-16.22,5.12-20.31a.75.75,0,0,0-1-1.06Z" transform="translate(-310.45 -102.01)"/></g><path class="cls-13" d="M516.63,214.25l8.94-.09a5.18,5.18,0,0,0,3.12-.68,2.66,2.66,0,0,0,1.06-2.14c0-2.08-2.31-3.24-4.08-4.34a15.34,15.34,0,0,1-3.07-2.5c-.35-.37,1.31-5.32,1.79-5.47,7.78-16,23.93-50.9,27.74-57.95,2.62,1.94,6.36,3.59,9.56,2.93a1.58,1.58,0,0,0,1-.52c.47-.67-.23-1.55-.88-2.06a53,53,0,0,0-7.64-4.94c1.61-3.18,2.59-4.72,3.81-7.73.28-.69,2-7-1.33-6.75-3.83.28-6.15,7.83-7.08,11.57a50.57,50.57,0,0,0-8.2-3.51,1.75,1.75,0,0,0-1.87,2.77,10.87,10.87,0,0,0,5.53,3.78A594.73,594.73,0,0,0,512.9,191.9a3.34,3.34,0,0,1-1.27,1.59,1.19,1.19,0,0,1-1.7-.56c0-.06,0-1.07,0-1.13,3.16-22,7.29-43.21,12.41-64.8,1.9.42,3.83.25,5.73.67a5.94,5.94,0,0,0,3,.12,2,2,0,0,0,1.49-2.33,2.72,2.72,0,0,0-1.51-1.43c-2.33-1.2-5.25-1.06-7.87-1.14.68-2.62,2.64-7.75,2.28-10.42a1.91,1.91,0,0,0-3.64-.38,63.17,63.17,0,0,0-3.77,9.63,15.58,15.58,0,0,0-8.23-2.9,1.32,1.32,0,0,0-1.36,1.58,4.78,4.78,0,0,0,2.13,3,13.61,13.61,0,0,0,5,1.92c-5.23,22.45-13.44,44.26-22.84,65.33a.91.91,0,0,1-1.72-.22c-2-12.08-3.36-21.69-3.5-34-.12-10.52.17-24,.34-35.18a.64.64,0,0,1,.64-.62c3,0,5.41.56,8.43-.25a2.47,2.47,0,0,0,1.57-.91c.75-1.22-.81-2.58-2.17-3-2.33-.7-6.58-.39-7.59-.28a.17.17,0,0,1-.19-.18c.06-1.95,0-4.5.09-6.4a6.72,6.72,0,0,0-.42-3.22,2.32,2.32,0,0,0-2.67-1.35c-1.09.4-1.46,1.73-1.64,2.87a55.22,55.22,0,0,0-.66,8.22.27.27,0,0,1-.3.27,39.8,39.8,0,0,0-6.64.07,4.25,4.25,0,0,0-2.85,1.06,2.15,2.15,0,0,0,1.33,3.47,15.82,15.82,0,0,0,7.44-.67.14.14,0,0,1,.13.15c-4.53,35.74-8,66.43-12.32,69a2,2,0,0,1-2.91-1.16c-4.93-14.57-8-29.69-10.7-44.84-1.24-7.13-2.85-13.94-2.21-21.07a1.64,1.64,0,0,1,1.42-1.45,16.14,16.14,0,0,0,6-2.27,3,3,0,0,0,1.27-1.27c.55-1.24-.57-2.71-1.9-3a6.34,6.34,0,0,0-3.91.78,8.73,8.73,0,0,1-3.86,1.13c-.57,0-1.09-6.1-2.71-9.08-.48-.88-1.55-.47-1.88.48a18.83,18.83,0,0,0-.13,8.87.85.85,0,0,1-.74,1c-2.39.27-5.18.7-7.41.92-1.65.16-3.86,1.11-3.35,2.68.39,1.21,1.37,2.45,3.72,2,3-.56,4.87-1.1,7.91-1.47.74,26.12,1.91,42.7,4,66.31.35,4.11-3.28,3.76-4.4,1.76-4.69-8.36-11.66-23.74-16.14-32.12s-10.68-17.18-15.31-25.31a12.11,12.11,0,0,1-1.5-4.35c-.13-1-.2-1.42.82-2S419,124.52,420,124s1.51-1.94.65-2.55a1.83,1.83,0,0,0-1-.26c-1.67-.09-3,.77-4.4,1.66-.57.36-4.26,2.35-5.7-4.59-.27-1.26-.61-2.55-1.7-3.22-2.45-1.5-4.23,1.2-3.88,3.31.29,1.7,1.45,3.1,2.38,4.56s1.67,3.28,1,4.87-2.35,1.61-4,2.41a6.4,6.4,0,0,0-2.41,2.09,1.6,1.6,0,0,0,1.7,2.44,10.4,10.4,0,0,0,3.93-2.19c1.78-1.46,3.89-3.12,4.84-1,7.16,15.74,10.73,28.09,17,41.76,1.93,4.2,3.8,8.43,5.5,12.71s3.44,9.48,1,13.45c-1.17,1.87-3.12,3.1-4.93,4.37s-3.8,2.92-4.42,5.18a4.27,4.27,0,0,0,3.26,5.26c9.77,2.06,20.33-.65,30.3-1.26,20.19-1.25,40.5,2.83,60.62.68Z" transform="translate(-310.45 -102.01)"/><path class="cls-7" d="M430.14,211.56c2.63,0,2.63-4.08,0-4.08s-2.63,4.08,0,4.08Z" transform="translate(-310.45 -102.01)"/><path class="cls-7" d="M437.18,211.74c2.88,0,2.88-4.45,0-4.45s-2.87,4.45,0,4.45Z" transform="translate(-310.45 -102.01)"/><path class="cls-7" d="M445.55,211.73c2.84,0,2.84-4.42,0-4.42s-2.86,4.42,0,4.42Z" transform="translate(-310.45 -102.01)"/><path class="cls-7" d="M452.59,211.4c2.7,0,2.7-4.2,0-4.2s-2.72,4.2,0,4.2Z" transform="translate(-310.45 -102.01)"/><path class="cls-7" d="M461.17,211.25c3.08,0,3.08-4.79,0-4.79s-3.08,4.79,0,4.79Z" transform="translate(-310.45 -102.01)"/><path class="cls-7" d="M469.3,210.81c3.09,0,3.09-4.78,0-4.78s-3.09,4.78,0,4.78Z" transform="translate(-310.45 -102.01)"/><path class="cls-7" d="M476.87,210.86H477c1.75.15,2.77-2,2-3.4a2.29,2.29,0,0,0-3.91,0,1,1,0,0,0-.08.11c-1.05,1.46.4,3.15,1.89,3.28Z" transform="translate(-310.45 -102.01)"/><path class="cls-7" d="M484.71,211c2.77,0,2.77-4.3,0-4.3s-2.76,4.3,0,4.3Z" transform="translate(-310.45 -102.01)"/><path class="cls-7" d="M492.85,212c3,0,3-4.58,0-4.58s-3,4.58,0,4.58Z" transform="translate(-310.45 -102.01)"/><path class="cls-7" d="M500.33,212.2c3.18,0,3.18-4.92,0-4.92s-3.16,4.92,0,4.92Z" transform="translate(-310.45 -102.01)"/><path class="cls-7" d="M508.92,212.21c2.9,0,2.9-4.5,0-4.5s-2.9,4.5,0,4.5Z" transform="translate(-310.45 -102.01)"/><path class="cls-7" d="M516.4,212c2.68,0,2.68-4.16,0-4.16s-2.69,4.16,0,4.16Z" transform="translate(-310.45 -102.01)"/><path class="cls-7" d="M523,212.15c2.82,0,2.82-4.38,0-4.38s-2.82,4.38,0,4.38Z" transform="translate(-310.45 -102.01)"/><path class="cls-14" d="M443.4,192.19l.1-.12a2.72,2.72,0,0,0,0-3.83l-.1-.12a2.88,2.88,0,1,0,0,4.07Z" transform="translate(-310.45 -102.01)"/><path class="cls-14" d="M459.19,190.61a3.54,3.54,0,1,0-3.54-3.54,3.56,3.56,0,0,0,3.54,3.54Z" transform="translate(-310.45 -102.01)"/><path class="cls-14" d="M481.52,189.57A3.55,3.55,0,1,0,478,186a3.58,3.58,0,0,0,3.56,3.55Z" transform="translate(-310.45 -102.01)"/><path class="cls-14" d="M505.55,191.34a.76.76,0,0,1,.09-.09,3.45,3.45,0,0,0,.53-4.18,3.5,3.5,0,0,0-3.89-1.58l-.13,0a3.49,3.49,0,1,0,3.4,5.83Z" transform="translate(-310.45 -102.01)"/><path class="cls-14" d="M520.7,198.23l.12-.09a3.23,3.23,0,0,0,.64-5l-.1-.1a3.29,3.29,0,1,0-.66,5.16Z" transform="translate(-310.45 -102.01)"/><path class="cls-7" d="M467.77,139.79c2.87,0,2.87-4.46,0-4.46s-2.87,4.46,0,4.46Z" transform="translate(-310.45 -102.01)"/><path class="cls-7" d="M436.39,184.29v.07c0,2.77,4.29,2.77,4.29,0v-.07c0-2.77-4.29-2.77-4.29,0Z" transform="translate(-310.45 -102.01)"/><path class="cls-7" d="M458.09,182.79c3.27,0,3.27-5.08,0-5.08s-3.28,5.08,0,5.08Z" transform="translate(-310.45 -102.01)"/><path class="cls-7" d="M482.07,181.48c2.71,0,2.71-4.21,0-4.21s-2.71,4.21,0,4.21Z" transform="translate(-310.45 -102.01)"/><path class="cls-7" d="M505.17,183.82c2.91,0,2.91-4.5,0-4.5s-2.89,4.5,0,4.5Z" transform="translate(-310.45 -102.01)"/><path class="cls-7" d="M521.9,191.11c2.66,0,2.66-4.12,0-4.12s-2.66,4.12,0,4.12Z" transform="translate(-310.45 -102.01)"/><path class="cls-13" d="M536.22,339.64c-1.55,1.47-1.53,3.9-1.38,6a31.64,31.64,0,0,0,1.83,9.86c1.28,3.11,3.68,5.92,6.89,6.91,3.8,1.17,30.27-1.4,39.5-2.48a19.25,19.25,0,0,0,5.29-1.25A13.52,13.52,0,0,0,596,348.36a15.33,15.33,0,0,0-8.27-15.67c-5.36-2.6-11.69-1.77-17.58-.88-10.5,1.58-21.06,3.18-31.17,6.43A7.18,7.18,0,0,0,536.22,339.64Z" transform="translate(-310.45 -102.01)"/><path class="cls-2" d="M530.75,331.1c-1.78-4.89.45-10.43,2.09-15.37.87-2.6,11.6-13.38,28.15-20,13.13-5.24,22.89,2.25,27.51,5.33,5,3.34,9,14.66,7.63,20.54-1.59,6.94-5.54,10.76-12.33,12.91-11.15,3.52-16.43,1.14-25.37,2.37-7,1-16.18,4.46-22.74,1.74C533.17,337.57,531.69,333.66,530.75,331.1Z" transform="translate(-310.45 -102.01)"/><path class="cls-14" d="M570.57,300.24c5.57-3.43,12.57,5.05,15.24,8.91a17.4,17.4,0,0,1,3.35,9.85c0,4.08-3.2,8.23-7.63,7.05a4,4,0,0,1-2.92-3.84c.15-1.35,1.14-3.25,1.17-3.82.12-1.92-.88-4-1.71-5.71a26.13,26.13,0,0,0-7.5-9.31,1.84,1.84,0,0,1,0-3.13Z" transform="translate(-310.45 -102.01)"/><path class="cls-14" d="M561.69,304.24c3.76-.63,7,5.9,8.47,8.56,2.63,4.7,3.67,10.68-1.2,14.24-3.27,2.39-7.9-2.32-5.58-5.58,1.74-2.46-.69-6.1-1.66-8.54-.7-1.76-3.84-8.05,0-8.68Z" transform="translate(-310.45 -102.01)"/><path class="cls-14" d="M553,311.86c1.29,1.92,1.56,4.55,2.09,6.76.59,2.41,1.39,5.34,1.06,7.8-.56,4.18-5.73,5.06-7.32,1-.93-2.37-.89-5.27-1.13-7.79s-.38-5.49.84-7.76a2.62,2.62,0,0,1,4.46,0Z" transform="translate(-310.45 -102.01)"/><path class="cls-14" d="M541.26,317.24c.6,2.06.12,4.25.41,6.37.37,2.6,1.62,4.93,2.36,7.42s-2.65,4.61-4.46,2.59c-3.65-4.09-5.7-13.51-.55-17.29a1.53,1.53,0,0,1,2.24.91Z" transform="translate(-310.45 -102.01)"/><path class="cls-9" d="M586.88,338.79a1.12,1.12,0,0,1,0-2.24,1.12,1.12,0,0,1,0,2.24Z" transform="translate(-310.45 -102.01)"/><path class="cls-9" d="M592,343.18a.67.67,0,0,1,0-1.34.67.67,0,0,1,0,1.34Z" transform="translate(-310.45 -102.01)"/><path class="cls-9" d="M586.45,345.63a1.36,1.36,0,0,1,0-2.71,1.36,1.36,0,0,1,0,2.71Z" transform="translate(-310.45 -102.01)"/><path class="cls-9" d="M588.86,350.69a.92.92,0,0,1,0-1.83.92.92,0,0,1,0,1.83Z" transform="translate(-310.45 -102.01)"/><path class="cls-9" d="M581.61,350.32a.11.11,0,0,1,0-.21.11.11,0,0,1,0,.21Z" transform="translate(-310.45 -102.01)"/><path class="cls-9" d="M581.16,350.58a.81.81,0,0,1,0-1.62.81.81,0,0,1,0,1.62Z" transform="translate(-310.45 -102.01)"/><path class="cls-9" d="M580.5,339.62a.85.85,0,0,1,0-1.7.85.85,0,0,1,0,1.7Z" transform="translate(-310.45 -102.01)"/><path class="cls-9" d="M577.42,344.49a1.1,1.1,0,0,1,0-2.2,1.1,1.1,0,0,1,0,2.2Z" transform="translate(-310.45 -102.01)"/><path class="cls-9" d="M584.46,357.84a1.25,1.25,0,0,1,0-2.5,1.25,1.25,0,0,1,0,2.5Z" transform="translate(-310.45 -102.01)"/><path class="cls-9" d="M575.45,354.62a1.11,1.11,0,0,1,0-2.21,1.11,1.11,0,0,1,0,2.21Z" transform="translate(-310.45 -102.01)"/><path class="cls-9" d="M571.7,349.19a1,1,0,0,1,0-1.91,1,1,0,0,1,0,1.91Z" transform="translate(-310.45 -102.01)"/><path class="cls-9" d="M570.38,341.83a1.08,1.08,0,0,1,0-2.16,1.08,1.08,0,0,1,0,2.16Z" transform="translate(-310.45 -102.01)"/><path class="cls-9" d="M562.68,340.43a1,1,0,0,1,0-2,1,1,0,0,1,0,2Z" transform="translate(-310.45 -102.01)"/><path class="cls-9" d="M563.56,346.63a1,1,0,0,1,0-2.08,1,1,0,0,1,0,2.08Z" transform="translate(-310.45 -102.01)"/><path class="cls-9" d="M557.84,344.06a.67.67,0,0,1,0-1.33.67.67,0,0,1,0,1.33Z" transform="translate(-310.45 -102.01)"/><path class="cls-9" d="M565.32,353.56a1.15,1.15,0,0,1,0-2.29,1.15,1.15,0,0,1,0,2.29Z" transform="translate(-310.45 -102.01)"/><path class="cls-9" d="M569.28,359.09a.73.73,0,0,1,0-1.46.73.73,0,0,1,0,1.46Z" transform="translate(-310.45 -102.01)"/><path class="cls-9" d="M578.45,359.6l-.12.11a1,1,0,1,1,0-1.39l.12.11a.83.83,0,0,1,0,1.17Z" transform="translate(-310.45 -102.01)"/><path class="cls-9" d="M558.28,353a1,1,0,0,1,0-2,1,1,0,0,1,0,2Z" transform="translate(-310.45 -102.01)"/><path class="cls-9" d="M560.25,359.43a.86.86,0,0,1,0-1.71.86.86,0,0,1,0,1.71Z" transform="translate(-310.45 -102.01)"/><path class="cls-14" d="M458,360.14c.14,3.05.1,5.11,1.57,7.92,1.66,3.2,3.14,4.45,5.82,6.81A19.2,19.2,0,0,0,477.08,379c5-.06,6-.3,10.71-2,3.59-1.29,6.31-4.2,8.64-7.05,6.27-7.64,4.7-20.19-1.87-27.13a23.92,23.92,0,0,0-15.31-7.65,23.55,23.55,0,0,0-12.65,2.51c-3.39,1.91-7.1,4.49-9.08,8-2.9,5.1-5.19,11.12-3.41,17.11,1.48,5,1.58,5.54,4.67,9.74a23,23,0,0,0,4.77,4.42,18.1,18.1,0,0,0,5.79,2.94c5.11,1.5,6.14,1.33,11.46.9s11.14-4.9,14-9.25a21.75,21.75,0,0,0,1.63-21.72,20.15,20.15,0,0,0-11.19-10.14c-7-2.56-14-.81-19.83,3.56-3.34,2.51-5.07,5.76-6.81,9.46L461.1,348a2.11,2.11,0,0,1-.33.47c1.18-1.3,2.37-2.6,3.54-3.9a.86.86,0,0,1-.2.18l4.41-2.86a1.45,1.45,0,0,1-.47.22l5.06-1.68-.27,0,5.51-.29-.31,0,5.38,1.17a2.67,2.67,0,0,1-.69-.23l4.72,2.46a3.94,3.94,0,0,1-.78-.49l3.88,3.54A3,3,0,0,1,490,346c1,1.46,1.9,2.92,2.86,4.39a1.72,1.72,0,0,1-.27-.62q.82,2.52,1.66,5c0-.1,0-.21-.05-.31.09,1.83.19,3.65.29,5.48a2.26,2.26,0,0,1,.07-.63l-1.17,5.36a2.66,2.66,0,0,1,.26-.6c-.82,1.57-1.63,3.14-2.45,4.7a2.76,2.76,0,0,1,.43-.54c-1.18,1.28-2.35,2.57-3.53,3.86a3.58,3.58,0,0,1,.56-.47l-4.38,2.85a5.62,5.62,0,0,1,1-.49l-5,1.65a3.3,3.3,0,0,1,.76-.15l-5.46.28a5,5,0,0,1,1.16.11l-5.33-1.16a8.13,8.13,0,0,1,1.16.44l-4.63-2.42a4,4,0,0,1,.65.46l-3.79-3.44a4.65,4.65,0,0,1,.58.67c-.94-1.42-1.86-2.83-2.78-4.25a6.26,6.26,0,0,1,.53,1.07c-.52-1.59-1.05-3.18-1.57-4.77a1.78,1.78,0,0,1,.08.45c-.09-1.71-.19-3.41-.27-5.11a4.46,4.46,0,0,1-.09,1l1.05-4.86a5.46,5.46,0,0,1-.38,1l2.15-4.12a14,14,0,0,1-1.69,2.35q1.37-1.51,2.76-3a7.28,7.28,0,0,1-1.08.93l3.19-2.07a6.08,6.08,0,0,1-1,.51l3.45-1.13a7.82,7.82,0,0,1-1.27.3l3.46-.18h-.27c-3.53.16-6.42.59-9.21,3-2.28,1.94-4.58,5.48-4.42,8.62Z" transform="translate(-310.45 -102.01)"/><path class="cls-14" d="M445.52,366.88c2.18-7.37.55-15.06,3.27-22.38a48.41,48.41,0,0,1,5.15-10.24c1.72-2.59,6.43-3.78,8.93-5.71,4.49-3.48-.35-10.64-5.34-8.22-9.39,4.57-13.49,9.17-17.62,18.82-3.67,8.58-6,21.47,1.68,28.44,1.17,1.06,3.39,1.14,3.93-.71Z" transform="translate(-310.45 -102.01)"/><path class="cls-14" d="M489.35,392.46c20.28,8,39.51-29.57,24.29-43a2.66,2.66,0,0,0-4,1.27c-1,3.69-.68,7.15-.72,11-.08,5.85-1.89,10.52-4.9,15.48-3.69,6.07-8.23,9.1-14.85,11.48-1.8.64-1.34,3.23.19,3.84Z" transform="translate(-310.45 -102.01)"/><path class="cls-7" d="M474.05,355.7a28,28,0,0,1-5.15-1.25c-1.68-.5-3-1.71-4.75-2.14-2.68-.65-5.52.68-5.76,3.71s2.34,4.86,5.09,4.58c1.61-.16,3.3,0,4.93-.07a17.43,17.43,0,0,0,6.24-1.6,1.71,1.71,0,0,0-.6-3.23Z" transform="translate(-310.45 -102.01)"/><path class="cls-7" d="M475.06,361.74c-1.61,3.82-4.26,8.13-4.29,12.41,0,5.4,7.26,5.86,8.24.66a45.5,45.5,0,0,0,.3-6.41,19.6,19.6,0,0,0-.82-6.38,1.8,1.8,0,0,0-3.43-.28Z" transform="translate(-310.45 -102.01)"/><path class="cls-7" d="M479.3,352.74a43.24,43.24,0,0,0,3.19-11.9c.57-5.44-7.64-6-8.41-.68-.54,3.83-1.47,10.27,1.73,13.2a2.08,2.08,0,0,0,3.49-.62Z" transform="translate(-310.45 -102.01)"/><path class="cls-7" d="M479.47,358.54c1.36,2.08,4.31,2.88,6.63,3.42,3.39.79,7.79,1.51,10.19-1.71a4.44,4.44,0,0,0-3.26-6.91,5.51,5.51,0,0,0-2.57.42c1.19-.43-.45,0-.74,0-1.17.13-2.34.31-3.51.44-1.84.2-4.8.28-6.18,1.69a2.23,2.23,0,0,0-.56,2.64Z" transform="translate(-310.45 -102.01)"/><path class="cls-7" d="M446.26,342.85l.05-.15a2.47,2.47,0,0,0-1.46-3.11,2.43,2.43,0,0,0-3.11,1.45.66.66,0,0,0,0,.15,2.42,2.42,0,1,0,4.55,1.66Z" transform="translate(-310.45 -102.01)"/><path class="cls-7" d="M443.86,351.09c.24-2.94-4.33-3.31-4.56-.36s4.32,3.31,4.56.36Z" transform="translate(-310.45 -102.01)"/><path class="cls-7" d="M443.53,358.86c.21-2.42-3.55-2.72-3.75-.3s3.57,2.73,3.75.3Z" transform="translate(-310.45 -102.01)"/><path class="cls-7" d="M450.91,333.59a2.43,2.43,0,1,0-2.61,2.21,2.46,2.46,0,0,0,2.61-2.21Z" transform="translate(-310.45 -102.01)"/><path class="cls-7" d="M455.72,327.78a1.52,1.52,0,0,0-3-.24,1.52,1.52,0,0,0,3,.24Z" transform="translate(-310.45 -102.01)"/><path class="cls-7" d="M461.66,324a1.36,1.36,0,0,0-2.7-.22,1.36,1.36,0,0,0,2.7.22Z" transform="translate(-310.45 -102.01)"/><path class="cls-7" d="M512.19,379.19a2.65,2.65,0,1,0-2.86,2.43,2.68,2.68,0,0,0,2.86-2.43Z" transform="translate(-310.45 -102.01)"/><path class="cls-7" d="M516,371.3a2.73,2.73,0,1,0-3,2.5,2.76,2.76,0,0,0,3-2.5Z" transform="translate(-310.45 -102.01)"/><path class="cls-7" d="M505.83,386c.21-2.58-3.78-2.9-4-.32s3.78,2.9,4,.32Z" transform="translate(-310.45 -102.01)"/><path class="cls-7" d="M498.8,389.28a1.47,1.47,0,0,0-2.93-.24,1.47,1.47,0,0,0,2.93.24Z" transform="translate(-310.45 -102.01)"/><path class="cls-7" d="M513.83,360.12a2,2,0,0,0-1.17,2.17,1.94,1.94,0,0,0,2.73,1.37c2.23-1.06.53-4.65-1.56-3.54Z" transform="translate(-310.45 -102.01)"/><path class="cls-7" d="M512,354.67l0,.14c-.31,1.56,1.81,2.36,2.86,1.46s.6-3.11-1-3h-.14a1.63,1.63,0,0,0-1.7,1.44Z" transform="translate(-310.45 -102.01)"/><path class="cls-9" d="M467.13,368.88a.09.09,0,0,0,0-.05c-.26.52-.52,1-.79,1.56a2.68,2.68,0,0,0,.53-3.32,2.49,2.49,0,0,0-2-1.34,2.36,2.36,0,0,0-2.41,1.56,2.68,2.68,0,0,0,.13,2.28,2.55,2.55,0,0,0,2.62,1.33h.09a2.21,2.21,0,0,0,1.8-2Z" transform="translate(-310.45 -102.01)"/><path class="cls-9" d="M488.75,369.76s0-.06,0-.1c-.14-2.43-4.29-2.77-4.84-.39a.34.34,0,0,1,0,.1c-.36,1.57.37,3.25,2.17,3.39s2.8-1.38,2.69-3Z" transform="translate(-310.45 -102.01)"/><path class="cls-9" d="M469.33,345.28a2.51,2.51,0,1,0-2.71,2.3,2.54,2.54,0,0,0,2.71-2.3Z" transform="translate(-310.45 -102.01)"/><path class="cls-9" d="M486.74,343.83h0a2.86,2.86,0,0,0-.39,4.84l.05,0a2.83,2.83,0,0,0,2.9.24,2.88,2.88,0,1,0-4-3.58.06.06,0,0,0,0,0l4.24-1.34a2.84,2.84,0,0,0-2.8-.23Z" transform="translate(-310.45 -102.01)"/><path class="cls-7" d="M441.35,392.81a3.59,3.59,0,0,0,1.45.84,2.05,2.05,0,0,0,2.31-.93,2.09,2.09,0,0,0-.73-2.79,2.7,2.7,0,0,0-1.09-.46c-1.82-.36-3.53,1.89-1.94,3.34Z" transform="translate(-310.45 -102.01)"/><path class="cls-7" d="M487.35,330a1.25,1.25,0,0,0,0-2.5,1.25,1.25,0,0,0,0,2.5Z" transform="translate(-310.45 -102.01)"/><path class="cls-7" d="M453.18,384a1.13,1.13,0,0,0,0-2.25,1.13,1.13,0,0,0,0,2.25Z" transform="translate(-310.45 -102.01)"/><path class="cls-7" d="M465.61,402.47a1.77,1.77,0,0,0,0-3.54,1.77,1.77,0,0,0,0,3.54Z" transform="translate(-310.45 -102.01)"/><path class="cls-7" d="M459,326.38a1.77,1.77,0,0,0,0-3.54,1.77,1.77,0,0,0,0,3.54Z" transform="translate(-310.45 -102.01)"/><path class="cls-7" d="M446.91,406.93a2.22,2.22,0,0,0-.56.7c-1,2.11,1.94,3.9,3.17,1.85l.07-.13-.66.66.23-.17a1.85,1.85,0,1,0-2.25-2.91Z" transform="translate(-310.45 -102.01)"/><path class="cls-7" d="M494.81,313.85a1.88,1.88,0,0,0,0-3.75,1.88,1.88,0,0,0,0,3.75Z" transform="translate(-310.45 -102.01)"/><path class="cls-7" d="M416.7,385.44a3,3,0,0,0-1.42.73c-1.53,1.21.42,3.51,2,2.62l-.13,0c2.49-.05,2-3.85-.46-3.39Z" transform="translate(-310.45 -102.01)"/><path class="cls-7" d="M423.51,395.06l.09.17a1.72,1.72,0,0,0,3,0l.08-.17a1.81,1.81,0,1,0-3.13,0Z" transform="translate(-310.45 -102.01)"/><path class="cls-8" d="M517.13,432.59c-4.15-.26-8.42-.44-12.28,1.07-3.3,1.29-6,3.71-8.65,6.09a147.85,147.85,0,0,0-11.85,11.5c-9.93,11.19-16.27,25.28-19.48,39.89-.66,3-1.18,6.29,0,9.15,1.77,4.14,6.47,6,10.72,7.49,6,2.08,12.05,4.17,18.36,4.35a61.53,61.53,0,0,0,11.31-1.07l18.2-2.85c2.53-.4,3.45-1.34,5.41-3,3.58-3,5.1-8,5.09-12.62a6.94,6.94,0,0,1,.65-3.56,8,8,0,0,1,2.71-2.45,49.36,49.36,0,0,0,15.74-17.32c.93-1.71,1.78-3.76,1-5.54s-3.15-2.58-5.2-2.51-4,.72-6.09.67q.12-6.57.25-13.15c.05-2.78.06-5.72-1.3-8.16-1.58-2.84-4.75-4.42-7.85-5.41C528.49,433.43,522.78,433,517.13,432.59Z" transform="translate(-310.45 -102.01)"/><path class="cls-7" d="M540.94,442.87c4.62-.45,6.86-5.25,7.86-9.78a31,31,0,0,0,.67-6.79c0-7.7-1.62-15.59-5.9-22s-11.51-11.11-19.21-11.12a33.51,33.51,0,0,0-10.45,2.06c-14.33,4.72-27.82,12.49-38.14,23.48s-17.35,25.32-18.42,40.37c-.06.89,0,2,.75,2.42,2.19,5.75,6.51,9.6,12.22,11.9a22.66,22.66,0,0,0,17.91-.54,15.64,15.64,0,0,0,6.93-5.95c1.86-3.14,2.18-6.91,2.86-10.5s2-7.38,5-9.41a15.11,15.11,0,0,1,5.69-2c5.1-1,10.25-1.75,15.42-2.24Z" transform="translate(-310.45 -102.01)"/><path class="cls-3" d="M502.92,483.23c4.86.56,9.41,2.57,13.88,4.55-3.4,3-8.18,3.87-12.68,4.45-9,1.17-18.65,1.76-26.65-2.52C485.52,486,494.1,482.2,502.92,483.23Z" transform="translate(-310.45 -102.01)"/><path class="cls-7" d="M445.25,515.63c-2.15,1.08-3.48,3.29-4.64,5.41q-4.11,7.44-7.54,15.24c-.81,1.84-2.15,1.45-1.72,3.41a19.09,19.09,0,0,0,3.93,7.07c1.84,1.7,5.82,6,7.67,7.75,2.9,2.68,12.28,8.92,15.69,10.12,11.2,3.94,24.71,4.65,36.12,1.4a63,63,0,0,0,11.42-4.67c6.58-3.37,13.15-7.85,16-14.68,2.63-6.4,1.51-13.65.35-20.49-2.18-2.47-3.24-5.16-5.43-7.64a19.18,19.18,0,0,0-5.51-4.85,18.93,18.93,0,0,0-6.19-1.51,220.5,220.5,0,0,0-52.74,0C449.71,512.57,446.29,512.87,445.25,515.63Z" transform="translate(-310.45 -102.01)"/><path class="cls-9" d="M492.5,575.36a8.49,8.49,0,0,0,3.2-1.58,6.45,6.45,0,0,0,2.67-3.91,5.21,5.21,0,0,0-2.15-4.78,8.46,8.46,0,0,0-5.19-1.5,6.46,6.46,0,0,0-4.17,1.3,5,5,0,0,0-1.32,1.75,6.22,6.22,0,0,0,7,8.72Z" transform="translate(-310.45 -102.01)"/><path class="cls-7" d="M498.5,483.64a3.84,3.84,0,1,0,3.85,3.84,3.88,3.88,0,0,0-3.85-3.84Z" transform="translate(-310.45 -102.01)"/><path class="cls-7" d="M516.3,491.87c-5.58-.64-11.41.64-17,1.08s-12.1-1.82-17.51-.11a1.75,1.75,0,0,0-.76,2.89c4.11,4.82,12.55,3.91,18.27,3.45,6-.47,12.89-1.89,17.51-6.06.52-.47,0-1.18-.52-1.25Z" transform="translate(-310.45 -102.01)"/><path class="cls-7" d="M536.66,465.55c-.73,1.53,1.12,3.23,2.45,1.9,1.68-1.68-1.5-3.89-2.45-1.9Z" transform="translate(-310.45 -102.01)"/><g class="cls-15"><path class="cls-5" d="M545.71,445.11c.7-3.9,2.6-7.79,1.85-11.83-1-5.51-5.31-10.15-4.23-15.9,1.27-6.74,6.18-12.45,4.45-19.51-.1-.42-.81-.34-.77.11.7,8.71-6.64,13.09-7.15,20.84a12.9,12.9,0,0,0,1,6.66c3.17,6.75,2.8,12.3,3.46,19.44.06.72,1.2,1,1.34.19Z" transform="translate(-310.45 -102.01)"/><path class="cls-5" d="M553.91,431.72c-.07-3.06-1.35-5.86-2.14-8.77a13.28,13.28,0,0,1-.48-5.67c.25-1.44,1-2.54.84-4-.07-.6-.51-1.29-1.21-1.21-3.79.41-4.59,4.89-4.08,8.09.65,4.27,2.88,8.56,5.33,12.07a.94.94,0,0,0,1.74-.47Z" transform="translate(-310.45 -102.01)"/><path class="cls-5" d="M543.44,448.33c-7.2-8.77-8.82-26.34-5.91-37.07,1.33-4.9,6.45-8.85,6.34-14.17a20.5,20.5,0,0,0-5-13.52c-.62-.74-1.58.08-1.46.85.83,5.13,3.11,9.33,2,14.81-.58,3-3.48,6.08-4.62,9-2.25,5.85-2,11.64-1.56,17.8.49,7.44,1.41,20,9.54,23.25.61.24.9-.58.57-1Z" transform="translate(-310.45 -102.01)"/><path class="cls-5" d="M537.73,444.91c-5.48-4.62-8.84-12.42-9.76-19.38-1.06-7.95,2.2-14.15,5.95-20.76,4.35-7.66,1.31-17-4.57-23.06-.58-.58-1.87-.2-1.75.72,1.09,8.42,6.91,13.31,1.72,22.51-2.85,5.08-4.71,9.17-5.22,15-.76,8.65,2.93,24,12.8,26.36.78.19,1.52-.84.83-1.42Z" transform="translate(-310.45 -102.01)"/><path class="cls-5" d="M530.88,445.89c-4.06-5-8.76-8.58-12.42-14.13-6.25-9.46,1.37-16.26,4.37-25,3.44-10,.6-21.44-8.85-27.17A1.22,1.22,0,0,0,512.2,381c3.17,9,9.74,13.9,6.18,24.57-2.09,6.28-6,11.35-6.65,18.05-1,10,10.75,19.36,18.29,23.39a.71.71,0,0,0,.86-1.11Z" transform="translate(-310.45 -102.01)"/><path class="cls-5" d="M525.29,449.13c-5.75-5.49-11.43-9.92-16.24-16.41-7.45-10.09.88-16.35,2.11-26.07,1.1-8.8-4.31-24.15-14.81-24.84-.89-.06-1.09,1-.65,1.56,5.38,6.87,11.49,11,12.08,20.57.43,7.21-5.81,12.9-6,20.07-.34,10.73,14,22.5,22.73,26.2.67.29,1.44-.5.83-1.08Z" transform="translate(-310.45 -102.01)"/><path class="cls-5" d="M514.84,448.51c-7-3.6-11.21-9.86-15.3-16.33-3.51-5.56-4.55-11.4-1-17.49,1.18-2,2.72-3.93,3.58-6.15,3.84-9.75-3.31-22.49-12.24-27.07a1.12,1.12,0,0,0-1.52,1.51c4.07,9.37,15.36,14.27,9.7,26.26-2.13,4.53-5.77,9-5,14.33,1.32,9.33,10.64,25.84,21.5,26.07a.61.61,0,0,0,.3-1.13Z" transform="translate(-310.45 -102.01)"/><path class="cls-5" d="M511.27,454.94c-9.87-10.25-26.77-18.65-21.61-35.8,3.13-10.38,4.34-21.25-5.31-28.82-.62-.49-1.78-.07-1.46.85,3.1,9,7.34,14.43,4,24.54-1.94,5.93-2.57,10.24-.87,16.29,3.1,11.09,15.23,18.6,24.78,23.5a.36.36,0,0,0,.43-.56Z" transform="translate(-310.45 -102.01)"/><path class="cls-5" d="M504.78,456.65c-8.86-5.14-16.34-11.88-21.41-20.85-4.13-7.32-3.06-15.32-2.62-23.3.49-8.79-.65-23.09-12-24.11-1-.09-1.38,1.22-.78,1.85,3,3.07,6.1,5,7.69,9.25,1.3,3.44,1.15,7.38,1.07,11-.12,5.88-1.58,12.23-.26,18.07,3.08,13.67,14.05,25.95,28,28.89a.44.44,0,0,0,.33-.8Z" transform="translate(-310.45 -102.01)"/><path class="cls-5" d="M502,458.86c-8.72-3.34-15.72-6.82-22.47-13.48-6.5-6.41-7.16-16.91-7.09-25.42.07-9.52,1-24.84-11.32-27.16a1.11,1.11,0,0,0-1.07,1.85c3.3,3.74,6.75,5.89,8.61,10.85,1.65,4.41,1,9.84,1,14.46-.1,6.86.37,14.38,3.42,20.67,4.37,9,18.15,21.28,29,19,.4-.09.31-.6,0-.73Z" transform="translate(-310.45 -102.01)"/><path class="cls-5" d="M499,463.75c-9.72-1.73-17.65-8.05-24-15.32-6.85-7.83-7-17.34-8.84-27-1.75-9.18.12-22.62-11.48-25.42a.82.82,0,0,0-.63,1.49c12.8,9.32,6.86,31.5,12.43,44.54s18.5,21.61,32.36,23.09c.79.09,1-1.25.19-1.39Z" transform="translate(-310.45 -102.01)"/><path class="cls-5" d="M499.24,469.14c-2.29-1.3-3.84-1.2-6.57-1.26-7.09-.12-12.49-5.64-17.6-9.91-4.12-3.46-8.28-7.16-11.05-11.82-2.66-4.5-4.31-10-6.64-14.72-6.62-13.3-15.29-26.62-31.35-16.76-.35.22-.11.86.3.69,22.9-9.62,27.47,24.22,37.65,37,8.6,10.79,21,19.9,35.14,17.71a.5.5,0,0,0,.12-.91Z" transform="translate(-310.45 -102.01)"/><path class="cls-5" d="M492.24,474.81c-9.85-1.28-17.1-6.64-23.12-14.07-4.27-5.27-9.5-9.77-15.93-12.08-1-.35-1.66,1-1,1.67,3.54,3.39,7.62,6.07,11.32,9.3s5.83,7.41,9.53,10.47c5.07,4.17,12.74,6.23,19.17,6a.63.63,0,0,0,0-1.25Z" transform="translate(-310.45 -102.01)"/></g><path class="cls-2" d="M529.33,464a31.13,31.13,0,0,1-10.33.59,24.88,24.88,0,0,1-10.21-3.11,26.8,26.8,0,0,1-8.76-7.92,9.79,9.79,0,0,1-1.85-3.67,7.5,7.5,0,0,1,2.14-6.51,13.82,13.82,0,0,1,6.16-3.43,24.26,24.26,0,0,1,24.81,7.6c.78.93,1.67,2,2.88,2s2.07-1.23,2.77-2.25a23.55,23.55,0,0,1,5.11-5.2c1.43-1.16,3.42-2.9,5.25-2.72,3.05.3,4.73,3.9,4.49,7A17.27,17.27,0,0,1,544.9,458C541.38,460.45,538.89,461.5,529.33,464Z" transform="translate(-310.45 -102.01)"/><g class="cls-16"><path class="cls-5" d="M542.24,464.93c-5.32-7.61,7-15.06,8.82-22.48a9.35,9.35,0,0,0-5.54-11.08c-.53-.22-1.07.53-.75,1,6.43,9.19.67,13.77-4.54,21.38-2.77,4-2.32,8.62,1.26,11.78.38.34,1.07-.11.75-.58Z" transform="translate(-310.45 -102.01)"/><path class="cls-5" d="M537.75,468c-.86-4.57-2-8.45-.91-13.18.73-3,3.21-5.92,4.56-8.68,1.61-3.29,2.64-6.66.65-9.94-.24-.41-1-.28-1,.26.87,7.11-5.06,11.26-7.55,17.45-2,5-.24,10.87,3.27,14.64.42.44,1,0,1-.55Z" transform="translate(-310.45 -102.01)"/><path class="cls-5" d="M537.31,472c-9.24-11.95-12.18-37-30.08-40a.4.4,0,0,0-.3.72c7.88,5.3,12.7,11.73,17.07,20.06,3.68,7,6.76,14.34,12.8,19.68a.36.36,0,0,0,.51-.5Z" transform="translate(-310.45 -102.01)"/><path class="cls-5" d="M528.27,467.34c-8.6-13.3-13.81-29.55-30.34-35.23-.71-.24-1.19.72-.7,1.22,5.58,5.83,12.4,9.64,17.39,16.22,4.64,6.1,6.6,13.4,12.41,18.75.64.59,1.76-.18,1.24-1Z" transform="translate(-310.45 -102.01)"/><path class="cls-5" d="M527.4,475.85c-8.12-15.54-19.11-30.91-34.46-40-.36-.21-.77.3-.45.59,13,12,23.16,26,33.83,40a.63.63,0,0,0,1.08-.64Z" transform="translate(-310.45 -102.01)"/><path class="cls-5" d="M520.31,471.43c-9.85-9.09-17.95-19.64-27.28-29.14-.4-.4-1.23,0-1,.59,2,5.13,6.73,9.79,10.4,13.86a128.86,128.86,0,0,0,16.93,15.93c.71.56,1.61-.64,1-1.24Z" transform="translate(-310.45 -102.01)"/></g><path class="cls-2" d="M433.55,421.82a21,21,0,0,0-5.27,4.62,43.6,43.6,0,0,0-7.48,24,47.41,47.41,0,0,0,.85,9.94A79.9,79.9,0,0,0,437,495c2.81,3.63,6.08,7.13,10.33,8.87a54.12,54.12,0,0,0,5.66,1.71c4.34,1.27,8.42,3.35,12.77,4.59s9.23,1.59,13.22-.55c1.74-15.27-2.26-30.58-7-45.21-3.32-10.33-7.06-20.64-12.91-29.78a37.06,37.06,0,0,0-8.84-10.06,18.93,18.93,0,0,0-12.59-4A9.61,9.61,0,0,0,433.55,421.82Z" transform="translate(-310.45 -102.01)"/><g class="cls-17"><path class="cls-5" d="M481.54,506.83c1.09-8.27.12-14.46-4.86-21.31-4.11-5.66-6.74-9.69-3.51-17,1.07-2.39,2.38-5.74,1.59-8.45-2.44-8.44-10.7-12-12.4-20.92-1.76-9.22,2.19-20.3-3.48-28.25-.58-.82-2.21-.66-2.1.57.83,8.95-.84,17.71.82,26.56.59,3.11.92,6.83,2.6,9.6,2.38,3.92,6.22,6.27,8.89,10,3.44,4.8-1.26,11.22-2.49,16-.75,2.93.47,5.65,1.78,8.17,2.49,4.73,6.76,8.11,8.79,13.22,1.65,4.11.7,8.31,3,12.21a.76.76,0,0,0,1.4-.38Z" transform="translate(-310.45 -102.01)"/><path class="cls-5" d="M475.74,510.35c.5-4.19-1.27-7.43-2.72-11.33-2-5.4-7.46-7.75-10.64-12.35-5.53-8,1.05-14.07,2.33-21.67a10.2,10.2,0,0,0-2.6-7.9c-3.7-3.77-8.25-5.88-11.55-10.23-6.16-8.09,1.67-14,1.95-21.67.18-4.74-2.15-15.49-9.09-14.33a1.55,1.55,0,0,0-.93,2.26c3,5,5.89,7.67,4.43,14-1.1,4.86-3.77,8-3.82,13.19-.08,7.88,7.34,13.79,13.32,17.41,7.79,4.71,2.67,10.14.78,16-1.34,4.2-.91,7.44.67,11.56a18.64,18.64,0,0,0,5.85,7.87c5.58,4.08,9,10.67,11,17.27a.52.52,0,0,0,1-.14Z" transform="translate(-310.45 -102.01)"/><path class="cls-5" d="M466,509.35a50.11,50.11,0,0,0-7-12.16c-4.81-6.4-10.84-8.42-8.63-18.08,1.56-6.77,5.27-13.56-1.83-18.45-6.38-4.38-14.77-9.62-13.33-18.72.74-4.73,4.38-8.48,5.76-13,2.21-7.26-.5-15.2-8-17.93a1.09,1.09,0,0,0-1.23,1.59c4.36,6.16,8,10.91,3.92,18.52-1.71,3.23-3.6,6.14-4.77,9.63-2.52,7.56,4,15.57,9.61,19.62,6.49,4.66,9.42,6.54,6.58,15.15a21.36,21.36,0,0,0-.65,13c.78,3,3.13,5.2,5.37,7.11,5.13,4.34,9.12,9,13.41,14.19.29.35.94,0,.77-.44Z" transform="translate(-310.45 -102.01)"/><path class="cls-5" d="M452,504.15c-9.33-6.26-13.43-14.47-10.49-25.77,1.52-5.89.83-10.13-3.27-14.65-3.24-3.58-7.52-5.36-10.59-9.4-3.91-5.15-1.89-11.26-.2-16.74,1.8-5.81,3-12-.48-17.45a.86.86,0,0,0-1.59.43c-.94,16.22-12.34,33.05,6.1,43.73,9.32,5.4,5.76,10.31,5.09,18.58-.31,3.85-.36,8,1.43,11.58,2.55,5.07,7.49,10.94,13.46,11.67,1.14.14,1.32-1.45.54-2Z" transform="translate(-310.45 -102.01)"/><path class="cls-5" d="M425.29,498c5.75-5.13,9.61-14.73,7.42-22.3-2.53-8.74-13.5-15.25-22.28-14a.93.93,0,0,0-.22,1.68c7.75,3.36,15.53,4.46,19.14,13.28,2.16,5.27-1.58,16.22-5.12,20.31a.75.75,0,0,0,1.06,1.06Z" transform="translate(-310.45 -102.01)"/></g><path class="cls-13" d="M443.37,500.12l-8.93.09a5.21,5.21,0,0,0-3.14.69,2.65,2.65,0,0,0-1,2.13c0,2.08,2.31,3.24,4.09,4.34a15.23,15.23,0,0,1,3,2.5c.35.37-1.31,5.32-1.79,5.47-7.77,16-23.93,50.91-27.72,57.95-2.63-1.94-6.37-3.59-9.56-2.93a1.58,1.58,0,0,0-1,.52c-.47.68.23,1.55.88,2.06a52.36,52.36,0,0,0,7.63,4.94c-1.6,3.18-2.58,4.72-3.81,7.73-.27.69-2,7,1.33,6.75,3.84-.27,6.16-7.83,7.09-11.57a49.82,49.82,0,0,0,8.21,3.51,1.75,1.75,0,0,0,1.87-2.77,10.94,10.94,0,0,0-5.54-3.78,595.67,595.67,0,0,0,32.14-55.28,3.44,3.44,0,0,1,1.26-1.59c.62-.32,1.55-.11,1.7.56,0,.06,0,1.07,0,1.13-3.17,22-7.31,43.21-12.42,64.8-1.91-.41-3.83-.25-5.74-.67a5.93,5.93,0,0,0-3-.12,2,2,0,0,0-1.49,2.33,2.78,2.78,0,0,0,1.52,1.43c2.33,1.2,5.25,1.07,7.86,1.14-.67,2.62-2.64,7.75-2.27,10.42a1.92,1.92,0,0,0,3.65.38,63.14,63.14,0,0,0,3.76-9.63,15.64,15.64,0,0,0,8.22,2.9,1.32,1.32,0,0,0,1.37-1.58,4.78,4.78,0,0,0-2.13-3,13.84,13.84,0,0,0-5-1.91c5.24-22.46,13.44-44.27,22.84-65.34a.9.9,0,0,1,1.71.23c2,12.08,3.37,21.69,3.51,34,.12,10.51-.17,24-.34,35.17a.63.63,0,0,1-.64.62c-3,0-5.41-.56-8.43.25a2.52,2.52,0,0,0-1.58.91c-.74,1.22.82,2.59,2.18,3,2.33.7,6.57.39,7.58.28a.17.17,0,0,1,.2.18c-.07,2,0,4.5-.09,6.41a6.57,6.57,0,0,0,.42,3.21,2.3,2.3,0,0,0,2.66,1.35c1.09-.39,1.46-1.73,1.64-2.88a55,55,0,0,0,.67-8.21.28.28,0,0,1,.3-.28,38.75,38.75,0,0,0,6.64-.06,4.21,4.21,0,0,0,2.84-1.06,2.14,2.14,0,0,0-1.32-3.47,15.55,15.55,0,0,0-7.43.68.15.15,0,0,1-.14-.16c4.53-35.74,8-66.43,12.32-69a2,2,0,0,1,2.91,1.16c4.92,14.58,8.05,29.69,10.7,44.84,1.24,7.13,2.85,13.94,2.21,21.07a1.62,1.62,0,0,1-1.43,1.44,16.16,16.16,0,0,0-6,2.28,3.12,3.12,0,0,0-1.3,1.27c-.54,1.24.59,2.71,1.92,3a6.28,6.28,0,0,0,3.9-.78,8.73,8.73,0,0,1,3.87-1.13c.58,0,1.09,6.09,2.71,9.08.49.88,1.55.47,1.87-.48a18.82,18.82,0,0,0,.14-8.87.84.84,0,0,1,.74-1c2.37-.27,5.17-.7,7.41-.92,1.64-.16,3.85-1.11,3.35-2.68-.4-1.21-1.37-2.45-3.71-2-3,.56-4.88,1.1-7.93,1.47-.73-26.11-1.9-42.7-4-66.32-.36-4.1,3.28-3.75,4.4-1.75,4.7,8.36,11.65,23.74,16.13,32.12s10.7,17.18,15.32,25.31a12.31,12.31,0,0,1,1.5,4.35c.13,1,.19,1.42-.82,2s-2.88,1.6-3.82,2.09-1.52,1.93-.66,2.54a1.9,1.9,0,0,0,1,.26c1.66.09,3-.77,4.39-1.66.56-.36,4.26-2.35,5.71,4.6.26,1.25.6,2.54,1.7,3.21,2.44,1.49,4.21-1.2,3.86-3.31-.28-1.7-1.45-3.1-2.38-4.55s-1.65-3.28-1-4.88,2.35-1.61,4-2.4a6.65,6.65,0,0,0,2.4-2.1,1.59,1.59,0,0,0-1.71-2.43,10.22,10.22,0,0,0-3.92,2.18c-1.78,1.46-3.89,3.12-4.85,1-7.15-15.74-10.72-28.09-17-41.76-1.93-4.2-3.8-8.42-5.51-12.71s-3.44-9.48-1-13.45c1.18-1.87,3.11-3.1,4.92-4.37s3.81-2.92,4.43-5.18a4.28,4.28,0,0,0-3.26-5.26c-9.77-2.06-20.33.65-30.3,1.26-20.19,1.25-40.5-2.84-60.61-.68Z" transform="translate(-310.45 -102.01)"/><path class="cls-7" d="M529.87,502.81c-2.63,0-2.63,4.08,0,4.08s2.63-4.08,0-4.08Z" transform="translate(-310.45 -102.01)"/><path class="cls-7" d="M522.83,502.62c-2.87,0-2.87,4.46,0,4.46s2.87-4.46,0-4.46Z" transform="translate(-310.45 -102.01)"/><path class="cls-7" d="M514.46,502.64c-2.84,0-2.84,4.42,0,4.42s2.85-4.42,0-4.42Z" transform="translate(-310.45 -102.01)"/><path class="cls-7" d="M507.43,503c-2.72,0-2.72,4.2,0,4.2s2.71-4.2,0-4.2Z" transform="translate(-310.45 -102.01)"/><path class="cls-7" d="M498.84,503.12c-3.09,0-3.09,4.79,0,4.79s3.09-4.79,0-4.79Z" transform="translate(-310.45 -102.01)"/><path class="cls-7" d="M490.7,503.55c-3.09,0-3.09,4.8,0,4.8s3.08-4.8,0-4.8Z" transform="translate(-310.45 -102.01)"/><path class="cls-7" d="M483.14,503.51H483c-1.75-.15-2.77,2-2,3.41a2.31,2.31,0,0,0,3.92,0l.08-.12c1.05-1.46-.41-3.15-1.89-3.28Z" transform="translate(-310.45 -102.01)"/><path class="cls-7" d="M475.29,503.37c-2.76,0-2.76,4.28,0,4.28s2.77-4.28,0-4.28Z" transform="translate(-310.45 -102.01)"/><path class="cls-7" d="M467.15,502.34c-2.95,0-2.95,4.58,0,4.58s3-4.58,0-4.58Z" transform="translate(-310.45 -102.01)"/><path class="cls-7" d="M459.67,502.17c-3.16,0-3.16,4.92,0,4.92s3.17-4.92,0-4.92Z" transform="translate(-310.45 -102.01)"/><path class="cls-7" d="M451.1,502.16c-2.91,0-2.91,4.5,0,4.5s2.88-4.5,0-4.5Z" transform="translate(-310.45 -102.01)"/><path class="cls-7" d="M443.61,502.33c-2.69,0-2.69,4.16,0,4.16s2.68-4.16,0-4.16Z" transform="translate(-310.45 -102.01)"/><path class="cls-7" d="M437,502.22c-2.82,0-2.82,4.38,0,4.38s2.81-4.38,0-4.38Z" transform="translate(-310.45 -102.01)"/><path class="cls-14" d="M516.62,522.18l-.11.12a2.74,2.74,0,0,0,0,3.83l.11.12a2.87,2.87,0,1,0,0-4.07Z" transform="translate(-310.45 -102.01)"/><path class="cls-14" d="M500.82,523.76a3.54,3.54,0,1,0,3.54,3.53,3.57,3.57,0,0,0-3.54-3.53Z" transform="translate(-310.45 -102.01)"/><path class="cls-14" d="M478.49,524.8a3.55,3.55,0,1,0,3.55,3.55,3.58,3.58,0,0,0-3.55-3.55Z" transform="translate(-310.45 -102.01)"/><path class="cls-14" d="M454.45,523a.32.32,0,0,1-.08.09,3.45,3.45,0,0,0,3.36,5.76l.12,0a3.49,3.49,0,1,0-3.4-5.83Z" transform="translate(-310.45 -102.01)"/><path class="cls-14" d="M439.31,516.14l-.13.09a3.23,3.23,0,0,0-.64,5,.38.38,0,0,1,.11.11,3.29,3.29,0,0,0,4.64-4.66,3.27,3.27,0,0,0-4-.51Z" transform="translate(-310.45 -102.01)"/><path class="cls-7" d="M492.24,574.58c-2.88,0-2.88,4.46,0,4.46s2.88-4.46,0-4.46Z" transform="translate(-310.45 -102.01)"/><path class="cls-7" d="M523.61,530.08V530c0-2.77-4.28-2.77-4.28,0v.07c0,2.77,4.28,2.77,4.28,0Z" transform="translate(-310.45 -102.01)"/><path class="cls-7" d="M501.93,531.58c-3.29,0-3.29,5.08,0,5.08s3.27-5.08,0-5.08Z" transform="translate(-310.45 -102.01)"/><path class="cls-7" d="M477.94,532.9c-2.72,0-2.72,4.2,0,4.2s2.71-4.2,0-4.2Z" transform="translate(-310.45 -102.01)"/><path class="cls-7" d="M454.83,530.55c-2.9,0-2.9,4.5,0,4.5s2.9-4.5,0-4.5Z" transform="translate(-310.45 -102.01)"/><path class="cls-7" d="M438.11,523.25c-2.66,0-2.66,4.13,0,4.13s2.66-4.13,0-4.13Z" transform="translate(-310.45 -102.01)"/><path class="cls-13" d="M423.79,374.73c1.54-1.47,1.54-3.9,1.38-6a31.87,31.87,0,0,0-1.83-9.86c-1.29-3.11-3.68-5.92-6.89-6.91-3.8-1.17-30.26,1.4-39.49,2.48a18.72,18.72,0,0,0-5.3,1.25A13.5,13.5,0,0,0,364,366a15.35,15.35,0,0,0,8.25,15.67c5.38,2.6,11.69,1.77,17.6.88,10.5-1.58,21.05-3.18,31.17-6.43A7.18,7.18,0,0,0,423.79,374.73Z" transform="translate(-310.45 -102.01)"/><path class="cls-2" d="M429.26,383.27c1.77,4.89-.46,10.43-2.1,15.37-.86,2.6-11.6,13.38-28.14,20-13.13,5.23-22.9-2.25-27.51-5.33-5-3.34-9-14.65-7.63-20.54,1.59-6.93,5.54-10.76,12.32-12.91,11.16-3.52,16.43-1.14,25.37-2.38,7.05-1,16.19-4.45,22.75-1.73C426.84,376.8,428.33,380.71,429.26,383.27Z" transform="translate(-310.45 -102.01)"/><path class="cls-14" d="M389.44,414.13c-5.57,3.43-12.57-5.05-15.23-8.91a17.39,17.39,0,0,1-3.37-9.84c0-4.09,3.21-8.24,7.64-7.06a4,4,0,0,1,2.92,3.84c-.15,1.35-1.14,3.25-1.18,3.82-.11,1.92.89,4,1.71,5.71a26.41,26.41,0,0,0,7.51,9.32,1.83,1.83,0,0,1,0,3.12Z" transform="translate(-310.45 -102.01)"/><path class="cls-14" d="M398.31,410.14c-3.75.62-7-5.91-8.47-8.57-2.62-4.7-3.66-10.68,1.21-14.24,3.27-2.39,7.89,2.31,5.58,5.58-1.74,2.47.69,6.1,1.66,8.54.69,1.76,3.84,8.05,0,8.69Z" transform="translate(-310.45 -102.01)"/><path class="cls-14" d="M407,402.51c-1.3-1.91-1.56-4.55-2.1-6.76-.59-2.4-1.38-5.33-1.05-7.8.56-4.18,5.73-5.06,7.32-1,.92,2.37.9,5.27,1.13,7.79s.39,5.49-.84,7.76a2.62,2.62,0,0,1-4.46,0Z" transform="translate(-310.45 -102.01)"/><path class="cls-14" d="M418.75,397.13c-.6-2.06-.11-4.25-.41-6.37-.37-2.6-1.62-4.93-2.36-7.42s2.66-4.61,4.45-2.59c3.67,4.09,5.71,13.51.55,17.29a1.52,1.52,0,0,1-2.23-.91Z" transform="translate(-310.45 -102.01)"/><path class="cls-9" d="M373.13,375.57a1.13,1.13,0,0,1,0,2.25,1.13,1.13,0,0,1,0-2.25Z" transform="translate(-310.45 -102.01)"/><path class="cls-9" d="M368.06,371.19a.67.67,0,0,1,0,1.34.67.67,0,0,1,0-1.34Z" transform="translate(-310.45 -102.01)"/><path class="cls-9" d="M373.57,368.75a1.35,1.35,0,0,1,0,2.7,1.35,1.35,0,0,1,0-2.7Z" transform="translate(-310.45 -102.01)"/><path class="cls-9" d="M371.15,363.68a.92.92,0,0,1,0,1.83.92.92,0,0,1,0-1.83Z" transform="translate(-310.45 -102.01)"/><path class="cls-9" d="M378.4,364.05a.1.1,0,0,1,0,.21.1.1,0,0,1,0-.21Z" transform="translate(-310.45 -102.01)"/><path class="cls-9" d="M378.85,363.79a.81.81,0,0,1,0,1.62.81.81,0,0,1,0-1.62Z" transform="translate(-310.45 -102.01)"/><path class="cls-9" d="M379.5,374.74a.86.86,0,0,1,0,1.72.86.86,0,0,1,0-1.72Z" transform="translate(-310.45 -102.01)"/><path class="cls-9" d="M382.59,369.88a1.1,1.1,0,0,1,0,2.2,1.1,1.1,0,0,1,0-2.2Z" transform="translate(-310.45 -102.01)"/><path class="cls-9" d="M375.54,356.53a1.25,1.25,0,0,1,0,2.49,1.25,1.25,0,0,1,0-2.49Z" transform="translate(-310.45 -102.01)"/><path class="cls-9" d="M384.57,359.75a1.11,1.11,0,0,1,0,2.21,1.11,1.11,0,0,1,0-2.21Z" transform="translate(-310.45 -102.01)"/><path class="cls-9" d="M388.3,365.18a1,1,0,0,1,0,1.91,1,1,0,0,1,0-1.91Z" transform="translate(-310.45 -102.01)"/><path class="cls-9" d="M389.62,372.54a1.08,1.08,0,0,1,0,2.16,1.08,1.08,0,0,1,0-2.16Z" transform="translate(-310.45 -102.01)"/><path class="cls-9" d="M397.32,373.94a1,1,0,0,1,0,2,1,1,0,0,1,0-2Z" transform="translate(-310.45 -102.01)"/><path class="cls-9" d="M396.45,367.74a1,1,0,0,1,0,2.08,1,1,0,0,1,0-2.08Z" transform="translate(-310.45 -102.01)"/><path class="cls-9" d="M402.18,370.31a.67.67,0,0,1,0,1.33.67.67,0,0,1,0-1.33Z" transform="translate(-310.45 -102.01)"/><path class="cls-9" d="M394.69,360.81a1.15,1.15,0,0,1,0,2.29,1.15,1.15,0,0,1,0-2.29Z" transform="translate(-310.45 -102.01)"/><path class="cls-9" d="M390.73,355.28a.73.73,0,0,1,0,1.46.73.73,0,0,1,0-1.46Z" transform="translate(-310.45 -102.01)"/><path class="cls-9" d="M381.56,354.77l.11-.11a1,1,0,1,1,0,1.39l-.11-.11a.82.82,0,0,1,0-1.17Z" transform="translate(-310.45 -102.01)"/><path class="cls-9" d="M401.73,361.4a1,1,0,0,1,0,2,1,1,0,0,1,0-2Z" transform="translate(-310.45 -102.01)"/><path class="cls-9" d="M399.75,354.94a.86.86,0,0,1,0,1.71.86.86,0,0,1,0-1.71Z" transform="translate(-310.45 -102.01)"/><path class="cls-7" d="M523.59,307.84a3.61,3.61,0,0,0-1.45-.85,2.06,2.06,0,0,0-2.31.94,2.1,2.1,0,0,0,.73,2.79,2.66,2.66,0,0,0,1.08.46c1.83.35,3.54-1.9,2-3.34Z" transform="translate(-310.45 -102.01)"/><path class="cls-7" d="M422.75,415.7a1.25,1.25,0,0,0,0,2.5,1.25,1.25,0,0,0,0-2.5Z" transform="translate(-310.45 -102.01)"/><path class="cls-7" d="M462.5,387.75a1.13,1.13,0,0,0,0,2.25,1.13,1.13,0,0,0,0-2.25Z" transform="translate(-310.45 -102.01)"/><path class="cls-7" d="M503.55,332.06a1.77,1.77,0,0,0,0,3.54,1.77,1.77,0,0,0,0-3.54Z" transform="translate(-310.45 -102.01)"/><path class="cls-7" d="M461.26,415.08a1.77,1.77,0,0,0,0,3.54,1.77,1.77,0,0,0,0-3.54Z" transform="translate(-310.45 -102.01)"/><path class="cls-7" d="M521.68,340.51a2.54,2.54,0,0,0,.56-.7c1-2.11-1.94-3.9-3.17-1.85l-.08.13.67-.66-.23.17a1.85,1.85,0,1,0,2.25,2.91Z" transform="translate(-310.45 -102.01)"/><path class="cls-7" d="M510.33,318.79a1.88,1.88,0,0,0,0,3.75,1.88,1.88,0,0,0,0-3.75Z" transform="translate(-310.45 -102.01)"/><path class="cls-7" d="M543.71,293.61a3.15,3.15,0,0,0,1.43-.73c1.53-1.21-.43-3.51-2-2.62l.15,0c-2.49,0-2,3.85.45,3.39Z" transform="translate(-310.45 -102.01)"/><path class="cls-7" d="M506.61,300.16l-.09-.17a1.72,1.72,0,0,0-3,0,.7.7,0,0,1-.09.17,1.82,1.82,0,1,0,3.14,0Z" transform="translate(-310.45 -102.01)"/><path class="cls-7" d="M355.37,199.49c0,.83-.33,2-.33,2.86a23.68,23.68,0,0,0,.09,2.53,11.59,11.59,0,0,0,3.5,7.53c-1.94.12-6.83.12-8.78,0a11.44,11.44,0,0,0,3.49-7.53,21.32,21.32,0,0,0,.1-2.53c0-.84-.33-2-.33-2.86Z" transform="translate(-310.45 -102.01)"/><path class="cls-7" d="M354.79,201.57c.82.13,1.28.91,2.77,2.52,1.35,1.46,2.68,3,5.73,3.39a5.43,5.43,0,0,0,4.53-1.89,10.1,10.1,0,0,0,1.57-3.62,9.26,9.26,0,0,0-.78-7,4.89,4.89,0,0,0-6.32-2c-1,.63-1.39,1.39-2.35,1.57a.42.42,0,0,1-.47-.52c.39-1.47,1.42-1.64,1.91-3.39.57-2.07.9-3.68-2.06-6.28-2.26-2-7.75-1.8-10.13,0S346.53,188,347.1,190c.46,1.63,1.39,2.37,1.83,3.76a.58.58,0,0,1-.75.73c-.71-.28-1.09-.92-2-1.46a4.88,4.88,0,0,0-6.31,2,9.31,9.31,0,0,0-.79,7,10.47,10.47,0,0,0,1.57,3.62,5.44,5.44,0,0,0,4.55,1.89c3-.37,4.37-1.93,5.72-3.39,1.48-1.61,1.95-2.39,2.77-2.52Z" transform="translate(-310.45 -102.01)"/><path class="cls-7" d="M375.61,174.44h-6.52l-14.25-26.3-10.9,13.61v12.69h-6V126.83h6v27.61l21.55-27.61h6.43L359,143.48Z" transform="translate(-310.45 -102.01)"/><path class="cls-7" d="M604.54,520.46c0-.84.34-2,.34-2.87a21.42,21.42,0,0,0-.11-2.53,11.51,11.51,0,0,0-3.49-7.53c2-.11,6.84-.11,8.78,0a11.55,11.55,0,0,0-3.49,7.53,21.41,21.41,0,0,0-.1,2.53c0,.84.34,2,.34,2.87Z" transform="translate(-310.45 -102.01)"/><path class="cls-7" d="M605.13,518.37c-.82-.12-1.29-.91-2.77-2.53-1.35-1.45-2.69-3-5.73-3.38a5.46,5.46,0,0,0-4.54,1.89,10.66,10.66,0,0,0-1.57,3.62,9.34,9.34,0,0,0,.79,7c1.17,2.17,4.35,3.13,6.31,1.95,1-.62,1.4-1.39,2.36-1.57a.42.42,0,0,1,.47.52c-.39,1.47-1.42,1.65-1.91,3.4-.58,2.07-.9,3.67,2.05,6.27,2.27,2,7.77,1.8,10.14,0s2.65-3.51,2.08-5.59c-.46-1.63-1.39-2.37-1.82-3.75a.59.59,0,0,1,.76-.74c.69.28,1.07.93,2,1.46,2,1.18,5.14.22,6.31-1.95a9.29,9.29,0,0,0,.78-7,10.45,10.45,0,0,0-1.56-3.62,5.49,5.49,0,0,0-4.54-1.89c-3.05.38-4.38,1.93-5.72,3.38-1.5,1.62-2,2.41-2.79,2.53Z" transform="translate(-310.45 -102.01)"/><path class="cls-7" d="M584.31,545.5h6.51l14.25,26.3L616,558.2V545.5h6v47.61h-6v-27.6l-21.56,27.6H588l12.9-16.65Z" transform="translate(-310.45 -102.01)"/><path class="cls-2" d="M396.06,591.64H361c-13.06,0-24.1-12.1-24.1-26.43V231.72a.77.77,0,0,1,.78-.77.79.79,0,0,1,.78.77V565.21c0,13.49,10.31,24.88,22.54,24.88h35.08a.78.78,0,1,1,0,1.55Z" transform="translate(-310.45 -102.01)"/><path class="cls-2" d="M582,591.64H561.89a.78.78,0,0,1,0-1.55H582a.78.78,0,0,1,0,1.55Z" transform="translate(-310.45 -102.01)"/><path class="cls-2" d="M622.26,490.63a.77.77,0,0,1-.77-.77V154.73c0-13.72-10.47-24.88-23.33-24.88H564.38a.77.77,0,0,1-.78-.77.78.78,0,0,1,.78-.78h33.78c13.72,0,24.88,11.86,24.88,26.43V489.86A.79.79,0,0,1,622.26,490.63Z" transform="translate(-310.45 -102.01)"/><path class="cls-2" d="M398.36,129.85H380.41a.77.77,0,0,1-.78-.77.78.78,0,0,1,.78-.78h17.95a.77.77,0,0,1,.77.78A.76.76,0,0,1,398.36,129.85Z" transform="translate(-310.45 -102.01)"/></g></svg>