<svg xmlns="http://www.w3.org/2000/svg" xmlns:xlink="http://www.w3.org/1999/xlink" viewBox="0 0 339.03 515.91"><defs><style>.cls-1{fill:none;}.cls-2{fill:#fff;}.cls-3{fill:#2d2d2d;}.cls-4{fill:#fcc07e;}.cls-5{fill:#191956;}.cls-6{fill:#0c0a35;}.cls-7{fill:#b70027;}.cls-8{clip-path:url(#clip-path);}.cls-9{fill:#222272;}.cls-10{fill:#ffd6a1;}.cls-11{fill:#f70032;}.cls-12{clip-path:url(#clip-path-2);}.cls-13{fill:#990028;}.cls-14{clip-path:url(#clip-path-3);}.cls-15{clip-path:url(#clip-path-4);}</style><clipPath id="clip-path" transform="translate(-310.45 -102.01)"><path class="cls-1" d="M523.75,567.89c9.32-9.53,9.71-59.91,9.75-61.19.25-6.06-5.09-38.58-2.66-44.35,2-4.62,6.55-6.79,9.26-11s3.53-9.81,1.42-14.38c-1.81-3.95-5.57-6.73-9.62-8.31-10.17-3.95-20.66-2.51-30.24,2.68a37,37,0,0,0-5.69,4.63,14.21,14.21,0,0,0-3.24,4.84c-1.65,4-1.77,8.37-1.57,12.65.63,13.54,4.16,26.76,7.68,39.86A42.21,42.21,0,0,0,502.78,504C507.49,511.9,495.22,573.06,523.75,567.89Z"/></clipPath><clipPath id="clip-path-2" transform="translate(-310.45 -102.01)"><path class="cls-1" d="M517.28,576.23a20.51,20.51,0,0,0,8.36-12.79,41,41,0,0,0,.15-10.79c-2.87-1-5.27-.75-8.3-.5a289.67,289.67,0,0,1-50.24-.14c3.66-23.45-1.31-47.33-1.15-71.06.09-15.29,1.4-22.58-2.5-37.37-3.55-13.45-11.09-14-20.7-13.89-9.07.14-19,1.75-25.86,7.69s-8.47,18.38-5,26.77c2.7,6.56,9.32,10.81,16.15,12.76,1.66.48,3.53,1,4.42,2.43a6.45,6.45,0,0,1,.68,3q1.47,25.92,3,51.83a80.46,80.46,0,0,0,4.16,21c2.3,7.26,8.65,11.8,15.3,15.52,6.11,3.42,10.47,7.71,17.46,8l25.56,1.25a36,36,0,0,0,10.57-.52Z"/></clipPath><clipPath id="clip-path-3" transform="translate(-310.45 -102.01)"><path class="cls-1" d="M438.31,153.71c-9.31,9.53-9.71,59.9-9.75,61.19-.24,6.06,5.1,38.58,2.66,44.34-2,4.63-6.55,6.8-9.25,11s-3.53,9.81-1.43,14.38c1.83,3.94,5.57,6.73,9.63,8.3,10.15,4,20.65,2.52,30.24-2.68a37.38,37.38,0,0,0,5.68-4.62,14.21,14.21,0,0,0,3.24-4.84c1.65-3.95,1.78-8.37,1.58-12.65-.63-13.55-4.16-26.76-7.68-39.86-1-3.67-2-7.4-3.94-10.67C454.58,209.69,466.84,148.53,438.31,153.71Z"/></clipPath><clipPath id="clip-path-4" transform="translate(-310.45 -102.01)"><path class="cls-1" d="M444.79,145.37a20.53,20.53,0,0,0-8.37,12.79,40.93,40.93,0,0,0-.15,10.78c2.87,1,5.27.76,8.31.5a290.44,290.44,0,0,1,50.22.15c-3.65,23.45,1.32,47.32,1.17,71.06-.09,15.29-1.4,22.57,2.49,37.36,3.56,13.45,11.1,14.05,20.7,13.9,9.07-.14,19-1.75,25.87-7.69s8.46-18.38,5-26.77c-2.7-6.57-9.32-10.81-16.15-12.77-1.66-.47-3.52-1-4.41-2.43a6.27,6.27,0,0,1-.68-3q-1.49-25.92-3-51.83a81,81,0,0,0-4.15-21c-2.31-7.26-8.65-11.8-15.3-15.52-6.1-3.41-10.48-7.7-17.47-8l-25.55-1.25c-3.55-.17-7.14-.33-10.57.53Z"/></clipPath></defs><g id="Layer_1" data-name="Layer 1"><path class="cls-2" d="M620.13,617.15H339.79a28.57,28.57,0,0,1-28.57-28.57V131.35a28.57,28.57,0,0,1,28.57-28.57H620.13a28.57,28.57,0,0,1,28.57,28.57V588.58A28.57,28.57,0,0,1,620.13,617.15Z" transform="translate(-310.45 -102.01)"/><path class="cls-3" d="M620.13,617.93H339.79a29.38,29.38,0,0,1-29.34-29.35V131.36A29.38,29.38,0,0,1,339.79,102H620.13a29.39,29.39,0,0,1,29.35,29.35V588.58A29.39,29.39,0,0,1,620.13,617.93ZM339.79,103.56a27.83,27.83,0,0,0-27.8,27.8V588.58a27.84,27.84,0,0,0,27.8,27.81H620.13a27.84,27.84,0,0,0,27.8-27.81V131.36a27.83,27.83,0,0,0-27.8-27.8Z" transform="translate(-310.45 -102.01)"/><path class="cls-4" d="M572.64,418.62a17.23,17.23,0,0,1-2,7.8c-1.9,3.2-5.35,5.48-8.93,7.24-13.55,6.72-29.79,7.6-45.3,6.92-4.91-.21-10.54-.33-13.92,2.83-2.15,2-2.83,4.9-3.2,7.64a55.63,55.63,0,0,0,.29,17.23,5.49,5.49,0,0,1-.12,3.52c-.6,1.18-2,1.86-3.25,2.46-8.75,4.07-27,19.76-36.15,23.12-1.52-10.34,5.9-33.34-2.07-41-8.91-8.6-23.06-10.78-36.11-12.54S394.62,439.72,385.9,431c-5.37-5.41-7.91-12.65-8.55-19.82s.44-14.36,1.53-21.49a5,5,0,0,1,1.25-3.07c1.26-1.17,3.36-1.07,5.19-1,8.4.5,16.81-.67,25.14-1.67,24.83-3,50.12-4.62,74.88-1.2,8.24,1.14,16.37,2.83,24.6,4a170.59,170.59,0,0,0,36.62,1.43c5.31-.39,10.86-1.05,15.83.66s9,6.74,6.93,11.09A40.61,40.61,0,0,1,572.64,418.62Z" transform="translate(-310.45 -102.01)"/><path class="cls-4" d="M389.43,303a17.07,17.07,0,0,1,2-7.8c1.9-3.2,5.34-5.48,8.92-7.25,13.55-6.71,29.79-7.59,45.3-6.92,4.92.22,10.54.34,13.92-2.82,2.15-2,2.83-4.9,3.21-7.64a55.94,55.94,0,0,0-.3-17.23,5.67,5.67,0,0,1,.12-3.53,6.59,6.59,0,0,1,3.25-2.45c8.76-4.08,27-19.76,36.15-23.13,1.53,10.34-5.9,33.35,2.07,41,8.92,8.61,23.07,10.79,36.12,12.54s27.21,4.09,35.93,12.84c5.38,5.4,7.91,12.65,8.56,19.82s-.44,14.36-1.53,21.49a5,5,0,0,1-1.25,3.07c-1.27,1.16-3.36,1.07-5.19,1-8.41-.5-16.8.66-25.14,1.66-24.83,3-50.13,4.63-74.88,1.21-8.24-1.14-16.38-2.83-24.61-4a171.12,171.12,0,0,0-36.61-1.42c-5.32.39-10.86,1-15.84-.66s-9-6.75-6.92-11.1A40.42,40.42,0,0,1,389.43,303Z" transform="translate(-310.45 -102.01)"/><path class="cls-5" d="M561.67,309.45c3,.17,21.77-7.33,23.65-.42,2.82,10.31-4.57,28.2-1.67,36.84,2.41,7.18-11,17.52-10.5,25,1,14.63,4.53,43.73-1.17,44.05s-20-1.82-25.7-2c-54.29-2.1-86.55-1.19-134.28-3.28-8.88-.39-21.08,1.56-21.37,1.6-4.49.67-16.88,9.48-18-1.26-1.08-10.31-.7-30.78.15-41.12.57-7,1.15-13.95,2-20.9a256.25,256.25,0,0,1,7-35.4,8.57,8.57,0,0,1,1.59-3.55,10.28,10.28,0,0,1,4.33-2.52c23.76-8.74,50.61-6.71,76.22-4.51,9.26.78,18.56,1.58,27.52,3.74C497.85,307.19,548.76,308.7,561.67,309.45Z" transform="translate(-310.45 -102.01)"/><path class="cls-6" d="M523.75,567.89c9.32-9.53,9.71-59.91,9.75-61.19.25-6.06-5.09-38.58-2.66-44.35,2-4.62,6.55-6.79,9.26-11s3.53-9.81,1.42-14.38c-1.81-3.95-5.57-6.73-9.62-8.31-10.17-3.95-20.66-2.51-30.24,2.68a37,37,0,0,0-5.69,4.63,14.21,14.21,0,0,0-3.24,4.84c-1.65,4-1.77,8.37-1.57,12.65.63,13.54,4.16,26.76,7.68,39.86A42.21,42.21,0,0,0,502.78,504C507.49,511.9,495.22,573.06,523.75,567.89Z" transform="translate(-310.45 -102.01)"/><path class="cls-6" d="M373,415.8a6.08,6.08,0,0,1,0-4,6.56,6.56,0,0,1,3.2-2.6c26.31-13.25,43.64-28.54,66.27-47.4,10.89-9.07,78-66.28,98.94-82.63A11.8,11.8,0,0,1,545,277c2-.63,4.11-.2,6.15.24,8,1.74,16.26,3.55,23.27,7.88s11.72,11.75,10.89,23.89c-23.44,11.73-57.39,45.3-93.78,69.5-8.11,5.39-61.23,49.47-75,67a7.57,7.57,0,0,1-2.66,2.47c-1.54.69-7.45.58-9.06,0C391.58,443.62,376.36,429.4,373,415.8Z" transform="translate(-310.45 -102.01)"/><path class="cls-7" d="M518.47,540.39c9.87-7.06,18.83-29.59,4.15-36.85a.84.84,0,0,0-1.14,1.14c3.77,6.17,6.1,10.9,4.85,18.38-1,6-4.51,12-8.47,16.54-.36.41.11,1.14.61.79Z" transform="translate(-310.45 -102.01)"/><path class="cls-7" d="M522.26,504.12a25.86,25.86,0,0,0-3.79-7.08c-1.59-2.13-3.33-5-5.84-6.12a.83.83,0,0,0-1.2.92c.58,2.43,2.78,4.32,4.36,6.15,1.9,2.18,3.8,4.38,5.6,6.64.33.41,1,0,.87-.51Z" transform="translate(-310.45 -102.01)"/><path class="cls-7" d="M514.86,535.54c10-3.27,10.27-19.13.87-23.32a.8.8,0,0,0-1.09,1.09c1.73,3,4.19,5.18,5,8.67,1,4.28-1.42,10.26-5.32,12.26a.72.72,0,0,0,.56,1.3Z" transform="translate(-310.45 -102.01)"/><g class="cls-8"><path class="cls-7" d="M527.91,572.45a32.14,32.14,0,0,1-4.35-23.33c1.47-7.71,9.26-12,12.18-19,5.82-13.93,1.25-27.17-7.17-39-5.13-7.21-6.69-16.76-6.72-25.4,0-7.41,3-14.64,2.93-22.18,0-5.3-2.7-10.21-5.78-14.32-2.18-2.91-4.62-5.31-6.66-8.39-2.24-3.4-2.49-7.63-4.21-11.26-.45-.92-2-.27-1.65.7,1.9,6,2.79,11,6.28,16.42,1.87,2.9,4.38,5.31,6.2,8.27,3.36,5.49,2.73,11.91,1.82,17.93-2.18,14.44-3,26.84,4.92,39.91,5.24,8.59,9.44,15.89,9.71,26.32.26,10.17-8.6,16.77-13.14,24.84-5,9-1.5,21.85,5.34,28.72a.19.19,0,0,0,.3-.23Z" transform="translate(-310.45 -102.01)"/><path class="cls-7" d="M533.24,566.05c-6-2.68-5.23-8.58-2.21-13.28,2.33-3.63,7-6.48,8-10.81a.9.9,0,0,0-1.3-1c-4.77,2.42-11.62,10.25-12.21,15.83-.51,4.75,2.15,10.25,7.56,9.88.29,0,.5-.48.17-.63Z" transform="translate(-310.45 -102.01)"/><path class="cls-7" d="M544.26,495c-.38-1.29-1.4-2-2.41-2.82-2.87-2.41-4.1-5.08-6.11-8.14-6.17-9.4-6.5-18.85-.81-28.74,7.08-12.28,4.86-29.9-8.28-36.76-.77-.39-1.74.44-1.23,1.24,2.84,4.51,6.87,7.05,8.78,12.43,1.81,5.12,1.13,12-.25,17.09-1.54,5.73-5.43,9.77-6.2,16-.72,5.84-.72,12.34,3.16,17.2,2.11,2.64,3.65,6.32,5.88,8.74,1.82,2,4.72,2.49,6.51,4.35a.58.58,0,0,0,1-.55Z" transform="translate(-310.45 -102.01)"/><path class="cls-7" d="M511.05,481.65c-.07-8-1.62-14.5,2.24-22.07,2-3.94,4.07-9.27,4-13.71-.25-9.56-7.89-17.1-15.54-22-.57-.36-1.34.38-.95,1a72.5,72.5,0,0,0,7,8.13c5.58,6,5.84,12.76,3.91,20.45-1.07,4.2-3.6,7.59-4.5,11.85-1.07,5.09,1.57,11.53,2.21,16.43.13,1,1.64,1.08,1.63,0Z" transform="translate(-310.45 -102.01)"/><path class="cls-7" d="M503.16,471.2c-1.5-6.64-.92-11.81,1.29-18.12a19.75,19.75,0,0,0,.91-10.41c-1.47-6.51-5.1-12.74-11.43-15.48a.67.67,0,0,0-.8,1.06c6.84,7.26,11.84,13.67,9.16,24.24-1.84,7.22-2.75,11.83-1,19.21.29,1.18,2.09.68,1.83-.5Z" transform="translate(-310.45 -102.01)"/><path class="cls-7" d="M497.23,471.58c-2.56-8.86,2.76-18.76.23-28-1.57-5.7-5.81-12.43-12.29-12.6a1,1,0,0,0-.49,1.84c8.62,5.72,10.49,14.43,10.08,24.19-.16,3.82-1.58,12,1.95,14.87a.32.32,0,0,0,.52-.31Z" transform="translate(-310.45 -102.01)"/></g><path class="cls-9" d="M450.32,581.31c.06.58-.8.7-1.36.57a52.83,52.83,0,0,1-6.74-2,36.92,36.92,0,0,1-15.28-10.24c-7.2-8.54-8.73-20.43-9.1-31.59a164.78,164.78,0,0,0-5.24-35.75c-.15-2.81,20.6-2.83,24.43-2.55,1.11,16.62,2.23,33.27,4.89,49.71.77,4.7,1.68,9.45,3.78,13.72s5.59,8.07,10.1,9.58a15.2,15.2,0,0,1-7.93,9.69Z" transform="translate(-310.45 -102.01)"/><path class="cls-10" d="M514.16,561.27c6.87-8.93,8.21-21.56,4.2-32.08a7.86,7.86,0,0,1-.82-3.52c.23-2.52,9.7-12.66,12.08-16.68a5.52,5.52,0,0,0,1-2.56c0-2.26-2.47-3.71-4.7-4s-4.68-.15-6.58-1.37c-3.13-2-3.06-6.51-2.93-10.22.3-8.65-1.37-18-7.61-24-6.59-6.32-17.18-7.32-25.6-3.77s-14.75,11-18.63,19.24a78.25,78.25,0,0,0-3.74,9.94,151.72,151.72,0,0,0-6.56,35.41,59.21,59.21,0,0,0,.92,17.23c1.31,5.63,4.08,11,8.53,14.73a30.17,30.17,0,0,0,8.28,4.62,52.82,52.82,0,0,0,33.84,1.42c3.65-1.08,7.33-2.66,9.81-5.55Z" transform="translate(-310.45 -102.01)"/><path class="cls-6" d="M517.28,576.23a20.51,20.51,0,0,0,8.36-12.79,41,41,0,0,0,.15-10.79c-2.87-1-5.27-.75-8.3-.5a289.67,289.67,0,0,1-50.24-.14c3.66-23.45-1.31-47.33-1.15-71.06.09-15.29,1.4-22.58-2.5-37.37-3.55-13.45-11.09-14-20.7-13.89-9.07.14-19,1.75-25.86,7.69s-8.47,18.38-5,26.77c2.7,6.56,9.32,10.81,16.15,12.76,1.66.48,3.53,1,4.42,2.43a6.45,6.45,0,0,1,.68,3q1.47,25.92,3,51.83a80.46,80.46,0,0,0,4.16,21c2.3,7.26,8.65,11.8,15.3,15.52,6.11,3.42,10.47,7.71,17.46,8l25.56,1.25a36,36,0,0,0,10.57-.52Z" transform="translate(-310.45 -102.01)"/><path class="cls-11" d="M519,481.91a2.59,2.59,0,0,0-.2-1.78c-.31-.5-2.6-3.73-6.26-1.9-.79.4-3.25,2-4,2.46-5.91,3.39-8.43,4.43-12.59,5.7a25.49,25.49,0,0,1,11,3.16,53.36,53.36,0,0,0,6,3.14c2.24.94,5.24.78,6.61-1.23a2,2,0,0,0,.46-1.1c-.05-3.32-2.23-4-3-4.8C516.66,485.26,518.66,483.86,519,481.91Z" transform="translate(-310.45 -102.01)"/><path class="cls-6" d="M474.64,544.73c7.23,6.72,22.41,6.43,29.76-.19a.85.85,0,0,0-.6-1.43c-4.62.38-8.91,2.54-13.57,3.13-5.26.68-10.23-.47-15.13-2.31-.45-.18-.81.49-.46.8Z" transform="translate(-310.45 -102.01)"/><path class="cls-6" d="M499.64,531.35c.72,1.07,1.27,2.24,1.94,3.33.53.84,1.26,2.07,2.38,1.85a.6.6,0,0,0,.43-.56,1.23,1.23,0,0,0-.46-1.08,7,7,0,0,1-1-1.39c-.59-1-1-2.12-1.66-3.12s-2.36-.06-1.67,1Z" transform="translate(-310.45 -102.01)"/><path class="cls-6" d="M489.61,530.74c-1.13,1.52-1,3.8-1.62,5.57-.49,1.44-1,3.9.3,5a.62.62,0,0,0,.86,0c1.05-1,1.16-3.28,1.2-4.64a33.41,33.41,0,0,0-.28-5.83c0-.24-.34-.21-.46-.06Z" transform="translate(-310.45 -102.01)"/><path class="cls-6" d="M493.46,530.92c-.59,1.6-.1,3.12.48,4.64.32.83.68,1.64,1,2.49s.37,1.33,1.09,1.67a.53.53,0,0,0,.61-.07c1.08-.88.35-2.62.05-3.73a19.38,19.38,0,0,0-2.1-5.14.62.62,0,0,0-1.11.14Z" transform="translate(-310.45 -102.01)"/><path class="cls-6" d="M480.08,529.38c-2.84,0-7.53,1.91-8,5.13a.49.49,0,0,0,.6.59,7.93,7.93,0,0,0,3.34-2,39.41,39.41,0,0,1,4.25-3,.38.38,0,0,0-.18-.7Z" transform="translate(-310.45 -102.01)"/><path class="cls-6" d="M483.67,531.69c-2.12,1.33-4.5,4.07-4.45,6.71a.65.65,0,0,0,.8.61c2.81-.73,3.63-4.5,4.15-7a.34.34,0,0,0-.5-.37Z" transform="translate(-310.45 -102.01)"/><path class="cls-6" d="M489.43,528.94a11.06,11.06,0,0,0,.67-4.49c-.08-1.22,0-2.9-.93-3.79a.64.64,0,0,0-.89,0c-1,1-.58,2.51-.41,3.79.2,1.52.74,3,1,4.49.06.29.45.24.53,0Z" transform="translate(-310.45 -102.01)"/><path class="cls-6" d="M494.22,528.38c.42-1.18.77-2.37,1.14-3.55s.75-2.41.11-3.37a.64.64,0,0,0-.85-.23c-1.07.6-1.18,1.9-1.44,3a13,13,0,0,0-.23,4,.65.65,0,0,0,1.27.18Z" transform="translate(-310.45 -102.01)"/><path class="cls-6" d="M499,528.55a13.39,13.39,0,0,0,2.14-3c.55-1,1.43-1.89,1.53-3.08a.46.46,0,0,0-.47-.46c-1.3.13-1.89,1.25-2.45,2.32-.65,1.23-1,2.5-1.56,3.77-.18.47.49.8.81.48Z" transform="translate(-310.45 -102.01)"/><path class="cls-6" d="M483.76,529.33c2.32-1.16.18-8.45-2.25-7-1.36.8.1,3.28.52,4.25.18.42.89,3.2,1.73,2.78Z" transform="translate(-310.45 -102.01)"/><path class="cls-6" d="M479.86,529.76a10,10,0,0,0-.48-3.3,4.15,4.15,0,0,0-2.32-2.59,1.06,1.06,0,0,0-1,.27c-.88.88.32,2.12.9,2.76s.77,1.07,1.18,1.58.92.94,1.36,1.44a.23.23,0,0,0,.39-.16Z" transform="translate(-310.45 -102.01)"/><path class="cls-2" d="M507.42,528.94a28.83,28.83,0,0,1-35.1.84c2.43-1.75,5.47-2.36,8.4-2.93a58.46,58.46,0,0,1,8.74-1.08,43.05,43.05,0,0,1,10.5.88A26.12,26.12,0,0,1,507.42,528.94Z" transform="translate(-310.45 -102.01)"/><path class="cls-6" d="M489.61,526.4a3.58,3.58,0,1,0,3.58,3.58,3.62,3.62,0,0,0-3.58-3.58Z" transform="translate(-310.45 -102.01)"/><g class="cls-12"><path class="cls-7" d="M514.75,582.24c5.43-3.21,7.36-8.06,6.65-14.24a19.1,19.1,0,0,0-2.94-7.7c-5-8.21-2-13.43,1.13-21.3a.67.67,0,0,0-1-.76c-6,4.34-7.07,10.58-6.34,17.64.33,3.23,2.42,5.08,4.06,7.67,3.51,5.51,2.52,13.62-2.16,17.94a.48.48,0,0,0,.58.75Z" transform="translate(-310.45 -102.01)"/><path class="cls-7" d="M506.76,584.82c3.13-3.41,5.74-8.91,4.44-13.67-1-3.48-2.71-6.22-4.56-9.32-4.8-8.09.56-14.75,2.51-22.29a1,1,0,0,0-1.59-.91c-4.69,4.83-6.41,11.32-6.13,18,.15,3.33,2,6.49,3.68,9.24,3.44,5.71,4.26,12.42,1,18.46-.22.41.32.87.66.51Z" transform="translate(-310.45 -102.01)"/><path class="cls-7" d="M496.94,581.78c3.6-5.48,3.1-10.37.94-16.41-1.21-3.37-3.48-6.35-4.82-9.69-2.41-6.06,2.2-11.85,3.16-17.71a.89.89,0,0,0-1.47-.86,19.71,19.71,0,0,0-6.37,16.63c.82,10.53,12.37,16,8.06,27.83-.11.3.34.45.5.21Z" transform="translate(-310.45 -102.01)"/><path class="cls-7" d="M490,582.68c2-5.9-.19-10-3.65-14.86-3.17-4.46-4.77-8.12-5-13.69-.27-5.9,3.26-10.28,4.22-15.74a.8.8,0,0,0-1.17-.89c-6.64,3-7.2,12.75-6.82,19.09.6,10.23,11.93,15.95,11.29,25.93,0,.7.95.76,1.15.16Z" transform="translate(-310.45 -102.01)"/><path class="cls-7" d="M481.7,584.52c.72-8-2.57-13.44-8-19-9.68-9.91.87-20.9,2.12-31.36a.88.88,0,0,0-1.49-.62c-5.49,6.17-8.65,15.68-8.47,23.86a14.82,14.82,0,0,0,3.42,8.79c5.28,5.86,10.35,10,11.82,18.38.05.35.54.23.57-.08Z" transform="translate(-310.45 -102.01)"/><path class="cls-7" d="M474.38,581.72c-1.22-4.64-5.76-8.22-8.15-12.3-5.7-9.75-8-19.8-5.44-30.86,1.89-8.1,6.38-15.23,8.06-23.42,1.38-6.73-1.64-12.7-3.76-18.88-2.66-7.74-6.48-16.15-7.33-24.31s4.18-15.79,6.93-23c3.81-10.05,1.27-22.26-6.54-29.6-.53-.51-1.49.16-1,.81,10.28,15.51,4,27.49-1.06,43.2-4,12.67,4.1,28.28,8.83,39.72,6.37,15.43-7.77,31.35-8,47.22-.08,6.35,2.63,12.47,5.28,18.1,2.92,6.22,7.65,8.48,11.23,13.77a.53.53,0,0,0,1-.41Z" transform="translate(-310.45 -102.01)"/><path class="cls-7" d="M477.6,493c-5.52-5.48-9.77-11.55-10.67-19.45-.72-6.41,2.18-12.58,2.23-18.94a.84.84,0,0,0-1.56-.43c-9.34,14.62-3.9,30.18,8.75,40.07.87.68,2.08-.42,1.25-1.25Z" transform="translate(-310.45 -102.01)"/><path class="cls-7" d="M458.74,579.41c-4.12-5.39-7-10.09-8.45-16.81-2-9.29,1-18.76,4-27.52,3.93-11.79,10.34-21.74,4.14-34.38-3.19-6.51-7.06-12-9-19.13-2.85-10.54-.46-19.17,3.68-28.93,4.54-10.69,6.15-22.76-2.09-31.93-.57-.63-1.8,0-1.48.86,3.25,8.2,4.38,15.24,2.14,23.93-1.77,6.87-6.37,13.09-7.07,20.25a55.37,55.37,0,0,0,1.81,19.51c1.85,7.21,6.53,12.8,9.1,19.64,5.75,15.29-8.12,31.27-9.22,46.67-.75,10.5,1.62,23.5,11.84,28.47.37.18.95-.23.63-.63Z" transform="translate(-310.45 -102.01)"/><path class="cls-7" d="M441.49,569.22c-.05-7.94-2.32-14.76-.46-22.87,1.79-7.87,5-15.19,7.42-22.85,5-15.51-2.62-27.39-7.82-41.6-3-8.19-4.5-15.91-1.67-24.42,2.41-7.25,6.76-13.13,8.44-20.71,2.69-12.11-4.58-19.67-13.76-25.72-1-.66-2.05.59-1.55,1.55,2.9,5.54,8.05,8.4,10.37,14.64,3.25,8.74-3.1,18.39-6.65,25.94-5.22,11.08-2.64,21.76,1.56,32.68,2.56,6.7,6.29,12.9,8.48,19.74,2.78,8.68-.15,17.46-3.13,25.58a148.22,148.22,0,0,0-6.11,20.2c-1.36,6.45,1.87,12,3.6,18a.65.65,0,0,0,1.28-.18Z" transform="translate(-310.45 -102.01)"/><path class="cls-7" d="M431,538.59c6.63-8,9.21-17.55,8.1-27.8-.89-8.27-3.71-18.94-12.37-22a1.28,1.28,0,0,0-1.44,1.87c9.31,13.48,14.82,32,4.33,46.81-.58.81.74,1.83,1.38,1.07Z" transform="translate(-310.45 -102.01)"/><path class="cls-7" d="M431.85,480.43c-5.49-8.44-7.28-16.38-3.17-25.95,2.92-6.82,6.74-12.15,8.05-19.63,1.77-10-7.4-18-16.23-20.09a1.08,1.08,0,0,0-1,1.79c4.64,4.4,10.59,7,12.73,13.53,2.68,8.17-5.58,17.88-8.58,25.05-3.9,9.34-1.57,20.93,7.36,26.19a.65.65,0,0,0,.88-.89Z" transform="translate(-310.45 -102.01)"/><path class="cls-7" d="M421.75,477.49c-4.95-9.43-6.11-18.21-1.63-28.12,2.25-5,4.38-8.89,4.49-14.44.17-7.76-7.52-15.5-14.82-16.32-.68-.08-.91.83-.52,1.25,4,4.27,8.31,6.89,10.69,12.61,2.84,6.84-3.49,14.73-5.58,21.07-2.93,8.93.67,17.69,6.07,24.72a.76.76,0,0,0,1.3-.77Z" transform="translate(-310.45 -102.01)"/></g><path class="cls-5" d="M523.31,596.13a56.34,56.34,0,0,1,1.82,7,.87.87,0,0,1-1.09.92c-1.28-.34-10.7-8.08-14.56-10.7a1.2,1.2,0,0,0-1.79.5c-2.34,5.58-3.88,12.37-5.07,18.38a.88.88,0,0,1-1.58.33c-3.63-5.24-7.88-10.66-10.49-16.49a.46.46,0,0,0-.86,0,161.05,161.05,0,0,1-8.1,17.74,1.21,1.21,0,0,1-2.16-.07c-2.66-5.94-3.08-11.57-5.19-17.79-.26-.74-.65-1.58-1.42-1.71s-1.49.59-1.93,1.29c-1.55,2.4-7.51,13.45-10.51,16.19a1.46,1.46,0,0,1-2.4-.7c-1.64-6.8-1-18.41-3.11-19.8-1.33-.89-11.82,11.52-16.46,11.52-.2,0-.22-.13-.33-.3-1.24-1.76,2.15-14,3.78-21.87.25-1.13,3.09-18.1,3.84-17.46,3.85,3.25,11.09,7,20.26,9.34,18.53,4.78,29.3,4.42,48.33,2.39a4.08,4.08,0,0,1,2.7.33,3.82,3.82,0,0,1,1.17,1.61C519.62,580,520.8,586.67,523.31,596.13Z" transform="translate(-310.45 -102.01)"/><path class="cls-11" d="M520,594.49a37.92,37.92,0,0,0-3.28-6c-1.37-2.1-4.8,0-3.33,1.94s3.2,3.38,4.3,5.41c.84,1.56,3,.19,2.31-1.35Z" transform="translate(-310.45 -102.01)"/><path class="cls-11" d="M502.07,600.93c-.27-3.08,1.74-7.41-1.18-9.85-1.95-1.64-5.21-.14-4.45,2.59.35,1.25,1.06,2.37,1.41,3.63s.95,2.66,1.3,4c.4,1.6,3.08,1.31,2.92-.39Z" transform="translate(-310.45 -102.01)"/><path class="cls-11" d="M482.54,602.46c.81-2.91,2.14-5.63,2.27-8.7.15-3.54-5.38-3.53-5.5,0a44.75,44.75,0,0,0,1,8.7c.2,1.19,2,1,2.27,0Z" transform="translate(-310.45 -102.01)"/><path class="cls-11" d="M463.4,599c1.23-2.37,3-4.5,3.6-7.14s-3.36-4.57-4.52-1.91-1,5.28-1.79,7.9c-.48,1.61,1.94,2.66,2.71,1.15Z" transform="translate(-310.45 -102.01)"/><path class="cls-11" d="M445.14,592.82c2.24-2.81,8.91-4.86,6.5-9.64-.81-1.62-3-1.61-4.19-.54a5.55,5.55,0,0,0-1.16,2.08,18.66,18.66,0,0,1-1.38,2.32,24.46,24.46,0,0,0-2.36,4.28c-.55,1.41,1.64,2.71,2.59,1.5Z" transform="translate(-310.45 -102.01)"/><path class="cls-6" d="M517,582a1.19,1.19,0,0,0,0,2.38,1.19,1.19,0,0,0,0-2.38Z" transform="translate(-310.45 -102.01)"/><path class="cls-6" d="M512.55,583a1.53,1.53,0,0,0,0,3.06,1.53,1.53,0,0,0,0-3.06Z" transform="translate(-310.45 -102.01)"/><path class="cls-6" d="M508,584.13a1.62,1.62,0,0,0,0,3.23,1.62,1.62,0,0,0,0-3.23Z" transform="translate(-310.45 -102.01)"/><path class="cls-6" d="M502.32,585.14a1.57,1.57,0,0,0,0,3.13,1.57,1.57,0,0,0,0-3.13Z" transform="translate(-310.45 -102.01)"/><path class="cls-6" d="M496.15,585.57a1.61,1.61,0,0,0,0,3.22,1.61,1.61,0,0,0,0-3.22Z" transform="translate(-310.45 -102.01)"/><path class="cls-6" d="M490.27,585.77a1.74,1.74,0,0,0,0,3.48,1.74,1.74,0,0,0,0-3.48Z" transform="translate(-310.45 -102.01)"/><path class="cls-6" d="M483.87,585.54a1.65,1.65,0,0,0,0,3.29,1.65,1.65,0,0,0,0-3.29Z" transform="translate(-310.45 -102.01)"/><path class="cls-6" d="M477.52,584.59a1.93,1.93,0,0,0,0,3.85,1.93,1.93,0,0,0,0-3.85Z" transform="translate(-310.45 -102.01)"/><path class="cls-6" d="M471.2,583.42c-2.57,0-2.57,4,0,4a2,2,0,0,0,0-4Z" transform="translate(-310.45 -102.01)"/><path class="cls-6" d="M464.76,581.73a1.7,1.7,0,0,0,0,3.4,1.7,1.7,0,0,0,0-3.4Z" transform="translate(-310.45 -102.01)"/><path class="cls-6" d="M459.35,579.63c-2.6,0-2.6,4,0,4s2.59-4,0-4Z" transform="translate(-310.45 -102.01)"/><path class="cls-6" d="M454.47,577.71a1.82,1.82,0,0,0,0,3.64,1.82,1.82,0,0,0,0-3.64Z" transform="translate(-310.45 -102.01)"/><path class="cls-6" d="M449.15,576.59h-.1a1.21,1.21,0,0,0,0,2.31l.1,0a1.2,1.2,0,1,0,0-2.34Z" transform="translate(-310.45 -102.01)"/><path class="cls-6" d="M444.82,575.44a.11.11,0,0,0,0,.21.11.11,0,1,0,0-.21Z" transform="translate(-310.45 -102.01)"/><path class="cls-6" d="M445.15,574.31a1.68,1.68,0,0,0,0,3.35,1.68,1.68,0,0,0,0-3.35Z" transform="translate(-310.45 -102.01)"/><path class="cls-5" d="M441.59,569.36c-.77-.76-1.5-1.54-2.24-2.3-.55-.56-1.57-1.29-2.29-.58s.09,1.72.64,2.22c.8.72,1.57,1.46,2.37,2.16,1,.91,2.5-.53,1.52-1.5Z" transform="translate(-310.45 -102.01)"/><path class="cls-5" d="M436.53,571.75a14.15,14.15,0,0,1-1.78-1.93,4.6,4.6,0,0,0-2.24-1.83,1,1,0,0,0-1.29,1c-.21,2,2.5,3.62,4.07,4.39,1,.49,2.17-.8,1.24-1.61Z" transform="translate(-310.45 -102.01)"/><path class="cls-5" d="M441.21,562.33a10.19,10.19,0,0,0-1.6-2.84,1.42,1.42,0,0,0-2.35,1.37,22.36,22.36,0,0,0,1.28,2.6c.68,1.5,3.31.41,2.67-1.13Z" transform="translate(-310.45 -102.01)"/><path class="cls-5" d="M432.8,562.41c-.53-1.37-1.17-3-2.6-3.64-.79-.34-1.88.22-1.56,1.2.4,1.26,1.39,2.19,2,3.34s2.63.35,2.15-.9Z" transform="translate(-310.45 -102.01)"/><path class="cls-5" d="M434.84,554.69a19.34,19.34,0,0,0-1.12-3.4,2.06,2.06,0,0,0-1.2-1.28c.57.21-.27-.2-.31-.2a1.19,1.19,0,0,0-.62,0c-1.11.31-1.08,1.93-.76,2.74.43,1.11,1.16,2.09,1.64,3.18.61,1.4,2.7.37,2.37-1Z" transform="translate(-310.45 -102.01)"/><path class="cls-5" d="M435,543.24c-.49-1.45-1.33-3.43-2.74-4.19a1.14,1.14,0,0,0-1.66,1.28c.45,1.41,1.84,2.39,2.56,3.68.55,1,2.22.32,1.84-.77Z" transform="translate(-310.45 -102.01)"/><path class="cls-5" d="M426.72,552.18c-.23-1.22-.24-2.6-1.29-3.43a1.47,1.47,0,0,0-1.71-.23,1.42,1.42,0,0,0-.65,1.59c.34.93.76,1.84,1.13,2.75a1.31,1.31,0,0,0,2.52-.68Z" transform="translate(-310.45 -102.01)"/><path class="cls-5" d="M425.57,542c-.23-1.34.23-3-.44-4.22a1.17,1.17,0,0,0-2,0,3.65,3.65,0,0,0-.26,2.24,14.44,14.44,0,0,0,.41,2.62c.37,1.52,2.56.85,2.29-.64Z" transform="translate(-310.45 -102.01)"/><path class="cls-5" d="M425.49,560c-.26-1.19-.12-2.36-1-3.31s-2.11.06-1.91,1.11a7.93,7.93,0,0,0,1.45,2.81.8.8,0,0,0,1.46-.61Z" transform="translate(-310.45 -102.01)"/><path class="cls-5" d="M429.11,533.9c0-1-.09-2-.17-3-.07-.67-.42-1.7-1.27-1.7s-1.17,1-1.23,1.7a10.93,10.93,0,0,0,.73,3.25,1,1,0,0,0,1.94-.26Z" transform="translate(-310.45 -102.01)"/><path class="cls-5" d="M433.29,528.27c.44-1.58.67-4.09-.73-5.25a1.39,1.39,0,0,0-2.3.6c-.62,1.58.75,3.1,1,4.65.15,1.1,1.8.94,2.06,0Z" transform="translate(-310.45 -102.01)"/><path class="cls-5" d="M422.49,531.35c-.23-1.18-.31-3.07-1.59-3.61a.63.63,0,0,0-.76.09c-.94,1.17-.21,2.84,0,4.17.26,1.53,2.65.9,2.34-.65Z" transform="translate(-310.45 -102.01)"/><path class="cls-5" d="M425.15,521c-.43-1-.38-2.32-1.61-2.72a.61.61,0,0,0-.72.41c-.41,1,.19,2.39.59,3.33.5,1.19,2.24.16,1.74-1Z" transform="translate(-310.45 -102.01)"/><path class="cls-5" d="M430.68,515.56A8,8,0,0,0,430,512a1,1,0,0,0-1.8.24c-.24,1.12.33,2.21.29,3.34-.05,1.41,2.13,1.41,2.17,0Z" transform="translate(-310.45 -102.01)"/><path class="cls-5" d="M419.82,516c-.08-.59-.19-1.16-.32-1.74a14.76,14.76,0,0,0-.33-1.76,1,1,0,0,0-.7-.7,1.17,1.17,0,0,0-.26,0,1,1,0,0,0-1,.74c-.32,1.23.37,2.55.6,3.77s2.12.86,2-.27Z" transform="translate(-310.45 -102.01)"/><path class="cls-5" d="M424.11,509.78c-.2-1,0-2.16-.49-3.13-.42-.81-1.92-.72-2.05.27a11.19,11.19,0,0,0,.22,3.5c.31,1.51,2.59.86,2.32-.64Z" transform="translate(-310.45 -102.01)"/><path class="cls-5" d="M431.15,505.76a5.72,5.72,0,0,0-1.18-3,1.17,1.17,0,0,0-1.15-.3c-1.63.57-.36,2.8-.18,3.95.25,1.64,2.79,1,2.51-.69Z" transform="translate(-310.45 -102.01)"/><path class="cls-5" d="M419,505.23a2.75,2.75,0,0,0-1-2.09,1,1,0,0,0-1.41.81c0,.54.24,1,.29,1.57a1.08,1.08,0,1,0,2.12-.29Z" transform="translate(-310.45 -102.01)"/><path class="cls-11" d="M480.8,498.45a7.35,7.35,0,1,0,7.36,7.35,7.42,7.42,0,0,0-7.36-7.35Z" transform="translate(-310.45 -102.01)"/><path class="cls-11" d="M502,436a2,2,0,0,0,0,3.89,1.95,1.95,0,0,0,0-3.89Z" transform="translate(-310.45 -102.01)"/><path class="cls-11" d="M497.59,432.36a1.62,1.62,0,0,0,0,3.23,1.62,1.62,0,0,0,0-3.23Z" transform="translate(-310.45 -102.01)"/><path class="cls-11" d="M492.49,430.44a1.76,1.76,0,0,0,0,3.52,1.76,1.76,0,0,0,0-3.52Z" transform="translate(-310.45 -102.01)"/><path class="cls-11" d="M486.73,429.37a1.73,1.73,0,0,0,0,3.45,1.73,1.73,0,0,0,0-3.45Z" transform="translate(-310.45 -102.01)"/><path class="cls-11" d="M481.18,429a1.84,1.84,0,0,0,0,3.68,1.84,1.84,0,0,0,0-3.68Z" transform="translate(-310.45 -102.01)"/><path class="cls-11" d="M475.64,429.21a1.89,1.89,0,0,0,0,3.77,1.89,1.89,0,0,0,0-3.77Z" transform="translate(-310.45 -102.01)"/><path class="cls-11" d="M469.87,430.33a1.66,1.66,0,0,0,0,3.31,1.66,1.66,0,0,0,0-3.31Z" transform="translate(-310.45 -102.01)"/><path class="cls-11" d="M464.11,432.05a1.93,1.93,0,0,0,0,3.85,1.93,1.93,0,0,0,0-3.85Z" transform="translate(-310.45 -102.01)"/><path class="cls-11" d="M481.49,419.77a4,4,0,1,0,4,4,4,4,0,0,0-4-4Z" transform="translate(-310.45 -102.01)"/><path class="cls-9" d="M557.13,365.57a63.68,63.68,0,0,0,.31,17.6c1.78.12,6,22.65,6.95,23.41,8,6.27,8.71-7.82,7.38-.4-.45,2.52-5.15,5.24-3.51,7.63,1,.54,5.42,1.1,10.64-1.58,4.55-2.33,6.1-5.85,7.13-9.09a9.14,9.14,0,0,0-2.7-9.58c-.94-.91-2.08-1.77-2.92-2.7-2-2.23-2.21-4.75-2.54-7.19a111.61,111.61,0,0,0-4.25-17.25,2.36,2.36,0,0,0-1.39-1.7,8.4,8.4,0,0,0-2.36-.43c-3-.27-6.13-.44-9.23-.49a7,7,0,0,0-2.39.23A1.61,1.61,0,0,0,557.13,365.57Z" transform="translate(-310.45 -102.01)"/><path class="cls-11" d="M572.92,504.66c.26,6.86.14,10.4.26,14.5.05,1.51-1.55,3.11-2.32,2.33s-2.88-28.57-7-27.85c-1.43.25.14,17.4-.39,24.74-.13,1.9-1.1,4-2.13,3.81-1.34-.28-2.41-23.62-4.73-26.73-1.18-1.57-2.45,15.18-3.89,22.54-.38,1.93-1.68,4.85-2.77,3.42-.72-1-1.24-6.15-1.5-21.82-.15-8.43-.78-10.22,1.55-13.86s3.49-1.29,6.61-3.75c.78-.63,1-3.87,1.09-4.93.49-8.15.11-14.63.59-22.78.38-6.45-3.14-54.95-3.52-60.57a7,7,0,0,1,.51-3.95c.67-1.17,2.07-3.32,3,12.19,2.33,38.47,2.59,44.55,2.05,77.89A3.18,3.18,0,0,0,563,482.9c1.94.52,3.87-1.17,7.63,4.27C572,489.22,572.6,496.05,572.92,504.66Z" transform="translate(-310.45 -102.01)"/><path class="cls-10" d="M576.76,431.39c-1.22,1.93-4.12,4-6.39,4-5.09,0-8.45-.67-13.86-1.35a2.88,2.88,0,0,1-2.23-1.39c-.25-.49-1.17-2.85,2.48-3.93a13.28,13.28,0,0,1,3.5-.44c2.82-.06,9.72,1.06,9.94,0,.26-1.3-12.34-2.14-16.5-4.71a3,3,0,0,1-1.24-1.17c-.74-1.5.34-2.83,1.94-3.32,3.77-1.14,9,2,14.68,2.14a.41.41,0,0,0,.18-.79c-5.26-2.23-12.69-4.37-15.37-8.6-.91-1.42.64-3.11,2.39-3.27,2.57-.25,10,4.43,11.72,4.05.46-.11.53-1.17-1.55-2.2a38.37,38.37,0,0,1-7.18-4.83,3.08,3.08,0,0,1-.88-3.26c.62-1.62,3-.68,4.43-.6s5.17,2.22,7.13,3.37c1.59.95,1-2.43.87-4.28-.2-2.87.12-5.74,1.54-6.24,2.84-1,5.86.75,8.37,2.44a7,7,0,0,1,2.14,1.92,17.42,17.42,0,0,1,1.84,4.48C585,418.4,582.51,422.36,576.76,431.39Z" transform="translate(-310.45 -102.01)"/><path class="cls-13" d="M560.3,432.24a3.51,3.51,0,0,0-2.47-2,6.25,6.25,0,0,0-1.71-.39,2.59,2.59,0,0,0-1,.07c-.16.06-.94.42-.46.22a1.58,1.58,0,0,0-1.08,1.88c-.16-.73.22.7.25.73a2.31,2.31,0,0,0,.54.7,4.07,4.07,0,0,0,1.81.87,4.44,4.44,0,0,0,3.38-.31,1.57,1.57,0,0,0,.71-1.74Z" transform="translate(-310.45 -102.01)"/><path class="cls-13" d="M557.08,421.22a4.48,4.48,0,0,0-4-1.58,2.3,2.3,0,0,0-1,3.82,5,5,0,0,0,3.62,1.2,2.08,2.08,0,0,0,1.73-1,2,2,0,0,0-.31-2.44Z" transform="translate(-310.45 -102.01)"/><path class="cls-13" d="M558.59,412.6c0-.19,0-.81,0-.24,0-.06-.4-1.29-.19-.79a5.63,5.63,0,0,0-1.18-1.75,2.84,2.84,0,0,0-2.71-.95,2,2,0,0,0-1.58,1.48,2.71,2.71,0,0,0,.71,2.44l.47.36c-.18-.15-.17-.14,0,0a5.82,5.82,0,0,0,1,.67c1.28.61,3.28.48,3.47-1.25Z" transform="translate(-310.45 -102.01)"/><path class="cls-13" d="M562.83,404.77a5.36,5.36,0,0,0-.81-1.6,3.41,3.41,0,0,0-2.12-1.62c-1.43-.21-3,.87-2.47,2.47s2.58,3.29,4.31,2.66a1.58,1.58,0,0,0,1.09-1.91Z" transform="translate(-310.45 -102.01)"/><path class="cls-6" d="M576.84,431.74a4,4,0,0,0,.32-1.71.91.91,0,0,0-1.77-.24c-.19.45-.26,1-.42,1.43-.41,1.19,1.46,1.7,1.87.52Z" transform="translate(-310.45 -102.01)"/><path class="cls-6" d="M577.55,425.39a2.93,2.93,0,0,0,.39-2.5c-.44-1.22-2.48-1.13-2.39.33a10.14,10.14,0,0,1,.12,1.66c-.12,1,1.42,1.33,1.88.51Z" transform="translate(-310.45 -102.01)"/><path class="cls-6" d="M578.38,418.14a2.74,2.74,0,0,0-.37-2.52,1,1,0,0,0-1.6.43,12.4,12.4,0,0,0,.09,1.83c0,1.07,1.67,1.33,1.88.26Z" transform="translate(-310.45 -102.01)"/><path class="cls-6" d="M578.14,409.62a3.12,3.12,0,0,0-1.34-2,1.08,1.08,0,0,0-1.57,1.21,17.31,17.31,0,0,0,.87,1.65c.55,1.16,2.42.34,2-.86Z" transform="translate(-310.45 -102.01)"/><path class="cls-11" d="M569.5,447a8.84,8.84,0,0,0-6.85-3.63,6.41,6.41,0,0,0-2.22.22,1.21,1.21,0,0,0-.57.3,1.35,1.35,0,0,0,0,1.44c.61,1.38,1.19,3.77,4.17,5.45,3.54,2,6.32,2.71,8.12,2.53l.11-.23C571.18,451.19,570.77,448.85,569.5,447Z" transform="translate(-310.45 -102.01)"/><path class="cls-11" d="M558.81,437.47a.79.79,0,0,1,.05.53c-.41,2.64-2.87,4.54-5.43,5.3s-5.28.68-7.93,1a20.5,20.5,0,0,1,2.18-3.43,14.2,14.2,0,0,1,1.53-1.66,9.7,9.7,0,0,1,9.1-2A.83.83,0,0,1,558.81,437.47Z" transform="translate(-310.45 -102.01)"/><path class="cls-9" d="M550.48,338.15c-4.74,6-4.81,16.13-4.53,19.6a44.92,44.92,0,0,0,1.8,11c1.73,5,5.16,9.19,8.53,13.27,1.17,1.41.4,4.13,1.83,5.28,5.77,4.63,13.46-.84,20.84-.38.4-2.28,1.9-4.14,3.46-5.86,4.38-4.84,8-4.71,12.54-12.18,6.5-10.62,2-22.94-5.44-32.66-4.66-6.08-14.5-5.85-21.36-5.71C561,330.66,555,332.51,550.48,338.15Z" transform="translate(-310.45 -102.01)"/><path class="cls-13" d="M558.82,371.67a74.51,74.51,0,0,1-1.25-18.74c.24-5.37,5-8.92,4.63-14-.2-2.91-4.27-4.51-5.82-1.58-2.82,5.34-5.22,9.28-5.12,15.56a52,52,0,0,0,4.61,20c.77,1.76,3.31.44,3-1.25Z" transform="translate(-310.45 -102.01)"/><path class="cls-13" d="M570.28,373.41c2.9-5.22,3.57-10.78,3.94-16.66.35-5.7-1.49-11.27-.93-16.93.44-4.44-6.66-4.48-7,0-.34,4.94,1.21,9.73,1.41,14.65.24,6.07-.35,12.08-.39,18.15a1.59,1.59,0,0,0,2.94.79Z" transform="translate(-310.45 -102.01)"/><path class="cls-13" d="M581.39,374.43c4.15-5.55,5.38-11.86,5.78-18.68.31-5.24-.95-13.57-5.92-16.32a1.87,1.87,0,0,0-2.7,1.1c-1.71,4.65,2.25,10.24,2.42,15.22a62.39,62.39,0,0,1-2.39,17.49c-.48,1.8,1.81,2.53,2.81,1.19Z" transform="translate(-310.45 -102.01)"/><path class="cls-11" d="M558.14,381.27s0,0,0,.07a1.26,1.26,0,0,0,.89.88l.06,0a1.38,1.38,0,1,0-1-1Z" transform="translate(-310.45 -102.01)"/><path class="cls-11" d="M563.61,379.44a1.47,1.47,0,0,0,0,2.93,1.47,1.47,0,0,0,0-2.93Z" transform="translate(-310.45 -102.01)"/><path class="cls-11" d="M568.28,379.6a1.31,1.31,0,0,0,0,2.61,1.31,1.31,0,0,0,0-2.61Z" transform="translate(-310.45 -102.01)"/><path class="cls-11" d="M572.68,379.47a1.57,1.57,0,0,0,0,3.13,1.57,1.57,0,0,0,0-3.13Z" transform="translate(-310.45 -102.01)"/><path class="cls-11" d="M577.34,379.86a1.44,1.44,0,0,0,0,2.87,1.44,1.44,0,0,0,0-2.87Z" transform="translate(-310.45 -102.01)"/><path class="cls-11" d="M530.91,406.2a1.55,1.55,0,0,0,0,3.1,1.55,1.55,0,0,0,0-3.1Z" transform="translate(-310.45 -102.01)"/><path class="cls-11" d="M539.52,388.26l-.06-.14c-.57-1.29-2.52-.81-2.82.4a.41.41,0,0,0,0,.16,1.59,1.59,0,1,0,2.91-.42Z" transform="translate(-310.45 -102.01)"/><path class="cls-11" d="M544.92,396.91a1.3,1.3,0,0,0,0,2.6,1.3,1.3,0,0,0,0-2.6Z" transform="translate(-310.45 -102.01)"/><path class="cls-11" d="M554.27,379.49a1.62,1.62,0,0,0,0,3.23,1.62,1.62,0,0,0,0-3.23Z" transform="translate(-310.45 -102.01)"/><path class="cls-11" d="M542.6,375.4l-.15-.06a1.3,1.3,0,0,0-1.93,1.1v.15a1.38,1.38,0,1,0,2.08-1.19Z" transform="translate(-310.45 -102.01)"/><path class="cls-11" d="M526.52,392.41c0-.09,0-.18-.06-.28a1.58,1.58,0,0,0-3,0l-.06.28a1.63,1.63,0,1,0,3.15,0Z" transform="translate(-310.45 -102.01)"/><path class="cls-11" d="M513.77,403.61a1.91,1.91,0,0,0,0,3.82,1.91,1.91,0,0,0,0-3.82Z" transform="translate(-310.45 -102.01)"/><path class="cls-11" d="M503,388.57a1.6,1.6,0,0,0,0,3.19,1.6,1.6,0,0,0,0-3.19Z" transform="translate(-310.45 -102.01)"/><path class="cls-11" d="M492.45,404.29a1.53,1.53,0,0,0,0,3,1.53,1.53,0,0,0,0-3Z" transform="translate(-310.45 -102.01)"/><path class="cls-11" d="M512.78,379.63a2,2,0,0,0,.56-1.84,1.32,1.32,0,0,0-1.26-1,1.34,1.34,0,0,0-1.31,1.3,1.28,1.28,0,0,0,0,.19c.05-.22.12-.44.18-.67a.47.47,0,0,0-.06.09c-1.25,1.2.74,3.17,1.9,1.89Z" transform="translate(-310.45 -102.01)"/><path class="cls-11" d="M520.92,363.35a1.47,1.47,0,0,0,0,2.94,1.47,1.47,0,0,0,0-2.94Z" transform="translate(-310.45 -102.01)"/><path class="cls-11" d="M492.6,392c-2.45,0-2.45,3.82,0,3.82a1.91,1.91,0,0,0,0-3.82Z" transform="translate(-310.45 -102.01)"/><path class="cls-11" d="M504.1,401l-.14-.08a1.47,1.47,0,0,0-2.21,1.27.76.76,0,0,0,0,.15A1.55,1.55,0,1,0,504.1,401Z" transform="translate(-310.45 -102.01)"/><path class="cls-11" d="M480.21,392.76a1.49,1.49,0,0,0,0,3,1.49,1.49,0,0,0,0-3Z" transform="translate(-310.45 -102.01)"/><path class="cls-11" d="M479,402.81a1.85,1.85,0,0,0,0,3.7,1.85,1.85,0,0,0,0-3.7Z" transform="translate(-310.45 -102.01)"/><path class="cls-11" d="M536.05,399.6a1.46,1.46,0,0,0,.28-1c-.08-1.56-2.41-2-2.79-.38l0,.1c.12-.21.25-.42.36-.64a1.36,1.36,0,0,0-.12.12c-1.56,1.22,1,3.65,2.3,1.77Z" transform="translate(-310.45 -102.01)"/><path class="cls-11" d="M541.36,347.55a1.3,1.3,0,0,0,0,2.6,1.3,1.3,0,0,0,0-2.6Z" transform="translate(-310.45 -102.01)"/><path class="cls-11" d="M535.42,365.68a1.74,1.74,0,0,0,0,3.48,1.74,1.74,0,0,0,0-3.48Z" transform="translate(-310.45 -102.01)"/><path class="cls-11" d="M517.83,383.26a1.87,1.87,0,0,0,0,3.73,1.87,1.87,0,0,0,0-3.73Z" transform="translate(-310.45 -102.01)"/><path class="cls-11" d="M529.73,378.59a1.3,1.3,0,0,1,.1-.15A1.67,1.67,0,0,0,528,376a1.56,1.56,0,0,0-1.06.92,1.68,1.68,0,0,0,.59,2.24,1.65,1.65,0,0,0,2.23-.59Z" transform="translate(-310.45 -102.01)"/><path class="cls-11" d="M529.67,354.64l-.29,0a1.68,1.68,0,0,0-1.64,1.25,1.74,1.74,0,0,0,.78,1.92l.25.18a1.8,1.8,0,0,0,2.61-1.07,1.81,1.81,0,0,0-1.71-2.26Z" transform="translate(-310.45 -102.01)"/><path class="cls-11" d="M541.81,359.47a1.42,1.42,0,0,0,0-.2,1.37,1.37,0,0,0-1-1.3,1.34,1.34,0,0,0-1.66.94,1.42,1.42,0,0,0,0,.2c-.44,2.15,3,2.2,2.72.36Z" transform="translate(-310.45 -102.01)"/><path class="cls-11" d="M582.27,318.24a1.34,1.34,0,0,1,0-.2c0-1.82-2.72-1.79-2.81,0a1.34,1.34,0,0,0,0,.2c-.09,1.81,2.78,1.82,2.81,0Z" transform="translate(-310.45 -102.01)"/><path class="cls-11" d="M570.2,322.6c-2.58,0-2.58,4,0,4s2.58-4,0-4Z" transform="translate(-310.45 -102.01)"/><path class="cls-11" d="M579.05,325.36c-.57-.22-1,.41-.91.9a.7.7,0,0,0,0,.14.8.8,0,1,0,1-1Z" transform="translate(-310.45 -102.01)"/><path class="cls-6" d="M438.31,153.71c-9.31,9.53-9.71,59.9-9.75,61.19-.24,6.06,5.1,38.58,2.66,44.34-2,4.63-6.55,6.8-9.25,11s-3.53,9.81-1.43,14.38c1.83,3.94,5.57,6.73,9.63,8.3,10.15,4,20.65,2.52,30.24-2.68a37.38,37.38,0,0,0,5.68-4.62,14.21,14.21,0,0,0,3.24-4.84c1.65-3.95,1.78-8.37,1.58-12.65-.63-13.55-4.16-26.76-7.68-39.86-1-3.67-2-7.4-3.94-10.67C454.58,209.69,466.84,148.53,438.31,153.71Z" transform="translate(-310.45 -102.01)"/><path class="cls-7" d="M443.6,181.21c-9.88,7.06-18.83,29.59-4.16,36.85.72.36,1.61-.39,1.15-1.14-3.77-6.17-6.1-10.9-4.85-18.39,1-6,4.51-12,8.47-16.54.35-.4-.12-1.13-.61-.78Z" transform="translate(-310.45 -102.01)"/><path class="cls-7" d="M439.8,217.48a26.28,26.28,0,0,0,3.79,7.08c1.59,2.13,3.34,5,5.84,6.12a.83.83,0,0,0,1.2-.92c-.57-2.43-2.78-4.32-4.36-6.15-1.88-2.18-3.8-4.38-5.59-6.65-.33-.4-1,0-.88.52Z" transform="translate(-310.45 -102.01)"/><path class="cls-7" d="M447.22,186.05c-10,3.27-10.28,19.14-.88,23.33.68.31,1.52-.35,1.09-1.09-1.74-3-4.19-5.18-5-8.67-1-4.29,1.43-10.27,5.32-12.26a.72.72,0,0,0-.54-1.31Z" transform="translate(-310.45 -102.01)"/><g class="cls-14"><path class="cls-7" d="M434.16,149.14a32.1,32.1,0,0,1,4.34,23.33c-1.46,7.72-9.25,12-12.18,19-5.82,13.94-1.25,27.18,7.17,39,5.13,7.21,6.69,16.77,6.72,25.41,0,7.41-3,14.64-2.93,22.18,0,5.3,2.7,10.21,5.78,14.31,2.19,2.92,4.63,5.31,6.66,8.39,2.25,3.41,2.49,7.63,4.22,11.26.44.93,2,.27,1.65-.69-1.9-6-2.8-11-6.29-16.42-1.87-2.9-4.38-5.31-6.19-8.27-3.37-5.49-2.73-11.91-1.82-17.93,2.19-14.44,3-26.84-4.93-39.92-5.23-8.58-9.43-15.88-9.71-26.31-.26-10.17,8.61-16.77,13.15-24.84,5-9,1.5-21.85-5.34-28.73a.19.19,0,0,0-.3.23Z" transform="translate(-310.45 -102.01)"/><path class="cls-7" d="M428.83,155.55c6,2.68,5.22,8.58,2.21,13.28-2.33,3.63-7,6.48-8,10.8a.89.89,0,0,0,1.29,1c4.78-2.43,11.62-10.25,12.22-15.83.5-4.75-2.15-10.25-7.56-9.88-.3,0-.5.48-.17.63Z" transform="translate(-310.45 -102.01)"/><path class="cls-7" d="M417.81,226.58c.37,1.29,1.39,2,2.41,2.82,2.86,2.41,4.1,5.07,6.1,8.14,6.18,9.4,6.51,18.85.82,28.73-7.08,12.28-4.86,29.9,8.28,36.76.76.4,1.74-.43,1.23-1.23-2.85-4.51-6.87-7.05-8.78-12.44-1.81-5.12-1.14-12,.23-17.08,1.55-5.74,5.45-9.77,6.21-16,.73-5.85.73-12.35-3.15-17.2-2.12-2.65-3.66-6.32-5.88-8.74-1.83-2-4.73-2.49-6.53-4.35a.57.57,0,0,0-.94.55Z" transform="translate(-310.45 -102.01)"/><path class="cls-7" d="M451,240c.07,8,1.62,14.5-2.24,22.07-2,3.93-4.07,9.27-4,13.71.25,9.55,7.89,17.1,15.53,22,.58.37,1.35-.37,1-.94a73.5,73.5,0,0,0-7-8.14c-5.59-6-5.85-12.75-3.91-20.45,1.06-4.19,3.6-7.58,4.5-11.84,1.07-5.09-1.57-11.53-2.2-16.43-.13-1-1.66-1.09-1.64,0Z" transform="translate(-310.45 -102.01)"/><path class="cls-7" d="M458.91,250.4c1.49,6.64.9,11.81-1.29,18.12a19.65,19.65,0,0,0-.92,10.41c1.48,6.51,5.11,12.74,11.42,15.48a.68.68,0,0,0,.82-1.06c-6.84-7.26-11.84-13.66-9.16-24.24,1.83-7.22,2.76-11.83,1-19.21-.29-1.18-2.09-.68-1.82.5Z" transform="translate(-310.45 -102.01)"/><path class="cls-7" d="M464.84,250c2.56,8.87-2.77,18.77-.24,28,1.57,5.7,5.81,12.43,12.29,12.59a1,1,0,0,0,.5-1.83c-8.62-5.72-10.5-14.43-10.08-24.19.15-3.83,1.58-12-1.94-14.87-.24-.19-.63,0-.53.3Z" transform="translate(-310.45 -102.01)"/></g><path class="cls-9" d="M511.75,140.28c-.07-.57.79-.69,1.35-.56a53,53,0,0,1,6.75,2A36.88,36.88,0,0,1,535.12,152c7.21,8.54,8.73,20.43,9.1,31.59a165.84,165.84,0,0,0,5.24,35.74c.15,2.81-20.6,2.84-24.42,2.56-1.12-16.62-2.23-33.27-4.9-49.71-.76-4.71-1.67-9.45-3.77-13.72s-5.6-8.07-10.1-9.58a15.22,15.22,0,0,1,7.92-9.69Z" transform="translate(-310.45 -102.01)"/><path class="cls-10" d="M447.91,160.33c-6.88,8.92-8.22,21.55-4.2,32.08a8,8,0,0,1,.81,3.52c-.23,2.52-9.7,12.66-12.08,16.68a5.24,5.24,0,0,0-.93,2.56c-.05,2.26,2.45,3.7,4.69,4s4.68.15,6.57,1.37c3.13,2,3.07,6.5,2.94,10.22-.3,8.65,1.36,18,7.61,24,6.59,6.32,17.18,7.33,25.6,3.78s14.74-11,18.62-19.24a77.82,77.82,0,0,0,3.74-10,151.63,151.63,0,0,0,6.56-35.4,59.29,59.29,0,0,0-.91-17.24c-1.32-5.62-4.08-11.05-8.53-14.72a29.71,29.71,0,0,0-8.29-4.62A52.75,52.75,0,0,0,456.27,156c-3.65,1.08-7.32,2.66-9.8,5.55Z" transform="translate(-310.45 -102.01)"/><path class="cls-6" d="M444.79,145.37a20.53,20.53,0,0,0-8.37,12.79,40.93,40.93,0,0,0-.15,10.78c2.87,1,5.27.76,8.31.5a290.44,290.44,0,0,1,50.22.15c-3.65,23.45,1.32,47.32,1.17,71.06-.09,15.29-1.4,22.57,2.49,37.36,3.56,13.45,11.1,14.05,20.7,13.9,9.07-.14,19-1.75,25.87-7.69s8.46-18.38,5-26.77c-2.7-6.57-9.32-10.81-16.15-12.77-1.66-.47-3.52-1-4.41-2.43a6.27,6.27,0,0,1-.68-3q-1.49-25.92-3-51.83a81,81,0,0,0-4.15-21c-2.31-7.26-8.65-11.8-15.3-15.52-6.1-3.41-10.48-7.7-17.47-8l-25.55-1.25c-3.55-.17-7.14-.33-10.57.53Z" transform="translate(-310.45 -102.01)"/><path class="cls-11" d="M443.06,239.69a2.53,2.53,0,0,0,.2,1.78c.3.5,2.59,3.73,6.26,1.9.79-.4,3.24-2,4-2.46,5.9-3.4,8.42-4.43,12.59-5.71a25.69,25.69,0,0,1-11-3.15,51,51,0,0,0-6-3.14c-2.24-.94-5.24-.78-6.61,1.23a2,2,0,0,0-.46,1.1c0,3.32,2.24,4,3,4.8C445.4,236.33,443.41,237.74,443.06,239.69Z" transform="translate(-310.45 -102.01)"/><path class="cls-6" d="M487.44,176.86c-7.24-6.72-22.43-6.42-29.77.2a.84.84,0,0,0,.6,1.43c4.62-.38,8.91-2.54,13.55-3.13,5.27-.69,10.25.47,15.14,2.31.46.17.81-.49.48-.81Z" transform="translate(-310.45 -102.01)"/><path class="cls-6" d="M462.43,190.24c-.73-1.06-1.27-2.23-1.95-3.33-.53-.84-1.25-2.06-2.37-1.85a.6.6,0,0,0-.43.57,1.19,1.19,0,0,0,.46,1.07,7.42,7.42,0,0,1,.95,1.39c.59,1,1,2.12,1.67,3.13s2.36.05,1.67-1Z" transform="translate(-310.45 -102.01)"/><path class="cls-6" d="M472.45,190.86c1.13-1.52,1-3.81,1.62-5.58.5-1.43,1-3.89-.29-4.95a.62.62,0,0,0-.87,0c-1.05,1-1.15,3.28-1.19,4.64a32.5,32.5,0,0,0,.27,5.83c0,.24.34.21.46.06Z" transform="translate(-310.45 -102.01)"/><path class="cls-6" d="M468.61,190.67c.59-1.59.09-3.12-.49-4.63-.32-.84-.68-1.65-1-2.49s-.37-1.33-1.09-1.68a.53.53,0,0,0-.6.08c-1.09.87-.37,2.62-.08,3.73a20.27,20.27,0,0,0,2.12,5.14.62.62,0,0,0,1.11-.15Z" transform="translate(-310.45 -102.01)"/><path class="cls-6" d="M482,192.22c2.83,0,7.52-1.92,8-5.13a.49.49,0,0,0-.59-.59,7.85,7.85,0,0,0-3.34,2,38.18,38.18,0,0,1-4.26,3,.38.38,0,0,0,.2.71Z" transform="translate(-310.45 -102.01)"/><path class="cls-6" d="M478.39,189.91c2.13-1.33,4.51-4.08,4.45-6.72a.63.63,0,0,0-.8-.6c-2.8.73-3.63,4.5-4.15,6.94,0,.27.24.55.5.38Z" transform="translate(-310.45 -102.01)"/><path class="cls-6" d="M472.64,192.66a10.85,10.85,0,0,0-.68,4.48c.08,1.23,0,2.91.94,3.79a.64.64,0,0,0,.89,0c1-1,.57-2.5.41-3.79-.2-1.52-.74-3-1.05-4.48,0-.29-.43-.24-.51,0Z" transform="translate(-310.45 -102.01)"/><path class="cls-6" d="M467.84,193.22c-.41,1.18-.76,2.36-1.13,3.55-.33,1-.76,2.4-.12,3.37a.64.64,0,0,0,.87.22c1.06-.59,1.16-1.89,1.43-3a13.32,13.32,0,0,0,.23-4,.66.66,0,0,0-1.28-.18Z" transform="translate(-310.45 -102.01)"/><path class="cls-6" d="M463,193.05a13.52,13.52,0,0,0-2.13,3c-.56,1-1.43,1.9-1.53,3.09a.46.46,0,0,0,.45.46c1.32-.13,1.9-1.25,2.46-2.32a37.57,37.57,0,0,0,1.56-3.78c.18-.46-.49-.79-.81-.47Z" transform="translate(-310.45 -102.01)"/><path class="cls-6" d="M478.31,192.27c-2.33,1.16-.18,8.44,2.24,7,1.36-.8-.1-3.28-.51-4.25-.19-.42-.89-3.2-1.73-2.78Z" transform="translate(-310.45 -102.01)"/><path class="cls-6" d="M482.21,191.84a9.24,9.24,0,0,0,.48,3.3,4.11,4.11,0,0,0,2.32,2.58,1,1,0,0,0,1-.27c.88-.87-.32-2.11-.9-2.76-.44-.48-.76-1.06-1.17-1.57s-.93-.94-1.37-1.44a.22.22,0,0,0-.38.16Z" transform="translate(-310.45 -102.01)"/><path class="cls-2" d="M454.64,192.65a28.87,28.87,0,0,1,35.1-.84c-2.42,1.75-5.46,2.37-8.4,2.94a58.46,58.46,0,0,1-8.74,1.08,43.1,43.1,0,0,1-10.5-.89A25.69,25.69,0,0,1,454.64,192.65Z" transform="translate(-310.45 -102.01)"/><path class="cls-6" d="M472.45,195.2a3.58,3.58,0,1,0-3.58-3.58,3.62,3.62,0,0,0,3.58,3.58Z" transform="translate(-310.45 -102.01)"/><g class="cls-15"><path class="cls-7" d="M447.3,139.35c-5.42,3.22-7.35,8.06-6.63,14.25a19.08,19.08,0,0,0,2.93,7.7c5,8.2,2,13.43-1.13,21.3a.68.68,0,0,0,1,.76c6-4.34,7.07-10.59,6.34-17.64-.34-3.23-2.42-5.08-4.07-7.68-3.5-5.5-2.52-13.61,2.16-17.93.41-.38-.11-1-.59-.76Z" transform="translate(-310.45 -102.01)"/><path class="cls-7" d="M455.31,136.78c-3.13,3.4-5.74,8.91-4.44,13.66.95,3.49,2.71,6.23,4.55,9.33,4.81,8.09-.56,14.75-2.5,22.29a.94.94,0,0,0,1.57.91c4.7-4.83,6.43-11.32,6.15-18-.15-3.33-2-6.5-3.69-9.24-3.43-5.71-4.26-12.42-1-18.46.23-.41-.32-.87-.65-.51Z" transform="translate(-310.45 -102.01)"/><path class="cls-7" d="M465.13,139.82c-3.59,5.48-3.1,10.37-.94,16.41,1.2,3.37,3.48,6.35,4.81,9.68,2.42,6.07-2.19,11.86-3.16,17.72a.88.88,0,0,0,1.47.85,19.68,19.68,0,0,0,6.37-16.62c-.82-10.53-12.36-16-8.05-27.83.11-.3-.34-.45-.5-.21Z" transform="translate(-310.45 -102.01)"/><path class="cls-7" d="M472.11,138.92c-1.95,5.9.19,10,3.66,14.86,3.18,4.46,4.77,8.12,5,13.69.27,5.89-3.25,10.28-4.22,15.73a.81.81,0,0,0,1.17.9c6.64-3,7.2-12.75,6.83-19.1-.6-10.22-11.93-15.95-11.29-25.93,0-.69-.95-.76-1.16-.15Z" transform="translate(-310.45 -102.01)"/><path class="cls-7" d="M480.37,137.08c-.72,7.95,2.57,13.43,8,19,9.68,9.91-.87,20.89-2.13,31.36a.89.89,0,0,0,1.5.62c5.48-6.17,8.63-15.68,8.47-23.87a14.87,14.87,0,0,0-3.42-8.79c-5.28-5.86-10.36-10-11.82-18.37-.06-.35-.55-.23-.57.08Z" transform="translate(-310.45 -102.01)"/><path class="cls-7" d="M487.7,139.88c1.2,4.64,5.74,8.22,8.14,12.3,5.7,9.75,8,19.8,5.44,30.86-1.9,8.09-6.39,15.23-8.06,23.42-1.38,6.72,1.63,12.7,3.75,18.87,2.67,7.74,6.49,16.16,7.33,24.32s-4.18,15.79-6.93,23c-3.81,10.05-1.26,22.26,6.54,29.59.54.51,1.49-.15,1-.81C494.68,286,501,274,506,258.27c4.05-12.66-4.1-28.27-8.82-39.72-6.37-15.42,7.77-31.35,8-47.21.07-6.35-2.64-12.47-5.28-18.1-2.93-6.22-7.65-8.49-11.23-13.77a.52.52,0,0,0-.95.41Z" transform="translate(-310.45 -102.01)"/><path class="cls-7" d="M484.47,228.6c5.51,5.49,9.77,11.55,10.66,19.46.71,6.41-2.17,12.58-2.23,18.94a.85.85,0,0,0,1.57.42c9.34-14.61,3.89-30.18-8.76-40.06-.86-.68-2.06.42-1.24,1.24Z" transform="translate(-310.45 -102.01)"/><path class="cls-7" d="M503.33,142.19c4.12,5.39,7,10.09,8.44,16.81,2.05,9.29-1,18.75-4,27.52-3.92,11.78-10.33,21.74-4.14,34.38,3.2,6.5,7.06,12,9,19.13,2.84,10.53.45,19.17-3.69,28.93-4.53,10.68-6.14,22.76,2.09,31.92.57.63,1.81,0,1.48-.85-3.24-8.2-4.38-15.24-2.13-23.93,1.77-6.87,6.37-13.09,7.07-20.25a55.67,55.67,0,0,0-1.82-19.52c-1.84-7.2-6.52-12.79-9.1-19.63-5.75-15.29,8.13-31.27,9.22-46.68.75-10.49-1.62-23.49-11.84-28.47-.37-.17-.94.23-.62.64Z" transform="translate(-310.45 -102.01)"/><path class="cls-7" d="M520.58,152.37c0,7.95,2.32,14.76.45,22.88-1.79,7.86-4.95,15.19-7.42,22.85-5,15.51,2.62,27.39,7.82,41.59,3,8.2,4.5,15.92,1.68,24.43-2.41,7.24-6.77,13.12-8.44,20.71-2.69,12.11,4.57,19.67,13.76,25.72,1,.66,2-.6,1.54-1.55-2.89-5.55-8.05-8.4-10.37-14.64-3.24-8.74,3.1-18.39,6.66-25.95,5.21-11.07,2.63-21.76-1.56-32.67-2.57-6.7-6.29-12.9-8.49-19.75-2.78-8.67.15-17.45,3.13-25.57a145.45,145.45,0,0,0,6.11-20.2c1.37-6.45-1.86-12-3.59-18a.65.65,0,0,0-1.28.17Z" transform="translate(-310.45 -102.01)"/><path class="cls-7" d="M531,183c-6.63,8-9.21,17.55-8.09,27.8.89,8.27,3.7,18.93,12.37,21.95a1.29,1.29,0,0,0,1.44-1.88c-9.32-13.47-14.82-32-4.33-46.8.57-.81-.75-1.83-1.39-1.07Z" transform="translate(-310.45 -102.01)"/><path class="cls-7" d="M530.21,241.17c5.49,8.44,7.28,16.37,3.18,26-2.93,6.82-6.74,12.14-8.06,19.63-1.77,10,7.4,18,16.24,20.08a1.07,1.07,0,0,0,1-1.78c-4.64-4.41-10.6-7-12.73-13.53-2.69-8.17,5.57-17.89,8.57-25.06,3.91-9.33,1.57-20.93-7.36-26.18a.65.65,0,0,0-.88.89Z" transform="translate(-310.45 -102.01)"/><path class="cls-7" d="M540.32,244.1c4.95,9.43,6.1,18.21,1.62,28.12-2.24,5-4.37,8.89-4.49,14.45-.16,7.75,7.52,15.5,14.83,16.32.67.08.91-.83.51-1.26-4-4.27-8.3-6.88-10.68-12.6-2.84-6.85,3.49-14.73,5.57-21.07,2.94-8.93-.68-17.69-6.06-24.72a.75.75,0,0,0-1.3.76Z" transform="translate(-310.45 -102.01)"/></g><path class="cls-5" d="M438.75,125.47a57.85,57.85,0,0,1-1.82-7,.87.87,0,0,1,1.1-.91c1.27.34,10.69,8.08,14.55,10.7a1.2,1.2,0,0,0,1.79-.5c2.35-5.59,3.89-12.37,5.07-18.39A.88.88,0,0,1,461,109c3.63,5.23,7.89,10.66,10.5,16.48a.46.46,0,0,0,.85,0,164,164,0,0,1,8.1-17.74,1.22,1.22,0,0,1,2.17.07c2.65,5.94,3.08,11.56,5.18,17.79.26.74.66,1.57,1.43,1.71s1.48-.59,1.93-1.29c1.55-2.4,7.5-13.45,10.5-16.19a1.46,1.46,0,0,1,2.4.7c1.64,6.8,1,18.41,3.11,19.8,1.33.89,11.83-11.53,16.46-11.53.21,0,.23.14.34.31,1.23,1.76-2.15,14-3.79,21.86-.24,1.14-3.08,18.11-3.83,17.47-3.86-3.26-11.1-7-20.27-9.34-18.53-4.78-29.29-4.42-48.32-2.39a4.07,4.07,0,0,1-2.7-.33,3.72,3.72,0,0,1-1.17-1.61C442.44,141.58,441.27,134.93,438.75,125.47Z" transform="translate(-310.45 -102.01)"/><path class="cls-11" d="M442,127.11a39.17,39.17,0,0,0,3.29,6c1.37,2.1,4.8,0,3.32-1.94s-3.19-3.37-4.29-5.4c-.85-1.56-3-.19-2.32,1.35Z" transform="translate(-310.45 -102.01)"/><path class="cls-11" d="M460,120.67c.28,3.07-1.73,7.4,1.18,9.85,2,1.64,5.21.14,4.46-2.6-.35-1.25-1.06-2.36-1.42-3.62s-.95-2.66-1.29-4c-.41-1.59-3.08-1.3-2.93.4Z" transform="translate(-310.45 -102.01)"/><path class="cls-11" d="M479.52,119.14c-.8,2.91-2.14,5.63-2.26,8.69-.15,3.54,5.37,3.54,5.49,0a44.64,44.64,0,0,0-.95-8.69c-.21-1.2-2-1-2.28,0Z" transform="translate(-310.45 -102.01)"/><path class="cls-11" d="M498.67,122.58c-1.22,2.37-3,4.5-3.6,7.14s3.35,4.56,4.51,1.9,1-5.27,1.8-7.9c.47-1.6-1.93-2.66-2.71-1.14Z" transform="translate(-310.45 -102.01)"/><path class="cls-11" d="M516.92,128.77c-2.23,2.82-8.9,4.87-6.5,9.65a2.7,2.7,0,0,0,4.19.54,5.48,5.48,0,0,0,1.16-2.08,21,21,0,0,1,1.38-2.33,24,24,0,0,0,2.36-4.27c.56-1.41-1.64-2.71-2.59-1.51Z" transform="translate(-310.45 -102.01)"/><path class="cls-6" d="M445.08,139.6a1.2,1.2,0,0,0,0-2.39,1.2,1.2,0,0,0,0,2.39Z" transform="translate(-310.45 -102.01)"/><path class="cls-6" d="M449.51,138.61a1.53,1.53,0,0,0,0-3.06,1.53,1.53,0,0,0,0,3.06Z" transform="translate(-310.45 -102.01)"/><path class="cls-6" d="M454.05,137.47a1.62,1.62,0,0,0,0-3.23,1.62,1.62,0,0,0,0,3.23Z" transform="translate(-310.45 -102.01)"/><path class="cls-6" d="M459.75,136.46a1.57,1.57,0,0,0,0-3.13,1.57,1.57,0,0,0,0,3.13Z" transform="translate(-310.45 -102.01)"/><path class="cls-6" d="M465.92,136a1.62,1.62,0,0,0,0-3.23,1.62,1.62,0,0,0,0,3.23Z" transform="translate(-310.45 -102.01)"/><path class="cls-6" d="M471.79,135.82a1.74,1.74,0,0,0,0-3.48,1.74,1.74,0,0,0,0,3.48Z" transform="translate(-310.45 -102.01)"/><path class="cls-6" d="M478.21,136.07a1.65,1.65,0,0,0,0-3.3,1.65,1.65,0,0,0,0,3.3Z" transform="translate(-310.45 -102.01)"/><path class="cls-6" d="M484.54,137a1.93,1.93,0,0,0,0-3.86,1.93,1.93,0,0,0,0,3.86Z" transform="translate(-310.45 -102.01)"/><path class="cls-6" d="M490.86,138.18c2.57,0,2.57-4,0-4s-2.57,4,0,4Z" transform="translate(-310.45 -102.01)"/><path class="cls-6" d="M497.3,139.87a1.7,1.7,0,0,0,0-3.39,1.7,1.7,0,0,0,0,3.39Z" transform="translate(-310.45 -102.01)"/><path class="cls-6" d="M502.72,142c2.6,0,2.6-4,0-4s-2.59,4,0,4Z" transform="translate(-310.45 -102.01)"/><path class="cls-6" d="M507.6,143.89a1.83,1.83,0,0,0,0-3.65,1.83,1.83,0,0,0,0,3.65Z" transform="translate(-310.45 -102.01)"/><path class="cls-6" d="M512.91,145l.1,0a1.2,1.2,0,0,0,0-2.3l-.1,0a1.2,1.2,0,1,0,0,2.34Z" transform="translate(-310.45 -102.01)"/><path class="cls-6" d="M517.25,146.16a.11.11,0,0,0,0-.21.11.11,0,0,0,0,.21Z" transform="translate(-310.45 -102.01)"/><path class="cls-6" d="M516.91,147.29a1.68,1.68,0,0,0,0-3.36,1.68,1.68,0,0,0,0,3.36Z" transform="translate(-310.45 -102.01)"/><path class="cls-5" d="M520.48,152.24c.76.76,1.49,1.53,2.24,2.3.54.56,1.56,1.29,2.28.57s-.08-1.71-.64-2.22c-.8-.71-1.57-1.45-2.37-2.16-1-.9-2.5.54-1.51,1.51Z" transform="translate(-310.45 -102.01)"/><path class="cls-5" d="M525.53,149.85a13.54,13.54,0,0,1,1.78,1.93,4.63,4.63,0,0,0,2.25,1.83,1,1,0,0,0,1.28-1c.21-2-2.49-3.62-4.06-4.39-1-.49-2.18.8-1.25,1.61Z" transform="translate(-310.45 -102.01)"/><path class="cls-5" d="M520.86,159.27a9.9,9.9,0,0,0,1.6,2.83c.91,1.09,2.76-.06,2.35-1.36a23.2,23.2,0,0,0-1.28-2.6c-.69-1.5-3.31-.41-2.67,1.13Z" transform="translate(-310.45 -102.01)"/><path class="cls-5" d="M529.26,159.19c.53,1.37,1.18,3,2.61,3.64.78.33,1.87-.22,1.55-1.2-.39-1.26-1.38-2.19-2-3.34s-2.63-.36-2.16.9Z" transform="translate(-310.45 -102.01)"/><path class="cls-5" d="M527.22,166.91a19.34,19.34,0,0,0,1.12,3.4,2.08,2.08,0,0,0,1.2,1.28c-.57-.22.27.19.32.2a1.19,1.19,0,0,0,.62,0c1.1-.31,1.07-1.94.76-2.74-.44-1.11-1.16-2.09-1.64-3.18-.61-1.4-2.71-.37-2.38,1Z" transform="translate(-310.45 -102.01)"/><path class="cls-5" d="M527.06,178.36c.49,1.45,1.34,3.42,2.74,4.19a1.14,1.14,0,0,0,1.66-1.28c-.44-1.42-1.84-2.39-2.56-3.68a1,1,0,0,0-1.84.77Z" transform="translate(-310.45 -102.01)"/><path class="cls-5" d="M535.36,169.42c.21,1.22.22,2.6,1.28,3.43a1.45,1.45,0,0,0,1.71.22,1.42,1.42,0,0,0,.64-1.59c-.33-.93-.76-1.83-1.13-2.75a1.3,1.3,0,0,0-2.5.69Z" transform="translate(-310.45 -102.01)"/><path class="cls-5" d="M536.49,179.6c.23,1.33-.22,3,.45,4.22a1.17,1.17,0,0,0,2,0,3.68,3.68,0,0,0,.25-2.25,14.3,14.3,0,0,0-.39-2.61c-.39-1.52-2.57-.86-2.31.64Z" transform="translate(-310.45 -102.01)"/><path class="cls-5" d="M536.57,161.6c.27,1.19.12,2.35,1,3.31s2.12-.06,1.91-1.11A7.54,7.54,0,0,0,538,161a.8.8,0,0,0-1.46.61Z" transform="translate(-310.45 -102.01)"/><path class="cls-5" d="M533,187.7c0,1,.08,2,.17,3,.06.66.41,1.69,1.26,1.69s1.18-1,1.23-1.69a10.77,10.77,0,0,0-.72-3.25,1,1,0,0,0-1.94.26Z" transform="translate(-310.45 -102.01)"/><path class="cls-5" d="M528.78,193.33c-.44,1.57-.68,4.09.72,5.25a1.39,1.39,0,0,0,2.3-.61c.62-1.57-.75-3.1-1-4.64-.16-1.1-1.8-.94-2.06,0Z" transform="translate(-310.45 -102.01)"/><path class="cls-5" d="M539.57,190.24c.24,1.18.32,3.07,1.6,3.62a.63.63,0,0,0,.76-.1c.94-1.16.21-2.84,0-4.16-.25-1.54-2.65-.9-2.35.64Z" transform="translate(-310.45 -102.01)"/><path class="cls-5" d="M536.92,200.63c.43,1,.37,2.32,1.6,2.71a.59.59,0,0,0,.72-.4c.43-1-.18-2.39-.58-3.33-.51-1.19-2.24-.17-1.74,1Z" transform="translate(-310.45 -102.01)"/><path class="cls-5" d="M531.38,206a8.16,8.16,0,0,0,.66,3.59,1,1,0,0,0,1.8-.24c.25-1.12-.33-2.21-.28-3.35.05-1.41-2.13-1.4-2.18,0Z" transform="translate(-310.45 -102.01)"/><path class="cls-5" d="M542.25,205.59c.08.58.18,1.16.31,1.74a17.07,17.07,0,0,0,.33,1.76,1,1,0,0,0,.7.7c.09,0,.18,0,.26,0a1,1,0,0,0,1-.74c.32-1.24-.36-2.56-.59-3.77s-2.13-.86-2,.27Z" transform="translate(-310.45 -102.01)"/><path class="cls-5" d="M538,211.82c.19,1.05,0,2.16.47,3.13a1.13,1.13,0,0,0,2.06-.27,11.16,11.16,0,0,0-.23-3.5c-.31-1.51-2.58-.87-2.3.64Z" transform="translate(-310.45 -102.01)"/><path class="cls-5" d="M530.92,215.84a5.59,5.59,0,0,0,1.18,3,1.15,1.15,0,0,0,1.14.3c1.64-.57.36-2.8.18-4-.25-1.64-2.79-.95-2.5.7Z" transform="translate(-310.45 -102.01)"/><path class="cls-5" d="M543.1,216.37a2.78,2.78,0,0,0,1,2.09.94.94,0,0,0,1.41-.81c0-.54-.23-1-.27-1.57a1.08,1.08,0,1,0-2.14.29Z" transform="translate(-310.45 -102.01)"/><path class="cls-11" d="M481.25,223.14a7.35,7.35,0,1,0-7.34-7.34,7.42,7.42,0,0,0,7.34,7.34Z" transform="translate(-310.45 -102.01)"/><path class="cls-11" d="M460,285.58a2,2,0,0,0,0-3.9,2,2,0,0,0,0,3.9Z" transform="translate(-310.45 -102.01)"/><path class="cls-11" d="M464.47,289.23a1.61,1.61,0,0,0,0-3.22,1.61,1.61,0,0,0,0,3.22Z" transform="translate(-310.45 -102.01)"/><path class="cls-11" d="M469.58,291.16a1.77,1.77,0,0,0,0-3.53,1.77,1.77,0,0,0,0,3.53Z" transform="translate(-310.45 -102.01)"/><path class="cls-11" d="M475.33,292.22a1.72,1.72,0,0,0,0-3.44,1.72,1.72,0,0,0,0,3.44Z" transform="translate(-310.45 -102.01)"/><path class="cls-11" d="M480.88,292.57a1.85,1.85,0,0,0,0-3.69,1.85,1.85,0,0,0,0,3.69Z" transform="translate(-310.45 -102.01)"/><path class="cls-11" d="M486.43,292.39a1.89,1.89,0,0,0,0-3.77,1.89,1.89,0,0,0,0,3.77Z" transform="translate(-310.45 -102.01)"/><path class="cls-11" d="M492.19,291.27a1.66,1.66,0,0,0,0-3.31,1.66,1.66,0,0,0,0,3.31Z" transform="translate(-310.45 -102.01)"/><path class="cls-11" d="M498,289.55a1.93,1.93,0,0,0,0-3.85,1.93,1.93,0,0,0,0,3.85Z" transform="translate(-310.45 -102.01)"/><path class="cls-11" d="M480.57,301.82a4,4,0,1,0-4-4,4,4,0,0,0,4,4Z" transform="translate(-310.45 -102.01)"/><path class="cls-9" d="M404.94,356a63.68,63.68,0,0,0-.32-17.6c-1.78-.12-6.73-20.68-7.7-21.44-8-6.27-7.94,5.85-6.62-1.57.44-2.52,5.14-5.24,3.51-7.63-1-.55-5.43-1.1-10.64,1.57-4.56,2.34-6.1,5.85-7.12,9.1a9.07,9.07,0,0,0,2.68,9.58c.94.91,2.08,1.77,2.94,2.7,2,2.22,2.2,4.75,2.52,7.19a112.36,112.36,0,0,0,4.25,17.24,2.32,2.32,0,0,0,1.39,1.7,8.84,8.84,0,0,0,2.36.44c3.05.27,6.14.44,9.23.49a7,7,0,0,0,2.39-.23A1.63,1.63,0,0,0,404.94,356Z" transform="translate(-310.45 -102.01)"/><path class="cls-11" d="M389.15,216.94c-.27-6.86-.15-10.4-.27-14.5,0-1.51,1.56-3.11,2.33-2.33s2.88,28.57,7,27.84c1.42-.25-.14-17.39.39-24.74.13-1.89,1.1-4,2.11-3.8,1.36.28,2.41,23.62,4.75,26.73,1.17,1.56,2.44-15.19,3.89-22.54.38-1.93,1.67-4.86,2.76-3.42.73,1,1.24,6.14,1.51,21.81.14,8.44.77,10.24-1.56,13.86s-3.49,1.3-6.6,3.76c-.8.62-1,3.87-1.09,4.93-.49,8.15-.12,14.63-.59,22.78-.39,6.44,3.13,54.95,3.51,60.57a6.79,6.79,0,0,1-.51,3.95c-.66,1.17-2.06,3.31-3-12.2-2.33-38.46-2.6-44.55-2.06-77.89a3.16,3.16,0,0,0-2.6-3.05c-1.95-.52-3.88,1.17-7.64-4.27C390.05,232.37,389.46,225.54,389.15,216.94Z" transform="translate(-310.45 -102.01)"/><path class="cls-10" d="M385.3,290.2c1.23-1.92,4.11-4,6.4-4,5.08,0,8.45.68,13.85,1.36a2.83,2.83,0,0,1,2.23,1.38c.25.5,1.17,2.86-2.48,3.94a12.91,12.91,0,0,1-3.5.43c-2.81.07-9.73-1.05-9.94,0-.26,1.3,12.34,2.14,16.5,4.71a3.05,3.05,0,0,1,1.25,1.16c.73,1.51-.34,2.84-1.95,3.33-3.76,1.14-9-2-14.67-2.14a.41.41,0,0,0-.18.79c5.25,2.23,12.68,4.37,15.37,8.6.91,1.42-.65,3.11-2.39,3.27-2.58.25-10.05-4.44-11.72-4.05-.46.11-.52,1.17,1.55,2.2a37.8,37.8,0,0,1,7.17,4.83,3,3,0,0,1,.88,3.25c-.61,1.63-3,.69-4.42.6s-5.18-2.21-7.13-3.37c-1.6-.94-1,2.44-.88,4.29.21,2.87-.12,5.73-1.53,6.24-2.85,1-5.87-.75-8.37-2.44a7,7,0,0,1-2.15-1.92,17.54,17.54,0,0,1-1.83-4.48C377.1,303.19,379.56,299.24,385.3,290.2Z" transform="translate(-310.45 -102.01)"/><path class="cls-13" d="M401.77,289.36a3.52,3.52,0,0,0,2.46,2,6.81,6.81,0,0,0,1.72.39,2.37,2.37,0,0,0,1-.08c.16,0,.94-.41.47-.21a1.59,1.59,0,0,0,1.07-1.88c.16.72-.22-.7-.23-.73a3,3,0,0,0-.56-.71,4,4,0,0,0-1.81-.86,4.49,4.49,0,0,0-3.38.3,1.58,1.58,0,0,0-.7,1.75Z" transform="translate(-310.45 -102.01)"/><path class="cls-13" d="M405,300.38a4.46,4.46,0,0,0,4,1.57,2.29,2.29,0,0,0,1-3.81,5,5,0,0,0-3.61-1.2,2.13,2.13,0,0,0-1.75,1,2,2,0,0,0,.32,2.44Z" transform="translate(-310.45 -102.01)"/><path class="cls-13" d="M403.48,309c0,.18,0,.8,0,.24,0,.06.41,1.29.2.78a5.47,5.47,0,0,0,1.17,1.76,2.9,2.9,0,0,0,2.71,1,2,2,0,0,0,1.59-1.48,2.69,2.69,0,0,0-.72-2.44c-.15-.12-.32-.24-.46-.36.17.15.16.14-.05,0a5.75,5.75,0,0,0-1-.67c-1.28-.62-3.28-.48-3.47,1.25Z" transform="translate(-310.45 -102.01)"/><path class="cls-13" d="M399.24,316.83a5,5,0,0,0,.81,1.6,3.41,3.41,0,0,0,2.12,1.62c1.42.21,3-.87,2.48-2.48s-2.6-3.29-4.33-2.65a1.58,1.58,0,0,0-1.08,1.91Z" transform="translate(-310.45 -102.01)"/><path class="cls-6" d="M385.23,289.85a3.82,3.82,0,0,0-.32,1.72.9.9,0,0,0,1.76.24c.2-.46.27-1,.44-1.44.4-1.19-1.48-1.7-1.88-.52Z" transform="translate(-310.45 -102.01)"/><path class="cls-6" d="M384.51,296.21a3,3,0,0,0-.39,2.5c.45,1.22,2.49,1.13,2.4-.33a9.28,9.28,0,0,1-.12-1.66c.1-1-1.42-1.34-1.89-.51Z" transform="translate(-310.45 -102.01)"/><path class="cls-6" d="M383.69,303.46a2.69,2.69,0,0,0,.37,2.51,1,1,0,0,0,1.6-.42c.09-.63-.12-1.21-.09-1.84,0-1.06-1.67-1.32-1.88-.25Z" transform="translate(-310.45 -102.01)"/><path class="cls-6" d="M383.92,312a3.19,3.19,0,0,0,1.34,2,1.09,1.09,0,0,0,1.58-1.21,15.52,15.52,0,0,0-.88-1.66c-.54-1.16-2.41-.33-2,.87Z" transform="translate(-310.45 -102.01)"/><path class="cls-11" d="M392.57,274.59a8.85,8.85,0,0,0,6.84,3.64,6.64,6.64,0,0,0,2.22-.22,1.29,1.29,0,0,0,.58-.3,1.35,1.35,0,0,0,0-1.44c-.61-1.38-1.19-3.76-4.17-5.45-3.54-2-6.31-2.72-8.11-2.54a2.56,2.56,0,0,0-.11.24C390.89,270.4,391.3,272.75,392.57,274.59Z" transform="translate(-310.45 -102.01)"/><path class="cls-11" d="M403.25,284.13a.87.87,0,0,1,0-.53c.41-2.64,2.86-4.54,5.43-5.31s5.28-.68,7.93-1a20.47,20.47,0,0,1-2.19,3.42,12.13,12.13,0,0,1-1.53,1.67,9.69,9.69,0,0,1-9.09,2A.81.81,0,0,1,403.25,284.13Z" transform="translate(-310.45 -102.01)"/><path class="cls-9" d="M411.59,383.45c4.73-6,4.8-16.13,4.53-19.61a43.41,43.41,0,0,0-1.81-11c-1.72-5-5.16-9.19-8.52-13.27-1.18-1.42-2.41-4.68-3.85-5.83-5.77-4.62-11.45,1.38-18.82.92-.4,2.29-1.9,4.15-3.46,5.87-4.39,4.83-13.31,7-17.08,17.49-4.21,11.72-.33,18.34,7.12,28.06,4.67,6.08,17.36,5.13,24.22,5C401.12,390.93,407.11,389.09,411.59,383.45Z" transform="translate(-310.45 -102.01)"/><path class="cls-13" d="M403.25,349.93a74.46,74.46,0,0,1,1.25,18.73c-.25,5.38-5,8.93-4.64,14,.21,2.91,4.27,4.51,5.83,1.58,2.81-5.34,5.21-9.28,5.11-15.57a52.18,52.18,0,0,0-4.6-20c-.79-1.76-3.31-.45-2.95,1.25Z" transform="translate(-310.45 -102.01)"/><path class="cls-13" d="M391.78,348.18c-2.89,5.22-3.56,10.78-3.94,16.67-.35,5.7,1.49,11.27.94,16.93-.44,4.43,6.65,4.48,7,0,.34-4.94-1.2-9.73-1.4-14.65-.25-6.06.34-12.09.39-18.15a1.6,1.6,0,0,0-3-.8Z" transform="translate(-310.45 -102.01)"/><path class="cls-13" d="M380.68,347.17c-4.15,5.54-5.4,11.86-5.79,18.68-.31,5.24,1,13.57,5.93,16.31a1.86,1.86,0,0,0,2.7-1.09c1.71-4.65-2.25-10.24-2.43-15.22a62.11,62.11,0,0,1,2.4-17.5c.48-1.79-1.81-2.53-2.81-1.18Z" transform="translate(-310.45 -102.01)"/><path class="cls-11" d="M403.92,340.33a.17.17,0,0,1,0-.07,1.27,1.27,0,0,0-.89-.89H403a1.38,1.38,0,1,0,1,1Z" transform="translate(-310.45 -102.01)"/><path class="cls-11" d="M398.46,342.16a1.47,1.47,0,0,0,0-2.94,1.47,1.47,0,0,0,0,2.94Z" transform="translate(-310.45 -102.01)"/><path class="cls-11" d="M393.79,342a1.3,1.3,0,0,0,0-2.6,1.3,1.3,0,0,0,0,2.6Z" transform="translate(-310.45 -102.01)"/><path class="cls-11" d="M389.38,342.12a1.56,1.56,0,0,0,0-3.12,1.56,1.56,0,0,0,0,3.12Z" transform="translate(-310.45 -102.01)"/><path class="cls-11" d="M384.72,341.74a1.44,1.44,0,0,0,0-2.87,1.44,1.44,0,0,0,0,2.87Z" transform="translate(-310.45 -102.01)"/><path class="cls-13" d="M481.78,352.11c2.7-3.89,2.09-9,2.22-13.58.11-4.15-6.48-4.16-6.44,0,0,4.55.34,9.43,2.28,13.58.38.83,1.5.62,1.94,0Z" transform="translate(-310.45 -102.01)"/><path class="cls-13" d="M481.07,362c-1.54,2.2-1.59,5.14-1.67,7.76-.1,3.24-.55,6.74.86,9.72a2.73,2.73,0,0,0,4.7,0c1.23-2.75.78-5.57.45-8.53s-.35-6.38-2-8.95a1.38,1.38,0,0,0-2.35,0Z" transform="translate(-310.45 -102.01)"/><path class="cls-13" d="M477.41,356c-2.31-1.79-6.09-1.74-8.83-1.1-3.06.7-2.44,5.94.75,5.54,2.59-.32,6-.93,8.08-2.63a1.29,1.29,0,0,0,0-1.81Z" transform="translate(-310.45 -102.01)"/><path class="cls-13" d="M486.91,356.11c.78,1.23,2.4,1.47,3.74,1.63,1.67.19,3.7.67,5.33.08a2.21,2.21,0,0,0,1-3.65c-1.39-1.39-3.34-1.44-5.2-1.26-1.58.15-3.94.46-4.83,2a1.3,1.3,0,0,0,0,1.24Z" transform="translate(-310.45 -102.01)"/><path class="cls-11" d="M482.48,358.45a1.41,1.41,0,0,0,0-2.82,1.41,1.41,0,0,0,0,2.82Z" transform="translate(-310.45 -102.01)"/><path class="cls-11" d="M431.15,315.4a1.56,1.56,0,0,0,0-3.11,1.56,1.56,0,0,0,0,3.11Z" transform="translate(-310.45 -102.01)"/><path class="cls-11" d="M422.54,333.34c0,.05,0,.09.07.14.57,1.29,2.51.81,2.82-.4l0-.16a1.59,1.59,0,1,0-2.92.42Z" transform="translate(-310.45 -102.01)"/><path class="cls-11" d="M417.14,324.68a1.3,1.3,0,0,0,0-2.6,1.3,1.3,0,0,0,0,2.6Z" transform="translate(-310.45 -102.01)"/><path class="cls-11" d="M407.8,342.1a1.61,1.61,0,0,0,0-3.22,1.61,1.61,0,0,0,0,3.22Z" transform="translate(-310.45 -102.01)"/><path class="cls-11" d="M415.09,344.85l.16.07a1.29,1.29,0,0,0,1.92-1.11.76.76,0,0,0,0-.15,1.39,1.39,0,1,0-2.09,1.19Z" transform="translate(-310.45 -102.01)"/><path class="cls-11" d="M435.54,329.19l.06.27a1.58,1.58,0,0,0,3,0,2.68,2.68,0,0,1,.07-.27,1.64,1.64,0,1,0-3.16,0Z" transform="translate(-310.45 -102.01)"/><path class="cls-11" d="M448.3,318c2.45,0,2.45-3.82,0-3.82a1.91,1.91,0,0,0,0,3.82Z" transform="translate(-310.45 -102.01)"/><path class="cls-11" d="M450.92,330.8a1.6,1.6,0,0,0,0-3.19,1.6,1.6,0,0,0,0,3.19Z" transform="translate(-310.45 -102.01)"/><path class="cls-11" d="M469.62,317.31a1.53,1.53,0,0,0,0-3.06,1.53,1.53,0,0,0,0,3.06Z" transform="translate(-310.45 -102.01)"/><path class="cls-11" d="M449.29,342a2,2,0,0,0-.56,1.85,1.31,1.31,0,0,0,1.26,1,1.33,1.33,0,0,0,1.3-1.31,1.37,1.37,0,0,1,0-.19l-.18.67s0-.05.05-.08c1.26-1.2-.73-3.18-1.89-1.9Z" transform="translate(-310.45 -102.01)"/><path class="cls-11" d="M441.15,358.24a1.47,1.47,0,0,0,0-2.93,1.47,1.47,0,0,0,0,2.93Z" transform="translate(-310.45 -102.01)"/><path class="cls-11" d="M477,328.3a1.91,1.91,0,0,0,0-3.82,1.91,1.91,0,0,0,0,3.82Z" transform="translate(-310.45 -102.01)"/><path class="cls-11" d="M416.35,310l.14.09a1.49,1.49,0,0,0,2.22-1.28,1,1,0,0,0,0-.15,1.55,1.55,0,1,0-2.33,1.34Z" transform="translate(-310.45 -102.01)"/><path class="cls-11" d="M459.3,308.66a1.49,1.49,0,0,0,0-3,1.49,1.49,0,0,0,0,3Z" transform="translate(-310.45 -102.01)"/><path class="cls-11" d="M485.26,315.65a1.85,1.85,0,0,0,0-3.69,1.85,1.85,0,0,0,0,3.69Z" transform="translate(-310.45 -102.01)"/><path class="cls-11" d="M496.13,380.21a1.42,1.42,0,0,0-.3,1c.08,1.56,2.4,2,2.8.38a.38.38,0,0,1,0-.1l-.38.64.14-.11c1.55-1.23-1-3.66-2.29-1.78Z" transform="translate(-310.45 -102.01)"/><path class="cls-11" d="M441.3,309.12a1.3,1.3,0,0,0,0-2.6,1.3,1.3,0,0,0,0,2.6Z" transform="translate(-310.45 -102.01)"/><path class="cls-11" d="M426.64,355.92a1.74,1.74,0,0,0,0-3.48,1.74,1.74,0,0,0,0,3.48Z" transform="translate(-310.45 -102.01)"/><path class="cls-11" d="M433.34,343.36a1.87,1.87,0,0,0,0-3.73,1.87,1.87,0,0,0,0,3.73Z" transform="translate(-310.45 -102.01)"/><path class="cls-11" d="M509.87,368.84a1.4,1.4,0,0,1-.1.16,1.67,1.67,0,0,0,1.87,2.42,1.55,1.55,0,0,0,1.05-.93,1.66,1.66,0,0,0-.59-2.23,1.64,1.64,0,0,0-2.23.58Z" transform="translate(-310.45 -102.01)"/><path class="cls-11" d="M461.1,331.61l.29,0a1.68,1.68,0,0,0,1.64-1.25,1.74,1.74,0,0,0-.78-1.92l-.25-.18a1.78,1.78,0,1,0-.9,3.32Z" transform="translate(-310.45 -102.01)"/><path class="cls-11" d="M544.09,407.89a1.23,1.23,0,0,0,0,.2,1.41,1.41,0,0,0,1,1.31,1.35,1.35,0,0,0,1.65-.95.65.65,0,0,0,0-.19c.45-2.16-2.95-2.21-2.71-.37Z" transform="translate(-310.45 -102.01)"/><path class="cls-11" d="M422.16,366a1.48,1.48,0,0,1,0,.21c0,1.81,2.71,1.79,2.81,0a1.48,1.48,0,0,1,0-.21c.09-1.8-2.78-1.81-2.81,0Z" transform="translate(-310.45 -102.01)"/><path class="cls-11" d="M463.88,408.2c2.58,0,2.58-4,0-4s-2.58,4,0,4Z" transform="translate(-310.45 -102.01)"/><path class="cls-11" d="M378.49,397.38a1.68,1.68,0,0,0,0-3.36,1.68,1.68,0,0,0,0,3.36Z" transform="translate(-310.45 -102.01)"/><path class="cls-11" d="M390.22,395.28l.11,0c.56.22,1-.4.91-.9a.65.65,0,0,0,0-.13.8.8,0,0,0-1.34-.36.82.82,0,0,0,.36,1.35Z" transform="translate(-310.45 -102.01)"/><path class="cls-6" d="M356,200.17c0,.84-.33,2-.33,2.86a23.58,23.58,0,0,0,.09,2.52,11.48,11.48,0,0,0,3.49,7.5c-1.94.11-6.82.11-8.75,0a11.53,11.53,0,0,0,3.49-7.5,23.58,23.58,0,0,0,.09-2.52c0-.84-.34-2-.33-2.86Z" transform="translate(-310.45 -102.01)"/><path class="cls-6" d="M355.41,202.25c.81.12,1.27.9,2.76,2.51s2.68,3,5.7,3.38a5.45,5.45,0,0,0,4.53-1.88,10.21,10.21,0,0,0,1.56-3.61,9.25,9.25,0,0,0-.79-7,4.85,4.85,0,0,0-6.28-1.94c-1,.62-1.39,1.38-2.35,1.56a.41.41,0,0,1-.47-.51c.38-1.47,1.42-1.64,1.91-3.39.57-2.06.88-3.66-2.06-6.25-2.25-2-7.72-1.79-10.09,0s-2.65,3.5-2.07,5.57c.45,1.62,1.38,2.37,1.81,3.74a.58.58,0,0,1-.76.73c-.7-.28-1.08-.92-2-1.45a4.88,4.88,0,0,0-6.3,1.94,9.34,9.34,0,0,0-.79,7,10.42,10.42,0,0,0,1.57,3.61,5.45,5.45,0,0,0,4.53,1.88c3-.37,4.35-1.92,5.69-3.38,1.5-1.61,1.95-2.39,2.78-2.51Z" transform="translate(-310.45 -102.01)"/><path class="cls-6" d="M352.11,170a16.9,16.9,0,0,1-14.34-7q-5.2-7-5.2-17.37,0-11.07,5.39-18.06a17,17,0,0,1,14.11-7,17.3,17.3,0,0,1,14,6.68q5.47,6.67,5.48,17.63a30.45,30.45,0,0,1-4.11,16q-4.1,6.85-10.49,8.52l0,.66c0,3.47,2.11,5.22,6.32,5.22a29.21,29.21,0,0,0,5.46-.46v4.77a16.49,16.49,0,0,1-4.91.73c-3.62,0-6.43-.77-8.39-2.31S352.34,173.82,352.11,170Zm0-4.83q6.23,0,9.74-5.67t3.5-14.61q0-9.18-3.62-14.3a11.28,11.28,0,0,0-9.65-5.11q-6.09,0-9.67,5.53t-3.58,14.47q0,8.73,3.62,14.21T352.07,165.18Z" transform="translate(-310.45 -102.01)"/><path class="cls-6" d="M604.29,520c0-.83.33-2,.33-2.85a21.15,21.15,0,0,0-.1-2.52,11.35,11.35,0,0,0-3.48-7.5c1.94-.12,6.81-.12,8.76,0a11.41,11.41,0,0,0-3.49,7.5,23.49,23.49,0,0,0-.09,2.52c0,.83.33,2,.33,2.85Z" transform="translate(-310.45 -102.01)"/><path class="cls-6" d="M604.88,518c-.82-.13-1.28-.91-2.77-2.52-1.34-1.45-2.68-3-5.7-3.38a5.43,5.43,0,0,0-4.52,1.89,10.19,10.19,0,0,0-1.57,3.6,9.33,9.33,0,0,0,.78,7,4.86,4.86,0,0,0,6.29,2c1.05-.63,1.39-1.39,2.35-1.57a.42.42,0,0,1,.47.52c-.38,1.46-1.42,1.64-1.9,3.38-.58,2.06-.89,3.67,2.05,6.26,2.25,2,7.73,1.79,10.09,0s2.65-3.51,2.08-5.57c-.45-1.63-1.39-2.37-1.82-3.74a.59.59,0,0,1,.76-.74c.7.29,1.07.92,2,1.46a4.85,4.85,0,0,0,6.28-2,9.33,9.33,0,0,0,.79-7,10.19,10.19,0,0,0-1.57-3.6,5.43,5.43,0,0,0-4.52-1.89c-3,.38-4.36,1.93-5.71,3.38-1.49,1.61-1.94,2.39-2.76,2.52Z" transform="translate(-310.45 -102.01)"/><path class="cls-6" d="M608.18,550.18a16.88,16.88,0,0,1,14.33,7q5.21,7,5.2,17.37,0,11.07-5.39,18.05a17,17,0,0,1-14.11,7,17.33,17.33,0,0,1-14-6.68q-5.48-6.69-5.47-17.64a30.5,30.5,0,0,1,4.1-16c2.75-4.57,6.24-7.42,10.51-8.53l0-.65q0-5.22-6.33-5.22a30,30,0,0,0-5.45.45v-4.76a16.33,16.33,0,0,1,4.9-.73q5.44,0,8.39,2.3C606.85,543.7,607.94,546.38,608.18,550.18Zm0,4.84q-6.23,0-9.73,5.67T595,575.3q0,9.18,3.64,14.3a11.28,11.28,0,0,0,9.64,5.11q6.09,0,9.66-5.53t3.59-14.47c0-5.83-1.22-10.56-3.62-14.22S612.24,555,608.21,555Z" transform="translate(-310.45 -102.01)"/><path class="cls-5" d="M431.51,591H362.35c-13.67,0-24.78-11.81-24.78-26.34V232.3a.77.77,0,0,1,1.54,0V564.62c0,13.67,10.43,24.79,23.24,24.79h69.16a.78.78,0,0,1,0,1.55Z" transform="translate(-310.45 -102.01)"/><path class="cls-5" d="M581.78,591H530.05a.78.78,0,1,1,0-1.55h51.73a.78.78,0,0,1,0,1.55Z" transform="translate(-310.45 -102.01)"/><path class="cls-5" d="M621.94,490.3a.77.77,0,0,1-.76-.77v-334c0-13.67-10.43-24.79-23.24-24.79h-68.2a.77.77,0,1,1,0-1.54h68.2c13.66,0,24.78,11.81,24.78,26.33v334A.78.78,0,0,1,621.94,490.3Z" transform="translate(-310.45 -102.01)"/><path class="cls-5" d="M434.55,130.78H380.93a.77.77,0,0,1,0-1.54h53.62a.77.77,0,1,1,0,1.54Z" transform="translate(-310.45 -102.01)"/></g></svg>