<svg xmlns="http://www.w3.org/2000/svg" xmlns:xlink="http://www.w3.org/1999/xlink" viewBox="0 0 342.76 520"><defs><style>.cls-1{fill:none;}.cls-2{fill:#b70027;}.cls-3{fill:#fff;}.cls-4{fill:#2d2d2d;}.cls-5{fill:#f70032;}.cls-6{fill:#990028;}.cls-7{fill:#ffd6a1;}.cls-8{fill:#0c0a35;}.cls-9{clip-path:url(#clip-path);}.cls-10{clip-path:url(#clip-path-2);}.cls-11{clip-path:url(#clip-path-3);}.cls-12{clip-path:url(#clip-path-4);}.cls-13{clip-path:url(#clip-path-5);}.cls-14{clip-path:url(#clip-path-6);}.cls-15{fill:#222272;}.cls-16{fill:#d6002b;}</style><clipPath id="clip-path" transform="translate(-308.58 -99.97)"><path class="cls-1" d="M499.79,212.69a80.7,80.7,0,0,0-23.15,11.95c-6,4.47-13.46,6.72-19.88,10.57s-19.67,9.73-19.49-2.38c0-1.94-4.84,1.58-6.77,1.82-1.56.22-2.67,1.54-3.59,2.79-2.5,3.38-4.32,5.3-3.76,9.46.53,3.83,2.78,7.52,5.08,10.62,2.41,3.26,4.32,8.16,6.17,11.77q5.14,10,10.28,20a16.39,16.39,0,0,0,3.58,5.18c1.61,1.37,4,2.06,5.87,1.11a9,9,0,0,0,2.51-2.33,77.12,77.12,0,0,1,14-13.32c11.71-8.43,25.9-12.52,38.83-19S535,244.55,538,230.45a30.74,30.74,0,0,0-4.29-23,7.34,7.34,0,0,0-3-2.9,7.84,7.84,0,0,0-4.58-.08C517,206.28,508.64,209.84,499.79,212.69Z"/></clipPath><clipPath id="clip-path-2" transform="translate(-308.58 -99.97)"><path class="cls-2" d="M419.29,240.39c1-3.18,5.28-14.15,16.85-19.14,3.44-1.48,6.83-3.49,10.57-3.19s7,2.33,10.13,4.3c5.43,3.41,11,7,14.49,12.38a51.6,51.6,0,0,1-28.71-5.07C435.91,234.61,427.5,239,419.29,240.39Z"/></clipPath><clipPath id="clip-path-3" transform="translate(-308.58 -99.97)"><path class="cls-2" d="M488.25,167.25q2.83,13.19,5.65,26.36c2,9.35,4,18.8,3.69,28.36a1.59,1.59,0,0,0,2,1.73c19.42-4,36.57-15.4,55-22.64a1.55,1.55,0,0,0,.59-2.51,58,58,0,0,1-15.45-31.63,1.55,1.55,0,0,0-1.58-1.34L490,167.17C488.6,167.21,487.29,166.22,488.25,167.25Z"/></clipPath><clipPath id="clip-path-4" transform="translate(-308.58 -99.97)"><path class="cls-1" d="M460.07,506.4a80.62,80.62,0,0,0,23.16-11.95c6-4.47,13.46-6.72,19.88-10.57s19.67-9.73,19.49,2.39c0,1.94,4.84-1.59,6.77-1.83,1.55-.21,2.66-1.53,3.59-2.79,2.49-3.37,4.32-5.31,3.74-9.46-.51-3.81-2.77-7.51-5.06-10.61-2.41-3.26-4.32-8.17-6.17-11.77q-5.15-10-10.29-20a16.24,16.24,0,0,0-3.57-5.19c-1.61-1.37-4-2.05-5.88-1.09a8.35,8.35,0,0,0-2.51,2.31,76.21,76.21,0,0,1-14,13.33c-11.7,8.43-25.9,12.52-38.83,18.94s-25.49,16.47-28.52,30.58a30.61,30.61,0,0,0,4.3,23,7.18,7.18,0,0,0,3,2.92,7.84,7.84,0,0,0,4.58.08C442.87,512.83,451.22,509.27,460.07,506.4Z"/></clipPath><clipPath id="clip-path-5" transform="translate(-308.58 -99.97)"><path class="cls-2" d="M540.58,478.7c-1,3.18-5.29,14.15-16.85,19.14-3.44,1.49-6.84,3.51-10.56,3.2s-7-2.33-10.14-4.31c-5.43-3.39-11-7-14.49-12.37a51.47,51.47,0,0,1,28.7,5.07C524,484.49,532.37,480.13,540.58,478.7Z"/></clipPath><clipPath id="clip-path-6" transform="translate(-308.58 -99.97)"><path class="cls-2" d="M471.61,551.85q-2.83-13.19-5.65-26.37c-2-9.34-4-18.78-3.68-28.36a1.58,1.58,0,0,0-2-1.72c-19.43,4-36.57,15.39-55.05,22.63a1.56,1.56,0,0,0-.58,2.51,58.12,58.12,0,0,1,15.44,31.63,1.6,1.6,0,0,0,1.59,1.36l48.14-1.6C471.26,551.88,472.58,552.87,471.61,551.85Z"/></clipPath></defs><g id="Layer_1" data-name="Layer 1"><path class="cls-3" d="M620.72,619.19H338.17a28.8,28.8,0,0,1-28.8-28.8V129.55a28.79,28.79,0,0,1,28.8-28.8H620.72c15.9,0,28.79,12.89,29.84,28.28V589.87C649.51,606.29,636.62,619.19,620.72,619.19Z" transform="translate(-308.58 -99.97)"/><path class="cls-4" d="M620.72,620H338.17a29.62,29.62,0,0,1-29.59-29.59V129.55A29.62,29.62,0,0,1,338.17,100H620.72a31,31,0,0,1,30.62,29V589.87C650.27,606.76,636.82,620,620.72,620ZM338.17,101.54a28,28,0,0,0-28,28V590.38a28.05,28.05,0,0,0,28,28H620.72c15.28,0,28-12.56,29.06-28.59V129a29.38,29.38,0,0,0-29.06-27.49Z" transform="translate(-308.58 -99.97)"/><path class="cls-5" d="M575.7,402.54c0-2,12.2-24.05,20.64-35,11-14.25,10.58-40.09,4.4-46.84-18-19.62-24-11.78-46.75-29.22-4.39-3.36-14.85-12.9-19.2-16.29-4.61-3.57,3.91-6.25-1.29-8.89-12.61-6.42-26.5-9.88-40.24-13.27A73,73,0,0,0,480,250.63a63.08,63.08,0,0,0-12.85,1c-17.1,2.64-41.15,15.13-55.45,24.86s-8.48,4.37-46.76,30.48c-18.36,12.52-16.08,44.32-13.5,50.9,7.13,18.15,35.9,38,37.3,46.36C437.4,412,575.7,417.28,575.7,402.54Z" transform="translate(-308.58 -99.97)"/><path class="cls-5" d="M384,317.19c0,2-12.2,24-20.65,35-11,14.25-10.57,40.1-4.39,46.86,17.94,19.62,24,11.76,46.75,29.22,4.38,3.36,14.84,12.89,19.2,16.28,4.6,3.57-3.9,6.24,1.28,8.9,12.62,6.42,26.5,9.86,40.25,13.26a71.11,71.11,0,0,0,13.31,2.41,63,63,0,0,0,12.85-1c17.09-2.63,41.15-15.13,55.45-24.87s8.47-4.37,46.75-30.47c18.37-12.53,16.09-44.32,13.5-50.91-7.13-18.13-35.89-37.94-37.29-46.34C522.27,307.67,384,302.44,384,317.19Z" transform="translate(-308.58 -99.97)"/><path class="cls-6" d="M453.29,304.25c4.32,3.42,10.77.93,15.09-2.5s8.39-7.91,13.88-8.51,10.44,2.79,15.85,3.33a15.55,15.55,0,0,0,12.4-4.47c2.39-2.43,4-5.68,7-7.39,4.93-2.85,11.15-.23,16.82-.72,3.86-.32,9.51-3.6,12-6.55a2.91,2.91,0,0,0,.86-1.65c.09-1.2-1-2.2-2.1-2.75-3.27-1.63-5.86-2.94-15.47-14-3-3.49-3.54-8.87-7.24-11.64-3.19-2.37-7.39-2.79-11.36-3a214.6,214.6,0,0,0-56.13,4.3c-7.29,1.54-14.58,3.49-21.2,6.92a104.22,104.22,0,0,0-14.34,9.6c-8.65,6.51-21.82,14.17-26.48,23.94,4.3-3.44,13.13-4.09,18.51-2.9,2.49.53,6.27.21,7.62,2.36,1.06,1.66,1.3,3.7,2.12,5.48a9.38,9.38,0,0,0,10.55,5c3.58-.93,6.57-4,10.26-4s6.42,3,8.54,5.87A15.92,15.92,0,0,0,453.29,304.25Z" transform="translate(-308.58 -99.97)"/><path class="cls-7" d="M507.63,173c-3.74-6-11.86-7.17-18.93-7.73-12.33-1-25.13-1.87-36.66,2.58-4.25,1.65-8.44,4.24-10.41,8.33-1.12,2.33-1.43,5-2.11,7.44-1.24,4.63-3.75,8.82-6.22,12.93q-7.12,11.79-14.21,23.57a2.88,2.88,0,0,0-.62,1.81c.18,1.57,2.38,1.77,3.94,1.52l16.94-2.66c-.31,2.79-2.48,5.14-2.79,7.94-.58,5.29-2.56,9.36.08,14,3.24,5.71,13.95,10.19,20.44,9.23s12.3-4.6,17.54-8.56a125.25,125.25,0,0,0,27.05-28.24,46.83,46.83,0,0,0,6.08-11.18c2-5.89,2.12-12.27,2.16-18.5C510,181.16,509.91,176.61,507.63,173Z" transform="translate(-308.58 -99.97)"/><path class="cls-2" d="M499.79,212.69a80.7,80.7,0,0,0-23.15,11.95c-6,4.47-13.46,6.72-19.88,10.57s-19.67,9.73-19.49-2.38c0-1.94-4.84,1.58-6.77,1.82-1.56.22-2.67,1.54-3.59,2.79-2.5,3.38-4.32,5.3-3.76,9.46.53,3.83,2.78,7.52,5.08,10.62,2.41,3.26,4.32,8.16,6.17,11.77q5.14,10,10.28,20a16.39,16.39,0,0,0,3.58,5.18c1.61,1.37,4,2.06,5.87,1.11a9,9,0,0,0,2.51-2.33,77.12,77.12,0,0,1,14-13.32c11.71-8.43,25.9-12.52,38.83-19S535,244.55,538,230.45a30.74,30.74,0,0,0-4.29-23,7.34,7.34,0,0,0-3-2.9,7.84,7.84,0,0,0-4.58-.08C517,206.28,508.64,209.84,499.79,212.69Z" transform="translate(-308.58 -99.97)"/><path class="cls-6" d="M447.79,162.39a5.67,5.67,0,0,1-.15-2.53,69.48,69.48,0,0,1,1.26-7c1.76-7.92,3.38-18.24,10.57-23.36a30.58,30.58,0,0,1,7.91-3.59c6.1-2.1,13.05-4.71,19.15-6.82-1-1.53-1.39-2.88-2.29-4.3a2.57,2.57,0,0,1,.12-2.87,49.36,49.36,0,0,0,3.76-6.46,1,1,0,0,1,1.85,0,48.13,48.13,0,0,0,3.22,6,3.4,3.4,0,0,1,.39,3.23,20.3,20.3,0,0,0-1.52,4.5c.12.33,13.84,4.19,17.63,5.56,6.78,2.45,13.94,5.17,18.34,10.89,2.35,3,3.71,6.69,5.05,10.28L537.19,157l-30.65,1.75c-4.13.22-8.27.45-12.41.49-3.19,0-6.38-.12-9.58,0-11.85.47-23.47,4.34-35.32,3.87a1.66,1.66,0,0,1-1.09-.41C447.77,162.36,447.3,162.5,447.79,162.39Z" transform="translate(-308.58 -99.97)"/><path class="cls-3" d="M453.31,191a23,23,0,0,1,13.53-7.06c8.69-1.5,12,1.45,15.68,5A30.43,30.43,0,0,1,461,193.74,19.74,19.74,0,0,1,453.31,191Z" transform="translate(-308.58 -99.97)"/><path class="cls-8" d="M464,186.55a5.15,5.15,0,0,0-.52,3.7c.37,1.88,1.83,2.79,3.44,3.46,1.89.78,4.26-.49,5.21-2.12a4.72,4.72,0,0,0-.72-5.57,3.15,3.15,0,0,0-1.06-.89c-1.4-.58-1.49-.61-.25-.11.54.56,1.09,1.09,1.63,1.63,0,0-.05-.08-.08-.1a4.55,4.55,0,0,0-3.82-2.2,4.4,4.4,0,0,0-3.83,2.2Z" transform="translate(-308.58 -99.97)"/><g class="cls-9"><path class="cls-8" d="M430.15,224.71c-.38,8.23-1.6,16.35-1.57,24.6s1,16.63,1.24,25c0,.7,1.14.91,1.27.16a94.18,94.18,0,0,0,1.2-22c-.39-9.26.39-18.49-.17-27.73a1,1,0,0,0-2,0Z" transform="translate(-308.58 -99.97)"/><path class="cls-8" d="M438.68,222.56c-.32,5.78-1.53,11.46-1.83,17.26-.37,7.13,0,14.3-.27,21.45-.41,12.44-3.32,26.56-.09,38.74a.89.89,0,0,0,1.71,0c2.42-11.35,1.54-24.17,1.77-35.78.27-13.87,0-27.8.12-41.67a.71.71,0,0,0-1.41,0Z" transform="translate(-308.58 -99.97)"/><path class="cls-8" d="M443.91,224.64c-1.21,30.74-1.62,61.31,4.29,91.57.15.79,1.25.53,1.3-.17,1.25-14.87-1.54-30.5-2-45.43-.46-15.38-.39-30.62-1.93-46a.84.84,0,0,0-1.68,0Z" transform="translate(-308.58 -99.97)"/><path class="cls-8" d="M452.21,223.16c-1.22,30.72-1.64,61.29,4.28,91.57.15.78,1.25.52,1.3-.18,1.25-14.87-1.54-30.51-2-45.44-.46-15.36-.38-30.62-1.94-46a.83.83,0,0,0-1.66,0Z" transform="translate(-308.58 -99.97)"/><path class="cls-8" d="M457.66,223.45c-1.29,16.37.85,32.74,2.91,49,1.68,13.19,2.05,28.16,8,40.26a.65.65,0,0,0,1.21-.33c-.94-14.22-3.66-28.6-5.3-42.79-1.78-15.4-3.19-31-5.52-46.29-.12-.78-1.25-.52-1.31.18Z" transform="translate(-308.58 -99.97)"/><path class="cls-8" d="M465.29,215.66c-1.85,7.16-1,15.16-.81,22.5a204.65,204.65,0,0,0,2.19,25.58c1.42,9.27,3.52,18.4,5.08,27.64,1.05,6.21.08,13.76,4.55,18.77.47.52,1.59.13,1.49-.62-1.78-13.71-3.55-27.1-6.18-40.7-1.76-9.1-2.75-18.33-3.69-27.52-.83-8.07-2.79-17.5-2.07-25.59,0-.32-.48-.37-.56-.06Z" transform="translate(-308.58 -99.97)"/><path class="cls-8" d="M469.91,215.14c-.38,7.64-1.23,14.77-.21,22.43.88,6.66,2.48,13.21,3.74,19.8,3,15.67,6,32.54,11.83,47.43.25.65,1.37.64,1.3-.18-1.19-15.1-5.76-30.46-8.83-45.3-1.54-7.4-3.31-14.77-4.81-22.17s-1.2-14.79-2.53-22.08c-.06-.29-.47-.21-.49.07Z" transform="translate(-308.58 -99.97)"/><path class="cls-8" d="M478.23,213.56c-3.4,11,1.28,24.29,4.12,34.91,3.9,14.47,8.72,28.73,12.56,43.2a.82.82,0,0,0,1.57,0c.87-4.46-.37-8.28-1.51-12.65q-2.62-10-5.53-19.91c-2-6.85-4.24-13.61-6.21-20.46-2.13-7.44-5.83-17-3.83-24.77a.61.61,0,0,0-1.17-.32Z" transform="translate(-308.58 -99.97)"/><path class="cls-8" d="M485,205.08c-1.73,5.16-.53,10.48.23,15.73a169.32,169.32,0,0,0,6.21,26c4.85,15.6,9.65,32.08,16.56,46.89.32.7,1.43.34,1.41-.37-.21-6.62-3.12-13.16-4.93-19.51-2.16-7.58-5-15-7.67-22.37a237.16,237.16,0,0,1-6.89-22.74c-1.86-7.31-4.81-16-4.15-23.5,0-.47-.64-.52-.77-.11Z" transform="translate(-308.58 -99.97)"/><path class="cls-8" d="M491.45,204.59c.38,13.17,3.5,25.37,7.7,37.83,4.56,13.58,7.59,28.64,14.54,41.25.44.81,1.5.21,1.38-.59-4.05-26.93-19.94-51.18-22.26-78.49-.07-.87-1.39-.9-1.36,0Z" transform="translate(-308.58 -99.97)"/><path class="cls-8" d="M502.42,202.34c-.62,13.82,3.62,27,8.17,39.86,2.23,6.36,5.11,12.46,7.44,18.77,1.82,5,1.6,10.26,5.21,14.35.67.75,1.68-.08,1.55-.91-4.06-24.92-17.21-47.06-21.18-72.24-.11-.7-1.16-.48-1.19.17Z" transform="translate(-308.58 -99.97)"/><path class="cls-8" d="M512.62,196.35c-2.45,25.42,10.41,47.09,20.64,69.22.32.7,1.24.16,1.14-.47-1.88-11.86-7.91-22.16-12.27-33.2-4.51-11.45-6.32-23.68-8.69-35.66-.1-.49-.77-.33-.82.11Z" transform="translate(-308.58 -99.97)"/><path class="cls-8" d="M522.16,196.21c-2.62,10.3,2.63,23.25,5.9,32.9,3.92,11.56,8.06,26.09,15.57,35.86.44.57,1.71.52,1.59-.43-1.34-10.58-7-21.05-10.89-30.91-2.2-5.56-4.17-11.24-6.11-16.9-2.17-6.29-5.46-13.58-4.61-20.33.12-.83-1.25-1-1.45-.19Z" transform="translate(-308.58 -99.97)"/><path class="cls-8" d="M530.56,194.62c-1.54,20.27,13.14,39.22,21.15,56.75.32.7,1.23.14,1.15-.49-1.22-8.92-5.92-16.45-10-24.33-5.08-9.83-9.68-21.07-11.19-32.07-.09-.7-1.1-.48-1.14.14Z" transform="translate(-308.58 -99.97)"/></g><path class="cls-2" d="M419.29,240.39c1-3.18,5.28-14.15,16.85-19.14,3.44-1.48,6.83-3.49,10.57-3.19s7,2.33,10.13,4.3c5.43,3.41,11,7,14.49,12.38a51.6,51.6,0,0,1-28.71-5.07C435.91,234.61,427.5,239,419.29,240.39Z" transform="translate(-308.58 -99.97)"/><g class="cls-10"><path class="cls-8" d="M428.86,209.09c-5.26,14.46-11.1,30.36-11.44,45.91a.71.71,0,0,0,1.38.2c3.93-15.29,6.48-30.67,11.34-45.77.27-.82-1-1.14-1.28-.34Z" transform="translate(-308.58 -99.97)"/><path class="cls-8" d="M435,208.34C426.5,224,424,242,422.75,259.37c-.05.79,1.19,1.16,1.52.41,2.94-6.75,3.05-14.27,4.61-21.42,2.13-9.79,2.87-20.19,7.24-29.34.38-.78-.75-1.45-1.17-.68Z" transform="translate(-308.58 -99.97)"/><path class="cls-8" d="M441.61,204.9a236.83,236.83,0,0,0-7.34,24.9c-2.11,8.46-5,16.95-6,25.61-.11.93,1.23,1.14,1.65.46,8.79-14.27,10.11-34.44,13-50.63a.64.64,0,0,0-1.24-.34Z" transform="translate(-308.58 -99.97)"/><path class="cls-8" d="M444.43,203.07c.11,16.36-.15,33.12,2.8,49.28.16.83,1.3.53,1.38-.2,1.77-16.29-1.59-32.84-2.67-49.08a.76.76,0,0,0-1.51,0Z" transform="translate(-308.58 -99.97)"/><path class="cls-8" d="M450.87,204c-.27,10.27,1.18,20.28,1.88,30.51.53,7.6,1.07,15.63,5.23,22.22a.76.76,0,0,0,1.39-.58c-1.71-8-2.22-16-3-24.12-.85-9.39-2.9-18.65-4-28a.78.78,0,0,0-1.55,0Z" transform="translate(-308.58 -99.97)"/><path class="cls-8" d="M457,210.23c.12,9,2.34,17.51,4.2,26.27s.82,18.83,4.85,26.84a.88.88,0,0,0,1.62-.44c0-17.94-7.72-34.95-8.85-52.67-.08-1.16-1.84-1.17-1.82,0Z" transform="translate(-308.58 -99.97)"/><path class="cls-8" d="M464.32,214.91c.13,9,2.34,17.51,4.2,26.27s.84,18.85,4.85,26.84a.88.88,0,0,0,1.63-.44c0-17.94-7.72-34.95-8.86-52.67a.91.91,0,0,0-1.82,0Z" transform="translate(-308.58 -99.97)"/></g><path class="cls-2" d="M488.25,167.25q2.83,13.19,5.65,26.36c2,9.35,4,18.8,3.69,28.36a1.59,1.59,0,0,0,2,1.73c19.42-4,36.57-15.4,55-22.64a1.55,1.55,0,0,0,.59-2.51,58,58,0,0,1-15.45-31.63,1.55,1.55,0,0,0-1.58-1.34L490,167.17C488.6,167.21,487.29,166.22,488.25,167.25Z" transform="translate(-308.58 -99.97)"/><g class="cls-11"><path class="cls-8" d="M490.66,160.76c1.33,14.87,5.07,30.21,8,44.87,2.16,10.88,1.82,28.76,11,36.53a1,1,0,0,0,1.68-1c-.95-5.61-3.71-11-5.1-16.55-1.67-6.59-2.56-13.36-3.84-20-1.5-7.65-3.12-15.29-4.7-22.93-1.5-7.24-4.53-13.94-6.16-21.05a.43.43,0,0,0-.85.12Z" transform="translate(-308.58 -99.97)"/><path class="cls-8" d="M497,157.89c.2,14.66,3.66,28.3,7.48,42.38,3.58,13.14,3.27,29.92,10.94,41.53a1.11,1.11,0,0,0,2-.26c.92-4.64-1-8.53-2.44-12.93-2.48-7.64-3.27-15.9-5.07-23.71-3.62-15.7-9.8-30.84-11.33-47-.1-1-1.61-1-1.59,0Z" transform="translate(-308.58 -99.97)"/><path class="cls-8" d="M504.15,156c3.59,14.54,5.14,29.29,9.91,43.63,2.52,7.55,4.57,15.22,6.85,22.82,1.31,4.37,2.58,9,6.53,11.59a.82.82,0,0,0,1.19-.93c-4.39-12.25-7-25.13-11.11-37.5-4.3-12.87-5.27-28.38-11.91-40.23a.8.8,0,0,0-1.46.62Z" transform="translate(-308.58 -99.97)"/><path class="cls-8" d="M514.25,154.3c-.9,13.7,2.77,27,7.1,39.9,2.47,7.35,5.1,14.59,7.35,22,2,6.61,3.68,13.54,7.71,19.23a1.1,1.1,0,0,0,2-.83c-2.11-13.16-7.15-26.44-11.76-38.88a228.31,228.31,0,0,1-10.77-41.66c-.17-1-1.58-.65-1.64.23Z" transform="translate(-308.58 -99.97)"/><path class="cls-8" d="M522.89,153.26c.27,16.35,6.62,30.77,11.93,46,3.54,10.11,2.53,28.52,12.28,34.93a.84.84,0,0,0,1.22-1c-1.18-5.7-3.41-11.1-4.56-16.86A135.93,135.93,0,0,0,539.14,198c-5.13-14.82-12.21-29-13.78-44.77-.16-1.55-2.49-1.62-2.47,0Z" transform="translate(-308.58 -99.97)"/><path class="cls-8" d="M533,153.06c-2.1,12.9,1.17,24.35,6,36.31,2.67,6.58,5.52,13.06,8.2,19.62,2.59,6.33,4.2,14,8.87,19.14a1,1,0,0,0,1.66-.67c1.07-10.32-7.37-23.51-11.48-32.77-5.61-12.65-12.85-27.12-11.33-41.37.13-1.11-1.75-1.35-1.93-.26Z" transform="translate(-308.58 -99.97)"/></g><path class="cls-5" d="M430.21,153.88c2-4.83,3.75-16.83,3.77-17.48s.55-1.45,1.16-1.19a1.4,1.4,0,0,1,.4.34,244.59,244.59,0,0,1,18.79,24.08.43.43,0,0,0,.73,0l14.38-25.09c.15-.27.38-.56.67-.48a139.45,139.45,0,0,1,10.48,18.77c1,2.1,2.15,4.45,4.22,5.3a.89.89,0,0,0,1-.28c6.15-7.11,12.72-14.79,17.86-22.61l11.71,20.93c.29.53.79,1.14,1.36,1a1.32,1.32,0,0,0,.53-.44c6-7,11.36-15.56,17.08-22.88a.39.39,0,0,1,.7.18c.26,1.55,1.7,3.52,2.42,4.7,2.42,3.89,7.27,13.78,7.8,14.4a3.88,3.88,0,0,1,.54,4.19c-1,2.15-2,12.78-4.63,14.38-1.11.68-5,.6-6.28.5-18.11-1.29-36.25,2.25-54.41,1.63-5.91-.21-11.81-.86-17.72-.66-8.24.27-14,1.95-22,3.84-3.48-2.33-9.21-6-12.53-9.23C424.74,164.35,428.73,157.55,430.21,153.88Z" transform="translate(-308.58 -99.97)"/><path class="cls-2" d="M432.5,120c.31-.7.89-1.59,1.61-1.32a1.58,1.58,0,0,1,.54.42,55.23,55.23,0,0,1,5,6.29c.66,1,2.15,3.09,2.22,5.16,0,1-1.81,2.33-3.08,4.07a32.13,32.13,0,0,1-2.65,3.31c-1,.72-2.3-.06-3.22-.83l-5.2-4.22c-.45-.38-1.51-1.84-1.36-2.4C426.9,128.6,431.16,123.16,432.5,120Z" transform="translate(-308.58 -99.97)"/><path class="cls-8" d="M433.87,124.43c.15-.34.44-.77.8-.64a1,1,0,0,1,.26.22,27.83,27.83,0,0,1,2.45,3.06,5.31,5.31,0,0,1,1.08,2.53c0,.49-.88,1.12-1.5,2a15.57,15.57,0,0,1-1.29,1.63c-.47.34-1.13,0-1.58-.41l-2.54-2.07c-.22-.18-.73-.89-.66-1.17C431.13,128.62,433.21,126,433.87,124.43Z" transform="translate(-308.58 -99.97)"/><path class="cls-2" d="M468,118.12c.3-.7.88-1.58,1.61-1.31a1.62,1.62,0,0,1,.54.41,55.67,55.67,0,0,1,5,6.31c.66,1,2.15,3.07,2.22,5.14,0,1-1.82,2.33-3.09,4.07a30.31,30.31,0,0,1-2.65,3.33c-1,.7-2.29-.08-3.22-.83-1.72-1.42-3.46-2.82-5.19-4.24-.45-.38-1.51-1.83-1.36-2.4C462.38,126.7,466.65,121.25,468,118.12Z" transform="translate(-308.58 -99.97)"/><path class="cls-8" d="M469.36,122.54c.14-.34.44-.79.79-.65a.86.86,0,0,1,.26.21,27.69,27.69,0,0,1,2.46,3.06,5.26,5.26,0,0,1,1.08,2.53c0,.49-.89,1.13-1.5,2a17.78,17.78,0,0,1-1.29,1.61c-.48.35-1.13,0-1.58-.4L467,128.82c-.22-.18-.73-.88-.67-1.16C466.62,126.73,468.7,124.05,469.36,122.54Z" transform="translate(-308.58 -99.97)"/><path class="cls-2" d="M500.55,119.34c.3-.7.89-1.58,1.61-1.32a1.58,1.58,0,0,1,.54.42,55.34,55.34,0,0,1,5,6.3c.66,1,2.15,3.08,2.22,5.15,0,1-1.82,2.33-3.08,4.06a33,33,0,0,1-2.65,3.33c-1,.71-2.29-.07-3.22-.83l-5.21-4.23c-.44-.37-1.5-1.84-1.35-2.39C495,127.92,499.21,122.47,500.55,119.34Z" transform="translate(-308.58 -99.97)"/><path class="cls-8" d="M501.93,123.74c.14-.34.43-.76.78-.63a.7.7,0,0,1,.27.19,26.1,26.1,0,0,1,2.44,3.09,5.32,5.32,0,0,1,1.1,2.51c0,.5-.89,1.14-1.51,2a13.68,13.68,0,0,1-1.3,1.61c-.46.36-1.12,0-1.56-.39q-1.27-1.05-2.55-2.07c-.22-.18-.74-.9-.66-1.18C499.18,127.94,501.26,125.28,501.93,123.74Z" transform="translate(-308.58 -99.97)"/><path class="cls-2" d="M531.92,118.71c.3-.72.88-1.59,1.61-1.32a1.37,1.37,0,0,1,.54.42,53,53,0,0,1,5,6.29c.66,1,2.16,3.08,2.22,5.16,0,1-1.82,2.33-3.08,4.07a29.81,29.81,0,0,1-2.64,3.31c-1,.7-2.3-.06-3.23-.83-1.73-1.42-3.47-2.82-5.19-4.24-.45-.36-1.51-1.82-1.37-2.38C526.31,127.28,530.57,121.84,531.92,118.71Z" transform="translate(-308.58 -99.97)"/><path class="cls-8" d="M533.28,123.11c.16-.34.44-.77.8-.64a.86.86,0,0,1,.26.2,25.08,25.08,0,0,1,2.45,3.08,5.22,5.22,0,0,1,1.09,2.51c0,.51-.89,1.14-1.51,2a14.33,14.33,0,0,1-1.29,1.63c-.48.34-1.12,0-1.58-.41-.84-.7-1.69-1.38-2.53-2.07-.22-.18-.74-.89-.67-1.17C530.56,127.3,532.64,124.64,533.28,123.11Z" transform="translate(-308.58 -99.97)"/><path class="cls-5" d="M474.5,196.83a21,21,0,0,0-2.14.89,9.28,9.28,0,0,0-3.18,3.23,8.73,8.73,0,0,0-1.2,4.44,8.88,8.88,0,0,0,2.56,6.21c2.69,2.66,7.39,3.54,10.66,1.37l.16-.1a9,9,0,0,0,3.95-5.15,8.7,8.7,0,0,0-.86-6.62,9.6,9.6,0,0,0-3.35-3.38c1.33,1.71,2.65,3.44,4,5.17,0,0,0,0,0-.08a9.14,9.14,0,0,0-3.95-5.12,8.33,8.33,0,0,0-6.61-.86Z" transform="translate(-308.58 -99.97)"/><path class="cls-8" d="M433.58,221.77c5.45-.94,15.48-.45,18-6.76,1.15-2.84.81-5.69-2.06-7.24-2.58-1.39-6.57-.51-7.85,2.18-.24.51,0,1.26.69,1.21,1.92-.15,4.09-1,5.91-.12,2.08,1.06.74,4.37-.62,5.3-1.58,1-3.72,1.41-5.52,1.85a79,79,0,0,0-8.78,2.88.36.36,0,0,0,.19.7Z" transform="translate(-308.58 -99.97)"/><path class="cls-8" d="M483.29,178.53c-5.06-4.58-30.15-8.53-30.27,2.3a1.9,1.9,0,0,0,1.36,1.78c3.23,1.12,7.2-1.36,10.46-2a40.82,40.82,0,0,1,17,.4,1.48,1.48,0,0,0,1.44-2.46Z" transform="translate(-308.58 -99.97)"/><path class="cls-8" d="M435.14,143c-.92,3.41-.51,7,0,10.42.35,2.59,1.49,5.14,1.52,7.75.05,4.94,7.13,4.77,7.55,0,.24-2.73-1.28-5.48-2.37-7.88-1.55-3.46-2-7.29-3.83-10.66a1.57,1.57,0,0,0-2.84.37Z" transform="translate(-308.58 -99.97)"/><path class="cls-8" d="M468.07,142.25c-1.71,2.45-1.93,5.64-2.29,8.53-.42,3.29-1.66,6.49-1.1,9.85.73,4.45,8.36,3.42,7.9-1.08-.59-5.61.17-11.38-1.42-16.89a1.71,1.71,0,0,0-3.09-.41Z" transform="translate(-308.58 -99.97)"/><path class="cls-8" d="M501.54,144c-1.16,5.28-3.85,10-4.46,15.42-.64,5.81,9.69,5.79,9,0-.59-5.09.83-10.48-.77-15.42-.57-1.73-3.34-2-3.77,0Z" transform="translate(-308.58 -99.97)"/><path class="cls-8" d="M533.46,143.6a17.13,17.13,0,0,0-3.37,6.15c-.93,2.61-2.4,5-3.05,7.73-1.2,5,6.54,7.17,7.74,2.15a69.4,69.4,0,0,0,1.54-7.37c.3-2.23-.14-4.56.37-6.78.41-1.79-1.87-3.38-3.23-1.88Z" transform="translate(-308.58 -99.97)"/><path class="cls-6" d="M439.43,172.66a23.41,23.41,0,0,0,1.44,2.45c.69,1.38,2.86.14,2.09-1.23-.35-.65-1-1.15-1.31-1.84-.54-1.35-2.73-.81-2.22.62Z" transform="translate(-308.58 -99.97)"/><path class="cls-6" d="M443.77,170.44a3.73,3.73,0,0,0,.12,3.75A1.94,1.94,0,0,0,446,175a1.89,1.89,0,0,0,1-2.9,8.33,8.33,0,0,0-1.59-1.91,1,1,0,0,0-1.61.21Z" transform="translate(-308.58 -99.97)"/><path class="cls-6" d="M448.48,169.29a5.87,5.87,0,0,0,.3,2.07c.23.84.46,1.71,1.33,2.1a1.53,1.53,0,0,0,2.23-.9c.34-1.56-1.08-3.71-2.55-4.29-.68-.26-1.26.4-1.31,1Z" transform="translate(-308.58 -99.97)"/><path class="cls-6" d="M453.51,168.29c-.26,1.44-.52,3.34.84,4.27a1.45,1.45,0,0,0,1.81-.23,2.32,2.32,0,0,0,.16-2.8,4.42,4.42,0,0,0-1.64-1.71.79.79,0,0,0-1.17.47Z" transform="translate(-308.58 -99.97)"/><path class="cls-6" d="M459.42,167.33c-.82.21-1.15,1.14-1.32,1.87a2.68,2.68,0,0,0,1,3.07,1.62,1.62,0,0,0,2.2-.59,3.55,3.55,0,0,0-.09-2.87c-.23-.75-.86-1.71-1.78-1.48Z" transform="translate(-308.58 -99.97)"/><path class="cls-6" d="M464.24,166.73c-1,.42-1.13,1.89-1.2,2.8-.08,1.4,1.19,3.34,2.75,2.43,1.25-.73,1.06-2.27.66-3.44-.32-.93-1-2.28-2.21-1.79Z" transform="translate(-308.58 -99.97)"/><path class="cls-6" d="M469.49,166.55c-1.74.71-2,4.32-.28,5.21a1.44,1.44,0,0,0,1.52,0c1.2-.84,1.07-1.95.79-3.24-.16-.75-1-2.38-2-2Z" transform="translate(-308.58 -99.97)"/><path class="cls-6" d="M474,166.86a4.13,4.13,0,0,0-.23,4.5,1.87,1.87,0,0,0,3.39-1.44,9.49,9.49,0,0,0-1.5-3.06,1.17,1.17,0,0,0-1.66,0Z" transform="translate(-308.58 -99.97)"/><path class="cls-6" d="M479.23,166.71c-.83.37-1,1.47-1,2.25a3.52,3.52,0,0,0,.79,2.82,1.75,1.75,0,0,0,2.71-.34,4.07,4.07,0,0,0,0-3.21c-.34-1-1.32-2-2.45-1.52Z" transform="translate(-308.58 -99.97)"/><path class="cls-6" d="M484.29,167.18c-1.37.93-1.76,3.74-.5,4.88a1.35,1.35,0,0,0,1.89,0,2.63,2.63,0,0,0,.46-2.59,8.1,8.1,0,0,0-1-2.19.69.69,0,0,0-.83-.1Z" transform="translate(-308.58 -99.97)"/><path class="cls-6" d="M488.15,167.88c-.45,1.24-.83,2.51-.13,3.75.61,1.08,2.61,1,2.83-.37s-.41-2.38-1-3.6c-.37-.82-1.49-.46-1.73.22Z" transform="translate(-308.58 -99.97)"/><path class="cls-6" d="M493.72,167.2a2.43,2.43,0,0,0-1.11,1.91,3.16,3.16,0,0,0,1.18,3.26,1.67,1.67,0,0,0,2.4-1c.44-1.08-.75-5-2.47-4.19Z" transform="translate(-308.58 -99.97)"/><path class="cls-6" d="M498.81,167.49a3.89,3.89,0,0,0-.26,4.27,1.63,1.63,0,0,0,2.95-.39c.52-1.38-.28-3.65-1.8-4.11a.92.92,0,0,0-.89.23Z" transform="translate(-308.58 -99.97)"/><path class="cls-6" d="M504.39,167.33c-1,.93-1,3.46.32,4.08a1.21,1.21,0,0,0,1.61-.43,3.16,3.16,0,0,0-1.21-3.73.59.59,0,0,0-.72.08Z" transform="translate(-308.58 -99.97)"/><path class="cls-6" d="M509.06,166.71c-1,1.06-1.38,3.73.07,4.55a1,1,0,0,0,1.09,0c.89-.67.83-1.45.67-2.46a3.75,3.75,0,0,0-1.06-2.09.53.53,0,0,0-.77,0Z" transform="translate(-308.58 -99.97)"/><path class="cls-6" d="M513.71,166.6a13.61,13.61,0,0,0-.35,1.46,2.72,2.72,0,0,0,.63,2.69,1.62,1.62,0,0,0,2.19,0,2.67,2.67,0,0,0,.52-2.87,2.9,2.9,0,0,0-1.7-2,1.06,1.06,0,0,0-1.29.74Z" transform="translate(-308.58 -99.97)"/><path class="cls-6" d="M519.08,166.07a10.66,10.66,0,0,0-.65,1.78,2.9,2.9,0,0,0,.61,2.76c.65.58,2,.44,2.17-.57a5.79,5.79,0,0,0-.18-2.19,13.29,13.29,0,0,0-.6-1.78.71.71,0,0,0-1.35,0Z" transform="translate(-308.58 -99.97)"/><path class="cls-6" d="M524.73,165.16c-1.49.59-1.52,2.56-1.32,3.9a1.68,1.68,0,0,0,1.16,1.15,1.58,1.58,0,0,0,1.27-.17,1.63,1.63,0,0,0,.81-1.42,4.35,4.35,0,0,0-.49-2.56c-.26-.41-.84-1.13-1.43-.9Z" transform="translate(-308.58 -99.97)"/><path class="cls-6" d="M529.51,166c-.44,1.15-1.51,3.06-.28,4.07a1.09,1.09,0,0,0,1.29.18c1.59-.73,1-3.26.34-4.43a.74.74,0,0,0-1.35.18Z" transform="translate(-308.58 -99.97)"/><path class="cls-6" d="M534.23,165.55c-1,1.11-2.22,3.38-.76,4.62a1.29,1.29,0,0,0,1.53.19c1.47-1,1.3-3.39.38-4.66a.75.75,0,0,0-1.15-.15Z" transform="translate(-308.58 -99.97)"/><path class="cls-6" d="M538.87,166.42a7.84,7.84,0,0,0-1.37,2.72,1.48,1.48,0,0,0,2.85.78,4.76,4.76,0,0,0-.28-3.34.66.66,0,0,0-1.2-.16Z" transform="translate(-308.58 -99.97)"/><path class="cls-5" d="M438.11,160.84c.79,2.4,4.46,1.43,3.79-1s-4.55-1.32-3.79,1Z" transform="translate(-308.58 -99.97)"/><path class="cls-5" d="M438.82,157.09a1.65,1.65,0,0,0,0-3.29,1.65,1.65,0,0,0,0,3.29Z" transform="translate(-308.58 -99.97)"/><path class="cls-5" d="M437.85,152.21a1.16,1.16,0,0,0,0-2.31,1.16,1.16,0,0,0,0,2.31Z" transform="translate(-308.58 -99.97)"/><path class="cls-5" d="M468.73,161.39c2.81,0,2.81-4.37,0-4.37s-2.81,4.37,0,4.37Z" transform="translate(-308.58 -99.97)"/><path class="cls-5" d="M468.78,155.93a1.53,1.53,0,0,0,0-3.05,1.53,1.53,0,0,0,0,3.05Z" transform="translate(-308.58 -99.97)"/><path class="cls-5" d="M469,151.76a1,1,0,0,0,0-1.94,1,1,0,0,0,0,1.94Z" transform="translate(-308.58 -99.97)"/><path class="cls-5" d="M501.55,161.87c2.74,0,2.74-4.24,0-4.24s-2.74,4.24,0,4.24Z" transform="translate(-308.58 -99.97)"/><path class="cls-5" d="M502.42,155.88a1.36,1.36,0,0,0,0-2.72,1.36,1.36,0,0,0,0,2.72Z" transform="translate(-308.58 -99.97)"/><path class="cls-5" d="M502.59,151.69a.77.77,0,0,0,0-1.53.77.77,0,0,0,0,1.53Z" transform="translate(-308.58 -99.97)"/><path class="cls-5" d="M531.19,159.8a1.77,1.77,0,0,0,0-3.53,1.77,1.77,0,0,0,0,3.53Z" transform="translate(-308.58 -99.97)"/><path class="cls-5" d="M532.66,155.3a1.28,1.28,0,0,0,0-2.55,1.28,1.28,0,0,0,0,2.55Z" transform="translate(-308.58 -99.97)"/><path class="cls-5" d="M533.86,150.39l-.09,0c-1-.39-1,1.7.15,1.13a.13.13,0,0,0,.07,0c.51-.24.29-.91-.13-1.07Z" transform="translate(-308.58 -99.97)"/><path class="cls-5" d="M424.73,267c-2.8.08-4.85,2.46-6.76,4.23-2.63,2.48-5.55,4.78-7.4,7.91-1.95,3.31,2.93,7.34,5.43,4.21,3.53-4.4,7.34-9.23,9.95-14.25a1.42,1.42,0,0,0-1.22-2.1Z" transform="translate(-308.58 -99.97)"/><path class="cls-5" d="M432.19,278.29A11.23,11.23,0,0,1,430,280.6a31.84,31.84,0,0,0-3,3.38c-1.72,2.22-4.29,5.53-3.12,8.53,1.31,3.4,6.24,3.86,7.38,0a71.35,71.35,0,0,1,4.85-11.91c1.34-2.62-2.63-5-4-2.31Z" transform="translate(-308.58 -99.97)"/><path class="cls-5" d="M461.53,291.14c-1.4,2-1.19,5.13-.62,7.37.83,3.26,5.72,2.51,5.76-.79,0-2.39-1.4-4.58-2.59-6.58a1.5,1.5,0,0,0-2.55,0Z" transform="translate(-308.58 -99.97)"/><path class="cls-5" d="M493.31,273.66c-1,3.81,1.52,7,2.45,10.53,1,4,3.48,8.9,8.37,7.83,2.5-.54,3.58-3.21,3.12-5.5a9.86,9.86,0,0,0-1.72-3.11c-.63-1.05-1.07-2.17-1.73-3.2a36.85,36.85,0,0,0-7.1-7.45,2.05,2.05,0,0,0-3.39.9Z" transform="translate(-308.58 -99.97)"/><path class="cls-5" d="M517.75,262.15c-.45,3.18,1.84,6.44,3.47,9a34.82,34.82,0,0,0,8.71,9.16c2.08,1.6,5.37.33,6.57-1.73,1.42-2.41.41-5.05-1.72-6.57-2.74-2-5.17-4.33-7.71-6.52-2.11-1.81-4.78-4.58-7.72-4.6a1.66,1.66,0,0,0-1.6,1.23Z" transform="translate(-308.58 -99.97)"/><path class="cls-8" d="M464.76,308.08a2.64,2.64,0,1,0-2.64-2.64,2.68,2.68,0,0,0,2.64,2.64Z" transform="translate(-308.58 -99.97)"/><path class="cls-8" d="M424.71,301.36a2.7,2.7,0,1,0-2.69-2.69,2.72,2.72,0,0,0,2.69,2.69Z" transform="translate(-308.58 -99.97)"/><path class="cls-8" d="M394.65,290.75a2.68,2.68,0,1,0-2.67-2.68,2.7,2.7,0,0,0,2.67,2.68Z" transform="translate(-308.58 -99.97)"/><path class="cls-8" d="M505.54,299.22a3.43,3.43,0,1,0-3.43-3.42,3.47,3.47,0,0,0,3.43,3.42Z" transform="translate(-308.58 -99.97)"/><path class="cls-8" d="M534.39,288.12a3.36,3.36,0,0,0,3.38-.9,3.46,3.46,0,1,0-3.38.9Z" transform="translate(-308.58 -99.97)"/><path class="cls-8" d="M547.68,279.38a3.37,3.37,0,0,0,3.37-.9,3.46,3.46,0,1,0-3.37.9Z" transform="translate(-308.58 -99.97)"/><path class="cls-5" d="M471.71,293.06a1.41,1.41,0,0,0-.69.67,1.42,1.42,0,0,0,1.93,1.94l.1-.05-1.12.15h.14a1.49,1.49,0,1,0-.36-2.72Z" transform="translate(-308.58 -99.97)"/><path class="cls-5" d="M477.91,292.78a1.39,1.39,0,0,0,0-2.77,1.39,1.39,0,0,0,0,2.77Z" transform="translate(-308.58 -99.97)"/><path class="cls-5" d="M484.45,292.08a1.65,1.65,0,0,0,0-3.29,1.65,1.65,0,0,0,0,3.29Z" transform="translate(-308.58 -99.97)"/><path class="cls-5" d="M489.69,292.44l.23.08a1.32,1.32,0,1,0,0-2.54l-.23.1a1.23,1.23,0,0,0,0,2.36Z" transform="translate(-308.58 -99.97)"/><path class="cls-5" d="M493.54,291.85a1.19,1.19,0,0,1-.09.15,1.65,1.65,0,0,0,.25,1.93l.09.09a1.51,1.51,0,0,0,2.51-.67,2,2,0,0,0,0-1.14,1.52,1.52,0,0,0-2.77-.36Z" transform="translate(-308.58 -99.97)"/><path class="cls-5" d="M510.56,288.51a1.2,1.2,0,0,0,0-2.4,1.2,1.2,0,0,0,0,2.4Z" transform="translate(-308.58 -99.97)"/><path class="cls-5" d="M513.46,284.83a1.39,1.39,0,0,0,0-2.78,1.39,1.39,0,0,0,0,2.78Z" transform="translate(-308.58 -99.97)"/><path class="cls-5" d="M519.27,281.76l.18,0h-.68a1.08,1.08,0,0,0,.19,0c1.07.15,2.2-1.12,1.18-2a4,4,0,0,0-.87-.52c-.82-.33-1.68.52-1.68,1.29a1.34,1.34,0,0,0,1.68,1.27Z" transform="translate(-308.58 -99.97)"/><path class="cls-5" d="M524.72,282.23a1.43,1.43,0,0,0,0-2.85,1.43,1.43,0,0,0,0,2.85Z" transform="translate(-308.58 -99.97)"/><path class="cls-5" d="M542.94,276.49a1.32,1.32,0,0,0,0-2.64,1.32,1.32,0,0,0,0,2.64Z" transform="translate(-308.58 -99.97)"/><path class="cls-5" d="M458.57,302a.9.9,0,0,0,0-1.8.9.9,0,0,0,0,1.8Z" transform="translate(-308.58 -99.97)"/><path class="cls-5" d="M453.07,300.12c0,.05.09.08.13.13a1.45,1.45,0,1,0,0-2.05.8.8,0,0,1-.13.13,1.29,1.29,0,0,0,0,1.79Z" transform="translate(-308.58 -99.97)"/><path class="cls-5" d="M441.12,293.14a1.31,1.31,0,0,0,0-2.62,1.31,1.31,0,0,0,0,2.62Z" transform="translate(-308.58 -99.97)"/><path class="cls-5" d="M435.34,293.88a1.61,1.61,0,0,0,0-3.22,1.61,1.61,0,0,0,0,3.22Z" transform="translate(-308.58 -99.97)"/><path class="cls-5" d="M421.24,286.46a1.3,1.3,0,0,0,0-2.6,1.3,1.3,0,0,0,0,2.6Z" transform="translate(-308.58 -99.97)"/><path class="cls-5" d="M405.22,280.82l-.08.08,1.11-.46h-.08a1.66,1.66,0,1,0,1.66,1.66,1.87,1.87,0,0,0-.53-1.28,1.47,1.47,0,0,0-2.08,0Z" transform="translate(-308.58 -99.97)"/><path class="cls-6" d="M554.19,326.37c3.7-2.05,7.08-5.12,10.29-7.86s2-9.75,4.33-15.44c.39-.94,1.74-1,2.76-1.16,10.24-1.32,22.77,5.32,29.28,13.33s9.35,18.59,9.35,28.92a34.34,34.34,0,0,1-1.42,10.58c-1.16,3.64-12.1,9.45-13.61,13-3.87,9-2.89,20.9.14,30.23-10.85,2.3-14.52-.82-25.61-1.42A6.5,6.5,0,0,1,567,396c-1.66-.88-2.27-3-2.38-4.82-.3-5.4,2.12-11.06,0-16-1.79-4.26-14.07-3.85-23.23-13.83a18.48,18.48,0,0,1-2.79-20.14C541.78,334.61,547.84,329.91,554.19,326.37Z" transform="translate(-308.58 -99.97)"/><path class="cls-8" d="M561.2,348.34c.73,4.12.13,6.52-.86,10.61-1,3.9-1.15,4.55-2.12,4.37a1.59,1.59,0,0,1-.64-.34l-9.82-7c-1.33-.94-2.76-2-3.11-3.63a6.86,6.86,0,0,1,.77-3.92q2.26-5.4,4.51-10.79a4.07,4.07,0,0,1,.35-.69,2.17,2.17,0,0,1,2.73-.34C553.89,337.07,560.65,345.29,561.2,348.34Z" transform="translate(-308.58 -99.97)"/><path class="cls-8" d="M567.89,356.93c-2.06-3.46-4.73-7.09-4.07-11.06.16-.91,3.28-7.12,5.26-11a1.87,1.87,0,0,1,3.21-.21c2.19,3.1,3.74,7.92,5.71,10.74a2,2,0,0,1,.34,1.52c-1.27,6.1-2.48,9.74-3.76,16.06v.05a1.87,1.87,0,0,1-3.57.25A41.85,41.85,0,0,0,567.89,356.93Z" transform="translate(-308.58 -99.97)"/><path class="cls-8" d="M583.67,360.73c-.33-3.42-.67-6.85-1-10.27a18.76,18.76,0,0,1-.14-2.81c.17-3.37,5.84-9.37,8.89-12a1.53,1.53,0,0,1,2.47.7c.94,2.87,1.73,6.21,2.62,9.19a6.74,6.74,0,0,1-1.24,6.23c-3.19,3.87-6.61,7.28-9.34,11.58a1,1,0,0,1-1.75-.15A8.7,8.7,0,0,1,583.67,360.73Z" transform="translate(-308.58 -99.97)"/><path class="cls-5" d="M552.26,346.56l-.13.1a3.07,3.07,0,0,0,3.1,5.3,3.26,3.26,0,0,0,1.52-2.65.41.41,0,0,1,0-.16c.26-2.23-2.75-3.76-4.51-2.59Z" transform="translate(-308.58 -99.97)"/><path class="cls-5" d="M571,350.86a3,3,0,1,0-3-3,3,3,0,0,0,3,3Z" transform="translate(-308.58 -99.97)"/><path class="cls-5" d="M589.78,351.3c4.21,0,4.21-6.52,0-6.52s-4.2,6.52,0,6.52Z" transform="translate(-308.58 -99.97)"/><path class="cls-2" d="M553.69,335.49c3.19,0,3.19-5,0-5s-3.21,5,0,5Z" transform="translate(-308.58 -99.97)"/><path class="cls-2" d="M570.21,333c3.17,0,3.17-4.91,0-4.91s-3.16,4.91,0,4.91Z" transform="translate(-308.58 -99.97)"/><path class="cls-2" d="M592,334.3a3.17,3.17,0,1,0-3.17-3.17A3.2,3.2,0,0,0,592,334.3Z" transform="translate(-308.58 -99.97)"/><path class="cls-2" d="M559.19,368.1c2.76,0,2.76-4.29,0-4.29s-2.76,4.29,0,4.29Z" transform="translate(-308.58 -99.97)"/><path class="cls-2" d="M573.21,370.51c3,0,3-4.68,0-4.68s-3,4.68,0,4.68Z" transform="translate(-308.58 -99.97)"/><path class="cls-2" d="M584.76,369.84c3.39,0,3.39-5.26,0-5.26s-3.4,5.26,0,5.26Z" transform="translate(-308.58 -99.97)"/><path class="cls-2" d="M485.51,124.09a16.84,16.84,0,0,1,1.62,2.34c.34.54.88,1.42,1.64,1a.75.75,0,0,0,.4-.7c-.18-1.55-1.8-2.69-3.06-3.4a.5.5,0,0,0-.6.79Z" transform="translate(-308.58 -99.97)"/><path class="cls-2" d="M482,132.66a3.82,3.82,0,0,0,.86,3.33.44.44,0,0,0,.71-.1,3.47,3.47,0,0,0,.37-1.3,16,16,0,0,0-.28-1.93.83.83,0,0,0-1.66,0Z" transform="translate(-308.58 -99.97)"/><path class="cls-2" d="M490.45,135.83c.26,1,.74,2.38,1.81,2.72a.41.41,0,0,0,.53-.41c-.09-.94-.87-1.73-1.17-2.64a.61.61,0,0,0-1.17.33Z" transform="translate(-308.58 -99.97)"/><path class="cls-2" d="M483.14,143.56c.65,1.1,1.25,2.7,2.49,3.26.72.32,1.82-.22,1.47-1.13-.5-1.35-1.9-2.27-3.05-3.05-.57-.39-1.22.36-.91.92Z" transform="translate(-308.58 -99.97)"/><path class="cls-2" d="M459.41,137.29c1.07-.34,2.19-.08,3.24-.42a.29.29,0,0,0,0-.55,5.32,5.32,0,0,0-3.43.27c-.42.18-.27.85.19.7Z" transform="translate(-308.58 -99.97)"/><path class="cls-2" d="M457.63,145.48a6.15,6.15,0,0,0-2,1.73c-.43.54-1.16,1.64-.51,2.3,1.11,1.11,2.7-2.91,3.09-3.49.23-.34-.21-.72-.55-.54Z" transform="translate(-308.58 -99.97)"/><path class="cls-2" d="M513,137a1.1,1.1,0,0,0-1-.25c-.05,0,0,.09,0,.07a1,1,0,0,1,1,.21s0,0,0,0Z" transform="translate(-308.58 -99.97)"/><path class="cls-2" d="M512.83,136.25c.8.23,1.59.42,2.42.6.36.09.71.2,1.07.3a1.36,1.36,0,0,0,.9-.23.37.37,0,0,0,.18-.42c-.56-1.55-3.06-1.39-4.43-1.34a.56.56,0,0,0-.14,1.09Z" transform="translate(-308.58 -99.97)"/><path class="cls-2" d="M521.57,134.21a7.69,7.69,0,0,0,0,2.91c.16.79.37,2.36,1.46,2.39.93,0,1-1.07.76-1.74a15.06,15.06,0,0,1-.85-3.36c-.08-.74-1.29-1.06-1.41-.2Z" transform="translate(-308.58 -99.97)"/><path class="cls-2" d="M515.72,143.28a5.91,5.91,0,0,0,0,2.71c.18.91.38,2,1.28,2.46a1,1,0,0,0,1.36-.56,5,5,0,0,0-.53-2.49,5.35,5.35,0,0,0-1.23-2.37.56.56,0,0,0-.92.25Z" transform="translate(-308.58 -99.97)"/><path class="cls-2" d="M512.77,130a1.3,1.3,0,0,0,1.06-.33.44.44,0,0,0,0-.62,1.22,1.22,0,0,0-1.06-.27.61.61,0,0,0,0,1.22Z" transform="translate(-308.58 -99.97)"/><path class="cls-6" d="M506.58,414.85c-4.32-3.43-10.77-.93-15.09,2.49s-8.41,7.91-13.88,8.53-10.45-2.81-15.85-3.34a15.53,15.53,0,0,0-12.4,4.46c-2.39,2.43-4,5.7-7,7.39-4.93,2.85-11.14.23-16.81.72-3.87.34-9.52,3.62-12,6.55a3.1,3.1,0,0,0-.85,1.65c-.09,1.21,1,2.2,2.09,2.76,3.27,1.63,5.86,2.93,15.48,14,3,3.49,3.53,8.87,7.24,11.64,3.18,2.36,7.39,2.79,11.35,3A213.25,213.25,0,0,0,505,470.4c7.3-1.53,14.58-3.47,21.2-6.91a102.42,102.42,0,0,0,14.36-9.61c8.64-6.52,21.81-14.17,26.47-23.93-4.3,3.44-13.13,4.09-18.52,2.9-2.48-.54-6.26-.2-7.63-2.35-1-1.66-1.28-3.72-2.11-5.49a9.41,9.41,0,0,0-10.54-5c-3.59.93-6.57,4-10.27,4s-6.41-3-8.54-5.87A15.56,15.56,0,0,0,506.58,414.85Z" transform="translate(-308.58 -99.97)"/><path class="cls-7" d="M452.23,546.12c3.75,6,11.87,7.18,18.94,7.73,12.32,1,25.13,1.89,36.67-2.57,4.24-1.65,8.43-4.23,10.4-8.35,1.12-2.32,1.43-4.93,2.1-7.42,1.24-4.63,3.75-8.81,6.24-12.93L540.78,499a2.89,2.89,0,0,0,.61-1.79c-.18-1.59-2.38-1.78-3.93-1.54l-17,2.68c.31-2.81,2.48-5.15,2.79-8,.59-5.28,2.56-9.34-.07-14-3.24-5.72-13.94-10.19-20.46-9.24s-12.28,4.61-17.53,8.57a125.83,125.83,0,0,0-27,28.24,47,47,0,0,0-6.09,11.17c-2,5.91-2.11,12.26-2.16,18.51C449.92,537.94,450,542.49,452.23,546.12Z" transform="translate(-308.58 -99.97)"/><path class="cls-2" d="M460.07,506.4a80.62,80.62,0,0,0,23.16-11.95c6-4.47,13.46-6.72,19.88-10.57s19.67-9.73,19.49,2.39c0,1.94,4.84-1.59,6.77-1.83,1.55-.21,2.66-1.53,3.59-2.79,2.49-3.37,4.32-5.31,3.74-9.46-.51-3.81-2.77-7.51-5.06-10.61-2.41-3.26-4.32-8.17-6.17-11.77q-5.15-10-10.29-20a16.24,16.24,0,0,0-3.57-5.19c-1.61-1.37-4-2.05-5.88-1.09a8.35,8.35,0,0,0-2.51,2.31,76.21,76.21,0,0,1-14,13.33c-11.7,8.43-25.9,12.52-38.83,18.94s-25.49,16.47-28.52,30.58a30.61,30.61,0,0,0,4.3,23,7.18,7.18,0,0,0,3,2.92,7.84,7.84,0,0,0,4.58.08C442.87,512.83,451.22,509.27,460.07,506.4Z" transform="translate(-308.58 -99.97)"/><path class="cls-6" d="M512.08,556.71a5.9,5.9,0,0,1,.16,2.51c-.3,2.36-.76,4.68-1.27,7-1.76,7.91-3.39,18.25-10.58,23.37a30.4,30.4,0,0,1-7.91,3.58c-6.1,2.11-13,4.72-19.14,6.82,1,1.53,1.39,2.89,2.28,4.32a2.48,2.48,0,0,1-.11,2.84,51.59,51.59,0,0,0-3.77,6.47,1,1,0,0,1-1.84,0,47.59,47.59,0,0,0-3.23-6,3.37,3.37,0,0,1-.38-3.23,22.16,22.16,0,0,0,1.52-4.5c-.13-.31-13.84-4.19-17.63-5.56-6.79-2.46-13.94-5.18-18.34-10.89-2.35-3-3.72-6.69-5-10.27l-4.11-11.06q15.33-.86,30.65-1.74c4.13-.23,8.26-.46,12.41-.48,3.18,0,6.38.1,9.57,0,11.86-.47,23.47-4.33,35.33-3.86a1.58,1.58,0,0,1,1.08.41C512.08,556.74,512.56,556.61,512.08,556.71Z" transform="translate(-308.58 -99.97)"/><path class="cls-3" d="M506.56,528.12a23,23,0,0,1-13.53,7c-8.7,1.48-12-1.46-15.69-5.08a30.58,30.58,0,0,1,21.52-4.74A19.31,19.31,0,0,1,506.56,528.12Z" transform="translate(-308.58 -99.97)"/><path class="cls-8" d="M495.86,532.56a5.26,5.26,0,0,0,.51-3.72c-.36-1.88-1.83-2.79-3.44-3.46-1.88-.78-4.25.49-5.21,2.12a4.73,4.73,0,0,0,.73,5.58,2.93,2.93,0,0,0,1.06.88c1.4.59,1.47.62.23.1l-1.61-1.6s0,.06.07.1a4.6,4.6,0,0,0,3.84,2.18,4.43,4.43,0,0,0,3.82-2.18Z" transform="translate(-308.58 -99.97)"/><g class="cls-12"><path class="cls-8" d="M529.71,494.39c.38-8.22,1.61-16.36,1.59-24.61s-1-16.63-1.26-25c0-.7-1.13-.92-1.27-.18a95.4,95.4,0,0,0-1.2,22c.4,9.26-.38,18.49.17,27.74a1,1,0,0,0,2,0Z" transform="translate(-308.58 -99.97)"/><path class="cls-8" d="M521.17,496.54c.35-5.79,1.55-11.46,1.85-17.27.36-7.13,0-14.3.27-21.44.41-12.44,3.31-26.56.09-38.74a.9.9,0,0,0-1.72,0c-2.42,11.36-1.54,24.18-1.77,35.77-.27,13.88,0,27.8-.12,41.68a.7.7,0,0,0,1.4,0Z" transform="translate(-308.58 -99.97)"/><path class="cls-8" d="M516,494.43c1.22-30.71,1.64-61.29-4.28-91.55-.16-.77-1.25-.52-1.31.18-1.24,14.87,1.54,30.49,2,45.43.47,15.37.39,30.63,1.94,45.94a.84.84,0,0,0,1.67,0Z" transform="translate(-308.58 -99.97)"/><path class="cls-8" d="M507.66,495.93c1.22-30.71,1.63-61.3-4.28-91.55-.16-.78-1.25-.54-1.31.16-1.25,14.87,1.54,30.49,2,45.43.47,15.38.39,30.64,1.93,46a.84.84,0,0,0,1.68,0Z" transform="translate(-308.58 -99.97)"/><path class="cls-8" d="M502.2,495.64c1.3-16.37-.84-32.74-2.9-49-1.68-13.2-2.06-28.15-8-40.26a.65.65,0,0,0-1.2.32c.94,14.21,3.66,28.6,5.3,42.79,1.78,15.41,3.18,31,5.52,46.29.12.78,1.25.52,1.3-.18Z" transform="translate(-308.58 -99.97)"/><path class="cls-8" d="M494.57,503.45c1.87-7.17,1-15.18.82-22.52a206.74,206.74,0,0,0-2.2-25.58c-1.42-9.26-3.51-18.39-5.08-27.64-1.06-6.21-.07-13.76-4.54-18.77-.48-.52-1.59-.13-1.5.62,1.78,13.72,3.56,27.1,6.18,40.72,1.76,9.08,2.76,18.31,3.7,27.51.83,8.07,2.79,17.49,2.07,25.58,0,.33.48.38.55.08Z" transform="translate(-308.58 -99.97)"/><path class="cls-8" d="M490,504c.37-7.65,1.24-14.78.22-22.44-.88-6.65-2.49-13.21-3.74-19.79-3-15.67-6-32.55-11.83-47.44-.26-.63-1.37-.63-1.32.18,1.21,15.1,5.77,30.46,8.85,45.3,1.53,7.4,3.31,14.77,4.81,22.19s1.2,14.77,2.54,22.08c0,.28.46.19.47-.08Z" transform="translate(-308.58 -99.97)"/><path class="cls-8" d="M481.64,505.54c3.4-11-1.28-24.31-4.13-34.91-3.89-14.48-8.73-28.73-12.55-43.19a.82.82,0,0,0-1.57,0c-.88,4.46.36,8.26,1.51,12.63q2.61,10,5.53,19.93c2,6.83,4.25,13.6,6.21,20.44,2.14,7.44,5.82,17,3.83,24.77a.61.61,0,0,0,1.17.33Z" transform="translate(-308.58 -99.97)"/><path class="cls-8" d="M474.91,514c1.72-5.15.53-10.49-.23-15.74a168.92,168.92,0,0,0-6.21-26c-4.85-15.61-9.64-32.09-16.56-46.9a.76.76,0,0,0-1.41.38c.22,6.62,3.11,13.16,4.93,19.5,2.16,7.58,5,15,7.67,22.39S468,482.73,470,490.41c1.86,7.3,4.81,16,4.13,23.49,0,.48.66.53.79.12Z" transform="translate(-308.58 -99.97)"/><path class="cls-8" d="M468.42,514.51c-.38-13.18-3.51-25.37-7.69-37.82-4.57-13.59-7.6-28.66-14.54-41.27-.45-.81-1.52-.21-1.4.59,4,26.95,19.95,51.19,22.27,78.5.06.86,1.38.88,1.36,0Z" transform="translate(-308.58 -99.97)"/><path class="cls-8" d="M457.44,516.76c.61-13.83-3.62-27-8.16-39.87-2.24-6.36-5.11-12.46-7.43-18.77-1.84-4.95-1.62-10.25-5.22-14.35-.68-.75-1.69.09-1.56.92,4.07,24.91,17.22,47.05,21.18,72.21.13.72,1.17.49,1.19-.14Z" transform="translate(-308.58 -99.97)"/><path class="cls-8" d="M447.24,522.74c2.45-25.42-10.41-47.07-20.64-69.22-.32-.7-1.24-.16-1.13.48,1.88,11.85,7.91,22.16,12.27,33.21,4.5,11.43,6.31,23.66,8.68,35.65.1.5.78.32.82-.12Z" transform="translate(-308.58 -99.97)"/><path class="cls-8" d="M437.71,522.89c2.61-10.29-2.64-23.25-5.91-32.91-3.91-11.56-8.05-26.09-15.56-35.85-.45-.59-1.71-.52-1.59.42,1.34,10.58,7,21.05,10.89,30.92,2.2,5.56,4.17,11.21,6.12,16.89,2.16,6.29,5.45,13.58,4.59,20.33-.11.83,1.25,1,1.46.2Z" transform="translate(-308.58 -99.97)"/><path class="cls-8" d="M429.32,524.47c1.53-20.27-13.15-39.23-21.16-56.74-.33-.7-1.23-.15-1.14.48,1.21,8.92,5.9,16.46,10,24.33,5.06,9.82,9.67,21.09,11.17,32.08.1.7,1.11.45,1.16-.15Z" transform="translate(-308.58 -99.97)"/></g><path class="cls-2" d="M540.58,478.7c-1,3.18-5.29,14.15-16.85,19.14-3.44,1.49-6.84,3.51-10.56,3.2s-7-2.33-10.14-4.31c-5.43-3.39-11-7-14.49-12.37a51.47,51.47,0,0,1,28.7,5.07C524,484.49,532.37,480.13,540.58,478.7Z" transform="translate(-308.58 -99.97)"/><g class="cls-13"><path class="cls-8" d="M531,510c5.26-14.47,11.1-30.36,11.44-45.92a.7.7,0,0,0-1.37-.2c-3.92,15.3-6.48,30.68-11.35,45.77-.26.82,1,1.15,1.28.35Z" transform="translate(-308.58 -99.97)"/><path class="cls-8" d="M524.92,510.76c8.44-15.64,10.94-33.63,12.2-51,.06-.77-1.2-1.16-1.52-.41-3,6.75-3.05,14.27-4.61,21.43-2.14,9.78-2.87,20.18-7.26,29.33-.36.78.76,1.47,1.19.69Z" transform="translate(-308.58 -99.97)"/><path class="cls-8" d="M518.26,514.2a233.34,233.34,0,0,0,7.32-24.92c2.12-8.44,5.06-16.94,6.08-25.6.1-.93-1.24-1.14-1.67-.45-8.78,14.26-10.1,34.42-13,50.62a.64.64,0,0,0,1.24.35Z" transform="translate(-308.58 -99.97)"/><path class="cls-8" d="M515.43,516c-.11-16.34.16-33.1-2.79-49.26-.16-.83-1.31-.54-1.39.19-1.76,16.29,1.59,32.84,2.67,49.07a.76.76,0,0,0,1.51,0Z" transform="translate(-308.58 -99.97)"/><path class="cls-8" d="M509,515.08c.28-10.26-1.17-20.27-1.87-30.48-.52-7.61-1.06-15.65-5.24-22.24a.76.76,0,0,0-1.38.59c1.7,8,2.22,16,3,24.11.85,9.4,2.88,18.66,4,28a.77.77,0,0,0,1.54,0Z" transform="translate(-308.58 -99.97)"/><path class="cls-8" d="M502.87,508.87c-.11-9-2.34-17.52-4.19-26.27s-.83-18.85-4.85-26.84a.88.88,0,0,0-1.62.44c0,17.93,7.72,34.94,8.85,52.67.07,1.15,1.84,1.17,1.81,0Z" transform="translate(-308.58 -99.97)"/><path class="cls-8" d="M495.54,504.19c-.12-9-2.34-17.52-4.2-26.27s-.83-18.84-4.85-26.84a.88.88,0,0,0-1.62.44c0,18,7.72,34.94,8.85,52.67.08,1.15,1.84,1.17,1.82,0Z" transform="translate(-308.58 -99.97)"/></g><path class="cls-2" d="M471.61,551.85q-2.83-13.19-5.65-26.37c-2-9.34-4-18.78-3.68-28.36a1.58,1.58,0,0,0-2-1.72c-19.43,4-36.57,15.39-55.05,22.63a1.56,1.56,0,0,0-.58,2.51,58.12,58.12,0,0,1,15.44,31.63,1.6,1.6,0,0,0,1.59,1.36l48.14-1.6C471.26,551.88,472.58,552.87,471.61,551.85Z" transform="translate(-308.58 -99.97)"/><g class="cls-14"><path class="cls-8" d="M469.21,558.34c-1.32-14.87-5.07-30.22-8-44.88-2.17-10.87-1.83-28.76-11-36.51a1,1,0,0,0-1.68,1c.94,5.6,3.71,11,5.11,16.54,1.65,6.57,2.54,13.35,3.84,20,1.48,7.65,3.1,15.3,4.68,22.93,1.5,7.24,4.53,13.94,6.16,21.05.12.49.91.39.86-.11Z" transform="translate(-308.58 -99.97)"/><path class="cls-8" d="M462.86,561.21c-.21-14.66-3.67-28.31-7.49-42.38-3.58-13.14-3.27-29.92-10.94-41.53a1.11,1.11,0,0,0-2,.26c-.92,4.63,1,8.51,2.44,12.91,2.49,7.65,3.27,15.92,5.08,23.73,3.62,15.72,9.79,30.83,11.33,47,.09,1,1.6,1,1.59,0Z" transform="translate(-308.58 -99.97)"/><path class="cls-8" d="M455.72,563.11c-3.59-14.54-5.15-29.28-9.92-43.63-2.51-7.53-4.56-15.21-6.85-22.83-1.3-4.35-2.57-8.95-6.53-11.57a.82.82,0,0,0-1.19.92c4.41,12.25,7,25.13,11.11,37.49,4.31,12.88,5.27,28.39,11.92,40.24a.8.8,0,0,0,1.46-.62Z" transform="translate(-308.58 -99.97)"/><path class="cls-8" d="M445.61,564.79c.9-13.69-2.76-27-7.08-39.9-2.47-7.35-5.11-14.59-7.36-22-2-6.6-3.69-13.53-7.72-19.22a1.1,1.1,0,0,0-2,.83c2.1,13.16,7.14,26.43,11.76,38.89A227,227,0,0,1,444,565c.16,1,1.58.66,1.63-.22Z" transform="translate(-308.58 -99.97)"/><path class="cls-8" d="M437,565.84c-.27-16.36-6.62-30.77-11.93-46-3.53-10.11-2.52-28.52-12.27-34.93a.85.85,0,0,0-1.23.95c1.19,5.71,3.42,11.1,4.56,16.86a136,136,0,0,0,4.63,18.31c5.12,14.82,12.21,29,13.78,44.78.16,1.55,2.5,1.61,2.46,0Z" transform="translate(-308.58 -99.97)"/><path class="cls-8" d="M426.85,566.05c2.11-12.92-1.16-24.36-6-36.33-2.67-6.57-5.52-13.06-8.21-19.62-2.59-6.31-4.2-14-8.87-19.14a1,1,0,0,0-1.65.69c-1.08,10.3,7.37,23.49,11.47,32.75,5.62,12.66,12.87,27.12,11.32,41.37-.11,1.11,1.76,1.35,1.94.28Z" transform="translate(-308.58 -99.97)"/></g><path class="cls-5" d="M529.65,565.22c-1.95,4.82-3.73,16.82-3.76,17.48s-.57,1.45-1.16,1.19a1.44,1.44,0,0,1-.4-.33,248.09,248.09,0,0,1-18.79-24.1.43.43,0,0,0-.72,0l-14.4,25.1c-.15.26-.37.54-.66.47a140.13,140.13,0,0,1-10.49-18.77c-1-2.1-2.14-4.45-4.22-5.3a.87.87,0,0,0-1,.28c-6.15,7.11-12.72,14.79-17.87,22.62q-5.83-10.47-11.69-20.94c-.31-.52-.8-1.14-1.37-1a1.46,1.46,0,0,0-.54.44c-6,7-11.35,15.58-17.07,22.9a.41.41,0,0,1-.71-.21c-.26-1.54-1.68-3.53-2.41-4.67-2.42-3.91-7.27-13.79-7.8-14.41a3.89,3.89,0,0,1-.55-4.19c1.05-2.15,2-12.79,4.63-14.38,1.13-.69,5-.61,6.28-.51,18.11,1.29,36.26-2.25,54.41-1.61,5.91.19,11.82.84,17.73.65,8.24-.28,14-2,22-3.85,3.48,2.33,9.21,6,12.54,9.23C535.13,554.75,531.13,561.55,529.65,565.22Z" transform="translate(-308.58 -99.97)"/><path class="cls-2" d="M527.37,599.07c-.3.71-.9,1.58-1.61,1.32a1.41,1.41,0,0,1-.54-.43,52.32,52.32,0,0,1-5-6.29c-.66-1-2.15-3.08-2.22-5.15,0-1,1.82-2.33,3.08-4.08a31.18,31.18,0,0,1,2.64-3.32c1-.71,2.29.08,3.22.84,1.74,1.4,3.48,2.82,5.2,4.23.45.37,1.51,1.84,1.37,2.39C533,590.49,528.71,595.94,527.37,599.07Z" transform="translate(-308.58 -99.97)"/><path class="cls-8" d="M526,594.66c-.14.35-.43.77-.79.64a.73.73,0,0,1-.26-.21,26,26,0,0,1-2.45-3.07,5.32,5.32,0,0,1-1.09-2.51c0-.5.89-1.14,1.51-2a13.94,13.94,0,0,1,1.3-1.63c.46-.34,1.11,0,1.56.41q1.28,1.05,2.55,2.07c.21.18.73.9.66,1.16C528.73,590.47,526.64,593.13,526,594.66Z" transform="translate(-308.58 -99.97)"/><path class="cls-2" d="M491.88,601c-.3.7-.89,1.58-1.61,1.3a1.3,1.3,0,0,1-.54-.42,51.08,51.08,0,0,1-5-6.3c-.65-1-2.15-3.06-2.22-5.13,0-1,1.81-2.34,3.08-4.08A35.8,35.8,0,0,1,488.2,583c1-.7,2.3.08,3.23.83,1.74,1.42,3.47,2.84,5.2,4.24.45.38,1.5,1.83,1.36,2.4C497.48,592.4,493.22,597.84,491.88,601Z" transform="translate(-308.58 -99.97)"/><path class="cls-8" d="M490.51,596.56c-.15.35-.44.78-.79.65a.59.59,0,0,1-.26-.21,25.56,25.56,0,0,1-2.45-3.07,5.23,5.23,0,0,1-1.1-2.51c0-.51.89-1.14,1.51-2a14.34,14.34,0,0,1,1.3-1.63c.47-.34,1.11,0,1.57.41.85.68,1.7,1.37,2.54,2.07.22.18.73.89.66,1.17C493.24,592.38,491.16,595,490.51,596.56Z" transform="translate(-308.58 -99.97)"/><path class="cls-2" d="M459.32,599.75c-.3.7-.89,1.58-1.62,1.32a1.54,1.54,0,0,1-.53-.42,53.43,53.43,0,0,1-5-6.3c-.66-1-2.15-3.06-2.22-5.15,0-1,1.82-2.33,3.08-4.07a33.31,33.31,0,0,1,2.64-3.31c1-.72,2.3.06,3.23.83l5.2,4.24c.45.36,1.5,1.82,1.36,2.38C464.92,591.17,460.66,596.62,459.32,599.75Z" transform="translate(-308.58 -99.97)"/><path class="cls-8" d="M458,595.35c-.16.34-.44.77-.79.64a.65.65,0,0,1-.26-.2,26.15,26.15,0,0,1-2.46-3.08,5.13,5.13,0,0,1-1.08-2.51c0-.51.88-1.14,1.51-2a14.33,14.33,0,0,1,1.29-1.63c.47-.34,1.11,0,1.57.4.85.71,1.69,1.39,2.53,2.08.23.17.74.89.67,1.17C460.69,591.16,458.6,593.82,458,595.35Z" transform="translate(-308.58 -99.97)"/><path class="cls-2" d="M428,600.39c-.3.72-.89,1.58-1.61,1.32a1.41,1.41,0,0,1-.54-.43,55.54,55.54,0,0,1-5-6.29c-.65-1-2.14-3.06-2.2-5.15-.05-1,1.81-2.33,3.08-4.06a29.33,29.33,0,0,1,2.64-3.33c1-.72,2.29.07,3.22.83l5.2,4.24c.45.36,1.51,1.83,1.35,2.38C433.56,591.81,429.29,597.26,428,600.39Z" transform="translate(-308.58 -99.97)"/><path class="cls-8" d="M426.58,596c-.15.34-.43.76-.78.63a.58.58,0,0,1-.27-.19,26.88,26.88,0,0,1-2.46-3.09,5.22,5.22,0,0,1-1.08-2.51c0-.5.88-1.14,1.5-2a15,15,0,0,1,1.29-1.61c.48-.36,1.13,0,1.58.39l2.54,2.09c.21.16.73.88.66,1.16C429.32,591.8,427.23,594.45,426.58,596Z" transform="translate(-308.58 -99.97)"/><path class="cls-5" d="M485.37,522.27c.72-.26,1.43-.56,2.12-.88a9.48,9.48,0,0,0,3.2-3.25,8.75,8.75,0,0,0-1.38-10.63c-2.67-2.69-7.38-3.55-10.64-1.38a.57.57,0,0,0-.16.11,8.88,8.88,0,0,0-3.95,5.14,8.66,8.66,0,0,0,.86,6.62,9.85,9.85,0,0,0,3.34,3.39l-4-5.19,0,.07a9,9,0,0,0,3.93,5.13,8.33,8.33,0,0,0,6.62.87Z" transform="translate(-308.58 -99.97)"/><path class="cls-8" d="M526.29,497.32c-5.46.95-15.49.46-18,6.77-1.15,2.84-.79,5.69,2.07,7.24,2.58,1.38,6.56.5,7.85-2.19a.8.8,0,0,0-.7-1.19c-1.92.13-4.07,1-5.92.1-2.07-1.06-.73-4.37.64-5.3,1.57-1,3.71-1.4,5.52-1.84a81,81,0,0,0,8.77-2.89.36.36,0,0,0-.18-.7Z" transform="translate(-308.58 -99.97)"/><path class="cls-8" d="M476.58,540.58c5.05,4.58,30.15,8.51,30.25-2.32a1.85,1.85,0,0,0-1.34-1.77c-3.23-1.13-7.21,1.35-10.46,2a40.7,40.7,0,0,1-17-.41,1.49,1.49,0,0,0-1.43,2.48Z" transform="translate(-308.58 -99.97)"/><path class="cls-8" d="M524.73,576.09c.92-3.41.5-7,0-10.42-.35-2.59-1.48-5.13-1.51-7.74,0-4.94-7.14-4.78-7.56,0-.24,2.72,1.29,5.48,2.37,7.87,1.56,3.46,2,7.29,3.83,10.67a1.58,1.58,0,0,0,2.85-.38Z" transform="translate(-308.58 -99.97)"/><path class="cls-8" d="M491.79,576.84c1.71-2.44,1.93-5.64,2.29-8.52.43-3.3,1.67-6.49,1.12-9.85-.74-4.45-8.37-3.43-7.91,1.07.6,5.61-.16,11.38,1.42,16.89a1.7,1.7,0,0,0,3.08.41Z" transform="translate(-308.58 -99.97)"/><path class="cls-8" d="M458.32,575.15c1.16-5.29,3.86-10,4.46-15.43.66-5.8-9.67-5.79-9,0,.6,5.09-.83,10.49.79,15.43.56,1.73,3.32,2,3.75,0Z" transform="translate(-308.58 -99.97)"/><path class="cls-8" d="M426.41,575.49a17.2,17.2,0,0,0,3.37-6.15c.92-2.61,2.4-5,3.05-7.73,1.2-5-6.55-7.17-7.74-2.13a73,73,0,0,0-1.55,7.37c-.29,2.21.15,4.55-.36,6.76-.42,1.8,1.86,3.4,3.23,1.88Z" transform="translate(-308.58 -99.97)"/><path class="cls-6" d="M520.44,546.43A22.83,22.83,0,0,0,519,544c-.7-1.4-2.86-.16-2.09,1.23.35.63,1,1.14,1.3,1.82.54,1.36,2.74.82,2.23-.62Z" transform="translate(-308.58 -99.97)"/><path class="cls-6" d="M516.09,548.65a3.7,3.7,0,0,0-.12-3.75,1.94,1.94,0,0,0-2.08-.85,1.89,1.89,0,0,0-1,2.9,7.67,7.67,0,0,0,1.59,1.91,1,1,0,0,0,1.6-.21Z" transform="translate(-308.58 -99.97)"/><path class="cls-6" d="M511.39,549.81a5.81,5.81,0,0,0-.3-2.07c-.24-.85-.47-1.72-1.33-2.11a1.53,1.53,0,0,0-2.23.9c-.35,1.57,1.07,3.72,2.55,4.29.67.26,1.26-.39,1.31-1Z" transform="translate(-308.58 -99.97)"/><path class="cls-6" d="M506.35,550.8c.26-1.43.52-3.32-.85-4.27a1.44,1.44,0,0,0-1.8.23,2.35,2.35,0,0,0-.15,2.8,4.45,4.45,0,0,0,1.64,1.72.8.8,0,0,0,1.16-.48Z" transform="translate(-308.58 -99.97)"/><path class="cls-6" d="M500.45,551.76c.81-.21,1.15-1.15,1.31-1.87a2.69,2.69,0,0,0-1-3.07,1.63,1.63,0,0,0-2.21.57,3.63,3.63,0,0,0,.1,2.89c.22.75.85,1.71,1.78,1.48Z" transform="translate(-308.58 -99.97)"/><path class="cls-6" d="M495.62,552.37c1-.43,1.14-1.89,1.2-2.81.09-1.4-1.18-3.36-2.75-2.43-1.24.74-1.06,2.27-.66,3.44.32.92,1,2.29,2.21,1.8Z" transform="translate(-308.58 -99.97)"/><path class="cls-6" d="M490.37,552.55c1.75-.72,2-4.34.3-5.24a1.59,1.59,0,0,0-1.54,0c-1.2.85-1.06,2-.79,3.26.17.75,1,2.4,2,2Z" transform="translate(-308.58 -99.97)"/><path class="cls-6" d="M485.91,552.24a4.13,4.13,0,0,0,.24-4.5,1.86,1.86,0,0,0-3.39,1.43,9.51,9.51,0,0,0,1.49,3.07,1.19,1.19,0,0,0,1.66,0Z" transform="translate(-308.58 -99.97)"/><path class="cls-6" d="M480.64,552.38c.82-.37,1-1.46,1-2.25a3.53,3.53,0,0,0-.78-2.82,1.74,1.74,0,0,0-2.71.35,4.11,4.11,0,0,0,0,3.21c.34,1,1.33,2,2.46,1.51Z" transform="translate(-308.58 -99.97)"/><path class="cls-6" d="M475.58,551.91c1.36-.93,1.75-3.73.49-4.87a1.35,1.35,0,0,0-1.89,0,2.65,2.65,0,0,0-.46,2.59,8.35,8.35,0,0,0,1,2.18.68.68,0,0,0,.84.1Z" transform="translate(-308.58 -99.97)"/><path class="cls-6" d="M471.72,551.21c.46-1.24.83-2.51.13-3.75-.61-1.08-2.61-1-2.83.37s.41,2.4,1,3.61c.37.81,1.48.46,1.73-.23Z" transform="translate(-308.58 -99.97)"/><path class="cls-6" d="M466.14,551.9a2.41,2.41,0,0,0,1.11-1.91,3.13,3.13,0,0,0-1.17-3.26,1.66,1.66,0,0,0-2.41,1c-.43,1.08.76,5,2.47,4.2Z" transform="translate(-308.58 -99.97)"/><path class="cls-6" d="M461.05,551.6a3.86,3.86,0,0,0,.26-4.27,1.63,1.63,0,0,0-2.94.37c-.53,1.42.29,3.67,1.79,4.15a.9.9,0,0,0,.89-.25Z" transform="translate(-308.58 -99.97)"/><path class="cls-6" d="M455.48,551.76c1-.92,1-3.45-.33-4.06a1.2,1.2,0,0,0-1.6.41,3.18,3.18,0,0,0,1.21,3.75.61.61,0,0,0,.72-.1Z" transform="translate(-308.58 -99.97)"/><path class="cls-6" d="M450.81,552.38c1-1.06,1.38-3.73-.08-4.55a1.09,1.09,0,0,0-1.09,0c-.89.67-.83,1.46-.67,2.47a3.89,3.89,0,0,0,1.06,2.08.55.55,0,0,0,.78,0Z" transform="translate(-308.58 -99.97)"/><path class="cls-6" d="M446.16,552.5c.09-.29.29-1.11.35-1.47a2.74,2.74,0,0,0-.63-2.69,1.63,1.63,0,0,0-2.2,0,2.67,2.67,0,0,0-.51,2.89,2.89,2.89,0,0,0,1.69,2,1.06,1.06,0,0,0,1.3-.73Z" transform="translate(-308.58 -99.97)"/><path class="cls-6" d="M440.79,553a11.51,11.51,0,0,0,.65-1.78,2.88,2.88,0,0,0-.61-2.75c-.66-.59-2-.44-2.17.57a6,6,0,0,0,.18,2.18,12.38,12.38,0,0,0,.59,1.78.71.71,0,0,0,1.36,0Z" transform="translate(-308.58 -99.97)"/><path class="cls-6" d="M435.14,553.93c1.49-.58,1.51-2.56,1.32-3.89a1.64,1.64,0,0,0-1.16-1.16,1.64,1.64,0,0,0-2.09,1.6,4.44,4.44,0,0,0,.49,2.56c.26.39.85,1.12,1.44.89Z" transform="translate(-308.58 -99.97)"/><path class="cls-6" d="M430.36,553.12c.43-1.16,1.5-3.07.28-4.09a1.12,1.12,0,0,0-1.3-.17c-1.58.74-1,3.26-.33,4.44a.75.75,0,0,0,1.35-.18Z" transform="translate(-308.58 -99.97)"/><path class="cls-6" d="M425.64,553.54c.95-1.11,2.22-3.37.75-4.61a1.29,1.29,0,0,0-1.53-.2c-1.46,1-1.28,3.38-.37,4.67a.74.74,0,0,0,1.15.14Z" transform="translate(-308.58 -99.97)"/><path class="cls-6" d="M421,552.68a8.16,8.16,0,0,0,1.37-2.73,1.48,1.48,0,0,0-2.85-.78,4.7,4.7,0,0,0,.27,3.34.67.67,0,0,0,1.21.17Z" transform="translate(-308.58 -99.97)"/><path class="cls-5" d="M521.75,558.25c-.78-2.39-4.46-1.41-3.79,1s4.55,1.32,3.79-1Z" transform="translate(-308.58 -99.97)"/><path class="cls-5" d="M521,562a1.65,1.65,0,0,0,0,3.3,1.65,1.65,0,0,0,0-3.3Z" transform="translate(-308.58 -99.97)"/><path class="cls-5" d="M522,566.9a1.15,1.15,0,0,0,0,2.3,1.15,1.15,0,0,0,0-2.3Z" transform="translate(-308.58 -99.97)"/><path class="cls-5" d="M491.14,557.7c-2.81,0-2.81,4.37,0,4.37s2.8-4.37,0-4.37Z" transform="translate(-308.58 -99.97)"/><path class="cls-5" d="M491.09,563.16a1.53,1.53,0,0,0,0,3.05,1.53,1.53,0,0,0,0-3.05Z" transform="translate(-308.58 -99.97)"/><path class="cls-5" d="M490.85,567.34a1,1,0,0,0,0,1.94,1,1,0,0,0,0-1.94Z" transform="translate(-308.58 -99.97)"/><path class="cls-5" d="M458.31,557.21c-2.73,0-2.73,4.26,0,4.26s2.74-4.26,0-4.26Z" transform="translate(-308.58 -99.97)"/><path class="cls-5" d="M457.44,563.21a1.36,1.36,0,0,0,0,2.72,1.36,1.36,0,0,0,0-2.72Z" transform="translate(-308.58 -99.97)"/><path class="cls-5" d="M457.27,567.4a.77.77,0,0,0,0,1.53.77.77,0,0,0,0-1.53Z" transform="translate(-308.58 -99.97)"/><path class="cls-5" d="M428.68,559.3a1.76,1.76,0,0,0,0,3.52,1.76,1.76,0,0,0,0-3.52Z" transform="translate(-308.58 -99.97)"/><path class="cls-5" d="M427.2,563.81a1.27,1.27,0,0,0,0,2.53,1.27,1.27,0,0,0,0-2.53Z" transform="translate(-308.58 -99.97)"/><path class="cls-5" d="M426,568.71l.09,0c1,.39,1-1.71-.15-1.16,0,0-.05,0-.07,0-.52.24-.29.9.13,1.08Z" transform="translate(-308.58 -99.97)"/><path class="cls-5" d="M535.13,452.09c2.81-.08,4.86-2.45,6.77-4.26,2.62-2.46,5.54-4.74,7.4-7.89,2-3.31-2.93-7.34-5.44-4.21-3.52,4.41-7.33,9.23-9.94,14.24a1.42,1.42,0,0,0,1.21,2.12Z" transform="translate(-308.58 -99.97)"/><path class="cls-5" d="M527.68,440.81a10.08,10.08,0,0,1,2.17-2.3,35.32,35.32,0,0,0,3-3.39c1.73-2.22,4.29-5.53,3.13-8.53-1.32-3.41-6.24-3.87-7.38,0a73,73,0,0,1-4.85,11.9c-1.34,2.63,2.62,5,4,2.32Z" transform="translate(-308.58 -99.97)"/><path class="cls-5" d="M498.33,428c1.41-2,1.2-5.16.63-7.37-.83-3.26-5.73-2.51-5.77.76,0,2.42,1.4,4.62,2.59,6.61a1.5,1.5,0,0,0,2.55,0Z" transform="translate(-308.58 -99.97)"/><path class="cls-5" d="M466.56,445.44c.95-3.82-1.53-7-2.45-10.54-1-4-3.48-8.9-8.38-7.82-2.48.53-3.57,3.21-3.11,5.49a9.65,9.65,0,0,0,1.72,3.12c.63,1,1.07,2.16,1.73,3.19a36.85,36.85,0,0,0,7.1,7.45,2.05,2.05,0,0,0,3.39-.89Z" transform="translate(-308.58 -99.97)"/><path class="cls-5" d="M442.12,457c.44-3.18-1.85-6.44-3.48-9a35.27,35.27,0,0,0-8.7-9.16c-2.08-1.6-5.38-.31-6.57,1.73-1.42,2.41-.41,5,1.72,6.59,2.73,1.94,5.16,4.32,7.72,6.5,2.1,1.81,4.77,4.59,7.72,4.6a1.65,1.65,0,0,0,1.59-1.22Z" transform="translate(-308.58 -99.97)"/><path class="cls-8" d="M495.11,411a2.64,2.64,0,1,0,2.63,2.63,2.65,2.65,0,0,0-2.63-2.63Z" transform="translate(-308.58 -99.97)"/><path class="cls-8" d="M535.16,417.73a2.69,2.69,0,1,0,2.69,2.69,2.72,2.72,0,0,0-2.69-2.69Z" transform="translate(-308.58 -99.97)"/><path class="cls-8" d="M565.22,428.35a2.67,2.67,0,1,0,2.67,2.67,2.7,2.7,0,0,0-2.67-2.67Z" transform="translate(-308.58 -99.97)"/><path class="cls-8" d="M454.32,419.87a3.43,3.43,0,1,0,3.43,3.42,3.45,3.45,0,0,0-3.43-3.42Z" transform="translate(-308.58 -99.97)"/><path class="cls-8" d="M425.47,431a3.34,3.34,0,0,0-3.37.9,3.47,3.47,0,1,0,3.37-.9Z" transform="translate(-308.58 -99.97)"/><path class="cls-8" d="M412.19,439.73a3.36,3.36,0,0,0-3.38.88,3.47,3.47,0,1,0,3.38-.88Z" transform="translate(-308.58 -99.97)"/><path class="cls-5" d="M488.16,426.05a1.51,1.51,0,0,0,.69-.7,1.42,1.42,0,0,0-1.93-1.93l-.1.05c.37-.05.75-.1,1.11-.13a.5.5,0,0,0-.13,0,1.5,1.5,0,0,0-1.89,1.43,1.52,1.52,0,0,0,2.25,1.31Z" transform="translate(-308.58 -99.97)"/><path class="cls-5" d="M482,426.31a1.39,1.39,0,0,0,0,2.77,1.39,1.39,0,0,0,0-2.77Z" transform="translate(-308.58 -99.97)"/><path class="cls-5" d="M475.42,427a1.66,1.66,0,0,0,0,3.31,1.66,1.66,0,0,0,0-3.31Z" transform="translate(-308.58 -99.97)"/><path class="cls-5" d="M470.17,426.65l-.22-.08a1.32,1.32,0,1,0,0,2.54.85.85,0,0,0,.22-.09,1.23,1.23,0,0,0,0-2.37Z" transform="translate(-308.58 -99.97)"/><path class="cls-5" d="M466.32,427.26l.09-.18a1.61,1.61,0,0,0-.25-1.91l-.08-.1a1.51,1.51,0,0,0-2.51.67,2.2,2.2,0,0,0,0,1.14,1.53,1.53,0,0,0,2.77.38Z" transform="translate(-308.58 -99.97)"/><path class="cls-5" d="M449.3,430.58a1.2,1.2,0,0,0,0,2.4,1.2,1.2,0,0,0,0-2.4Z" transform="translate(-308.58 -99.97)"/><path class="cls-5" d="M446.4,434.27a1.39,1.39,0,0,0,0,2.77,1.39,1.39,0,0,0,0-2.77Z" transform="translate(-308.58 -99.97)"/><path class="cls-5" d="M440.6,437.33l-.18,0h.68a1.08,1.08,0,0,1-.19,0c-1.08-.14-2.19,1.13-1.18,2a2.25,2.25,0,0,0,.87.53,1.32,1.32,0,1,0,0-2.55Z" transform="translate(-308.58 -99.97)"/><path class="cls-5" d="M435.15,436.88a1.42,1.42,0,0,0,0,2.83,1.42,1.42,0,0,0,0-2.83Z" transform="translate(-308.58 -99.97)"/><path class="cls-5" d="M416.92,442.6a1.33,1.33,0,0,0,0,2.66,1.33,1.33,0,0,0,0-2.66Z" transform="translate(-308.58 -99.97)"/><path class="cls-5" d="M501.3,417.11a.89.89,0,0,0,0,1.78.89.89,0,0,0,0-1.78Z" transform="translate(-308.58 -99.97)"/><path class="cls-5" d="M506.79,419l-.12-.13a1.45,1.45,0,1,0,0,2.06l.12-.13a1.28,1.28,0,0,0,0-1.8Z" transform="translate(-308.58 -99.97)"/><path class="cls-5" d="M518.74,426a1.32,1.32,0,0,0,0,2.63,1.32,1.32,0,0,0,0-2.63Z" transform="translate(-308.58 -99.97)"/><path class="cls-5" d="M524.53,425.22a1.61,1.61,0,0,0,0,3.21,1.61,1.61,0,0,0,0-3.21Z" transform="translate(-308.58 -99.97)"/><path class="cls-5" d="M538.62,432.64a1.3,1.3,0,0,0,0,2.59,1.3,1.3,0,0,0,0-2.59Z" transform="translate(-308.58 -99.97)"/><path class="cls-5" d="M554.65,438.28s.05-.07.08-.08c-.37.14-.74.31-1.12.45h.09A1.66,1.66,0,1,0,552,437a1.84,1.84,0,0,0,.52,1.29,1.5,1.5,0,0,0,2.09,0Z" transform="translate(-308.58 -99.97)"/><path class="cls-6" d="M405.68,392.72c-3.69,2.06-7.08,5.12-10.3,7.86s-3,9.29-5.4,15c-.39.95-1.74,1-2.75,1.16C377,418,365.53,411.88,359,403.86s-9.36-18.61-9.36-28.93a34.47,34.47,0,0,1,1.41-10.56c1.18-3.66,12.12-9.46,13.63-13,3.86-9,4.07-15.22,1-24.54,10.85-2.3,13.34-4.86,24.42-4.28a6.71,6.71,0,0,1,2.7.54c1.66.88,2.27,3,2.37,4.83.3,5.4-2.12,11.05,0,16,1.78,4.27,14.07,3.87,23.22,13.84A18.47,18.47,0,0,1,421.21,378C418.07,384.5,412,389.18,405.68,392.72Z" transform="translate(-308.58 -99.97)"/><path class="cls-8" d="M398.67,370.76c-.73-4.13-.15-6.52.86-10.62.94-3.9,1.15-4.56,2.12-4.37a2.08,2.08,0,0,1,.64.34l9.82,7c1.32.95,2.74,2,3.1,3.64a6.77,6.77,0,0,1-.76,3.93q-2.26,5.39-4.51,10.78a3.36,3.36,0,0,1-.35.68,2.18,2.18,0,0,1-2.74.34C406,382,399.22,373.81,398.67,370.76Z" transform="translate(-308.58 -99.97)"/><path class="cls-8" d="M392,362.18c2,3.44,4.73,7.08,4.07,11-.16.91-3.29,7.12-5.26,11a1.88,1.88,0,0,1-3.22.21c-2.18-3.09-3.75-7.92-5.7-10.74a2,2,0,0,1-.34-1.52c1.28-6.09,2.47-9.73,3.75-16.06a.11.11,0,0,1,0-.05,1.86,1.86,0,0,1,3.56-.24A44.45,44.45,0,0,0,392,362.18Z" transform="translate(-308.58 -99.97)"/><path class="cls-8" d="M376.2,358.36c.33,3.43.66,6.85,1,10.28a20.12,20.12,0,0,1,.13,2.8c-.17,3.38-5.84,9.39-8.89,12a1.56,1.56,0,0,1-2.49-.7c-.93-2.87-1.72-6.22-2.61-9.2a6.71,6.71,0,0,1,1.24-6.21c3.2-3.88,6.62-7.29,9.35-11.6a1,1,0,0,1,1.74.15A9.14,9.14,0,0,1,376.2,358.36Z" transform="translate(-308.58 -99.97)"/><path class="cls-5" d="M407.6,372.53l.14-.09a3.11,3.11,0,0,0,0-5.3,3.05,3.05,0,0,0-3.09,0,3.19,3.19,0,0,0-1.53,2.64,1,1,0,0,0,0,.18c-.27,2.22,2.73,3.75,4.49,2.57Z" transform="translate(-308.58 -99.97)"/><path class="cls-5" d="M388.84,368.25a3,3,0,1,0,3,3,3,3,0,0,0-3-3Z" transform="translate(-308.58 -99.97)"/><path class="cls-5" d="M370.09,367.79c-4.2,0-4.2,6.51,0,6.51s4.2-6.51,0-6.51Z" transform="translate(-308.58 -99.97)"/><path class="cls-2" d="M406.19,383.61c-3.21,0-3.21,5,0,5s3.19-5,0-5Z" transform="translate(-308.58 -99.97)"/><path class="cls-2" d="M389.65,386.07c-3.16,0-3.16,4.91,0,4.91s3.17-4.91,0-4.91Z" transform="translate(-308.58 -99.97)"/><path class="cls-2" d="M367.89,384.8a3.16,3.16,0,1,0,3.17,3.16,3.19,3.19,0,0,0-3.17-3.16Z" transform="translate(-308.58 -99.97)"/><path class="cls-2" d="M400.68,351c-2.77,0-2.77,4.29,0,4.29s2.76-4.29,0-4.29Z" transform="translate(-308.58 -99.97)"/><path class="cls-2" d="M386.65,348.58c-3,0-3,4.68,0,4.68s3-4.68,0-4.68Z" transform="translate(-308.58 -99.97)"/><path class="cls-2" d="M375.11,349.25c-3.4,0-3.4,5.27,0,5.27s3.39-5.27,0-5.27Z" transform="translate(-308.58 -99.97)"/><path class="cls-2" d="M474.36,595a15.27,15.27,0,0,1-1.62-2.37c-.34-.52-.88-1.4-1.64-.94a.77.77,0,0,0-.41.7c.2,1.53,1.8,2.69,3.08,3.39a.5.5,0,0,0,.59-.78Z" transform="translate(-308.58 -99.97)"/><path class="cls-2" d="M477.83,586.43a3.8,3.8,0,0,0-.86-3.33.47.47,0,0,0-.72.09,3.83,3.83,0,0,0-.37,1.32c0,.62.26,1.3.28,1.92a.84.84,0,0,0,1.67,0Z" transform="translate(-308.58 -99.97)"/><path class="cls-2" d="M469.41,583.27c-.27-1-.73-2.37-1.81-2.73a.42.42,0,0,0-.53.41c.11,1,.87,1.73,1.18,2.64a.6.6,0,0,0,1.16-.32Z" transform="translate(-308.58 -99.97)"/><path class="cls-2" d="M476.73,575.54c-.65-1.11-1.25-2.71-2.49-3.26-.71-.33-1.82.21-1.48,1.14.51,1.35,1.9,2.25,3.05,3,.57.39,1.23-.36.92-.91Z" transform="translate(-308.58 -99.97)"/><path class="cls-2" d="M500.46,581.8c-1.08.36-2.2.08-3.25.42a.29.29,0,0,0,0,.56,5.05,5.05,0,0,0,3.44-.3c.42-.16.26-.83-.19-.68Z" transform="translate(-308.58 -99.97)"/><path class="cls-2" d="M502.23,573.61a6,6,0,0,0,2-1.72c.43-.54,1.15-1.67.52-2.3-1.12-1.11-2.72,2.9-3.1,3.49-.23.35.21.71.54.53Z" transform="translate(-308.58 -99.97)"/><path class="cls-2" d="M446.84,582.14a1.13,1.13,0,0,0,1,.23c.05,0,0-.08,0-.07a1,1,0,0,1-1-.21,0,0,0,0,0,0,0Z" transform="translate(-308.58 -99.97)"/><path class="cls-2" d="M447,582.84c-.81-.22-1.6-.42-2.42-.6-.37-.07-.72-.2-1.08-.28s-.6.08-.9.21a.38.38,0,0,0-.17.43c.56,1.55,3,1.4,4.42,1.34a.56.56,0,0,0,.15-1.1Z" transform="translate(-308.58 -99.97)"/><path class="cls-2" d="M438.31,584.88a8.31,8.31,0,0,0-.05-2.9c-.16-.82-.37-2.37-1.46-2.4s-1,1.09-.77,1.75a14.56,14.56,0,0,1,.86,3.36c.07.75,1.29,1.06,1.42.19Z" transform="translate(-308.58 -99.97)"/><path class="cls-2" d="M444.15,575.82a6.19,6.19,0,0,0,0-2.71c-.18-.91-.38-2-1.28-2.46a.94.94,0,0,0-1.36.55,4.89,4.89,0,0,0,.52,2.48,5.2,5.2,0,0,0,1.24,2.38.56.56,0,0,0,.92-.24Z" transform="translate(-308.58 -99.97)"/><path class="cls-2" d="M447.1,589.07c-.46,0-.74,0-1.07.33a.43.43,0,0,0,0,.6,1.25,1.25,0,0,0,1.07.28c.77,0,.78-1.24,0-1.21Z" transform="translate(-308.58 -99.97)"/><path class="cls-15" d="M366,327.81c-5.64-1.88-11.1-6.21-10.65-8.14,2.17-9.42,15.51-22.34,23.17-25.68,9.59-4.16,14.09-.19,19.4,2.94,6.8,4,51.94,27.73,75.76,40,23.17,11.89,47.59,26,62.94,34.75,10.81,6.18,32.75,13.29,43.09,17.95,19.41,8.76,24.42,11.69,23.38,13.57-5,9.06-12.22,16.55-18.11,23.28-1.6,1.83-3.33,3.73-5.66,4.4a10.1,10.1,0,0,1-7.17-.85c-35.85-18-70.83-40-107.54-60.23C431.06,351.29,402.43,340,366,327.81Z" transform="translate(-308.58 -99.97)"/><path class="cls-8" d="M458,359.72a1.5,1.5,0,0,1-.36-2.35,144.92,144.92,0,0,1,15.3-13,2.54,2.54,0,0,1,3-.07c4.86,3.38,9.77,6.9,14.63,10.28a1.29,1.29,0,0,1,0,2.15c-4.59,3-9.31,7.91-13.63,10.53-.76.46-1.64,1.14-2.46.82A166.62,166.62,0,0,1,458,359.72Z" transform="translate(-308.58 -99.97)"/><path class="cls-5" d="M475.09,360.6a4.5,4.5,0,1,0-4.5-4.5,4.55,4.55,0,0,0,4.5,4.5Z" transform="translate(-308.58 -99.97)"/><path class="cls-5" d="M475.61,373.82c2.59,0,2.59-4,0-4a2,2,0,0,0,0,4Z" transform="translate(-308.58 -99.97)"/><path class="cls-5" d="M474,342a1.3,1.3,0,0,0,0-2.59,1.3,1.3,0,0,0,0,2.59Z" transform="translate(-308.58 -99.97)"/><path class="cls-5" d="M453.16,360.47a1.66,1.66,0,1,0-1.66-1.66,1.69,1.69,0,0,0,1.66,1.66Z" transform="translate(-308.58 -99.97)"/><path class="cls-5" d="M493.4,355a2.23,2.23,0,0,0,.52,2.14,2.06,2.06,0,0,0,2.56.28,2,2,0,0,0,.94-1.63,1.88,1.88,0,0,0-.94-1.63,3.19,3.19,0,0,0-1.28-.33l.94.24.21.17a1.78,1.78,0,0,0-3,.76Z" transform="translate(-308.58 -99.97)"/><path class="cls-8" d="M445.05,334.53c.18,1.09.4,4,2.06,3.7.78-.15.49-1.24.31-1.68a13,13,0,0,1-.71-2.48c-.24-1.09-1.83-.62-1.66.46Z" transform="translate(-308.58 -99.97)"/><path class="cls-8" d="M498.27,373.35c.18,1.08.41,4,2.07,3.7.77-.16.48-1.24.3-1.69a12.63,12.63,0,0,1-.7-2.47c-.25-1.11-1.85-.62-1.67.46Z" transform="translate(-308.58 -99.97)"/><path class="cls-8" d="M577.31,394c.17,1.09.4,4,2.06,3.7.76-.14.49-1.24.29-1.68a13.46,13.46,0,0,1-.7-2.48c-.24-1.09-1.84-.61-1.65.46Z" transform="translate(-308.58 -99.97)"/><path class="cls-8" d="M388.07,298.64c.18,1.07.41,4,2.06,3.68.78-.14.49-1.24.31-1.68a12.55,12.55,0,0,1-.71-2.48c-.23-1.09-1.83-.6-1.66.48Z" transform="translate(-308.58 -99.97)"/><path class="cls-8" d="M551.52,396.45c-.66.87-2.63,3.05-1.26,4,.64.47,1.23-.49,1.43-.93a12.61,12.61,0,0,1,1.31-2.21c.63-.93-.82-1.75-1.48-.89Z" transform="translate(-308.58 -99.97)"/><path class="cls-8" d="M433.16,321.38c.18,1.08.4,4,2.06,3.69.77-.15.49-1.22.29-1.68a13.81,13.81,0,0,1-.69-2.46c-.24-1.11-1.84-.62-1.66.45Z" transform="translate(-308.58 -99.97)"/><path class="cls-8" d="M401.22,323.88c.18,1.09.41,4,2.06,3.7.78-.15.49-1.24.31-1.68a11.88,11.88,0,0,1-.7-2.48c-.24-1.09-1.85-.62-1.67.46Z" transform="translate(-308.58 -99.97)"/><path class="cls-8" d="M548.29,383.82c.18,1.09.4,4,2.06,3.68.78-.13.49-1.22.3-1.68a13,13,0,0,1-.7-2.46c-.24-1.09-1.84-.62-1.66.46Z" transform="translate(-308.58 -99.97)"/><path class="cls-8" d="M386,320.76c.18,1.08.41,4,2.07,3.69.77-.15.49-1.24.3-1.68a13.24,13.24,0,0,1-.7-2.48c-.25-1.09-1.85-.62-1.67.47Z" transform="translate(-308.58 -99.97)"/><path class="cls-8" d="M362.2,313.39c-.4,1-1.68,3.67-.09,4.24.74.26,1.05-.81,1.1-1.3a14.41,14.41,0,0,1,.66-2.48c.36-1.08-1.27-1.47-1.67-.46Z" transform="translate(-308.58 -99.97)"/><path class="cls-8" d="M437.33,345.39c.18,1.07.41,4,2.06,3.68.78-.15.49-1.22.3-1.68a13.48,13.48,0,0,1-.7-2.46c-.24-1.11-1.84-.62-1.66.46Z" transform="translate(-308.58 -99.97)"/><path class="cls-8" d="M424.53,343.31c.15.9.34,3.31,1.7,3.05.65-.11.41-1,.25-1.38a11.28,11.28,0,0,1-.58-2c-.2-.91-1.52-.52-1.37.37Z" transform="translate(-308.58 -99.97)"/><path class="cls-8" d="M537.64,403c.15.88.33,3.31,1.71,3,.62-.11.4-1,.23-1.38a12.29,12.29,0,0,1-.58-2c-.18-.9-1.51-.51-1.36.39Z" transform="translate(-308.58 -99.97)"/><path class="cls-8" d="M527.4,394.78c-.76.5-2.89,1.64-2.1,2.78.37.54,1.09,0,1.38-.32a10,10,0,0,1,1.62-1.37c.76-.54-.15-1.58-.9-1.09Z" transform="translate(-308.58 -99.97)"/><path class="cls-8" d="M509.83,375.14c.15.9.34,3.31,1.71,3.05.63-.11.4-1,.24-1.38a12.42,12.42,0,0,1-.58-2c-.19-.91-1.51-.51-1.37.37Z" transform="translate(-308.58 -99.97)"/><path class="cls-8" d="M516.3,388.92c.15.9.34,3.31,1.71,3.05.64-.11.4-1,.24-1.39a11.18,11.18,0,0,1-.58-2c-.19-.92-1.51-.51-1.37.37Z" transform="translate(-308.58 -99.97)"/><path class="cls-8" d="M561.85,389.18c.14.88.33,3.31,1.71,3.05.63-.11.4-1,.24-1.38a11.25,11.25,0,0,1-.58-2.06c-.2-.9-1.52-.5-1.37.39Z" transform="translate(-308.58 -99.97)"/><path class="cls-8" d="M453.77,346.33c.89.36,1.59,1,2.58.78a.48.48,0,0,0,.33-.57c-.26-1.11-1.49-1.46-2.46-1.82s-1.43,1.22-.45,1.61Z" transform="translate(-308.58 -99.97)"/><path class="cls-8" d="M486.57,366.42c.89.36,1.59,1,2.58.78a.48.48,0,0,0,.33-.57c-.27-1.12-1.5-1.47-2.46-1.84s-1.43,1.24-.45,1.63Z" transform="translate(-308.58 -99.97)"/><path class="cls-8" d="M502.68,385.61c.88.36,1.58,1,2.56.78a.47.47,0,0,0,.33-.57c-.26-1.11-1.48-1.46-2.45-1.82s-1.44,1.22-.44,1.61Z" transform="translate(-308.58 -99.97)"/><path class="cls-8" d="M487.83,377.28c.89.36,1.58.94,2.58.77a.46.46,0,0,0,.31-.56c-.27-1.12-1.48-1.48-2.44-1.84s-1.45,1.22-.45,1.63Z" transform="translate(-308.58 -99.97)"/><path class="cls-8" d="M431.44,333.81c.89.36,1.59,1,2.58.78a.46.46,0,0,0,.32-.57c-.26-1.11-1.48-1.47-2.45-1.83s-1.44,1.23-.45,1.62Z" transform="translate(-308.58 -99.97)"/><path class="cls-8" d="M536,390.16c.88.36,1.58,1,2.57.78a.48.48,0,0,0,.33-.57c-.26-1.11-1.49-1.47-2.46-1.82s-1.43,1.22-.44,1.61Z" transform="translate(-308.58 -99.97)"/><path class="cls-8" d="M555.84,413.12c.88.36,1.57,1,2.57.78a.46.46,0,0,0,.32-.55c-.26-1.13-1.48-1.49-2.44-1.85s-1.44,1.23-.45,1.62Z" transform="translate(-308.58 -99.97)"/><path class="cls-8" d="M396.8,311.49c.88.36,1.58.94,2.57.76a.45.45,0,0,0,.33-.55c-.26-1.13-1.49-1.47-2.46-1.84s-1.43,1.22-.44,1.63Z" transform="translate(-308.58 -99.97)"/><path class="cls-8" d="M534.19,377.69c.88.36,1.58,1,2.57.78a.46.46,0,0,0,.32-.57c-.26-1.13-1.48-1.47-2.45-1.84s-1.43,1.22-.44,1.63Z" transform="translate(-308.58 -99.97)"/><path class="cls-8" d="M565.08,402.11c.89.35,1.58.95,2.57.77a.46.46,0,0,0,.33-.56c-.27-1.12-1.49-1.48-2.45-1.84s-1.44,1.22-.45,1.63Z" transform="translate(-308.58 -99.97)"/><path class="cls-8" d="M411,312.11c.89.35,1.58,1,2.58.78a.47.47,0,0,0,.32-.57c-.27-1.11-1.49-1.47-2.45-1.83s-1.44,1.22-.45,1.62Z" transform="translate(-308.58 -99.97)"/><path class="cls-8" d="M378.43,306.89c.89.36,1.58,1,2.57.78a.47.47,0,0,0,.33-.57c-.26-1.13-1.48-1.47-2.45-1.83s-1.44,1.23-.45,1.62Z" transform="translate(-308.58 -99.97)"/><path class="cls-8" d="M370.32,305.06c.89.36,1.58.95,2.58.77a.45.45,0,0,0,.32-.56c-.26-1.12-1.49-1.46-2.45-1.84s-1.43,1.22-.45,1.63Z" transform="translate(-308.58 -99.97)"/><path class="cls-8" d="M417.88,322.54c.89.36,1.58,1,2.57.78a.45.45,0,0,0,.32-.57c-.26-1.11-1.48-1.46-2.44-1.82s-1.45,1.22-.45,1.61Z" transform="translate(-308.58 -99.97)"/><path class="cls-8" d="M587.62,408.16c.88.36,1.57,1,2.58.77.25,0,.36-.34.31-.56-.26-1.12-1.48-1.46-2.44-1.84s-1.44,1.22-.45,1.63Z" transform="translate(-308.58 -99.97)"/><path class="cls-8" d="M524.38,381.86c.89.36,1.58,1,2.57.77a.44.44,0,0,0,.32-.56c-.25-1.12-1.47-1.46-2.44-1.84s-1.44,1.24-.45,1.63Z" transform="translate(-308.58 -99.97)"/><path class="cls-8" d="M372.79,318.58c.89.36,1.59,1,2.58.78a.46.46,0,0,0,.32-.57c-.25-1.12-1.48-1.47-2.44-1.84s-1.44,1.24-.46,1.63Z" transform="translate(-308.58 -99.97)"/><path class="cls-8" d="M461.5,337.58c.88.35,1.58.94,2.58.78a.46.46,0,0,0,.31-.57c-.26-1.13-1.48-1.47-2.45-1.85s-1.43,1.24-.44,1.64Z" transform="translate(-308.58 -99.97)"/><path class="cls-8" d="M504.91,363.66c.89.36,1.58.95,2.58.77a.43.43,0,0,0,.31-.55c-.26-1.13-1.47-1.47-2.44-1.85s-1.44,1.23-.45,1.63Z" transform="translate(-308.58 -99.97)"/><path class="cls-8" d="M521.61,370.76c.88.36,1.58,1,2.57.78a.46.46,0,0,0,.32-.57c-.26-1.13-1.48-1.47-2.45-1.83s-1.43,1.23-.44,1.62Z" transform="translate(-308.58 -99.97)"/><path class="cls-8" d="M416.21,335.9c.89.35,1.58,1,2.57.78a.45.45,0,0,0,.32-.56c-.25-1.12-1.47-1.48-2.44-1.84s-1.44,1.22-.45,1.62Z" transform="translate(-308.58 -99.97)"/><path class="cls-8" d="M379.27,328.59c.89.36,1.58,1,2.57.78a.45.45,0,0,0,.32-.55c-.25-1.13-1.47-1.48-2.44-1.84s-1.44,1.22-.45,1.61Z" transform="translate(-308.58 -99.97)"/><path class="cls-8" d="M403.48,337c.88.34,1.57.94,2.57.76a.46.46,0,0,0,.32-.57c-.26-1.12-1.48-1.47-2.44-1.82s-1.44,1.22-.45,1.63Z" transform="translate(-308.58 -99.97)"/><path class="cls-8" d="M572.32,415.84c.89.36,1.59,1,2.58.78a.47.47,0,0,0,.32-.57c-.26-1.12-1.48-1.46-2.45-1.84s-1.44,1.24-.45,1.63Z" transform="translate(-308.58 -99.97)"/><path class="cls-16" d="M352.74,206.07a2.05,2.05,0,0,0,1.11-.32c2.5-1.67,9-8.48,10.83-10.38a1.77,1.77,0,0,0,.66-1.32,2,2,0,0,0-.64-1c-2.81-2.8-5.77-5.44-8.42-8.39-1.14-1.28-2.48-2.74-3.33-2.81h-.43c-.85.07-2.2,1.53-3.35,2.81-2.64,2.95-5.6,5.59-8.41,8.39a1.86,1.86,0,0,0-.63,1,1.7,1.7,0,0,0,.65,1.32c1.87,1.9,8.33,8.71,10.83,10.38a2.11,2.11,0,0,0,1.12.32Z" transform="translate(-308.58 -99.97)"/><path class="cls-16" d="M606.3,536.11a2.08,2.08,0,0,0,1.11-.32c2.51-1.67,9-8.48,10.83-10.39a1.7,1.7,0,0,0,.66-1.31,1.89,1.89,0,0,0-.63-1c-2.82-2.8-5.78-5.44-8.43-8.41-1.14-1.27-2.49-2.72-3.33-2.79h-.43c-.85.07-2.2,1.52-3.34,2.79-2.64,3-5.62,5.61-8.42,8.41a2,2,0,0,0-.64,1,1.77,1.77,0,0,0,.66,1.31c1.88,1.91,8.33,8.72,10.84,10.39a2,2,0,0,0,1.1.32Z" transform="translate(-308.58 -99.97)"/><path class="cls-16" d="M374.27,173H367.7l-14.37-26.51-11,13.71V173h-6V125h6V152.8L364.06,125h6.49l-13,16.78Z" transform="translate(-308.58 -99.97)"/><path class="cls-16" d="M584.62,547h6.56l14.37,26.52,11-13.72V547h6v48h-6V567.12L594.83,595h-6.5l13-16.8Z" transform="translate(-308.58 -99.97)"/><path class="cls-16" d="M410.81,593.46H360.3c-13.82,0-25.07-11.94-25.07-26.63V230.71h1.56V566.83c0,13.83,10.55,25.08,23.51,25.08h50.51Z" transform="translate(-308.58 -99.97)"/><rect class="cls-16" x="230.59" y="491.94" width="43.06" height="1.55"/><path class="cls-16" d="M623.65,490.88h-1.56V153.09c0-13.81-10.54-25.07-23.51-25.07H549.42v-1.55h49.16c13.82,0,25.07,11.95,25.07,26.62Z" transform="translate(-308.58 -99.97)"/><rect class="cls-16" x="70.52" y="26.5" width="40.06" height="1.55"/><path class="cls-2" d="M480.89,316a3,3,0,0,0,2.32,2.68.88.88,0,0,0,1-1.27,8.27,8.27,0,0,0-1.77-2.3c-.68-.74-1.67.05-1.53.89Z" transform="translate(-308.58 -99.97)"/><path class="cls-2" d="M501.41,328.49a5.51,5.51,0,0,0,3.61.77c.87-.13,1-1.26.48-1.79-1.15-1.32-2.68-1.24-4.09-.35a.8.8,0,0,0,0,1.37Z" transform="translate(-308.58 -99.97)"/><path class="cls-2" d="M515.69,315.24c1.83-.64,4.2-.59,5.74-1.75a.83.83,0,0,0-.21-1.5c-2.26-.67-4.25,1.24-5.9,2.61-.29.24,0,.75.37.64Z" transform="translate(-308.58 -99.97)"/><path class="cls-2" d="M533.69,295a6.35,6.35,0,0,0,2.45,3.29c.56.38,1.12-.36.87-.88a16.45,16.45,0,0,0-2.14-3.1.71.71,0,0,0-1.18.69Z" transform="translate(-308.58 -99.97)"/><path class="cls-2" d="M542.66,310.38c.82,1.22,1.33,2.67,2.65,3.39a.67.67,0,0,0,1-.57c.11-1.55-1-2.66-1.86-3.87-.76-1-2.53-.08-1.78,1.05Z" transform="translate(-308.58 -99.97)"/><path class="cls-2" d="M558.24,304.41a18.56,18.56,0,0,0,2.65,1.14.73.73,0,0,0,.89-.9c-.34-1.54-1.47-2.12-2.86-2.69s-2.2,1.85-.68,2.45Z" transform="translate(-308.58 -99.97)"/><path class="cls-2" d="M527,335.33a3.5,3.5,0,0,0,.84,2.82.46.46,0,0,0,.77-.31,16.41,16.41,0,0,1-.12-2.51c0-1-1.45-1-1.49,0Z" transform="translate(-308.58 -99.97)"/><path class="cls-2" d="M511.61,346.59c.1,1.39.37,2.48,1.76,3a.52.52,0,0,0,.63-.48c0-.86-.26-1.64-.28-2.51,0-1.37-2.22-1.35-2.11,0Z" transform="translate(-308.58 -99.97)"/><path class="cls-2" d="M529.76,358.61A4.83,4.83,0,0,1,531.4,360c.48.54,1.21,0,1.1-.63a3,3,0,0,0-1.86-2.25c-1-.49-1.89,1.08-.88,1.5Z" transform="translate(-308.58 -99.97)"/><path class="cls-2" d="M447.73,313.38a11.89,11.89,0,0,0,.74,2.35.89.89,0,0,0,1.36.18c.13-.14.26-.27.4-.4a1.28,1.28,0,0,0,.33-1.24,2,2,0,0,0-2.17-1.76.69.69,0,0,0-.66.87Z" transform="translate(-308.58 -99.97)"/><path class="cls-2" d="M477.76,331a3,3,0,0,0,1.17,1,1,1,0,0,0,1,0l.47-.31a.65.65,0,0,0,.13-1c-.39-.31-1.14-.75-1.45-1.06-.88-.91-2.11.41-1.35,1.36Z" transform="translate(-308.58 -99.97)"/><path class="cls-2" d="M441.1,375.4a31.23,31.23,0,0,1,3.32-.48c.86-.18.66-1.28,0-1.55-1.44-.58-2.62-.18-4,.44-.91.42-.26,1.87.67,1.59Z" transform="translate(-308.58 -99.97)"/><path class="cls-2" d="M358.22,339.25l-.29,0a1.19,1.19,0,0,0-1.12.86,2.65,2.65,0,0,0,1.62,3.46.78.78,0,0,0,1-.75,7.17,7.17,0,0,0-.62-3.26.7.7,0,0,0-.57-.33Z" transform="translate(-308.58 -99.97)"/><path class="cls-2" d="M598.88,375.68c1.56.56,2.71.95,4-.19a.74.74,0,0,0,0-1c-1.34-1.14-2.49-.74-4-.18a.73.73,0,0,0,0,1.4Z" transform="translate(-308.58 -99.97)"/><path class="cls-2" d="M600.43,390a3.71,3.71,0,0,0,.4,2.51.87.87,0,0,0,1.36.18c.13-.14.25-.29.38-.44a1.33,1.33,0,0,0,.2-1.58,2.81,2.81,0,0,0-1.25-1.3.73.73,0,0,0-1.09.63Z" transform="translate(-308.58 -99.97)"/><path class="cls-2" d="M552.86,375.44c1-.28,1.92-.05,2.94-.38a.52.52,0,0,0,.12-.94c-1.27-.69-2.25-.41-3.42.45a.48.48,0,0,0,.36.87Z" transform="translate(-308.58 -99.97)"/><path class="cls-2" d="M427.51,360.14a6.33,6.33,0,0,0-.15,4.14.59.59,0,0,0,1,.26,4.7,4.7,0,0,0,.84-4.4.87.87,0,0,0-1.67,0Z" transform="translate(-308.58 -99.97)"/><path class="cls-2" d="M425.16,392.23c.79.26,1.37.74,2.15,1a.76.76,0,0,0,1-.72c-.1-1.62-1.28-2.33-2.85-2.27a1,1,0,0,0-.26,2Z" transform="translate(-308.58 -99.97)"/><path class="cls-2" d="M447.28,395.41a6.43,6.43,0,0,0,2.82,3.15c.62.28,1.43-.31,1-1-.69-1.09-1.68-1.89-2.43-2.95-.6-.81-1.89-.11-1.38.8Z" transform="translate(-308.58 -99.97)"/><path class="cls-2" d="M429.59,410.69c.44,1.68.37,3.72,1.83,4.81a.52.52,0,0,0,.71-.18c.83-1.65-.2-3.51-.86-5.09-.41-1-2-.65-1.68.46Z" transform="translate(-308.58 -99.97)"/><path class="cls-2" d="M409.24,409.3a14.07,14.07,0,0,1-.7,2.14,1.06,1.06,0,0,0,1.3,1.29,2.66,2.66,0,0,0,1.71-3.43,1.21,1.21,0,0,0-2.31,0Z" transform="translate(-308.58 -99.97)"/><path class="cls-2" d="M415.06,425.66l1.37.63c.36.17.9-.21.61-.62a3,3,0,0,0-1.29-1.19c-.76-.47-1.48.8-.69,1.18Z" transform="translate(-308.58 -99.97)"/><path class="cls-2" d="M469,385.5c1.1.58,1.77,1.63,3,1.84a.74.74,0,0,0,.9-.67c.17-2.13-2.09-2.69-3.8-2.25a.59.59,0,0,0-.13,1.08Z" transform="translate(-308.58 -99.97)"/><path class="cls-2" d="M473.42,412.5a5.56,5.56,0,0,0,3.78-1.62.62.62,0,0,0-.43-1A5.86,5.86,0,0,0,473,411c-.59.4-.44,1.58.4,1.48Z" transform="translate(-308.58 -99.97)"/><path class="cls-2" d="M499.41,398.13c.4,1.34.82,2.68,2.4,2.65a.76.76,0,0,0,.73-.56c.22-1.56-.82-2.12-2-2.93a.76.76,0,0,0-1.11.84Z" transform="translate(-308.58 -99.97)"/><path class="cls-2" d="M518.92,414.31a9.53,9.53,0,0,0,4.11-.73.72.72,0,0,0,0-1.23,3.91,3.91,0,0,0-4.58.21,1,1,0,0,0,.47,1.75Z" transform="translate(-308.58 -99.97)"/><path class="cls-2" d="M548.71,425.33a11.67,11.67,0,0,0,3,2.06c.52.21.93-.38.84-.84-.33-1.53-1.49-2.28-2.9-2.82-.88-.36-1.7,1-.95,1.6Z" transform="translate(-308.58 -99.97)"/><path class="cls-2" d="M401.79,399.89a6.6,6.6,0,0,1,2-.84.29.29,0,0,0-.07-.56,2.83,2.83,0,0,0-2.33.88c-.28.25.09.72.4.52Z" transform="translate(-308.58 -99.97)"/></g></svg>