<svg xmlns="http://www.w3.org/2000/svg" xmlns:xlink="http://www.w3.org/1999/xlink" viewBox="0 0 341.71 520"><defs><style>.cls-1{fill:#b70027;}.cls-2{fill:none;}.cls-3{fill:#fff;}.cls-4{fill:#2d2d2d;}.cls-5{fill:#990028;}.cls-6{clip-path:url(#clip-path);}.cls-7{fill:#f70032;}.cls-8{clip-path:url(#clip-path-2);}.cls-9{fill:#0c0a35;}.cls-10{fill:#ffd6a1;}.cls-11{clip-path:url(#clip-path-3);}.cls-12{clip-path:url(#clip-path-4);}.cls-13{clip-path:url(#clip-path-5);}.cls-14{clip-path:url(#clip-path-6);}.cls-15{clip-path:url(#clip-path-7);}.cls-16{clip-path:url(#clip-path-8);}.cls-17{fill:#222272;}.cls-18{fill:#d6002b;}</style><clipPath id="clip-path" transform="translate(-309.1 -99.97)"><path class="cls-1" d="M517.38,330c-9.22-.08-18.28,3-26.2,7.68s-14.26,12.36-20.65,19a23,23,0,0,0-7.65-10.91,54,54,0,0,0-10.63-5.61l-9.94-4.35c-5.13-2.23-11.37-2.07-14.62-6.62a13.56,13.56,0,0,1-1.85-4.84c-4.95-20.34-9.74-42.5-1.08-61.54-13.18-2.35-27.2,3.33-36,13.4s-12.56,24.1-11.27,37.42a50.49,50.49,0,0,0,4.84,17.56,60.16,60.16,0,0,0,11.77,15.95,88.26,88.26,0,0,0,45.49,24.17c8.89,1.71,18,2,27,2.25,20,.49,40.49.44,59.13-6.72a164.88,164.88,0,0,0,17.44-8.33c4.57-2.42,9.24-4.89,12.71-8.71a41.13,41.13,0,0,0,6.36-10.53,239.52,239.52,0,0,0,11.37-29.39c1.89-6.05,3.57-12.27,3.48-18.6-.18-11.32-6.22-22.16-15.1-29.19s-20.34-10.39-31.66-10.45c-5.15,0-11.09,1.06-13.62,5.54a13.42,13.42,0,0,0-1.46,5.76c-.9,11.14,2.71,22.09,4,33.2S520.66,319.3,517.38,330Z"/></clipPath><clipPath id="clip-path-2" transform="translate(-309.1 -99.97)"><path class="cls-1" d="M437.53,263.22a15.52,15.52,0,0,0,17.15,1.16,7.85,7.85,0,0,0,2.35-2,10.08,10.08,0,0,0,1.48-5,224,224,0,0,0-1.45-60.75,36.77,36.77,0,0,0-3-10.81c-1.67-3.38-8.23-6.52-11.82-7.65-9,6-12.67,14.48-15.53,24.92s-1.31,22.92.21,33.64A79.54,79.54,0,0,0,430.47,252C431.93,256.23,434,260.43,437.53,263.22Z"/></clipPath><clipPath id="clip-path-3" transform="translate(-309.1 -99.97)"><path class="cls-2" d="M527,197.33c-3.24-11.14-11.47-20.4-20-28.24s-20.37-14-34.78-16.5a40.31,40.31,0,0,0-9.17-1.58,26.07,26.07,0,0,0-16.36,4.92c-17,12.34-11.13,24.1-10,26.53A94.54,94.54,0,0,0,456,210.39a57.32,57.32,0,0,0,8.53,7.18c9.55,6.37,21.35,8.39,32.88,7.45.1.28.2.54.28.83,3.48,12.59,4.26,19.26,4,27.33-.54,17.67-2.94,22.76-.33,26.09,2.48,3.14,10.37-3.88,13.72-8.95,2.52-3.84,7.19-10.29,9.1-14.47C531.28,240.49,533.33,219.16,527,197.33Z"/></clipPath><clipPath id="clip-path-4" transform="translate(-309.1 -99.97)"><path class="cls-2" d="M581.68,318.56c-2.47,3.92-7.51,3.72-11.89,3.77-6,.08-12.7-.08-17.18-4.14-2.58-2.33-4-5.66-5.51-8.81-7-14.74-16.78-28.84-18-45.1a3.59,3.59,0,0,1,.45-2.48,31.23,31.23,0,0,0,7.35,4.44,4.45,4.45,0,0,0,5.72-1.84l5.35-9.67q5.21,4.57,10.58,9a3,3,0,0,0,3.93-.15,86.51,86.51,0,0,1,11.58-9.23l7.59,11.81a2.33,2.33,0,0,0,1.1,1.07,2.27,2.27,0,0,0,1.73-.36c4-1.94,7.92-3.89,11.88-5.85l1.46,11.41a1.71,1.71,0,0,0,2.14,1.46c3.68-.95,8.17-1.54,11.56-.59-2.31,6.15-8.31,13.78-12.5,18.86C595.49,296.45,584.85,313.54,581.68,318.56Z"/></clipPath><clipPath id="clip-path-5" transform="translate(-309.1 -99.97)"><path class="cls-1" d="M442.52,389.87c9.21.08,18.25-3,26.18-7.68s14.26-12.36,20.66-19A23,23,0,0,0,497,374.12a53.2,53.2,0,0,0,10.64,5.6q5,2.19,9.94,4.34c5.12,2.25,11.37,2.07,14.62,6.64a14,14,0,0,1,1.86,4.84c4.93,20.33,9.73,42.49,1.06,61.54,13.19,2.35,27.21-3.33,36-13.42s12.58-24.08,11.3-37.42a51.12,51.12,0,0,0-4.85-17.56,60.64,60.64,0,0,0-11.78-15.93,88.08,88.08,0,0,0-45.49-24.17c-8.89-1.71-18-2-27-2.25-20-.49-40.49-.44-59.14,6.72a158.24,158.24,0,0,0-17.44,8.33c-4.56,2.41-9.23,4.89-12.7,8.71a40.66,40.66,0,0,0-6.37,10.52A243.43,243.43,0,0,0,386.27,410c-1.9,6.05-3.56,12.27-3.47,18.61.17,11.32,6.22,22.16,15.1,29.19s20.34,10.37,31.66,10.45c5.15,0,11.08-1.06,13.62-5.56a13.78,13.78,0,0,0,1.46-5.74c.89-11.14-2.72-22.1-4-33.2S439.23,400.53,442.52,389.87Z"/></clipPath><clipPath id="clip-path-6" transform="translate(-309.1 -99.97)"><path class="cls-1" d="M522.36,456.61a15.5,15.5,0,0,0-17.16-1.16,8,8,0,0,0-2.35,2,10.23,10.23,0,0,0-1.47,5,224.42,224.42,0,0,0,1.44,60.76,37.57,37.57,0,0,0,3,10.81c1.67,3.36,8.23,6.5,11.81,7.63,9-5.94,12.7-14.46,15.54-24.9s1.31-22.93-.2-33.64a81.43,81.43,0,0,0-3.52-15.28C527.94,463.6,525.86,459.39,522.36,456.61Z"/></clipPath><clipPath id="clip-path-7" transform="translate(-309.1 -99.97)"><path class="cls-2" d="M432.9,522.5c3.23,11.13,11.45,20.39,20,28.24s20.36,14,34.77,16.5a39.91,39.91,0,0,0,9.19,1.56,26.08,26.08,0,0,0,16.34-4.9c17-12.35,11.14-24.1,10-26.53a94.34,94.34,0,0,0-19.36-27.93,58.14,58.14,0,0,0-8.54-7.2c-9.55-6.35-21.34-8.39-32.88-7.43-.09-.28-.2-.54-.28-.85-3.48-12.57-4.26-19.24-4-27.31.53-17.68,2.94-22.76.33-26.09-2.49-3.15-10.38,3.88-13.72,8.95-2.53,3.83-7.19,10.29-9.11,14.47C428.61,479.34,426.55,500.66,432.9,522.5Z"/></clipPath><clipPath id="clip-path-8" transform="translate(-309.1 -99.97)"><path class="cls-2" d="M378.2,401.28c2.47-3.93,7.52-3.73,11.89-3.78,6-.08,12.71.08,17.18,4.14,2.59,2.33,4,5.64,5.51,8.8,7,14.74,16.78,28.85,18,45.09a3.6,3.6,0,0,1-.46,2.49,31.88,31.88,0,0,0-7.34-4.43,4.43,4.43,0,0,0-5.73,1.84q-2.67,4.81-5.35,9.69-5.22-4.61-10.57-9a3,3,0,0,0-3.93.15,87.15,87.15,0,0,1-11.58,9.23l-7.59-11.81a2.39,2.39,0,0,0-1.1-1.08,2.42,2.42,0,0,0-1.74.35l-11.88,5.85-1.45-11.41a1.73,1.73,0,0,0-2.14-1.45c-3.7,1-8.17,1.54-11.57.61,2.31-6.16,8.31-13.81,12.51-18.88C364.4,423.37,375,406.29,378.2,401.28Z"/></clipPath></defs><g id="Layer_1" data-name="Layer 1"><path class="cls-3" d="M621.24,619.19H338.68a28.8,28.8,0,0,1-28.79-28.8V129.55a28.79,28.79,0,0,1,28.79-28.8H621.24a28.8,28.8,0,0,1,28.81,28.8V590.39A28.81,28.81,0,0,1,621.24,619.19Z" transform="translate(-309.1 -99.97)"/><path class="cls-4" d="M621.24,620H338.68a29.62,29.62,0,0,1-29.58-29.59V129.55A29.61,29.61,0,0,1,338.68,100H621.24a29.6,29.6,0,0,1,29.58,29.58V590.38A29.61,29.61,0,0,1,621.24,620ZM338.68,101.54a28,28,0,0,0-28,28V590.38a28.05,28.05,0,0,0,28,28H621.24a28.06,28.06,0,0,0,28-28V129.55a28,28,0,0,0-28-28Z" transform="translate(-309.1 -99.97)"/><path class="cls-5" d="M603.37,341.59c-.77-3.31-10.83-20.08-13.15-22.55-9.39-10-19.58-18-22.53-20.66-8-7.15-42.5,14.28-47.89,5-10.43-18.08-9.09-40.88-18.08-59.71a5.23,5.23,0,0,0-2.5-2.92,5.47,5.47,0,0,0-3,0,80.62,80.62,0,0,0-41.57,22.83,11.65,11.65,0,0,0-2.82,3.94c-1,2.65-2.67,5.63-2,8.39,2.17,9.58,4.09,19.82.14,28.81a38,38,0,0,1-20.49,20.15c-11.83,4.6-25.89-39.12-37.75-34.6-2.84,1.08-17.28,13.52-19.41,15.65a74.65,74.65,0,0,0-16.91,28.18c-2.37,7.42-5.63,26.3,1.1,44.17,1.19,3.18,10.83,20.07,13.15,22.55,9.38,10,19.57,18,22.54,20.66,8,7.14,42.5-14.28,47.87-5,10.44,18.08,9.09,40.88,18.08,59.73a4,4,0,0,0,5.46,2.9,80.56,80.56,0,0,0,41.57-22.81,12,12,0,0,0,2.82-3.95c1-2.64,2.66-5.62,2-8.38-2.18-9.59-4.09-19.82-.14-28.83A37.93,37.93,0,0,1,530.4,395c11.83-4.6,25.89,39.1,37.75,34.6,2.84-1.08,17.27-13.52,19.41-15.66a74.57,74.57,0,0,0,16.9-28.17C606.84,378.34,607.33,358.71,603.37,341.59Z" transform="translate(-309.1 -99.97)"/><path class="cls-5" d="M527.45,228c5-1.91,8.77-6.15,11.11-10.93s3.34-10.09,4-15.36c2.64-20.49.61-41.28-1.42-61.86-.55-5.51-1.12-11.14-3.4-16.17a2.21,2.21,0,0,0-1-1.23c-1-.41-1.92.61-2.52,1.47-3.44,5-6.92,10.39-11.66,14.17a1.07,1.07,0,0,1-1.56-.25c-3.54-5.41-6.67-12.53-11-17.26a1.79,1.79,0,0,0-1-.66c-.66-.08-1.15.61-1.48,1.2-3.41,6.17-6.29,11.12-9.87,16.9a1.18,1.18,0,0,1-1.49.49c-4.6-2.2-13.35-12.83-18.23-16.24a.77.77,0,0,0-1.21.61c-.17,5.57,1,22.19,1.19,27.85.15,4.59,0,9.21.38,13.81.9,11.38,4.86,22.4,10.54,32.31,4.62,8.08,10.37,15.43,16.3,22.6,2.61,3.15,5.35,6.36,9,8.25S523.63,229.49,527.45,228Z" transform="translate(-309.1 -99.97)"/><path class="cls-1" d="M517.38,330c-9.22-.08-18.28,3-26.2,7.68s-14.26,12.36-20.65,19a23,23,0,0,0-7.65-10.91,54,54,0,0,0-10.63-5.61l-9.94-4.35c-5.13-2.23-11.37-2.07-14.62-6.62a13.56,13.56,0,0,1-1.85-4.84c-4.95-20.34-9.74-42.5-1.08-61.54-13.18-2.35-27.2,3.33-36,13.4s-12.56,24.1-11.27,37.42a50.49,50.49,0,0,0,4.84,17.56,60.16,60.16,0,0,0,11.77,15.95,88.26,88.26,0,0,0,45.49,24.17c8.89,1.71,18,2,27,2.25,20,.49,40.49.44,59.13-6.72a164.88,164.88,0,0,0,17.44-8.33c4.57-2.42,9.24-4.89,12.71-8.71a41.13,41.13,0,0,0,6.36-10.53,239.52,239.52,0,0,0,11.37-29.39c1.89-6.05,3.57-12.27,3.48-18.6-.18-11.32-6.22-22.16-15.1-29.19s-20.34-10.39-31.66-10.45c-5.15,0-11.09,1.06-13.62,5.54a13.42,13.42,0,0,0-1.46,5.76c-.9,11.14,2.71,22.09,4,33.2S520.66,319.3,517.38,330Z" transform="translate(-309.1 -99.97)"/><g class="cls-6"><path class="cls-5" d="M370.72,303.19c11.41-5.5,22.42-12.44,34.87-15.3,8.31-1.89,21.22-2.33,24.65-11.67.6-1.65-.67-3.28-2.15-3.79-8.65-3-22.68,2.39-30.87,5.42C386,282,377.14,290.66,367.05,296.91c-4,2.49-.51,8.28,3.67,6.28Z" transform="translate(-309.1 -99.97)"/><path class="cls-5" d="M369.25,336.78c2.6-6.66,16.43-11.32,22.21-15,8.88-5.63,19.39-10.85,25.88-19.31,1.24-1.61-.44-4.3-2.39-4.16-13.19,1.1-24.29,11.91-34.92,18.94-6.38,4.22-15.28,9.71-16.87,17.82a3.16,3.16,0,0,0,6.09,1.68Z" transform="translate(-309.1 -99.97)"/><path class="cls-5" d="M389.7,356.75c6.73-7.65,17.34-13,25.44-19.24,7.28-5.61,17.71-11.3,21.69-19.88a3,3,0,0,0-3.39-4.4c-10.05,2.24-19.25,11.51-27.21,17.74s-16.12,13.37-21.12,22.23c-1.59,2.83,2.34,6.09,4.59,3.55Z" transform="translate(-309.1 -99.97)"/><path class="cls-5" d="M408.76,373.66c6.8-6.83,13.83-13.45,20.8-20.1,6.76-6.46,16.93-12,21.6-20.16a3.5,3.5,0,0,0-3-5.22c-10-.34-18.37,8.74-24.89,15.2-7.84,7.79-13.77,17.25-18.61,27.13-1.27,2.58,1.92,5.33,4.09,3.15Z" transform="translate(-309.1 -99.97)"/><path class="cls-5" d="M471.62,338.72c3.58,3.11,5.55,7.46,8.17,11.35,3.9,5.75,8.66,10.9,12.6,16.64a167.34,167.34,0,0,1,9.49,16.55c2.64,5,4.56,10.31,10.68,11.27,1.46.23,3.33-.08,4-1.63,2.28-5.15.82-8.66-2-13.42a185.78,185.78,0,0,0-13-19.88,193.41,193.41,0,0,0-14.09-15.5c-3.83-4-6.48-8.48-11.13-11.58-3.72-2.48-8.16,3.26-4.78,6.2Z" transform="translate(-309.1 -99.97)"/><path class="cls-5" d="M488.82,329.57c4.07,2.43,6.79,6.36,10.06,9.72,4.86,5,10.46,9.19,15.36,14.15A165.7,165.7,0,0,1,526.51,368c3.5,4.48,6.32,9.34,12.53,9.19,1.46,0,3.25-.66,3.65-2.31,1.34-5.46-.73-8.66-4.31-12.85a185,185,0,0,0-16.33-17.25A188.36,188.36,0,0,0,505.43,332c-4.46-3.19-7.87-7.19-13-9.41-4.11-1.77-7.46,4.67-3.61,6.95Z" transform="translate(-309.1 -99.97)"/><path class="cls-5" d="M508.85,318.74c4.07,2.43,6.78,6.36,10,9.7,4.87,5,10.48,9.2,15.38,14.14a165.81,165.81,0,0,1,12.28,14.58c3.5,4.48,6.34,9.34,12.54,9.18,1.46,0,3.25-.67,3.65-2.32,1.32-5.46-.74-8.66-4.33-12.85a188.59,188.59,0,0,0-16.34-17.23,190.22,190.22,0,0,0-16.63-12.75c-4.46-3.2-7.87-7.19-13-9.41-4.1-1.76-7.45,4.66-3.59,7Z" transform="translate(-309.1 -99.97)"/><path class="cls-5" d="M543,281.61c11.39.9,22.06,4.54,32.61,8.7,7.69,3,18.14,9.16,26.51,6.5a2.8,2.8,0,0,0,1.66-4.06c-5-7.55-17.28-9.93-25.49-12.15-11.5-3.09-23.34-5.15-35.29-5-3.91.05-3.8,5.7,0,6Z" transform="translate(-309.1 -99.97)"/><path class="cls-5" d="M425.7,379.89c15.2-12.66,32.6-23.87,44.06-40.47,1.45-2.09-.92-4.37-3-3.93-8.8,1.82-16,9.19-22,15.55-7.72,8.25-16.15,15.8-23.42,24.49a3.08,3.08,0,0,0,4.35,4.36Z" transform="translate(-309.1 -99.97)"/></g><path class="cls-1" d="M447.78,306.09a30.28,30.28,0,0,1,5.88-11c5.63,5,13.84,6.4,21.25,5s14.15-5.23,20.23-9.68c1,2.3,2,4.61,3,6.93a2.28,2.28,0,0,1,.28,1.25,2.4,2.4,0,0,1-.66,1.08c-6,6.52-14.91,10-23.79,10.63S456.17,309,447.78,306.09Z" transform="translate(-309.1 -99.97)"/><path class="cls-7" d="M403.83,270.61c-2.81,4.53-4,9.9-4.63,15.18-1.37,11-.72,22.42,3.66,32.58s12.84,18.86,23.47,21.88a21.72,21.72,0,0,0,9.6.75,31.19,31.19,0,0,0,8.5-3.18c4.09-2,8.2-4.3,11-7.86,5-6.29,4.89-15.2,3.15-23s-4.87-15.39-5.23-23.38c-.26-5.72.92-11.4,1.29-17.1s-.21-11.79-3.53-16.46a16.07,16.07,0,0,0-8.23-5.95,9.4,9.4,0,0,0-4.58-.39,11.18,11.18,0,0,0-3.16,1.31,109.33,109.33,0,0,0-25.64,18.85A38,38,0,0,0,403.83,270.61Z" transform="translate(-309.1 -99.97)"/><path class="cls-7" d="M483.74,319.82c1.23,3.59,2.48,7.21,4.63,10.32,3.08,4.43,7.81,7.48,12.73,9.7,11.47,5.14,25.43,6,36.3-.29,9.66-5.61,15.59-15.92,19.89-26.24,3.6-8.62,6.4-17.82,5.82-27.15s-3.89-18.42-8.38-26.62c-8.9-16.28-25.79-25.18-33-32.48-2.92-3-5-6.66-7.53-9.92a54.09,54.09,0,0,0-22.4-16.74c-3.43-1.36-7.2-2.37-10.78-1.47s-6.75,4.27-6.26,7.92c.36,2.74,2.54,4.83,4.37,6.9a37.63,37.63,0,0,1,9.4,23.07c.81,17.47-10.51,33.48-11.38,50.94C476.58,298.74,480.18,309.43,483.74,319.82Z" transform="translate(-309.1 -99.97)"/><path class="cls-1" d="M437.53,263.22a15.52,15.52,0,0,0,17.15,1.16,7.85,7.85,0,0,0,2.35-2,10.08,10.08,0,0,0,1.48-5,224,224,0,0,0-1.45-60.75,36.77,36.77,0,0,0-3-10.81c-1.67-3.38-8.23-6.52-11.82-7.65-9,6-12.67,14.48-15.53,24.92s-1.31,22.92.21,33.64A79.54,79.54,0,0,0,430.47,252C431.93,256.23,434,260.43,437.53,263.22Z" transform="translate(-309.1 -99.97)"/><g class="cls-8"><path class="cls-9" d="M439.67,184.4c-12.72,7.86-12,32.09-11.45,44.63.57,13.27,3.87,36,19.95,39.56a.44.44,0,0,0,.35-.8c-6.8-4.65-11.91-9.26-14.4-17.42-2.38-7.81-2.76-16.45-3.16-24.55-.71-13.91,1.75-28.42,10.3-39.82.73-1-.65-2.17-1.59-1.6Z" transform="translate(-309.1 -99.97)"/><path class="cls-9" d="M440.54,191.45c-4.77,7.19-6.19,15.71-6,24.19.12,5.56-.23,14.63,5.28,17.78a.86.86,0,0,0,1.25-1c-4.61-13.63-3.37-26.7.87-40.4a.78.78,0,0,0-1.41-.6Z" transform="translate(-309.1 -99.97)"/></g><path class="cls-10" d="M435.81,173.2c-2.1,10.24,3.13,20.8,1.64,31.16-.82,5.69-3.61,10.89-6.36,15.95-2.37,4.35-6.08,6.91-9.3,10.68-.47.53-1,1.22-.76,1.89a1.84,1.84,0,0,0,.68.88c2.08,1.63,5,1.74,7.28,3.05,3.2,1.79,4.67,5.54,5.93,9A105.23,105.23,0,0,1,439,258.88c.79,3.59,1.21,7.26,2.15,10.81a10.12,10.12,0,0,0,1.57,3.62,8.71,8.71,0,0,0,3.92,2.68c8.48,3.23,18.1-.73,25.23-6.34a58.69,58.69,0,0,0,22.05-44,31.63,31.63,0,0,0-.39-6.31,35.21,35.21,0,0,0-3.42-9.2,50.29,50.29,0,0,0-3.39-5.92,64.06,64.06,0,0,0-8.76-9.58l-13-12.39a53.69,53.69,0,0,0-8.47-7,26.92,26.92,0,0,0-14.43-4C440.15,171.26,436.2,171.32,435.81,173.2Z" transform="translate(-309.1 -99.97)"/><path class="cls-7" d="M451.13,250c-1.33.07-4.68,1.31-6,1.36-3,.11-4.38-.26-7.34,0a6.73,6.73,0,0,1-3.47-.54,2.61,2.61,0,0,1-1.58-3.05,2.86,2.86,0,0,1,1.49-1.39c2.32-1,5-.13,7.4.8l4.17,1.6C447.61,249.49,449.22,250.36,451.13,250Z" transform="translate(-309.1 -99.97)"/><path class="cls-7" d="M446.42,254.48c-2.84,3.64-4.3,4.06-7.73,4.32-2.81.2-6.23-2.72-4.11-5.08a5.62,5.62,0,0,1,2.59-1.32A47,47,0,0,1,451,250.23,14.76,14.76,0,0,0,446.42,254.48Z" transform="translate(-309.1 -99.97)"/><path class="cls-9" d="M475.11,257.42c3.18,3.8,6.29,4.61,9.91,3.93a14.21,14.21,0,0,0,3.27-1.18c1.58-.73,6.36-3,5.23-11.52-.9-6.72-8.06-8.53-12.35-7.7a10,10,0,0,0-7.53,6.81,9.05,9.05,0,0,0-.52,4.18A11.49,11.49,0,0,0,475.11,257.42Z" transform="translate(-309.1 -99.97)"/><path class="cls-1" d="M488.87,253.13c1.26-1.79.73-4.76-.82-6.29a6.52,6.52,0,0,0-6.12-1.47,4.84,4.84,0,0,0-3.06,2,6,6,0,0,0-.68,2.91,5.43,5.43,0,0,0,1.37,3.56c1.94,2.54,4.67,2.44,6.83,1.53A5.57,5.57,0,0,0,488.87,253.13Z" transform="translate(-309.1 -99.97)"/><path class="cls-3" d="M473.26,220c-5.67,3.33-11.9,6.75-18.4,5.84-4.4-.62-13.09-5.16-13.6-5.5,1.21-1.91,3.85-3.46,6-4.22a29.47,29.47,0,0,1,11-2.22,34,34,0,0,1,6.59.9,16.39,16.39,0,0,1,4.15,2.3Z" transform="translate(-309.1 -99.97)"/><path class="cls-1" d="M470,227.87a6.29,6.29,0,0,0-5,4.18,5.49,5.49,0,0,0,1.89,6.06,7.21,7.21,0,0,0,3.83,1.16,7.51,7.51,0,0,0,3.12-.44,5.68,5.68,0,0,0,3.52-5.48A6.15,6.15,0,0,0,470,227.87Z" transform="translate(-309.1 -99.97)"/><path class="cls-9" d="M462.29,218.2c-1-2.15-2.55-3.67-6.29-2.66a3.87,3.87,0,0,0-2.62,3.66c0,2.56,2.23,5.18,4.78,5C461.68,223.84,463.4,220.5,462.29,218.2Z" transform="translate(-309.1 -99.97)"/><path class="cls-7" d="M488.68,169.5q-2.24-3.25-4.45-6.52a8.76,8.76,0,0,1-1.24-2.21,9.36,9.36,0,0,1-.35-2.49c-.23-5.43-.16-18,.8-18.2,1.14-.19,11.52,12.15,14.26,18s3,13.41-1,18.59C493.15,175.81,490.76,172.55,488.68,169.5Z" transform="translate(-309.1 -99.97)"/><path class="cls-7" d="M505.92,151.22c1.5-3.25,2.92-7.29,4.41-10.62a.49.49,0,0,1,.79-.13,81,81,0,0,1,12.62,19.73,8.59,8.59,0,0,1,.88,2.69,9.63,9.63,0,0,1-1.18,4.6c-2.45,5.61-6.08,14.38-7.25,20.4-2.43-.26-2.2-5.95-3.62-7.34-2.74-2.69-5.68-8.83-7.36-12.28-2.23-4.56-3.15-4.27-2-9A59,59,0,0,1,505.92,151.22Z" transform="translate(-309.1 -99.97)"/><path class="cls-7" d="M534.2,181.92c.91,2.43,2.75,7.29,4.65,9.74a.56.56,0,0,0,1-.21c1.41-5.81.82-13.34.87-19.16.06-8.12-.77-23.3-3.75-31.33a.5.5,0,0,0-.86-.11c-3.06,4.21-5.72,11.92-7.58,17.71a20.66,20.66,0,0,0-1.1,3.68,7.42,7.42,0,0,0,.35,2.32C529.52,171,531.89,175.69,534.2,181.92Z" transform="translate(-309.1 -99.97)"/><path class="cls-1" d="M471.6,108.14a.85.85,0,0,1,1.4-.6c1.67,1.2,5.76,4.68,7.52,6.26a1.7,1.7,0,0,1,.59.78,1.65,1.65,0,0,1,0,.7,52.88,52.88,0,0,1-2.21,8.66.62.62,0,0,1-.89.31c-2.49-1.42-3.75-2.79-6.27-4.52-1.07-.75-1.86-1.48-1.81-1.87C470.19,115.9,470.8,112,471.6,108.14Z" transform="translate(-309.1 -99.97)"/><path class="cls-1" d="M507.09,104.94a.85.85,0,0,1,1.51-.19c1.28,1.63,4.24,6.1,5.49,8.09a1.58,1.58,0,0,1,.36.93,1.55,1.55,0,0,1-.21.65,50.78,50.78,0,0,1-4.51,7.71.63.63,0,0,1-.94.08c-2-2.07-2.83-3.73-4.77-6.1-.83-1-1.39-1.92-1.22-2.3C503.6,112,505.26,108.38,507.09,104.94Z" transform="translate(-309.1 -99.97)"/><path class="cls-1" d="M539.46,107a.85.85,0,0,1,1.51.22c.79,1.9,2.42,7,3.08,9.27a1.26,1.26,0,0,1-.29,1.56,51.7,51.7,0,0,1-6.44,6.2.62.62,0,0,1-.92-.2c-1.37-2.51-1.72-4.35-2.94-7.14-.52-1.21-.81-2.25-.55-2.56C534.16,112.82,536.76,109.79,539.46,107Z" transform="translate(-309.1 -99.97)"/><path class="cls-9" d="M442.68,220.39a25.66,25.66,0,0,1,11.69-4.26c3.17-.37,7.13.78,9.69-1.42a1.29,1.29,0,0,0,.21-1.56c-2.15-3.69-8.31-2.63-11.8-1.86-4.78,1-8.21,4.11-10.9,8-.45.67.46,1.58,1.11,1.11Z" transform="translate(-309.1 -99.97)"/><path class="cls-1" d="M527,197.33c-3.24-11.14-11.47-20.4-20-28.24s-20.37-14-34.78-16.5a40.31,40.31,0,0,0-9.17-1.58,26.07,26.07,0,0,0-16.36,4.92c-17,12.34-11.13,24.1-10,26.53A94.54,94.54,0,0,0,456,210.39a57.32,57.32,0,0,0,8.53,7.18c9.55,6.37,21.35,8.39,32.88,7.45.1.28.2.54.28.83,3.48,12.59,4.26,19.26,4,27.33-.54,17.67-2.94,22.76-.33,26.09,2.48,3.14,10.37-3.88,13.72-8.95,2.52-3.84,7.19-10.29,9.1-14.47C531.28,240.49,533.33,219.16,527,197.33Z" transform="translate(-309.1 -99.97)"/><path class="cls-9" d="M474.7,123a1.1,1.1,0,0,1,0,.18,2.89,2.89,0,0,0,1.48,2.58.42.42,0,0,0,.14.06,3,3,0,0,0,3.59-.46,3,3,0,0,0,.45-3.57,5.32,5.32,0,0,0-.66-.86,2.88,2.88,0,0,0-2.83-.75A3,3,0,0,0,474.7,123Z" transform="translate(-309.1 -99.97)"/><path class="cls-9" d="M508.86,125.24a3.32,3.32,0,1,0-3.31-3.32,3.35,3.35,0,0,0,3.31,3.32Z" transform="translate(-309.1 -99.97)"/><path class="cls-9" d="M537.08,126.43c4.07,0,4.07-6.31,0-6.31s-4.08,6.31,0,6.31Z" transform="translate(-309.1 -99.97)"/><g class="cls-11"><path class="cls-9" d="M437,164.43c-3,5.18.06,11.48,2,16.53a76.35,76.35,0,0,0,13.53,23c9.79,11.54,24.55,32.17,41.46,32.32a.75.75,0,0,0,.38-1.37c-6.34-3.66-12.43-6.53-18.07-11.32S466.08,213,461.16,207.62c-5.81-6.34-11.47-12.51-15.45-20.22-2.95-5.71-8.4-16.11-8.33-22.88a.2.2,0,0,0-.37-.09Z" transform="translate(-309.1 -99.97)"/><path class="cls-9" d="M438.9,155.87c-2.26,8.82,3.6,19.38,7.24,27.19C448.89,189,453.78,194,458,198.91a223.76,223.76,0,0,0,15.73,17.16c6.06,5.72,16.9,10.43,20.85,18a1.49,1.49,0,0,0,2.75-.75c-.18-5-6.28-8.28-9.77-11a156.6,156.6,0,0,1-19.39-17.53c-12.85-13.91-26.61-28.94-28.67-48.88,0-.31-.49-.43-.58-.08Z" transform="translate(-309.1 -99.97)"/><path class="cls-9" d="M442.27,153.53c-1.14,9.25,3.26,17.4,8.1,25a162.41,162.41,0,0,0,23,28.4c7.81,7.7,17.7,12.62,25.55,20.12,5.7,5.43,6.93,12.82,5.26,20.24-1.33,5.93-6.8,8.3-9.16,13.48-.25.54.29,1.29.88.88,15-10,16.25-29.31,1.53-40.43-23-17.37-47.26-38.22-54.1-67.79-.14-.63-1-.42-1.05.13Z" transform="translate(-309.1 -99.97)"/><path class="cls-9" d="M492.75,229.6c-.18,2.45,1.68,4.53,2.87,6.51,2.37,3.86,1,6.6-.48,10.56a3.32,3.32,0,0,0,1.54,3.8c.28.12.54.25.82.34a3.41,3.41,0,0,0,4.14-2.34c1.53-4.23,2.54-8.6.53-12.8-1.37-2.87-4.75-7.16-8.21-7.28a1.25,1.25,0,0,0-1.21,1.21Z" transform="translate(-309.1 -99.97)"/><path class="cls-9" d="M447.17,150.21c-2.57,8.75,4.83,17.35,8.71,24.65,6.21,11.69,16.65,19.1,25.52,28.73,9.17,10,21.18,16,28.4,28,9.16,15.24-4.72,25.32-12.64,36.24-.92,1.28.95,2.34,2,1.54,7.05-5.51,16.23-14.91,16.72-24.48.59-11.15-5.1-18.86-12.51-26.56-4.74-4.92-10.12-9-15.45-13.17-6-4.78-11.36-10.93-16.83-16.33-10.81-10.68-17.47-24.63-23-38.59a.47.47,0,0,0-.91,0Z" transform="translate(-309.1 -99.97)"/><path class="cls-9" d="M453.46,147.91c1.08,11.45,8.29,21.31,14.52,30.67,7.47,11.19,17.87,18.12,27.7,26.81,12.33,10.87,22.67,23.13,21.91,40.43-.67,15.53-13.69,21.9-21.81,33.05-1.14,1.57,1.24,3.1,2.53,2,8.18-7.14,16.56-16.76,20.33-27,4.63-12.64.43-26.09-7.35-36.38-8.46-11.17-20.79-17.8-29.87-28.14a146.13,146.13,0,0,1-14.89-19.75c-4.39-7.11-7.59-14.9-12-21.89-.3-.46-1.16-.31-1.11.29Z" transform="translate(-309.1 -99.97)"/><path class="cls-9" d="M460.71,147.81c3,11.48,11.48,22.4,17.57,32.48s18.27,17,26.71,25.21c11.24,10.86,21.85,28.36,19.26,44.43-2.51,15.61-16.41,24.1-26.42,34.44-1.33,1.37.39,3.75,2.09,2.69,10.1-6.33,21-17.41,25.67-28.55,6-14.28,1.85-25.76-5.46-38.55-7.08-12.34-18.82-20.67-28.84-30.42C479,177.6,470.64,162,461.8,147.35a.6.6,0,0,0-1.09.46Z" transform="translate(-309.1 -99.97)"/><path class="cls-9" d="M469.84,150.4c5.34,15.85,19.12,30.43,29.91,42.9,5.53,6.41,13.15,10.78,18.82,17.16,8.16,9.16,11.49,19.64,12.62,31.73a.53.53,0,0,0,1.06,0c1.84-17.66-8-31.62-20.87-42.54-7.65-6.49-13.59-14-19.89-21.79-7.15-8.8-14.77-18.24-21.11-27.68-.18-.27-.65-.1-.54.22Z" transform="translate(-309.1 -99.97)"/><path class="cls-9" d="M475.53,147.58c2.42,3.07,3.87,6.79,6.1,10s5,6,7.3,9.25c4,5.79,8.32,11.59,12.86,17.05a228.3,228.3,0,0,0,17.58,19.21,100.74,100.74,0,0,1,7.62,7.29c4.13,4.83,5.7,10.24,8,16a.74.74,0,0,0,1.45-.19c.12-15.31-17.25-28.18-26.37-38.5-11.64-13.18-21.47-28.26-34.15-40.47-.29-.26-.65.15-.43.42Z" transform="translate(-309.1 -99.97)"/><path class="cls-9" d="M489,154.06c6.7,10.66,14.36,19.17,22.83,28.37,4.24,4.63,8.71,8.93,13.19,13.34,6.18,6.08,8.5,12.06,11.38,19.9a1,1,0,0,0,2,0c2.83-12.11-11.82-22.89-19.28-30.08-10.46-10.11-19.31-21.62-29.29-32.12a.49.49,0,0,0-.78.59Z" transform="translate(-309.1 -99.97)"/></g><path class="cls-1" d="M506.22,161v.27a5.69,5.69,0,0,0,11.37,0V161a5.69,5.69,0,0,0-11.37,0Z" transform="translate(-309.1 -99.97)"/><path class="cls-1" d="M534.67,166.16a4.59,4.59,0,1,0-4.58-4.59,4.63,4.63,0,0,0,4.58,4.59Z" transform="translate(-309.1 -99.97)"/><path class="cls-1" d="M498.57,145.56a.67.67,0,0,0,.14-.11c-.24.14-.49.27-.73.42s-.2,0,0,0a1.81,1.81,0,0,0,1.69-1.29,1.75,1.75,0,0,0-1.23-2.15A2.08,2.08,0,0,0,495.9,144a1.61,1.61,0,0,0,2.67,1.55Z" transform="translate(-309.1 -99.97)"/><path class="cls-1" d="M499.62,149.75a.58.58,0,0,1-.31-.11c-1.8-1.08-3.09,2.12-1.09,2.59a2,2,0,0,0,1.23,0,1.4,1.4,0,0,0,0-2.68,2,2,0,0,0-1.23,0c-2,.49-.71,3.67,1.09,2.59a.58.58,0,0,1,.31-.11,1.16,1.16,0,0,0,0-2.22Z" transform="translate(-309.1 -99.97)"/><path class="cls-1" d="M522.62,144.08a1.52,1.52,0,0,0,0-3,1.52,1.52,0,0,0,0,3Z" transform="translate(-309.1 -99.97)"/><path class="cls-1" d="M523.1,148l.15.15a1.21,1.21,0,0,0,1.71-1.71l-.14-.16c-1-1.18-2.91.68-1.72,1.72Z" transform="translate(-309.1 -99.97)"/><path class="cls-1" d="M526.49,179.66a1.56,1.56,0,0,0,.15.06c-.31-.24-.62-.49-.95-.72,0,0,0,.07.06.1a1.63,1.63,0,1,0,2.22-2.22,1.91,1.91,0,0,0-1.48-.17,1.51,1.51,0,0,0-1.13,1.46,1.59,1.59,0,0,0,1.13,1.49Z" transform="translate(-309.1 -99.97)"/><path class="cls-1" d="M528.77,186.34a1.74,1.74,0,0,0,0-3.47,1.74,1.74,0,0,0,0,3.47Z" transform="translate(-309.1 -99.97)"/><path class="cls-1" d="M529.58,193.11a1.54,1.54,0,0,0,0-3.07,1.54,1.54,0,0,0,0,3.07Z" transform="translate(-309.1 -99.97)"/><path class="cls-1" d="M530,196.86l-.09.24a1.38,1.38,0,1,0,2.65,0,2.25,2.25,0,0,0-.08-.24,1.3,1.3,0,0,0-2.48,0Z" transform="translate(-309.1 -99.97)"/><path class="cls-1" d="M530.53,202a1.47,1.47,0,0,0,.48,1.29c.91.81,2.56-.28,1.78-1.37,0,.13.05.26.08.41.46-1.63-2.13-2.07-2.34-.33Z" transform="translate(-309.1 -99.97)"/><path class="cls-1" d="M532,208.63a1.72,1.72,0,0,0,.88.64c1.15.39,1.68-1.24.78-1.85-.06,0-.11-.08-.16-.11a1,1,0,0,0-1,0l-.14.1a.91.91,0,0,0-.31,1.22Z" transform="translate(-309.1 -99.97)"/><path class="cls-1" d="M533.6,215.28a1,1,0,0,0,0-1.89.95.95,0,0,0,0,1.89Z" transform="translate(-309.1 -99.97)"/><path class="cls-1" d="M423.46,259.85a29.81,29.81,0,0,0,1,3.91c.18.62.56,2.61,1.68,2.15,2.5-1-.38-5.05-.92-6.55a.9.9,0,0,0-1.74.49Z" transform="translate(-309.1 -99.97)"/><path class="cls-1" d="M417,267.72c-.31,2.11-1.07,4.32-.76,6.44.18,1.24,2.08,1.1,2.34,0,.51-2,0-4.27-.23-6.26-.09-.68-1.23-1-1.35-.18Z" transform="translate(-309.1 -99.97)"/><path class="cls-1" d="M426.81,274c.66.57,1.32,1.11,2,1.65a2.76,2.76,0,0,0,1.95.86.57.57,0,0,0,.56-.55c-.13-1.5-2-2.49-3.05-3.41s-2.45.59-1.45,1.45Z" transform="translate(-309.1 -99.97)"/><path class="cls-1" d="M433.43,268.9a9.18,9.18,0,0,1,2.92.57c.55.16,1.67,0,1.69-.75,0-2.11-3.53-2-4.87-1.76-1.12.16-.83,1.94.26,1.94Z" transform="translate(-309.1 -99.97)"/><path class="cls-1" d="M440.17,278.08a15.17,15.17,0,0,0,.28,3.63,13.33,13.33,0,0,0,.81,3.61A1.48,1.48,0,0,0,444,285c.66-2.45-1.35-4.8-1.77-7.16-.2-1.21-1.93-.8-2,.28Z" transform="translate(-309.1 -99.97)"/><path class="cls-1" d="M431.88,285c-1,1.83-2.86,4.73-1.69,6.8a1.3,1.3,0,0,0,2.22,0,6.28,6.28,0,0,0,.8-2.74,21.61,21.61,0,0,1,.83-3.16,1.18,1.18,0,0,0-2.16-.9Z" transform="translate(-309.1 -99.97)"/><path class="cls-1" d="M418.41,283c-.74,1-1.5,2.06-2.29,3.07-.65.81-1.66,1.79-1.2,2.93a.61.61,0,0,0,.57.44c1.21.05,1.81-1.14,2.39-2,.76-1.14,1.5-2.27,2.19-3.44s-1-2-1.66-1Z" transform="translate(-309.1 -99.97)"/><path class="cls-1" d="M407.44,280.18a23.76,23.76,0,0,0-1.16,2.38,4.26,4.26,0,0,0-.55,2.32c0,.31.47.35.66.18a4.93,4.93,0,0,0,1-1.86,16.3,16.3,0,0,1,1.15-2.38c.39-.72-.7-1.36-1.1-.64Z" transform="translate(-309.1 -99.97)"/><path class="cls-1" d="M406.87,294.46c1.07,1.13,1.83,2.48,2.78,3.69.76,1,1.75,2.44,3.16,2.31a.7.7,0,0,0,.69-.68c0-1.35-1.33-2.4-2.13-3.34a22.57,22.57,0,0,0-3.49-3.28c-.79-.59-1.64.65-1,1.3Z" transform="translate(-309.1 -99.97)"/><path class="cls-1" d="M408,308.06c1.16,1.22,1.86,3,3.57,3.51a.57.57,0,0,0,.73-.54c-.16-1.79-1.52-3.29-2.74-4.53-1-1-2.54.52-1.56,1.56Z" transform="translate(-309.1 -99.97)"/><path class="cls-1" d="M423.56,300.06a22.37,22.37,0,0,1,.74,3.34c.15.93,0,2.13,1,2.61a.73.73,0,0,0,.85-.1c.83-.65.47-1.81.34-2.71a22.49,22.49,0,0,0-.88-3.71c-.43-1.29-2.46-.75-2.06.57Z" transform="translate(-309.1 -99.97)"/><path class="cls-1" d="M438.08,296.83c.44,1.73,1.12,4.43,2.95,5.17a.63.63,0,0,0,.79-.61A6,6,0,0,0,441,299a14.4,14.4,0,0,1-1-2.72c-.31-1.26-2.26-.72-1.94.54Z" transform="translate(-309.1 -99.97)"/><path class="cls-1" d="M446.4,291.36c.47.56,1,1.08,1.48,1.59a1.84,1.84,0,0,0,1.61.65.55.55,0,0,0,.53-.52,1.94,1.94,0,0,0-.72-1.55c-.53-.49-1-1-1.52-1.55-.84-1-2.21.44-1.38,1.38Z" transform="translate(-309.1 -99.97)"/><path class="cls-1" d="M450.18,302.71a17.43,17.43,0,0,1-.65,4.26c-.19,1-.22,2.17.75,2.69a.57.57,0,0,0,.58,0c1-.59.93-1.81,1-2.82a17.27,17.27,0,0,0,.11-4.37c-.15-1-1.85-.78-1.82.24Z" transform="translate(-309.1 -99.97)"/><path class="cls-1" d="M434.09,310a11.84,11.84,0,0,0,.78,5.61.51.51,0,0,0,.88,0c1-1.63.13-3.8.23-5.61.08-1.22-1.82-1.22-1.89,0Z" transform="translate(-309.1 -99.97)"/><path class="cls-1" d="M421.65,316.72c.77,0,1.55-.07,2.33-.08a6.51,6.51,0,0,0,2.37,0,.56.56,0,0,0,.33-.8c-.79-1.5-3.68-.88-5-.86a.87.87,0,0,0,0,1.74Z" transform="translate(-309.1 -99.97)"/><path class="cls-1" d="M413,321.2c0,.72.15,1.46.22,2.19s0,1.45.58,1.94a.55.55,0,0,0,.64.08c1.19-.9.46-3,.38-4.21s-1.88-1.17-1.82,0Z" transform="translate(-309.1 -99.97)"/><path class="cls-1" d="M424.8,330.53a4.74,4.74,0,0,1,2.68.52,6.48,6.48,0,0,0,2.47.49.43.43,0,0,0,.3-.73,5,5,0,0,0-2.56-1.68,5.66,5.66,0,0,0-3.31-.12.79.79,0,0,0,.42,1.52Z" transform="translate(-309.1 -99.97)"/><path class="cls-1" d="M437.58,324.81a24,24,0,0,0,2.21,2.07,22.07,22.07,0,0,0,2.3,1.92c1,.56,1.78-.5,1.4-1.38a6.34,6.34,0,0,0-2.06-2.19c-.87-.68-1.8-1.25-2.7-1.91s-1.86.74-1.15,1.49Z" transform="translate(-309.1 -99.97)"/><path class="cls-1" d="M448.55,319.23l2,1a6.41,6.41,0,0,0,2.09,1.08,1.17,1.17,0,0,0,1.13-1.94c-1-1.21-3.18-1.39-4.61-1.69-.89-.18-1.52,1.09-.64,1.51Z" transform="translate(-309.1 -99.97)"/><path class="cls-1" d="M435.34,338.37a6.67,6.67,0,0,0,3.2.12c.86-.17,2.21-.65,2.11-1.75s-1.41-1-2.19-.78a19.63,19.63,0,0,1-3.12.73c-.88.17-.78,1.46,0,1.68Z" transform="translate(-309.1 -99.97)"/><path class="cls-1" d="M494.11,241.62c.73,1.32,2.17,3.67,4,3.21a.52.52,0,0,0,.31-.75c-.33-.73-1-1-1.65-1.44a9.62,9.62,0,0,1-1.95-1.56c-.34-.41-1,.1-.71.54Z" transform="translate(-309.1 -99.97)"/><path class="cls-1" d="M496.63,252.9a14.7,14.7,0,0,0-1.62,2.28,3.64,3.64,0,0,0-.71,2.68.48.48,0,0,0,.7.27,3.31,3.31,0,0,0,1.38-1.81,14.12,14.12,0,0,1,1.46-2.49c.52-.7-.64-1.6-1.21-.93Z" transform="translate(-309.1 -99.97)"/><path class="cls-1" d="M488.51,265.39c.48,1.24.29,3,1.39,3.9a.45.45,0,0,0,.75-.31,7.71,7.71,0,0,0-.33-2.07,11.42,11.42,0,0,0-.62-2c-.29-.68-1.46-.19-1.19.49Z" transform="translate(-309.1 -99.97)"/><path class="cls-1" d="M495.89,265.21c-.53,1.18-.82,2.46-1.4,3.61a.32.32,0,0,0,.43.43c1.27-.79,1.37-2.2,1.93-3.48.27-.64-.66-1.21-1-.56Z" transform="translate(-309.1 -99.97)"/><path class="cls-1" d="M490.15,279.38c1.05-.29,2.41,0,3.27-.77a.36.36,0,0,0,0-.52c-.85-1-2.6-.52-3.69-.24a.79.79,0,0,0,.42,1.53Z" transform="translate(-309.1 -99.97)"/><path class="cls-1" d="M525.53,337.61c1.05-.3,2.41,0,3.27-.77a.36.36,0,0,0,0-.52c-.86-1-2.6-.52-3.69-.23a.79.79,0,0,0,.42,1.52Z" transform="translate(-309.1 -99.97)"/><path class="cls-1" d="M521.83,328.17c1.06-.3,2.41,0,3.27-.77a.36.36,0,0,0,0-.52c-.85-1-2.61-.54-3.69-.25a.8.8,0,0,0,.42,1.54Z" transform="translate(-309.1 -99.97)"/><path class="cls-1" d="M532,308.27c.37,1,.23,2.4,1.05,3.2a.39.39,0,0,0,.53-.05c.9-.94.28-2.64-.1-3.7a.79.79,0,0,0-1.48.55Z" transform="translate(-309.1 -99.97)"/><path class="cls-1" d="M500.23,320.34c1.06-.29,2.4,0,3.28-.77a.4.4,0,0,0,0-.53c-.87-1-2.61-.53-3.7-.23a.79.79,0,0,0,.42,1.53Z" transform="translate(-309.1 -99.97)"/><path class="cls-1" d="M482.73,277.06c-.29,1.51-1,4.44.53,5.48a.52.52,0,0,0,.7-.18,3.38,3.38,0,0,0,.13-2,11.81,11.81,0,0,1,.2-2.9c.19-1-1.35-1.45-1.56-.43Z" transform="translate(-309.1 -99.97)"/><path class="cls-1" d="M495.74,275.5a3.32,3.32,0,0,1,.28.26c.11.1.26-.06.17-.18a3.58,3.58,0,0,1-.26-.28c-.12-.13-.33.09-.19.2Z" transform="translate(-309.1 -99.97)"/><path class="cls-1" d="M498.46,284.21a8.28,8.28,0,0,0,.94,2.43c.32.6.76,1.35,1.52,1.32a.52.52,0,0,0,.5-.38A1.8,1.8,0,0,0,501,286a6.59,6.59,0,0,1-.86-2.3c-.19-1.1-1.94-.65-1.71.48Z" transform="translate(-309.1 -99.97)"/><path class="cls-1" d="M490.91,288.27c-.11,1.33-.08,3.08,1.22,3.86a.44.44,0,0,0,.66-.28c.21-1.2-.19-2.36-.07-3.58s-1.71-1.18-1.81,0Z" transform="translate(-309.1 -99.97)"/><path class="cls-1" d="M483.54,294.37a9.37,9.37,0,0,0,1.33,3.68c.11.16.42.23.51,0,.59-1.39-.07-2.71-.27-4.11-.16-1-1.76-.6-1.57.43Z" transform="translate(-309.1 -99.97)"/><path class="cls-1" d="M493.16,302.76a38.72,38.72,0,0,0,4,0,3.12,3.12,0,0,0,2.67-1,.62.62,0,0,0-.23-.86c-.95-.46-1.88-.08-2.89,0-1.18.15-2.39.16-3.58.2a.85.85,0,0,0,0,1.69Z" transform="translate(-309.1 -99.97)"/><path class="cls-1" d="M501,331.46c1.35,0,2.69.05,4,0a3.18,3.18,0,0,0,2.68-1,.65.65,0,0,0-.23-.88c-1-.44-1.88-.07-2.89.05-1.19.13-2.39.15-3.59.19a.85.85,0,0,0,0,1.7Z" transform="translate(-309.1 -99.97)"/><path class="cls-1" d="M504.21,295.39a17.11,17.11,0,0,1,2.54.72c.83.29,1.5.9,2.33,1.17s1.36-.7,1.06-1.37c-.82-1.87-4-1.94-5.74-2-.8,0-1,1.27-.19,1.43Z" transform="translate(-309.1 -99.97)"/><path class="cls-1" d="M504.49,307.39c-1,1.29-1.92,3.56-1.5,5.19a.92.92,0,0,0,1.76,0,14,14,0,0,0,.3-2.09,6.09,6.09,0,0,1,.88-2.26c.59-.93-.81-1.67-1.44-.84Z" transform="translate(-309.1 -99.97)"/><path class="cls-1" d="M490.44,311.24c-.09.1-.19.18-.27.28s0,.13.08.08l.27-.26c.05-.07,0-.15-.08-.1Z" transform="translate(-309.1 -99.97)"/><path class="cls-1" d="M486.88,314.78a12.21,12.21,0,0,0,3.25-1.3c.94-.48,2.46-1,2.8-2a.58.58,0,0,0-.27-.66c-1-.59-2,.14-2.85.61-1.2.67-2.24,1.57-3.37,2.35a.57.57,0,0,0,.44,1Z" transform="translate(-309.1 -99.97)"/><path class="cls-1" d="M491,324.68c.1,1.5.43,3.31,1.6,4.33a.43.43,0,0,0,.73-.3c.18-1.39-.6-2.65-.67-4-.06-1.06-1.73-1.06-1.66,0Z" transform="translate(-309.1 -99.97)"/><path class="cls-1" d="M512.4,286.78a20.52,20.52,0,0,1,3.23-1c.91-.26,2.09-.4,2.63-1.26a.53.53,0,0,0-.32-.77c-1-.29-2.16.35-3.07.66A11,11,0,0,0,512,286a.46.46,0,0,0,.45.8Z" transform="translate(-309.1 -99.97)"/><path class="cls-1" d="M518.08,275.92c.69.82,1.33,1.68,2,2.48.33.39.66.77,1,1.13a3,3,0,0,0,1.38.55c.28.1.63-.21.51-.5a6.49,6.49,0,0,0-.45-1.16,9.55,9.55,0,0,0-1.18-1.29c-.73-.78-1.48-1.53-2.27-2.25a.74.74,0,0,0-1,1Z" transform="translate(-309.1 -99.97)"/><path class="cls-1" d="M523.83,287.45a7.63,7.63,0,0,0,1.06,3.72.48.48,0,0,0,.82,0c.75-1.14.08-2.46,0-3.72s-2-1.17-1.86,0Z" transform="translate(-309.1 -99.97)"/><path class="cls-1" d="M516.54,298.05c.7,1.31,1,3.23,2.47,3.82a.51.51,0,0,0,.6-.36c.32-1.49-.86-3.1-1.63-4.29a.83.83,0,0,0-1.44.83Z" transform="translate(-309.1 -99.97)"/><path class="cls-1" d="M525.83,302.94a35.29,35.29,0,0,0,4-.08c1.06-.16.88-1.69,0-2-1.46-.44-3,.35-4.24,1.13-.38.24-.26,1,.25.91Z" transform="translate(-309.1 -99.97)"/><path class="cls-1" d="M526.46,318.29c1.32-.07,2.7.11,4-.09,1-.18.88-1.69,0-1.95-1.47-.46-3,.34-4.24,1.12-.38.25-.27.95.25.92Z" transform="translate(-309.1 -99.97)"/><path class="cls-1" d="M533.39,330.82a35,35,0,0,0,1.05-3.86c.14-1.06-1.36-1.32-1.88-.55-.84,1.28-.53,3-.12,4.38.13.44.83.52.95,0Z" transform="translate(-309.1 -99.97)"/><path class="cls-1" d="M519.27,307.13a21.94,21.94,0,0,0,2,2.71.92.92,0,0,0,1.44-1.11,10,10,0,0,0-2.22-2.54c-.63-.51-1.74.18-1.21.94Z" transform="translate(-309.1 -99.97)"/><path class="cls-1" d="M511.76,320a23.57,23.57,0,0,0,2,2.72.93.93,0,0,0,1.45-1.13A9.75,9.75,0,0,0,513,319c-.63-.53-1.75.16-1.21.93Z" transform="translate(-309.1 -99.97)"/><path class="cls-1" d="M522.92,269.89l2.79,0c.79,0,1.66,0,2.13-.69a.43.43,0,0,0,0-.44,1.86,1.86,0,0,0-1.77-.68h-3.15a.89.89,0,0,0,0,1.78Z" transform="translate(-309.1 -99.97)"/><path class="cls-1" d="M510.08,338.77h2.79c.8,0,1.67.07,2.13-.68a.43.43,0,0,0,0-.44,1.88,1.88,0,0,0-1.77-.69c-1.05,0-2.11,0-3.15,0a.89.89,0,0,0,0,1.78Z" transform="translate(-309.1 -99.97)"/><path class="cls-1" d="M531.31,254.81c-.27,1.74.59,6.11,2.83,6.19a.72.72,0,0,0,.71-.53c.21-1.05-.57-2.17-1-3.1s-.92-2.28-1.93-2.82a.42.42,0,0,0-.63.26Z" transform="translate(-309.1 -99.97)"/><path class="cls-1" d="M536.13,269c.75,1.2,1.89,2.82,3.27,3.27.22.08.48-.16.39-.37a3.54,3.54,0,0,0-1.07-1.44,11.66,11.66,0,0,1-1.77-1.94c-.33-.5-1.14-.05-.82.48Z" transform="translate(-309.1 -99.97)"/><path class="cls-1" d="M533,280a22.49,22.49,0,0,0,1.89,1.76,10.21,10.21,0,0,0,2,1.67.33.33,0,0,0,.49-.3c.17-1.85-2.11-3.13-3.2-4.37-.74-.81-2,.43-1.22,1.24Z" transform="translate(-309.1 -99.97)"/><path class="cls-1" d="M540,255.26a29.22,29.22,0,0,1,3.42.8c.54.13,1.92.84,2.13-.14s-1.46-1.41-2.2-1.49a9.35,9.35,0,0,0-3.41.41c-.26,0-.18.39.06.42Z" transform="translate(-309.1 -99.97)"/><path class="cls-1" d="M533.33,247.5c1.48.07,3.27.44,4.51-.53a.69.69,0,0,0,0-1c-1.24-1-3-.61-4.51-.54a1,1,0,0,0,0,2.05Z" transform="translate(-309.1 -99.97)"/><path class="cls-1" d="M545.11,265.91c1.39.17,4,.36,4.53-1.35a.49.49,0,0,0-.24-.59,2.6,2.6,0,0,0-1.9,0c-.85.22-1.71.4-2.57.6s-.53,1.27.18,1.35Z" transform="translate(-309.1 -99.97)"/><path class="cls-1" d="M554.21,269.24c-.07.75-.18,1.47-.26,2.22a8.4,8.4,0,0,0-.18,2.07.46.46,0,0,0,.68.39c1.7-.9,1.08-3.31.84-4.83-.1-.65-1-.42-1.08.15Z" transform="translate(-309.1 -99.97)"/><path class="cls-1" d="M545.81,276.74a10.35,10.35,0,0,0,.05,2.36,12.93,12.93,0,0,0,.38,2.65,1,1,0,0,0,.75.74c2.74.41.71-4.67.64-5.75a.91.91,0,0,0-1.82,0Z" transform="translate(-309.1 -99.97)"/><path class="cls-1" d="M531.11,296.79c.84.33,1.69.62,2.51,1,.64.33,1.56,1.11,2.31.9a.56.56,0,0,0,.38-.38c.39-2-3.69-2.28-4.95-2.46a.47.47,0,0,0-.25.91Z" transform="translate(-309.1 -99.97)"/><path class="cls-1" d="M547,289.87a18.58,18.58,0,0,1,3.23.52c.75.16,1.67.62,2.36.13a.44.44,0,0,0,.15-.62c-.39-.85-1.65-.85-2.47-1a13.75,13.75,0,0,0-3.27-.11.54.54,0,0,0,0,1.08Z" transform="translate(-309.1 -99.97)"/><path class="cls-1" d="M557.12,282.8c.19.82.33,1.67.51,2.48s.25,1.42.92,1.75a.45.45,0,0,0,.53-.07c.49-.55.35-1.12.19-1.79a17.32,17.32,0,0,0-1-2.69.61.61,0,0,0-1.17.32Z" transform="translate(-309.1 -99.97)"/><path class="cls-1" d="M547.94,301.26c1.21-1,2.89-1.38,3.88-2.54a.4.4,0,0,0-.17-.67c-1.75-.34-3.45,1.14-4.54,2.38a.59.59,0,0,0,.83.83Z" transform="translate(-309.1 -99.97)"/><path class="cls-1" d="M557.66,295.2c.64-.18,3.56-.15,3.06-1.49s-2.73-.47-3.69,0-.25,1.72.63,1.49Z" transform="translate(-309.1 -99.97)"/><path class="cls-9" d="M460.22,300.1a1.67,1.67,0,0,0,0-3.34,1.67,1.67,0,0,0,0,3.34Z" transform="translate(-309.1 -99.97)"/><path class="cls-9" d="M464.5,301.2a1.7,1.7,0,0,0,0-3.39,1.7,1.7,0,0,0,0,3.39Z" transform="translate(-309.1 -99.97)"/><path class="cls-9" d="M469.05,302.21a1.9,1.9,0,0,0,0-3.8c-2.43,0-2.43,3.8,0,3.8Z" transform="translate(-309.1 -99.97)"/><path class="cls-9" d="M474.14,301.65a1.35,1.35,0,0,0,0-2.69,1.35,1.35,0,0,0,0,2.69Z" transform="translate(-309.1 -99.97)"/><path class="cls-9" d="M462.36,311.86a1.64,1.64,0,0,0,0-3.28,1.64,1.64,0,0,0,0,3.28Z" transform="translate(-309.1 -99.97)"/><path class="cls-9" d="M466.91,312.3a1.82,1.82,0,0,0,0-3.63,1.82,1.82,0,0,0,0,3.63Z" transform="translate(-309.1 -99.97)"/><path class="cls-9" d="M471.46,312.12a1.64,1.64,0,0,0,0-3.28,1.64,1.64,0,0,0,0,3.28Z" transform="translate(-309.1 -99.97)"/><path class="cls-9" d="M476,312.25a1.77,1.77,0,0,0,0-3.54,1.77,1.77,0,0,0,0,3.54Z" transform="translate(-309.1 -99.97)"/><path class="cls-9" d="M456.2,288.85a1.4,1.4,0,0,0,0-2.8,1.4,1.4,0,0,0,0,2.8Z" transform="translate(-309.1 -99.97)"/><path class="cls-9" d="M460.75,289.18a1.46,1.46,0,0,0,0-2.92,1.46,1.46,0,0,0,0,2.92Z" transform="translate(-309.1 -99.97)"/><path class="cls-9" d="M464.76,289.47a1.48,1.48,0,0,0,0-3,1.48,1.48,0,0,0,0,3Z" transform="translate(-309.1 -99.97)"/><path class="cls-9" d="M469.32,289.78a1.79,1.79,0,0,0,0-3.58,1.79,1.79,0,0,0,0,3.58Z" transform="translate(-309.1 -99.97)"/><path class="cls-9" d="M430.36,236.33a1.79,1.79,0,0,0,0-3.58,1.79,1.79,0,0,0,0,3.58Z" transform="translate(-309.1 -99.97)"/><path class="cls-9" d="M474.27,289a1.57,1.57,0,0,0,0-3.13,1.57,1.57,0,0,0,0,3.13Z" transform="translate(-309.1 -99.97)"/><path class="cls-9" d="M453.52,338.11a1.38,1.38,0,0,0,0-2.75,1.38,1.38,0,0,0,0,2.75Z" transform="translate(-309.1 -99.97)"/><path class="cls-9" d="M459.15,338.7a1.43,1.43,0,0,0,0-2.85,1.43,1.43,0,0,0,0,2.85Z" transform="translate(-309.1 -99.97)"/><path class="cls-9" d="M464.5,338.72a1.45,1.45,0,0,0,0-2.89,1.45,1.45,0,0,0,0,2.89Z" transform="translate(-309.1 -99.97)"/><path class="cls-9" d="M470.12,338.42a1.42,1.42,0,0,0,0-2.83,1.42,1.42,0,0,0,0,2.83Z" transform="translate(-309.1 -99.97)"/><path class="cls-9" d="M475,338.49a1.76,1.76,0,0,0,0-3.51,1.76,1.76,0,0,0,0,3.51Z" transform="translate(-309.1 -99.97)"/><path class="cls-9" d="M480.3,338.7a1.7,1.7,0,0,0,0-3.39,1.7,1.7,0,0,0,0,3.39Z" transform="translate(-309.1 -99.97)"/><path class="cls-9" d="M485.66,338.32a1.32,1.32,0,0,0,0-2.64,1.32,1.32,0,0,0,0,2.64Z" transform="translate(-309.1 -99.97)"/><path class="cls-9" d="M489.67,337.67a1.21,1.21,0,0,0,0-2.41,1.21,1.21,0,0,0,0,2.41Z" transform="translate(-309.1 -99.97)"/><path class="cls-5" d="M581.68,318.56c-2.47,3.92-7.51,3.72-11.89,3.77-6,.08-12.7-.08-17.18-4.14-2.58-2.33-4-5.66-5.51-8.81-7-14.74-16.78-28.84-18-45.1a3.59,3.59,0,0,1,.45-2.48,31.23,31.23,0,0,0,7.35,4.44,4.45,4.45,0,0,0,5.72-1.84l5.35-9.67q5.21,4.57,10.58,9a3,3,0,0,0,3.93-.15,86.51,86.51,0,0,1,11.58-9.23q3.78,5.89,7.59,11.81a2.33,2.33,0,0,0,1.1,1.07,2.27,2.27,0,0,0,1.73-.36c4-1.94,7.92-3.89,11.88-5.85l1.46,11.41a1.71,1.71,0,0,0,2.14,1.46c3.68-.95,8.17-1.54,11.56-.59-2.31,6.15-8.31,13.78-12.5,18.86C595.49,296.45,584.85,313.54,581.68,318.56Z" transform="translate(-309.1 -99.97)"/><path class="cls-10" d="M539.31,323.89a3.57,3.57,0,0,0,.89,4.31,10.32,10.32,0,0,0,4.25,2q5.25,1.56,10.48,3.13a3.49,3.49,0,0,1,1.84,5.41,8.23,8.23,0,0,0-1.2,2.17c-1,2.8.73,6.06,3.36,7.5a10.88,10.88,0,0,0,8.67.32,21.62,21.62,0,0,0,10.55-8.51,55.86,55.86,0,0,0,5.94-12.39c2.23-6,4.21-12.91,1.42-18.73s-10.59-8.68-16.66-10.6-10.27-3.2-17.49-1.94a2.84,2.84,0,0,0-2.37,2.59c0,1.27,1.71,2.2,2.19,2.33,6.33,1.83,11.8,3.07,15.34,4.58a.58.58,0,0,1-.33,1.11c-5.89-1.11-14.13-2.18-20.75-2.87a3,3,0,0,0-3.43,3.18,3.43,3.43,0,0,0,2.17,2.72c4.5,1.33,10.61,2.73,15.94,4.52,2.76.93,4.6,1,4.37,2.14-.16.8-2,.31-5-.36-4.74-1.08-10-2.45-14.35-2.87-2.14-.21-4.48-.28-5.38,2.22-1.17,3.26,9.37,5.43,17.74,7.43,1.74.43,3.65.6,3.47,1.29-.29,1.19-2.84.37-4.66,0-4.43-.88-8.63-2.09-13.87-2.28A3.17,3.17,0,0,0,539.31,323.89Z" transform="translate(-309.1 -99.97)"/><path class="cls-9" d="M547.67,299.22c.39,1,1.7,1.44,2.63,1.8,1.54.59,3.09,1,4.53,0a2.13,2.13,0,0,0,.53-2.58,3.05,3.05,0,0,0-2.47-1.61,12.35,12.35,0,0,0-2.65,0c-1.13.15-3.11.95-2.57,2.43Z" transform="translate(-309.1 -99.97)"/><path class="cls-9" d="M541,308.52c1.83,1.29,4.25,2.54,6.49,1.58a2.7,2.7,0,0,0,.84-4.14c-1.34-1.68-4.49-2.24-6.47-1.71a2.39,2.39,0,0,0-.86,4.27Z" transform="translate(-309.1 -99.97)"/><path class="cls-9" d="M538.21,316.44c.74,2.45,4.5,3.26,6.61,2.27a1.93,1.93,0,0,0,.87-2.56c-.82-1.65-2.23-2.07-3.93-2.36-1.39-.25-4.12.78-3.55,2.65Z" transform="translate(-309.1 -99.97)"/><path class="cls-9" d="M537.28,325.15c.31,2.56,4.24,3.23,6.24,3.07s2.69-3.48.89-4.46a7.92,7.92,0,0,0-4.62-.78c-1.23.12-2.7.69-2.51,2.17Z" transform="translate(-309.1 -99.97)"/><path class="cls-9" d="M584.05,308.14c-.33.64-1.53,2.48-.3,2.89s1.41-1.76,1.53-2.46a.68.68,0,0,0-1.23-.43Z" transform="translate(-309.1 -99.97)"/><path class="cls-9" d="M582,316.93c-1.19-.41-2.35,1.31-2.67,2.22a1.37,1.37,0,0,0,2.18,1.47,3.6,3.6,0,0,0,1.14-2.25,1.35,1.35,0,0,0-.65-1.44Z" transform="translate(-309.1 -99.97)"/><path class="cls-9" d="M577,326.16a1.92,1.92,0,0,0-1.15.8c-.37.49-.82.86-1.15,1.39a1.26,1.26,0,0,0,1.59,1.82,3.29,3.29,0,0,0,1.78-2.1c.27-.7-.09-2.09-1.07-1.91Z" transform="translate(-309.1 -99.97)"/><path class="cls-9" d="M570.39,334.28a13.9,13.9,0,0,0-1.54,1.44,1,1,0,1,0,1.49,1.32,12.36,12.36,0,0,1,1.32-1.29c1-.82-.29-2.23-1.27-1.47Z" transform="translate(-309.1 -99.97)"/><path class="cls-1" d="M537,271.36a4.06,4.06,0,0,1-.44-.49,2.58,2.58,0,0,0-4.07.23,3.34,3.34,0,0,0-.58,1.63,2.66,2.66,0,0,0,1.81,2.69l.12,0a2.65,2.65,0,0,0,3.4-3,.2.2,0,0,0,0-.1c-.27-.76-.29-.86-.09-.31-.29.82-.55,1.63-.84,2.45l.14-.1-1.09.54.45-.07c1.59-.13,2.25-2.43,1.21-3.5Z" transform="translate(-309.1 -99.97)"/><path class="cls-1" d="M551.23,270.89a3.91,3.91,0,0,0,2.07-3.14,3.73,3.73,0,1,0-7.37.53c.45,2.18,3.22,3.89,5.3,2.61Z" transform="translate(-309.1 -99.97)"/><path class="cls-1" d="M551.19,276.25l-.09-.05a2.56,2.56,0,0,0-3.34,2.25,2.75,2.75,0,0,0,2.8,2.92,2.51,2.51,0,0,0,1.55-4.53c.7.54-.08-.08-.34-.28,1,.72-.45-.26-.58-.31Z" transform="translate(-309.1 -99.97)"/><path class="cls-1" d="M551.65,286.54a.38.38,0,0,1-.11.11,1.74,1.74,0,1,0,2.12-.11l-.14-.1a1.5,1.5,0,0,0-1.87.1Z" transform="translate(-309.1 -99.97)"/><path class="cls-1" d="M537.41,282.64a1.21,1.21,0,0,0,.78-2.28,1.21,1.21,0,0,0-.78,2.28Z" transform="translate(-309.1 -99.97)"/><path class="cls-1" d="M539.24,288.56a2,2,0,0,0,.07.7c.38,1.18,2.23,1.24,2.28-.16,0,0,0-.05,0-.07.65-1.69-2.35-2.26-2.37-.47Z" transform="translate(-309.1 -99.97)"/><path class="cls-1" d="M570,269.21a3.93,3.93,0,1,0-2.47-5,4,4,0,0,0,2.47,5Z" transform="translate(-309.1 -99.97)"/><path class="cls-1" d="M569,278.83a2.65,2.65,0,1,0,1.7-5,2.68,2.68,0,0,0-3.36,1.63,2.72,2.72,0,0,0,1.66,3.38Z" transform="translate(-309.1 -99.97)"/><path class="cls-1" d="M569,287l0,0c-.43.08-.87.16-1.31.26l.18,0a1.24,1.24,0,0,0,1.6-1.4c0,.23,0,.13,0-.31a1.65,1.65,0,0,0-.64-1,1.54,1.54,0,0,0-2.14.41c-1,1.41,1,3.31,2.28,2Z" transform="translate(-309.1 -99.97)"/><path class="cls-1" d="M592.37,271.93a2.56,2.56,0,0,0-1.71-1.94,2.7,2.7,0,0,0-3.38,1.86,2.58,2.58,0,1,0,4.89,1.66,3.66,3.66,0,0,0,.14-1.71c0,.42-.06.83-.09,1.25l-.48.74a1.87,1.87,0,0,0,.63-1.86Z" transform="translate(-309.1 -99.97)"/><path class="cls-1" d="M586.05,281.94a1.7,1.7,0,0,0,1.09-3.21,1.7,1.7,0,0,0-1.09,3.21Z" transform="translate(-309.1 -99.97)"/><path class="cls-1" d="M582.52,289.18a2.74,2.74,0,0,0,.75.41c1.48.6,2.55-1.06,2.06-2.33a1.77,1.77,0,0,0-1.29-1.11,1.72,1.72,0,0,0-1.52,3Z" transform="translate(-309.1 -99.97)"/><path class="cls-1" d="M603.12,278.76l-.17.08a2.27,2.27,0,1,0,3,1.05,1,1,0,0,0-.09-.18,2.07,2.07,0,0,0-2.79-.95Z" transform="translate(-309.1 -99.97)"/><path class="cls-1" d="M598.54,290.11a1.64,1.64,0,0,0,1.06-3.1,1.64,1.64,0,0,0-1.06,3.1Z" transform="translate(-309.1 -99.97)"/><path class="cls-1" d="M594.35,296.26h.26a1.57,1.57,0,0,0,1-2.85l-.21-.15a1.64,1.64,0,1,0-1,3Z" transform="translate(-309.1 -99.97)"/><g class="cls-12"><path class="cls-9" d="M539,260c-1.53,10.26,2.26,23,7.28,32a.62.62,0,0,0,1.15-.39c-1.28-10.67-7.15-20.71-7.39-31.5a.52.52,0,0,0-1-.07Z" transform="translate(-309.1 -99.97)"/><path class="cls-9" d="M558,251.61c-1.52,5.66-1.18,11.16-.64,16.93.7,7.48.91,15.37,2.87,22.66a.64.64,0,0,0,1.25-.1c2.4-12.76-4.59-26.15-1.61-38.85.29-1.22-1.54-1.88-1.87-.64Z" transform="translate(-309.1 -99.97)"/><path class="cls-9" d="M584.5,251.6c-3.1,14.28-8.34,28.2-10.28,42.77-.05.45.68.73.9.31,3.16-6,4.43-12.89,5.87-19.44,1.71-7.76,3.87-15.46,5.11-23.33.15-.92-1.42-1.23-1.6-.31Z" transform="translate(-309.1 -99.97)"/><path class="cls-9" d="M604.41,264.15c-7,10.91-17.87,21.15-22,33.72a.72.72,0,0,0,1.14.77c5.64-3.9,9.26-10.47,12.48-16.39s7.49-11.2,9.66-17.48a.72.72,0,0,0-1.27-.62Z" transform="translate(-309.1 -99.97)"/></g><path class="cls-7" d="M475.25,369.58a4.15,4.15,0,1,0-4.15-4.14,4.18,4.18,0,0,0,4.15,4.14Z" transform="translate(-309.1 -99.97)"/><path class="cls-5" d="M473.89,356.36a1.06,1.06,0,0,1,.19.06l-.88-.52.12.1a2.13,2.13,0,1,0,0-3l-.12.1.88-.52a.6.6,0,0,1-.19.06,2,2,0,0,0,0,3.74Z" transform="translate(-309.1 -99.97)"/><path class="cls-5" d="M461.77,368.7a2.42,2.42,0,1,0-2.42-2.43,2.45,2.45,0,0,0,2.42,2.43Z" transform="translate(-309.1 -99.97)"/><path class="cls-5" d="M487.45,367.27a1.42,1.42,0,0,0,0-2.84,1.42,1.42,0,0,0,0,2.84Z" transform="translate(-309.1 -99.97)"/><path class="cls-5" d="M475.72,377.28c0,.06-.05.11-.08.18a2.46,2.46,0,1,0,4.26,0c0-.07-.06-.12-.08-.18a2.4,2.4,0,0,0-4.1,0Z" transform="translate(-309.1 -99.97)"/><path class="cls-5" d="M432.44,491.81c-5,1.91-8.77,6.15-11.11,10.92s-3.35,10.08-4,15.35c-2.64,20.51-.61,41.3,1.42,61.88.54,5.51,1.11,11.13,3.4,16.17a2.13,2.13,0,0,0,1,1.21c1,.42,1.91-.59,2.51-1.45,3.44-5,6.92-10.41,11.67-14.17a1.07,1.07,0,0,1,1.56.24c3.54,5.4,6.67,12.54,11,17.25a1.66,1.66,0,0,0,1,.67c.67.08,1.16-.6,1.49-1.19,3.4-6.19,6.28-11.12,9.86-16.91a1.19,1.19,0,0,1,1.49-.49c4.61,2.19,13.35,12.84,18.23,16.24a.76.76,0,0,0,1.2-.6c.17-5.59-1-22.19-1.18-27.85-.15-4.6,0-9.21-.38-13.81-.89-11.38-4.85-22.4-10.54-32.32-4.62-8.07-10.37-15.44-16.29-22.6-2.61-3.14-5.35-6.36-9-8.26S436.26,490.34,432.44,491.81Z" transform="translate(-309.1 -99.97)"/><path class="cls-1" d="M442.52,389.87c9.21.08,18.25-3,26.18-7.68s14.26-12.36,20.66-19A23,23,0,0,0,497,374.12a53.2,53.2,0,0,0,10.64,5.6q5,2.19,9.94,4.34c5.12,2.25,11.37,2.07,14.62,6.64a14,14,0,0,1,1.86,4.84c4.93,20.33,9.73,42.49,1.06,61.54,13.19,2.35,27.21-3.33,36-13.42s12.58-24.08,11.3-37.42a51.12,51.12,0,0,0-4.85-17.56,60.64,60.64,0,0,0-11.78-15.93,88.08,88.08,0,0,0-45.49-24.17c-8.89-1.71-18-2-27-2.25-20-.49-40.49-.44-59.14,6.72a158.24,158.24,0,0,0-17.44,8.33c-4.56,2.41-9.23,4.89-12.7,8.71a40.66,40.66,0,0,0-6.37,10.52A243.43,243.43,0,0,0,386.27,410c-1.9,6.05-3.56,12.27-3.47,18.61.17,11.32,6.22,22.16,15.1,29.19s20.34,10.37,31.66,10.45c5.15,0,11.08-1.06,13.62-5.56a13.78,13.78,0,0,0,1.46-5.74c.89-11.14-2.72-22.1-4-33.2S439.23,400.53,442.52,389.87Z" transform="translate(-309.1 -99.97)"/><g class="cls-13"><path class="cls-5" d="M589.17,416.64c-11.41,5.5-22.44,12.44-34.88,15.28-8.3,1.91-21.21,2.35-24.64,11.69a3.08,3.08,0,0,0,2.15,3.78c8.65,3,22.68-2.39,30.87-5.43,11.26-4.17,20.08-12.81,30.16-19,4-2.5.52-8.28-3.66-6.28Z" transform="translate(-309.1 -99.97)"/><path class="cls-5" d="M590.64,383.05c-2.61,6.65-16.43,11.3-22.23,15-8.87,5.63-19.39,10.84-25.86,19.29-1.25,1.63.43,4.32,2.38,4.16,13.21-1.08,24.3-11.89,34.92-18.92,6.38-4.22,15.29-9.72,16.88-17.82a3.16,3.16,0,0,0-6.09-1.68Z" transform="translate(-309.1 -99.97)"/><path class="cls-5" d="M570.19,363.08c-6.72,7.64-17.36,13-25.44,19.24-7.29,5.61-17.71,11.3-21.69,19.87a3,3,0,0,0,3.39,4.42c10-2.25,19.25-11.52,27.21-17.74s16.11-13.38,21.12-22.25c1.59-2.83-2.34-6.09-4.59-3.54Z" transform="translate(-309.1 -99.97)"/><path class="cls-5" d="M551.13,346.15c-6.81,6.85-13.84,13.45-20.81,20.12-6.75,6.46-16.92,12-21.6,20.16a3.5,3.5,0,0,0,3,5.21c10,.35,18.37-8.74,24.88-15.19,7.85-7.8,13.78-17.27,18.62-27.14,1.26-2.57-1.92-5.33-4.09-3.16Z" transform="translate(-309.1 -99.97)"/><path class="cls-5" d="M488.27,381.11c-3.58-3.11-5.54-7.47-8.17-11.35-3.9-5.77-8.66-10.92-12.6-16.66A166,166,0,0,1,458,336.56c-2.64-5-4.57-10.3-10.69-11.26-1.45-.23-3.33.08-4,1.63-2.28,5.13-.83,8.64,2,13.4a181.52,181.52,0,0,0,13,19.88,186.45,186.45,0,0,0,14.08,15.52c3.82,3.95,6.47,8.46,11.12,11.56,3.73,2.48,8.17-3.24,4.79-6.18Z" transform="translate(-309.1 -99.97)"/><path class="cls-5" d="M471.06,390.24c-4.08-2.43-6.78-6.36-10.05-9.7-4.86-5-10.46-9.2-15.36-14.15a163.1,163.1,0,0,1-12.27-14.6c-3.5-4.46-6.34-9.32-12.53-9.19-1.48,0-3.26.68-3.66,2.33-1.33,5.46.73,8.66,4.33,12.85A187.24,187.24,0,0,0,437.84,375a188.81,188.81,0,0,0,16.62,12.77c4.45,3.19,7.87,7.17,13,9.39,4.1,1.78,7.45-4.65,3.6-6.95Z" transform="translate(-309.1 -99.97)"/><path class="cls-5" d="M451,401.09c-4.07-2.43-6.79-6.36-10.06-9.71-4.86-5-10.46-9.19-15.36-14.13a165.38,165.38,0,0,1-12.29-14.58c-3.51-4.48-6.34-9.34-12.53-9.2-1.48,0-3.26.69-3.66,2.33-1.32,5.47.73,8.66,4.34,12.85a185.86,185.86,0,0,0,16.32,17.24,193.75,193.75,0,0,0,16.63,12.75c4.47,3.2,7.88,7.17,13,9.39,4.09,1.78,7.44-4.66,3.59-6.94Z" transform="translate(-309.1 -99.97)"/><path class="cls-5" d="M416.91,438.21c-11.37-.91-22.05-4.53-32.6-8.69-7.68-3-18.14-9.18-26.53-6.5a2.76,2.76,0,0,0-1.63,4c5,7.55,17.26,9.95,25.48,12.16,11.5,3.1,23.34,5.16,35.28,5,3.92-.05,3.81-5.69,0-6Z" transform="translate(-309.1 -99.97)"/><path class="cls-5" d="M534.19,339.94c-15.2,12.65-32.62,23.87-44.07,40.45-1.44,2.09.93,4.37,3,3.95,8.82-1.83,16-9.21,22-15.56,7.73-8.26,16.16-15.8,23.42-24.5a3.07,3.07,0,0,0-4.35-4.34Z" transform="translate(-309.1 -99.97)"/></g><path class="cls-1" d="M512.11,413.74a30.44,30.44,0,0,1-5.88,11c-5.63-5-13.84-6.42-21.26-5s-14.14,5.24-20.24,9.69c-1-2.32-2-4.62-3-6.93a2.24,2.24,0,0,1-.27-1.26,2.18,2.18,0,0,1,.65-1.07c6.05-6.53,14.93-10,23.8-10.65S503.71,410.79,512.11,413.74Z" transform="translate(-309.1 -99.97)"/><path class="cls-7" d="M556.06,449.22c2.82-4.53,4-9.9,4.63-15.18,1.36-11,.71-22.44-3.67-32.58s-12.84-18.86-23.47-21.9a22,22,0,0,0-9.59-.73,30.3,30.3,0,0,0-8.51,3.18c-4.07,2-8.2,4.3-11,7.87-5,6.26-4.89,15.18-3.15,23s4.88,15.4,5.24,23.39c.26,5.7-.93,11.38-1.29,17.08s.21,11.81,3.53,16.46a16,16,0,0,0,8.22,6,9.3,9.3,0,0,0,4.58.4,12.86,12.86,0,0,0,3.17-1.31A109.28,109.28,0,0,0,550.36,456,38.82,38.82,0,0,0,556.06,449.22Z" transform="translate(-309.1 -99.97)"/><path class="cls-7" d="M476.14,400c-1.23-3.59-2.48-7.22-4.63-10.32-3.08-4.44-7.8-7.5-12.74-9.72-11.45-5.12-25.41-6-36.28.31-9.67,5.61-15.6,15.91-19.9,26.23-3.59,8.61-6.4,17.83-5.81,27.15s3.88,18.41,8.37,26.63c8.91,16.27,25.8,25.16,33,32.48,2.93,3,5,6.64,7.53,9.91a53.93,53.93,0,0,0,22.41,16.73c3.43,1.37,7.2,2.39,10.78,1.49s6.75-4.27,6.26-7.93c-.37-2.74-2.55-4.82-4.38-6.89a37.69,37.69,0,0,1-9.4-23.08c-.81-17.46,10.52-33.47,11.39-50.93C483.31,421.09,479.7,410.4,476.14,400Z" transform="translate(-309.1 -99.97)"/><path class="cls-1" d="M522.36,456.61a15.5,15.5,0,0,0-17.16-1.16,8,8,0,0,0-2.35,2,10.23,10.23,0,0,0-1.47,5,224.42,224.42,0,0,0,1.44,60.76,37.57,37.57,0,0,0,3,10.81c1.67,3.36,8.23,6.5,11.81,7.63,9-5.94,12.7-14.46,15.54-24.9s1.31-22.93-.2-33.64a81.43,81.43,0,0,0-3.52-15.28C527.94,463.6,525.86,459.39,522.36,456.61Z" transform="translate(-309.1 -99.97)"/><g class="cls-14"><path class="cls-9" d="M520.21,535.41c12.72-7.84,12-32.07,11.45-44.61-.56-13.27-3.86-36.05-20-39.56a.43.43,0,0,0-.33.78c6.8,4.67,11.9,9.28,14.39,17.43,2.38,7.8,2.78,16.46,3.18,24.56.7,13.91-1.76,28.42-10.33,39.82-.71,1,.66,2.17,1.6,1.58Z" transform="translate(-309.1 -99.97)"/><path class="cls-9" d="M519.36,528.37c4.77-7.19,6.16-15.71,6-24.18-.13-5.57.22-14.65-5.29-17.78a.86.86,0,0,0-1.25.95c4.62,13.63,3.37,26.71-.85,40.42a.77.77,0,0,0,1.41.59Z" transform="translate(-309.1 -99.97)"/></g><path class="cls-10" d="M524.07,546.63c2.11-10.24-3.12-20.82-1.63-31.16.81-5.71,3.61-10.89,6.35-16,2.37-4.35,6.08-6.91,9.31-10.68a2.27,2.27,0,0,0,.76-1.91,1.86,1.86,0,0,0-.69-.86c-2.08-1.63-5-1.75-7.27-3.05-3.2-1.81-4.68-5.54-5.93-9a106.74,106.74,0,0,1-4.1-13.09c-.79-3.57-1.2-7.24-2.14-10.8a10.12,10.12,0,0,0-1.58-3.62,8.88,8.88,0,0,0-3.92-2.67c-8.48-3.25-18.09.72-25.22,6.32a58.75,58.75,0,0,0-22.05,44,31.08,31.08,0,0,0,.39,6.31,35.34,35.34,0,0,0,3.41,9.19,50.15,50.15,0,0,0,3.4,5.92,62.51,62.51,0,0,0,8.76,9.57q6.49,6.23,13,12.4a52.47,52.47,0,0,0,8.47,7,26.84,26.84,0,0,0,14.43,4C519.73,548.57,523.68,548.5,524.07,546.63Z" transform="translate(-309.1 -99.97)"/><path class="cls-7" d="M508.76,469.8c1.33-.05,4.67-1.29,6-1.34,3-.11,4.37.26,7.33,0a6.57,6.57,0,0,1,3.48.54,2.57,2.57,0,0,1,1.57,3,2.69,2.69,0,0,1-1.48,1.39c-2.34,1-5,.13-7.41-.79L514.09,471C512.27,470.33,510.67,469.47,508.76,469.8Z" transform="translate(-309.1 -99.97)"/><path class="cls-7" d="M513.46,465.35c2.85-3.64,4.31-4.08,7.75-4.33,2.8-.19,6.21,2.73,4.09,5.09a5.66,5.66,0,0,1-2.58,1.31,47.42,47.42,0,0,1-13.84,2.18A14.61,14.61,0,0,0,513.46,465.35Z" transform="translate(-309.1 -99.97)"/><path class="cls-9" d="M484.78,462.41c-3.19-3.8-6.29-4.61-9.92-3.93a14.11,14.11,0,0,0-3.26,1.17c-1.58.74-6.38,3-5.24,11.52.91,6.73,8.07,8.54,12.36,7.71a10,10,0,0,0,7.53-6.83,9.08,9.08,0,0,0,.51-4.16A11.52,11.52,0,0,0,484.78,462.41Z" transform="translate(-309.1 -99.97)"/><path class="cls-1" d="M471,466.68c-1.27,1.8-.74,4.78.83,6.31a6.49,6.49,0,0,0,6.11,1.47,4.87,4.87,0,0,0,3.05-2,5.64,5.64,0,0,0,.67-2.92,5.24,5.24,0,0,0-1.36-3.55c-1.94-2.54-4.66-2.45-6.83-1.53A5.55,5.55,0,0,0,471,466.68Z" transform="translate(-309.1 -99.97)"/><path class="cls-3" d="M486.63,499.78c5.67-3.31,11.9-6.75,18.4-5.83,4.39.63,13.08,5.16,13.58,5.51-1.19,1.89-3.84,3.45-6,4.22a29.6,29.6,0,0,1-11,2.2A34,34,0,0,1,495,505a15.67,15.67,0,0,1-4.14-2.28Z" transform="translate(-309.1 -99.97)"/><path class="cls-1" d="M489.93,492a6.31,6.31,0,0,0,5-4.18,5.48,5.48,0,0,0-1.88-6.06,7.1,7.1,0,0,0-3.84-1.16,7.84,7.84,0,0,0-3.12.42,5.69,5.69,0,0,0-3.52,5.48A6.17,6.17,0,0,0,489.93,492Z" transform="translate(-309.1 -99.97)"/><path class="cls-9" d="M497.6,501.63c1,2.15,2.54,3.65,6.29,2.65a3.86,3.86,0,0,0,2.62-3.65c0-2.56-2.24-5.18-4.79-5C498.2,496,496.5,499.33,497.6,501.63Z" transform="translate(-309.1 -99.97)"/><path class="cls-7" d="M471.21,550.33l4.46,6.51a9.23,9.23,0,0,1,1.23,2.21,9.06,9.06,0,0,1,.35,2.48c.23,5.45.15,18.05-.82,18.22-1.13.19-11.51-12.15-14.25-18.07s-3-13.39,1-18.57C466.74,544,469.12,547.28,471.21,550.33Z" transform="translate(-309.1 -99.97)"/><path class="cls-7" d="M454,568.61c-1.51,3.24-2.93,7.27-4.42,10.61a.47.47,0,0,1-.78.12,80.56,80.56,0,0,1-12.62-19.72,8.34,8.34,0,0,1-.88-2.69,9.43,9.43,0,0,1,1.18-4.59c2.45-5.61,6.07-14.39,7.25-20.4,2.44.26,2.19,5.95,3.61,7.34,2.74,2.67,5.69,8.82,7.37,12.27,2.22,4.57,3.15,4.26,2,9.05A59,59,0,0,1,454,568.61Z" transform="translate(-309.1 -99.97)"/><path class="cls-7" d="M425.68,537.89c-.9-2.41-2.74-7.29-4.64-9.72a.57.57,0,0,0-1,.21c-1.41,5.81-.82,13.34-.86,19.16-.06,8.12.76,23.3,3.74,31.31a.5.5,0,0,0,.87.11c3.05-4.19,5.71-11.9,7.58-17.69a20.62,20.62,0,0,0,1.09-3.68,6.59,6.59,0,0,0-.35-2.3C430.38,548.86,428,544.13,425.68,537.89Z" transform="translate(-309.1 -99.97)"/><path class="cls-1" d="M488.29,611.69a.87.87,0,0,1-1.41.6c-1.68-1.21-5.75-4.68-7.51-6.24a1.79,1.79,0,0,1-.6-.8,2.05,2.05,0,0,1,0-.7,50,50,0,0,1,2.22-8.66.63.63,0,0,1,.88-.33c2.48,1.42,3.74,2.81,6.27,4.53,1.06.74,1.85,1.49,1.81,1.88C489.69,603.91,489.09,607.87,488.29,611.69Z" transform="translate(-309.1 -99.97)"/><path class="cls-1" d="M452.8,614.88a.86.86,0,0,1-1.52.18C450,613.45,447,609,445.79,607a1.82,1.82,0,0,1-.36-.93,1.56,1.56,0,0,1,.22-.67,50.44,50.44,0,0,1,4.51-7.71.62.62,0,0,1,.93,0c2,2,2.84,3.72,4.78,6.08.82,1,1.38,1.93,1.22,2.3C456.3,607.81,454.62,611.43,452.8,614.88Z" transform="translate(-309.1 -99.97)"/><path class="cls-1" d="M420.43,612.86a.86.86,0,0,1-1.52-.23c-.78-1.9-2.41-7-3.08-9.26a1.69,1.69,0,0,1-.08-1,1.73,1.73,0,0,1,.37-.59,50.22,50.22,0,0,1,6.45-6.18.63.63,0,0,1,.92.18c1.37,2.53,1.71,4.35,2.93,7.17.52,1.19.81,2.24.56,2.55C425.72,607,423.12,610,420.43,612.86Z" transform="translate(-309.1 -99.97)"/><path class="cls-9" d="M517.21,499.44a25.52,25.52,0,0,1-11.69,4.24c-3.17.37-7.13-.77-9.7,1.44a1.27,1.27,0,0,0-.2,1.54c2.15,3.69,8.29,2.63,11.8,1.88,4.77-1,8.19-4.11,10.89-8,.46-.65-.45-1.56-1.1-1.09Z" transform="translate(-309.1 -99.97)"/><path class="cls-1" d="M432.9,522.5c3.23,11.13,11.45,20.39,20,28.24s20.36,14,34.77,16.5a39.91,39.91,0,0,0,9.19,1.56,26.08,26.08,0,0,0,16.34-4.9c17-12.35,11.14-24.1,10-26.53a94.34,94.34,0,0,0-19.36-27.93,58.14,58.14,0,0,0-8.54-7.2c-9.55-6.35-21.34-8.39-32.88-7.43-.09-.28-.2-.54-.28-.85-3.48-12.57-4.26-19.24-4-27.31.53-17.68,2.94-22.76.33-26.09-2.49-3.15-10.38,3.88-13.72,8.95-2.53,3.83-7.19,10.29-9.11,14.47C428.61,479.34,426.55,500.66,432.9,522.5Z" transform="translate(-309.1 -99.97)"/><path class="cls-9" d="M485.19,596.82a1,1,0,0,1,0-.18,2.86,2.86,0,0,0-1.49-2.59l-.13-.07a3,3,0,0,0-3.58.47,2.94,2.94,0,0,0-.46,3.57,6,6,0,0,0,.66.87,2.93,2.93,0,0,0,2.84.75,3,3,0,0,0,2.15-2.82Z" transform="translate(-309.1 -99.97)"/><path class="cls-9" d="M451,594.58a3.32,3.32,0,1,0,3.32,3.31,3.34,3.34,0,0,0-3.32-3.31Z" transform="translate(-309.1 -99.97)"/><path class="cls-9" d="M422.81,593.39c-4.08,0-4.08,6.31,0,6.31s4.06-6.31,0-6.31Z" transform="translate(-309.1 -99.97)"/><g class="cls-15"><path class="cls-9" d="M522.88,555.4c3-5.2-.07-11.48-2-16.53a75.7,75.7,0,0,0-13.53-23c-9.78-11.55-24.55-32.17-41.46-32.3a.73.73,0,0,0-.36,1.35c6.33,3.65,12.41,6.51,18.05,11.32s10.19,10.56,15.11,15.93c5.82,6.34,11.48,12.5,15.46,20.22,2.94,5.69,8.39,16.09,8.33,22.87a.2.2,0,0,0,.37.1Z" transform="translate(-309.1 -99.97)"/><path class="cls-9" d="M521,563.94c2.26-8.8-3.6-19.38-7.23-27.19-2.77-5.92-7.64-10.93-11.85-15.84a228.08,228.08,0,0,0-15.74-17.15c-6.05-5.74-16.89-10.43-20.84-18a1.5,1.5,0,0,0-2.77.73c.19,5,6.3,8.28,9.78,11A155.27,155.27,0,0,1,491.74,515c12.85,13.9,26.61,28.94,28.66,48.86a.3.3,0,0,0,.59.08Z" transform="translate(-309.1 -99.97)"/><path class="cls-9" d="M517.61,566.29c1.13-9.24-3.27-17.39-8.09-25a163.76,163.76,0,0,0-23-28.42c-7.81-7.68-17.7-12.62-25.56-20.11-5.7-5.43-6.93-12.81-5.25-20.23,1.33-5.94,6.8-8.3,9.16-13.49.24-.53-.29-1.28-.89-.89-15,10-16.24,29.33-1.52,40.45,23,17.37,47.26,38.22,54.1,67.78.14.64,1,.41,1-.13Z" transform="translate(-309.1 -99.97)"/><path class="cls-9" d="M467.13,490.23c.19-2.45-1.68-4.55-2.87-6.51-2.36-3.86-1-6.6.48-10.56a3.35,3.35,0,0,0-1.55-3.82,8.55,8.55,0,0,0-.81-.33c-1.83-.63-3.53.71-4.13,2.35-1.54,4.22-2.55,8.6-.54,12.8,1.37,2.87,4.76,7.16,8.21,7.26a1.21,1.21,0,0,0,1.21-1.19Z" transform="translate(-309.1 -99.97)"/><path class="cls-9" d="M512.71,569.62c2.58-8.76-4.83-17.35-8.71-24.65-6.21-11.7-16.65-19.1-25.51-28.73-9.18-10-21.19-16-28.4-28C440.93,473,454.81,463,462.73,452c.92-1.27-1-2.33-2-1.53C453.69,456,444.51,465.39,444,475c-.59,11.15,5.11,18.86,12.52,26.56,4.73,4.92,10.12,9,15.45,13.17,6,4.78,11.35,10.93,16.82,16.32,10.81,10.68,17.48,24.64,23,38.6a.47.47,0,0,0,.9,0Z" transform="translate(-309.1 -99.97)"/><path class="cls-9" d="M506.42,571.9c-1.07-11.43-8.28-21.29-14.51-30.65-7.46-11.2-17.86-18.13-27.71-26.81-12.32-10.87-22.65-23.14-21.9-40.44C443,458.46,456,452.09,464.1,441c1.15-1.56-1.23-3.1-2.53-1.95-8.17,7.14-16.55,16.74-20.33,27.05-4.63,12.63-.43,26.09,7.36,36.36,8.46,11.18,20.78,17.82,29.86,28.14a145.81,145.81,0,0,1,14.89,19.76c4.4,7.1,7.6,14.91,12,21.9.29.46,1.16.33,1.1-.31Z" transform="translate(-309.1 -99.97)"/><path class="cls-9" d="M499.17,572c-2.94-11.48-11.47-22.41-17.56-32.48s-18.28-17.06-26.72-25.21c-11.22-10.86-21.84-28.37-19.26-44.44,2.51-15.6,16.41-24.09,26.42-34.43a1.73,1.73,0,0,0-2.09-2.71c-10.1,6.34-21,17.45-25.66,28.57-6,14.28-1.86,25.76,5.46,38.53,7.08,12.37,18.83,20.69,28.84,30.44,12.23,11.94,20.64,27.59,29.49,42.18a.59.59,0,0,0,1.08-.45Z" transform="translate(-309.1 -99.97)"/><path class="cls-9" d="M490.05,569.42c-5.34-15.86-19.13-30.42-29.92-42.91-5.53-6.41-13.15-10.76-18.82-17.14-8.15-9.16-11.49-19.65-12.61-31.75a.54.54,0,0,0-1.07,0c-1.83,17.68,8,31.64,20.87,42.56,7.65,6.49,13.59,14,19.89,21.79,7.16,8.8,14.78,18.24,21.12,27.68.17.26.65.1.54-.23Z" transform="translate(-309.1 -99.97)"/><path class="cls-9" d="M484.35,572.23c-2.42-3.07-3.87-6.78-6.1-10s-5-6-7.29-9.23c-4-5.79-8.32-11.59-12.86-17a225.35,225.35,0,0,0-17.59-19.21c-2.58-2.48-5.27-4.55-7.61-7.29-4.13-4.83-5.7-10.26-8.06-16a.73.73,0,0,0-1.43.2c-.12,15.31,17.25,28.18,26.36,38.5,11.64,13.17,21.47,28.26,34.15,40.45.29.28.66-.11.43-.42Z" transform="translate(-309.1 -99.97)"/><path class="cls-9" d="M470.9,565.77c-6.69-10.66-14.36-19.17-22.82-28.37-4.25-4.63-8.72-8.94-13.19-13.34-6.18-6.08-8.51-12.06-11.39-19.91a1,1,0,0,0-1.93,0c-2.84,12.1,11.81,22.9,19.26,30.09,10.46,10.11,19.31,21.62,29.31,32.13a.49.49,0,0,0,.76-.6Z" transform="translate(-309.1 -99.97)"/></g><path class="cls-1" d="M453.66,558.78v-.26a5.68,5.68,0,1,0-11.36,0v.26a5.68,5.68,0,1,0,11.36,0Z" transform="translate(-309.1 -99.97)"/><path class="cls-1" d="M425.22,553.67a4.58,4.58,0,1,0,4.57,4.58,4.62,4.62,0,0,0-4.57-4.58Z" transform="translate(-309.1 -99.97)"/><path class="cls-1" d="M461.32,574.27l-.14.11c.23-.15.49-.29.72-.42s.19,0,0,0a1.8,1.8,0,0,0-1.69,1.28,1.76,1.76,0,0,0,1.23,2.16,2.08,2.08,0,0,0,2.59-1.58,1.6,1.6,0,0,0-2.66-1.55Z" transform="translate(-309.1 -99.97)"/><path class="cls-1" d="M460.26,570.06a.58.58,0,0,1,.31.13c1.81,1.08,3.09-2.12,1.1-2.59a2,2,0,0,0-1.23,0,1.41,1.41,0,0,0,0,2.69,2,2,0,0,0,1.23,0c2-.49.71-3.69-1.1-2.6a.65.65,0,0,1-.31.12,1.15,1.15,0,0,0,0,2.2Z" transform="translate(-309.1 -99.97)"/><path class="cls-1" d="M437.27,575.75a1.52,1.52,0,0,0,0,3,1.52,1.52,0,0,0,0-3Z" transform="translate(-309.1 -99.97)"/><path class="cls-1" d="M436.79,571.84l-.16-.13a1.21,1.21,0,0,0-1.71,1.71,1.07,1.07,0,0,1,.14.16c1.06,1.18,2.92-.68,1.73-1.74Z" transform="translate(-309.1 -99.97)"/><path class="cls-1" d="M433.39,540.16l-.15-.07c.32.26.63.49.94.73a.66.66,0,0,1,0-.11,1.63,1.63,0,1,0-2.23,2.23,2,2,0,0,0,1.48.18,1.53,1.53,0,0,0,1.13-1.48,1.58,1.58,0,0,0-1.13-1.48Z" transform="translate(-309.1 -99.97)"/><path class="cls-1" d="M431.1,533.49a1.74,1.74,0,0,0,0,3.47,1.74,1.74,0,0,0,0-3.47Z" transform="translate(-309.1 -99.97)"/><path class="cls-1" d="M430.3,526.72a1.53,1.53,0,0,0,0,3.06,1.53,1.53,0,0,0,0-3.06Z" transform="translate(-309.1 -99.97)"/><path class="cls-1" d="M429.94,523c0-.08.05-.16.09-.25a1.38,1.38,0,1,0-2.67,0c0,.09.07.17.11.25a1.29,1.29,0,0,0,2.47,0Z" transform="translate(-309.1 -99.97)"/><path class="cls-1" d="M429.34,517.8a1.43,1.43,0,0,0-.46-1.27c-.92-.82-2.56.28-1.79,1.37,0-.13,0-.26-.06-.41-.48,1.61,2.12,2.07,2.31.31Z" transform="translate(-309.1 -99.97)"/><path class="cls-1" d="M427.86,511.2a1.57,1.57,0,0,0-.88-.64c-1.14-.39-1.68,1.22-.79,1.84l.18.12a1,1,0,0,0,1,0l.13-.1c.36-.26.65-.82.33-1.22Z" transform="translate(-309.1 -99.97)"/><path class="cls-1" d="M426.28,504.54a1,1,0,0,0,0,1.9,1,1,0,0,0,0-1.9Z" transform="translate(-309.1 -99.97)"/><path class="cls-1" d="M536.44,460a33.45,33.45,0,0,0-1-3.91c-.18-.62-.55-2.61-1.68-2.16-2.5,1,.39,5.06.92,6.56a.91.91,0,0,0,1.76-.49Z" transform="translate(-309.1 -99.97)"/><path class="cls-1" d="M542.92,452.1c.31-2.1,1.07-4.32.76-6.44-.18-1.23-2.08-1.1-2.36,0-.49,2,0,4.26.24,6.27.1.68,1.24,1,1.36.17Z" transform="translate(-309.1 -99.97)"/><path class="cls-1" d="M533.08,445.84c-.66-.57-1.32-1.11-2-1.64a2.73,2.73,0,0,0-2-.87.55.55,0,0,0-.55.56c.13,1.5,2,2.48,3,3.39s2.45-.57,1.46-1.44Z" transform="translate(-309.1 -99.97)"/><path class="cls-1" d="M526.46,450.93a9.46,9.46,0,0,1-2.92-.57c-.56-.16-1.67,0-1.69.75-.06,2.1,3.53,2,4.87,1.76,1.12-.16.82-1.95-.26-1.94Z" transform="translate(-309.1 -99.97)"/><path class="cls-1" d="M519.71,441.74a16.49,16.49,0,0,0-.26-3.64,14.18,14.18,0,0,0-.82-3.59,1.49,1.49,0,0,0-2.7.34c-.66,2.47,1.36,4.8,1.77,7.16.2,1.21,1.93.82,2-.27Z" transform="translate(-309.1 -99.97)"/><path class="cls-1" d="M528,434.84c1-1.81,2.85-4.73,1.69-6.82a1.31,1.31,0,0,0-2.22,0,6.55,6.55,0,0,0-.81,2.76,22.64,22.64,0,0,1-.82,3.14,1.19,1.19,0,0,0,2.16.92Z" transform="translate(-309.1 -99.97)"/><path class="cls-1" d="M541.48,436.88c.73-1.05,1.5-2.06,2.29-3.07.64-.83,1.65-1.79,1.2-2.93a.62.62,0,0,0-.57-.45c-1.21,0-1.81,1.15-2.4,2-.75,1.12-1.5,2.26-2.19,3.44s1,2,1.67,1Z" transform="translate(-309.1 -99.97)"/><path class="cls-1" d="M552.45,439.65a26.59,26.59,0,0,0,1.16-2.4,4.2,4.2,0,0,0,.54-2.31c0-.31-.45-.35-.66-.17a4.57,4.57,0,0,0-1,1.86,23.75,23.75,0,0,1-1.15,2.38c-.4.72.69,1.36,1.09.64Z" transform="translate(-309.1 -99.97)"/><path class="cls-1" d="M553,425.35c-1.07-1.13-1.84-2.45-2.79-3.67-.77-1-1.74-2.46-3.15-2.32a.71.71,0,0,0-.7.69c0,1.35,1.32,2.4,2.14,3.34a21.62,21.62,0,0,0,3.5,3.26c.76.61,1.63-.63,1-1.3Z" transform="translate(-309.1 -99.97)"/><path class="cls-1" d="M551.88,411.77c-1.17-1.23-1.86-3-3.58-3.53a.59.59,0,0,0-.73.56c.17,1.79,1.53,3.28,2.74,4.53,1,1,2.55-.52,1.57-1.56Z" transform="translate(-309.1 -99.97)"/><path class="cls-1" d="M536.32,419.77a24.28,24.28,0,0,1-.74-3.36c-.15-.91,0-2.13-1-2.61a.8.8,0,0,0-.87.12c-.82.65-.47,1.81-.33,2.7a22.52,22.52,0,0,0,.89,3.71c.43,1.3,2.46.76,2.05-.56Z" transform="translate(-309.1 -99.97)"/><path class="cls-1" d="M521.8,423c-.45-1.73-1.12-4.43-2.95-5.17a.64.64,0,0,0-.8.62,6.13,6.13,0,0,0,.87,2.37,15.43,15.43,0,0,1,.94,2.7,1,1,0,0,0,1.94-.52Z" transform="translate(-309.1 -99.97)"/><path class="cls-1" d="M513.49,428.45c-.48-.54-1-1.06-1.48-1.57a1.8,1.8,0,0,0-1.63-.65.52.52,0,0,0-.51.52,2,2,0,0,0,.72,1.55,19.93,19.93,0,0,1,1.5,1.55c.86,1,2.23-.44,1.4-1.4Z" transform="translate(-309.1 -99.97)"/><path class="cls-1" d="M509.71,417.1a17.56,17.56,0,0,1,.64-4.26c.2-1,.22-2.15-.74-2.67a.59.59,0,0,0-.6,0c-.95.57-.92,1.81-1,2.82a18.11,18.11,0,0,0-.12,4.35c.15,1.06,1.86.78,1.83-.24Z" transform="translate(-309.1 -99.97)"/><path class="cls-1" d="M525.79,409.87a11.91,11.91,0,0,0-.77-5.62.54.54,0,0,0-.89,0c-1,1.63-.13,3.81-.23,5.62-.07,1.23,1.82,1.21,1.89,0Z" transform="translate(-309.1 -99.97)"/><path class="cls-1" d="M538.24,403.11c-.78,0-1.56.06-2.33.06a7,7,0,0,0-2.38,0,.58.58,0,0,0-.32.82c.78,1.48,3.67.88,5,.86a.87.87,0,0,0,0-1.74Z" transform="translate(-309.1 -99.97)"/><path class="cls-1" d="M546.91,398.62c0-.73-.14-1.45-.22-2.18s0-1.45-.58-1.94a.52.52,0,0,0-.64-.08c-1.18.88-.45,2.95-.38,4.2s1.9,1.16,1.82,0Z" transform="translate(-309.1 -99.97)"/><path class="cls-1" d="M535.08,389.3a4.75,4.75,0,0,1-2.68-.54,6,6,0,0,0-2.46-.47.43.43,0,0,0-.31.73,5,5,0,0,0,2.57,1.68,5.58,5.58,0,0,0,3.31.11.79.79,0,0,0-.43-1.51Z" transform="translate(-309.1 -99.97)"/><path class="cls-1" d="M522.31,395A26.81,26.81,0,0,0,520.1,393a19.3,19.3,0,0,0-2.32-1.93c-.94-.57-1.77.51-1.37,1.39a6.22,6.22,0,0,0,2.05,2.19c.86.68,1.79,1.25,2.7,1.89s1.86-.72,1.15-1.49Z" transform="translate(-309.1 -99.97)"/><path class="cls-1" d="M511.34,400.58c-.68-.33-1.36-.67-2-1a6.93,6.93,0,0,0-2.1-1.06,1.17,1.17,0,0,0-1.13,1.94c1,1.2,3.19,1.38,4.62,1.68.88.19,1.52-1.08.64-1.52Z" transform="translate(-309.1 -99.97)"/><path class="cls-1" d="M524.54,381.45a6.54,6.54,0,0,0-3.2-.11c-.85.16-2.21.65-2.1,1.74s1.4,1.05,2.19.79a20.72,20.72,0,0,1,3.11-.75c.88-.15.78-1.45,0-1.67Z" transform="translate(-309.1 -99.97)"/><path class="cls-1" d="M465.78,478.21c-.75-1.34-2.18-3.67-4-3.21a.51.51,0,0,0-.31.75c.34.73,1,1,1.66,1.43a8.77,8.77,0,0,1,1.95,1.58c.34.4.95-.13.71-.55Z" transform="translate(-309.1 -99.97)"/><path class="cls-1" d="M463.26,466.93a15.83,15.83,0,0,0,1.61-2.3,3.52,3.52,0,0,0,.71-2.66.47.47,0,0,0-.69-.28,3.28,3.28,0,0,0-1.39,1.81A14.2,14.2,0,0,1,462,466c-.51.7.65,1.58,1.22.93Z" transform="translate(-309.1 -99.97)"/><path class="cls-1" d="M471.37,454.42c-.47-1.22-.29-3-1.39-3.88a.44.44,0,0,0-.74.31,7.34,7.34,0,0,0,.33,2.07,11.11,11.11,0,0,0,.62,2c.28.68,1.45.18,1.18-.51Z" transform="translate(-309.1 -99.97)"/><path class="cls-1" d="M464,454.62c.53-1.18.82-2.47,1.4-3.61.14-.27-.14-.62-.43-.44-1.26.8-1.36,2.2-1.91,3.49-.3.64.65,1.19.94.56Z" transform="translate(-309.1 -99.97)"/><path class="cls-1" d="M469.73,440.45c-1.05.27-2.41,0-3.27.76a.4.4,0,0,0,0,.53c.86,1,2.61.53,3.69.22a.78.78,0,0,0-.42-1.51Z" transform="translate(-309.1 -99.97)"/><path class="cls-1" d="M434.35,382.22c-1.05.28-2.4,0-3.26.77a.36.36,0,0,0,0,.52c.85,1,2.6.52,3.69.23a.79.79,0,0,0-.43-1.52Z" transform="translate(-309.1 -99.97)"/><path class="cls-1" d="M438.05,391.66c-1.05.29-2.41,0-3.27.77a.4.4,0,0,0,0,.54c.85,1,2.61.52,3.69.21a.79.79,0,0,0-.42-1.52Z" transform="translate(-309.1 -99.97)"/><path class="cls-1" d="M427.87,411.55c-.39-1-.23-2.39-1.05-3.19a.39.39,0,0,0-.53.05c-.89.93-.3,2.64.09,3.68a.79.79,0,0,0,1.49-.54Z" transform="translate(-309.1 -99.97)"/><path class="cls-1" d="M459.65,399.49c-1,.29-2.4,0-3.27.76a.4.4,0,0,0,0,.54c.85,1,2.61.52,3.7.21a.79.79,0,0,0-.43-1.51Z" transform="translate(-309.1 -99.97)"/><path class="cls-1" d="M477.15,442.76c.29-1.5,1-4.43-.52-5.48a.51.51,0,0,0-.7.18,3.35,3.35,0,0,0-.14,2,11,11,0,0,1-.2,2.92c-.18,1,1.36,1.45,1.56.42Z" transform="translate(-309.1 -99.97)"/><path class="cls-1" d="M464.15,444.33l-.28-.26a.12.12,0,0,0-.17.16c.09.1.17.2.26.29s.32-.08.19-.19Z" transform="translate(-309.1 -99.97)"/><path class="cls-1" d="M461.42,435.62a8.57,8.57,0,0,0-.94-2.43c-.32-.6-.75-1.35-1.52-1.34a.55.55,0,0,0-.49.38c-.22.55.12,1.08.39,1.56a6.72,6.72,0,0,1,.85,2.3c.2,1.11,1.94.64,1.71-.47Z" transform="translate(-309.1 -99.97)"/><path class="cls-1" d="M469,431.58c.12-1.37.09-3.12-1.21-3.88a.45.45,0,0,0-.66.26c-.22,1.2.18,2.38,0,3.62s1.72,1.14,1.82,0Z" transform="translate(-309.1 -99.97)"/><path class="cls-1" d="M476.34,425.46a9.2,9.2,0,0,0-1.32-3.68.29.29,0,0,0-.51,0c-.59,1.38.07,2.69.28,4.11.14,1,1.74.6,1.55-.43Z" transform="translate(-309.1 -99.97)"/><path class="cls-1" d="M466.73,417.06c-1.35,0-2.69-.06-4,0a3.17,3.17,0,0,0-2.68,1,.65.65,0,0,0,.23.87c.95.46,1.88.08,2.89-.05,1.18-.13,2.39-.15,3.59-.18a.85.85,0,0,0,0-1.7Z" transform="translate(-309.1 -99.97)"/><path class="cls-1" d="M458.86,388.37c-1.34,0-2.68-.05-4,0-1,.08-2,.13-2.68,1a.6.6,0,0,0,.23.85c.95.47,1.88.08,2.89,0,1.19-.15,2.39-.16,3.58-.2a.85.85,0,0,0,0-1.69Z" transform="translate(-309.1 -99.97)"/><path class="cls-1" d="M455.67,424.43a18.77,18.77,0,0,1-2.54-.71c-.82-.31-1.5-.9-2.33-1.18s-1.35.69-1.05,1.37c.81,1.88,4,1.94,5.73,2,.81,0,1-1.27.19-1.44Z" transform="translate(-309.1 -99.97)"/><path class="cls-1" d="M455.39,412.43c1-1.28,1.93-3.57,1.5-5.2a.92.92,0,0,0-1.75,0,13.32,13.32,0,0,0-.3,2.09,6.18,6.18,0,0,1-.88,2.27c-.58.93.81,1.68,1.43.84Z" transform="translate(-309.1 -99.97)"/><path class="cls-1" d="M469.45,408.57c.09-.08.17-.18.26-.26s0-.15-.08-.08l-.27.26c-.05.05,0,.14.09.08Z" transform="translate(-309.1 -99.97)"/><path class="cls-1" d="M473,405a13.83,13.83,0,0,0-3.25,1.31c-.93.48-2.45.94-2.78,2a.58.58,0,0,0,.26.67c1,.59,2-.14,2.84-.63,1.21-.66,2.25-1.57,3.37-2.33A.58.58,0,0,0,473,405Z" transform="translate(-309.1 -99.97)"/><path class="cls-1" d="M468.9,395.13c-.1-1.48-.43-3.29-1.59-4.32a.44.44,0,0,0-.74.31c-.17,1.39.6,2.64.67,4,.05,1.08,1.72,1.08,1.66,0Z" transform="translate(-309.1 -99.97)"/><path class="cls-1" d="M447.48,433a19,19,0,0,1-3.24,1c-.9.28-2.06.41-2.61,1.26a.52.52,0,0,0,.32.78c1,.28,2.14-.36,3.06-.67a10.1,10.1,0,0,0,2.94-1.59.46.46,0,0,0-.47-.79Z" transform="translate(-309.1 -99.97)"/><path class="cls-1" d="M441.8,443.9c-.69-.81-1.32-1.68-2-2.48-.34-.39-.67-.76-1-1.12a3.16,3.16,0,0,0-1.36-.57c-.28-.08-.64.23-.51.51a6.37,6.37,0,0,0,.44,1.17,11.07,11.07,0,0,0,1.18,1.29c.74.78,1.49,1.53,2.28,2.23a.73.73,0,0,0,1-1Z" transform="translate(-309.1 -99.97)"/><path class="cls-1" d="M436.05,432.36a7.63,7.63,0,0,0-1.05-3.72.49.49,0,0,0-.82,0c-.76,1.16-.09,2.48,0,3.72s2,1.19,1.85,0Z" transform="translate(-309.1 -99.97)"/><path class="cls-1" d="M443.34,421.78c-.69-1.31-.95-3.23-2.46-3.82a.51.51,0,0,0-.61.34c-.31,1.5.86,3.1,1.64,4.31a.83.83,0,0,0,1.43-.83Z" transform="translate(-309.1 -99.97)"/><path class="cls-1" d="M434.05,416.87a35.14,35.14,0,0,0-4,.1c-1.05.16-.89,1.68,0,1.95,1.46.44,3-.34,4.23-1.12a.5.5,0,0,0-.25-.93Z" transform="translate(-309.1 -99.97)"/><path class="cls-1" d="M433.43,401.54a33.13,33.13,0,0,0-4,.08c-1,.18-.89,1.68,0,2,1.47.44,3-.34,4.24-1.12a.5.5,0,0,0-.25-.92Z" transform="translate(-309.1 -99.97)"/><path class="cls-1" d="M426.49,389a38.15,38.15,0,0,0-1,3.87c-.14,1,1.36,1.32,1.87.54.84-1.28.54-3,.12-4.37-.13-.44-.83-.53-.95,0Z" transform="translate(-309.1 -99.97)"/><path class="cls-1" d="M440.61,412.69a22.74,22.74,0,0,0-2-2.72.93.93,0,0,0-1.45,1.13,9.57,9.57,0,0,0,2.22,2.52c.63.53,1.75-.16,1.21-.93Z" transform="translate(-309.1 -99.97)"/><path class="cls-1" d="M448.12,399.86a20.08,20.08,0,0,0-2-2.72.93.93,0,0,0-1.45,1.12,9.81,9.81,0,0,0,2.23,2.53c.63.52,1.74-.16,1.2-.93Z" transform="translate(-309.1 -99.97)"/><path class="cls-1" d="M437,449.94c-.94,0-1.87,0-2.81,0s-1.66-.06-2.12.69a.43.43,0,0,0,0,.44,1.87,1.87,0,0,0,1.77.68c1.05,0,2.11,0,3.16,0a.89.89,0,0,0,0-1.77Z" transform="translate(-309.1 -99.97)"/><path class="cls-1" d="M449.81,381.06H447c-.78,0-1.67-.07-2.13.68a.49.49,0,0,0,0,.44,1.91,1.91,0,0,0,1.78.69c1,0,2.1,0,3.15,0a.89.89,0,0,0,0-1.78Z" transform="translate(-309.1 -99.97)"/><path class="cls-1" d="M428.57,465c.27-1.75-.58-6.12-2.82-6.2a.74.74,0,0,0-.71.54c-.21,1,.56,2.17,1,3.1s.91,2.28,1.92,2.82c.22.11.59,0,.63-.26Z" transform="translate(-309.1 -99.97)"/><path class="cls-1" d="M423.75,450.88c-.75-1.2-1.88-2.82-3.28-3.27a.31.31,0,0,0-.38.39,3.75,3.75,0,0,0,1.07,1.4,12.65,12.65,0,0,1,1.77,2c.35.48,1.14,0,.82-.48Z" transform="translate(-309.1 -99.97)"/><path class="cls-1" d="M426.9,439.79c-.59-.63-1.25-1.19-1.89-1.76a10.09,10.09,0,0,0-2-1.66.33.33,0,0,0-.5.28c-.16,1.86,2.12,3.14,3.2,4.37.74.83,2-.41,1.23-1.23Z" transform="translate(-309.1 -99.97)"/><path class="cls-1" d="M419.86,464.56a34.54,34.54,0,0,1-3.42-.8c-.55-.13-1.93-.83-2.14.15s1.47,1.39,2.2,1.47a9.39,9.39,0,0,0,3.42-.39c.25-.07.16-.39-.06-.43Z" transform="translate(-309.1 -99.97)"/><path class="cls-1" d="M426.55,472.32c-1.47-.06-3.26-.45-4.51.54a.71.71,0,0,0,0,1c1.25,1,3,.6,4.51.54a1,1,0,0,0,0-2.06Z" transform="translate(-309.1 -99.97)"/><path class="cls-1" d="M414.76,453.9c-1.37-.15-4-.34-4.52,1.35a.55.55,0,0,0,.24.62,2.85,2.85,0,0,0,1.91,0c.85-.23,1.71-.41,2.56-.6s.54-1.29-.19-1.37Z" transform="translate(-309.1 -99.97)"/><path class="cls-1" d="M405.68,450.59c.07-.75.18-1.48.26-2.22a8.49,8.49,0,0,0,.18-2.07.46.46,0,0,0-.68-.39c-1.7.9-1.09,3.31-.85,4.81.11.67,1,.44,1.09-.13Z" transform="translate(-309.1 -99.97)"/><path class="cls-1" d="M414.07,443.09a10.44,10.44,0,0,0-.05-2.37,13.12,13.12,0,0,0-.37-2.65,1.13,1.13,0,0,0-.75-.75c-2.74-.39-.71,4.69-.65,5.77a.91.91,0,0,0,1.82,0Z" transform="translate(-309.1 -99.97)"/><path class="cls-1" d="M428.77,423c-.84-.32-1.69-.62-2.49-1s-1.58-1.13-2.33-.9a.49.49,0,0,0-.36.37c-.41,2,3.67,2.3,4.94,2.47a.48.48,0,0,0,.24-.92Z" transform="translate(-309.1 -99.97)"/><path class="cls-1" d="M412.9,430a19.7,19.7,0,0,1-3.24-.52c-.75-.16-1.65-.64-2.35-.15a.47.47,0,0,0-.16.62c.39.87,1.65.87,2.47,1a13.83,13.83,0,0,0,3.28.11.53.53,0,0,0,0-1.06Z" transform="translate(-309.1 -99.97)"/><path class="cls-1" d="M402.77,437c-.19-.83-.33-1.66-.52-2.49-.16-.67-.24-1.4-.92-1.73a.45.45,0,0,0-.53.07c-.48.55-.34,1.12-.19,1.79a18.41,18.41,0,0,0,1,2.69.61.61,0,0,0,1.18-.33Z" transform="translate(-309.1 -99.97)"/><path class="cls-1" d="M411.94,418.57c-1.2.94-2.88,1.38-3.88,2.54-.18.21-.14.6.17.65,1.77.36,3.45-1.14,4.55-2.36a.59.59,0,0,0-.84-.83Z" transform="translate(-309.1 -99.97)"/><path class="cls-1" d="M402.23,424.63c-.64.16-3.57.15-3.06,1.48.54,1.49,2.73.46,3.69,0s.24-1.71-.63-1.47Z" transform="translate(-309.1 -99.97)"/><path class="cls-9" d="M499.67,419.71a1.68,1.68,0,0,0,0,3.35,1.68,1.68,0,0,0,0-3.35Z" transform="translate(-309.1 -99.97)"/><path class="cls-9" d="M495.39,418.61a1.71,1.71,0,0,0,0,3.41,1.71,1.71,0,0,0,0-3.41Z" transform="translate(-309.1 -99.97)"/><path class="cls-9" d="M490.83,417.62a1.89,1.89,0,0,0,0,3.78,1.89,1.89,0,0,0,0-3.78Z" transform="translate(-309.1 -99.97)"/><path class="cls-9" d="M485.75,418.17a1.34,1.34,0,0,0,0,2.68,1.34,1.34,0,0,0,0-2.68Z" transform="translate(-309.1 -99.97)"/><path class="cls-9" d="M497.53,408a1.64,1.64,0,0,0,0,3.27,1.64,1.64,0,0,0,0-3.27Z" transform="translate(-309.1 -99.97)"/><path class="cls-9" d="M493,407.53a1.81,1.81,0,0,0,0,3.62,1.81,1.81,0,0,0,0-3.62Z" transform="translate(-309.1 -99.97)"/><path class="cls-9" d="M488.42,407.71a1.63,1.63,0,0,0,0,3.26,1.63,1.63,0,0,0,0-3.26Z" transform="translate(-309.1 -99.97)"/><path class="cls-9" d="M483.87,407.56a1.78,1.78,0,0,0,0,3.55,1.78,1.78,0,0,0,0-3.55Z" transform="translate(-309.1 -99.97)"/><path class="cls-9" d="M503.69,431a1.41,1.41,0,0,0,0,2.81,1.41,1.41,0,0,0,0-2.81Z" transform="translate(-309.1 -99.97)"/><path class="cls-9" d="M499.14,430.65a1.46,1.46,0,0,0,0,2.92,1.46,1.46,0,0,0,0-2.92Z" transform="translate(-309.1 -99.97)"/><path class="cls-9" d="M495.12,430.35a1.48,1.48,0,0,0,0,3,1.48,1.48,0,0,0,0-3Z" transform="translate(-309.1 -99.97)"/><path class="cls-9" d="M490.56,430a1.8,1.8,0,0,0,0,3.59,1.8,1.8,0,0,0,0-3.59Z" transform="translate(-309.1 -99.97)"/><path class="cls-9" d="M529.52,483.49a1.8,1.8,0,0,0,0,3.59,1.8,1.8,0,0,0,0-3.59Z" transform="translate(-309.1 -99.97)"/><path class="cls-9" d="M485.61,430.79a1.56,1.56,0,0,0,0,3.12,1.56,1.56,0,0,0,0-3.12Z" transform="translate(-309.1 -99.97)"/><path class="cls-9" d="M506.37,381.7a1.39,1.39,0,0,0,0,2.77,1.39,1.39,0,0,0,0-2.77Z" transform="translate(-309.1 -99.97)"/><path class="cls-9" d="M500.74,381.13a1.43,1.43,0,0,0,0,2.85,1.43,1.43,0,0,0,0-2.85Z" transform="translate(-309.1 -99.97)"/><path class="cls-9" d="M495.39,381.11a1.45,1.45,0,0,0,0,2.89,1.45,1.45,0,0,0,0-2.89Z" transform="translate(-309.1 -99.97)"/><path class="cls-9" d="M489.76,381.4a1.42,1.42,0,0,0,0,2.84,1.42,1.42,0,0,0,0-2.84Z" transform="translate(-309.1 -99.97)"/><path class="cls-9" d="M484.93,381.34a1.75,1.75,0,0,0,0,3.5,1.75,1.75,0,0,0,0-3.5Z" transform="translate(-309.1 -99.97)"/><path class="cls-9" d="M479.59,381.13a1.7,1.7,0,0,0,0,3.39,1.7,1.7,0,0,0,0-3.39Z" transform="translate(-309.1 -99.97)"/><path class="cls-9" d="M474.23,381.5a1.32,1.32,0,0,0,0,2.64,1.32,1.32,0,0,0,0-2.64Z" transform="translate(-309.1 -99.97)"/><path class="cls-9" d="M470.21,382.15a1.21,1.21,0,0,0,0,2.42,1.21,1.21,0,0,0,0-2.42Z" transform="translate(-309.1 -99.97)"/><path class="cls-5" d="M378.2,401.28c2.47-3.93,7.52-3.73,11.89-3.78,6-.08,12.71.08,17.18,4.14,2.59,2.33,4,5.64,5.51,8.8,7,14.74,16.78,28.85,18,45.09a3.6,3.6,0,0,1-.46,2.49,31.88,31.88,0,0,0-7.34-4.43,4.43,4.43,0,0,0-5.73,1.84q-2.67,4.81-5.35,9.69-5.22-4.61-10.57-9a3,3,0,0,0-3.93.15,87.15,87.15,0,0,1-11.58,9.23c-2.54-3.93-5.06-7.88-7.59-11.81a2.39,2.39,0,0,0-1.1-1.08,2.42,2.42,0,0,0-1.74.35l-11.88,5.85-1.45-11.41a1.73,1.73,0,0,0-2.14-1.45c-3.7,1-8.17,1.54-11.57.61,2.31-6.16,8.31-13.81,12.51-18.88C364.4,423.37,375,406.29,378.2,401.28Z" transform="translate(-309.1 -99.97)"/><path class="cls-10" d="M420.57,395.93a3.52,3.52,0,0,0-.89-4.29,10.15,10.15,0,0,0-4.26-2L405,386.49a3.5,3.5,0,0,1-1.84-5.41,8.13,8.13,0,0,0,1.21-2.17c1-2.81-.75-6.08-3.35-7.5a10.93,10.93,0,0,0-8.69-.33,21.74,21.74,0,0,0-10.54,8.5A55.57,55.57,0,0,0,375.8,392c-2.24,6-4.21,12.91-1.42,18.72S385,419.4,391,421.3s10.27,3.2,17.49,2a2.82,2.82,0,0,0,2.36-2.59c0-1.27-1.68-2.2-2.17-2.33-6.33-1.85-11.81-3.07-15.35-4.59a.58.58,0,0,1,.34-1.1c5.89,1.09,14.13,2.16,20.75,2.87a3,3,0,0,0,3.43-3.18,3.47,3.47,0,0,0-2.18-2.73c-4.51-1.33-10.61-2.74-15.94-4.53-2.74-.91-4.6-1-4.37-2.12.17-.8,2-.31,5,.36a128.65,128.65,0,0,0,14.35,2.87c2.13.21,4.48.29,5.38-2.22,1.17-3.26-9.38-5.43-17.74-7.45-1.74-.41-3.65-.6-3.48-1.29.29-1.17,2.84-.36,4.67,0,4.42.88,8.62,2.11,13.86,2.3A3.19,3.19,0,0,0,420.57,395.93Z" transform="translate(-309.1 -99.97)"/><path class="cls-9" d="M412.2,420.6c-.37-1-1.68-1.45-2.6-1.79-1.55-.59-3.11-1-4.55.05a2.12,2.12,0,0,0-.52,2.57,3.06,3.06,0,0,0,2.46,1.62,13.13,13.13,0,0,0,2.66,0c1.14-.14,3.1-1,2.55-2.43Z" transform="translate(-309.1 -99.97)"/><path class="cls-9" d="M418.91,411.33c-1.82-1.31-4.24-2.57-6.49-1.6a2.69,2.69,0,0,0-.84,4.12c1.34,1.7,4.49,2.25,6.47,1.73a2.38,2.38,0,0,0,.86-4.25Z" transform="translate(-309.1 -99.97)"/><path class="cls-9" d="M421.69,403.38c-.75-2.44-4.52-3.26-6.62-2.28a2,2,0,0,0-.88,2.56c.83,1.66,2.24,2.07,3.93,2.38,1.41.25,4.13-.78,3.57-2.66Z" transform="translate(-309.1 -99.97)"/><path class="cls-9" d="M422.62,394.68c-.32-2.56-4.25-3.23-6.24-3.07s-2.7,3.48-.91,4.44a7.65,7.65,0,0,0,4.63.78c1.22-.1,2.7-.67,2.52-2.15Z" transform="translate(-309.1 -99.97)"/><path class="cls-9" d="M375.83,411.67c.33-.62,1.55-2.46.31-2.89s-1.41,1.78-1.54,2.48a.68.68,0,0,0,1.23.41Z" transform="translate(-309.1 -99.97)"/><path class="cls-9" d="M377.86,402.88c1.2.42,2.36-1.31,2.69-2.22a1.38,1.38,0,0,0-2.19-1.47,3.71,3.71,0,0,0-1.13,2.27,1.33,1.33,0,0,0,.63,1.42Z" transform="translate(-309.1 -99.97)"/><path class="cls-9" d="M382.85,393.67a2.07,2.07,0,0,0,1.16-.8c.36-.49.81-.87,1.15-1.39a1.27,1.27,0,0,0-1.6-1.84,3.36,3.36,0,0,0-1.78,2.1c-.27.72.09,2.11,1.07,1.93Z" transform="translate(-309.1 -99.97)"/><path class="cls-9" d="M389.48,385.53a10.9,10.9,0,0,0,1.54-1.42,1,1,0,1,0-1.48-1.32,16,16,0,0,1-1.31,1.29c-1,.8.28,2.23,1.25,1.45Z" transform="translate(-309.1 -99.97)"/><path class="cls-1" d="M422.85,448.47a4.06,4.06,0,0,1,.44.49c1,1.37,3.21,1,4.07-.25a3.37,3.37,0,0,0,.58-1.59,2.68,2.68,0,0,0-1.82-2.71.35.35,0,0,0-.11,0,2.65,2.65,0,0,0-3.4,3s0,.06,0,.09c.27.77.31.87.1.31.28-.81.56-1.63.83-2.44l-.13.1,1.08-.53-.45,0c-1.6.13-2.26,2.43-1.2,3.51Z" transform="translate(-309.1 -99.97)"/><path class="cls-1" d="M408.66,448.94a3.84,3.84,0,0,0-2.07,3.12,3.72,3.72,0,1,0,7.36-.51c-.44-2.18-3.21-3.9-5.29-2.61Z" transform="translate(-309.1 -99.97)"/><path class="cls-1" d="M408.68,443.58l.11.05a2.55,2.55,0,0,0,3.33-2.25,2.74,2.74,0,0,0-2.79-2.92,2.49,2.49,0,0,0-1.55,4.51c-.7-.53.07.1.33.3-1-.72.46.26.57.31Z" transform="translate(-309.1 -99.97)"/><path class="cls-1" d="M408.23,433.29a1.42,1.42,0,0,0,.12-.13,1.74,1.74,0,1,0-2.12.13l.13.1a1.53,1.53,0,0,0,1.87-.1Z" transform="translate(-309.1 -99.97)"/><path class="cls-1" d="M422.48,437.19a1.2,1.2,0,0,0-.78,2.26,1.2,1.2,0,0,0,.78-2.26Z" transform="translate(-309.1 -99.97)"/><path class="cls-1" d="M420.65,431.27a2.19,2.19,0,0,0-.08-.72c-.37-1.16-2.22-1.22-2.28.18a.11.11,0,0,1,0,.06c-.64,1.7,2.36,2.27,2.38.48Z" transform="translate(-309.1 -99.97)"/><path class="cls-1" d="M389.87,450.62a3.93,3.93,0,1,0,2.44,5,4,4,0,0,0-2.44-5Z" transform="translate(-309.1 -99.97)"/><path class="cls-1" d="M390.89,441a2.65,2.65,0,1,0,1.64,3.36,2.67,2.67,0,0,0-1.64-3.36Z" transform="translate(-309.1 -99.97)"/><path class="cls-1" d="M390.88,432.78l-.06.07c.44-.1.87-.18,1.3-.26l-.17,0a1.25,1.25,0,0,0-1.6,1.41c0-.23,0-.13,0,.29a1.54,1.54,0,0,0,2.79.57c.95-1.42-1-3.31-2.28-2Z" transform="translate(-309.1 -99.97)"/><path class="cls-1" d="M367.51,447.9a2.5,2.5,0,0,0,1.71,1.92,2.7,2.7,0,0,0,3.39-1.84,2.59,2.59,0,0,0-4.9-1.68,3.75,3.75,0,0,0-.13,1.73l.09-1.26c.16-.24.31-.5.48-.75a1.94,1.94,0,0,0-.64,1.88Z" transform="translate(-309.1 -99.97)"/><path class="cls-1" d="M373.84,437.89a1.7,1.7,0,0,0-1.1,3.21,1.7,1.7,0,0,0,1.1-3.21Z" transform="translate(-309.1 -99.97)"/><path class="cls-1" d="M377.36,430.65a2.61,2.61,0,0,0-.74-.43c-1.49-.58-2.55,1.08-2.07,2.35a1.77,1.77,0,0,0,1.28,1.11,1.72,1.72,0,0,0,1.53-3Z" transform="translate(-309.1 -99.97)"/><path class="cls-1" d="M356.77,441.07c.05,0,.11-.05.17-.09a2.28,2.28,0,1,0-3.05-1,.48.48,0,0,0,.08.16,2.11,2.11,0,0,0,2.8,1Z" transform="translate(-309.1 -99.97)"/><path class="cls-1" d="M361.35,429.72a1.64,1.64,0,0,0-1.05,3.1,1.64,1.64,0,0,0,1.05-3.1Z" transform="translate(-309.1 -99.97)"/><path class="cls-1" d="M365.53,423.57a1.06,1.06,0,0,0-.25,0,1.58,1.58,0,0,0-1,2.86l.21.14a1.63,1.63,0,1,0,1-3Z" transform="translate(-309.1 -99.97)"/><g class="cls-16"><path class="cls-9" d="M420.91,459.85c1.54-10.26-2.25-23-7.26-31.94a.62.62,0,0,0-1.15.39c1.28,10.66,7.14,20.71,7.4,31.5a.51.51,0,0,0,1,.05Z" transform="translate(-309.1 -99.97)"/><path class="cls-9" d="M401.88,468.21c1.53-5.65,1.18-11.15.65-16.92-.7-7.48-.92-15.38-2.88-22.66a.63.63,0,0,0-1.24.08C396,441.47,403,454.88,400,467.58c-.29,1.22,1.52,1.87,1.86.63Z" transform="translate(-309.1 -99.97)"/><path class="cls-9" d="M375.39,468.23c3.1-14.28,8.34-28.21,10.27-42.77.06-.45-.67-.73-.9-.31-3.15,6-4.42,12.88-5.86,19.42-1.71,7.78-3.88,15.48-5.12,23.34-.15.91,1.41,1.23,1.61.32Z" transform="translate(-309.1 -99.97)"/><path class="cls-9" d="M355.47,455.68c7-10.93,17.87-21.15,22-33.72a.72.72,0,0,0-1.13-.77c-5.66,3.9-9.26,10.47-12.49,16.39s-7.49,11.2-9.65,17.46a.72.72,0,0,0,1.26.64Z" transform="translate(-309.1 -99.97)"/></g><path class="cls-17" d="M606.39,388.51C601.9,405.46,594,414.16,585,422a4.68,4.68,0,0,1-7.44-1.87c-2.63-6.69-3-13.78-6.58-20.68-10.35-20.07-34.31-30.67-56.78-32.84-20.82-2-38.33,2-59.21,3.44a157,157,0,0,1-46.8-3.44c-18.22-3.86-22.25-3.85-46-18.15a16.32,16.32,0,0,1-6.47-7.12,8.79,8.79,0,0,1-1.08-5c1.77-10.71,3.77-24.75,18.77-37.72,1.4-1.22,4.92.2,5.18,2C380,311,380,317.28,388.3,328.1c6.26,8.2,21.79,14.5,31.93,16.36a136.58,136.58,0,0,0,25,2.2c11.42-.05,22.79-1.54,34.19-2.14,37.11-1.94,83,7.7,106.67,19.19,14.6,7.1,22.29,18.27,21.88,21C607.72,386.07,606.75,387.18,606.39,388.51Z" transform="translate(-309.1 -99.97)"/><path class="cls-9" d="M505.28,351.45a2.74,2.74,0,0,1,.43,4.31c-7.06,6.68-20,16.12-28.87,22.09a4.59,4.59,0,0,1-5.39-.16c-8.48-6.56-17-13.39-25.5-19.94a2.34,2.34,0,0,1,.27-3.89c8.58-5,17.56-13.43,25.61-17.78,1.41-.75,3.09-1.93,4.54-1.24C486.15,339.4,497.78,346.79,505.28,351.45Z" transform="translate(-309.1 -99.97)"/><path class="cls-7" d="M474.83,353.31a4.14,4.14,0,1,0,4.14,4.14,4.18,4.18,0,0,0-4.14-4.14Z" transform="translate(-309.1 -99.97)"/><path class="cls-5" d="M476.18,366.53a.76.76,0,0,1-.2-.06l.88.52-.11-.1a2.13,2.13,0,1,0,0,3s.07-.05.11-.08l-.88.51.2-.07a1.94,1.94,0,0,0,0-3.72Z" transform="translate(-309.1 -99.97)"/><path class="cls-5" d="M488.29,354.19a2.42,2.42,0,1,0,2.43,2.41,2.44,2.44,0,0,0-2.43-2.41Z" transform="translate(-309.1 -99.97)"/><path class="cls-5" d="M460.11,354.24c-2.52,0-2.52,3.91,0,3.91a2,2,0,0,0,0-3.91Z" transform="translate(-309.1 -99.97)"/><path class="cls-5" d="M476.38,346.05a.79.79,0,0,0,.08-.16,2.46,2.46,0,1,0-4.26,0c0,.07.07.12.09.16a2.38,2.38,0,0,0,4.09,0Z" transform="translate(-309.1 -99.97)"/><path class="cls-5" d="M435.77,359.6c3.33,0,3.33-5.17,0-5.17s-3.33,5.17,0,5.17Z" transform="translate(-309.1 -99.97)"/><path class="cls-5" d="M423.54,354.55c-.08.13-.18.26-.27.39-1,1.5,1.2,3.05,2.44,1.88.11-.12.22-.22.34-.33,1.64-1.57-1.15-3.9-2.51-1.94Z" transform="translate(-309.1 -99.97)"/><path class="cls-5" d="M415,352.54l-.22-.13a2.05,2.05,0,1,0,.74,2.81l.13-.2a1.83,1.83,0,0,0-.65-2.48Z" transform="translate(-309.1 -99.97)"/><path class="cls-5" d="M403.64,352.15a1.39,1.39,0,0,0,0-2.77,1.39,1.39,0,0,0,0,2.77Z" transform="translate(-309.1 -99.97)"/><path class="cls-5" d="M393.07,349.2c1,.51,2.23-.77,1.31-1.7-1.16-1.15-2.69,1-1.31,1.7Z" transform="translate(-309.1 -99.97)"/><path class="cls-5" d="M385.27,345.24a1.15,1.15,0,0,0,0-2.3,1.15,1.15,0,0,0,0,2.3Z" transform="translate(-309.1 -99.97)"/><path class="cls-5" d="M378.17,340.46a1,1,0,0,0,0-1.92,1,1,0,0,0,0,1.92Z" transform="translate(-309.1 -99.97)"/><path class="cls-5" d="M514.67,356.38a1.86,1.86,0,0,0,0-3.71,1.86,1.86,0,0,0,0,3.71Z" transform="translate(-309.1 -99.97)"/><path class="cls-5" d="M524.68,357.21a1.85,1.85,0,0,0,0-3.7,1.85,1.85,0,0,0,0,3.7Z" transform="translate(-309.1 -99.97)"/><path class="cls-5" d="M533.87,358.84a1.39,1.39,0,0,0,0-2.77,1.39,1.39,0,0,0,0,2.77Z" transform="translate(-309.1 -99.97)"/><path class="cls-5" d="M543.89,362.41c2.63,0,2.63-4.09,0-4.09s-2.64,4.09,0,4.09Z" transform="translate(-309.1 -99.97)"/><path class="cls-5" d="M554.74,366.68a1.72,1.72,0,0,0,0-3.44,1.72,1.72,0,0,0,0,3.44Z" transform="translate(-309.1 -99.97)"/><path class="cls-5" d="M564.34,372.21a1,1,0,0,0,0-2,1,1,0,0,0,0,2Z" transform="translate(-309.1 -99.97)"/><path class="cls-5" d="M573.52,379.53a1.22,1.22,0,0,0,0-2.43,1.22,1.22,0,0,0,0,2.43Z" transform="translate(-309.1 -99.97)"/><path class="cls-18" d="M353.26,206.07a2.08,2.08,0,0,0,1.11-.32c2.5-1.67,9-8.48,10.83-10.38a1.71,1.71,0,0,0,.66-1.32,1.88,1.88,0,0,0-.64-1c-2.81-2.8-5.77-5.44-8.41-8.39-1.14-1.28-2.5-2.74-3.34-2.79H353c-.85,0-2.19,1.51-3.33,2.79-2.65,2.95-5.62,5.59-8.43,8.39a1.93,1.93,0,0,0-.63,1,1.74,1.74,0,0,0,.66,1.32c1.86,1.9,8.33,8.71,10.83,10.38a2.05,2.05,0,0,0,1.11.32Z" transform="translate(-309.1 -99.97)"/><path class="cls-18" d="M606.82,536.11a2.11,2.11,0,0,0,1.12-.32c2.5-1.67,8.95-8.48,10.82-10.37a1.81,1.81,0,0,0,.66-1.33,1.89,1.89,0,0,0-.63-1c-2.81-2.8-5.78-5.44-8.42-8.39-1.15-1.29-2.49-2.74-3.34-2.81h-.43c-.84.07-2.19,1.52-3.34,2.81-2.64,2.95-5.6,5.59-8.42,8.39a2,2,0,0,0-.63,1,1.77,1.77,0,0,0,.66,1.33c1.87,1.89,8.32,8.7,10.83,10.37a2.08,2.08,0,0,0,1.11.32Z" transform="translate(-309.1 -99.97)"/><path class="cls-18" d="M350.47,167.7c-6.16,0-11-2.34-14.51-7.06s-5.25-10.55-5.25-17.57q0-11.19,5.45-18.25a17.17,17.17,0,0,1,14.27-7.08,17.48,17.48,0,0,1,14.15,6.75c3.69,4.5,5.53,10.46,5.53,17.84A30.78,30.78,0,0,1,366,158.48q-4.14,6.95-10.62,8.64l0,.65c0,3.52,2.14,5.28,6.4,5.28a31.69,31.69,0,0,0,5.52-.45v4.81a17,17,0,0,1-5,.73q-5.52,0-8.49-2.32T350.47,167.7Zm0-4.89q6.29,0,9.85-5.74t3.55-14.77c0-6.2-1.24-11-3.67-14.46a11.46,11.46,0,0,0-9.77-5.17q-6.15,0-9.77,5.59T337,142.9q0,8.83,3.66,14.37T350.43,162.81Z" transform="translate(-309.1 -99.97)"/><path class="cls-18" d="M609.47,553.79c6.16,0,11,2.34,14.49,7.06s5.26,10.55,5.26,17.57q0,11.19-5.44,18.27a17.18,17.18,0,0,1-14.28,7.06A17.48,17.48,0,0,1,595.35,597c-3.7-4.5-5.54-10.46-5.54-17.84A30.82,30.82,0,0,1,594,563c2.77-4.64,6.3-7.5,10.62-8.63l0-.67c0-3.5-2.14-5.26-6.4-5.26a30.12,30.12,0,0,0-5.53.45v-4.83a17.18,17.18,0,0,1,5-.73c3.67,0,6.49.78,8.48,2.33S609.23,549.94,609.47,553.79Zm0,4.89q-6.3,0-9.85,5.74t-3.55,14.77q0,9.3,3.68,14.46a11.37,11.37,0,0,0,9.75,5.17c4.11,0,7.36-1.86,9.78-5.59s3.62-8.61,3.62-14.64-1.22-10.68-3.65-14.37S613.57,558.68,609.5,558.68Z" transform="translate(-309.1 -99.97)"/><path class="cls-18" d="M407.75,593.47H360.82c-13.82,0-25.06-12-25.06-26.64V230.71h1.55V566.83c0,13.83,10.55,25.08,23.51,25.08h46.93Z" transform="translate(-309.1 -99.97)"/><rect class="cls-18" x="185.38" y="491.94" width="88.28" height="1.57"/><path class="cls-18" d="M624.18,490.88h-1.57V153.09c0-13.81-10.54-25.06-23.5-25.06h-47.6v-1.56h47.6c13.82,0,25.07,11.95,25.07,26.62Z" transform="translate(-309.1 -99.97)"/><rect class="cls-18" x="70.52" y="26.5" width="83.6" height="1.57"/></g></svg>