<svg xmlns="http://www.w3.org/2000/svg" xmlns:xlink="http://www.w3.org/1999/xlink" viewBox="0 0 341.72 520"><defs><style>.cls-1{fill:none;}.cls-2{fill:#fff;}.cls-3{fill:#2d2d2d;}.cls-4{fill:#990028;}.cls-5{fill:#0c0a35;}.cls-6{fill:#b70027;}.cls-7{fill:#ffd6a1;}.cls-8{clip-path:url(#clip-path);}.cls-9{clip-path:url(#clip-path-2);}.cls-10{clip-path:url(#clip-path-3);}.cls-11{fill:#f70032;}.cls-12{clip-path:url(#clip-path-4);}.cls-13{clip-path:url(#clip-path-5);}.cls-14{clip-path:url(#clip-path-6);}.cls-15{fill:#222272;}.cls-16{fill:#d6002b;}</style><clipPath id="clip-path" transform="translate(-309.1 -99.97)"><path class="cls-1" d="M472.49,237.2a1,1,0,0,0,1.05-1,7.65,7.65,0,0,0-1.54-3.91c-2.1-3.26-4.19-6.51-6.3-9.77a6,6,0,0,0-1.63-1.89,8.29,8.29,0,0,0-4-1.31c-5.24.22-8.69-.05-13.93.17a6.6,6.6,0,0,0-3.09.6,6.8,6.8,0,0,0-1.9,1.88c-2.51,3.26-10.77,11.47-11.3,13.76C429.46,237.49,459.47,237.08,472.49,237.2Z"/></clipPath><clipPath id="clip-path-2" transform="translate(-309.1 -99.97)"><path class="cls-1" d="M488.28,239c1.08-2.3.94-5,1.71-7.42s2.94-4.5,5.19-4a.59.59,0,0,1,.44.52,143,143,0,0,1,.49,15.62,13.52,13.52,0,0,1-.95,5.53c-.72,1.53-4.14,5-7.47,8.53-6.29,6.68-9.31,7.66-16.29,13.61l-13,11.06a14.32,14.32,0,0,1-4.15,2.76,4.78,4.78,0,0,1-4.74-.58c-1.21-1.05-1.56-2.77-1.76-4.37-1-8.2-2.79-22.61-3.71-30.37-.21-1.81.73,0,4.89.21,9.77.49,18.75-2.15,28.24-4.52C481.53,244.49,486.38,243,488.28,239Z"/></clipPath><clipPath id="clip-path-3" transform="translate(-309.1 -99.97)"><path class="cls-1" d="M506.12,204.54c.44,4.32.9,8.62,1.35,12.94,1.74,16.51,3.46,33,5.62,49.48.1.75.32,1.64,1,1.86a2.09,2.09,0,0,0,1.46-.33c12.34-6.49,24.7-13,36.32-20.66,2.49-1.65,5.12-3.6,5.85-6.51.68-2.75-.56-5.57-1.79-8.13-6.94-14.42-14.62-28.54-19.82-43.65-1.43-4.14-2.67-8.38-4.81-12.2a9.26,9.26,0,0,0-2.41-3,10.65,10.65,0,0,0-3.7-1.48,110.23,110.23,0,0,0-24.12-3.29c-.34,2.7.39,5.41,1,8C504.22,186.44,505.16,195.5,506.12,204.54Z"/></clipPath><clipPath id="clip-path-4" transform="translate(-309.1 -99.97)"><path class="cls-1" d="M491.16,482.69a1,1,0,0,0-1,1,7.63,7.63,0,0,0,1.53,3.92q3.15,4.89,6.3,9.76a5.66,5.66,0,0,0,1.64,1.89,8.15,8.15,0,0,0,4,1.31c5.23-.2,8.7.05,13.93-.15a6.94,6.94,0,0,0,3.1-.62,6.44,6.44,0,0,0,1.88-1.87c2.52-3.25,10.79-11.48,11.3-13.76C534.19,482.42,504.18,482.81,491.16,482.69Z"/></clipPath><clipPath id="clip-path-5" transform="translate(-309.1 -99.97)"><path class="cls-1" d="M475.38,480.92c-1.09,2.3-.95,5-1.72,7.4s-2.94,4.53-5.19,4a.61.61,0,0,1-.43-.54,142.77,142.77,0,0,1-.5-15.62,13.64,13.64,0,0,1,.95-5.53c.72-1.52,4.16-5,7.48-8.53,6.27-6.67,9.31-7.64,16.29-13.6l13-11.07a14.11,14.11,0,0,1,4.14-2.75,4.8,4.8,0,0,1,4.75.57c1.21,1.06,1.55,2.77,1.75,4.37,1,8.22,2.79,22.61,3.71,30.37.22,1.83-.73,0-4.88-.21-9.77-.49-18.76,2.16-28.26,4.52C482.13,475.41,477.28,476.91,475.38,480.92Z"/></clipPath><clipPath id="clip-path-6" transform="translate(-309.1 -99.97)"><path class="cls-1" d="M457.54,515.35c-.46-4.32-.9-8.62-1.35-12.94-1.73-16.5-3.47-33-5.63-49.46-.1-.76-.31-1.66-1-1.87a2,2,0,0,0-1.46.34c-12.34,6.47-24.7,13-36.32,20.66-2.48,1.63-5.11,3.59-5.84,6.49s.56,5.59,1.78,8.15c6.94,14.4,14.62,28.52,19.83,43.64,1.42,4.14,2.67,8.38,4.8,12.19a9.43,9.43,0,0,0,2.42,3,10.62,10.62,0,0,0,3.69,1.49,110.91,110.91,0,0,0,24.12,3.28c.34-2.71-.39-5.42-1-8.06C459.44,533.45,458.49,524.39,457.54,515.35Z"/></clipPath></defs><g id="Layer_1" data-name="Layer 1"><path class="cls-2" d="M621.24,619.19H338.68a28.8,28.8,0,0,1-28.79-28.81V129.55a28.79,28.79,0,0,1,28.79-28.8H621.24a28.8,28.8,0,0,1,28.8,28.8V590.38A28.81,28.81,0,0,1,621.24,619.19Z" transform="translate(-309.1 -99.97)"/><path class="cls-3" d="M621.24,620H338.68a29.61,29.61,0,0,1-29.58-29.58V129.55A29.61,29.61,0,0,1,338.68,100H621.24a29.61,29.61,0,0,1,29.58,29.58V590.39A29.61,29.61,0,0,1,621.24,620ZM338.68,101.52a28.05,28.05,0,0,0-28,28V590.39a28.06,28.06,0,0,0,28,28H621.24a28,28,0,0,0,28-28V129.55a28,28,0,0,0-28-28Z" transform="translate(-309.1 -99.97)"/><path class="cls-4" d="M489.77,268.51c6.67.11,13,2.13,19.25,4.1,15,4.8,26.87,6,41.21,11.52,31.13,12,67.86,17.38,63.69,82.91-1.74,27.25-12.27,28.79-33.39,55.94-4.61,5.91-31.83-10-40.68-9.83-50.85,1-88.7,2.54-139.55,3.57-1.45,0-4.73,1.26-5.54.31-3.35-3.88-32.72-47.61-35.49-71.61-1.67-14.51,1.73-23,6.62-31.41,3-5.18,16-14.64,21.48-18.18,9.21-5.93,20.1-9.72,31.11-12.94C435.28,278,455.72,275,472.85,271,478.39,269.71,484,268.39,489.77,268.51Z" transform="translate(-309.1 -99.97)"/><path class="cls-4" d="M473.88,451.4c-6.66-.13-13-2.13-19.25-4.12-15-4.79-27.41-.47-41.91-5.51-40.36-14-65.53-41.74-53.84-109.36,4.64-26.91,17.38,3.23,38.5-23.92,4.6-5.92,17.57-1.55,26.42-1.73,50.85-1,88.71-2.56,139.56-3.59,1.45,0,4.72-1.24,5.53-.31,3.35,3.9,32.72,47.61,35.49,71.61,1.68,14.53-1.73,23-6.61,31.41-3,5.18-16,14.64-21.49,18.18-9.21,5.93-20.09,9.72-31.11,12.95-16.8,4.92-37.23,7.86-54.37,11.88C485.26,450.2,479.64,451.5,473.88,451.4Z" transform="translate(-309.1 -99.97)"/><path class="cls-5" d="M474.65,272.13c-12.24-5.83-23.93-3.14-35.8,2.07-8.56,3.73-10.44,16.07-6.15,23.39a17.31,17.31,0,0,0,23.41,6.15c7.34-4.17,14.37-7.74,20.91-13.19,5.55-4.61,4.11-15.34-2.37-18.42Z" transform="translate(-309.1 -99.97)"/><path class="cls-5" d="M485,265c-6.46,3.74-10.66,10.26-13.79,16.88-4.31,9.13-2.71,18.59.48,27.67,3.76,10.76,18.8,14,28,9.39,10.59-5.28,13.93-17.58,9.4-28,2.43,5.64.49,1.1.27-1a44.89,44.89,0,0,0-3.06-10.26c-1.61-4.06-2.94-8.49-6.11-11.66-3.87-3.86-10.07-6-15.21-3Z" transform="translate(-309.1 -99.97)"/><path class="cls-5" d="M491.56,284.4c3.63,4.86,8.23,7.13,13.45,9.93,6.76,3.64,14.78,7.89,22.58,7.5,7.46-.4,14-4.81,16.07-12.24,2.18-7.91-1.62-14.2-7.66-18.83-9.68-7.42-34.38-7.6-42.94,2.07-2.62,3-4.14,8-1.5,11.57Z" transform="translate(-309.1 -99.97)"/><path class="cls-6" d="M500.07,113q-3.37,4.53-6.49,9.26a2,2,0,0,1-1.58-.86c-2.57-2.82-4.64-5-6.35-8.43-.35-.69-.76-1.47-.4-2.14a44.68,44.68,0,0,1,5.94-5.8,2.53,2.53,0,0,1,4.07.45c1,1,1.92,2,2.85,3.07S501,111.66,500.07,113Z" transform="translate(-309.1 -99.97)"/><path class="cls-7" d="M515.65,252.09a98.85,98.85,0,0,0,0,13.22c.59,6.5.06,9.28.27,15.08,0,1-2.08,9.34-11.22,12.05-12.18,3.61-20.55,3.52-29.48-1a13.61,13.61,0,0,1-5.39-4.36c-.82-1.27-.91-6.09-.81-7.58a58.19,58.19,0,0,0-2.52-21.23,4.37,4.37,0,0,0-1.49-2.49,4.8,4.8,0,0,0-3.08-.38,37.1,37.1,0,0,1-12.84-1.19,7.38,7.38,0,0,1-3.65-1.87c-1.4-1.55-1.4-3.87-1.32-5.94.37-9-1.5-12.68,2-26.85a10.78,10.78,0,0,1-5.17.09c-1.67-.5-3.12-2.15-2.79-3.86a5.56,5.56,0,0,1,1.75-2.67,66.22,66.22,0,0,0,6.95-8.55,13.37,13.37,0,0,0,2.36-4.91,14.35,14.35,0,0,0-.06-4.53c-.56-4.7-1.11-9.39-1.66-14.1-.25-2.09,1.22-3,3.25-3.57A127.37,127.37,0,0,1,492,172.2a19.86,19.86,0,0,1,5.49.8c4.5,1.6,7.28,6.13,8.89,10.62a80.27,80.27,0,0,1,2.73,10.48q2.1,9.78,4.21,19.59c1.8,8.43,3.61,16.94,3.43,25.55C516.64,243.54,515.84,247.8,515.65,252.09Z" transform="translate(-309.1 -99.97)"/><path class="cls-6" d="M472.49,237.2a1,1,0,0,0,1.05-1,7.65,7.65,0,0,0-1.54-3.91c-2.1-3.26-4.19-6.51-6.3-9.77a6,6,0,0,0-1.63-1.89,8.29,8.29,0,0,0-4-1.31c-5.24.22-8.69-.05-13.93.17a6.6,6.6,0,0,0-3.09.6,6.8,6.8,0,0,0-1.9,1.88c-2.51,3.26-10.77,11.47-11.3,13.76C429.46,237.49,459.47,237.08,472.49,237.2Z" transform="translate(-309.1 -99.97)"/><path class="cls-6" d="M488.28,239c1.08-2.3.94-5,1.71-7.42s2.94-4.5,5.19-4a.59.59,0,0,1,.44.52,143,143,0,0,1,.49,15.62,13.52,13.52,0,0,1-.95,5.53c-.72,1.53-4.14,5-7.47,8.53-6.29,6.68-9.31,7.66-16.29,13.61l-13,11.06a14.32,14.32,0,0,1-4.15,2.76,4.78,4.78,0,0,1-4.74-.58c-1.21-1.05-1.56-2.77-1.76-4.37-1-8.2-2.79-22.61-3.71-30.37-.21-1.81.73,0,4.89.21,9.77.49,18.75-2.15,28.24-4.52C481.53,244.49,486.38,243,488.28,239Z" transform="translate(-309.1 -99.97)"/><path class="cls-2" d="M501.87,200.14c-5,3.11-10,5.44-15.84,5.72-7.7.34-15.57-3.39-15.7-4a1.67,1.67,0,0,1,.47-1.29,10.67,10.67,0,0,1,4-2.85,28.4,28.4,0,0,1,24.86.5A5.1,5.1,0,0,1,501.87,200.14Z" transform="translate(-309.1 -99.97)"/><path class="cls-5" d="M501.66,188.62a36.25,36.25,0,0,0-28-.65,17,17,0,0,0-6.31,4.37,4.1,4.1,0,0,0-1.18,2.37,1.86,1.86,0,0,0,1.62,2,2.79,2.79,0,0,0,1.55-.68,32.55,32.55,0,0,1,29.9-3.49,1.81,1.81,0,0,0,2.26-.8l.76-1.47A1.23,1.23,0,0,0,501.66,188.62Z" transform="translate(-309.1 -99.97)"/><path class="cls-5" d="M482,198.83a3.49,3.49,0,0,0,0,3.67,3.38,3.38,0,0,0,2.23,1.4,5.65,5.65,0,0,0,4.42-.68,3.38,3.38,0,0,0,1.19-3.67c-.37-1-.85-2.76-4.34-2.68A4.62,4.62,0,0,0,482,198.83Z" transform="translate(-309.1 -99.97)"/><path class="cls-4" d="M506.12,204.54c.44,4.32.9,8.62,1.35,12.94,1.74,16.51,3.46,33,5.62,49.48.1.75.32,1.64,1,1.86a2.09,2.09,0,0,0,1.46-.33c12.34-6.49,24.7-13,36.32-20.66,2.49-1.65,5.12-3.6,5.85-6.51.68-2.75-.56-5.57-1.79-8.13-6.94-14.42-14.62-28.54-19.82-43.65-1.43-4.14-2.67-8.38-4.81-12.2a9.26,9.26,0,0,0-2.41-3,10.65,10.65,0,0,0-3.7-1.48,110.23,110.23,0,0,0-24.12-3.29c-.34,2.7.39,5.41,1,8C504.22,186.44,505.16,195.5,506.12,204.54Z" transform="translate(-309.1 -99.97)"/><path class="cls-4" d="M519.73,150.26c1.62,2.48,1.69,5.7,3.25,8.22,1.37,2.2,3.43,4.25,3.48,6.84-1.56,1.18-3.66,1.23-5.62,1.23q-32.81,0-65.61.06a2.19,2.19,0,0,1-.84-.11c-1.21-.46-.83-2.25-.22-3.41,3.37-6.51,19.53-28.37,24-32.79,2.55-2.53,5.11-5,7.67-7.55,2.36-2.3,5.37-4.81,8.54-3.93C495.35,119.08,502,123,519.73,150.26Z" transform="translate(-309.1 -99.97)"/><g class="cls-8"><path class="cls-5" d="M437.22,219.93c-1.81,2.76-2.3,6.39-3.27,9.52-1.69,5.4-4.16,11.17-5.06,16.7-.1.6.67,1.27,1.14.67,5.7-7.36,4.64-18.25,8.08-26.51.22-.54-.6-.8-.89-.38Z" transform="translate(-309.1 -99.97)"/><path class="cls-5" d="M442.4,212.15c-2.88,4.55-3.44,9.82-4.38,15-1.24,6.94-3.7,13.56-5.15,20.44a.65.65,0,0,0,1.18.49c6.92-9.57,6.15-24.62,8.83-35.76a.27.27,0,0,0-.48-.21Z" transform="translate(-309.1 -99.97)"/><path class="cls-5" d="M445.53,212.71c-1.27,9.93-3.18,19.66-3.72,29.69a.41.41,0,0,0,.69.28c2.56-3.22,2.56-7.85,2.91-11.81.53-6,1.62-12.21,1-18.16a.42.42,0,0,0-.84,0Z" transform="translate(-309.1 -99.97)"/><path class="cls-5" d="M450,213.18c-1.69,5.3-1.32,10.52-1.47,16-.14,5.27-1.18,10.45-1.34,15.67a.65.65,0,0,0,1.2.32c5.26-9.39,1.3-21.65,2.66-31.73a.55.55,0,0,0-1.05-.29Z" transform="translate(-309.1 -99.97)"/><path class="cls-5" d="M455.27,210.29a76.17,76.17,0,0,0-1,16.6c.18,6.54-.8,13.73,1.25,20a.61.61,0,0,0,1.17,0c3.67-11.73-1.83-24.59-.54-36.5.06-.52-.81-.63-.9-.13Z" transform="translate(-309.1 -99.97)"/><path class="cls-5" d="M461.27,213.54a78.84,78.84,0,0,0,1.79,28.58.57.57,0,0,0,1.09,0c2-9.13-1.62-19.37-1.95-28.58a.47.47,0,0,0-.93,0Z" transform="translate(-309.1 -99.97)"/><path class="cls-5" d="M467.86,218.72c-1,7.44-1.75,15.92.64,23.19.12.39.76.57.94.13,1.39-3.16.9-6.46.53-9.81-.49-4.51-.48-9-1.06-13.51a.53.53,0,0,0-1.05,0Z" transform="translate(-309.1 -99.97)"/></g><g class="cls-9"><path class="cls-5" d="M447.65,244.26c-.58,9.6.81,19.7,1.84,29.25.63,6,0,13.18,3.05,18.59.31.55,1.11.16,1-.43-3.17-15.34-3.18-31.84-5.12-47.41a.38.38,0,0,0-.76,0Z" transform="translate(-309.1 -99.97)"/><path class="cls-5" d="M453.36,246.54c-1.37,13.13-.11,30.13,4.21,42.69.13.39.76.46.85,0,1.12-5.69.21-11.19-.58-16.89-1.2-8.65-2.34-17.27-3.54-25.91-.08-.59-.89-.38-.94.11Z" transform="translate(-309.1 -99.97)"/><path class="cls-5" d="M460.48,245.92c-.18,13.58,1.81,26.78,4.35,40.05a.67.67,0,0,0,1.28,0c1.27-6.47-.76-12.8-1.6-19.24-.9-6.9-2.59-13.93-3.19-20.81a.42.42,0,0,0-.84,0Z" transform="translate(-309.1 -99.97)"/><path class="cls-5" d="M466.11,243.64c-.38,12.24,1,26.84,4.66,38.53.38,1.21,2.47,1.06,2.33-.33-1.32-12.83-4.61-25.4-5.78-38.2a.61.61,0,0,0-1.21,0Z" transform="translate(-309.1 -99.97)"/><path class="cls-5" d="M472.26,242.6a75.9,75.9,0,0,0,5,30.18.27.27,0,0,0,.52-.07c-.35-10.14-3.64-20-4.56-30.11a.48.48,0,0,0-1,0Z" transform="translate(-309.1 -99.97)"/><path class="cls-5" d="M478.29,240.74c-1.06,11.17,2.77,23.18,4.79,34.14.23,1.29,2.17.93,2.2-.29.25-11.65-5.93-22.34-6.47-33.85a.26.26,0,0,0-.52,0Z" transform="translate(-309.1 -99.97)"/><path class="cls-5" d="M482.64,235.34A111.84,111.84,0,0,0,487.56,270a.56.56,0,0,0,1.08,0c1.24-4.55.3-9.22-.62-13.77-1.41-7-3.2-14-4.84-20.93a.28.28,0,0,0-.54.08Z" transform="translate(-309.1 -99.97)"/><path class="cls-5" d="M486.71,232.11c1.27,4.71,1.24,10.11,2.2,14.95,1.09,5.43,2.11,11.27,4.58,16.26.35.73,1.33.31,1.38-.38.5-6.32-2.12-12.91-3.53-19.06-.84-3.65-1.37-9.24-4-12.13-.25-.28-.7,0-.61.36Z" transform="translate(-309.1 -99.97)"/><path class="cls-5" d="M492,223.91c-1.09,13,3.37,24.85,4.73,37.58,0,.35.57.48.63.1,2.14-12.33-2.76-25.53-4.39-37.68a.49.49,0,0,0-1,0Z" transform="translate(-309.1 -99.97)"/></g><g class="cls-10"><path class="cls-5" d="M506.25,169.73c-1.65,17.46,1.85,36.21,4.85,53.41,1.57,9.1,2.55,18.27,3.85,27.4,1,7.32,1.24,15.71,4.84,22.33.86,1.59,3.19.48,2.83-1.2-3.48-15.3-5-30.87-7.64-46.33-1.75-10.2-3.88-20.31-5.1-30.6-1-8.48-.78-16.86-3.39-25.05,0-.14-.22-.11-.24,0Z" transform="translate(-309.1 -99.97)"/><path class="cls-5" d="M510.62,174.73c2.69,15.28,3.81,30.85,6.61,46.16,1.46,8,2.4,16.05,4,24,1.71,8.65,4.32,16.8,4.72,25.69l3.06-1.75-.59-.32a1.31,1.31,0,0,0-1.73.45l-.46.59c-2,2.66,4,4.6,3.78,1a108.34,108.34,0,0,0-3.65-21c-2.23-8.82-3.4-17.78-5.15-26.68-1.81-9.16-4.11-18.23-5.75-27.43-1.29-7.2-1.43-14.2-4.61-20.87-.06-.13-.24,0-.22.1Z" transform="translate(-309.1 -99.97)"/><path class="cls-5" d="M515.25,171c.17,6.79,2.48,13.3,3.47,20q1.78,12.07,4.17,24c1.63,8.22,3.83,16.3,5.87,24.44,2.12,8.4,2.48,17.22,5.26,25.44a1.91,1.91,0,0,0,3.68-1c-3.37-15.77-6.92-31.2-10.92-46.8s-5.34-31.26-11.41-46.16c0-.07-.12-.07-.12,0Z" transform="translate(-309.1 -99.97)"/><path class="cls-5" d="M521,173.67c1,15.74,6.27,31.46,10.15,46.7,2.33,9.16,5.4,18.1,7.82,27.25,1.8,6.81,2,14.64,7,20,1.07,1.16,3.39,0,2.75-1.6-6-14.85-9.18-31.29-13.85-46.68-2.57-8.45-4.74-17-7.25-25.49-2-6.63-2.81-14.25-6.3-20.3a.17.17,0,0,0-.31.1Z" transform="translate(-309.1 -99.97)"/><path class="cls-5" d="M526.78,176.57c-.32,5.76,1.2,11,3,16.41,2.94,8.87,5.68,17.77,9.26,26.41,2.93,7.1,6.35,14,9.41,21,3.13,7.21,5.11,15.85,10.26,21.93.62.72,1.63-.08,1.48-.86-2.69-14-10.56-27.89-16.87-40.54a205.69,205.69,0,0,1-9.16-22.74c-2.49-7-6-14.19-6.64-21.63a.37.37,0,0,0-.73,0Z" transform="translate(-309.1 -99.97)"/><path class="cls-5" d="M532.39,176.53c-6.15,4.53,6.48,26.72,8.69,31.27,4.85,10,9.66,19.92,14.32,30,2.57,5.54,6,14.34,11.17,17.92a1.72,1.72,0,0,0,2.33-2.34c-7.81-11.48-12.73-24.72-19.22-36.94-4.1-7.72-8.39-15.25-11.74-23.34-1.86-4.45-6.28-11.36-5.11-16.24.06-.23-.21-.49-.44-.32Z" transform="translate(-309.1 -99.97)"/></g><path class="cls-6" d="M552.37,160.69a187.53,187.53,0,0,1-15.63,24.69,4,4,0,0,1-4.56,2c-28.34-2.56-57.19-7.11-85-.9a155.45,155.45,0,0,0-16.33-23.95,5,5,0,0,1-1.49-3c0-2.25,2.76-3.26,5-3.63,29.66-4.88,59.95-3.35,90-1.81,9.44.49,19,1,28.17,3.11C553.45,158.08,552.94,159.6,552.37,160.69Z" transform="translate(-309.1 -99.97)"/><path class="cls-11" d="M429.59,160.43c1.55,2.07,16.3,10,17.81,10.54,3.33,1.23,3.73-1.95,4.57-3.33a73.64,73.64,0,0,1,8.85-11.53.62.62,0,0,1,.73-.13,29.36,29.36,0,0,1,7.06,6,49,49,0,0,0,5,5.23,2.64,2.64,0,0,0,1.95,1.06,2.73,2.73,0,0,0,1.69-1.19c2.82-3.34,8.41-12,11.52-11.71,2.49.22,2.91,4.36,8.51,12.25,1.11,1.56,2.08.21,6.23-3.33s6.32-5.25,10.52-8.31a1,1,0,0,1,1.09-.09c4.23,2.58,5.53,8.29,8.75,12.19a3.06,3.06,0,0,0,1.88,1.28,3.59,3.59,0,0,0,2.46-1l10.18-8a.77.77,0,0,1,1.16.25c2.53,4.95,5,14,5.67,13.06,3.33-5.06,5.78-7.55,8.34-13,1.45-3.12-.46-4.62-.88-4.68-15.32-2.59-53.95-6.74-84.89-7-13.68-.1-37.76,4-38.95,5.73S428.31,158.75,429.59,160.43Z" transform="translate(-309.1 -99.97)"/><path class="cls-11" d="M490,225.93a7.55,7.55,0,1,0-7.55-7.55,7.63,7.63,0,0,0,7.55,7.55Z" transform="translate(-309.1 -99.97)"/><path class="cls-5" d="M444.43,220.22a72.14,72.14,0,0,0,11,.12c2.45-.16,4.94-.43,6.55-2.46a4.93,4.93,0,0,0,.57-5.17c-1.05-1.8-3.72-2.89-5.3-1.18a.88.88,0,0,0,0,1.23c.89.88,3.45.78,3.54,2.2.14,1.95-1.93,2.77-3.46,3.06-4.28.83-8.73.49-13,1.29-.55.12-.37.88.12.91Z" transform="translate(-309.1 -99.97)"/><path class="cls-6" d="M472.74,144.39a9.68,9.68,0,0,0,3.17-.38c.72-.24,2.54-.89,2.19-2s-1.51-.39-2.13,0a20,20,0,0,1-3.35,1.54.43.43,0,0,0,.12.83Z" transform="translate(-309.1 -99.97)"/><path class="cls-6" d="M478.31,136.76a7.79,7.79,0,0,0,1.15,1.77,2.08,2.08,0,0,0,1.79.93.48.48,0,0,0,.47-.6,2.34,2.34,0,0,0-1-1.57A15.91,15.91,0,0,0,479,136c-.46-.31-.94.29-.71.72Z" transform="translate(-309.1 -99.97)"/><path class="cls-6" d="M483.92,130.32a5.23,5.23,0,0,0,3,2.47.47.47,0,0,0,.57-.57,4.21,4.21,0,0,0-3-2.67.52.52,0,0,0-.58.77Z" transform="translate(-309.1 -99.97)"/><path class="cls-6" d="M489.17,138.78c.63.15,1.2.65,1.85.63.2,0,.44-.19.41-.42-.09-.91-1.13-1.24-1.9-1.45s-1.15,1-.36,1.24Z" transform="translate(-309.1 -99.97)"/><path class="cls-6" d="M484.54,144.22a9.42,9.42,0,0,0,1.72,1.42,8.82,8.82,0,0,0,2,1.13,1,1,0,0,0,1.06-1.4c-.65-1.44-2.78-1.57-4-2.17a.65.65,0,0,0-.77,1Z" transform="translate(-309.1 -99.97)"/><path class="cls-6" d="M491.88,129.44c1.08-.48,2.37-.12,3.2-1.13a.48.48,0,0,0-.21-.78,3.71,3.71,0,0,0-3.58,1.14c-.41.42.11,1,.59.77Z" transform="translate(-309.1 -99.97)"/><path class="cls-6" d="M489,125c.93-.7,3.15-.81,3.25-2.25a.54.54,0,0,0-.29-.47c-1.26-.85-3,1.16-3.57,2.12-.19.36.24.9.61.6Z" transform="translate(-309.1 -99.97)"/><path class="cls-6" d="M499.73,128a9.58,9.58,0,0,0,.8,1.93,5.42,5.42,0,0,0,.64.81c.2.23.49.16.76.26s.48-.21.44-.45.08-.44-.08-.69a9.26,9.26,0,0,0-.59-.85,4.5,4.5,0,0,0-1.65-1.25c-.16-.08-.38,0-.32.24Z" transform="translate(-309.1 -99.97)"/><path class="cls-6" d="M497,135.29a18.6,18.6,0,0,0,2,2.54.72.72,0,0,0,.71.2.55.55,0,0,0,.42-.33.77.77,0,0,0-.11-.88c-.7-.77-1.55-1.37-2.27-2.13a.5.5,0,0,0-.79.6Z" transform="translate(-309.1 -99.97)"/><path class="cls-6" d="M497.2,144.63c.57.56,1.11,1.08,1.73,1.58s1.17,1,2,.79a.56.56,0,0,0,.41-.54c0-.83-.64-1.27-1.26-1.71a8.67,8.67,0,0,0-2.25-1.19c-.61-.23-1.06.65-.62,1.07Z" transform="translate(-309.1 -99.97)"/><path class="cls-6" d="M505.92,135.81a12.92,12.92,0,0,1-.71,2.54,2.23,2.23,0,0,0,.16,2.06.56.56,0,0,0,.66.08c1.31-.78.53-3.41.4-4.61,0-.28-.47-.4-.51-.07Z" transform="translate(-309.1 -99.97)"/><path class="cls-6" d="M509.83,144c-.19,1.06-.75,2.9.3,3.62a.37.37,0,0,0,.38,0c.9-.69.56-2.2.72-3.23s-1.23-1.3-1.4-.39Z" transform="translate(-309.1 -99.97)"/><path class="cls-5" d="M450.86,178.07a3.39,3.39,0,0,0,1.13-.47,2.67,2.67,0,0,0,0-4.55,3.66,3.66,0,0,0-1.13-.49,2.86,2.86,0,1,0,0,5.51Z" transform="translate(-309.1 -99.97)"/><path class="cls-5" d="M474.34,176.49a2.83,2.83,0,1,0-2.84-2.82,2.85,2.85,0,0,0,2.84,2.82Z" transform="translate(-309.1 -99.97)"/><path class="cls-5" d="M497,175.25s.07,0,.11.05a2.45,2.45,0,1,0-.88-3.34l-.07.08a2.35,2.35,0,0,0,.84,3.21Z" transform="translate(-309.1 -99.97)"/><path class="cls-5" d="M527,177.91l.16-.1a2.42,2.42,0,0,0,0-4.14l-.16-.1a2.51,2.51,0,1,0,0,4.34Z" transform="translate(-309.1 -99.97)"/><path class="cls-6" d="M434.29,305.91a4.71,4.71,0,1,0-4.7-4.71,4.76,4.76,0,0,0,4.7,4.71Z" transform="translate(-309.1 -99.97)"/><path class="cls-6" d="M491.13,326.19a4.26,4.26,0,1,0-4.26-4.27,4.3,4.3,0,0,0,4.26,4.27Z" transform="translate(-309.1 -99.97)"/><path class="cls-6" d="M542.76,297.1l.3,0c2.22-.44,3.21-3.85,1.4-5.32a2.19,2.19,0,0,1-.22-.2,3.33,3.33,0,0,0-4.71,4.7,3.49,3.49,0,0,0,3.23.86Z" transform="translate(-309.1 -99.97)"/><path class="cls-6" d="M489.54,308.57a2.64,2.64,0,0,0-1.42,2.36c-.05,1.6,2,3,3.42,2l.1-.08-1.17.32h.13l-1.21-.33.15.08a2.65,2.65,0,0,0,2.52,0,2.49,2.49,0,1,0-2.52-4.3Z" transform="translate(-309.1 -99.97)"/><path class="cls-6" d="M490.8,304.15a1.33,1.33,0,0,0,0-2.66,1.33,1.33,0,0,0,0,2.66Z" transform="translate(-309.1 -99.97)"/><path class="cls-6" d="M443.91,295.51a.21.21,0,0,1,.11-.08l-.86.48a.58.58,0,0,0,.17-.06,1.94,1.94,0,0,0,1.31-1.31,1.88,1.88,0,0,0-.87-2.11,2.8,2.8,0,0,0-.76-.3,2,2,0,1,0,.9,3.38Z" transform="translate(-309.1 -99.97)"/><path class="cls-6" d="M448.86,290.6a1.07,1.07,0,0,0,0-2.14,1.07,1.07,0,0,0,0,2.14Z" transform="translate(-309.1 -99.97)"/><path class="cls-6" d="M534.82,291.72c2.83,0,2.83-4.38,0-4.38s-2.82,4.38,0,4.38Z" transform="translate(-309.1 -99.97)"/><path class="cls-6" d="M529,287.81a1.61,1.61,0,0,0,0-3.21,1.61,1.61,0,0,0,0,3.21Z" transform="translate(-309.1 -99.97)"/><path class="cls-11" d="M446.28,181.35a7.7,7.7,0,0,1,.9,2.51,1,1,0,0,0,2-.55,6.38,6.38,0,0,0-1.58-2.95c-.65-.66-1.81.19-1.29,1Z" transform="translate(-309.1 -99.97)"/><path class="cls-11" d="M451,179.85a17.36,17.36,0,0,0,1.23,3.08.79.79,0,0,0,.89.36,1.05,1.05,0,0,0,.35-.21.78.78,0,0,0,.13-1,24.67,24.67,0,0,0-1.45-2.74c-.36-.59-1.37-.21-1.15.47Z" transform="translate(-309.1 -99.97)"/><path class="cls-11" d="M456.29,178.17c-.75,1.37-.05,3.7.91,4.83a1.26,1.26,0,0,0,2.13-.88,8.06,8.06,0,0,0-.88-2.61,2.61,2.61,0,0,0-1.56-1.57.54.54,0,0,0-.6.23Z" transform="translate(-309.1 -99.97)"/><path class="cls-11" d="M461.26,178.45a9.07,9.07,0,0,0,.63,3.9c.46.88,1.72.4,1.77-.49a8.68,8.68,0,0,0-1.13-3.77c-.29-.62-1.3-.29-1.27.36Z" transform="translate(-309.1 -99.97)"/><path class="cls-11" d="M466.44,177.81a7.52,7.52,0,0,0,.63,4,1.17,1.17,0,0,0,2.18-.58,9.85,9.85,0,0,0-1-3.66.9.9,0,0,0-1.77.23Z" transform="translate(-309.1 -99.97)"/><path class="cls-11" d="M471.73,178.24c0,1.15-.29,2.26.25,3.36a1,1,0,0,0,1.9-.51,10.55,10.55,0,0,0-.57-3.06.81.81,0,0,0-1.58.21Z" transform="translate(-309.1 -99.97)"/><path class="cls-11" d="M477.37,177.28a4.18,4.18,0,0,0-.17,3.7c.48,1.35,2.74,1.25,2.63-.36a4.86,4.86,0,0,0-1.44-3.46.67.67,0,0,0-1,.12Z" transform="translate(-309.1 -99.97)"/><path class="cls-11" d="M482.87,178.06a7.23,7.23,0,0,0-.06,3,.94.94,0,0,0,.88.67.76.76,0,0,0,.46-.12.9.9,0,0,0,.45-.78c-.05-.88-.34-1.71-.38-2.59s-1.2-1-1.35-.18Z" transform="translate(-309.1 -99.97)"/><path class="cls-11" d="M486.72,178c0,.81,0,1.61,0,2.43s.55,2.1,1.59,1.74c1.82-.65.87-3.49.18-4.66a1,1,0,0,0-1.8.49Z" transform="translate(-309.1 -99.97)"/><path class="cls-11" d="M493.23,177.83c-.32,1.22-.89,3.08.2,4.08a.92.92,0,0,0,1.39-.18c.55-1.14.08-2.73-.22-3.9a.72.72,0,0,0-1.37,0Z" transform="translate(-309.1 -99.97)"/><path class="cls-11" d="M498.42,177.62c-.69,1.37-.95,3.41,0,4.68.45.57,1.23.14,1.44-.38.45-1.11-.18-2.49,0-3.68.11-.83-1-1.5-1.47-.62Z" transform="translate(-309.1 -99.97)"/><path class="cls-11" d="M503,178.45c-.07,1.11-.91,4.63,1,4.63.83,0,.75-1.19.75-1.71,0-1-.07-2-.11-2.92a.85.85,0,0,0-1.69,0Z" transform="translate(-309.1 -99.97)"/><path class="cls-11" d="M507.58,178.61c-.49,1.27-1.55,3.66-.21,4.75a1.26,1.26,0,0,0,1.71,0,2.85,2.85,0,0,0,.67-2.38,6.46,6.46,0,0,0-.51-2.58c-.34-.82-1.41-.41-1.66.21Z" transform="translate(-309.1 -99.97)"/><path class="cls-11" d="M513.33,179.26c-.88,1.24-1.61,4,0,5a1.06,1.06,0,0,0,1.1,0c1.47-1,.75-3.37.47-4.81-.15-.78-1.16-.73-1.54-.2Z" transform="translate(-309.1 -99.97)"/><path class="cls-11" d="M518.36,179.7a21.29,21.29,0,0,0-.69,3.61c-.09,1.5,2.32,1.51,2.35,0a15.15,15.15,0,0,0-.3-3.61.71.71,0,0,0-1.36,0Z" transform="translate(-309.1 -99.97)"/><path class="cls-11" d="M523.59,180.11c-1.45.75-1.85,3.3-1.23,4.65.46,1,1.84.57,2.15-.29a8.81,8.81,0,0,0,.22-2.45,2.56,2.56,0,0,0-.58-1.84.5.5,0,0,0-.56-.07Z" transform="translate(-309.1 -99.97)"/><path class="cls-11" d="M527.37,181.38c-.42,1.05-1,2.55-.64,3.67a.93.93,0,0,0,1.68.22c.72-1,.2-2.56.18-3.72a.62.62,0,0,0-1.22-.17Z" transform="translate(-309.1 -99.97)"/><path class="cls-11" d="M532.21,181.34c-.82,1.45-2,3.06-1.23,4.76a1.37,1.37,0,0,0,2.13.27c1-1.2,1-3.34.68-4.84a.87.87,0,0,0-1.58-.19Z" transform="translate(-309.1 -99.97)"/><path class="cls-6" d="M557.1,350.91c-5.92-1.09-8-3.75-10.38-5.92a22.46,22.46,0,0,1-5.56-10.24c-1-5.3.64-8.2,3.33-12.88,3.58-6.24,9.29-7.71,16-10.33,9.7-3.82,25.82-8.84,36.23-9.27,5.12-.22,10.72.62,14.27,4.33,2.74,2.83,3.8,6.92,3.87,10.87.13,8.64-2,16.26-9.19,21.07-4.89,3.29-12.82,5.87-18.45,7.6C568.88,351.78,564.08,352.22,557.1,350.91Z" transform="translate(-309.1 -99.97)"/><path class="cls-5" d="M600.87,334.53c4.73-3.38,6.4-8.87,6.45-14.5,0-4.78-2.58-13.4-8.76-12.83a3,3,0,0,0-2.8,3.67c.79,3.19,3,5.85,3.76,9.14.89,3.66.63,8.47-1.6,11.58-1.25,1.75,1.24,4.16,3,2.94Z" transform="translate(-309.1 -99.97)"/><path class="cls-5" d="M593.34,335c.79-6.95,1.16-17.33-4.78-22.22-2.52-2.09-6.51-.15-5.64,3.29.83,3.28,2.32,6.36,3.27,9.62,1,3.52,1.83,7,3.59,10.27,1,1.83,3.37.77,3.56-1Z" transform="translate(-309.1 -99.97)"/><path class="cls-5" d="M583,338.06c.81-3.6-.46-8-1-11.56-.64-4-2.18-10.95-6.86-12-3.21-.71-6.47,2.1-5.47,5.49.53,1.79,1.45,2.59,2.25,4.19,1.06,2.07,2,4.18,3,6.26,1.41,2.89,2.85,7.49,6.17,8.69a1.56,1.56,0,0,0,1.93-1.11Z" transform="translate(-309.1 -99.97)"/><path class="cls-5" d="M573.86,338.67c-3-2.53-4.81-4.26-5.8-8.22-.85-3.36-.24-7.31-2-10.35-1-1.77-3.27-1.42-4.32,0-4.59,6.41,2.38,24.65,11.85,20.43a1.21,1.21,0,0,0,.23-1.89Z" transform="translate(-309.1 -99.97)"/><path class="cls-5" d="M560.9,342.84c-1.31-3.23-3.8-5.64-4.82-9.06-1.34-4.44,2.21-8.32,1-12.54a2.19,2.19,0,0,0-2.67-1.54c-10.07,3.8-5.15,23.55,4.75,24.92.93.13,2.25-.64,1.78-1.78Z" transform="translate(-309.1 -99.97)"/><path class="cls-11" d="M603.88,321a1.4,1.4,0,0,0-.74-2.7,1.4,1.4,0,0,0,.74,2.7Z" transform="translate(-309.1 -99.97)"/><path class="cls-11" d="M589.21,325.25a1.62,1.62,0,0,0-.85-3.12,1.62,1.62,0,0,0,.85,3.12Z" transform="translate(-309.1 -99.97)"/><path class="cls-11" d="M578.37,326.21c.12,0,.07-.23,0-.2a.1.1,0,1,0,0,.2Z" transform="translate(-309.1 -99.97)"/><path class="cls-11" d="M576.73,325.09l-.11.09c-1.49,1.31.78,3.61,2.23,2.19a.58.58,0,0,1,.1-.12c1.43-1.43-.72-3.45-2.22-2.16Z" transform="translate(-309.1 -99.97)"/><path class="cls-11" d="M564.2,327.94H564c-2,.1-1.17,3.23.62,2.28l.18-.1a1.18,1.18,0,0,0-.6-2.18Z" transform="translate(-309.1 -99.97)"/><path class="cls-11" d="M553.17,334.13c2.43-.65,1.41-4.43-1-3.76s-1.41,4.43,1,3.76Z" transform="translate(-309.1 -99.97)"/><path class="cls-11" d="M596.44,338l-.3.37a1.5,1.5,0,0,0,.68,2.45,3.65,3.65,0,0,0,.44.18c1.31.51,2.52-1,2.2-2.2s-2.15-1.89-3-.8Z" transform="translate(-309.1 -99.97)"/><path class="cls-11" d="M592,341.86a1.48,1.48,0,0,0-.77-2.85,1.48,1.48,0,0,0,.77,2.85Z" transform="translate(-309.1 -99.97)"/><path class="cls-11" d="M585.7,343.74a1.62,1.62,0,0,0-.84-3.13,1.62,1.62,0,0,0,.84,3.13Z" transform="translate(-309.1 -99.97)"/><path class="cls-11" d="M578.94,345.6a1.64,1.64,0,0,0-.85-3.17,1.64,1.64,0,0,0,.85,3.17Z" transform="translate(-309.1 -99.97)"/><path class="cls-11" d="M570.35,345.06l-.09.11c-1,1.31.65,3,2,2.61s1.91-2.64.4-3.26a.31.31,0,0,0-.13-.06,1.67,1.67,0,0,0-2.2.6Z" transform="translate(-309.1 -99.97)"/><path class="cls-11" d="M566.58,348.86a1.54,1.54,0,0,0-.8-3,1.54,1.54,0,0,0,.8,3Z" transform="translate(-309.1 -99.97)"/><path class="cls-11" d="M561.23,349.58a1.23,1.23,0,0,0-.65-2.38,1.23,1.23,0,0,0,.65,2.38Z" transform="translate(-309.1 -99.97)"/><path class="cls-11" d="M593.68,307.15a1,1,0,0,0-.53-1.92,1,1,0,0,0,.53,1.92Z" transform="translate(-309.1 -99.97)"/><path class="cls-11" d="M586.77,306.9l-.2,0c-1.94.28-1,3.67.8,2.9l.18-.06a1.48,1.48,0,0,0-.78-2.86Z" transform="translate(-309.1 -99.97)"/><path class="cls-11" d="M580.41,311.78a1.55,1.55,0,0,0-.81-3,1.55,1.55,0,0,0,.81,3Z" transform="translate(-309.1 -99.97)"/><path class="cls-11" d="M574,313.49a1.54,1.54,0,0,0-.8-3,1.54,1.54,0,0,0,.8,3Z" transform="translate(-309.1 -99.97)"/><path class="cls-11" d="M566,313a.42.42,0,0,0-.07.13,1.37,1.37,0,0,0,.5,1.85l.13.06a1.49,1.49,0,1,0-.56-2Z" transform="translate(-309.1 -99.97)"/><path class="cls-11" d="M561.3,316.93a1.51,1.51,0,0,0-.79-2.92,1.51,1.51,0,0,0,.79,2.92Z" transform="translate(-309.1 -99.97)"/><path class="cls-11" d="M553.91,315.92l-.16.13a1,1,0,0,0,.48,1.78.68.68,0,0,0,.2,0c1.78.22.9-3-.52-1.93Z" transform="translate(-309.1 -99.97)"/><path class="cls-6" d="M409,369.78c5.92,1.11,8,3.77,10.38,5.93A22.24,22.24,0,0,1,424.93,386c1,5.3-.64,8.21-3.33,12.87-3.58,6.24-9.29,7.71-16,10.35-9.69,3.8-25.82,8.84-36.22,9.28-5.13.2-10.73-.64-14.29-4.34-2.73-2.83-3.8-6.93-3.86-10.87-.12-8.64,2-16.28,9.19-21.09,4.9-3.27,12.82-5.85,18.45-7.58C397.21,368.93,402,368.47,409,369.78Z" transform="translate(-309.1 -99.97)"/><path class="cls-5" d="M365.2,386.18c-4.7,3.38-6.37,8.87-6.43,14.48,0,4.78,2.58,13.44,8.76,12.83a2.94,2.94,0,0,0,2.81-3.65c-.8-3.19-3-5.85-3.78-9.16-.88-3.64-.62-8.47,1.62-11.58,1.25-1.73-1.26-4.14-3-2.92Z" transform="translate(-309.1 -99.97)"/><path class="cls-5" d="M372.74,385.76c-.78,6.94-1.15,17.33,4.79,22.22,2.53,2.09,6.51.13,5.63-3.31-.84-3.28-2.3-6.36-3.26-9.62-1-3.5-1.83-7-3.59-10.27-1-1.81-3.36-.75-3.57,1Z" transform="translate(-309.1 -99.97)"/><path class="cls-5" d="M383.09,382.64c-.81,3.61.47,8,1,11.56.65,4,2.18,11,6.85,12,3.21.69,6.48-2.1,5.48-5.51-.53-1.79-1.45-2.58-2.26-4.17-1.05-2.07-2-4.19-3-6.26-1.41-2.91-2.85-7.49-6.18-8.7a1.56,1.56,0,0,0-1.92,1.11Z" transform="translate(-309.1 -99.97)"/><path class="cls-5" d="M392.23,382c3,2.55,4.8,4.29,5.8,8.25.84,3.33.23,7.29,2,10.33a2.53,2.53,0,0,0,4.32,0c4.59-6.39-2.37-24.65-11.84-20.41a1.19,1.19,0,0,0-.23,1.87Z" transform="translate(-309.1 -99.97)"/><path class="cls-5" d="M405.19,377.87c1.31,3.22,3.79,5.64,4.82,9.05,1.34,4.45-2.22,8.33-1,12.55a2.18,2.18,0,0,0,2.67,1.52c10.08-3.79,5.15-23.55-4.74-24.92-1-.13-2.25.65-1.79,1.8Z" transform="translate(-309.1 -99.97)"/><path class="cls-11" d="M362.21,399.67a1.4,1.4,0,0,0,.73,2.7,1.4,1.4,0,0,0-.73-2.7Z" transform="translate(-309.1 -99.97)"/><path class="cls-11" d="M376.88,395.44a1.62,1.62,0,0,0,.85,3.13,1.62,1.62,0,0,0-.85-3.13Z" transform="translate(-309.1 -99.97)"/><path class="cls-11" d="M387.73,394.5c-.12,0-.08.23,0,.18s.06-.23,0-.18Z" transform="translate(-309.1 -99.97)"/><path class="cls-11" d="M389.35,395.62l.12-.09c1.5-1.31-.79-3.62-2.22-2.19l-.12.11c-1.41,1.42.73,3.48,2.22,2.17Z" transform="translate(-309.1 -99.97)"/><path class="cls-11" d="M401.89,392.77l.2,0c2-.08,1.16-3.21-.61-2.26a.76.76,0,0,0-.18.09,1.18,1.18,0,0,0,.59,2.19Z" transform="translate(-309.1 -99.97)"/><path class="cls-11" d="M412.92,386.56c-2.44.67-1.41,4.43,1,3.76s1.4-4.41-1-3.76Z" transform="translate(-309.1 -99.97)"/><path class="cls-11" d="M369.65,382.74l.3-.36a1.51,1.51,0,0,0-.66-2.46l-.45-.16c-1.31-.51-2.53,1-2.2,2.2a1.8,1.8,0,0,0,3,.78Z" transform="translate(-309.1 -99.97)"/><path class="cls-11" d="M374.06,378.84a1.47,1.47,0,0,0,.78,2.84,1.47,1.47,0,0,0-.78-2.84Z" transform="translate(-309.1 -99.97)"/><path class="cls-11" d="M380.38,377a1.61,1.61,0,0,0,.85,3.11,1.61,1.61,0,0,0-.85-3.11Z" transform="translate(-309.1 -99.97)"/><path class="cls-11" d="M387.14,375.11a1.63,1.63,0,0,0,.86,3.15,1.63,1.63,0,0,0-.86-3.15Z" transform="translate(-309.1 -99.97)"/><path class="cls-11" d="M395.74,375.65l.09-.13c1-1.29-.65-3-2-2.59s-1.91,2.64-.41,3.26l.13.06a1.7,1.7,0,0,0,2.21-.6Z" transform="translate(-309.1 -99.97)"/><path class="cls-11" d="M399.5,371.85a1.54,1.54,0,0,0,.81,3,1.54,1.54,0,0,0-.81-3Z" transform="translate(-309.1 -99.97)"/><path class="cls-11" d="M404.87,371.12a1.24,1.24,0,0,0,.64,2.39,1.24,1.24,0,0,0-.64-2.39Z" transform="translate(-309.1 -99.97)"/><path class="cls-11" d="M372.4,413.56a1,1,0,0,0,.53,1.91,1,1,0,0,0-.53-1.91Z" transform="translate(-309.1 -99.97)"/><path class="cls-11" d="M379.32,413.8l.2,0c1.92-.26,1-3.64-.8-2.89l-.19.07a1.48,1.48,0,0,0,.79,2.85Z" transform="translate(-309.1 -99.97)"/><path class="cls-11" d="M385.67,408.93a1.56,1.56,0,0,0,.82,3,1.56,1.56,0,0,0-.82-3Z" transform="translate(-309.1 -99.97)"/><path class="cls-11" d="M392,407.22a1.53,1.53,0,0,0,.81,2.95,1.53,1.53,0,0,0-.81-2.95Z" transform="translate(-309.1 -99.97)"/><path class="cls-11" d="M400.11,407.71a.57.57,0,0,1,.08-.13,1.37,1.37,0,0,0-.51-1.85s-.08-.05-.12-.06a1.5,1.5,0,1,0,.55,2Z" transform="translate(-309.1 -99.97)"/><path class="cls-11" d="M404.78,403.76a1.52,1.52,0,0,0,.8,2.93,1.52,1.52,0,0,0-.8-2.93Z" transform="translate(-309.1 -99.97)"/><path class="cls-11" d="M412.18,404.79l.17-.13a1,1,0,0,0-.5-1.78,1.25,1.25,0,0,0-.19,0c-1.78-.22-.9,3,.52,1.94Z" transform="translate(-309.1 -99.97)"/><path class="cls-11" d="M515.7,315.27l.11.1a1.3,1.3,0,0,0,1.83,0,.47.47,0,0,1,.1-.1,1.45,1.45,0,1,0-2,0Z" transform="translate(-309.1 -99.97)"/><path class="cls-11" d="M365,372l.11.12a1.31,1.31,0,0,0,1.82,0L367,372a1.44,1.44,0,1,0-2.05,0Z" transform="translate(-309.1 -99.97)"/><path class="cls-11" d="M435.9,320.68l.12.1a1.31,1.31,0,0,0,1.82,0,.58.58,0,0,0,.12-.1,1.45,1.45,0,1,0-2.06,0Z" transform="translate(-309.1 -99.97)"/><path class="cls-11" d="M466.38,326.52l.11.1a1.31,1.31,0,0,0,1.82,0l.12-.1a1.44,1.44,0,1,0-2.05,0Z" transform="translate(-309.1 -99.97)"/><path class="cls-11" d="M536.84,323.65l.12-.1a1,1,0,0,0,0-1.47.54.54,0,0,0-.12-.09,1.18,1.18,0,1,0,0,1.66Z" transform="translate(-309.1 -99.97)"/><path class="cls-11" d="M392.62,365a.42.42,0,0,0,.12-.08,1,1,0,0,0,0-1.48l-.12-.1a1.18,1.18,0,1,0,0,1.66Z" transform="translate(-309.1 -99.97)"/><path class="cls-11" d="M525.36,344.51l.12-.1a1.06,1.06,0,0,0,0-1.49s-.07-.06-.12-.09a1.18,1.18,0,1,0,0,1.68Z" transform="translate(-309.1 -99.97)"/><path class="cls-11" d="M461.5,313.2l.11-.1a1,1,0,0,0,0-1.48s-.07-.07-.11-.1a1.19,1.19,0,1,0,0,1.68Z" transform="translate(-309.1 -99.97)"/><path class="cls-11" d="M423.45,289.51l.13-.1a1.08,1.08,0,0,0,0-1.49l-.13-.09a1.18,1.18,0,1,0,0,1.68Z" transform="translate(-309.1 -99.97)"/><path class="cls-11" d="M418.08,304.85l.12-.1a1,1,0,0,0,0-1.47.31.31,0,0,0-.12-.09,1.18,1.18,0,1,0,0,1.66Z" transform="translate(-309.1 -99.97)"/><path class="cls-11" d="M547.86,307.23c0,.07,0,.13.07.2a1,1,0,0,0,1.86,0,1.67,1.67,0,0,0,.08-.2c.66-1.66-2.67-1.66-2,0Z" transform="translate(-309.1 -99.97)"/><path class="cls-11" d="M590.2,354.11c0,.06,0,.13.08.19a1,1,0,0,0,1.86,0,1.54,1.54,0,0,1,.08-.19c.65-1.68-2.68-1.68-2,0Z" transform="translate(-309.1 -99.97)"/><path class="cls-11" d="M565.92,304a2.23,2.23,0,0,0,0-2.1,2.09,2.09,0,1,0,0,2.1Z" transform="translate(-309.1 -99.97)"/><path class="cls-11" d="M497.87,345.37a2.22,2.22,0,0,0,0-2.12,2.1,2.1,0,0,0-3.28-.42,2.14,2.14,0,0,0,0,3,2.1,2.1,0,0,0,3.28-.42Z" transform="translate(-309.1 -99.97)"/><path class="cls-11" d="M510.36,333.38a1.62,1.62,0,0,0,0-3.24,1.62,1.62,0,0,0,0,3.24Z" transform="translate(-309.1 -99.97)"/><path class="cls-11" d="M367.64,355.36a1.63,1.63,0,0,0,0-3.26,1.63,1.63,0,0,0,0,3.26Z" transform="translate(-309.1 -99.97)"/><path class="cls-5" d="M489,447.77c12.24,5.82,23.94,3.13,35.82-2.07,8.54-3.74,10.43-16.06,6.13-23.4a17.29,17.29,0,0,0-23.41-6.13c-7.33,4.16-14.36,7.74-20.91,13.19-5.54,4.61-4.11,15.33,2.37,18.41Z" transform="translate(-309.1 -99.97)"/><path class="cls-5" d="M478.69,454.93c6.46-3.75,10.66-10.28,13.79-16.9,4.31-9.13,2.72-18.58-.47-27.67-3.77-10.76-18.81-14-28-9.39-10.59,5.28-13.92,17.58-9.39,28-2.45-5.63-.51-1.09-.27,1a44.72,44.72,0,0,0,3.05,10.26c1.61,4.05,2.94,8.5,6.11,11.66,3.88,3.88,10.07,6,15.21,3Z" transform="translate(-309.1 -99.97)"/><path class="cls-5" d="M472.09,435.49c-3.62-4.86-8.23-7.13-13.44-9.93-6.77-3.64-14.78-7.89-22.58-7.48-7.47.39-14,4.81-16.08,12.24-2.17,7.89,1.62,14.19,7.66,18.82,9.68,7.43,34.39,7.6,42.94-2.07,2.62-2.95,4.14-8,1.5-11.58Z" transform="translate(-309.1 -99.97)"/><path class="cls-6" d="M463.58,607q3.39-4.55,6.5-9.26c.62-.1,1.15.39,1.57.85,2.57,2.82,4.64,5,6.36,8.43.34.68.74,1.46.39,2.15a48.55,48.55,0,0,1-5.93,5.79,3.39,3.39,0,0,1-1.85.83,3.3,3.3,0,0,1-2.23-1.29c-1-1-1.93-2-2.86-3.07S462.62,608.23,463.58,607Z" transform="translate(-309.1 -99.97)"/><path class="cls-7" d="M448,467.81a97.06,97.06,0,0,0,0-13.21c-.59-6.52-.06-9.28-.26-15.1-.05-1,2.07-9.34,11.21-12.05,12.18-3.59,20.55-3.52,29.48,1a13.83,13.83,0,0,1,5.4,4.36c.81,1.27.91,6.1.8,7.6a58.29,58.29,0,0,0,2.52,21.23,4.34,4.34,0,0,0,1.5,2.48,4.71,4.71,0,0,0,3.07.37,37.05,37.05,0,0,1,12.84,1.19,7.35,7.35,0,0,1,3.66,1.88c1.39,1.54,1.4,3.86,1.32,5.95-.37,9,1.49,12.67-2,26.85a10.79,10.79,0,0,1,5.17-.11c1.67.52,3.12,2.17,2.8,3.86a5.63,5.63,0,0,1-1.76,2.68,66.13,66.13,0,0,0-7,8.54,13.53,13.53,0,0,0-2.36,4.91,14.66,14.66,0,0,0,.07,4.53q.82,7.07,1.66,14.09c.24,2.1-1.23,3-3.25,3.6a127.39,127.39,0,0,1-41.21,5.19,18.44,18.44,0,0,1-5.49-.82c-4.51-1.58-7.29-6.1-8.89-10.6a79.89,79.89,0,0,1-2.74-10.48q-2.1-9.78-4.2-19.58c-1.8-8.43-3.62-16.94-3.44-25.55C447,476.37,447.81,472.11,448,467.81Z" transform="translate(-309.1 -99.97)"/><path class="cls-6" d="M491.16,482.69a1,1,0,0,0-1,1,7.63,7.63,0,0,0,1.53,3.92q3.15,4.89,6.3,9.76a5.66,5.66,0,0,0,1.64,1.89,8.15,8.15,0,0,0,4,1.31c5.23-.2,8.7.05,13.93-.15a6.94,6.94,0,0,0,3.1-.62,6.44,6.44,0,0,0,1.88-1.87c2.52-3.25,10.79-11.48,11.3-13.76C534.19,482.42,504.18,482.81,491.16,482.69Z" transform="translate(-309.1 -99.97)"/><path class="cls-6" d="M475.38,480.92c-1.09,2.3-.95,5-1.72,7.4s-2.94,4.53-5.19,4a.61.61,0,0,1-.43-.54,142.77,142.77,0,0,1-.5-15.62,13.64,13.64,0,0,1,.95-5.53c.72-1.52,4.16-5,7.48-8.53,6.27-6.67,9.31-7.64,16.29-13.6l13-11.07a14.11,14.11,0,0,1,4.14-2.75,4.8,4.8,0,0,1,4.75.57c1.21,1.06,1.55,2.77,1.75,4.37,1,8.22,2.79,22.61,3.71,30.37.22,1.83-.73,0-4.88-.21-9.77-.49-18.76,2.16-28.26,4.52C482.13,475.41,477.28,476.91,475.38,480.92Z" transform="translate(-309.1 -99.97)"/><path class="cls-2" d="M461.79,519.77c5-3.13,10-5.46,15.83-5.72,7.7-.36,15.57,3.38,15.7,4a1.68,1.68,0,0,1-.46,1.29,10.45,10.45,0,0,1-4,2.85,28.39,28.39,0,0,1-24.87-.5A5,5,0,0,1,461.79,519.77Z" transform="translate(-309.1 -99.97)"/><path class="cls-5" d="M462,531.28a36.29,36.29,0,0,0,28,.64,16.83,16.83,0,0,0,6.31-4.37,4,4,0,0,0,1.18-2.36,1.85,1.85,0,0,0-1.62-2,3,3,0,0,0-1.56.7,32.51,32.51,0,0,1-29.88,3.47,1.81,1.81,0,0,0-2.26.82l-.77,1.43A1.25,1.25,0,0,0,462,531.28Z" transform="translate(-309.1 -99.97)"/><path class="cls-5" d="M481.67,521.08a3.49,3.49,0,0,0,0-3.67,3.42,3.42,0,0,0-2.23-1.42,5.62,5.62,0,0,0-4.4.69,3.39,3.39,0,0,0-1.22,3.66c.39,1,.88,2.76,4.35,2.68A4.63,4.63,0,0,0,481.67,521.08Z" transform="translate(-309.1 -99.97)"/><path class="cls-4" d="M457.54,515.35c-.46-4.32-.9-8.62-1.35-12.94-1.73-16.5-3.47-33-5.63-49.46-.1-.76-.31-1.66-1-1.87a2,2,0,0,0-1.46.34c-12.34,6.47-24.7,13-36.32,20.66-2.48,1.63-5.11,3.59-5.84,6.49s.56,5.59,1.78,8.15c6.94,14.4,14.62,28.52,19.83,43.64,1.42,4.14,2.67,8.38,4.8,12.19a9.43,9.43,0,0,0,2.42,3,10.62,10.62,0,0,0,3.69,1.49,110.91,110.91,0,0,0,24.12,3.28c.34-2.71-.39-5.42-1-8.06C459.44,533.45,458.49,524.39,457.54,515.35Z" transform="translate(-309.1 -99.97)"/><path class="cls-4" d="M443.92,569.64c-1.61-2.48-1.68-5.71-3.25-8.22-1.37-2.2-3.42-4.24-3.47-6.85,1.56-1.17,3.66-1.22,5.61-1.22l65.61-.07a2.31,2.31,0,0,1,.83.1c1.22.47.84,2.27.24,3.42-3.37,6.51-19.54,28.37-24,32.79q-3.84,3.79-7.68,7.55c-2.35,2.3-5.37,4.81-8.55,3.93C468.3,600.81,461.64,596.9,443.92,569.64Z" transform="translate(-309.1 -99.97)"/><g class="cls-12"><path class="cls-5" d="M526.42,500c1.81-2.75,2.32-6.41,3.29-9.52,1.68-5.4,4.15-11.15,5-16.7.1-.58-.66-1.27-1.14-.67-5.7,7.36-4.64,18.25-8.08,26.52-.22.52.6.81.88.37Z" transform="translate(-309.1 -99.97)"/><path class="cls-5" d="M521.25,507.74c2.88-4.55,3.45-9.82,4.38-15,1.24-6.95,3.69-13.57,5.15-20.43a.65.65,0,0,0-1.18-.51c-6.93,9.59-6.15,24.62-8.83,35.77a.26.26,0,0,0,.48.2Z" transform="translate(-309.1 -99.97)"/><path class="cls-5" d="M518.12,507.2c1.28-9.94,3.18-19.68,3.71-29.71a.39.39,0,0,0-.67-.27c-2.58,3.22-2.56,7.84-2.91,11.8-.53,6-1.63,12.23-1,18.18a.42.42,0,0,0,.84,0Z" transform="translate(-309.1 -99.97)"/><path class="cls-5" d="M513.66,506.71c1.7-5.3,1.32-10.51,1.47-16,.14-5.26,1.18-10.45,1.34-15.67a.64.64,0,0,0-1.19-.32c-5.27,9.41-1.3,21.65-2.67,31.75a.54.54,0,0,0,1,.27Z" transform="translate(-309.1 -99.97)"/><path class="cls-5" d="M508.39,509.6a76.68,76.68,0,0,0,1-16.58c-.18-6.56.8-13.73-1.27-20a.6.6,0,0,0-1.15,0c-3.67,11.72,1.82,24.59.54,36.5-.06.51.79.62.9.12Z" transform="translate(-309.1 -99.97)"/><path class="cls-5" d="M502.38,506.37a79,79,0,0,0-1.78-28.6.57.57,0,0,0-1.09,0c-2,9.13,1.62,19.37,1.94,28.6a.47.47,0,0,0,.93,0Z" transform="translate(-309.1 -99.97)"/><path class="cls-5" d="M495.79,501.17c1-7.44,1.76-15.92-.63-23.19-.13-.37-.76-.57-1-.11-1.37,3.14-.89,6.44-.53,9.81.5,4.49.48,9,1.09,13.49a.52.52,0,0,0,1,0Z" transform="translate(-309.1 -99.97)"/></g><g class="cls-13"><path class="cls-5" d="M516,475.63c.57-9.58-.82-19.69-1.84-29.25-.65-6,0-13.17-3.06-18.57a.54.54,0,0,0-1,.41c3.17,15.36,3.18,31.86,5.12,47.41a.39.39,0,0,0,.77,0Z" transform="translate(-309.1 -99.97)"/><path class="cls-5" d="M510.3,473.35c1.36-13.12.1-30.13-4.22-42.69-.13-.37-.76-.45-.84,0-1.12,5.69-.22,11.21.57,16.9,1.19,8.62,2.34,17.28,3.53,25.92.09.57.9.36,1-.13Z" transform="translate(-309.1 -99.97)"/><path class="cls-5" d="M503.17,474c.19-13.57-1.81-26.77-4.34-40.05a.68.68,0,0,0-1.29,0c-1.26,6.49.76,12.8,1.61,19.25.89,6.88,2.59,13.92,3.17,20.8a.43.43,0,0,0,.85,0Z" transform="translate(-309.1 -99.97)"/><path class="cls-5" d="M497.54,476.25c.38-12.24-1-26.82-4.66-38.51-.37-1.22-2.46-1.08-2.32.31,1.32,12.83,4.61,25.4,5.77,38.2a.61.61,0,0,0,1.21,0Z" transform="translate(-309.1 -99.97)"/><path class="cls-5" d="M491.4,477.3a75.88,75.88,0,0,0-5-30.18.27.27,0,0,0-.52.06c.35,10.14,3.64,20,4.56,30.12a.49.49,0,0,0,1,0Z" transform="translate(-309.1 -99.97)"/><path class="cls-5" d="M485.36,479.16C486.43,468,482.6,456,480.58,445c-.24-1.29-2.18-.93-2.21.31-.25,11.63,5.93,22.31,6.47,33.84a.26.26,0,0,0,.52,0Z" transform="translate(-309.1 -99.97)"/><path class="cls-5" d="M481,484.57a112.37,112.37,0,0,0-4.92-34.63.58.58,0,0,0-1.1,0c-1.22,4.56-.28,9.21.62,13.76,1.41,7,3.21,14,4.85,20.93a.28.28,0,0,0,.55-.06Z" transform="translate(-309.1 -99.97)"/><path class="cls-5" d="M476.93,487.78c-1.27-4.69-1.23-10.11-2.2-14.95-1.07-5.43-2.11-11.27-4.56-16.26-.35-.71-1.34-.31-1.39.38-.49,6.32,2.12,12.91,3.53,19,.84,3.69,1.37,9.26,4,12.15a.36.36,0,0,0,.6-.36Z" transform="translate(-309.1 -99.97)"/><path class="cls-5" d="M471.67,496c1.09-13-3.37-24.85-4.73-37.58,0-.33-.56-.47-.63-.1-2.15,12.33,2.77,25.54,4.4,37.68a.48.48,0,0,0,1,0Z" transform="translate(-309.1 -99.97)"/></g><g class="cls-14"><path class="cls-5" d="M457.39,550.18c1.67-17.48-1.83-36.23-4.83-53.41-1.58-9.1-2.56-18.28-3.86-27.41-1-7.32-1.23-15.72-4.83-22.34-.87-1.58-3.21-.48-2.83,1.19,3.48,15.31,5,30.88,7.63,46.36,1.76,10.19,3.89,20.3,5.1,30.58,1,8.48.79,16.86,3.39,25.07a.12.12,0,0,0,.23,0Z" transform="translate(-309.1 -99.97)"/><path class="cls-5" d="M453,545.16c-2.69-15.28-3.8-30.85-6.61-46.14-1.46-8-2.4-16-4-24-1.72-8.64-4.32-16.81-4.72-25.69-1,.57-2,1.15-3,1.74.19.12.4.23.58.33A1.32,1.32,0,0,0,437,451l.46-.62c2-2.64-4-4.58-3.79-1a107.48,107.48,0,0,0,3.66,21c2.23,8.82,3.39,17.77,5.14,26.67,1.82,9.18,4.11,18.21,5.76,27.43,1.28,7.2,1.42,14.2,4.59,20.87.07.13.26,0,.23-.1Z" transform="translate(-309.1 -99.97)"/><path class="cls-5" d="M448.4,548.93c-.17-6.8-2.48-13.29-3.47-20q-1.79-12.07-4.17-24c-1.63-8.23-3.83-16.32-5.88-24.46-2.11-8.4-2.47-17.22-5.25-25.42a1.91,1.91,0,0,0-3.68,1c3.37,15.75,6.92,31.18,10.92,46.78s5.34,31.26,11.42,46.16c0,.07.12.07.11,0Z" transform="translate(-309.1 -99.97)"/><path class="cls-5" d="M442.69,546.24c-1-15.75-6.26-31.46-10.14-46.72-2.33-9.15-5.39-18.1-7.82-27.23-1.81-6.83-2-14.66-7-20-1.07-1.14-3.39,0-2.75,1.6,6.05,14.85,9.19,31.29,13.86,46.7,2.56,8.43,4.73,17,7.25,25.47,2,6.63,2.8,14.25,6.29,20.3.09.13.31.08.3-.08Z" transform="translate(-309.1 -99.97)"/><path class="cls-5" d="M436.87,543.32c.33-5.76-1.19-11-3-16.39-2.93-8.88-5.67-17.79-9.25-26.43-2.93-7.08-6.34-14-9.41-21s-5.1-15.85-10.26-21.9c-.62-.74-1.62.06-1.48.86,2.68,14,10.57,27.88,16.87,40.54a203.26,203.26,0,0,1,9.17,22.73c2.48,7,6,14.2,6.64,21.62a.36.36,0,0,0,.72,0Z" transform="translate(-309.1 -99.97)"/><path class="cls-5" d="M431.26,543.38c6.14-4.55-6.47-26.72-8.69-31.29-4.85-10-9.66-19.92-14.32-30-2.56-5.55-6-14.35-11.16-17.92a1.71,1.71,0,0,0-2.33,2.33c7.8,11.5,12.73,24.72,19.21,37,4.1,7.71,8.38,15.24,11.75,23.33,1.85,4.47,6.28,11.37,5.1,16.24-.05.23.22.51.44.34Z" transform="translate(-309.1 -99.97)"/></g><path class="cls-6" d="M411.29,559.2a188.78,188.78,0,0,1,15.62-24.69,5.39,5.39,0,0,1,1.95-1.82,5.27,5.27,0,0,1,2.62-.2c28.33,2.58,57.18,7.11,84.95.91a156.08,156.08,0,0,0,16.33,23.94,5,5,0,0,1,1.49,3c0,2.24-2.76,3.27-5,3.62-29.66,4.88-59.95,3.36-90,1.81-9.45-.48-19-1-28.18-3.11C410.21,561.81,410.71,560.29,411.29,559.2Z" transform="translate(-309.1 -99.97)"/><path class="cls-11" d="M534.07,559.46c-1.57-2.07-16.31-10-17.82-10.53-3.32-1.24-3.73,2-4.57,3.32a73.64,73.64,0,0,1-8.85,11.55.63.63,0,0,1-.73.11,29.09,29.09,0,0,1-7.06-6c-1.2-1.77-3.47-3.69-5-5.22a2.67,2.67,0,0,0-1.95-1.08,2.79,2.79,0,0,0-1.7,1.19c-2.82,3.34-8.41,12-11.52,11.71-2.48-.2-2.9-4.35-8.51-12.25-1.11-1.56-2.07-.21-6.23,3.33s-6.32,5.25-10.51,8.33a1,1,0,0,1-1.1.07c-4.24-2.58-5.54-8.29-8.74-12.18a3.12,3.12,0,0,0-1.89-1.29,3.54,3.54,0,0,0-2.45,1.06l-10.19,8a.77.77,0,0,1-1.16-.24c-2.53-4.94-5-14-5.68-13.05-3.31,5-5.77,7.54-8.32,13-1.45,3.12.45,4.6.88,4.68,15.31,2.6,53.94,6.74,84.88,7,13.69.1,37.76-4,39-5.71S535.34,561.14,534.07,559.46Z" transform="translate(-309.1 -99.97)"/><path class="cls-11" d="M473.68,494a7.56,7.56,0,1,0,7.55,7.55,7.63,7.63,0,0,0-7.55-7.55Z" transform="translate(-309.1 -99.97)"/><path class="cls-5" d="M519.23,499.67a74.93,74.93,0,0,0-11-.12c-2.45.17-4.94.43-6.54,2.48a4.89,4.89,0,0,0-.57,5.16c1.05,1.77,3.71,2.88,5.3,1.17a.88.88,0,0,0,0-1.22c-.9-.88-3.46-.79-3.55-2.2-.13-2,1.94-2.78,3.47-3.07,4.28-.83,8.73-.47,13-1.29.54-.11.36-.86-.12-.91Z" transform="translate(-309.1 -99.97)"/><path class="cls-6" d="M490.92,575.51a9.38,9.38,0,0,0-3.17.37c-.73.25-2.54.88-2.2,2s1.51.41,2.13,0a19.78,19.78,0,0,1,3.34-1.55.42.42,0,0,0-.1-.83Z" transform="translate(-309.1 -99.97)"/><path class="cls-6" d="M485.34,583.14a7.24,7.24,0,0,0-1.15-1.78,2.06,2.06,0,0,0-1.79-.93.48.48,0,0,0-.46.6,2.31,2.31,0,0,0,1,1.59,14.47,14.47,0,0,0,1.68,1.23c.46.31.93-.27.71-.71Z" transform="translate(-309.1 -99.97)"/><path class="cls-6" d="M479.74,589.58a5.23,5.23,0,0,0-3-2.46.46.46,0,0,0-.57.57,4.23,4.23,0,0,0,3,2.65.52.52,0,0,0,.59-.76Z" transform="translate(-309.1 -99.97)"/><path class="cls-6" d="M474.47,581.12c-.62-.15-1.19-.66-1.82-.62-.22,0-.46.17-.43.4.09.92,1.14,1.26,1.91,1.45a.64.64,0,0,0,.34-1.23Z" transform="translate(-309.1 -99.97)"/><path class="cls-6" d="M479.12,575.69a9.13,9.13,0,0,0-1.73-1.44,9,9,0,0,0-2-1.13,1,1,0,0,0-1.08,1.39c.66,1.47,2.79,1.58,4,2.17a.64.64,0,0,0,.78-1Z" transform="translate(-309.1 -99.97)"/><path class="cls-6" d="M471.78,590.46c-1.08.49-2.38.11-3.2,1.12a.48.48,0,0,0,.2.79,3.67,3.67,0,0,0,3.57-1.15.48.48,0,0,0-.57-.76Z" transform="translate(-309.1 -99.97)"/><path class="cls-6" d="M474.7,594.86c-.92.7-3.14.82-3.24,2.25a.57.57,0,0,0,.28.49c1.26.83,3-1.17,3.57-2.14.2-.35-.23-.89-.61-.6Z" transform="translate(-309.1 -99.97)"/><path class="cls-6" d="M463.93,591.86a10.05,10.05,0,0,0-.81-1.91,3.94,3.94,0,0,0-.64-.81c-.2-.23-.49-.18-.75-.26s-.48.19-.45.44-.08.44.07.68a10.13,10.13,0,0,0,.61.85,4.28,4.28,0,0,0,1.64,1.25.22.22,0,0,0,.33-.24Z" transform="translate(-309.1 -99.97)"/><path class="cls-6" d="M466.63,584.6a17.67,17.67,0,0,0-2-2.54.75.75,0,0,0-.7-.2c-.2.07-.35.13-.43.35a.73.73,0,0,0,.11.86c.71.77,1.55,1.39,2.27,2.14a.5.5,0,0,0,.78-.61Z" transform="translate(-309.1 -99.97)"/><path class="cls-6" d="M466.45,575.26c-.57-.55-1.11-1.07-1.73-1.58s-1.17-1-2-.78a.55.55,0,0,0-.42.53c0,.84.64,1.28,1.26,1.73a9.41,9.41,0,0,0,2.24,1.18c.62.23,1.07-.64.63-1.08Z" transform="translate(-309.1 -99.97)"/><path class="cls-6" d="M457.74,584.1a12.43,12.43,0,0,1,.7-2.56,2.16,2.16,0,0,0-.16-2,.54.54,0,0,0-.66-.1c-1.3.8-.54,3.41-.4,4.63,0,.26.48.38.52.07Z" transform="translate(-309.1 -99.97)"/><path class="cls-6" d="M453.82,575.91c.2-1.06.75-2.9-.31-3.62a.38.38,0,0,0-.36,0c-.91.7-.57,2.2-.72,3.25-.15.89,1.21,1.3,1.39.37Z" transform="translate(-309.1 -99.97)"/><path class="cls-5" d="M512.79,541.82a4,4,0,0,0-1.13.47,2.69,2.69,0,0,0,0,4.57,3.48,3.48,0,0,0,1.13.45,2.85,2.85,0,1,0,0-5.49Z" transform="translate(-309.1 -99.97)"/><path class="cls-5" d="M489.32,543.4a2.83,2.83,0,1,0,2.83,2.84,2.86,2.86,0,0,0-2.83-2.84Z" transform="translate(-309.1 -99.97)"/><path class="cls-5" d="M466.71,544.66s-.08,0-.11-.07a2.44,2.44,0,1,0,.87,3.34s0,0,.07-.08a2.32,2.32,0,0,0-.83-3.19Z" transform="translate(-309.1 -99.97)"/><path class="cls-5" d="M436.69,542l-.14.1a2.43,2.43,0,0,0,0,4.16.64.64,0,0,1,.14.08,2.52,2.52,0,1,0,0-4.34Z" transform="translate(-309.1 -99.97)"/><path class="cls-6" d="M529.36,414a4.72,4.72,0,1,0,4.71,4.72,4.75,4.75,0,0,0-4.71-4.72Z" transform="translate(-309.1 -99.97)"/><path class="cls-6" d="M472.53,393.72a4.26,4.26,0,1,0,4.26,4.25,4.28,4.28,0,0,0-4.26-4.25Z" transform="translate(-309.1 -99.97)"/><path class="cls-6" d="M420.89,422.8a1.11,1.11,0,0,0-.3.05c-2.21.44-3.21,3.83-1.39,5.3l.22.2a3.32,3.32,0,0,0,4.7-4.7,3.46,3.46,0,0,0-3.23-.85Z" transform="translate(-309.1 -99.97)"/><path class="cls-6" d="M474.11,411.34a2.67,2.67,0,0,0,1.42-2.38c.06-1.58-2-3-3.42-2a.53.53,0,0,1-.11.09c.4-.1.8-.22,1.19-.33a.34.34,0,0,1-.14,0c.41.09.81.21,1.21.32l-.15-.06a2.58,2.58,0,0,0-2.51,0,2.48,2.48,0,0,0-1.24,2.15,2.52,2.52,0,0,0,3.75,2.15Z" transform="translate(-309.1 -99.97)"/><path class="cls-6" d="M472.85,415.74a1.33,1.33,0,0,0,0,2.66,1.33,1.33,0,0,0,0-2.66Z" transform="translate(-309.1 -99.97)"/><path class="cls-6" d="M519.75,424.39l-.12.09c.29-.18.58-.34.87-.5a.49.49,0,0,0-.17.06,2,2,0,0,0-1.31,1.31,1.88,1.88,0,0,0,.86,2.12,3.32,3.32,0,0,0,.76.29,2,2,0,1,0-.89-3.37Z" transform="translate(-309.1 -99.97)"/><path class="cls-6" d="M514.79,429.29a1.07,1.07,0,0,0,0,2.14,1.07,1.07,0,0,0,0-2.14Z" transform="translate(-309.1 -99.97)"/><path class="cls-6" d="M428.83,428.19c-2.83,0-2.83,4.36,0,4.36s2.82-4.36,0-4.36Z" transform="translate(-309.1 -99.97)"/><path class="cls-6" d="M434.64,432.08a1.61,1.61,0,0,0,0,3.21,1.61,1.61,0,0,0,0-3.21Z" transform="translate(-309.1 -99.97)"/><path class="cls-11" d="M517.37,538.56a8.38,8.38,0,0,1-.9-2.51,1,1,0,0,0-2,.53,6.59,6.59,0,0,0,1.58,3c.65.65,1.81-.21,1.29-1Z" transform="translate(-309.1 -99.97)"/><path class="cls-11" d="M512.69,540a16.41,16.41,0,0,0-1.22-3.06.79.79,0,0,0-.9-.38,1.12,1.12,0,0,0-.34.21.8.8,0,0,0-.12,1,26.8,26.8,0,0,0,1.44,2.76c.37.57,1.38.2,1.14-.49Z" transform="translate(-309.1 -99.97)"/><path class="cls-11" d="M507.35,541.72c.75-1.37.06-3.7-.89-4.83a1.26,1.26,0,0,0-2.14.88,8.5,8.5,0,0,0,.88,2.63,2.73,2.73,0,0,0,1.57,1.57.52.52,0,0,0,.58-.25Z" transform="translate(-309.1 -99.97)"/><path class="cls-11" d="M502.4,541.46a9,9,0,0,0-.64-3.91A1,1,0,0,0,500,538a8.35,8.35,0,0,0,1.13,3.78c.28.62,1.28.31,1.27-.34Z" transform="translate(-309.1 -99.97)"/><path class="cls-11" d="M497.22,542.08a7.62,7.62,0,0,0-.64-4,1.18,1.18,0,0,0-2.18.58,10,10,0,0,0,1,3.67.91.91,0,0,0,1.78-.24Z" transform="translate(-309.1 -99.97)"/><path class="cls-11" d="M491.93,541.67c0-1.17.28-2.28-.25-3.37a1,1,0,0,0-1.91.52,11.11,11.11,0,0,0,.58,3.06.81.81,0,0,0,1.58-.21Z" transform="translate(-309.1 -99.97)"/><path class="cls-11" d="M486.27,542.62a4.19,4.19,0,0,0,.19-3.72c-.49-1.34-2.75-1.24-2.64.36a4.91,4.91,0,0,0,1.45,3.49.64.64,0,0,0,1-.13Z" transform="translate(-309.1 -99.97)"/><path class="cls-11" d="M480.78,541.85a7.32,7.32,0,0,0,.06-3,.9.9,0,0,0-.88-.66.77.77,0,0,0-.45.11.9.9,0,0,0-.46.8c.06.86.34,1.71.38,2.59s1.2,1,1.35.18Z" transform="translate(-309.1 -99.97)"/><path class="cls-11" d="M476.93,541.87c0-.82,0-1.62,0-2.43s-.56-2.11-1.6-1.73c-1.82.64-.86,3.47-.18,4.65a1,1,0,0,0,1.8-.49Z" transform="translate(-309.1 -99.97)"/><path class="cls-11" d="M470.41,542.06c.34-1.22.89-3.06-.18-4.06a.89.89,0,0,0-1.4.18c-.55,1.13-.08,2.71.22,3.88a.71.71,0,0,0,1.36,0Z" transform="translate(-309.1 -99.97)"/><path class="cls-11" d="M465.24,542.27c.68-1.36.95-3.4-.05-4.67-.45-.58-1.22-.15-1.44.37-.45,1.11.18,2.51,0,3.69-.11.83,1,1.51,1.47.61Z" transform="translate(-309.1 -99.97)"/><path class="cls-11" d="M460.61,541.46c.08-1.13.91-4.63-1.05-4.63-.82,0-.75,1.17-.74,1.69,0,1,.06,2,.11,2.94a.84.84,0,0,0,1.68,0Z" transform="translate(-309.1 -99.97)"/><path class="cls-11" d="M456.07,541.28c.51-1.27,1.55-3.65.22-4.74a1.26,1.26,0,0,0-1.72,0,2.77,2.77,0,0,0-.66,2.36,6,6,0,0,0,.51,2.59c.34.82,1.41.41,1.65-.21Z" transform="translate(-309.1 -99.97)"/><path class="cls-11" d="M450.32,540.63c.89-1.24,1.6-4,0-5a1.15,1.15,0,0,0-1.11,0c-1.46,1-.72,3.38-.46,4.81.14.8,1.16.74,1.54.2Z" transform="translate(-309.1 -99.97)"/><path class="cls-11" d="M445.28,540.19a20,20,0,0,0,.7-3.61c.1-1.5-2.31-1.51-2.34,0a15.05,15.05,0,0,0,.29,3.61.7.7,0,0,0,1.35,0Z" transform="translate(-309.1 -99.97)"/><path class="cls-11" d="M440.07,539.78c1.45-.75,1.84-3.28,1.22-4.63-.46-1-1.83-.57-2.15.28a8.39,8.39,0,0,0-.21,2.46,2.45,2.45,0,0,0,.58,1.81.43.43,0,0,0,.56.08Z" transform="translate(-309.1 -99.97)"/><path class="cls-11" d="M436.28,538.51c.41-1,1-2.54.63-3.65a.92.92,0,0,0-1.67-.23c-.72,1-.2,2.56-.18,3.72a.62.62,0,0,0,1.22.16Z" transform="translate(-309.1 -99.97)"/><path class="cls-11" d="M431.44,538.57c.82-1.45,2-3.08,1.23-4.77a1.37,1.37,0,0,0-2.14-.28c-1,1.22-1,3.36-.67,4.84a.87.87,0,0,0,1.58.21Z" transform="translate(-309.1 -99.97)"/><path class="cls-11" d="M448,404.62l-.11-.09a1.3,1.3,0,0,0-1.81,0l-.12.09a1.45,1.45,0,1,0,2,0Z" transform="translate(-309.1 -99.97)"/><path class="cls-11" d="M486.3,389.69l-.11-.1a1.32,1.32,0,0,0-1.83,0l-.11.1a1.45,1.45,0,1,0,2.05,0Z" transform="translate(-309.1 -99.97)"/><path class="cls-11" d="M426.81,396.24l-.12.1a1,1,0,0,0,0,1.48l.12.1a1.18,1.18,0,1,0,0-1.68Z" transform="translate(-309.1 -99.97)"/><path class="cls-11" d="M520.12,396.59l-.12.09a1.06,1.06,0,0,0,0,1.49l.12.09a1.18,1.18,0,1,0,0-1.67Z" transform="translate(-309.1 -99.97)"/><path class="cls-11" d="M559.77,421.83s-.07.06-.12.09a1,1,0,0,0,0,1.47c.05,0,.08.08.12.1a1.18,1.18,0,1,0,0-1.66Z" transform="translate(-309.1 -99.97)"/><path class="cls-11" d="M500,408l-.12.1a1,1,0,0,0,0,1.48l.12.1a1.19,1.19,0,1,0,0-1.68Z" transform="translate(-309.1 -99.97)"/><path class="cls-11" d="M432.34,377.07l-.11.08a1,1,0,0,0,0,1.48l.11.12a1.2,1.2,0,0,0,2-.85,1.19,1.19,0,0,0-2-.83Z" transform="translate(-309.1 -99.97)"/><path class="cls-11" d="M415.79,412.66l-.07-.19a1,1,0,0,0-1.86,0,.73.73,0,0,0-.07.19c-.66,1.67,2.66,1.67,2,0Z" transform="translate(-309.1 -99.97)"/><path class="cls-11" d="M397.28,421.3a2.27,2.27,0,0,0,0,2.12,2.1,2.1,0,0,0,3.28.43,2.14,2.14,0,0,0,0-3,2.11,2.11,0,0,0-3.28.42Z" transform="translate(-309.1 -99.97)"/><path class="cls-11" d="M453.21,387.5a2.25,2.25,0,0,0,0,2.11,2.09,2.09,0,1,0,0-2.11Z" transform="translate(-309.1 -99.97)"/><path class="cls-11" d="M538,404.2a2.23,2.23,0,0,0,0,2.1,2.09,2.09,0,1,0,0-2.1Z" transform="translate(-309.1 -99.97)"/><path class="cls-11" d="M544.21,423.49a1.62,1.62,0,0,0,0,3.24,1.62,1.62,0,0,0,0-3.24Z" transform="translate(-309.1 -99.97)"/><path class="cls-15" d="M404.79,287.32c-2.75,7.24,1.13,16.23,5.83,22.37s11.41,10.44,18.14,14.25a244.64,244.64,0,0,0,98.47,30.8c13.4,1.21,29.2,4.11,42.44,6.46s22,5.74,31.73,15c2.41,2.29,6.26,7.61,7.1,10.84,1.71,6.65-4.07,13.84-8.35,19.21-9.77,12.21-19.62,18.36-32.56,23.36,4.16-7.37,1.66-10-5.42-19.19-9.07-11.72-29.67-16.61-44.26-19.21-32.79-5.79-49.91-8.79-81.39-19.61-9.92-3.41-26.72-8.77-38-14.61-11.93-6.2-22.08-10.29-30.89-20.45C362.82,331,359.25,323,363.47,317c1.42-2,5-8.35,12.1-13.36C387,295.57,387.68,293.58,404.79,287.32Z" transform="translate(-309.1 -99.97)"/><path class="cls-5" d="M464.81,369.24a.91.91,0,0,0,.17.23,14.1,14.1,0,0,0,5.31,5.09,14.69,14.69,0,0,0,10.55,1.17c4-.91,6.83-3.72,8.9-7.06a13.52,13.52,0,0,0,1.15-10.4c-.94-3.36-3.46-7-6.74-8.42-2.24-1-4.81-2.12-7.37-1.74a14.13,14.13,0,0,0-12.22,7.48l2.1-2.9-.1.15a13.44,13.44,0,0,0-3.32,6.1,13.67,13.67,0,0,0,1.57,10.3Z" transform="translate(-309.1 -99.97)"/><path class="cls-5" d="M447.07,361.28a10.19,10.19,0,1,0-14-3.44,10.28,10.28,0,0,0,14,3.44Z" transform="translate(-309.1 -99.97)"/><path class="cls-5" d="M418,342.06c6.68-4,.41-14.4-6.26-10.35s-.41,14.38,6.26,10.35Z" transform="translate(-309.1 -99.97)"/><path class="cls-5" d="M519.77,380.59c10.89-6.6.66-23.48-10.23-16.89s-.65,23.48,10.23,16.89Z" transform="translate(-309.1 -99.97)"/><path class="cls-5" d="M549.92,385.82c6.41-3.88.38-13.82-6-9.94s-.4,13.82,6,9.94Z" transform="translate(-309.1 -99.97)"/><path class="cls-4" d="M479.41,364.19a2.81,2.81,0,0,0,.93-3.82,2.77,2.77,0,0,0-4.75,2.87,2.81,2.81,0,0,0,3.82.95Z" transform="translate(-309.1 -99.97)"/><path class="cls-4" d="M442.86,353.51a1.78,1.78,0,0,0-1.84-3,1.78,1.78,0,0,0,1.84,3Z" transform="translate(-309.1 -99.97)"/><path class="cls-4" d="M516,372.66a1.11,1.11,0,0,0-1.15-1.9,1.11,1.11,0,0,0,1.15,1.9Z" transform="translate(-309.1 -99.97)"/><path class="cls-4" d="M426.82,345.86c2.33-1.42.14-5-2.18-3.62s-.14,5,2.18,3.62Z" transform="translate(-309.1 -99.97)"/><path class="cls-4" d="M459.82,357.68a2.38,2.38,0,1,0-3.27-.8,2.41,2.41,0,0,0,3.27.8Z" transform="translate(-309.1 -99.97)"/><path class="cls-4" d="M495,370.19a.75.75,0,0,1,.08.18,2.66,2.66,0,1,0,4.11-3.31l-.14-.15a2.64,2.64,0,0,0-3.17-.34,2.69,2.69,0,0,0-.88,3.62Z" transform="translate(-309.1 -99.97)"/><path class="cls-4" d="M532.84,374.83l-.25-.09a2.49,2.49,0,0,0-2.37.06,2.38,2.38,0,1,0,2.47,4.08,2,2,0,0,1,.25-.13c1.33-.8,1.55-3.28-.1-3.92Z" transform="translate(-309.1 -99.97)"/><path class="cls-4" d="M415.36,338.59a1.32,1.32,0,0,0-1.37-2.25,1.32,1.32,0,0,0,1.37,2.25Z" transform="translate(-309.1 -99.97)"/><path class="cls-4" d="M548.39,381.65a1.45,1.45,0,0,0-1.51-2.48,1.45,1.45,0,0,0,1.51,2.48Z" transform="translate(-309.1 -99.97)"/><path class="cls-16" d="M353.25,206.07a2.11,2.11,0,0,0,1.12-.32c2.5-1.67,9-8.48,10.83-10.38a1.77,1.77,0,0,0,.66-1.32,2,2,0,0,0-.64-1c-2.8-2.8-5.78-5.44-8.42-8.39-1.14-1.28-2.5-2.74-3.34-2.81H353c-.85.07-2.19,1.53-3.33,2.81-2.65,2.95-5.62,5.59-8.42,8.39a1.94,1.94,0,0,0-.64,1,1.74,1.74,0,0,0,.66,1.32c1.87,1.9,8.33,8.71,10.83,10.38a2.05,2.05,0,0,0,1.11.32Z" transform="translate(-309.1 -99.97)"/><path class="cls-16" d="M606.81,536.11a2.09,2.09,0,0,0,1.12-.32c2.5-1.68,9-8.48,10.82-10.39a1.75,1.75,0,0,0,.67-1.31,1.89,1.89,0,0,0-.64-1c-2.81-2.8-5.77-5.44-8.41-8.41-1.15-1.27-2.5-2.72-3.35-2.79h-.43c-.84.07-2.19,1.52-3.33,2.79-2.65,3-5.61,5.61-8.43,8.41a1.8,1.8,0,0,0-.62,1,1.7,1.7,0,0,0,.66,1.31c1.86,1.91,8.32,8.71,10.82,10.39a2.08,2.08,0,0,0,1.11.32Z" transform="translate(-309.1 -99.97)"/><path class="cls-16" d="M363.16,125v33.35q0,8.73-4,12.18T348.78,174a26.17,26.17,0,0,1-7-1v-4.92a30.29,30.29,0,0,0,6.26.73c2.69,0,4.65-.39,5.91-1.19a5.89,5.89,0,0,0,2.55-3.1,21,21,0,0,0,.65-6.15V125Z" transform="translate(-309.1 -99.97)"/><path class="cls-16" d="M596.77,594.94V561.6q0-8.73,3.93-12.18c2.63-2.29,6.1-3.44,10.45-3.44a26.07,26.07,0,0,1,7,1v4.93a30.21,30.21,0,0,0-6.26-.73c-2.67,0-4.64.39-5.91,1.19a5.88,5.88,0,0,0-2.54,3.09,21.11,21.11,0,0,0-.65,6.17v33.34Z" transform="translate(-309.1 -99.97)"/><path class="cls-16" d="M442.12,593.47h-81.3c-13.83,0-25.07-12-25.07-26.64V230.71h1.56V566.83c0,13.83,10.54,25.08,23.51,25.08h81.3Z" transform="translate(-309.1 -99.97)"/><rect class="cls-16" x="188.49" y="491.94" width="85.16" height="1.57"/><path class="cls-16" d="M624.17,490.88H622.6V153.09c0-13.81-10.54-25.06-23.5-25.06H518.7v-1.56h80.4c13.83,0,25.07,11.95,25.07,26.62Z" transform="translate(-309.1 -99.97)"/><rect class="cls-16" x="70.51" y="26.5" width="85.16" height="1.57"/></g></svg>