<svg xmlns="http://www.w3.org/2000/svg" viewBox="0 0 339.03 515.91"><defs><style>.cls-1{fill:#fff;}.cls-2{fill:#2d2d2d;}.cls-3{fill:#d6002b;}</style></defs><g id="Layer_1" data-name="Layer 1"><path class="cls-1" d="M620.13,617.15H339.79a28.57,28.57,0,0,1-28.57-28.57V131.36a28.56,28.56,0,0,1,28.57-28.57H620.13a28.56,28.56,0,0,1,28.57,28.57V588.58A28.57,28.57,0,0,1,620.13,617.15Z" transform="translate(-310.45 -102.01)"/><path class="cls-2" d="M620.13,617.93H339.79a29.38,29.38,0,0,1-29.34-29.36V131.36A29.37,29.37,0,0,1,339.79,102H620.13a29.38,29.38,0,0,1,29.35,29.35V588.57A29.39,29.39,0,0,1,620.13,617.93ZM339.79,103.57A27.82,27.82,0,0,0,312,131.36V588.57a27.85,27.85,0,0,0,27.8,27.81H620.13a27.84,27.84,0,0,0,27.8-27.81V131.36a27.82,27.82,0,0,0-27.8-27.79Z" transform="translate(-310.45 -102.01)"/><path class="cls-3" d="M478.43,399.52a6.59,6.59,0,0,0,3.63-1.07c8.18-5.44,29.25-27.66,35.37-33.89,1.16-1.17,2.34-2.62,2.16-4.27a6.1,6.1,0,0,0-2.08-3.32c-9.17-9.14-18.87-17.78-27.5-27.44-3.72-4.17-8.14-8.94-10.89-9.12H477.7c-2.75.18-7.16,4.95-10.89,9.12-8.63,9.66-18.33,18.3-27.49,27.44a6.06,6.06,0,0,0-2.09,3.32c-.18,1.65,1,3.1,2.16,4.27,6.12,6.23,27.2,28.45,35.37,33.89a6.61,6.61,0,0,0,3.63,1.07Z" transform="translate(-310.45 -102.01)"/><path class="cls-3" d="M354.25,207.28a2,2,0,0,0,1.1-.32c2.49-1.65,8.89-8.42,10.75-10.29a1.78,1.78,0,0,0,.66-1.31,1.94,1.94,0,0,0-.64-1c-2.78-2.78-5.73-5.4-8.35-8.33-1.13-1.26-2.48-2.72-3.31-2.78H354c-.83.06-2.18,1.52-3.31,2.78-2.62,2.93-5.56,5.55-8.35,8.33a1.86,1.86,0,0,0-.63,1,1.74,1.74,0,0,0,.65,1.31c1.86,1.87,8.27,8.64,10.75,10.29a2,2,0,0,0,1.1.32Z" transform="translate(-310.45 -102.01)"/><path class="cls-3" d="M605.82,534.73a2.09,2.09,0,0,0,1.11-.33c2.48-1.65,8.88-8.41,10.74-10.3a1.74,1.74,0,0,0,.66-1.29,1.83,1.83,0,0,0-.64-1c-2.78-2.78-5.73-5.4-8.35-8.35-1.13-1.26-2.47-2.7-3.31-2.76h-.43c-.83.06-2.18,1.5-3.31,2.76-2.62,2.95-5.57,5.57-8.35,8.35a1.83,1.83,0,0,0-.64,1,1.74,1.74,0,0,0,.66,1.29c1.86,1.89,8.26,8.65,10.75,10.3a2,2,0,0,0,1.1.33Z" transform="translate(-310.45 -102.01)"/><path class="cls-3" d="M373.14,174.44h-6.08l-4.79-13.91H344.6l-4.27,13.91h-5l15.47-47.61h6.75ZM361,156.06l-7.38-22.89-7.36,22.89Z" transform="translate(-310.45 -102.01)"/><path class="cls-3" d="M586.92,545.49H593l4.79,13.92h17.67l4.26-13.92h5l-15.47,47.62h-6.75Zm12.15,18.39,7.38,22.87,7.36-22.87Z" transform="translate(-310.45 -102.01)"/></g></svg>