<svg xmlns="http://www.w3.org/2000/svg" xmlns:xlink="http://www.w3.org/1999/xlink" viewBox="0 0 340.67 518.43"><defs><style>.cls-1{fill:#d6002b;}.cls-2{fill:none;}.cls-3{fill:#fff;}.cls-4{fill:#2d2d2d;}.cls-5{fill:#990028;}.cls-6{fill:#222272;}.cls-7{fill:#f70032;}.cls-8{fill:#ffd6a1;}.cls-9{fill:#0c0a35;}.cls-10{clip-path:url(#clip-path);}.cls-11{clip-path:url(#clip-path-2);}.cls-12{clip-path:url(#clip-path-3);}.cls-13{clip-path:url(#clip-path-4);}.cls-14{clip-path:url(#clip-path-5);}.cls-15{fill:#fcc07e;}.cls-16{clip-path:url(#clip-path-6);}.cls-17{clip-path:url(#clip-path-7);}.cls-18{clip-path:url(#clip-path-8);}.cls-19{clip-path:url(#clip-path-9);}.cls-20{clip-path:url(#clip-path-10);}</style><clipPath id="clip-path" transform="translate(-309.63 -100.75)"><path class="cls-1" d="M533,274.55c-1.31,20-5.88,39.57-22.75,50.36-10.56,6.76-27.27,10.09-39.65,12a81.73,81.73,0,0,1-13,1.3c-6.35,0-12.61-1.47-18.79-2.91a5.5,5.5,0,0,1-2.5-1c-1.4-1.24-1.17-3.46-.78-5.29a89.06,89.06,0,0,1,2.94-10.39c4.4-12.58,5-18.18,4.34-38.48,0-1-1.22-7.09-.89-8.06.69-2,2.67-.35,4.78-.6,24.51-2.9,50.66,4.67,75,.73a21.5,21.5,0,0,1,6.58-.45C530.48,272.08,533.16,272.34,533,274.55Z"/></clipPath><clipPath id="clip-path-2" transform="translate(-309.63 -100.75)"><path class="cls-2" d="M511.64,282.4c-4.24-4.69-8.61-10.58-7.19-16.75.92-4,4.09-7,6.52-10.35s4.17-8,2-11.44c-1.7-2.73-5.16-3.7-7.75-5.6A12.43,12.43,0,0,1,501,224.37c1-2.85,3.12-5.2,4.43-7.93,2.71-5.64,1.89-12.52-1-18.06s-7.64-9.9-12.75-13.52c7.85.38,15.34.27,23.18.65,4.24.21,8.53.42,12.59,1.65a26.5,26.5,0,0,1,16.68,15.2c1.73,4.27,2.3,8.92,3.9,13.25a79.88,79.88,0,0,0,4.76,9.53c9.23,17.14,14.27,36.45,25,52.71.7,1.08,1.44,2.52.66,3.55a3,3,0,0,1-2,.92c-8.5,1.42-17.2.1-25.82.35s-17,2.06-25.49,2.66C520.09,285.68,515,286.14,511.64,282.4Z"/></clipPath><clipPath id="clip-path-3" transform="translate(-309.63 -100.75)"><path class="cls-1" d="M436.72,255.12a21.92,21.92,0,0,0,2.42,16.13,7.1,7.1,0,0,0,3.71,3.48,6.78,6.78,0,0,0,4.38-.45,17.68,17.68,0,0,0,11.09-15.63c2.11,8.49,11.09,13.52,19.71,15s17.51.46,26.13,1.92c-.85-5.18-4.09-9.59-7.22-13.79s-6.24-8.27-10.71-10.69-10-2.8-15.14-3.08c-9.53-.51-19.22-1-28.53,1.12a8.41,8.41,0,0,0-3.08,1.17A7.82,7.82,0,0,0,436.72,255.12Z"/></clipPath><clipPath id="clip-path-4" transform="translate(-309.63 -100.75)"><path class="cls-2" d="M445.67,282.69c4.85,4.86,12.33,5.7,19.19,6.06,4.11.21,8.21.35,12.33.41a32.91,32.91,0,0,0,19.73-4.86q10.4-5.3,20.39-11.28a28.85,28.85,0,0,0,5.38-3.83c3.48-3.37,5.09-8.23,6.06-13,3.43-16.78.3-34.12-2.83-51a22.51,22.51,0,0,0-2-6.82c-2.38-4.32-7.29-6.58-12.06-7.83-7.78-2-15.94-2.19-24-1.82-13.2.61-26.46,2.59-38.76,7.43.19,3.59.37,7.19.56,10.78a6.38,6.38,0,0,1-.15,2.14,6.69,6.69,0,0,1-2.43,2.91c-8.45,7.08-13.71,17.15-18.76,26.94-2.15,4.17-4.37,8.64-4,13.31a8.33,8.33,0,0,0,7,.14c2-.92,4.12-2.72,6.21-1.91s2.4,3.31,2.45,5.42c.1,4.68-.27,9.39.26,14S442.37,279.37,445.67,282.69Z"/></clipPath><clipPath id="clip-path-5" transform="translate(-309.63 -100.75)"><path class="cls-2" d="M366.6,222.53c-8.36,1-14.88,8.63-16.55,16.88s.72,16.86,4.52,24.37a3.42,3.42,0,0,0,.78,1.12C359.78,259.75,384,239,388.63,231a17.46,17.46,0,0,0-6-4.66C377.27,223.41,372.66,221.81,366.6,222.53Z"/></clipPath><clipPath id="clip-path-6" transform="translate(-309.63 -100.75)"><path class="cls-1" d="M424.7,444.76c1.32-20,5.88-39.57,22.75-50.37,10.57-6.75,27.27-10.08,39.66-12a81.73,81.73,0,0,1,13-1.3c6.35,0,12.6,1.47,18.78,2.91a5.63,5.63,0,0,1,2.51,1c1.39,1.26,1.17,3.47.77,5.3a87.68,87.68,0,0,1-2.94,10.39c-4.4,12.58-4.94,18.18-4.34,38.48,0,1,1.22,7.09.9,8.06-.69,2-2.67.35-4.78.6-24.51,2.9-50.66-4.68-75-.74a21.55,21.55,0,0,1-6.59.46C427.25,447.23,424.56,447,424.7,444.76Z"/></clipPath><clipPath id="clip-path-7" transform="translate(-309.63 -100.75)"><path class="cls-2" d="M446.09,436.9c4.25,4.7,8.61,10.59,7.19,16.76-.91,4-4.08,7-6.51,10.35s-4.17,7.95-2,11.44c1.71,2.73,5.16,3.7,7.76,5.61A12.41,12.41,0,0,1,456.7,495c-1,2.84-3.11,5.19-4.43,7.92-2.7,5.64-1.88,12.52,1,18.07s7.65,9.9,12.75,13.51c-7.85-.38-15.33-.27-23.18-.66-4.24-.21-8.52-.42-12.59-1.64A26.5,26.5,0,0,1,413.59,517c-1.74-4.27-2.31-8.94-3.91-13.26a78.34,78.34,0,0,0-4.75-9.53c-9.23-17.15-14.28-36.46-25-52.71-.71-1.08-1.44-2.52-.67-3.56a3.1,3.1,0,0,1,2-.92c8.49-1.41,17.2-.09,25.81-.34s17-2.06,25.5-2.66C437.64,433.62,442.7,433.16,446.09,436.9Z"/></clipPath><clipPath id="clip-path-8" transform="translate(-309.63 -100.75)"><path class="cls-1" d="M521,464.19a22,22,0,0,0-2.42-16.13,7.2,7.2,0,0,0-3.72-3.48,6.78,6.78,0,0,0-4.38.45,17.64,17.64,0,0,0-11.08,15.62c-2.12-8.48-11.1-13.51-19.71-15s-17.51-.46-26.14-1.92c.86,5.17,4.09,9.59,7.23,13.79s6.23,8.27,10.7,10.69,10,2.8,15.15,3.08c9.53.52,19.21,1,28.52-1.12a8.83,8.83,0,0,0,3.09-1.17A7.94,7.94,0,0,0,521,464.19Z"/></clipPath><clipPath id="clip-path-9" transform="translate(-309.63 -100.75)"><path class="cls-2" d="M512.06,436.62c-4.85-4.87-12.33-5.71-19.19-6.06q-6.15-.31-12.32-.4A32.63,32.63,0,0,0,460.82,435q-10.4,5.31-20.4,11.28a28.82,28.82,0,0,0-5.37,3.84c-3.48,3.37-5.1,8.23-6.06,13-3.43,16.79-.3,34.12,2.83,51a21.9,21.9,0,0,0,2,6.81c2.38,4.32,7.29,6.58,12.06,7.84,7.78,2.06,15.94,2.19,24,1.82,13.2-.6,26.46-2.59,38.77-7.43q-.29-5.4-.56-10.78a6.2,6.2,0,0,1,.14-2.15,6.78,6.78,0,0,1,2.43-2.89c8.45-7.09,13.72-17.15,18.76-27,2.16-4.17,4.38-8.63,4-13.31a8.41,8.41,0,0,0-7-.13c-2,.92-4.12,2.72-6.21,1.9s-2.4-3.3-2.44-5.41c-.1-4.68.26-9.39-.26-14.05S515.37,439.94,512.06,436.62Z"/></clipPath><clipPath id="clip-path-10" transform="translate(-309.63 -100.75)"><path class="cls-2" d="M591.13,496.78c8.36-1,14.88-8.63,16.55-16.88S607,463,603.17,455.52a3.26,3.26,0,0,0-.79-1.11c-4.43,5.15-28.67,25.93-33.27,33.94a17.43,17.43,0,0,0,6,4.65C580.47,495.9,585.08,497.51,591.13,496.78Z"/></clipPath></defs><g id="Layer_1" data-name="Layer 1"><path class="cls-3" d="M620.81,618.41H339.11A28.71,28.71,0,0,1,310.4,589.7V130.25a28.71,28.71,0,0,1,28.71-28.72h281.7a28.71,28.71,0,0,1,28.71,28.72V589.7A28.71,28.71,0,0,1,620.81,618.41Z" transform="translate(-309.63 -100.75)"/><path class="cls-4" d="M620.81,619.19H339.11a29.51,29.51,0,0,1-29.48-29.49V130.25a29.52,29.52,0,0,1,29.48-29.5h281.7a29.53,29.53,0,0,1,29.49,29.5V589.7A29.52,29.52,0,0,1,620.81,619.19ZM339.11,102.31a28,28,0,0,0-27.93,27.94V589.7a28,28,0,0,0,27.93,27.93h281.7a28,28,0,0,0,27.93-27.93V130.25a28,28,0,0,0-27.93-27.94Z" transform="translate(-309.63 -100.75)"/><path class="cls-5" d="M458.64,270.71a118.48,118.48,0,0,0-20.53,4.39,68.34,68.34,0,0,0-33,23.88c-7.68,10.22-12.1,21.67-15.46,33.18-11.15,4-24.33,20.78-26.53,30.06-8.59,36.29-2.11,51.39,37.45,71.16,8.75,4.37,134.84,25.6,169.17-1.24,22-17.18,30.42-26.3,31.21-54.31s12.1-57.74-4.92-82.51a55.42,55.42,0,0,0-12.07-13c-14.72-11.2-36.83-14.28-57.55-15.1A374.36,374.36,0,0,0,458.64,270.71Z" transform="translate(-309.63 -100.75)"/><path class="cls-5" d="M499.1,448.6a117.26,117.26,0,0,0,20.52-4.4,68.22,68.22,0,0,0,33-23.87c7.67-10.22,12.1-21.68,15.46-33.19,11.16-3.95,24.34-20.78,26.53-30.05,8.6-36.3,2.12-51.39-37.45-71.17-8.74-4.36-112.18-29.82-173.36,7-9.74,5.87-25.44,17.43-26.23,45.44s-12.88,60.85,4.14,85.62a55.57,55.57,0,0,0,12.06,13c14.73,11.2,36.83,14.29,57.56,15.1A375.36,375.36,0,0,0,499.1,448.6Z" transform="translate(-309.63 -100.75)"/><path class="cls-6" d="M388.57,374.92c-12.32,7.09-24.33,4.56-36.64,11.65-4.37,8.12-1.95,30.18,3.16,38.46,10.57,17.09,38.92,19.42,47.4,16.47,18-6.29,23.5-17.08,40-26.76,36.26-21.31,76-36.6,110.59-60.59,17.37-12.07,39-9.09,50.45-26.89,5.61-8.73-.63-23.72-9.38-35.58-6.72-9.12-14.92-19-26.21-20-11.78-1-32,5.72-41.9,12.12s-18.62,14.53-28.15,21.53c-23,16.92-50.54,27-73.34,44.17-6.52,4.92-12.61,10.39-19.28,15.1C399.9,368.4,394.23,371.66,388.57,374.92Z" transform="translate(-309.63 -100.75)"/><path class="cls-7" d="M426,403.42c6.56-5,13.29-13.32,13.59-21.56.2-6.09-1.3-15.68-7-23.1-2.68-3.47-5.64-5.4-5.69-11.35.3-1.22.56-2.21.65-2.67,7.6-39,1.05-40-8.82-44.64-7-3.27-10.94,2.41-12.68,4.14-9.85,9.88-12.79,14.12-14.23,20.89-.55,2.65-.14,5.71-1.9,7.78-1.19,1.4-3.06,1.95-4.7,2.75a36.8,36.8,0,0,0-4.2,2.6c-6.87,3.71-13,9.42-14.74,10.64-2.61,1.85-5.35,3-10.11,8.3-6.67,7.41-7.82,20.15-7.66,23.24.6,11.26,6.39,19,13.66,22.86C373.88,409.41,405.84,418.76,426,403.42Z" transform="translate(-309.63 -100.75)"/><path class="cls-7" d="M532.61,317.13c-6.6,4.93-13.4,13.21-13.76,21.45-.26,6.08,1.17,15.69,6.84,23.15,2.65,3.5,5.6,5.44,5.59,11.4-.31,1.22-.58,2.2-.67,2.66-7.9,38.92-1.37,40,8.47,44.71,7,3.33,11-2.32,12.71-4.05,9.94-9.78,12.91-14,14.39-20.76.58-2.65.2-5.72,2-7.77,1.19-1.38,3.07-1.91,4.72-2.71a35.75,35.75,0,0,0,4.22-2.57c6.9-3.64,13.1-9.31,14.82-10.51,2.64-1.84,5.38-3,10.19-8.23,6.72-7.36,8-20.08,7.83-23.18-.49-11.26-6.24-19.05-13.47-23C584.81,311.56,552.92,302,532.61,317.13Z" transform="translate(-309.63 -100.75)"/><path class="cls-8" d="M445.67,282.69c4.85,4.86,12.33,5.7,19.19,6.06,4.11.21,8.21.35,12.33.41a32.91,32.91,0,0,0,19.73-4.86q10.4-5.3,20.39-11.28a28.85,28.85,0,0,0,5.38-3.83c3.48-3.37,5.09-8.23,6.06-13,3.43-16.78.3-34.12-2.83-51a22.51,22.51,0,0,0-2-6.82c-2.38-4.32-7.29-6.58-12.06-7.83-7.78-2-15.94-2.19-24-1.82-13.2.61-26.46,2.59-38.76,7.43.19,3.59.37,7.19.56,10.78a6.38,6.38,0,0,1-.15,2.14,6.69,6.69,0,0,1-2.43,2.91c-8.45,7.08-13.71,17.15-18.76,26.94-2.15,4.17-4.37,8.64-4,13.31a8.33,8.33,0,0,0,7,.14c2-.92,4.12-2.72,6.21-1.91s2.4,3.31,2.45,5.42c.1,4.68-.27,9.39.26,14S442.37,279.37,445.67,282.69Z" transform="translate(-309.63 -100.75)"/><path class="cls-9" d="M456.83,216.6c-1-4.61-1.47-9.1-.66-12.19a4.89,4.89,0,0,1,.57-1.79,3.57,3.57,0,0,1,2.69-.93c9-.52,18-2.76,26.92-1.54,17.07,2.35,15.95,8.65,16.13,10.54,0,.63-1.2.69-1.73,1.05a1.7,1.7,0,0,1-.71.23L477.58,216c-2.6.47-5.2.94-7.81,1.3-3.66.5-6.85,2-10.55,2C458.8,219.37,457.43,219.51,456.83,216.6Z" transform="translate(-309.63 -100.75)"/><path class="cls-3" d="M470.53,208.89c10.22-4.42,21.72-2.58,32,1.8a4.49,4.49,0,0,1-1.39,2.89,32.39,32.39,0,0,1-43.18,5.51C458.76,216.92,462.52,212.35,470.53,208.89Z" transform="translate(-309.63 -100.75)"/><path class="cls-9" d="M479.79,221.64a7.32,7.32,0,0,0,6.31-3.91c1.47-3.09,0-7.48-2.86-8.7a8.14,8.14,0,0,0-4.51-.24c-2.54.43-5.35,1.53-6.36,4.21a6.58,6.58,0,0,0,1.52,6.54A7.62,7.62,0,0,0,479.79,221.64Z" transform="translate(-309.63 -100.75)"/><path class="cls-1" d="M533,274.55c-1.31,20-5.88,39.57-22.75,50.36-10.56,6.76-27.27,10.09-39.65,12a81.73,81.73,0,0,1-13,1.3c-6.35,0-12.61-1.47-18.79-2.91a5.5,5.5,0,0,1-2.5-1c-1.4-1.24-1.17-3.46-.78-5.29a89.06,89.06,0,0,1,2.94-10.39c4.4-12.58,5-18.18,4.34-38.48,0-1-1.22-7.09-.89-8.06.69-2,2.67-.35,4.78-.6,24.51-2.9,50.66,4.67,75,.73a21.5,21.5,0,0,1,6.58-.45C530.48,272.08,533.16,272.34,533,274.55Z" transform="translate(-309.63 -100.75)"/><g class="cls-10"><path class="cls-9" d="M431.08,339.74c5-1.23,7.43-4.47,9.88-8.84,3.27-5.85,7.11-12.27,8.22-18.92,1.22-7.34,1.47-15.33,2.14-22.8.7-7.82-2.19-15.2-.77-23.06.24-1.3-1.54-2.23-2.23-.94-2,3.66-1.5,7.48-1.05,11.53a85.88,85.88,0,0,1-.53,23.58c-1.16,7.56-.57,13.72-4.34,20.82-3.29,6.22-5.46,13.42-11.95,17.13a.82.82,0,0,0,.63,1.5Z" transform="translate(-309.63 -100.75)"/><path class="cls-9" d="M437.28,343.56c4.54-4,9-6.77,12.64-11.78,4.36-5.89,6.59-13.43,8.17-20.46,3.55-15.72,1.86-30.8-.71-46.44-.2-1.26-1.91-1-2.27,0-1.88,5-.37,9.72.68,14.85,1.75,8.74.42,19.17-1,27.88a59.35,59.35,0,0,1-8.19,22.25c-3,4.81-8.28,7.8-10.39,13.1-.26.62.61,1,1,.6Z" transform="translate(-309.63 -100.75)"/><path class="cls-9" d="M447.79,344.37C460,336.8,465,324.88,468.3,311.22a116.53,116.53,0,0,0,3.19-22.75c.32-9.12-3.87-17.35-2.59-26.49a1.36,1.36,0,0,0-2.48-1.05c-2.58,4.1-1.78,8.36-.86,12.93a74,74,0,0,1,.77,28.61c-2.58,15.67-8.18,29.46-19,41.27-.3.32.08.87.48.63Z" transform="translate(-309.63 -100.75)"/><path class="cls-9" d="M456.53,347.21c12.51-7.92,18.4-21.84,20.79-35.82,2.54-14.82,4.35-31.47.09-46.14a.91.91,0,0,0-1.74,0c-1.3,5.84.12,11.76.53,17.66.6,8.27-.57,16.8-1.7,25-1,7-2.19,13.92-5.26,20.35-3.31,6.94-9.64,11.68-13.5,18.18a.59.59,0,0,0,.79.8Z" transform="translate(-309.63 -100.75)"/><path class="cls-9" d="M467.89,346c12.49-6.89,16.61-19.62,19.59-32.67A101.09,101.09,0,0,0,490,291.83c.08-8-1.91-15.71-2.36-23.65a1.89,1.89,0,0,0-3.69-.49c-1.76,5,.39,10.34.88,15.52a95.29,95.29,0,0,1-.64,23.32,151.14,151.14,0,0,1-4.17,19.28c-2.41,8.33-8.81,12.43-13,19.41a.58.58,0,0,0,.8.79Z" transform="translate(-309.63 -100.75)"/><path class="cls-9" d="M478.76,346c11.12-4.26,15.51-19.17,18-29.62a158.79,158.79,0,0,0,3.13-22.26c.84-9.39,2.23-20.57-.44-29.7a.85.85,0,0,0-1.63,0c-1.85,6.41-1.27,13.24-1.51,19.87a252.8,252.8,0,0,1-2.18,26.65c-2,13.81-6.83,23.81-15.83,34.29-.27.31,0,.94.45.77Z" transform="translate(-309.63 -100.75)"/><path class="cls-9" d="M490.72,343.37c10.9-6.36,15.47-17.72,16.95-30.05,2.06-17.11,5.65-35.66,3-52.88-.15-.92-1.5-1-1.9-.24-2.48,4.31-1.44,8.79-1.45,13.65a223.79,223.79,0,0,1-1.67,25.47c-1.87,16.44-3,31.08-15.29,43.61a.28.28,0,0,0,.34.44Z" transform="translate(-309.63 -100.75)"/><path class="cls-9" d="M506.51,336.67c8.22-7.89,12.28-20.25,14.06-31.2a75.24,75.24,0,0,0,.68-17.42c-.42-5.92.21-12.4-2.51-17.76-.58-1.12-2-.43-2.13.58-1.34,10.45.86,20.77-.11,31.25a76,76,0,0,1-4.2,18.3c-1.79,5-2.84,11.75-6,16.05-.11.15.13.32.25.2Z" transform="translate(-309.63 -100.75)"/><path class="cls-9" d="M523.39,321.79c5.51-8,6.6-16.15,7.58-25.64.9-8.62,1.54-19.85-2.26-27.84a1,1,0,0,0-1.72.22c-2,7.74,0,16.56-.29,24.56-.34,9.7-3.54,18.93-3.9,28.54a.32.32,0,0,0,.59.16Z" transform="translate(-309.63 -100.75)"/></g><path class="cls-1" d="M511.64,282.4c-4.24-4.69-8.61-10.58-7.19-16.75.92-4,4.09-7,6.52-10.35s4.17-8,2-11.44c-1.7-2.73-5.16-3.7-7.75-5.6A12.43,12.43,0,0,1,501,224.37c1-2.85,3.12-5.2,4.43-7.93,2.71-5.64,1.89-12.52-1-18.06s-7.64-9.9-12.75-13.52c7.85.38,15.34.27,23.18.65,4.24.21,8.53.42,12.59,1.65a26.5,26.5,0,0,1,16.68,15.2c1.73,4.27,2.3,8.92,3.9,13.25a79.88,79.88,0,0,0,4.76,9.53c9.23,17.14,14.27,36.45,25,52.71.7,1.08,1.44,2.52.66,3.55a3,3,0,0,1-2,.92c-8.5,1.42-17.2.1-25.82.35s-17,2.06-25.49,2.66C520.09,285.68,515,286.14,511.64,282.4Z" transform="translate(-309.63 -100.75)"/><path class="cls-7" d="M532.29,177.06c.92-9.9,0-24.87-1.6-37.09-1-7.63-3.15-15.44-3.69-20.77-.89-9-6.88-7.22-7.17-4.48-2.08,20.3-.74,30.41-4.47,46.58-.9,3.88-6.86,3.58-7.77.59-2.34-7.81-2.63-14.81-3.57-22.69-1.8-14.91-3.29-23.56-6-26.85-1.24-1.52-3.92-1.64-4.58.2-6.18,17.4,1.72,48.52-8.17,52.2a3.47,3.47,0,0,1-4.47-2.67c-3.47-16,.85-34-6.95-48.5-.49-.92-1.16-1.91-2.19-2.08-1.52-.26-2.63,1.38-3.23,2.81-6.63,16,1.08,46.2-5.14,51.69-2.34,2.05-4.17.81-4.47-2.28-2.62-27.2-5-45.42-10.55-47.65-3.06-1.23-4.46,8.29-4.34,12,.57,19.4,1.69,38.77,2.77,58.16-.12-.41-.07-.73.13-.36s.72.38,1.14.35l79.71-5.62a6.65,6.65,0,0,0,2.82-.88A3.84,3.84,0,0,0,532.29,177.06Z" transform="translate(-309.63 -100.75)"/><path class="cls-9" d="M446.29,196.1c2.79,3.41,71.41-3.73,86.12-4.47a3.78,3.78,0,0,0,3.26-2.27c1.27-3,.4-5.63-.33-8.86a3.57,3.57,0,0,0-.82-1.78,3.9,3.9,0,0,0-3.07-.67l-63.87,4.06-18.2,1.16a8.72,8.72,0,0,0-3.94,1.13c-3.07,1.87-2.48,4.34-1.89,6.57A13.57,13.57,0,0,0,446.29,196.1Z" transform="translate(-309.63 -100.75)"/><path class="cls-9" d="M447.58,116.3a2.48,2.48,0,1,0-2.48-2.48,2.51,2.51,0,0,0,2.48,2.48Z" transform="translate(-309.63 -100.75)"/><path class="cls-9" d="M471.46,113c3.21,0,3.21-5,0-5s-3.18,5,0,5Z" transform="translate(-309.63 -100.75)"/><path class="cls-9" d="M495.65,112a2.62,2.62,0,1,0-2.61-2.61,2.64,2.64,0,0,0,2.61,2.61Z" transform="translate(-309.63 -100.75)"/><path class="cls-9" d="M522.77,114a2.68,2.68,0,1,0-2.68-2.68,2.7,2.7,0,0,0,2.68,2.68Z" transform="translate(-309.63 -100.75)"/><path class="cls-9" d="M450.71,160.19c-1.36,6.48.38,13.11.78,19.62a1.77,1.77,0,0,0,3.53,0c.44-6.56-2.18-12.93-2.78-19.41-.07-.82-1.33-1.13-1.53-.21Z" transform="translate(-309.63 -100.75)"/><path class="cls-9" d="M472.37,159.26a37.25,37.25,0,0,0-1.09,10.88c.13,2.87,0,7,2.3,9.05a1.69,1.69,0,0,0,2.78-.73c.86-2.87-.59-6.57-.81-9.54a56.25,56.25,0,0,0-1.4-9.66.93.93,0,0,0-1.78,0Z" transform="translate(-309.63 -100.75)"/><path class="cls-9" d="M496.9,158c.79,5.87.92,11.72,1.24,17.62.15,2.74,4.22,2.77,4.28,0,.13-6.11-1.47-12.1-3-18-.35-1.36-2.7-1.11-2.52.34Z" transform="translate(-309.63 -100.75)"/><path class="cls-9" d="M524.14,157.68c-2.91,3.88-2.62,10.66-2.28,15.23a2.45,2.45,0,0,0,4.9,0c.09-2.31-.07-4.66-.2-7-.14-2.54.08-5.11-.11-7.63a1.25,1.25,0,0,0-2.31-.63Z" transform="translate(-309.63 -100.75)"/><g class="cls-11"><path class="cls-9" d="M507.51,190c2.63,3.16,4.05,8.81,5.07,12.62,2,7.34-1.65,13.72-3,20.69-1.48,7.68,6.72,11.62,11.34,16.08,10.48,10.16-9.69,24-10.86,34.38-.88,7.79,6.35,17.8,12.7,21.55.57.33,1.39-.37,1-1-3.51-4.73-7.63-8.26-10-13.92-3.74-9.1,3.19-14.38,7.84-20.91,4-5.56,7.95-14.91,2.63-21.08-2.82-3.27-6.59-5.44-9.69-8.42-5.43-5.2,1.24-13.79,1.39-19.44.2-7.13-1.57-16.86-8.27-20.78a.12.12,0,0,0-.15.19Z" transform="translate(-309.63 -100.75)"/><path class="cls-9" d="M516.89,191c11.67,7.51,2,18,3.24,27.86.31,2.28,2.5,4.31,4,5.87,4.54,4.8,9.16,8.05,11.27,14.72,4.26,13.49-10,20.57-14,31.66-2.78,7.69-.35,15.45,6.93,19.77.87.51,2-.54,1.42-1.42-1.2-1.84-2.53-3.57-3.85-5.33-4.14-5.55-1.29-11.1,1.74-16.26,2.9-4.94,7.44-8.54,10-13.65,3.88-7.67,2.4-18.23-3.19-24.65-3.62-4.17-11.71-8.51-10.52-15.1.77-4.17,2.46-7.37,2.52-11.7.09-5.7-2.61-13.09-9.29-12.73a.52.52,0,0,0-.25,1Z" transform="translate(-309.63 -100.75)"/><path class="cls-9" d="M526.54,188.74c2.23,1.7,5.1,8.16,6.06,10.52,1.64,4.1-1.63,12-1.05,16.79.44,3.57,2.53,5.83,5.14,8.1,5.28,4.61,9.88,7.69,12.1,14.72,6.52,20.53-27.13,39.78-3.78,57.27,1.27.95,3.09-.92,2.18-2.19-5.43-7.68-8.65-12.92-4.45-22.45,2.09-4.74,5.35-8.94,7.1-13.85,3.5-9.78,4.22-19.07-1.94-27.85-2.74-3.89-7-6.4-10.44-9.6-6.18-5.76.22-13.39-1.12-19.84-.72-3.47-4.79-13.2-9.72-12.2-.31.06-.28.43-.08.58Z" transform="translate(-309.63 -100.75)"/><path class="cls-9" d="M546.2,189.13c-7,1.39-6.2,12.24-6.08,17.66.25,11.56,10.06,15.1,17.26,22.47,4.21,4.31,2.76,10.37,2.32,15.86-.7,8.88-4.52,16.26-7.66,24.39-3.7,9.58-1.25,25.1,11.09,26.53,1,.11,1.15-1.1.69-1.68-5.7-7.22-10.5-10.94-8.42-21.11,1.22-6,4.76-11.66,6.46-17.58,2-7.07,4.09-17.67,1.46-24.8C561,224.46,553,220.65,548,216.75c-4.38-3.42-4.58-8.25-4.71-13.18-.08-2.86-.66-12.71,3.07-14a.24.24,0,0,0-.12-.46Z" transform="translate(-309.63 -100.75)"/><path class="cls-9" d="M577.53,252.63c-10.08-7-23.8,32-8.78,40.94.58.34,1.37-.37,1-1-5-7-5.52-14.8-3.68-23,1.3-5.73,5.24-14,11.33-15.66a.73.73,0,0,0,.17-1.32Z" transform="translate(-309.63 -100.75)"/><path class="cls-9" d="M582.06,261.75c-4.76-.93-8.74,4.82-10.23,8.7a19.23,19.23,0,0,0,3.4,19.67.62.62,0,0,0,1.06-.44c-.6-5.31-3.1-9.84-2.18-15.34s4.6-8.2,8.16-11.79a.48.48,0,0,0-.21-.8Z" transform="translate(-309.63 -100.75)"/></g><path class="cls-1" d="M436.72,255.12a21.92,21.92,0,0,0,2.42,16.13,7.1,7.1,0,0,0,3.71,3.48,6.78,6.78,0,0,0,4.38-.45,17.68,17.68,0,0,0,11.09-15.63c2.11,8.49,11.09,13.52,19.71,15s17.51.46,26.13,1.92c-.85-5.18-4.09-9.59-7.22-13.79s-6.24-8.27-10.71-10.69-10-2.8-15.14-3.08c-9.53-.51-19.22-1-28.53,1.12a8.41,8.41,0,0,0-3.08,1.17A7.82,7.82,0,0,0,436.72,255.12Z" transform="translate(-309.63 -100.75)"/><g class="cls-12"><path class="cls-9" d="M453.25,243.91a35,35,0,0,0-.1,7.86c.43,6.87-3.58,13-8.1,17.69-4.91,5.08-8,10.26-7.52,17.53a.81.81,0,0,0,1.49.41c3-4.28,3.63-9.31,7.16-13.43,2.22-2.6,4.61-4.87,6.61-7.66,5.22-7.27,3.46-14.69,1.07-22.4-.08-.27-.56-.33-.61,0Z" transform="translate(-309.63 -100.75)"/><path class="cls-9" d="M447.7,244.16a61.93,61.93,0,0,0-.47,7.7c-.09,5.45-4.31,9.4-7.63,13.26s-7.09,9.16-6,14.64a.86.86,0,0,0,1.57.2c2.85-6.59,6.63-11.25,11-16.93,5.11-6.72,3.57-10.92,2.53-18.73-.06-.5-.89-.75-1-.14Z" transform="translate(-309.63 -100.75)"/><path class="cls-9" d="M444.31,245.11c-.94,2.31-1.53,4.66-2.24,7-1,3.38-3.46,5.4-6.16,7.39s-5.39,4-6.18,7.3a.56.56,0,0,0,.93.54c3.25-3.16,7.35-5,10.57-8.21,3.75-3.71,3-9.14,3.66-13.89a.3.3,0,0,0-.58-.17Z" transform="translate(-309.63 -100.75)"/><path class="cls-9" d="M458.66,243.93c-2.29,8.1,5.18,15.92,9.67,21.88s14.16,15,22.48,13.65c.78-.12.78-1.21.2-1.57-7.26-4.52-14.07-7.63-19.81-14.3-5-5.84-10-12.07-12-19.66a.28.28,0,0,0-.54,0Z" transform="translate(-309.63 -100.75)"/><path class="cls-9" d="M464.36,243c-3.09,4.81,6,13.16,8.33,16.45,2.69,3.78,5.63,7.59,9.54,10.19,3.53,2.34,7.25,4.41,10.55,7.13,2.56,2.12,4.24,5.08,6.79,7.25a.8.8,0,0,0,1.33-.78c-2.49-8.43-10-12.15-16.85-16.74-5-3.37-8.36-8.49-12-13.15-2.48-3.18-6.36-6.14-7.17-10.28a.28.28,0,0,0-.51-.07Z" transform="translate(-309.63 -100.75)"/><path class="cls-9" d="M473.62,243.25c-2,7.35,5.35,13.12,10.24,17.42a134.41,134.41,0,0,1,11.31,11c4.4,4.89,6.75,9.44,9.64,15.17a.81.81,0,0,0,1.47-.19c2.05-9.24-4.36-13.86-10-20-6.81-7.38-19.12-13-21.55-23.34a.56.56,0,0,0-1.08,0Z" transform="translate(-309.63 -100.75)"/></g><g class="cls-13"><path class="cls-9" d="M431,255.09c5.07-3.5,10.66-6,16.87-6.29,3.45-.19,7.09-1.26,9.48-3.87,4-4.41-.53-10-5.32-10.89-1.3-.24-1.87,1.69-.55,2,2.77.68,5.56,1.78,5.66,5.1.11,3.57-4.49,5.12-7.21,5.71-3.79.84-7.27.57-10.94,2.21-3.19,1.41-6.13,3-8.18,5.84-.09.12.08.27.19.19Z" transform="translate(-309.63 -100.75)"/></g><path class="cls-9" d="M450.42,155.36a1.38,1.38,0,0,0,0-2.76,1.38,1.38,0,0,0,0,2.76Z" transform="translate(-309.63 -100.75)"/><path class="cls-9" d="M449.53,150.4l.22,0a1.31,1.31,0,0,0,0-2.62,1.46,1.46,0,0,1-.22,0c-1.74-.22-1.74,2.91,0,2.69Z" transform="translate(-309.63 -100.75)"/><path class="cls-9" d="M449.08,145.37a1.24,1.24,0,0,0,0-2.48,1.24,1.24,0,0,0,0,2.48Z" transform="translate(-309.63 -100.75)"/><path class="cls-9" d="M473.26,154.81a1.73,1.73,0,0,0,0-3.45,1.73,1.73,0,0,0,0,3.45Z" transform="translate(-309.63 -100.75)"/><path class="cls-9" d="M473.27,148.61l-.09.1-1.17.15.18,0a1.69,1.69,0,1,0-.75-2.82,1.75,1.75,0,0,0,0,2.54,1.3,1.3,0,0,0,1.81,0Z" transform="translate(-309.63 -100.75)"/><path class="cls-9" d="M472.37,143.53a1.64,1.64,0,0,0,0-3.28,1.64,1.64,0,0,0,0,3.28Z" transform="translate(-309.63 -100.75)"/><path class="cls-9" d="M498.18,152.62l.13-.05a2.29,2.29,0,0,0,1.58-2.77,2.27,2.27,0,0,0-2.77-1.57l-.13,0a2.25,2.25,0,1,0,1.19,4.35Z" transform="translate(-309.63 -100.75)"/><path class="cls-9" d="M498.68,145.77l.09-.18a1.73,1.73,0,0,0-2.71-2.09l-.15.14c-1.9,1.74,1.54,4.41,2.77,2.13Z" transform="translate(-309.63 -100.75)"/><path class="cls-9" d="M498.23,140c0-.07,0-.14.07-.2.76-2.17-3.37-2.17-2.61,0,0,.06.05.13.08.2a1.28,1.28,0,0,0,2.46,0Z" transform="translate(-309.63 -100.75)"/><path class="cls-9" d="M524.32,153.16c3,0,3-4.63,0-4.63s-3,4.63,0,4.63Z" transform="translate(-309.63 -100.75)"/><path class="cls-9" d="M524.32,146.41a1.84,1.84,0,0,0,0-3.67,1.84,1.84,0,0,0,0,3.67Z" transform="translate(-309.63 -100.75)"/><path class="cls-9" d="M524,141.39l.21.08a1.42,1.42,0,1,0,0-2.75l-.21.09a1.35,1.35,0,0,0,0,2.58Z" transform="translate(-309.63 -100.75)"/><path class="cls-9" d="M398.16,361.36l-.05,0-.85.07h.11l-.77-.39a1.91,1.91,0,0,0,1.48.49l-.84-.16.17.1c1.24.69,2.44-.66,2.1-1.86a.29.29,0,0,1,0,.09,1.73,1.73,0,0,0-1.84-1.58,1.9,1.9,0,0,0-1.78,1.76c-.09,1.11,1.16,2.41,2.25,1.49Z" transform="translate(-309.63 -100.75)"/><path class="cls-9" d="M397.22,368.77l.2,0a2.21,2.21,0,0,0-.34-4.4h-.2c-2.87,0-2.51,4.84.34,4.43Z" transform="translate(-309.63 -100.75)"/><path class="cls-9" d="M395.94,376.76a1.84,1.84,0,0,0,1.55-.31c.93-.64,1.06-2.48-.2-2.91l-.1,0a1.81,1.81,0,0,0-2.11.41,1.78,1.78,0,0,0,.17,2.47,1.37,1.37,0,0,0,.69.37Z" transform="translate(-309.63 -100.75)"/><path class="cls-9" d="M395.06,383.61l.22,0a1.52,1.52,0,0,0,.58-3l-.22,0a1.52,1.52,0,0,0-.58,3Z" transform="translate(-309.63 -100.75)"/><path class="cls-9" d="M394.38,389.46a1.12,1.12,0,0,0,.43-2.2,1.12,1.12,0,0,0-.43,2.2Z" transform="translate(-309.63 -100.75)"/><path class="cls-9" d="M410.57,393.92l.24-.19a.85.85,0,0,0-.94-1.41l-.29.16c-1,.52.12,2.19,1,1.44Z" transform="translate(-309.63 -100.75)"/><path class="cls-9" d="M412.41,389.35a2.37,2.37,0,0,0,1.18.62c1.91.51,2.55-2.76.58-3a2.48,2.48,0,0,0-1.32.13,1.35,1.35,0,0,0-.44,2.26Z" transform="translate(-309.63 -100.75)"/><path class="cls-9" d="M416.77,384.56a1.89,1.89,0,0,0,.72-3.7,1.89,1.89,0,0,0-.72,3.7Z" transform="translate(-309.63 -100.75)"/><path class="cls-9" d="M418.69,377.09a1.8,1.8,0,0,0,.68-3.53,1.8,1.8,0,0,0-.68,3.53Z" transform="translate(-309.63 -100.75)"/><path class="cls-9" d="M419.9,370.84a1.7,1.7,0,0,0,.65-3.34,1.7,1.7,0,0,0-.65,3.34Z" transform="translate(-309.63 -100.75)"/><path class="cls-5" d="M409.59,406.65c-2.79-.33-3.66-3.53-.2-13.51s3.8-18.38,2.35-24.31-3.34-15.51,1.47-15.36,8.41,8.36,9.16,16.56c.78,8.61-1.05,15.44-2.73,21.84S412.56,407,409.59,406.65Z" transform="translate(-309.63 -100.75)"/><path class="cls-5" d="M389.66,404.08c-3.44.15-6.24-1.43-4.84-14.2S390.91,352,396,350.54s6.25,1.44,6.23,6S396,403.79,389.66,404.08Z" transform="translate(-309.63 -100.75)"/><path class="cls-9" d="M414.38,393.26A3,3,0,0,0,413,393a1.63,1.63,0,0,0-.6,3.07,3.06,3.06,0,0,0,1.43.26,1.61,1.61,0,0,0,.59-3Z" transform="translate(-309.63 -100.75)"/><path class="cls-9" d="M414.83,388.71a2.42,2.42,0,1,0-1.9-2.83,2.41,2.41,0,0,0,1.9,2.83Z" transform="translate(-309.63 -100.75)"/><path class="cls-9" d="M418.09,375.09l-.24-.15a2.35,2.35,0,1,0-.87,4.45l.29,0a2.27,2.27,0,0,0,.82-4.27Z" transform="translate(-309.63 -100.75)"/><path class="cls-9" d="M418.35,366.49a2.6,2.6,0,0,0-3.39-.34,2,2,0,0,0-.54,2.73,2.62,2.62,0,0,0,3.28,1,2,2,0,0,0,.65-3.35Z" transform="translate(-309.63 -100.75)"/><path class="cls-9" d="M415.75,358a2.47,2.47,0,0,0-1-.31,1.61,1.61,0,0,0-.62,3.16,2.48,2.48,0,0,0,1,.07,1.55,1.55,0,0,0,.57-2.92Z" transform="translate(-309.63 -100.75)"/><path class="cls-9" d="M395.87,354.24l-.09.08a1.82,1.82,0,0,0,.2,3.11l.11.05a1.89,1.89,0,0,0,2.7-1.83c-.1-1.3-1.8-2.35-2.92-1.41Z" transform="translate(-309.63 -100.75)"/><path class="cls-9" d="M395,361.26l-.12.1a2,2,0,0,0-.51,2.65l.07.14c.87,1.68,3.45.86,3.76-.77s-1.76-3.35-3.2-2.12Z" transform="translate(-309.63 -100.75)"/><path class="cls-9" d="M393.65,368.92a6.53,6.53,0,0,0-1,.5,2.45,2.45,0,0,0-1,2.87A2.54,2.54,0,0,0,394.2,374a1.38,1.38,0,0,0,.49-.06,2.61,2.61,0,0,0,2.35-2.75,2.58,2.58,0,0,0-3.39-2.22Z" transform="translate(-309.63 -100.75)"/><path class="cls-9" d="M392.82,382.27c3.22.62,4.18-4.36,1-5s-4.19,4.37-1,5Z" transform="translate(-309.63 -100.75)"/><path class="cls-9" d="M391.3,390c2.46.47,3.21-3.34.75-3.81a1.94,1.94,0,0,0-.75,3.81Z" transform="translate(-309.63 -100.75)"/><path class="cls-9" d="M390.17,395.85a1.6,1.6,0,0,0,.61-3.14,1.6,1.6,0,0,0-.61,3.14Z" transform="translate(-309.63 -100.75)"/><path class="cls-9" d="M411.06,401a1.35,1.35,0,0,0,.52-2.64,1.35,1.35,0,0,0-.52,2.64Z" transform="translate(-309.63 -100.75)"/><path class="cls-5" d="M363.53,398.2c2.8.21,4.72-1.9,5.25-12.45s3.38-18.46,7-23.42,8.91-13.12,4.4-14.79-10.94,4.6-14.71,11.91c-3.95,7.69-4.66,14.73-5.66,21.28C358.69,387.73,360.36,398,363.53,398.2Z" transform="translate(-309.63 -100.75)"/><path class="cls-9" d="M364.12,384a2.91,2.91,0,0,1,1.42.27,1.63,1.63,0,0,1-.59,3.06,3,3,0,0,1-1.43-.3,1.61,1.61,0,0,1,.6-3Z" transform="translate(-309.63 -100.75)"/><path class="cls-9" d="M365.4,379.6a2.42,2.42,0,1,1,2.84-1.91,2.44,2.44,0,0,1-2.84,1.91Z" transform="translate(-309.63 -100.75)"/><path class="cls-9" d="M367.49,365.74l.29,0a2.35,2.35,0,1,1-.88,4.45l-.25-.14a2.28,2.28,0,0,1,.84-4.28Z" transform="translate(-309.63 -100.75)"/><path class="cls-9" d="M370.48,357.68a2.62,2.62,0,0,1,3.28,1,2,2,0,0,1-.54,2.73,2.62,2.62,0,0,1-3.4-.34,2,2,0,0,1,.66-3.35Z" transform="translate(-309.63 -100.75)"/><path class="cls-9" d="M376.07,350.78a2.3,2.3,0,0,1,1,.07,1.61,1.61,0,0,1-.61,3.16,2.31,2.31,0,0,1-1-.31,1.56,1.56,0,0,1,.57-2.92Z" transform="translate(-309.63 -100.75)"/><path class="cls-9" d="M364.27,392.43a1.35,1.35,0,0,1,.52-2.64,1.35,1.35,0,0,1-.52,2.64Z" transform="translate(-309.63 -100.75)"/><path class="cls-9" d="M510.57,331.89c-5-4.19-12.22,2.27-15.14,6.29-1.94,2.67-2.59,6.81.77,8.73,3.12,1.79,6.85.46,9.71-1.17a32.8,32.8,0,0,0,9.13-7.39c2.41-3,3.37-8-1-9.81-4.57-1.84-8.71,1.14-12.14,3.92-3.11,2.51-7.28,6.6-7.21,10.91.06,3.91,5.46,5.1,7.33,1.75,2-3.62,5.28-8,9.34-9.27-.23.07-1.08-.19-.18,0-1.43-.37-1.7-3.45-1.86-2.84.22-.89-.16.12-.28.31.1-.15-.74.81-.93,1a30.55,30.55,0,0,1-5.32,4.3c-1.74,1.14-2,1.48-3.81,1.52,1,0,1.67.83,2.07,1.73.07.18-.09,1.43.06.67a5,5,0,0,1,.85-1.79,23.38,23.38,0,0,1,3.72-4.47c.48-.48,3.09-3.41,3.9-3s1.85-.72,1-1.4Z" transform="translate(-309.63 -100.75)"/><path class="cls-9" d="M460.21,367.14c-3.33-1-8.16,2.07-10.77,3.87-3.58,2.49-6.6,5.65-7,10.19a4,4,0,0,0,2.76,4c8.37,2,19.07-6.69,21.45-14.44a4.15,4.15,0,0,0-2.66-5.18c-4.3-1.34-8.66.91-12,3.45-3.2,2.4-7.78,6.59-7.67,11,.09,2.75,3.2,5.61,6,3.75l.47-.31c1.9-1.28,2.68-3.8,1-5.64-.11-.13-.23-.25-.35-.38.29,1.33.59,2.66.88,4a14.32,14.32,0,0,1,4.14-5.36c1.2-1,4.05-3,5.12-2.64l-2.65-5.18c-.76,2.48-3,4.43-4.95,6.06-1.29,1.1-4.52,3.64-6.23,3.32l2.75,4c.14-5.77,9-7.4,11-12.09a1.84,1.84,0,0,0-1.19-2.31Z" transform="translate(-309.63 -100.75)"/><path class="cls-9" d="M476.18,347c-2.72,1.82-4.1,3.09-5.47,6.1a14,14,0,0,0,0,10.62c2.6,6.33,9.33,8.24,15.36,6,5-1.88,7.78-7.51,8.56-12.44.94-5.94-2.95-10.92-8.16-13.11-5.4-2.28-12.73-1.16-16.37,3.62-3.12,4.09-2.65,9.47-.86,14a12.78,12.78,0,0,0,11.14,8.05c6.86.16,11.2-5.47,12.26-11.67a9.74,9.74,0,0,0-6-10.62c-4.07-1.78-10.28.44-12.17,4.44-1.62,3.44-1.47,8.63,2.2,10.85,4.52,2.75,8.46-.78,9.79-5.09,1.22-4-3.06-7.76-6.82-5.71a16.41,16.41,0,0,0-5.18,4.63,4.79,4.79,0,0,0,1.44,6.63l.42.23a4.62,4.62,0,0,0,6.76-2.41c-.64,1.64.36-1.34.18-2.15a5,5,0,0,0-.43-1.21c1.92,4.22-1.36,4.22,1.31,2.77l-6.82-5.71c-.61,2,2.12-2.26,5.25.55.71.62.43,1.36.45.68,0,.87-.13.53-.16.56-.38.36.62,0,.84.08-.74-.2-.82-1.19-.57-.11a4.83,4.83,0,0,1-.34,1.8,2.51,2.51,0,0,1-1.91,1.81c-.69.19.11.12-1,0,.47,0,.29.1-.43-.37a4.89,4.89,0,0,1-1.52-2.1,6.82,6.82,0,0,1-.54-2.58c0-1.28-.13-.19.26-1.37-.13.41.26-.38.36-.47s.49-.31.34-.26a5.37,5.37,0,0,1,2.3-.29,7,7,0,0,1,3.7,1.09,2.51,2.51,0,0,1,.77,2,6.35,6.35,0,0,1-1.12,3.49c-1.22,2-2.47,2.49-4.17,1.63-3.27-1.68-3.6-9.14-1.58-11.73.94-1.21-.76-3.09-2-2.23Z" transform="translate(-309.63 -100.75)"/><path class="cls-7" d="M481,358.74c3.84.16,4.09-5.8.25-6s-4.09,5.8-.25,6Z" transform="translate(-309.63 -100.75)"/><path class="cls-7" d="M473.33,348a.68.68,0,0,0,.05-1.36.68.68,0,0,0-.05,1.36Z" transform="translate(-309.63 -100.75)"/><path class="cls-7" d="M471,352.63a.66.66,0,0,0,.05-1.32.66.66,0,0,0-.05,1.32Z" transform="translate(-309.63 -100.75)"/><path class="cls-7" d="M471,358a.88.88,0,0,0,.07-1.76A.88.88,0,0,0,471,358Z" transform="translate(-309.63 -100.75)"/><path class="cls-7" d="M473.06,362.82a.86.86,0,0,0,.06-1.72.86.86,0,0,0-.06,1.72Z" transform="translate(-309.63 -100.75)"/><path class="cls-7" d="M476.94,367.21a.59.59,0,0,0,.16-.07.61.61,0,0,0,0-1.17l-.15-.08c-1.07-.48-1.16,1.71-.06,1.32Z" transform="translate(-309.63 -100.75)"/><path class="cls-7" d="M482.42,368.51l.17,0a.84.84,0,0,0,.07-1.61l-.16-.05c-1.4-.42-1.5,2-.08,1.69Z" transform="translate(-309.63 -100.75)"/><path class="cls-7" d="M487.77,366.3a.71.71,0,0,0,.06-1.42.71.71,0,0,0-.06,1.42Z" transform="translate(-309.63 -100.75)"/><path class="cls-7" d="M491.15,361.81a.68.68,0,0,0,.05-1.36.68.68,0,0,0-.05,1.36Z" transform="translate(-309.63 -100.75)"/><path class="cls-7" d="M492.3,355.62a.63.63,0,0,0,0-1.26.63.63,0,0,0,0,1.26Z" transform="translate(-309.63 -100.75)"/><path class="cls-7" d="M490.39,350.41a.81.81,0,0,0,.07-1.62.81.81,0,0,0-.07,1.62Z" transform="translate(-309.63 -100.75)"/><path class="cls-7" d="M485.75,347a1,1,0,0,0,.08-1.92,1,1,0,0,0-.08,1.92Z" transform="translate(-309.63 -100.75)"/><path class="cls-7" d="M480,346.19h.18a.73.73,0,0,0,.06-1.45,1.13,1.13,0,0,0-.18,0c-.95-.15-1,1.56-.06,1.49Z" transform="translate(-309.63 -100.75)"/><path class="cls-5" d="M413.22,202.7a3.25,3.25,0,0,0-1.38.9,5.56,5.56,0,0,0-1.62,4.45,5.66,5.66,0,0,0,2.37,4.1,3.68,3.68,0,0,0,2.48.74c2-.24,3-2.41,3.48-4.33a4.1,4.1,0,0,0-1.53-4.74A4.5,4.5,0,0,0,413.22,202.7Z" transform="translate(-309.63 -100.75)"/><path class="cls-5" d="M417.15,206a56.44,56.44,0,0,1,7.48,1.66,14.79,14.79,0,0,1-9.16,2.09c.41-1.16-.81-2.72.12-3.53A1.91,1.91,0,0,1,417.15,206Z" transform="translate(-309.63 -100.75)"/><path class="cls-5" d="M391.91,244.57c5.32,1.27,11.19,1.06,15.94-1.66s8.06-8.25,7.16-13.65a12.17,12.17,0,0,0-2.61-5.69c-1.31-1.6-2.77-3.28-4.73-4-9-3.26-21.46,2.42-25.4,7.46a11,11,0,0,0-1.94,3.5c-1,3.25.29,6.91,2.64,9.37A18,18,0,0,0,391.91,244.57Z" transform="translate(-309.63 -100.75)"/><path class="cls-5" d="M366.6,222.53c-8.36,1-14.88,8.63-16.55,16.88s.72,16.86,4.52,24.37a3.42,3.42,0,0,0,.78,1.12C359.78,259.75,384,239,388.63,231a17.46,17.46,0,0,0-6-4.66C377.27,223.41,372.66,221.81,366.6,222.53Z" transform="translate(-309.63 -100.75)"/><path class="cls-5" d="M410.68,234.52a4,4,0,0,1-1.79-1C404.23,229.8,397,225.9,396,220c4.89-2.87,13.33-12.5,17-16.8,1.89,7.13,2.69,21.31,2.08,28.66-.08,1.15-1,0-1.56,1A2.89,2.89,0,0,1,410.68,234.52Z" transform="translate(-309.63 -100.75)"/><path class="cls-5" d="M410.15,200.39c-.45-1.22-1.92-1.7-3.22-1.75a3.53,3.53,0,0,0-3.1,1.2,2.61,2.61,0,0,0-.06,2.57,4.67,4.67,0,0,0,1.87,1.87,2.66,2.66,0,0,0-3.56,1.53,3,3,0,0,0,1.75,3.06,24.66,24.66,0,0,0,3.56,1.26,18.41,18.41,0,0,1,3.6,2.06l3.19-6.2c.48-.93,1-1.86,1.39-2.83a8.62,8.62,0,0,0,.87-3.12,3.78,3.78,0,0,0-1.11-3,3.72,3.72,0,0,0-1-.61,3.63,3.63,0,0,0-3.71.4A2.65,2.65,0,0,0,410.15,200.39Z" transform="translate(-309.63 -100.75)"/><path class="cls-9" d="M388,232.66c3.92,3.84,9.06,7.08,14.58,4.24,3.71-1.91,9.05-6.54,7-11.22a.72.72,0,0,0-1.24,0c-1.66,3.53-2.57,6.32-6.09,8.55-4.52,2.86-9.73.69-13.54-2.27-.5-.39-1.18.24-.7.7Z" transform="translate(-309.63 -100.75)"/><g class="cls-14"><path class="cls-9" d="M374.18,228c-8-6-15.14,3.84-17.75,10.8-3.49,9.3,0,21.69,7.82,27.71.49.38,1.2-.24,1-.79-2.14-6.38-6.06-11.08-6.45-18.16-.47-8.7,5.25-19.79,15.18-18.93.37,0,.4-.45.17-.63Z" transform="translate(-309.63 -100.75)"/><path class="cls-9" d="M374,232.18c-12.26,1-11.89,22.06-3.07,27.19a.74.74,0,0,0,1.09-.83c-1.1-3.86-3.06-7.33-3.82-11.32-1.14-6,1.31-10.55,6.09-14,.41-.3.33-1.14-.29-1.08Z" transform="translate(-309.63 -100.75)"/><path class="cls-9" d="M375.86,236.13c-6.22,4.31-4.79,14.46,2.43,17,.67.24,1-.54.81-1.06-2.28-5.1-7.12-9.31-2.32-14.77.54-.62-.17-1.71-.92-1.2Z" transform="translate(-309.63 -100.75)"/></g><path class="cls-15" d="M414.73,341.55a9.5,9.5,0,0,0,3.15-.08c2.2-.55,3.73-2.62,4.41-4.79a33,33,0,0,0,.88-6.73,33.81,33.81,0,0,1,2.28-9.24c1.09-2.68,2.54-5.27,2.91-8.13.77-6-3.3-11.46-7.27-16s-8.48-5.58-12.6-15.88c-2.08-5.22-2.83-7.94-3.89-8.51-1.63-.9-3.17,1.12-3.87,2.09-.7,3.7-1.09,3.92.14,9.85.76,3.61.2,5.08,3.55,13.7,1.13,2.9.78,1.23,2.35,3.92-2.62,2.76-5.41.58-8.94,2s-4.59,5.75-4.88,9.5a62.49,62.49,0,0,0,.24,12.23c.55,4.71,1.89,9.77,5.69,12.62,3.05,2.3,7.06,2.71,10.86,3Z" transform="translate(-309.63 -100.75)"/><path class="cls-9" d="M403.79,309.57c1.92,2.32,5.6,4.9,4.93,8.36-.61,3.18-5.08,1.22-6.81.91a.53.53,0,0,0-.59.77c1.3,2.76,7,2.15,8.58,0,1.28-1.76.72-4-.15-5.82-1.1-2.32-3.43-3.57-5.58-4.69a.32.32,0,0,0-.38.51Z" transform="translate(-309.63 -100.75)"/><path class="cls-9" d="M402.68,320.68c1,1.14,2.47,1.56,3.55,2.6s2.12,3.61.87,5.06c-1.69,2-4.8.77-6.85.43a.45.45,0,0,0-.5.65c1.41,2.81,6.58,1.85,8.44,0,1.2-1.21,1.17-3.38.49-4.84a8,8,0,0,0-1.91-2.58c-1-.9-2.45-1.07-3.5-1.91a.42.42,0,0,0-.59.59Z" transform="translate(-309.63 -100.75)"/><path class="cls-9" d="M402.61,337.47c2.4.71,5.25.26,5.93-2.53s-1.34-4.43-3.69-5.23c-.58-.2-3.26-.81-2.89.68s2.4,1.67,3.54,2.12c1.33.52,2.07,1.75,1,3.06-.77.94-2.78,1.13-3.89,1.47a.23.23,0,0,0,0,.43Z" transform="translate(-309.63 -100.75)"/><path class="cls-5" d="M404.05,304c-2,.1-4.23-3-4.46-4.81-.38-2.9.25-1.14-.13-4-1-8.1-2.53-20.81-2.69-29-.13-7-1.13-14-.56-20.94.09-1.09,1.14-2.3,1.7-3.27a3.09,3.09,0,0,1,2.91-1.59c-1.51,15.58-.1,27.59.77,47.35C401.82,293.17,404.26,298.58,404.05,304Z" transform="translate(-309.63 -100.75)"/><path class="cls-8" d="M409.84,306a5,5,0,0,1-4.52,3.37,9.83,9.83,0,0,1-4.94-1.81l-3.63-2.16a20.5,20.5,0,0,1-6-4.61c-1.55-2-2.32-4.8-1.23-7.07.73-1.52,2.89-6.7,8.72-3.78,3.12,1.56,7.48,7.21,10.77,11.37A5.72,5.72,0,0,1,409.84,306Z" transform="translate(-309.63 -100.75)"/><path class="cls-9" d="M401.72,308.5c1.32,1.89,5.29,2.89,7.37,1.79a4.2,4.2,0,0,0,1.23-6.5.26.26,0,0,0-.45.18c.16,1.52,0,4.21-1.72,4.82s-4.34,0-5.87-.84c-.34-.17-.8.2-.56.55Z" transform="translate(-309.63 -100.75)"/><path class="cls-9" d="M413.41,207.92a1.14,1.14,0,0,0,0-2.27,1.14,1.14,0,0,0,0,2.27Z" transform="translate(-309.63 -100.75)"/><path class="cls-8" d="M512.06,436.62c-4.85-4.87-12.33-5.71-19.19-6.06q-6.15-.31-12.32-.4A32.63,32.63,0,0,0,460.82,435q-10.4,5.31-20.4,11.28a28.82,28.82,0,0,0-5.37,3.84c-3.48,3.37-5.1,8.23-6.06,13-3.43,16.79-.3,34.12,2.83,51a21.9,21.9,0,0,0,2,6.81c2.38,4.32,7.29,6.58,12.06,7.84,7.78,2.06,15.94,2.19,24,1.82,13.2-.6,26.46-2.59,38.77-7.43q-.29-5.4-.56-10.78a6.2,6.2,0,0,1,.14-2.15,6.78,6.78,0,0,1,2.43-2.89c8.45-7.09,13.72-17.15,18.76-27,2.16-4.17,4.38-8.63,4-13.31a8.41,8.41,0,0,0-7-.13c-2,.92-4.12,2.72-6.21,1.9s-2.4-3.3-2.44-5.41c-.1-4.68.26-9.39-.26-14.05S515.37,439.94,512.06,436.62Z" transform="translate(-309.63 -100.75)"/><path class="cls-9" d="M500.9,502.71c1,4.62,1.47,9.1.66,12.19a4.65,4.65,0,0,1-.57,1.79,3.56,3.56,0,0,1-2.69.93c-9,.52-18,2.76-26.92,1.54-17.06-2.35-15.94-8.65-16.12-10.53-.06-.65,1.2-.7,1.72-1.06a1.61,1.61,0,0,1,.72-.23c7.47-1.36,15-2.71,22.45-4.08,2.6-.47,5.2-.94,7.82-1.29,3.65-.5,6.85-2,10.54-2C498.94,499.93,500.3,499.79,500.9,502.71Z" transform="translate(-309.63 -100.75)"/><path class="cls-3" d="M487.2,510.43c-10.22,4.41-21.71,2.57-31.94-1.8a4.45,4.45,0,0,1,1.39-2.9,32.36,32.36,0,0,1,43.18-5.51C499,502.38,495.22,507,487.2,510.43Z" transform="translate(-309.63 -100.75)"/><path class="cls-9" d="M478,497.67a7.33,7.33,0,0,0-6.32,3.92c-1.47,3.08,0,7.47,2.86,8.69a8,8,0,0,0,4.52.23c2.53-.42,5.34-1.52,6.35-4.21a6.54,6.54,0,0,0-1.52-6.53A7.57,7.57,0,0,0,478,497.67Z" transform="translate(-309.63 -100.75)"/><path class="cls-1" d="M424.7,444.76c1.32-20,5.88-39.57,22.75-50.37,10.57-6.75,27.27-10.08,39.66-12a81.73,81.73,0,0,1,13-1.3c6.35,0,12.6,1.47,18.78,2.91a5.63,5.63,0,0,1,2.51,1c1.39,1.26,1.17,3.47.77,5.3a87.68,87.68,0,0,1-2.94,10.39c-4.4,12.58-4.94,18.18-4.34,38.48,0,1,1.22,7.09.9,8.06-.69,2-2.67.35-4.78.6-24.51,2.9-50.66-4.68-75-.74a21.55,21.55,0,0,1-6.59.46C427.25,447.23,424.56,447,424.7,444.76Z" transform="translate(-309.63 -100.75)"/><g class="cls-16"><path class="cls-9" d="M526.65,379.57c-5,1.23-7.43,4.46-9.87,8.84-3.29,5.85-7.11,12.27-8.23,18.92-1.22,7.33-1.46,15.32-2.14,22.8-.7,7.82,2.2,15.19.78,23.06-.24,1.29,1.52,2.23,2.22.94,2-3.66,1.51-7.48,1-11.54A86.2,86.2,0,0,1,511,419c1.15-7.57.57-13.72,4.33-20.82,3.3-6.21,5.45-13.42,11.95-17.13a.82.82,0,0,0-.63-1.5Z" transform="translate(-309.63 -100.75)"/><path class="cls-9" d="M520.46,375.75c-4.54,4-9,6.76-12.65,11.78-4.35,5.89-6.58,13.43-8.17,20.46-3.55,15.72-1.86,30.8.71,46.44.21,1.27,1.92,1,2.28,0,1.87-5,.36-9.72-.68-14.84-1.75-8.75-.42-19.19,1-27.89a59.33,59.33,0,0,1,8.18-22.25c3-4.81,8.28-7.8,10.4-13.1.25-.63-.63-1-1-.6Z" transform="translate(-309.63 -100.75)"/><path class="cls-9" d="M510,374.94c-12.18,7.57-17.25,19.49-20.52,33.15a115.66,115.66,0,0,0-3.18,22.75c-.33,9.11,3.87,17.35,2.58,26.5a1.37,1.37,0,0,0,2.49,1c2.58-4.1,1.77-8.36.85-12.93-2-10-2.46-18.4-.77-28.61,2.59-15.67,8.19-29.46,19-41.27.3-.33-.09-.87-.48-.63Z" transform="translate(-309.63 -100.75)"/><path class="cls-9" d="M501.2,372.1c-12.5,7.92-18.39,21.84-20.79,35.82-2.53,14.82-4.35,31.47-.09,46.13a.91.91,0,0,0,1.74,0c1.31-5.83-.11-11.75-.53-17.65-.6-8.28.57-16.81,1.7-25,1-7,2.2-13.92,5.27-20.35,3.31-6.95,9.64-11.68,13.49-18.19a.58.58,0,0,0-.79-.79Z" transform="translate(-309.63 -100.75)"/><path class="cls-9" d="M489.85,373.29c-12.49,6.9-16.61,19.62-19.6,32.68a101.07,101.07,0,0,0-2.55,21.5c-.09,8,1.91,15.72,2.35,23.66a1.89,1.89,0,0,0,3.69.49c1.75-5-.38-10.34-.88-15.52a95.29,95.29,0,0,1,.65-23.32,150.37,150.37,0,0,1,4.16-19.28c2.41-8.33,8.81-12.43,13-19.41a.59.59,0,0,0-.8-.8Z" transform="translate(-309.63 -100.75)"/><path class="cls-9" d="M479,373.35c-11.11,4.26-15.5,19.17-18,29.61a160.48,160.48,0,0,0-3.12,22.26c-.84,9.39-2.23,20.58.44,29.71a.85.85,0,0,0,1.63,0c1.85-6.42,1.27-13.25,1.51-19.88a250.19,250.19,0,0,1,2.18-26.64c2-13.8,6.82-23.81,15.83-34.29.27-.31,0-.95-.46-.77Z" transform="translate(-309.63 -100.75)"/><path class="cls-9" d="M467,375.94c-10.9,6.36-15.47,17.71-17,30-2.06,17.12-5.65,35.67-3,52.89.14.92,1.49,1,1.9.24,2.48-4.31,1.44-8.8,1.44-13.66A228.13,228.13,0,0,1,452.05,420c1.89-16.44,3-31.07,15.31-43.6a.29.29,0,0,0-.34-.45Z" transform="translate(-309.63 -100.75)"/><path class="cls-9" d="M451.22,382.64c-8.22,7.89-12.28,20.24-14.06,31.2a75.24,75.24,0,0,0-.67,17.42c.41,5.92-.21,12.39,2.51,17.75.58,1.13,2,.44,2.13-.57,1.33-10.45-.86-20.77.11-31.25a76.18,76.18,0,0,1,4.2-18.31c1.79-5,2.83-11.74,6-16,.1-.16-.13-.32-.26-.2Z" transform="translate(-309.63 -100.75)"/><path class="cls-9" d="M434.33,397.51c-5.49,8-6.58,16.16-7.57,25.66-.9,8.61-1.53,19.84,2.27,27.83a.94.94,0,0,0,1.71-.22c2.05-7.74,0-16.56.29-24.56.35-9.7,3.55-18.94,3.91-28.54a.33.33,0,0,0-.61-.17Z" transform="translate(-309.63 -100.75)"/></g><path class="cls-1" d="M446.09,436.9c4.25,4.7,8.61,10.59,7.19,16.76-.91,4-4.08,7-6.51,10.35s-4.17,7.95-2,11.44c1.71,2.73,5.16,3.7,7.76,5.61A12.41,12.41,0,0,1,456.7,495c-1,2.84-3.11,5.19-4.43,7.92-2.7,5.64-1.88,12.52,1,18.07s7.65,9.9,12.75,13.51c-7.85-.38-15.33-.27-23.18-.66-4.24-.21-8.52-.42-12.59-1.64A26.5,26.5,0,0,1,413.59,517c-1.74-4.27-2.31-8.94-3.91-13.26a78.34,78.34,0,0,0-4.75-9.53c-9.23-17.15-14.28-36.46-25-52.71-.71-1.08-1.44-2.52-.67-3.56a3.1,3.1,0,0,1,2-.92c8.49-1.41,17.2-.09,25.81-.34s17-2.06,25.5-2.66C437.64,433.62,442.7,433.16,446.09,436.9Z" transform="translate(-309.63 -100.75)"/><path class="cls-7" d="M425.43,542.25c-.91,9.9,0,24.87,1.61,37.09,1,7.63,3.16,15.43,3.69,20.76.9,9,6.89,7.22,7.17,4.49,2.08-20.3.75-30.42,4.48-46.57.9-3.89,6.86-3.58,7.76-.61,2.34,7.82,2.64,14.81,3.58,22.7,1.8,14.91,3.28,23.57,6,26.85,1.23,1.52,3.92,1.65,4.57-.21,6.19-17.39-1.72-48.51,8.17-52.2a3.5,3.5,0,0,1,4.48,2.69c3.46,16-.85,34,6.93,48.49.51.92,1.18,1.92,2.2,2.08,1.53.26,2.64-1.38,3.23-2.81,6.64-16-1.08-46.2,5.15-51.68,2.32-2.05,4.17-.81,4.47,2.27,2.62,27.2,5,45.42,10.55,47.65,3.06,1.24,4.45-8.29,4.34-12-.58-19.41-1.69-38.78-2.77-58.16.11.41.07.73-.13.36s-.72-.38-1.15-.34L430,538.7a6.5,6.5,0,0,0-2.81.9A3.88,3.88,0,0,0,425.43,542.25Z" transform="translate(-309.63 -100.75)"/><path class="cls-9" d="M511.45,523.21c-2.79-3.41-71.41,3.72-86.12,4.47a3.74,3.74,0,0,0-3.26,2.26c-1.28,3-.41,5.64.32,8.86a3.53,3.53,0,0,0,.83,1.79,3.86,3.86,0,0,0,3.07.67l63.87-4,18.2-1.17a8.49,8.49,0,0,0,3.93-1.14c3.08-1.85,2.49-4.32,1.89-6.57A13.58,13.58,0,0,0,511.45,523.21Z" transform="translate(-309.63 -100.75)"/><path class="cls-9" d="M510.15,603a2.48,2.48,0,1,0,2.47,2.47,2.5,2.5,0,0,0-2.47-2.47Z" transform="translate(-309.63 -100.75)"/><path class="cls-9" d="M486.27,606.3c-3.2,0-3.2,5,0,5s3.19-5,0-5Z" transform="translate(-309.63 -100.75)"/><path class="cls-9" d="M462.08,607.34A2.63,2.63,0,1,0,464.7,610a2.64,2.64,0,0,0-2.62-2.63Z" transform="translate(-309.63 -100.75)"/><path class="cls-9" d="M435,605.31a2.67,2.67,0,1,0,2.67,2.68,2.69,2.69,0,0,0-2.67-2.68Z" transform="translate(-309.63 -100.75)"/><path class="cls-9" d="M507,559.12c1.37-6.48-.37-13.12-.78-19.62a1.76,1.76,0,0,0-3.52,0c-.45,6.55,2.17,12.94,2.77,19.41.08.83,1.34,1.12,1.53.21Z" transform="translate(-309.63 -100.75)"/><path class="cls-9" d="M485.36,560.05a36.88,36.88,0,0,0,1.09-10.88c-.13-2.86,0-7-2.29-9a1.69,1.69,0,0,0-2.78.73c-.86,2.88.59,6.57.8,9.54a56.26,56.26,0,0,0,1.41,9.66.92.92,0,0,0,1.77,0Z" transform="translate(-309.63 -100.75)"/><path class="cls-9" d="M460.82,561.3c-.78-5.87-.9-11.72-1.22-17.62-.16-2.73-4.22-2.77-4.29,0-.14,6.11,1.47,12.09,3,18,.36,1.37,2.7,1.11,2.51-.34Z" transform="translate(-309.63 -100.75)"/><path class="cls-9" d="M433.59,561.63c2.91-3.87,2.63-10.65,2.29-15.24a2.45,2.45,0,0,0-4.9,0c-.1,2.31.07,4.67.2,7,.14,2.53-.08,5.1.11,7.62a1.24,1.24,0,0,0,2.3.64Z" transform="translate(-309.63 -100.75)"/><g class="cls-17"><path class="cls-9" d="M450.23,529.26c-2.63-3.15-4.05-8.81-5.07-12.6-2-7.35,1.65-13.74,3-20.71,1.48-7.68-6.72-11.61-11.33-16.07-10.49-10.16,9.68-24,10.85-34.38.88-7.8-6.34-17.8-12.69-21.55-.57-.34-1.4.37-1,1,3.51,4.73,7.62,8.25,10,13.92,3.74,9.09-3.18,14.38-7.83,20.91-4,5.56-7.95,14.91-2.63,21.09,2.82,3.26,6.58,5.43,9.68,8.4,5.43,5.2-1.23,13.8-1.39,19.44-.2,7.14,1.57,16.87,8.28,20.78.13.09.23-.08.15-.19Z" transform="translate(-309.63 -100.75)"/><path class="cls-9" d="M440.84,528.3c-11.66-7.49-2-18-3.24-27.84-.3-2.29-2.5-4.32-4-5.88-4.54-4.8-9.16-8.06-11.28-14.73-4.26-13.49,10-20.56,14-31.65,2.78-7.69.35-15.45-6.92-19.77-.87-.52-2,.54-1.43,1.42,1.21,1.84,2.54,3.58,3.85,5.33,4.14,5.54,1.29,11.1-1.73,16.26-2.91,4.94-7.44,8.53-10,13.65-3.89,7.66-2.4,18.23,3.18,24.65,3.63,4.17,11.72,8.51,10.52,15.1-.76,4.16-2.45,7.36-2.52,11.7-.08,5.7,2.62,13.09,9.29,12.74a.53.53,0,0,0,.25-1Z" transform="translate(-309.63 -100.75)"/><path class="cls-9" d="M431.2,530.56c-2.24-1.69-5.11-8.16-6.06-10.52-1.65-4.1,1.62-12,1-16.78-.43-3.57-2.53-5.83-5.14-8.1-5.29-4.61-9.87-7.7-12.11-14.72-6.51-20.53,27.14-39.78,3.8-57.27-1.28-1-3.09.92-2.19,2.19,5.43,7.67,8.65,12.93,4.46,22.45-2.1,4.74-5.35,8.94-7.11,13.85-3.49,9.79-4.22,19.07,1.95,27.85,2.73,3.89,7,6.4,10.43,9.61,6.19,5.75-.22,13.39,1.12,19.83.73,3.46,4.8,13.2,9.73,12.19.3,0,.27-.42.08-.58Z" transform="translate(-309.63 -100.75)"/><path class="cls-9" d="M411.54,530.19c7-1.4,6.19-12.25,6.08-17.66-.25-11.58-10.07-15.11-17.26-22.48-4.21-4.31-2.76-10.38-2.33-15.86.7-8.89,4.52-16.26,7.67-24.4,3.69-9.57,1.24-25.09-11.1-26.52-1-.1-1.14,1.1-.69,1.68,5.71,7.22,10.51,10.95,8.42,21.11-1.21,6-4.75,11.65-6.46,17.58-2.05,7.07-4.09,17.68-1.45,24.8,2.37,6.41,10.35,10.22,15.36,14.12,4.38,3.42,4.58,8.24,4.71,13.19.08,2.85.65,12.7-3.09,14a.25.25,0,0,0,.14.48Z" transform="translate(-309.63 -100.75)"/><path class="cls-9" d="M380.21,466.68c10.08,6.95,23.8-32,8.77-40.94-.57-.35-1.37.37-1,1,5,7,5.52,14.8,3.67,23-1.29,5.74-5.23,14-11.32,15.66a.73.73,0,0,0-.17,1.32Z" transform="translate(-309.63 -100.75)"/><path class="cls-9" d="M375.67,457.56c4.77.92,8.73-4.82,10.24-8.7a19.25,19.25,0,0,0-3.41-19.67.63.63,0,0,0-1.06.44c.61,5.31,3.1,9.84,2.18,15.34s-4.6,8.19-8.16,11.78a.49.49,0,0,0,.21.81Z" transform="translate(-309.63 -100.75)"/></g><path class="cls-1" d="M521,464.19a22,22,0,0,0-2.42-16.13,7.2,7.2,0,0,0-3.72-3.48,6.78,6.78,0,0,0-4.38.45,17.64,17.64,0,0,0-11.08,15.62c-2.12-8.48-11.1-13.51-19.71-15s-17.51-.46-26.14-1.92c.86,5.17,4.09,9.59,7.23,13.79s6.23,8.27,10.7,10.69,10,2.8,15.15,3.08c9.53.52,19.21,1,28.52-1.12a8.83,8.83,0,0,0,3.09-1.17A7.94,7.94,0,0,0,521,464.19Z" transform="translate(-309.63 -100.75)"/><g class="cls-18"><path class="cls-9" d="M504.49,475.4a36.21,36.21,0,0,0,.1-7.86c-.44-6.87,3.57-13,8.09-17.7,4.92-5.07,8-10.25,7.53-17.52a.81.81,0,0,0-1.49-.41c-3,4.28-3.63,9.3-7.16,13.43-2.23,2.58-4.61,4.87-6.61,7.66-5.22,7.26-3.46,14.69-1.08,22.4.09.27.57.32.62,0Z" transform="translate(-309.63 -100.75)"/><path class="cls-9" d="M510,475.14a60.07,60.07,0,0,0,.48-7.7c.07-5.45,4.31-9.39,7.63-13.25s7.08-9.16,6-14.64a.87.87,0,0,0-1.57-.21c-2.85,6.59-6.63,11.25-11,16.94C506.48,463,508,467.2,509.06,475c.06.5.89.75,1,.13Z" transform="translate(-309.63 -100.75)"/><path class="cls-9" d="M513.43,474.2c.93-2.31,1.53-4.65,2.23-7,1-3.38,3.46-5.4,6.17-7.38s5.38-4,6.18-7.31a.56.56,0,0,0-.93-.55c-3.25,3.17-7.36,5-10.57,8.22-3.76,3.7-3,9.15-3.67,13.89a.31.31,0,0,0,.59.17Z" transform="translate(-309.63 -100.75)"/><path class="cls-9" d="M499.07,475.38c2.29-8.11-5.17-15.93-9.66-21.88s-14.16-15-22.48-13.65c-.78.13-.78,1.21-.21,1.56,7.26,4.53,14.07,7.64,19.82,14.31,5,5.84,10,12.07,12,19.66a.28.28,0,0,0,.54,0Z" transform="translate(-309.63 -100.75)"/><path class="cls-9" d="M493.38,476.35c3.09-4.81-6-13.16-8.33-16.46-2.7-3.77-5.64-7.58-9.54-10.18-3.54-2.35-7.27-4.42-10.56-7.13-2.56-2.12-4.23-5.08-6.78-7.25a.81.81,0,0,0-1.34.78c2.5,8.43,10,12.15,16.84,16.74,5,3.37,8.38,8.49,12,13.15,2.48,3.17,6.36,6.14,7.16,10.28a.29.29,0,0,0,.52.07Z" transform="translate(-309.63 -100.75)"/><path class="cls-9" d="M484.12,476.05c2-7.34-5.36-13.1-10.24-17.41a134.46,134.46,0,0,1-11.31-11c-4.41-4.89-6.75-9.44-9.65-15.17a.81.81,0,0,0-1.46.18c-2.06,9.24,4.36,13.87,10,20,6.8,7.37,19.11,13,21.55,23.33a.56.56,0,0,0,1.08,0Z" transform="translate(-309.63 -100.75)"/></g><g class="cls-19"><path class="cls-9" d="M526.73,464.21c-5.08,3.51-10.67,6-16.88,6.3-3.44.18-7.09,1.26-9.47,3.86-4,4.42.53,10,5.31,10.9,1.31.24,1.88-1.69.56-2-2.78-.68-5.57-1.78-5.66-5.1-.11-3.58,4.48-5.11,7.21-5.71,3.79-.83,7.26-.57,10.94-2.21,3.18-1.4,6.13-3,8.18-5.84.07-.12-.08-.28-.19-.2Z" transform="translate(-309.63 -100.75)"/></g><path class="cls-9" d="M507.31,564a1.38,1.38,0,0,0,0,2.76,1.38,1.38,0,0,0,0-2.76Z" transform="translate(-309.63 -100.75)"/><path class="cls-9" d="M508.21,568.92l-.23,0a1.32,1.32,0,0,0,0,2.63l.23,0c1.73.23,1.73-2.89,0-2.67Z" transform="translate(-309.63 -100.75)"/><path class="cls-9" d="M508.66,574a1.24,1.24,0,0,0,0,2.47,1.24,1.24,0,0,0,0-2.47Z" transform="translate(-309.63 -100.75)"/><path class="cls-9" d="M484.48,564.5a1.73,1.73,0,0,0,0,3.45,1.73,1.73,0,0,0,0-3.45Z" transform="translate(-309.63 -100.75)"/><path class="cls-9" d="M484.47,570.7a.43.43,0,0,1,.09-.1l1.17-.15a1.13,1.13,0,0,1-.18,0,1.69,1.69,0,1,0,.74,2.83,1.74,1.74,0,0,0,0-2.55,1.29,1.29,0,0,0-1.8,0Z" transform="translate(-309.63 -100.75)"/><path class="cls-9" d="M485.37,575.78a1.64,1.64,0,0,0,0,3.27,1.64,1.64,0,0,0,0-3.27Z" transform="translate(-309.63 -100.75)"/><path class="cls-9" d="M459.56,566.7l-.13,0a2.25,2.25,0,1,0,1.18,4.34l.14-.05a2.29,2.29,0,0,0,1.58-2.77,2.25,2.25,0,0,0-2.77-1.57Z" transform="translate(-309.63 -100.75)"/><path class="cls-9" d="M459.06,573.54l-.1.18a1.73,1.73,0,0,0,2.71,2.08.47.47,0,0,0,.15-.13c1.9-1.74-1.53-4.4-2.76-2.13Z" transform="translate(-309.63 -100.75)"/><path class="cls-9" d="M459.51,579.31c0,.08-.05.15-.08.21-.75,2.18,3.38,2.18,2.61,0,0-.06-.05-.13-.07-.21a1.29,1.29,0,0,0-2.46,0Z" transform="translate(-309.63 -100.75)"/><path class="cls-9" d="M433.42,566.14c-3,0-3,4.64,0,4.64s3-4.64,0-4.64Z" transform="translate(-309.63 -100.75)"/><path class="cls-9" d="M433.42,572.89a1.85,1.85,0,0,0,0,3.69,1.85,1.85,0,0,0,0-3.69Z" transform="translate(-309.63 -100.75)"/><path class="cls-9" d="M433.77,577.91a.56.56,0,0,1-.2-.08,1.43,1.43,0,1,0,0,2.75l.2-.08a1.36,1.36,0,0,0,0-2.59Z" transform="translate(-309.63 -100.75)"/><path class="cls-9" d="M560.15,359.41l.05,0,.84-.06h-.1l.78.39a2,2,0,0,0-1.49-.51l.84.18-.17-.1a1.52,1.52,0,0,0-2.12,1.84.29.29,0,0,1,0-.09,1.74,1.74,0,0,0,1.84,1.6,1.9,1.9,0,0,0,1.78-1.76c.1-1.09-1.13-2.41-2.23-1.5Z" transform="translate(-309.63 -100.75)"/><path class="cls-9" d="M561.15,352l-.2,0a2.21,2.21,0,0,0,.3,4.41h.2c2.87,0,2.56-4.82-.3-4.43Z" transform="translate(-309.63 -100.75)"/><path class="cls-9" d="M562.49,344a1.87,1.87,0,0,0-1.54.29c-1,.64-1.09,2.48.17,2.91l.1,0a1.83,1.83,0,0,0,2.1-.4,1.78,1.78,0,0,0-.14-2.47,1.39,1.39,0,0,0-.69-.38Z" transform="translate(-309.63 -100.75)"/><path class="cls-9" d="M563.43,337.19l-.22-.05a1.52,1.52,0,0,0-.6,3l.21.05a1.52,1.52,0,0,0,.61-3Z" transform="translate(-309.63 -100.75)"/><path class="cls-9" d="M564.16,331.34a1.12,1.12,0,0,0-.45,2.2,1.12,1.12,0,0,0,.45-2.2Z" transform="translate(-309.63 -100.75)"/><path class="cls-9" d="M548,326.74a2.76,2.76,0,0,0-.25.21.85.85,0,0,0,.94,1.41l.27-.15c1-.52-.09-2.19-1-1.47Z" transform="translate(-309.63 -100.75)"/><path class="cls-9" d="M546.11,331.3a2.42,2.42,0,0,0-1.17-.62c-1.9-.52-2.56,2.73-.6,3a2.47,2.47,0,0,0,1.32-.11,1.36,1.36,0,0,0,.45-2.27Z" transform="translate(-309.63 -100.75)"/><path class="cls-9" d="M541.72,336.07c-2.37-.49-3.12,3.2-.75,3.68a1.88,1.88,0,0,0,.75-3.68Z" transform="translate(-309.63 -100.75)"/><path class="cls-9" d="M539.75,343.52A1.8,1.8,0,0,0,539,347a1.8,1.8,0,0,0,.72-3.52Z" transform="translate(-309.63 -100.75)"/><path class="cls-9" d="M538.48,349.76a1.7,1.7,0,0,0-.67,3.33,1.7,1.7,0,0,0,.67-3.33Z" transform="translate(-309.63 -100.75)"/><path class="cls-5" d="M549.09,314c2.77.36,3.62,3.56.08,13.51s-3.94,18.35-2.54,24.29,3.21,15.53-1.59,15.36-8.35-8.44-9-16.64c-.72-8.61,1.18-15.43,2.91-21.83S546.11,313.64,549.09,314Z" transform="translate(-309.63 -100.75)"/><path class="cls-5" d="M569,316.76c3.44-.13,6.24,1.49,4.73,14.24s-6.38,37.88-11.45,39.24-6.22-1.48-6.17-6S562.63,317,569,316.76Z" transform="translate(-309.63 -100.75)"/><path class="cls-9" d="M544.18,327.38a3,3,0,0,0,1.43.31,1.63,1.63,0,0,0,.62-3.06,3.09,3.09,0,0,0-1.43-.27,1.61,1.61,0,0,0-.62,3Z" transform="translate(-309.63 -100.75)"/><path class="cls-9" d="M543.7,331.93a2.41,2.41,0,1,0,1.88,2.84,2.42,2.42,0,0,0-1.88-2.84Z" transform="translate(-309.63 -100.75)"/><path class="cls-9" d="M540.32,345.53l.26.14a2.35,2.35,0,1,0,.89-4.44l-.28,0a2.28,2.28,0,0,0-.87,4.27Z" transform="translate(-309.63 -100.75)"/><path class="cls-9" d="M540,354.12a2.61,2.61,0,0,0,3.39.37,2,2,0,0,0,.56-2.73,2.63,2.63,0,0,0-3.27-1,2,2,0,0,0-.68,3.35Z" transform="translate(-309.63 -100.75)"/><path class="cls-9" d="M542.53,362.63a2.19,2.19,0,0,0,1,.32,1.61,1.61,0,0,0,.64-3.15,2.45,2.45,0,0,0-1-.08,1.55,1.55,0,0,0-.59,2.91Z" transform="translate(-309.63 -100.75)"/><path class="cls-9" d="M562.38,366.55l.1-.08a1.83,1.83,0,0,0-.18-3.11l-.11-.05a1.89,1.89,0,0,0-2.72,1.81c.09,1.3,1.78,2.36,2.91,1.43Z" transform="translate(-309.63 -100.75)"/><path class="cls-9" d="M563.35,359.54l.12-.11a2,2,0,0,0,.54-2.64l-.07-.14c-.86-1.69-3.44-.89-3.77.74s1.74,3.37,3.18,2.15Z" transform="translate(-309.63 -100.75)"/><path class="cls-9" d="M564.72,351.88a5.67,5.67,0,0,0,1-.48,2.47,2.47,0,0,0,1-2.87,2.52,2.52,0,0,0-2.52-1.67,1.37,1.37,0,0,0-.49.05,2.62,2.62,0,0,0-2.38,2.73,2.58,2.58,0,0,0,3.38,2.24Z" transform="translate(-309.63 -100.75)"/><path class="cls-9" d="M565.66,338.55c-3.21-.65-4.23,4.32-1,5s4.23-4.32,1-5Z" transform="translate(-309.63 -100.75)"/><path class="cls-9" d="M567.23,330.8c-2.45-.5-3.22,3.3-.77,3.8s3.22-3.31.77-3.8Z" transform="translate(-309.63 -100.75)"/><path class="cls-9" d="M568.41,325a1.6,1.6,0,0,0-.64,3.14,1.6,1.6,0,0,0,.64-3.14Z" transform="translate(-309.63 -100.75)"/><path class="cls-9" d="M569.66,322.61l.13-.09a.9.9,0,0,0,.25-1.25.6.6,0,0,0-.09-.13,1.06,1.06,0,1,0-.29,1.47Z" transform="translate(-309.63 -100.75)"/><path class="cls-9" d="M547.56,319.64a1.34,1.34,0,0,0-.54,2.63,1.34,1.34,0,0,0,.54-2.63Z" transform="translate(-309.63 -100.75)"/><path class="cls-5" d="M595.07,322.85c-2.8-.23-4.73,1.87-5.35,12.41s-3.53,18.43-7.14,23.36-9,13.05-4.52,14.75,11-4.51,14.8-11.79c4-7.66,4.78-14.69,5.84-21.23C599.82,333.36,598.25,323.11,595.07,322.85Z" transform="translate(-309.63 -100.75)"/><path class="cls-9" d="M594.38,337.06a3,3,0,0,1-1.43-.27,1.63,1.63,0,0,1,.61-3.06,3,3,0,0,1,1.43.3,1.62,1.62,0,0,1-.61,3Z" transform="translate(-309.63 -100.75)"/><path class="cls-9" d="M593.05,341.43a2.42,2.42,0,1,1-2.85,1.89,2.44,2.44,0,0,1,2.85-1.89Z" transform="translate(-309.63 -100.75)"/><path class="cls-9" d="M590.85,355.27l-.29,0a2.35,2.35,0,1,1,.91-4.45,2.07,2.07,0,0,1,.25.15,2.27,2.27,0,0,1-.87,4.26Z" transform="translate(-309.63 -100.75)"/><path class="cls-9" d="M587.8,363.32a2.63,2.63,0,0,1-3.27-1,2,2,0,0,1,.56-2.73,2.61,2.61,0,0,1,3.39.36,2,2,0,0,1-.68,3.36Z" transform="translate(-309.63 -100.75)"/><path class="cls-9" d="M582.15,370.16a2.3,2.3,0,0,1-1-.07,1.61,1.61,0,0,1,.65-3.16,2.59,2.59,0,0,1,1,.32,1.56,1.56,0,0,1-.6,2.91Z" transform="translate(-309.63 -100.75)"/><path class="cls-9" d="M594.28,328.62a1.34,1.34,0,0,1-.53,2.62,1.34,1.34,0,0,1,.53-2.62Z" transform="translate(-309.63 -100.75)"/><path class="cls-5" d="M544.51,516.6a3.2,3.2,0,0,0,1.39-.89,5.59,5.59,0,0,0-.76-8.55,3.65,3.65,0,0,0-2.47-.74c-2,.24-3,2.41-3.48,4.34a4.06,4.06,0,0,0,1.53,4.73A4.48,4.48,0,0,0,544.51,516.6Z" transform="translate(-309.63 -100.75)"/><path class="cls-5" d="M540.58,513.34a56.33,56.33,0,0,1-7.47-1.67,14.84,14.84,0,0,1,9.16-2.09c-.41,1.17.8,2.74-.12,3.54A1.94,1.94,0,0,1,540.58,513.34Z" transform="translate(-309.63 -100.75)"/><path class="cls-5" d="M565.83,474.73c-5.32-1.27-11.19-1.05-16,1.66s-8,8.26-7.16,13.66a12.13,12.13,0,0,0,2.62,5.69c1.3,1.6,2.77,3.28,4.71,4,9.05,3.27,21.47-2.42,25.41-7.46a11,11,0,0,0,1.94-3.5c1-3.25-.28-6.91-2.64-9.37A18,18,0,0,0,565.83,474.73Z" transform="translate(-309.63 -100.75)"/><path class="cls-5" d="M591.13,496.78c8.36-1,14.88-8.63,16.55-16.88S607,463,603.17,455.52a3.26,3.26,0,0,0-.79-1.11c-4.43,5.15-28.67,25.93-33.27,33.94a17.43,17.43,0,0,0,6,4.65C580.47,495.9,585.08,497.51,591.13,496.78Z" transform="translate(-309.63 -100.75)"/><path class="cls-5" d="M547.06,484.79a3.75,3.75,0,0,1,1.78,1c4.67,3.76,11.89,7.66,12.94,13.56-4.89,2.87-13.32,12.5-17,16.79-1.89-7.12-2.69-21.3-2.09-28.66.1-1.15,1,0,1.56-1A2.93,2.93,0,0,1,547.06,484.79Z" transform="translate(-309.63 -100.75)"/><path class="cls-5" d="M547.58,518.92c.46,1.22,1.93,1.69,3.23,1.74a3.46,3.46,0,0,0,3.09-1.19,2.61,2.61,0,0,0,.06-2.57,4.61,4.61,0,0,0-1.87-1.87c1.36.55,3.24-.1,3.56-1.53a3.07,3.07,0,0,0-1.74-3.07,25.88,25.88,0,0,0-3.56-1.25,18.7,18.7,0,0,1-3.61-2.06c-1.07,2.07-2.12,4.13-3.19,6.19-.48.94-1,1.87-1.39,2.83a8.65,8.65,0,0,0-.86,3.14,3.4,3.4,0,0,0,2.06,3.56,3.63,3.63,0,0,0,3.72-.41A2.62,2.62,0,0,0,547.58,518.92Z" transform="translate(-309.63 -100.75)"/><path class="cls-9" d="M569.75,486.65c-3.92-3.84-9.07-7.07-14.58-4.25-3.72,1.92-9.06,6.55-7,11.23a.72.72,0,0,0,1.24,0c1.66-3.53,2.57-6.32,6.09-8.54,4.52-2.86,9.73-.7,13.53,2.26.5.39,1.18-.25.71-.7Z" transform="translate(-309.63 -100.75)"/><g class="cls-20"><path class="cls-9" d="M583.56,491.32c8,6,15.13-3.84,17.74-10.8,3.5-9.3,0-21.69-7.82-27.72-.49-.37-1.2.25-1,.8,2.14,6.38,6,11.08,6.44,18.16.48,8.69-5.25,19.8-15.17,18.93-.38,0-.41.45-.17.63Z" transform="translate(-309.63 -100.75)"/><path class="cls-9" d="M583.73,487.13c12.26-1,11.88-22.06,3.06-27.2a.75.75,0,0,0-1.09.84c1.1,3.86,3.07,7.33,3.82,11.31,1.14,6-1.3,10.55-6.08,14-.43.3-.34,1.13.29,1.08Z" transform="translate(-309.63 -100.75)"/><path class="cls-9" d="M581.88,483.17c6.22-4.29,4.78-14.45-2.44-17-.66-.23-1,.54-.81,1.05,2.29,5.11,7.12,9.32,2.33,14.78-.55.62.17,1.71.92,1.19Z" transform="translate(-309.63 -100.75)"/></g><path class="cls-15" d="M543,377.76a9.51,9.51,0,0,0-3.15.08c-2.2.55-3.73,2.62-4.4,4.79a33.64,33.64,0,0,0-.9,6.74,33.8,33.8,0,0,1-2.26,9.23c-1.1,2.67-2.55,5.27-2.91,8.13-.78,6,3.3,11.45,7.26,16s8.48,5.59,12.6,15.89c2.09,5.22,2.84,7.93,3.89,8.51,1.64.9,3.17-1.13,3.87-2.09.71-3.71,1.09-3.92-.14-9.85-.75-3.61-.19-5.07-3.55-13.7-1.13-2.9-.78-1.23-2.35-3.92,2.63-2.75,5.41-.59,8.95-2s4.59-5.76,4.88-9.51a63.06,63.06,0,0,0-.24-12.21c-.56-4.72-1.89-9.78-5.69-12.64-3.05-2.29-7.07-2.7-10.86-3Z" transform="translate(-309.63 -100.75)"/><path class="cls-9" d="M554,409.74c-1.93-2.32-5.6-4.89-4.94-8.36.61-3.18,5.08-1.22,6.82-.91a.53.53,0,0,0,.58-.77c-1.3-2.75-7-2.15-8.58,0-1.28,1.77-.71,4,.16,5.83,1.1,2.31,3.43,3.56,5.58,4.68a.32.32,0,0,0,.38-.5Z" transform="translate(-309.63 -100.75)"/><path class="cls-9" d="M555.06,398.62c-1-1.14-2.47-1.55-3.55-2.59-1.24-1.18-2.12-3.6-.88-5.06,1.69-2,4.8-.77,6.85-.43a.45.45,0,0,0,.5-.65c-1.4-2.8-6.58-1.85-8.43,0-1.21,1.2-1.17,3.38-.5,4.84A7.92,7.92,0,0,0,551,397.3c1,.91,2.45,1.08,3.51,1.92a.42.42,0,0,0,.59-.6Z" transform="translate(-309.63 -100.75)"/><path class="cls-9" d="M555.13,381.84c-2.4-.71-5.25-.26-5.94,2.53s1.34,4.43,3.69,5.24c.59.2,3.26.8,2.89-.69s-2.39-1.68-3.55-2.13c-1.31-.52-2.05-1.74-1-3.05.77-.95,2.77-1.14,3.9-1.48a.22.22,0,0,0,0-.42Z" transform="translate(-309.63 -100.75)"/><path class="cls-5" d="M553.69,415.3c2-.1,4.22,3,4.46,4.81.37,2.89-.25,1.14.12,4,1.06,8.11,2.54,20.83,2.69,29,.14,7,1.14,14,.56,20.95-.1,1.08-1.14,2.29-1.7,3.25a3.07,3.07,0,0,1-2.91,1.59c1.52-15.57.1-27.58-.76-47.34C555.91,426.14,553.48,420.73,553.69,415.3Z" transform="translate(-309.63 -100.75)"/><path class="cls-8" d="M547.9,413.32a5,5,0,0,1,4.52-3.39,9.87,9.87,0,0,1,4.93,1.82L561,413.9a20.58,20.58,0,0,1,6,4.62c1.56,2,2.34,4.79,1.24,7.08-.72,1.5-2.89,6.69-8.71,3.78-3.12-1.57-7.48-7.22-10.77-11.38A5.66,5.66,0,0,1,547.9,413.32Z" transform="translate(-309.63 -100.75)"/><path class="cls-9" d="M556,410.81c-1.31-1.89-5.28-2.89-7.36-1.79a4.21,4.21,0,0,0-1.23,6.51.27.27,0,0,0,.45-.19c-.16-1.52,0-4.21,1.72-4.82s4.33,0,5.87.84c.33.17.8-.2.55-.55Z" transform="translate(-309.63 -100.75)"/><path class="cls-9" d="M544.32,511.39a1.14,1.14,0,0,0,0,2.28,1.14,1.14,0,0,0,0-2.28Z" transform="translate(-309.63 -100.75)"/><path class="cls-9" d="M541.06,303.92l-.24-.14a2.35,2.35,0,1,0-.87,4.45l.29,0a2.28,2.28,0,0,0,.82-4.28Z" transform="translate(-309.63 -100.75)"/><path class="cls-9" d="M402.69,419.12l-.24-.15a2.36,2.36,0,1,0-.87,4.47l.28-.05a2.27,2.27,0,0,0,.83-4.27Z" transform="translate(-309.63 -100.75)"/><path class="cls-9" d="M381.47,428.48l-.25-.14a2.35,2.35,0,1,0-.86,4.45l.28,0a2.28,2.28,0,0,0,.83-4.28Z" transform="translate(-309.63 -100.75)"/><path class="cls-9" d="M412.48,414l-.25-.14a2.35,2.35,0,1,0-.87,4.45l.28,0a2.28,2.28,0,0,0,.84-4.28Z" transform="translate(-309.63 -100.75)"/><path class="cls-9" d="M392.71,424.11a2,2,0,0,1-.25-.14,2.36,2.36,0,1,0-.87,4.46l.28,0a2.28,2.28,0,0,0,.84-4.28Z" transform="translate(-309.63 -100.75)"/><path class="cls-9" d="M551.69,297.3l-.26-.14a2.36,2.36,0,1,0-.87,4.46l.29-.05a2.28,2.28,0,0,0,.84-4.27Z" transform="translate(-309.63 -100.75)"/><path class="cls-9" d="M562.29,291.06l-.25-.14a2.35,2.35,0,1,0-.87,4.45,2.85,2.85,0,0,1,.29,0,2.28,2.28,0,0,0,.83-4.28Z" transform="translate(-309.63 -100.75)"/><path class="cls-9" d="M572.28,286.06l-.26-.14a2.35,2.35,0,1,0-.86,4.46l.29,0a2.28,2.28,0,0,0,.83-4.28Z" transform="translate(-309.63 -100.75)"/><path class="cls-1" d="M356.71,204.22c1.4-1.26,2.93-2.23,4.44-3.35a26.69,26.69,0,0,0,4.72-3.86,11.64,11.64,0,0,0,2.14-4.15c.54-1.6.6-5-.29-6.46-2.57-4.12-9.75-7.73-14.47,1.35a.39.39,0,0,1-.35.21h0a.37.37,0,0,1-.34-.21c-4.73-9.08-11.91-5.47-14.48-1.35-.89,1.43-.82,4.86-.28,6.46a11.46,11.46,0,0,0,2.13,4.15,26.69,26.69,0,0,0,4.72,3.86c1.51,1.12,3.05,2.09,4.44,3.35.7.63,3.81,4,3.81,4S356,204.85,356.71,204.22Z" transform="translate(-309.63 -100.75)"/><path class="cls-1" d="M602,511.67c-1.39,1.26-2.92,2.22-4.43,3.34a26.84,26.84,0,0,0-4.73,3.86,11.58,11.58,0,0,0-2.13,4.16c-.54,1.6-.61,5,.28,6.46,2.58,4.11,9.75,7.72,14.49-1.35a.37.37,0,0,1,.34-.21h0a.39.39,0,0,1,.34.21c4.73,9.07,11.91,5.46,14.47,1.35.9-1.43.83-4.86.29-6.46a11.58,11.58,0,0,0-2.13-4.16,27.52,27.52,0,0,0-4.72-3.86c-1.51-1.12-3-2.08-4.44-3.34-.7-.63-3.81-4-3.81-4S602.68,511,602,511.67Z" transform="translate(-309.63 -100.75)"/><path class="cls-1" d="M374.32,171.2h-6.55l-14.32-26.42L342.5,158.44V171.2h-6V123.36h6V151.1l21.65-27.74h6.47l-13,16.73Z" transform="translate(-309.63 -100.75)"/><path class="cls-1" d="M584,544.07h6.55L604.9,570.5l11-13.67V544.07h6v47.84h-6V564.16l-21.65,27.75h-6.47l13-16.73Z" transform="translate(-309.63 -100.75)"/><path class="cls-1" d="M419.35,590.43h-59c-13.78,0-25-11.91-25-26.56V228.76H337V563.87c0,13.78,10.51,25,23.43,25h59Z" transform="translate(-309.63 -100.75)"/><rect class="cls-1" x="213.13" y="488.12" width="58.9" height="1.56"/><path class="cls-1" d="M623,488.15h-1.56V151.39c0-13.78-10.51-25-23.44-25H538.37v-1.56H598c13.79,0,25,11.91,25,26.55Z" transform="translate(-309.63 -100.75)"/><rect class="cls-1" x="69.52" y="24.08" width="53.51" height="1.56"/></g></svg>