<svg xmlns="http://www.w3.org/2000/svg" xmlns:xlink="http://www.w3.org/1999/xlink" viewBox="0 0 341.71 520"><defs><style>.cls-1{fill:#990028;}.cls-2{fill:none;}.cls-3{fill:#fff;}.cls-4{fill:#2d2d2d;}.cls-5{fill:#ffd6a1;}.cls-6{fill:#b70027;}.cls-7{clip-path:url(#clip-path);}.cls-8{fill:#0c0a35;}.cls-9{fill:#f70032;}.cls-10{fill:#d6002b;}.cls-11{clip-path:url(#clip-path-2);}.cls-12{clip-path:url(#clip-path-3);}.cls-13{clip-path:url(#clip-path-4);}.cls-14{clip-path:url(#clip-path-5);}.cls-15{clip-path:url(#clip-path-6);}.cls-16{fill:#222272;}</style><clipPath id="clip-path" transform="translate(-309.11 -99.97)"><path class="cls-1" d="M430.9,271.35c1.08-1,1.87-2.35,3.14-3.09,1.81-1.05,4.12-.59,6.06.23s3.74,2,5.81,2.31c3.45.55,6.88-1.38,9.31-3.89s4.18-5.6,6.41-8.29c1.59-1.9,3.4-3.59,4.94-5.53a25.13,25.13,0,0,0,4.4-21.73,26.39,26.39,0,0,0-14.48-16.9,5,5,0,0,0-2.12-.56,5.37,5.37,0,0,0-2.45.92c-2,1.13-3.93,2.27-5.78,3.57a38.64,38.64,0,0,0-13.53,17.12c-.83,2.08-1.52,4.3-3.05,5.94-1.83,2-4.56,2.77-7,4a21.8,21.8,0,0,0-10.73,12c-1.73,4.86-1.2,11.22,3.18,14a13.88,13.88,0,0,0,5.14,1.67C423.88,273.72,428.13,273.88,430.9,271.35Z"/></clipPath><clipPath id="clip-path-2" transform="translate(-309.11 -99.97)"><path class="cls-2" d="M540.36,224.54c.2,5,.38,10.1-1.28,14.79-.8,2.28-2,4.41-2.62,6.75s-.42,5.09,1.27,6.82a35.06,35.06,0,0,0,3.35,2.4c3,2.43,3.35,7.13,1.67,10.6s-4.94,5.92-8.3,7.82c-6.06,3.42-13,5.52-20,4.92s-13.76-4.17-17.39-10.1a14,14,0,0,1-2.23-8c.17-2.79.88-6,2.95-7.84,5.75-5.17,11-3.25,10.87-8.79-.09-4-5.62-4.49-7.56-4.72-6.33-.76-18.26-9-7.6-20.43a45.94,45.94,0,0,1,9.14-7.05,6.44,6.44,0,0,0,2.21-2c1.56-2.67-1.24-6-4.19-6.91s-6.29-.73-9-2.29c-3.26-1.9-4.64-5.93-4.9-9.68s.33-7.56-.17-11.29a19.48,19.48,0,0,0-4-9.48,9.6,9.6,0,0,0-3.48-2.95,12.28,12.28,0,0,0-4.12-.82c-4.93-.39-9.88-.6-14.82-.62-2.6,0-5.32,0-7.64,1.22-7.61,3.86-8.29,16.9-15.69,21.14-3.34,1.91-7.81,1.93-11.5.86-4.75-1.37-7.43-4.84-9.2-9.45-2.35-6.09,1.94-13.23,7.88-15.93,3.09-1.42,7.22-1.71,9-4.61,2.64-4.21-.09-5.69.91-8.52,1.58-4.39,7.79-8.12,12.44-8.44s9.67-.15,11.6,4c.44.93.7,1.94,1.17,2.86,1.83,3.45,6.42,4.63,10.23,3.77s7.06-3.26,10.27-5.49,6.7-4.4,10.59-4.68a17.08,17.08,0,0,1,9.33,2.51c10.36,5.8,16.29,17,21.53,27.64,3.89,7.88,7.73,15.82,10.4,24.2C534.56,206.13,540,214.72,540.36,224.54Z"/></clipPath><clipPath id="clip-path-3" transform="translate(-309.11 -99.97)"><path class="cls-2" d="M537.37,241.08c3,.35,5-2.77,6.75-5.17a155.14,155.14,0,0,1,15.26-17.86,36.24,36.24,0,0,0,5-5.82,4.49,4.49,0,0,0,.82-2.31,4.63,4.63,0,0,0-1.63-2.88c-4.57-4.57-9.74-8.43-13.86-13.4S539.08,178,538.42,175.71c-3.74-12.93-4.86-18.68,2.82-40.25a3.34,3.34,0,0,0-2.92-4.52c-7.13-.36-14.52-.82-21.56-1.15a3.16,3.16,0,0,0-2.52,1c-1.93,2.17-3.23,5.91-4.55,8.19s-5.47,6.57-7.77,12.6c-6.23,16.36-3.35,30.84,3.74,46.85,4.79,10.84,10.06,19,20.89,30.22C528.14,230.3,536.92,240.23,537.37,241.08Z"/></clipPath><clipPath id="clip-path-4" transform="translate(-309.11 -99.97)"><path class="cls-1" d="M537.63,450.08c-1.09,1-1.86,2.35-3.14,3.09-1.81,1.05-4.13.6-6.06-.23s-3.74-2-5.81-2.32c-3.46-.54-6.88,1.39-9.31,3.9s-4.19,5.61-6.43,8.29c-1.57,1.9-3.39,3.59-4.92,5.53a25.13,25.13,0,0,0-4.4,21.73A26.34,26.34,0,0,0,512,507a4.88,4.88,0,0,0,2.11.56,5.48,5.48,0,0,0,2.45-.92c2-1.12,3.94-2.26,5.79-3.57a38.68,38.68,0,0,0,13.52-17.12c.84-2.08,1.54-4.3,3.05-5.94,1.84-2,4.56-2.77,7-4a21.84,21.84,0,0,0,10.72-12c1.75-4.86,1.2-11.22-3.18-14a13.7,13.7,0,0,0-5.13-1.66C544.65,447.72,540.41,447.56,537.63,450.08Z"/></clipPath><clipPath id="clip-path-5" transform="translate(-309.11 -99.97)"><path class="cls-2" d="M428.17,496.89c-.21-5-.39-10.1,1.28-14.78.8-2.29,2-4.42,2.61-6.75s.42-5.09-1.26-6.83a37,37,0,0,0-3.36-2.39c-3-2.44-3.35-7.14-1.67-10.61s5-5.92,8.31-7.81c6.06-3.43,13-5.53,19.95-4.93s13.77,4.17,17.4,10.1a14,14,0,0,1,2.22,8c-.16,2.8-.87,6-2.95,7.84-5.75,5.17-11,3.25-10.87,8.79.09,4,5.63,4.49,7.56,4.72,6.33.76,18.26,9,7.61,20.43a46.45,46.45,0,0,1-9.13,7.05,6.3,6.3,0,0,0-2.22,2c-1.57,2.68,1.24,6,4.19,6.91s6.29.73,9,2.29c3.25,1.91,4.64,5.92,4.89,9.69s-.34,7.55.17,11.28a19.69,19.69,0,0,0,4,9.48,9.68,9.68,0,0,0,3.48,2.95,12.55,12.55,0,0,0,4.12.83c4.93.37,9.88.59,14.83.62,2.6,0,5.31-.05,7.63-1.22,7.61-3.87,8.29-16.91,15.7-21.15,3.34-1.91,7.8-1.93,11.5-.87,4.75,1.37,7.42,4.85,9.19,9.46,2.35,6.1-1.93,13.22-7.87,15.93-3.11,1.44-7.22,1.71-9,4.61-2.64,4.21.09,5.7-.92,8.52-1.57,4.4-7.78,8.13-12.44,8.44s-9.67.15-11.59-4c-.44-.93-.69-1.94-1.18-2.85-1.82-3.47-6.41-4.63-10.23-3.78s-7.06,3.26-10.27,5.49-6.69,4.4-10.6,4.68a17,17,0,0,1-9.32-2.51c-10.35-5.8-16.28-17-21.53-27.64C443.45,541,439.62,533,437,524.67,434,515.3,428.57,506.71,428.17,496.89Z"/></clipPath><clipPath id="clip-path-6" transform="translate(-309.11 -99.97)"><path class="cls-2" d="M431.15,480.35c-3-.35-4.94,2.77-6.75,5.16a152.2,152.2,0,0,1-15.25,17.87,35.41,35.41,0,0,0-5,5.83,4.19,4.19,0,0,0-.81,2.3,4.41,4.41,0,0,0,1.62,2.87c4.56,4.58,9.73,8.44,13.86,13.42s10.67,15.62,11.34,17.92c3.73,12.93,4.86,18.68-2.82,40.25a3.34,3.34,0,0,0,2.92,4.52c7.13.36,14.52.83,21.55,1.16a3.23,3.23,0,0,0,2.53-1c1.92-2.16,3.23-5.91,4.54-8.18s5.48-6.57,7.78-12.61C472.84,553.49,470,539,462.87,523c-4.8-10.85-10.06-19-20.89-30.23C440.38,491.12,431.61,481.2,431.15,480.35Z"/></clipPath></defs><g id="Layer_1" data-name="Layer 1"><path class="cls-3" d="M621.24,619.19H338.68a28.81,28.81,0,0,1-28.79-28.8V129.55a28.81,28.81,0,0,1,28.79-28.8H621.24A28.8,28.8,0,0,1,650,129.55V590.39A28.8,28.8,0,0,1,621.24,619.19Z" transform="translate(-309.11 -99.97)"/><path class="cls-4" d="M621.24,620H338.68a29.61,29.61,0,0,1-29.57-29.58V129.55A29.61,29.61,0,0,1,338.68,100H621.24a29.61,29.61,0,0,1,29.58,29.58V590.39A29.61,29.61,0,0,1,621.24,620ZM338.68,101.54a28,28,0,0,0-28,28V590.39a28.06,28.06,0,0,0,28,28H621.24a28.06,28.06,0,0,0,28-28V129.55a28,28,0,0,0-28-28Z" transform="translate(-309.11 -99.97)"/><path class="cls-5" d="M571,423.34c.24,1.13-3,3.88-4,4.32-7.11,2.94-31.78,4.4-39.24,6.26s-17.21,6.27-20.29,13.31c-2.23,5.13-1.63,11.09,0,16.44a15.28,15.28,0,0,1,1,4.83,10.33,10.33,0,0,1-1.86,5.16c-2.86,4.48-7.24,7.79-11.74,10.6-7.66,4.75-16.48,8.44-25.43,7.55a18.16,18.16,0,0,1-9.7-3.67c-5.91-4.83-6.7-13.39-7.12-21s1.11-20.34-5.48-24.17c-6.21-3.62-48.29-9.79-25-10.3,1,0,17-.84,17.53-1.67,5.06-8.18,15.89-4.6,22.54-11.56,5-5.28,10.68-10.26,17.52-12.79s14.23-2.43,21.48-2.3c4,.06,8.05.14,11.87,1.33,9.59,3,16,12.45,25.43,15.88C542.05,422.86,570.88,422.79,571,423.34Z" transform="translate(-309.11 -99.97)"/><path class="cls-6" d="M373.14,314.83a94.75,94.75,0,0,1,3.05,36.56,27.5,27.5,0,0,1-1.63,7.42c-2.81,6.9-10.22,12.45-13.23,19.3a17.12,17.12,0,0,0,1.91,17c3.66,5.21,10.22,9.33,17.92,11.27a9.21,9.21,0,0,1,2.47.83,4.8,4.8,0,0,1,2,2.74c1.52,3.95,2.57,5.26,4.09,9.22,1.36,3.53,3.81,6.37,6.24,9.61s6.09,5.32,10.55,7.18a37.83,37.83,0,0,0,22.77,2.58c6-1,10.72-1.89,16.11-4s29-13,33.75-16.08c11.31-7.4,30.33-7.72,42.29-.86,5.18,3,9,7.05,14.61,9.62,7,3.22,12.72,5.26,21,5.22,9.89-.05,19.34-4.66,21.78-6.08,8.09-4.66,11.13-8.65,13.72-15.84q3.74-10.35,7.48-20.7A77,77,0,0,0,604,376a70.75,70.75,0,0,0,.6-11.54c0-13.75,0-27.54-2-41.22a9.15,9.15,0,0,0-1.92-5.09,6.82,6.82,0,0,0-6.34-1.95c-10.94,2.76-24.75,2.21-36.25,3.35-14.85,1.47-29.94.8-44.91.12l-48.95-2.21-45.57-2.05a134.08,134.08,0,0,1-15.85-1.35c-3.48-.59-6.85-1.44-10.37-1.88C386.08,311.43,379,312.87,373.14,314.83Z" transform="translate(-309.11 -99.97)"/><path class="cls-1" d="M430.9,271.35c1.08-1,1.87-2.35,3.14-3.09,1.81-1.05,4.12-.59,6.06.23s3.74,2,5.81,2.31c3.45.55,6.88-1.38,9.31-3.89s4.18-5.6,6.41-8.29c1.59-1.9,3.4-3.59,4.94-5.53a25.13,25.13,0,0,0,4.4-21.73,26.39,26.39,0,0,0-14.48-16.9,5,5,0,0,0-2.12-.56,5.37,5.37,0,0,0-2.45.92c-2,1.13-3.93,2.27-5.78,3.57a38.64,38.64,0,0,0-13.53,17.12c-.83,2.08-1.52,4.3-3.05,5.94-1.83,2-4.56,2.77-7,4a21.8,21.8,0,0,0-10.73,12c-1.73,4.86-1.2,11.22,3.18,14a13.88,13.88,0,0,0,5.14,1.67C423.88,273.72,428.13,273.88,430.9,271.35Z" transform="translate(-309.11 -99.97)"/><g class="cls-7"><path class="cls-8" d="M415,280.26c-2.52-6.32-2.69-13.88.57-20s11.14-9.05,16.38-12.88c8.13-5.94,10-14.4,11.3-23.91,0-.34-.41-.6-.59-.25-4.05,7.13-3.62,14.72-10,20.88-4.74,4.61-11.14,7.07-16,11.53-6.47,5.92-7.9,18.18-2.07,24.83.16.18.5,0,.41-.24Z" transform="translate(-309.11 -99.97)"/><path class="cls-8" d="M418.87,277.46c-.52-7.26.93-12.79,7-17.3,4.13-3.08,8.53-5.73,12.82-8.55,5.95-3.93,11-9.46,10.36-17a.63.63,0,0,0-1.24-.16c-2.94,7.23-5.88,11.41-12.4,15.85-4.24,2.89-8.49,5.7-12.56,8.83-5.92,4.57-7.53,11.53-4.67,18.41.14.34.75.35.72-.1Z" transform="translate(-309.11 -99.97)"/><path class="cls-8" d="M422.3,279.28c2.2-10.93,9.18-15.23,17.93-20.94,5.66-3.71,10.87-8.18,11.95-15.2a.65.65,0,0,0-1.19-.5c-3.24,4.77-4.83,8.61-9.72,12.23-4,2.94-8.73,5-12.42,8.28-4.77,4.28-8.26,9.52-7.25,16.13,0,.36.63.34.7,0Z" transform="translate(-309.11 -99.97)"/><path class="cls-8" d="M430.87,279c1.92-8.91,6.83-13.64,15-17,5.26-2.18,8.63-7,10.56-12.21a.6.6,0,0,0-.88-.67c-3,2.05-4.12,5.57-6.56,8.23-3,3.27-8.11,3.5-11.44,6.34-4.24,3.61-8.54,9.49-7.28,15.33a.31.31,0,0,0,.59,0Z" transform="translate(-309.11 -99.97)"/><path class="cls-8" d="M439.46,279.18c1.45-13,19.36-15.23,21.21-28.89.07-.53-.62-.94-.93-.4-2.05,3.67-3.83,7.15-6.72,10.24-2.43,2.6-5.51,4.42-8.28,6.62-3.41,2.71-9.25,7.9-5.78,12.56a.27.27,0,0,0,.5-.13Z" transform="translate(-309.11 -99.97)"/></g><path class="cls-5" d="M397.52,298.08c-.23-1.12,3-3.87,4-4.31,7.11-2.94,31.79-4.39,39.24-6.26s17.22-6.27,20.29-13.31c2.24-5.13,1.63-11.08,0-16.43a16.27,16.27,0,0,1-1-4.84,10.29,10.29,0,0,1,1.86-5.16c2.86-4.49,7.23-7.79,11.76-10.6,7.64-4.75,16.46-8.45,25.42-7.54a18,18,0,0,1,9.69,3.66c5.91,4.83,6.71,13.39,7.13,21s-1.11,20.33,5.47,24.17c6.22,3.63,48.29,9.79,25,10.3-1,0-17,.84-17.53,1.67-5.07,8.18-15.9,4.6-22.55,11.56-5,5.28-10.67,10.26-17.51,12.8s-14.24,2.42-21.48,2.29c-4-.07-8.06-.15-11.86-1.33-9.6-3-16-12.45-25.44-15.89C426.47,298.57,397.64,298.64,397.52,298.08Z" transform="translate(-309.11 -99.97)"/><path class="cls-6" d="M595.39,406.6A94.74,94.74,0,0,1,592.33,370a27.53,27.53,0,0,1,1.65-7.42c2.79-6.9,10.2-12.45,13.21-19.3a17.1,17.1,0,0,0-1.91-17c-3.66-5.2-10.22-9.33-17.91-11.26a9.44,9.44,0,0,1-2.47-.82,4.87,4.87,0,0,1-2-2.74c-1.51-3.95-2.56-5.27-4.08-9.22-1.36-3.55-3.79-6.38-6.23-9.62s-6.11-5.32-10.56-7.18a37.77,37.77,0,0,0-22.75-2.58c-6,1-10.73,1.89-16.11,4s-29,13-33.76,16.09c-11.31,7.39-30.33,7.71-42.29.85-5.18-3-9-7-14.61-9.62-7-3.22-12.72-5.26-21-5.22-9.88,0-19.32,4.67-21.76,6.08-8.09,4.67-11.13,8.65-13.72,15.84q-3.75,10.35-7.48,20.71a76.73,76.73,0,0,0-4,13.73,71.7,71.7,0,0,0-.6,11.53c0,13.76,0,27.54,2,41.22a9.13,9.13,0,0,0,1.92,5.09,6.82,6.82,0,0,0,6.35,1.95c10.93-2.76,24.75-2.21,36.24-3.35,14.86-1.47,29.94-.8,44.91-.12l49,2.2L549.87,406a132.68,132.68,0,0,1,15.87,1.36c3.46.58,6.84,1.42,10.36,1.86C582.45,410,589.55,408.56,595.39,406.6Z" transform="translate(-309.11 -99.97)"/><path class="cls-1" d="M501.51,253.64c1.51,2.69,3.05,5.86,1.91,8.72a9.49,9.49,0,0,1-3,3.55,48.42,48.42,0,0,1-40.37,9.76c2.42-3.24,2.47-8.77,3-8.7,13.54,1.74,28.77-3.85,36.89-14.84C500.68,252.25,501.14,253,501.51,253.64Z" transform="translate(-309.11 -99.97)"/><path class="cls-8" d="M473.51,299.87a3.84,3.84,0,0,1-4.73-.55,6.28,6.28,0,0,1-1.69-4.71,19.07,19.07,0,0,1,1.08-5c.66-2.11,1.33-4.22,2-6.34a14.48,14.48,0,0,1,2.75-5.67c.26-.28.7-.54,1-.28a.69.69,0,0,1,.17.4c1.32,6.19,2.65,12.63,1.26,18.81A5.54,5.54,0,0,1,473.51,299.87Z" transform="translate(-309.11 -99.97)"/><path class="cls-8" d="M448.74,288.89a3.49,3.49,0,0,1-.22-4.13,10.2,10.2,0,0,1,3.22-3A62.56,62.56,0,0,0,459,276.3c1.19-1.12,1.58.15,1.58,1.16-.35,2.7-1.36,4.32-2.48,6.81a9.21,9.21,0,0,1-5.82,5.33A3.78,3.78,0,0,1,448.74,288.89Z" transform="translate(-309.11 -99.97)"/><path class="cls-8" d="M491.36,289.82a4.66,4.66,0,0,0,5.14-.87c1-.87.92-3.88.7-5.18-1-5.31-3.39-7-6.33-9.58-.55-.49-1.41-1-1.92-.45a1.45,1.45,0,0,0-.28,1.06c0,2.83-.13,5.66,0,8.49C488.91,286.94,489.64,288.81,491.36,289.82Z" transform="translate(-309.11 -99.97)"/><path class="cls-5" d="M445.24,164.45c-.54-.45-1.31.14-1.72.71-4.42,6.29-2.35,14.88-3.46,22.49A30,30,0,0,1,434.89,200c-3.23,4.44-7.59,7.64-8.56,12.85-.18,1,.61,1.68,1.58,2,2.23.65,5.69.22,7.24,1.61.69.61.65,1.71.68,2.63.19,4.37-1.35,8.79-.39,13.05,1.15,5.15,5.67,8.88,7.65,13.77a59.48,59.48,0,0,1,2,7.59,30.62,30.62,0,0,0,4.54,9.9,8.18,8.18,0,0,0,9.09,2.66c5.09-2,9.53-5.24,13.91-8.47,6.12-4.52,12.44-9.28,15.89-16.06,1-1.9,1.68-3.91,2.64-5.81,2.71-5.34,7.27-9.52,10.42-14.6,4.22-6.78,5.78-14.85,6.53-22.78a40.88,40.88,0,0,0-.09-11,27.85,27.85,0,0,0-9.53-16.15,37.07,37.07,0,0,0-17.18-7.93,88.62,88.62,0,0,0-16.37-1l-13.69,0C449.34,162.07,445.55,162.62,445.24,164.45Z" transform="translate(-309.11 -99.97)"/><path class="cls-8" d="M478.26,167.52a1.45,1.45,0,0,1,.46.49c1.18,1.77,2.37,3.55,3.54,5.32A38.88,38.88,0,0,1,464,177.69a25.73,25.73,0,0,1-17.21-7l4.85-4.44A28.21,28.21,0,0,0,477,167.68,1.44,1.44,0,0,1,478.26,167.52Z" transform="translate(-309.11 -99.97)"/><path class="cls-9" d="M486.87,205.76a9.84,9.84,0,0,0-5.08-2.32A9.52,9.52,0,0,0,475.7,205c-2.75,1.69-4.94,4.66-4.8,7.88.16,3.94,3.69,7,7.42,8.3,2.73.94,6,1.1,8.29-.61a9.77,9.77,0,0,0,3.11-4.85A8.61,8.61,0,0,0,486.87,205.76Z" transform="translate(-309.11 -99.97)"/><path class="cls-9" d="M438.62,225.06c.93-2.31,2.07-4.23,4.56-4.44s4.35,2.59,3.92,4.74a62.29,62.29,0,0,1-6,16.82c-1.73-1-9.33-11.17-9.18-15.93a5.35,5.35,0,0,1,1.19-3.59,3.22,3.22,0,0,1,5.54,2.4Z" transform="translate(-309.11 -99.97)"/><path class="cls-10" d="M540.36,224.54c.2,5,.38,10.1-1.28,14.79-.8,2.28-2,4.41-2.62,6.75s-.42,5.09,1.27,6.82a35.06,35.06,0,0,0,3.35,2.4c3,2.43,3.35,7.13,1.67,10.6s-4.94,5.92-8.3,7.82c-6.06,3.42-13,5.52-20,4.92s-13.76-4.17-17.39-10.1a14,14,0,0,1-2.23-8c.17-2.79.88-6,2.95-7.84,5.75-5.17,11-3.25,10.87-8.79-.09-4-5.62-4.49-7.56-4.72-6.33-.76-18.26-9-7.6-20.43a45.94,45.94,0,0,1,9.14-7.05,6.44,6.44,0,0,0,2.21-2c1.56-2.67-1.24-6-4.19-6.91s-6.29-.73-9-2.29c-3.26-1.9-4.64-5.93-4.9-9.68s.33-7.56-.17-11.29a19.48,19.48,0,0,0-4-9.48,9.6,9.6,0,0,0-3.48-2.95,12.28,12.28,0,0,0-4.12-.82c-4.93-.39-9.88-.6-14.82-.62-2.6,0-5.32,0-7.64,1.22-7.61,3.86-8.29,16.9-15.69,21.14-3.34,1.91-7.81,1.93-11.5.86-4.75-1.37-7.43-4.84-9.2-9.45-2.35-6.09,1.94-13.23,7.88-15.93,3.09-1.42,7.22-1.71,9-4.61,2.64-4.21-.09-5.69.91-8.52,1.58-4.39,7.79-8.12,12.44-8.44s9.67-.15,11.6,4c.44.93.7,1.94,1.17,2.86,1.83,3.45,6.42,4.63,10.23,3.77s7.06-3.26,10.27-5.49,6.7-4.4,10.59-4.68a17.08,17.08,0,0,1,9.33,2.51c10.36,5.8,16.29,17,21.53,27.64,3.89,7.88,7.73,15.82,10.4,24.2C534.56,206.13,540,214.72,540.36,224.54Z" transform="translate(-309.11 -99.97)"/><path class="cls-8" d="M432.55,230.21c1.9,3.06,7.54,2.06,10.46,1.56,4.19-.74,9.37-2.76,12-6.25a.3.3,0,0,0-.34-.45c-3.45,1.45-6.56,3.34-10.22,4.34-4.05,1.1-7.68.31-11.69.49a.21.21,0,0,0-.18.31Z" transform="translate(-309.11 -99.97)"/><path class="cls-8" d="M462,265.24c7.72-2.06,13.53-8,19.38-13.09a27.31,27.31,0,0,0,9-15.06.31.31,0,0,0-.59-.17c-2.3,6.14-5.12,9.38-9.94,13.67-3.06,2.73-6.12,5.49-9.38,8-2.79,2.14-6.11,3.41-9,5.45a.68.68,0,0,0,.52,1.23Z" transform="translate(-309.11 -99.97)"/><path class="cls-8" d="M447.8,184.26c.23,1.15.77,2.81,2.25,2.6.22,0,.26-.29.19-.45-.44-.94-1.46-1.46-2-2.34a.24.24,0,0,0-.44.19Z" transform="translate(-309.11 -99.97)"/><path class="cls-8" d="M462.63,179a2.68,2.68,0,0,0-.32,1.66.81.81,0,0,0,1.62,0,2.61,2.61,0,0,0-.31-1.66.58.58,0,0,0-1,0Z" transform="translate(-309.11 -99.97)"/><path class="cls-8" d="M454.09,181.15a2.22,2.22,0,0,0,.71,1.72c.64.79,1.91-.23,1.38-1.06a2.16,2.16,0,0,0-1.4-1.19.55.55,0,0,0-.69.53Z" transform="translate(-309.11 -99.97)"/><path class="cls-8" d="M477.39,187.08c.61.3,1-.14,1.5-.52a2.87,2.87,0,0,0,1.22-1.94c0-.32-.36-.43-.59-.33a3.64,3.64,0,0,0-1.33,1.17c-.36.45-.95.7-1,1.32a.35.35,0,0,0,.18.3Z" transform="translate(-309.11 -99.97)"/><path class="cls-8" d="M471,182.61a9.36,9.36,0,0,0,1.26-2.22.28.28,0,0,0-.35-.35,3,3,0,0,0-2.3,2c-.31.81,1,1.33,1.39.58Z" transform="translate(-309.11 -99.97)"/><path class="cls-8" d="M451.35,196.66a11.37,11.37,0,0,1,1.46-1.71c.39-.42.7-.66.72-1.27a.33.33,0,0,0-.33-.33c-1.35,0-2.18,2-2.48,3a.35.35,0,0,0,.63.27Z" transform="translate(-309.11 -99.97)"/><path class="cls-8" d="M458.42,198.7a3.41,3.41,0,0,0,.59-3,.44.44,0,0,0-.63-.26c-1.11.48-1.15,2.08-1,3.11.09.52.75.46,1,.13Z" transform="translate(-309.11 -99.97)"/><path class="cls-8" d="M464.28,199.37c.62-.72,1.21-2.14.32-2.86a.57.57,0,0,0-.8,0c-.89.72-.31,2.14.3,2.86a.13.13,0,0,0,.18,0Z" transform="translate(-309.11 -99.97)"/><path class="cls-8" d="M474,196.7a4.23,4.23,0,0,0-.48-1.6c-.23-.6-.37-1-1-1.13a.39.39,0,0,0-.42.17,1.53,1.53,0,0,0,.11,1.54,2.69,2.69,0,0,0,1,1.49.55.55,0,0,0,.82-.47Z" transform="translate(-309.11 -99.97)"/><path class="cls-8" d="M480.23,194.9c.3-.84-.73-2.07-1.41-2.44a.86.86,0,0,0-1.17,1.17c.27.57,2.07,2.67,2.58,1.27Z" transform="translate(-309.11 -99.97)"/><path class="cls-3" d="M482.37,190.15a33.19,33.19,0,0,1-36.45,1.52,19.66,19.66,0,0,1,25.79-8.19,36.82,36.82,0,0,1,4.15,2.46Z" transform="translate(-309.11 -99.97)"/><path class="cls-8" d="M467.24,186.87a6,6,0,0,0-5.79-1.94,4.92,4.92,0,0,0-3.76,4.24c0,1.87,1.48,3.45,3.17,4.25a6,6,0,0,0,4.4.42C466.7,193.36,470.14,190.41,467.24,186.87Z" transform="translate(-309.11 -99.97)"/><g class="cls-11"><path class="cls-8" d="M439,147c-2,1.95-1.84,4.21-1.9,6.92-.24,10.33-8.29,12.16-15.92,16-7.42,3.74-6.77,12.64-3.64,18.9.3.61,1.16.16,1-.44-1.47-7.71-2.15-14.71,7.14-18.27,3.22-1.24,5.7-2.16,8.42-4.31,7-5.48,2.87-11.48,5.74-18.29.22-.52-.53-.86-.88-.52Z" transform="translate(-309.11 -99.97)"/><path class="cls-8" d="M443.18,150.57c-.88,8.48-3.61,14.1-10.41,19.24-3.35,2.54-7.13,4.15-10.24,7-4.67,4.31-4.2,12.85-.57,17.46.4.5,1.11-.05,1-.57-2-8.72-1.42-14.37,7-19.16a59.87,59.87,0,0,0,7.94-5.43c5.83-4.72,6.51-11.63,5.95-18.58a.33.33,0,0,0-.66,0Z" transform="translate(-309.11 -99.97)"/><path class="cls-8" d="M449.84,147.45c-2.31,7.18-1.23,14-5.34,20.89-3.36,5.58-9.74,8-14.38,12.31-4.2,3.86-6.74,13-2.79,17.57.71.83,2-.23,1.47-1.13-6.8-12,9.64-18.52,15.79-25.41s6.06-15.43,6-24.13a.37.37,0,0,0-.72-.1Z" transform="translate(-309.11 -99.97)"/><path class="cls-8" d="M432.71,196.27c-1-10.11,14.11-18.53,19.66-25.82,4.84-6.36,4.55-16.27,4.14-23.76a1.15,1.15,0,0,0-2.29,0c-.28,5.25,0,10.35-1,15.57C452,169.6,446,175,440.93,179.92c-4.86,4.73-10.49,8.92-9,16.46.09.44.85.34.81-.11Z" transform="translate(-309.11 -99.97)"/><path class="cls-8" d="M460.86,146.41c-1.82,3-.8,7.25-.91,10.66-.18,5.5-4,10.51-3.53,15.91a.67.67,0,0,0,1.25.34c3.91-5.91,7.63-20.44,3.4-26.91a.12.12,0,0,0-.21,0Z" transform="translate(-309.11 -99.97)"/><path class="cls-8" d="M468.9,147.29c-2.55,2.74-3.2,6.05-3.59,9.68-.46,4.33-1.31,9.65,1.26,13.47.25.38,1,.29.94-.26a51.85,51.85,0,0,1-.36-10.64c.31-4.11,0-8.19,2.33-11.81a.37.37,0,0,0-.58-.44Z" transform="translate(-309.11 -99.97)"/><path class="cls-8" d="M477.62,148.34c-3.45,1.52-3.72,7-4.2,10.23-1,6.54-1.22,12.36,2.81,17.93a.55.55,0,0,0,1-.43c-.48-2.13-1.42-4.07-2.06-6.15-1-3.21-.15-7.54.29-10.79.41-3,.44-7.83,2.55-10.28a.32.32,0,0,0-.39-.51Z" transform="translate(-309.11 -99.97)"/><path class="cls-8" d="M486.21,151.16c-3.48-2.33-4.64,5.19-4.94,7.06-1,6.37-2.07,16.05,3.1,20.88a.43.43,0,0,0,.72-.41,43,43,0,0,1-1.9-16.41c.16-2.65-.27-10.09,3-11,.05,0,.05-.08,0-.11Z" transform="translate(-309.11 -99.97)"/><path class="cls-8" d="M491,152.5c-.9,11.82-3.54,28.1,1.76,39.28,3.52,7.42,11.62,11.31,19.4,7.6a.61.61,0,0,0-.3-1.14c-4.12.07-8,0-11.85-1.64-5.23-2.23-6.48-10-6.93-14.83-.91-9.7-1-19.54-1.75-29.27a.17.17,0,0,0-.33,0Z" transform="translate(-309.11 -99.97)"/><path class="cls-8" d="M496.18,153.76c-3.56,8.66-1.34,18.77.28,27.69,1.51,8.32,9.83,12.93,17.74,12,.39-.05.54-.63.1-.73-9.62-2-15.26-5.63-16.7-16.17-1-7.53-2.32-15.06-1.15-22.66a.14.14,0,0,0-.27-.08Z" transform="translate(-309.11 -99.97)"/><path class="cls-8" d="M516.49,207.86c-6.8,2.83-19.6,8.32-20.08,17.33-.54,10.47,11.77,9.05,17.75,14,7.9,6.49-8.8,16.05-12.28,19a15.08,15.08,0,0,0-5,9.6c-.61,7.94,3.83,15.38,12,16.67a.43.43,0,0,0,.33-.79c-11.68-7.21-11.74-18.61-.73-26.58,4.92-3.56,10-7.39,10.3-13.86.23-5.49-5.24-8.14-9.58-9.52a59,59,0,0,1-7.18-2.44c-7.77-3.54-1.15-10.79,1.46-13.38,3.88-3.83,9-6.23,13-10,0,0,0-.08,0-.07Z" transform="translate(-309.11 -99.97)"/><path class="cls-8" d="M521.68,210c-7.16-.12-14.15,6.08-16.89,12.41-2,4.68,3.44,7.29,6.81,8.65,9,3.65,18.83,11.56,9.3,21.73-3.59,3.83-8.38,6-11.78,10.05-5.82,7-2.3,15.35,3.18,21.17.54.58,1.37-.16,1.05-.82-3.83-7.8-6.79-13.94.81-21.44,2.61-2.58,6-4.56,8.69-7,4.17-3.69,5.09-8.66,4.13-13.88-.93-5-5.59-8.66-10-10.46-3.27-1.34-12.29-2.3-9.53-8.61,2.32-5.29,9.1-9.1,14.34-10.76a.53.53,0,0,0-.14-1Z" transform="translate(-309.11 -99.97)"/><path class="cls-8" d="M520.21,215c-4.3,1.16-9.41,3.77-6.86,8.87,1,2,5.23,3.31,7,4.27,6.94,3.73,10,7.62,10.43,15.75.77,13.27-9.47,15.89-14.72,25.64-3.63,6.72,2.35,14.35,6.62,19,.46.49,1.19-.14.9-.7-3.15-5.94-7.67-11.35-3.9-18.34,1.7-3.15,5.56-5.6,8.15-8,4.43-4.09,5.69-9.41,6.11-15.23.36-4.83-.31-11.54-4-15.16a26.32,26.32,0,0,0-6.31-4.49,37.48,37.48,0,0,0-4.24-1.92c-5.73-2.24-3.79-7,.87-9.48a.13.13,0,0,0-.1-.23Z" transform="translate(-309.11 -99.97)"/><path class="cls-8" d="M528.28,283.76a12.13,12.13,0,0,1-.91-10.47c.74-3.07,2.61-5.88,4.34-8.48,2.56-3.86,6.49-6.66,9.25-10.41,4.18-5.68,2.85-12.87-.11-18.62-.24-.48-1.12-.28-1.06.29.93,7.73,2,14.06-3.7,20.45-2.74,3.06-5.39,5.65-7.6,9.12-3.64,5.7-5.71,13.45-1.14,19a.51.51,0,0,0,.81-.1,1,1,0,0,0,.15-.8s0,0,0,0Z" transform="translate(-309.11 -99.97)"/><path class="cls-8" d="M534.49,280.46c-1.23-1.42-.17-7.09,0-8.52.63-4,4-7.05,6.79-9.62,4.6-4.18,7.12-8.39,7.22-14.75a.43.43,0,0,0-.8-.22c-2.14,4.24-3,8.51-6.58,12.06-2.85,2.83-5.65,5.09-7.6,8.66-1.68,3.08-2.78,9.81-.38,12.73a.62.62,0,0,0,.6.16l.6-.13c.17,0,.19-.25.1-.37Z" transform="translate(-309.11 -99.97)"/></g><path class="cls-6" d="M537.37,241.08c3,.35,5-2.77,6.75-5.17a155.14,155.14,0,0,1,15.26-17.86,36.24,36.24,0,0,0,5-5.82,4.49,4.49,0,0,0,.82-2.31,4.63,4.63,0,0,0-1.63-2.88c-4.57-4.57-9.74-8.43-13.86-13.4S539.08,178,538.42,175.71c-3.74-12.93-4.86-18.68,2.82-40.25a3.34,3.34,0,0,0-2.92-4.52c-7.13-.36-14.52-.82-21.56-1.15a3.16,3.16,0,0,0-2.52,1c-1.93,2.17-3.23,5.91-4.55,8.19s-5.47,6.57-7.77,12.6c-6.23,16.36-3.35,30.84,3.74,46.85,4.79,10.84,10.06,19,20.89,30.22C528.14,230.3,536.92,240.23,537.37,241.08Z" transform="translate(-309.11 -99.97)"/><path class="cls-8" d="M535.47,138.52a2.76,2.76,0,1,0-2.74-2.75,2.77,2.77,0,0,0,2.74,2.75Z" transform="translate(-309.11 -99.97)"/><path class="cls-8" d="M531.74,148a2.71,2.71,0,1,0-2.71-2.71,2.74,2.74,0,0,0,2.71,2.71Z" transform="translate(-309.11 -99.97)"/><path class="cls-8" d="M529.86,158.09c3.35,0,3.35-5.21,0-5.21s-3.37,5.21,0,5.21Z" transform="translate(-309.11 -99.97)"/><path class="cls-8" d="M529.73,169.1c3.7,0,3.7-5.74,0-5.74s-3.71,5.74,0,5.74Z" transform="translate(-309.11 -99.97)"/><path class="cls-8" d="M531.64,179a2.71,2.71,0,1,0-2.71-2.71,2.73,2.73,0,0,0,2.71,2.71Z" transform="translate(-309.11 -99.97)"/><path class="cls-8" d="M535.19,187.92a2.43,2.43,0,1,0-2.44-2.43,2.46,2.46,0,0,0,2.44,2.43Z" transform="translate(-309.11 -99.97)"/><path class="cls-8" d="M539.79,195.94c3.47,0,3.47-5.38,0-5.38s-3.47,5.38,0,5.38Z" transform="translate(-309.11 -99.97)"/><path class="cls-8" d="M545.16,203.18a2.88,2.88,0,1,0-2.87-2.88,2.91,2.91,0,0,0,2.87,2.88Z" transform="translate(-309.11 -99.97)"/><path class="cls-8" d="M551.49,209.31a2.91,2.91,0,1,0-2.91-2.92,2.94,2.94,0,0,0,2.91,2.92Z" transform="translate(-309.11 -99.97)"/><path class="cls-8" d="M560.17,213.07l.05,0a2.36,2.36,0,0,0,0-3.35s0,0-.05-.05a2.55,2.55,0,0,0-2.37-.62,2.43,2.43,0,0,0-.58,4.45,2.52,2.52,0,0,0,2.95-.39Z" transform="translate(-309.11 -99.97)"/><g class="cls-12"><path class="cls-8" d="M502.28,138c-10.62,19.87-5.74,42,1.85,62,3.59,9.45,8.41,17.1,16,23.79,7.17,6.37,12,16.87,20.65,21.33a5.26,5.26,0,0,0,6.2-.8l.79-.7a4.15,4.15,0,0,0,0-5.86c-6.29-5.25-11.15-11.33-16.53-17.53-2.89-3.32-13-16.85-14.64-20.93-5.39-13.36-8.89-24-9.05-33.84-.22-12.94,1.13-18.68-.22-28.67-.22-1.61-4.34-.07-5,1.23Z" transform="translate(-309.11 -99.97)"/></g><path class="cls-9" d="M433.22,154.67c-1-1.47-1.93-4.58-6.1-14A33.89,33.89,0,0,1,424,125.16c.29-4.82,1.49-6,2.93-7.68s3.76-1.8,5.75-1.27,3.82,1.66,5.79,2.33A13.57,13.57,0,0,0,451,116.35c3.87-3.08,6-8.24,10.41-10.42,5.3-2.61,12.06.38,15.35,5.3a14.08,14.08,0,0,0,2.93,3.79,10.13,10.13,0,0,0,9.09.77c2.59-1.19,4.52-2.83,7.33-3.3,3.12-.53,6.89-.58,9.62,1,12.66,7.33,10,16.3,9.2,19.69-.79,3.57-5.09,9-10.84,19.11-3.45,6-4.54,9.49-6.11,9.05-15.27-4.16-25.3-5.46-44.5-6.29C448.93,154.86,434.24,156.14,433.22,154.67Z" transform="translate(-309.11 -99.97)"/><path class="cls-8" d="M464.41,117.46c5-1.95,8.59,1.94,9.41,6,.58,2.91,0,5.92-.57,8.83q-1,4.86-2.3,9.65a13.45,13.45,0,0,1-2,4.72l0,0a3.54,3.54,0,0,1-6-.79,46.86,46.86,0,0,1-4.07-14.36c-.48-4.11-.35-8.53,2.43-11.87A7.84,7.84,0,0,1,464.41,117.46Z" transform="translate(-309.11 -99.97)"/><path class="cls-8" d="M502.85,125.78c2.1.91,2.84,3.67,2.2,5.85s-2.31,3.9-4,5.44c-2.41,2.22-9.82,10.94-12.63,12.6l0,0a1.85,1.85,0,0,1-2.62-2.3A111.09,111.09,0,0,1,495.87,129a9.53,9.53,0,0,1,3-2.85A4.64,4.64,0,0,1,502.85,125.78Z" transform="translate(-309.11 -99.97)"/><path class="cls-8" d="M434.49,124.42a5.13,5.13,0,0,1,3.62-.37c1.23.42,3,1.08,3.67,6,.5,3.85,1.84,17.92-.23,18.3-2.87.53-8.52-15.59-9-20.82a2.68,2.68,0,0,1,1.94-3.15Z" transform="translate(-309.11 -99.97)"/><path class="cls-9" d="M452.7,287.07a1.85,1.85,0,0,0,0-3.7,1.85,1.85,0,0,0,0,3.7Z" transform="translate(-309.11 -99.97)"/><path class="cls-9" d="M471.39,297.4c2.73,0,2.73-4.24,0-4.24s-2.74,4.24,0,4.24Z" transform="translate(-309.11 -99.97)"/><path class="cls-9" d="M493.23,287.58c2.68,0,2.68-4.15,0-4.15s-2.68,4.15,0,4.15Z" transform="translate(-309.11 -99.97)"/><path class="cls-9" d="M463.62,278.74a1.57,1.57,0,0,0,0-3.14,1.57,1.57,0,0,0,0,3.14Z" transform="translate(-309.11 -99.97)"/><path class="cls-9" d="M468.51,278.94a1.77,1.77,0,0,0,0-3.54,1.77,1.77,0,0,0,0,3.54Z" transform="translate(-309.11 -99.97)"/><path class="cls-9" d="M478.85,278.16a1.86,1.86,0,0,0,0-3.71,1.86,1.86,0,0,0,0,3.71Z" transform="translate(-309.11 -99.97)"/><path class="cls-9" d="M484.32,276.76a1.89,1.89,0,0,0,0-3.78,1.89,1.89,0,0,0,0,3.78Z" transform="translate(-309.11 -99.97)"/><path class="cls-8" d="M481,312.69c-6.15-.53-12.9,3.52-11.28,10.47,1.72,7.38,11.58,7.67,17.06,5.06,3-1.4,5.56-4.72,5.3-8.11-.35-4.52-4.42-7.18-8.6-7.69a11,11,0,0,0-9.12,3.33,6,6,0,0,0-1.46,5.73c.71,2.46,2.94,3.75,5.21,4.52a4.35,4.35,0,0,0,5.34-3,4.41,4.41,0,0,0-3-5.35c-1-.33-.05,0,.19.25a2.88,2.88,0,0,1,.66,2.75c-.05.19-.94,1.43-.37.87-.79.77.15-.06.47-.22-.89.46.14,0,.33-.08a6,6,0,0,1,.73-.18c-.53.06-.55.07,0,0,.25,0,1.33.19.28,0a7.46,7.46,0,0,1,.84.26c-.32-.12-.27-.08.17.13,1,.57-.46-.51.25.22-.13-.13-.64-1.39-.42-.64a6.17,6.17,0,0,1-.09-.62c0,.48,0,.37.05-.33-.14.44-.09.35.13-.24-.26.39-.2.35.15-.11a6.7,6.7,0,0,1-.7.71c.74-.67-.43.2-.64.32.81-.43-.3.09-.45.14a5.35,5.35,0,0,1-.79.19c.43,0,.38,0-.16,0s-.82,0-1.24,0c-.18,0-1.42-.14-.32,0a6.77,6.77,0,0,1-1-.22c-.75-.21.75.44-.31-.14-.28-.15-.91-.73,0,.07-.87-.74.28.51-.09,0-.2-.3-.39-1,.06.23-.39-1,0,.81,0,.11s-.23,1.13-.05.31c.08-.35.44-.92-.14.24.16-.31.66-.83-.15.13.73-.86-.54.29.07-.12.23-.15,1.08-.51,0-.06a6.5,6.5,0,0,1,1.22-.34c-1.08.22.06,0,.29,0a11.43,11.43,0,0,1,1.65.06c2.37.2,4.35-2.14,4.35-4.35a4.42,4.42,0,0,0-4.35-4.34Z" transform="translate(-309.11 -99.97)"/><path class="cls-9" d="M481,324.46a4.15,4.15,0,0,0,3.87-2.08,3.61,3.61,0,0,0,0-3.75,4.17,4.17,0,0,0-3.87-2.08,4,4,0,0,0,0,7.91Z" transform="translate(-309.11 -99.97)"/><path class="cls-8" d="M463.58,317.15a4.54,4.54,0,0,0-4.21,0c-2.49,1.15-2.62,4.81-.85,6.57a4.22,4.22,0,0,0,5.91,0c1.76-1.76,1.64-5.42-.85-6.57Z" transform="translate(-309.11 -99.97)"/><path class="cls-8" d="M446.87,319.07l.1.06a2.85,2.85,0,1,0,.68-5.2l-.11,0a2.82,2.82,0,0,0-.67,5.11Z" transform="translate(-309.11 -99.97)"/><path class="cls-8" d="M436.23,315.25c3.31,0,3.31-5.13,0-5.13s-3.31,5.13,0,5.13Z" transform="translate(-309.11 -99.97)"/><path class="cls-8" d="M424.5,311.47c2.92,0,2.92-4.52,0-4.52s-2.92,4.52,0,4.52Z" transform="translate(-309.11 -99.97)"/><path class="cls-8" d="M414.94,308.31a1.71,1.71,0,0,0,0-3.42,1.71,1.71,0,0,0,0,3.42Z" transform="translate(-309.11 -99.97)"/><path class="cls-8" d="M499.7,319.4a4.79,4.79,0,0,0,1.74-1.78,3.33,3.33,0,0,0-1.94-4.78,4.29,4.29,0,0,0-3.39.44,3.55,3.55,0,1,0,3.59,6.12Z" transform="translate(-309.11 -99.97)"/><path class="cls-8" d="M510.09,315h.29a3.15,3.15,0,1,0,0-6.29h-.29a3.14,3.14,0,0,0,0,6.27Z" transform="translate(-309.11 -99.97)"/><path class="cls-8" d="M523.17,310.63l.15-.12a2.56,2.56,0,0,0,0-4.34l-.15-.12c-1.66-1.24-4,.46-4,2.29s2.33,3.53,4,2.29Z" transform="translate(-309.11 -99.97)"/><path class="cls-8" d="M534.73,306.67l.27-.08a2.71,2.71,0,0,0,0-5.2l-.27-.06a2.77,2.77,0,1,0,0,5.34Z" transform="translate(-309.11 -99.97)"/><path class="cls-8" d="M544,303.09c2.76,0,2.76-4.28,0-4.28s-2.75,4.28,0,4.28Z" transform="translate(-309.11 -99.97)"/><path class="cls-8" d="M553.6,299.33c2.74,0,2.74-4.27,0-4.27s-2.77,4.27,0,4.27Z" transform="translate(-309.11 -99.97)"/><path class="cls-8" d="M564.44,297.25c2.76,0,2.76-4.28,0-4.28s-2.76,4.28,0,4.28Z" transform="translate(-309.11 -99.97)"/><path class="cls-5" d="M402.81,342.61l-.18.53c2.21.9,3.49,3.4,3.76,5.76a18.65,18.65,0,0,1-.94,7,162.88,162.88,0,0,1-12.1,31.18c-2.28.58-4.66,0-6.94-.56l-25.88-6.47a6.76,6.76,0,0,1-3.35-1.54c-1.33-1.39-1.23-3.59-1-5.5a143.65,143.65,0,0,1,6.54-28.72c1.37-4,3.4-8.48,7.47-9.73,2.22-.69,4.62-.25,6.89.19C386.47,336.61,394.46,338,402.81,342.61Z" transform="translate(-309.11 -99.97)"/><path class="cls-9" d="M391.53,300.59c-5.88-1-12.88-2.37-18.43-.19a25.66,25.66,0,0,0-13,11.78c-1.8,3.38-2.84,7.64-.92,10.94,1.54,2.62,4.53,3.95,7,5.79s-.37,8.19-1.79,10.89c8.76,3.52,18.8,6.25,27.86,8.9,9.94,2.91,14.46,7,15.18,3.55,1.12-5.32,2.14-9.09,3.58-11.23,2.35-3.51,5.34-4.42,8.59-7.1,3.77-3.09,4.37-8.92,2.47-13.41s-5.75-7.84-9.8-10.55C407.31,306.68,399.86,302.07,391.53,300.59Z" transform="translate(-309.11 -99.97)"/><path class="cls-1" d="M383.46,303.18c-5.92-3-13,4.45-16,8.85s-3.23,14.7,2.35,16.88c3.4,1.34,6.75-2,6.11-5.39-.35-1.83-1.7-5.31-.63-7.42,2.23-4.42,5.55-7.12,8.54-10.86a1.47,1.47,0,0,0-.4-2.06Z" transform="translate(-309.11 -99.97)"/><path class="cls-1" d="M393,304.73c-3.94.28-6.55,4-8.82,6.93a35.08,35.08,0,0,0-6.43,15.11c-1,5.21,8.05,7,9.18,1.78a90.11,90.11,0,0,1,3.39-12.18c1.21-3.29,3.89-6.3,4.38-9.75a1.79,1.79,0,0,0-1.7-1.89Z" transform="translate(-309.11 -99.97)"/><path class="cls-1" d="M399.26,308.43c-3.07,7.22-5.86,14.63-8.85,21.89-2.14,5.17,6.29,8.08,8.24,2.8A95.81,95.81,0,0,0,403,318.41c.64-3.32,1.3-7.77-1.32-10.46a1.45,1.45,0,0,0-2.42.48Z" transform="translate(-309.11 -99.97)"/><path class="cls-1" d="M408.12,313.07c0,3.88,1.45,7.32.09,11.16-1.06,3-3.45,5.54-5.62,7.81-1,1.09-2,2.78-1.48,4.37s1.19,2.89,3,3.42a4.53,4.53,0,0,0,4.48-.88c3.31-3.67,6.95-8,7.31-13.22s-1.51-11.13-6.58-13.48a.93.93,0,0,0-1.22.82Z" transform="translate(-309.11 -99.97)"/><path class="cls-1" d="M369.22,334.84c-.66.31-1.06,1.27-1.34,1.9a3.68,3.68,0,0,0-.25,2.83,1.16,1.16,0,0,0,2,.14c.67-1,1.26-3.94.06-4.84a.52.52,0,0,0-.47,0Z" transform="translate(-309.11 -99.97)"/><path class="cls-1" d="M374,336.51c-.65-.21-1.54.47-1.89,1a3.81,3.81,0,0,0-.54,3.32,1.28,1.28,0,0,0,2.18.14,5.26,5.26,0,0,0,.75-2.65c0-.44,0-1.62-.5-1.8Z" transform="translate(-309.11 -99.97)"/><path class="cls-1" d="M377.62,337.85a1.89,1.89,0,0,0-1.69,1.26,5.79,5.79,0,0,0-.57,2.4c.08,1.21,1.65,2,2.43.82a4.9,4.9,0,0,0,.54-2,4.28,4.28,0,0,0,.07-1.85.85.85,0,0,0-.78-.67Z" transform="translate(-309.11 -99.97)"/><path class="cls-1" d="M381.46,339.26c-1.6-.05-2,2.57-2.23,3.72-.27,1.58,2.3,1.77,2.52.14.09-.71,1.25-3.81-.29-3.86Z" transform="translate(-309.11 -99.97)"/><path class="cls-1" d="M384.64,341c-.9.81-1.86,3.08-.79,4.07a1.34,1.34,0,0,0,1.83.13c.67-.48.61-1.3.73-2a2.76,2.76,0,0,0-.42-2.07,1,1,0,0,0-1.35-.09Z" transform="translate(-309.11 -99.97)"/><path class="cls-1" d="M389.7,342.06c-1.55,0-2.11,2.21-2,3.42s2,1.2,2.4.14c.22-.6,1-3.58-.4-3.56Z" transform="translate(-309.11 -99.97)"/><path class="cls-1" d="M392.88,343.49a3.41,3.41,0,0,0-1.28,2.77,1.3,1.3,0,0,0,2.6.15,2.93,2.93,0,0,0-.7-2.87.58.58,0,0,0-.62-.05Z" transform="translate(-309.11 -99.97)"/><path class="cls-1" d="M396.78,345.05a3.32,3.32,0,0,0-.82,3.44.91.91,0,0,0,1.21.41,2.79,2.79,0,0,0,1-3.57.89.89,0,0,0-1.38-.28Z" transform="translate(-309.11 -99.97)"/><path class="cls-1" d="M400.26,346.28a3.24,3.24,0,0,0-.36,3.86,1.28,1.28,0,0,0,1.8.13,2.93,2.93,0,0,0,.05-3.89,1.07,1.07,0,0,0-1.49-.1Z" transform="translate(-309.11 -99.97)"/><path class="cls-1" d="M405,347.84c-1.11-.15-1.72,1.66-1.82,2.47a1.08,1.08,0,0,0,1.95.66c.35-.61,1.14-2.94-.13-3.13Z" transform="translate(-309.11 -99.97)"/><path class="cls-1" d="M484.31,343.48a2.59,2.59,0,0,0,2.25-.25,2.17,2.17,0,0,0,0-3.73,2.56,2.56,0,0,0-2.25-.26,2.22,2.22,0,0,0,0,4.24Z" transform="translate(-309.11 -99.97)"/><path class="cls-1" d="M508.25,359.93a1.67,1.67,0,0,1,.12-.16,2.79,2.79,0,0,0,0-3.79,1.77,1.77,0,0,1-.12-.17,2.87,2.87,0,0,0-2.84-.74,2.91,2.91,0,0,0-.7,5.32,2.9,2.9,0,0,0,3.54-.46Z" transform="translate(-309.11 -99.97)"/><path class="cls-1" d="M522.7,337.89a3.7,3.7,0,0,0,1.24-.2,2.52,2.52,0,0,0,0-4.82,3.7,3.7,0,0,0-1.24-.2c-3.36-.07-3.36,5.29,0,5.22Z" transform="translate(-309.11 -99.97)"/><path class="cls-1" d="M547.18,356.82a2.86,2.86,0,1,0-2.86-2.86,2.89,2.89,0,0,0,2.86,2.86Z" transform="translate(-309.11 -99.97)"/><path class="cls-1" d="M555.07,326a3,3,0,0,0,2.81,1.46A2.3,2.3,0,0,0,559,323.2a2.77,2.77,0,0,0-2-.61,2.38,2.38,0,0,0-2,1.12,2.24,2.24,0,0,0,0,2.28Z" transform="translate(-309.11 -99.97)"/><path class="cls-1" d="M573.54,345.33a1.8,1.8,0,0,0,0-3.59,1.8,1.8,0,0,0,0,3.59Z" transform="translate(-309.11 -99.97)"/><path class="cls-1" d="M517.24,394.56c3,0,3-4.73,0-4.73s-3,4.73,0,4.73Z" transform="translate(-309.11 -99.97)"/><path class="cls-1" d="M530.7,383.29c3,0,3-4.74,0-4.74s-3.05,4.74,0,4.74Z" transform="translate(-309.11 -99.97)"/><path class="cls-1" d="M535.39,397.69c3.06,0,3.06-4.73,0-4.73s-3,4.73,0,4.73Z" transform="translate(-309.11 -99.97)"/><path class="cls-8" d="M436.23,214.53a1.06,1.06,0,0,0,0-2.12,1.06,1.06,0,0,0,0,2.12Z" transform="translate(-309.11 -99.97)"/><path class="cls-1" d="M537.63,450.08c-1.09,1-1.86,2.35-3.14,3.09-1.81,1.05-4.13.6-6.06-.23s-3.74-2-5.81-2.32c-3.46-.54-6.88,1.39-9.31,3.9s-4.19,5.61-6.43,8.29c-1.57,1.9-3.39,3.59-4.92,5.53a25.13,25.13,0,0,0-4.4,21.73A26.34,26.34,0,0,0,512,507a4.88,4.88,0,0,0,2.11.56,5.48,5.48,0,0,0,2.45-.92c2-1.12,3.94-2.26,5.79-3.57a38.68,38.68,0,0,0,13.52-17.12c.84-2.08,1.54-4.3,3.05-5.94,1.84-2,4.56-2.77,7-4a21.84,21.84,0,0,0,10.72-12c1.75-4.86,1.2-11.22-3.18-14a13.7,13.7,0,0,0-5.13-1.66C544.65,447.72,540.41,447.56,537.63,450.08Z" transform="translate(-309.11 -99.97)"/><g class="cls-13"><path class="cls-8" d="M553.52,441.16c2.51,6.33,2.69,13.9-.57,20s-11.13,9.05-16.37,12.87c-8.13,5.94-10,14.41-11.3,23.91,0,.34.4.6.6.25,4-7.13,3.6-14.71,9.94-20.87,4.76-4.62,11.15-7.08,16-11.53,6.48-5.92,7.92-18.18,2.08-24.83-.15-.18-.5,0-.41.22Z" transform="translate(-309.11 -99.97)"/><path class="cls-8" d="M549.66,444c.51,7.25-.93,12.77-7,17.29-4.11,3.08-8.52,5.73-12.8,8.56-6,3.92-11,9.45-10.37,17a.63.63,0,0,0,1.24.17c2.94-7.24,5.89-11.42,12.4-15.86,4.24-2.9,8.5-5.7,12.56-8.83,5.92-4.57,7.54-11.53,4.68-18.4-.15-.35-.75-.35-.72.1Z" transform="translate(-309.11 -99.97)"/><path class="cls-8" d="M546.22,442.16c-2.2,10.92-9.17,15.22-17.92,20.93-5.67,3.71-10.88,8.19-11.95,15.2a.66.66,0,0,0,1.19.51c3.24-4.78,4.82-8.61,9.71-12.23,4-2.95,8.74-5,12.42-8.29,4.78-4.28,8.27-9.52,7.26-16.12a.37.37,0,0,0-.71,0Z" transform="translate(-309.11 -99.97)"/><path class="cls-8" d="M537.66,442.45c-1.93,8.92-6.84,13.65-15,17-5.28,2.18-8.64,7-10.57,12.22a.59.59,0,0,0,.87.66c3-2,4.12-5.56,6.57-8.23,3-3.27,8.11-3.51,11.43-6.34,4.24-3.62,8.53-9.49,7.29-15.34a.31.31,0,0,0-.59,0Z" transform="translate(-309.11 -99.97)"/><path class="cls-8" d="M529.07,442.26c-1.46,13-19.36,15.22-21.21,28.89-.07.52.62.93.93.39,2-3.67,3.82-7.14,6.72-10.24,2.43-2.61,5.51-4.42,8.26-6.62,3.42-2.71,9.27-7.9,5.79-12.56a.26.26,0,0,0-.49.14Z" transform="translate(-309.11 -99.97)"/></g><path class="cls-1" d="M467,467.79c-1.51-2.69-3-5.86-1.9-8.72a9.16,9.16,0,0,1,3-3.54,48.44,48.44,0,0,1,40.38-9.77c-2.43,3.25-2.48,8.77-3,8.71-13.55-1.75-28.78,3.85-36.88,14.84C467.85,469.18,467.38,468.46,467,467.79Z" transform="translate(-309.11 -99.97)"/><path class="cls-8" d="M495,421.56a3.84,3.84,0,0,1,4.73.54,6.32,6.32,0,0,1,1.69,4.73,19,19,0,0,1-1.08,5q-1,3.18-2,6.35a14.39,14.39,0,0,1-2.75,5.68c-.25.27-.69.53-1,.27a.78.78,0,0,1-.18-.39c-1.32-6.2-2.65-12.64-1.26-18.82A5.5,5.5,0,0,1,495,421.56Z" transform="translate(-309.11 -99.97)"/><path class="cls-8" d="M519.8,432.54a3.52,3.52,0,0,1,.2,4.13,10.28,10.28,0,0,1-3.21,3,62.85,62.85,0,0,0-7.29,5.45c-1.18,1.12-1.58-.15-1.58-1.15.34-2.7,1.35-4.33,2.48-6.81a9.14,9.14,0,0,1,5.81-5.33A3.79,3.79,0,0,1,519.8,432.54Z" transform="translate(-309.11 -99.97)"/><path class="cls-8" d="M477.17,431.62a4.64,4.64,0,0,0-5.14.86c-1,.87-.93,3.88-.69,5.18.94,5.31,3.37,7,6.32,9.59.55.48,1.41,1,1.93.44a1.54,1.54,0,0,0,.27-1.06c0-2.83.13-5.66,0-8.49C479.61,434.49,478.89,432.62,477.17,431.62Z" transform="translate(-309.11 -99.97)"/><path class="cls-5" d="M523.29,557c.54.44,1.31-.14,1.71-.71,4.42-6.3,2.35-14.87,3.45-22.49a30.19,30.19,0,0,1,5.2-12.36c3.22-4.44,7.58-7.63,8.55-12.84.19-1-.61-1.67-1.58-1.95-2.24-.65-5.68-.21-7.24-1.6-.7-.62-.65-1.72-.69-2.64-.19-4.37,1.36-8.79.4-13.05-1.16-5.15-5.67-8.88-7.65-13.77a58.13,58.13,0,0,1-2-7.58,30.88,30.88,0,0,0-4.54-9.91,8.22,8.22,0,0,0-9.09-2.67c-5.1,2-9.53,5.25-13.92,8.48-6.11,4.52-12.44,9.29-15.89,16.06-1,1.9-1.68,3.92-2.64,5.81-2.71,5.34-7.26,9.52-10.43,14.61-4.2,6.76-5.77,14.84-6.53,22.78a41.22,41.22,0,0,0,.1,11,28,28,0,0,0,9.54,16.16,37.07,37.07,0,0,0,17.17,7.92,87.87,87.87,0,0,0,16.38,1.06l13.69,0C519.18,559.36,523,558.81,523.29,557Z" transform="translate(-309.11 -99.97)"/><path class="cls-8" d="M490.27,553.92a1.43,1.43,0,0,1-.46-.49l-3.55-5.33a38.78,38.78,0,0,1,18.3-4.36,25.78,25.78,0,0,1,17.21,7l-4.85,4.43a28.2,28.2,0,0,0-25.43-1.38A1.48,1.48,0,0,1,490.27,553.92Z" transform="translate(-309.11 -99.97)"/><path class="cls-9" d="M481.65,515.68a9.9,9.9,0,0,0,5.09,2.31,9.52,9.52,0,0,0,6.09-1.54c2.74-1.69,4.93-4.65,4.81-7.88-.17-3.95-3.7-7-7.44-8.3-2.73-.94-6-1.11-8.29.61a9.77,9.77,0,0,0-3.11,4.85A8.67,8.67,0,0,0,481.65,515.68Z" transform="translate(-309.11 -99.97)"/><path class="cls-9" d="M529.9,496.37c-.92,2.32-2.07,4.23-4.56,4.44s-4.35-2.59-3.91-4.75a62.13,62.13,0,0,1,6-16.81c1.73,1,9.33,11.17,9.18,15.93a5.34,5.34,0,0,1-1.2,3.6,3.29,3.29,0,0,1-3.6.72A3.33,3.33,0,0,1,529.9,496.37Z" transform="translate(-309.11 -99.97)"/><path class="cls-10" d="M428.17,496.89c-.21-5-.39-10.1,1.28-14.78.8-2.29,2-4.42,2.61-6.75s.42-5.09-1.26-6.83a37,37,0,0,0-3.36-2.39c-3-2.44-3.35-7.14-1.67-10.61s5-5.92,8.31-7.81c6.06-3.43,13-5.53,19.95-4.93s13.77,4.17,17.4,10.1a14,14,0,0,1,2.22,8c-.16,2.8-.87,6-2.95,7.84-5.75,5.17-11,3.25-10.87,8.79.09,4,5.63,4.49,7.56,4.72,6.33.76,18.26,9,7.61,20.43a46.45,46.45,0,0,1-9.13,7.05,6.3,6.3,0,0,0-2.22,2c-1.57,2.68,1.24,6,4.19,6.91s6.29.73,9,2.29c3.25,1.91,4.64,5.92,4.89,9.69s-.34,7.55.17,11.28a19.69,19.69,0,0,0,4,9.48,9.68,9.68,0,0,0,3.48,2.95,12.55,12.55,0,0,0,4.12.83c4.93.37,9.88.59,14.83.62,2.6,0,5.31-.05,7.63-1.22,7.61-3.87,8.29-16.91,15.7-21.15,3.34-1.91,7.8-1.93,11.5-.87,4.75,1.37,7.42,4.85,9.19,9.46,2.35,6.1-1.93,13.22-7.87,15.93-3.11,1.44-7.22,1.71-9,4.61-2.64,4.21.09,5.7-.92,8.52-1.57,4.4-7.78,8.13-12.44,8.44s-9.67.15-11.59-4c-.44-.93-.69-1.94-1.18-2.85-1.82-3.47-6.41-4.63-10.23-3.78s-7.06,3.26-10.27,5.49-6.69,4.4-10.6,4.68a17,17,0,0,1-9.32-2.51c-10.35-5.8-16.28-17-21.53-27.64C443.45,541,439.62,533,437,524.67,434,515.3,428.57,506.71,428.17,496.89Z" transform="translate(-309.11 -99.97)"/><path class="cls-8" d="M536,491.22c-1.9-3.06-7.53-2.06-10.45-1.55-4.19.74-9.38,2.76-12,6.25-.15.19.1.54.34.44,3.45-1.45,6.56-3.34,10.22-4.34,4-1.09,7.68-.31,11.69-.49a.2.2,0,0,0,.17-.31Z" transform="translate(-309.11 -99.97)"/><path class="cls-8" d="M506.52,456.19c-7.73,2.06-13.54,8-19.38,13.1a27.22,27.22,0,0,0-9,15.06.31.31,0,0,0,.6.15c2.29-6.13,5.12-9.36,9.93-13.66,3.06-2.73,6.13-5.49,9.39-8,2.78-2.14,6.1-3.41,8.95-5.45a.67.67,0,0,0-.51-1.23Z" transform="translate(-309.11 -99.97)"/><path class="cls-8" d="M520.73,537.17c-.23-1.14-.77-2.8-2.26-2.59-.22,0-.26.28-.18.44.44,1,1.46,1.47,2,2.35a.25.25,0,0,0,.45-.2Z" transform="translate(-309.11 -99.97)"/><path class="cls-8" d="M505.9,542.49a2.57,2.57,0,0,0,.31-1.66.81.81,0,0,0-1.61,0,2.58,2.58,0,0,0,.32,1.66.58.58,0,0,0,1,0Z" transform="translate(-309.11 -99.97)"/><path class="cls-8" d="M514.44,540.29a2.21,2.21,0,0,0-.72-1.73c-.63-.78-1.9.23-1.38,1.08a2.29,2.29,0,0,0,1.41,1.19.57.57,0,0,0,.69-.54Z" transform="translate(-309.11 -99.97)"/><path class="cls-8" d="M491.13,534.35c-.61-.29-1,.15-1.5.52a2.8,2.8,0,0,0-1.21,1.94c0,.33.35.43.58.33a3.41,3.41,0,0,0,1.33-1.17c.36-.44,1-.69,1-1.31a.34.34,0,0,0-.18-.31Z" transform="translate(-309.11 -99.97)"/><path class="cls-8" d="M497.56,538.82a9.6,9.6,0,0,0-1.27,2.22.29.29,0,0,0,.35.36,3,3,0,0,0,2.3-2c.31-.82-1-1.34-1.38-.59Z" transform="translate(-309.11 -99.97)"/><path class="cls-8" d="M517.17,524.78a11.22,11.22,0,0,1-1.45,1.71,1.81,1.81,0,0,0-.73,1.26.32.32,0,0,0,.33.32c1.35,0,2.18-1.94,2.49-3a.35.35,0,0,0-.64-.26Z" transform="translate(-309.11 -99.97)"/><path class="cls-8" d="M510.1,522.73a3.45,3.45,0,0,0-.58,3,.44.44,0,0,0,.63.26c1.11-.47,1.13-2.07,1-3.1-.1-.53-.76-.47-1-.14Z" transform="translate(-309.11 -99.97)"/><path class="cls-8" d="M504.24,522.06c-.62.73-1.21,2.15-.32,2.87a.6.6,0,0,0,.81,0c.89-.72.3-2.14-.32-2.87a.12.12,0,0,0-.17,0Z" transform="translate(-309.11 -99.97)"/><path class="cls-8" d="M494.51,524.73a4.19,4.19,0,0,0,.49,1.6c.22.6.36,1,1,1.13a.38.38,0,0,0,.41-.17c.31-.6.16-.93-.1-1.53a2.7,2.7,0,0,0-1-1.5.55.55,0,0,0-.82.47Z" transform="translate(-309.11 -99.97)"/><path class="cls-8" d="M488.29,526.54c-.29.83.74,2.06,1.41,2.43a.86.86,0,0,0,1.17-1.17c-.26-.57-2.06-2.68-2.58-1.26Z" transform="translate(-309.11 -99.97)"/><path class="cls-3" d="M486.16,531.29a33.16,33.16,0,0,1,36.44-1.54A19.66,19.66,0,0,1,496.81,538a39.46,39.46,0,0,1-4.15-2.47Z" transform="translate(-309.11 -99.97)"/><path class="cls-8" d="M501.29,534.56a6,6,0,0,0,5.8,1.94,4.91,4.91,0,0,0,3.75-4.24c0-1.87-1.49-3.45-3.18-4.25a6,6,0,0,0-4.39-.42C501.83,528.07,498.39,531,501.29,534.56Z" transform="translate(-309.11 -99.97)"/><g class="cls-14"><path class="cls-8" d="M529.49,574.48c2-2,1.84-4.22,1.9-6.93.24-10.32,8.28-12.16,15.91-16,7.41-3.74,6.79-12.64,3.65-18.9-.3-.6-1.16-.16-1.05.44,1.48,7.71,2.16,14.71-7.14,18.28-3.22,1.22-5.69,2.15-8.42,4.3-7,5.48-2.86,11.48-5.74,18.3-.22.52.54.86.89.52Z" transform="translate(-309.11 -99.97)"/><path class="cls-8" d="M525.34,570.86c.89-8.48,3.62-14.1,10.43-19.24,3.35-2.53,7.11-4.16,10.22-7,4.68-4.32,4.2-12.86.57-17.46-.4-.51-1.11,0-1,.57,2,8.71,1.43,14.36-7,19.16a57.83,57.83,0,0,0-8,5.43c-5.82,4.71-6.51,11.62-5.93,18.57a.32.32,0,0,0,.64,0Z" transform="translate(-309.11 -99.97)"/><path class="cls-8" d="M518.7,574c2.29-7.17,1.22-14,5.33-20.88,3.36-5.58,9.74-8,14.38-12.31,4.2-3.87,6.74-13,2.79-17.56-.71-.84-2,.22-1.47,1.14,6.8,12-9.65,18.5-15.79,25.38s-6.08,15.45-6,24.15a.37.37,0,0,0,.73.08Z" transform="translate(-309.11 -99.97)"/><path class="cls-8" d="M535.82,525.17c1,10.11-14.11,18.53-19.66,25.81-4.84,6.36-4.56,16.28-4.13,23.76a1.14,1.14,0,0,0,2.27,0c.29-5.25,0-10.35,1-15.57,1.3-7.34,7.23-12.7,12.33-17.66,4.87-4.73,10.49-8.92,9-16.45-.09-.44-.84-.34-.8.11Z" transform="translate(-309.11 -99.97)"/><path class="cls-8" d="M507.66,575c1.81-3,.8-7.24.91-10.67.19-5.49,4-10.5,3.54-15.89a.68.68,0,0,0-1.25-.35C507,554,503.24,568.56,507.45,575a.12.12,0,0,0,.21,0Z" transform="translate(-309.11 -99.97)"/><path class="cls-8" d="M499.63,574.14c2.54-2.74,3.2-6,3.57-9.67.48-4.34,1.33-9.65-1.23-13.47-.26-.37-1-.29-1,.24a51.29,51.29,0,0,1,.35,10.65c-.31,4.11,0,8.19-2.31,11.81a.36.36,0,0,0,.57.44Z" transform="translate(-309.11 -99.97)"/><path class="cls-8" d="M490.91,573.09c3.46-1.51,3.71-7,4.19-10.22,1-6.55,1.22-12.36-2.8-17.94a.56.56,0,0,0-1,.43c.49,2.13,1.42,4.07,2.06,6.16,1,3.2.16,7.53-.28,10.78-.41,3-.45,7.83-2.55,10.27a.33.33,0,0,0,.39.52Z" transform="translate(-309.11 -99.97)"/><path class="cls-8" d="M482.31,570.27c3.49,2.33,4.64-5.2,4.94-7.06,1-6.37,2.07-16-3.1-20.88-.3-.28-.85,0-.72.4a42.31,42.31,0,0,1,1.9,16.42c-.15,2.64.27,10.1-3,11a.06.06,0,0,0,0,.11Z" transform="translate(-309.11 -99.97)"/><path class="cls-8" d="M477.55,568.92c.9-11.81,3.55-28.08-1.76-39.26-3.52-7.44-11.63-11.32-19.41-7.6-.56.26-.27,1.14.31,1.12,4.11-.06,8,0,11.86,1.67,5.22,2.21,6.46,10,6.92,14.82.91,9.7,1,19.53,1.75,29.25a.17.17,0,0,0,.33,0Z" transform="translate(-309.11 -99.97)"/><path class="cls-8" d="M472.35,567.68c3.56-8.66,1.34-18.77-.28-27.7-1.51-8.32-9.84-12.93-17.75-12-.38,0-.54.63-.1.73,9.62,2,15.27,5.64,16.71,16.17,1,7.54,2.32,15.07,1.14,22.67a.15.15,0,0,0,.28.08Z" transform="translate(-309.11 -99.97)"/><path class="cls-8" d="M452,513.57c6.81-2.83,19.61-8.32,20.08-17.33.55-10.47-11.76-9.05-17.76-14-7.89-6.5,8.82-16.06,12.31-19a15.15,15.15,0,0,0,5-9.6c.61-7.94-3.84-15.38-12-16.66a.43.43,0,0,0-.32.78C471,445,471,456.35,460,464.32c-4.92,3.56-10,7.38-10.29,13.86-.23,5.49,5.24,8.15,9.58,9.52a60.13,60.13,0,0,1,7.18,2.44c7.76,3.54,1.16,10.79-1.47,13.38-3.87,3.83-9,6.23-13,10,0,0,0,.09,0,.08Z" transform="translate(-309.11 -99.97)"/><path class="cls-8" d="M446.85,511.47c7.15.12,14.16-6.08,16.89-12.41,2-4.68-3.46-7.29-6.83-8.65-9-3.66-18.82-11.56-9.27-21.73,3.58-3.83,8.36-6,11.77-10.05,5.81-7,2.29-15.35-3.18-21.17-.55-.58-1.38.17-1.06.82,3.84,7.8,6.8,13.94-.8,21.44-2.62,2.58-5.94,4.56-8.71,7-4.15,3.7-5.08,8.67-4.11,13.89.93,5,5.59,8.66,10,10.46,3.25,1.33,12.27,2.3,9.51,8.61-2.32,5.3-9.11,9.1-14.33,10.76a.53.53,0,0,0,.14,1Z" transform="translate(-309.11 -99.97)"/><path class="cls-8" d="M448.31,506.46c4.31-1.15,9.41-3.77,6.86-8.86-1-2.06-5.22-3.31-7-4.28-6.93-3.73-10-7.61-10.43-15.76-.76-13.26,9.49-15.87,14.73-25.62,3.63-6.73-2.36-14.36-6.63-19-.46-.5-1.19.14-.9.69,3.14,5.94,7.67,11.35,3.91,18.34-1.71,3.15-5.57,5.6-8.16,8-4.43,4.09-5.68,9.41-6.11,15.23-.37,4.83.32,11.54,4,15.16a26.16,26.16,0,0,0,6.31,4.5,39.46,39.46,0,0,0,4.24,1.91c5.73,2.23,3.79,7-.87,9.49-.13.06,0,.26.09.22Z" transform="translate(-309.11 -99.97)"/><path class="cls-8" d="M440.24,437.67a12.16,12.16,0,0,1,.92,10.47c-.74,3.08-2.61,5.89-4.34,8.48-2.57,3.87-6.49,6.66-9.25,10.4-4.19,5.69-2.87,12.89.1,18.62.25.49,1.13.29,1.07-.27-.94-7.75-2-14.07,3.69-20.46,2.74-3.05,5.39-5.65,7.62-9.12,3.62-5.71,5.7-13.45,1.12-19.05a.52.52,0,0,0-.81.12,1,1,0,0,0-.14.79s0,0,0,0Z" transform="translate(-309.11 -99.97)"/><path class="cls-8" d="M434,441c1.22,1.42.16,7.09-.05,8.52-.64,4-4,7.05-6.79,9.63-4.61,4.16-7.14,8.38-7.22,14.74a.43.43,0,0,0,.8.22c2.13-4.24,3-8.51,6.57-12.06,2.86-2.83,5.65-5.1,7.61-8.67,1.69-3.06,2.77-9.8.37-12.72a.56.56,0,0,0-.58-.15c-.21,0-.41.08-.61.12a.22.22,0,0,0-.1.37Z" transform="translate(-309.11 -99.97)"/></g><path class="cls-6" d="M431.15,480.35c-3-.35-4.94,2.77-6.75,5.16a152.2,152.2,0,0,1-15.25,17.87,35.41,35.41,0,0,0-5,5.83,4.19,4.19,0,0,0-.81,2.3,4.41,4.41,0,0,0,1.62,2.87c4.56,4.58,9.73,8.44,13.86,13.42s10.67,15.62,11.34,17.92c3.73,12.93,4.86,18.68-2.82,40.25a3.34,3.34,0,0,0,2.92,4.52c7.13.36,14.52.83,21.55,1.16a3.23,3.23,0,0,0,2.53-1c1.92-2.16,3.23-5.91,4.54-8.18s5.48-6.57,7.78-12.61C472.84,553.49,470,539,462.87,523c-4.8-10.85-10.06-19-20.89-30.23C440.38,491.12,431.61,481.2,431.15,480.35Z" transform="translate(-309.11 -99.97)"/><path class="cls-8" d="M433.05,582.93a2.75,2.75,0,1,0,2.75,2.73,2.76,2.76,0,0,0-2.75-2.73Z" transform="translate(-309.11 -99.97)"/><path class="cls-8" d="M436.79,573.47a2.72,2.72,0,1,0,2.7,2.71,2.74,2.74,0,0,0-2.7-2.71Z" transform="translate(-309.11 -99.97)"/><path class="cls-8" d="M438.68,563.34c-3.37,0-3.37,5.22,0,5.22s3.36-5.22,0-5.22Z" transform="translate(-309.11 -99.97)"/><path class="cls-8" d="M438.79,552.34c-3.7,0-3.7,5.74,0,5.74s3.71-5.74,0-5.74Z" transform="translate(-309.11 -99.97)"/><path class="cls-8" d="M436.88,542.42a2.72,2.72,0,1,0,2.71,2.73,2.74,2.74,0,0,0-2.71-2.73Z" transform="translate(-309.11 -99.97)"/><path class="cls-8" d="M433.34,533.52a2.43,2.43,0,1,0,2.43,2.43,2.44,2.44,0,0,0-2.43-2.43Z" transform="translate(-309.11 -99.97)"/><path class="cls-8" d="M428.74,525.5c-3.47,0-3.47,5.38,0,5.38s3.46-5.38,0-5.38Z" transform="translate(-309.11 -99.97)"/><path class="cls-8" d="M423.37,518.25a2.88,2.88,0,1,0,2.87,2.88,2.9,2.9,0,0,0-2.87-2.88Z" transform="translate(-309.11 -99.97)"/><path class="cls-8" d="M417,512.12a2.91,2.91,0,1,0,2.91,2.91,2.94,2.94,0,0,0-2.91-2.91Z" transform="translate(-309.11 -99.97)"/><path class="cls-8" d="M408.36,508.36l-.06.05a2.35,2.35,0,0,0,0,3.34l.06.05a2.58,2.58,0,0,0,2.37.63,2.44,2.44,0,0,0,.58-4.45,2.51,2.51,0,0,0-2.95.38Z" transform="translate(-309.11 -99.97)"/><g class="cls-15"><path class="cls-8" d="M466.26,583.43c10.61-19.87,5.73-42-1.86-62-3.6-9.44-8.42-17.1-16-23.8-7.18-6.36-12-16.86-20.68-21.32a5.24,5.24,0,0,0-6.18.8l-.79.7a4.14,4.14,0,0,0,0,5.87c6.29,5.24,11.15,11.32,16.53,17.52,2.89,3.32,13,16.85,14.64,20.94,5.39,13.35,8.89,24,9.05,33.83.21,12.93-1.13,18.68.21,28.68.22,1.61,4.35.07,5.05-1.24Z" transform="translate(-309.11 -99.97)"/></g><path class="cls-9" d="M535.3,566.77c1,1.46,1.93,4.56,6.11,14a34,34,0,0,1,3.15,15.54c-.28,4.81-1.49,6-2.92,7.68s-3.75,1.79-5.77,1.25-3.8-1.64-5.78-2.31a13.49,13.49,0,0,0-12.54,2.18c-3.88,3.07-6,8.24-10.42,10.42-5.3,2.61-12.07-.39-15.35-5.3a14.44,14.44,0,0,0-2.94-3.79,10.16,10.16,0,0,0-9.09-.77c-2.58,1.19-4.52,2.84-7.33,3.31-3.11.52-6.89.57-9.63-1-12.64-7.32-10-16.29-9.19-19.68.8-3.57,5.09-9,10.85-19.11,3.45-6,4.53-9.49,6.11-9.07,15.26,4.18,25.28,5.46,44.49,6.3C519.59,566.57,534.29,565.3,535.3,566.77Z" transform="translate(-309.11 -99.97)"/><path class="cls-8" d="M504.11,604c-5,2-8.58-1.92-9.41-6-.59-2.9,0-5.92.58-8.82.67-3.25,1.44-6.46,2.29-9.65a13.61,13.61,0,0,1,2-4.73l0,0a3.53,3.53,0,0,1,5.94.79,46.56,46.56,0,0,1,4.08,14.36c.48,4.11.35,8.53-2.43,11.87A7.58,7.58,0,0,1,504.11,604Z" transform="translate(-309.11 -99.97)"/><path class="cls-8" d="M465.67,595.66c-2.09-.91-2.84-3.67-2.19-5.85s2.3-3.9,4-5.45c2.4-2.22,9.82-10.94,12.63-12.6a0,0,0,0,0,0,0,1.84,1.84,0,0,1,2.61,2.3,110.19,110.19,0,0,1-10.07,18.41,9.76,9.76,0,0,1-3,2.84A4.64,4.64,0,0,1,465.67,595.66Z" transform="translate(-309.11 -99.97)"/><path class="cls-8" d="M534,597a5.08,5.08,0,0,1-3.62.36c-1.22-.41-3-1.07-3.68-6-.5-3.85-1.83-17.92.24-18.3,2.87-.52,8.52,15.59,9,20.83A2.68,2.68,0,0,1,534,597Z" transform="translate(-309.11 -99.97)"/><path class="cls-9" d="M515.83,434.36a1.85,1.85,0,0,0,0,3.7,1.85,1.85,0,0,0,0-3.7Z" transform="translate(-309.11 -99.97)"/><path class="cls-9" d="M497.14,424c-2.73,0-2.73,4.23,0,4.23s2.73-4.23,0-4.23Z" transform="translate(-309.11 -99.97)"/><path class="cls-9" d="M475.3,433.85c-2.68,0-2.68,4.15,0,4.15s2.67-4.15,0-4.15Z" transform="translate(-309.11 -99.97)"/><path class="cls-9" d="M504.9,442.7a1.57,1.57,0,0,0,0,3.13,1.57,1.57,0,0,0,0-3.13Z" transform="translate(-309.11 -99.97)"/><path class="cls-9" d="M500,442.49a1.78,1.78,0,0,0,0,3.55,1.78,1.78,0,0,0,0-3.55Z" transform="translate(-309.11 -99.97)"/><path class="cls-9" d="M489.67,443.27a1.86,1.86,0,0,0,0,3.71,1.86,1.86,0,0,0,0-3.71Z" transform="translate(-309.11 -99.97)"/><path class="cls-9" d="M484.21,444.67a1.89,1.89,0,0,0,0,3.78,1.89,1.89,0,0,0,0-3.78Z" transform="translate(-309.11 -99.97)"/><path class="cls-8" d="M487.54,408.75c6.15.52,12.91-3.52,11.3-10.48-1.73-7.38-11.6-7.66-17.08-5.06-3,1.4-5.55,4.73-5.29,8.12.35,4.52,4.41,7.17,8.6,7.68a11,11,0,0,0,9.12-3.33,6.11,6.11,0,0,0,1.47-5.74c-.73-2.44-3-3.73-5.22-4.51a4.35,4.35,0,0,0-2.32,8.38c1,.34.07-.05-.18-.25a2.91,2.91,0,0,1-.66-2.75c.05-.18,1-1.42.38-.87.79-.76-.16.05-.47.22.88-.46-.14,0-.32.09a7.12,7.12,0,0,1-.74.17c.53-.06.54-.07,0,0-.25,0-1.32-.18-.29,0-.27-.08-.54-.16-.81-.26.32.13.25.09-.18-.13-1.05-.57.46.51-.25-.22.13.13.64,1.38.43.63,0,.21.05.42.08.62,0-.47,0-.36-.06.35.15-.45.11-.36-.11.24.24-.39.19-.36-.17.11a6,6,0,0,1,.71-.71c-.75.66.42-.22.64-.33-.82.43.29-.1.43-.14s.54-.14.81-.19c-.43,0-.38,0,.15,0s.83,0,1.24,0c.18,0,1.43.14.32,0a6.77,6.77,0,0,1,1,.22c.76.22-.74-.44.32.13.28.16.9.74,0-.06.87.75-.28-.51.09,0,.2.3.39,1-.06-.23.38,1.05,0-.81,0-.11s.23-1.13.06-.31c-.08.36-.44.92.13-.24-.15.31-.65.84.16-.13-.73.86.53-.29-.09.13-.22.14-1.06.5,0,.06a7.21,7.21,0,0,1-1.23.34c1.09-.23-.05,0-.28,0a11.52,11.52,0,0,1-1.66-.06c-2.36-.21-4.34,2.13-4.34,4.33a4.44,4.44,0,0,0,4.34,4.36Z" transform="translate(-309.11 -99.97)"/><path class="cls-9" d="M487.54,397a4.15,4.15,0,0,0-3.86,2.07,3.57,3.57,0,0,0,0,3.75,4.11,4.11,0,0,0,3.86,2.07,3.95,3.95,0,1,0,0-7.89Z" transform="translate(-309.11 -99.97)"/><path class="cls-8" d="M505,404.27a4.48,4.48,0,0,0,4.21,0c2.49-1.14,2.61-4.8.85-6.56a4.22,4.22,0,0,0-5.91,0c-1.77,1.76-1.64,5.42.85,6.56Z" transform="translate(-309.11 -99.97)"/><path class="cls-8" d="M521.65,402.37a.24.24,0,0,0-.09-.06,2.85,2.85,0,1,0-.68,5.19l.11,0a2.82,2.82,0,0,0,.66-5.11Z" transform="translate(-309.11 -99.97)"/><path class="cls-8" d="M532.29,406.18c-3.3,0-3.3,5.13,0,5.13s3.31-5.13,0-5.13Z" transform="translate(-309.11 -99.97)"/><path class="cls-8" d="M544,410c-2.91,0-2.91,4.53,0,4.53s2.92-4.53,0-4.53Z" transform="translate(-309.11 -99.97)"/><path class="cls-8" d="M553.59,413.12a1.71,1.71,0,0,0,0,3.42,1.71,1.71,0,0,0,0-3.42Z" transform="translate(-309.11 -99.97)"/><path class="cls-8" d="M468.83,402a4.79,4.79,0,0,0-1.74,1.78,3.32,3.32,0,0,0,2,4.78,4.26,4.26,0,0,0,3.36-.44,3.54,3.54,0,1,0-3.57-6.12Z" transform="translate(-309.11 -99.97)"/><path class="cls-8" d="M458.43,406.48h-.29a3.15,3.15,0,1,0,0,6.29h.29a3.14,3.14,0,1,0,0-6.28Z" transform="translate(-309.11 -99.97)"/><path class="cls-8" d="M445.36,410.8l-.15.12a2.55,2.55,0,0,0,0,4.34l.15.12c1.67,1.24,4-.45,4-2.29s-2.31-3.53-4-2.29Z" transform="translate(-309.11 -99.97)"/><path class="cls-8" d="M433.79,414.76l-.27.08a2.71,2.71,0,0,0,0,5.19l.27.08a2.77,2.77,0,1,0,0-5.35Z" transform="translate(-309.11 -99.97)"/><path class="cls-8" d="M424.53,418.34c-2.75,0-2.75,4.28,0,4.28s2.77-4.28,0-4.28Z" transform="translate(-309.11 -99.97)"/><path class="cls-8" d="M414.94,422.09c-2.77,0-2.77,4.28,0,4.28s2.76-4.28,0-4.28Z" transform="translate(-309.11 -99.97)"/><path class="cls-8" d="M404.09,424.19c-2.77,0-2.77,4.27,0,4.27s2.75-4.27,0-4.27Z" transform="translate(-309.11 -99.97)"/><path class="cls-5" d="M565.72,378.82l.17-.53c-2.2-.9-3.48-3.39-3.76-5.76a18.82,18.82,0,0,1,.94-7,162.91,162.91,0,0,1,12.11-31.18c2.27-.58,4.66,0,6.93.56L608,341.34a6.66,6.66,0,0,1,3.34,1.54c1.35,1.39,1.24,3.59,1,5.5a144.35,144.35,0,0,1-6.54,28.72c-1.37,4-3.41,8.48-7.48,9.73-2.22.69-4.61.25-6.9-.19C582.06,384.83,574.05,383.45,565.72,378.82Z" transform="translate(-309.11 -99.97)"/><path class="cls-9" d="M577,420.84c5.89,1,12.89,2.37,18.45.19a25.68,25.68,0,0,0,13-11.78c1.8-3.37,2.83-7.64.91-10.94-1.53-2.62-4.52-3.95-7-5.79s.37-8.19,1.78-10.89c-8.75-3.52-18.8-6.25-27.86-8.9-9.93-2.91-14.45-7-15.18-3.55-1.12,5.32-2.14,9.09-3.58,11.23-2.33,3.51-5.33,4.42-8.59,7.1-3.76,3.09-4.36,8.91-2.48,13.41s5.76,7.84,9.81,10.55C561.22,414.75,568.66,419.36,577,420.84Z" transform="translate(-309.11 -99.97)"/><path class="cls-1" d="M585.07,418.25c5.91,3,13-4.45,16-8.85s3.22-14.71-2.35-16.89c-3.39-1.32-6.75,2-6.12,5.4.36,1.84,1.7,5.31.63,7.42-2.22,4.43-5.55,7.12-8.53,10.85a1.47,1.47,0,0,0,.4,2.07Z" transform="translate(-309.11 -99.97)"/><path class="cls-1" d="M575.49,416.71c4-.3,6.57-4,8.83-6.94a35,35,0,0,0,6.44-15.11c1-5.22-8.06-7-9.18-1.78a92.06,92.06,0,0,1-3.4,12.18c-1.2,3.28-3.88,6.3-4.37,9.75a1.79,1.79,0,0,0,1.68,1.9Z" transform="translate(-309.11 -99.97)"/><path class="cls-1" d="M569.27,413c3.07-7.22,5.87-14.63,8.86-21.89,2.13-5.17-6.3-8.08-8.25-2.79A94.07,94.07,0,0,0,565.53,403c-.65,3.31-1.3,7.76,1.31,10.45a1.45,1.45,0,0,0,2.43-.48Z" transform="translate(-309.11 -99.97)"/><path class="cls-1" d="M560.4,408.36c0-3.88-1.45-7.32-.09-11.16,1.06-3,3.46-5.54,5.62-7.81,1.05-1.09,2-2.77,1.49-4.37s-1.2-2.88-3-3.42a4.54,4.54,0,0,0-4.48.88c-3.31,3.67-6.95,8-7.31,13.22s1.52,11.13,6.6,13.47a.9.9,0,0,0,1.2-.81Z" transform="translate(-309.11 -99.97)"/><path class="cls-1" d="M599.3,386.59a3.69,3.69,0,0,0,1.35-1.9,3.78,3.78,0,0,0,.25-2.83,1.17,1.17,0,0,0-2-.14c-.67,1-1.25,3.94,0,4.84a.5.5,0,0,0,.46,0Z" transform="translate(-309.11 -99.97)"/><path class="cls-1" d="M594.55,384.92c.66.21,1.55-.47,1.89-1a3.79,3.79,0,0,0,.54-3.31,1.29,1.29,0,0,0-2.19-.15,5.25,5.25,0,0,0-.74,2.65c0,.44,0,1.62.5,1.8Z" transform="translate(-309.11 -99.97)"/><path class="cls-1" d="M590.89,383.59a2,2,0,0,0,1.72-1.27,5.77,5.77,0,0,0,.55-2.4c-.06-1.21-1.65-2-2.42-.82a5.08,5.08,0,0,0-.55,2,4.81,4.81,0,0,0-.07,1.85.87.87,0,0,0,.77.68Z" transform="translate(-309.11 -99.97)"/><path class="cls-1" d="M587.06,382.17c1.6.05,2-2.57,2.25-3.72.26-1.57-2.31-1.76-2.52-.14-.1.71-1.27,3.81.27,3.86Z" transform="translate(-309.11 -99.97)"/><path class="cls-1" d="M583.88,380.45c.91-.82,1.87-3.09.8-4.08a1.33,1.33,0,0,0-1.82-.13c-.69.48-.63,1.3-.75,2a2.76,2.76,0,0,0,.42,2.07,1,1,0,0,0,1.35.1Z" transform="translate(-309.11 -99.97)"/><path class="cls-1" d="M578.83,379.37c1.54,0,2.11-2.2,2-3.42s-2-1.19-2.38-.14c-.23.6-1,3.58.39,3.56Z" transform="translate(-309.11 -99.97)"/><path class="cls-1" d="M575.64,377.94a3.35,3.35,0,0,0,1.29-2.77,1.31,1.31,0,0,0-2.61-.15,2.93,2.93,0,0,0,.7,2.87.58.58,0,0,0,.62.05Z" transform="translate(-309.11 -99.97)"/><path class="cls-1" d="M571.74,376.39a3.33,3.33,0,0,0,.84-3.45.92.92,0,0,0-1.22-.41,2.79,2.79,0,0,0-1,3.58.89.89,0,0,0,1.37.28Z" transform="translate(-309.11 -99.97)"/><path class="cls-1" d="M568.26,375.15a3.23,3.23,0,0,0,.35-3.86,1.23,1.23,0,0,0-1.77-.12,2.91,2.91,0,0,0-.07,3.88,1.07,1.07,0,0,0,1.49.1Z" transform="translate(-309.11 -99.97)"/><path class="cls-1" d="M563.55,373.59c1.1.16,1.71-1.66,1.81-2.47a1.07,1.07,0,0,0-1.94-.66c-.36.61-1.14,2.94.13,3.13Z" transform="translate(-309.11 -99.97)"/><path class="cls-1" d="M484.22,378a2.58,2.58,0,0,0-2.26.25,2.18,2.18,0,0,0,0,3.73,2.58,2.58,0,0,0,2.26.26,2.22,2.22,0,0,0,0-4.24Z" transform="translate(-309.11 -99.97)"/><path class="cls-1" d="M460.28,361.5a1,1,0,0,0-.13.16,2.79,2.79,0,0,0,0,3.79l.13.17a2.88,2.88,0,0,0,2.83.75,2.92,2.92,0,0,0,.7-5.33,2.9,2.9,0,0,0-3.53.46Z" transform="translate(-309.11 -99.97)"/><path class="cls-1" d="M445.83,383.54a3.93,3.93,0,0,0-1.24.2,2.52,2.52,0,0,0,0,4.82,3.66,3.66,0,0,0,1.24.2c3.36.07,3.36-5.29,0-5.22Z" transform="translate(-309.11 -99.97)"/><path class="cls-1" d="M421.35,364.61a2.86,2.86,0,1,0,2.86,2.86,2.89,2.89,0,0,0-2.86-2.86Z" transform="translate(-309.11 -99.97)"/><path class="cls-1" d="M413.45,395.44a3,3,0,0,0-2.79-1.46,2.3,2.3,0,0,0-1.16,4.25,2.79,2.79,0,0,0,2,.61,2.37,2.37,0,0,0,1.95-1.12,2.22,2.22,0,0,0,0-2.28Z" transform="translate(-309.11 -99.97)"/><path class="cls-1" d="M391.11,371.62a1.79,1.79,0,0,0,0,3.58,1.79,1.79,0,0,0,0-3.58Z" transform="translate(-309.11 -99.97)"/><path class="cls-1" d="M442.21,340.34c-3,0-3,4.73,0,4.73s3.05-4.73,0-4.73Z" transform="translate(-309.11 -99.97)"/><path class="cls-1" d="M434.7,326.56c-3.05,0-3.05,4.73,0,4.73s3-4.73,0-4.73Z" transform="translate(-309.11 -99.97)"/><path class="cls-1" d="M423.73,341.9c-3,0-3,4.73,0,4.73s3.06-4.73,0-4.73Z" transform="translate(-309.11 -99.97)"/><path class="cls-8" d="M532.29,506.9a1.06,1.06,0,0,0,0,2.12,1.06,1.06,0,0,0,0-2.12Z" transform="translate(-309.11 -99.97)"/><path class="cls-16" d="M356.13,404.38c-3.3-12-4.42-27.69-.08-30.26,15.14-9,31.84-12.19,48.78-17,25.18-7.19,45.09-11.06,70.5-17.41,13.77-3.45,26.07-8.5,36.93-12.21,25.68-8.76,46.34-21.29,64.81-31.62,7.86-4.4,35.36,23.77,36.32,45.08a5.81,5.81,0,0,1-.37,2.81c-.64,1.33-2.1,2-3.46,2.61-38.44,16.61-70.45,24.79-111.07,35-10.63,2.66-30.47,9.22-41,12.22-23.07,6.55-44.83,13.94-65.78,25.61-2.75,1.53-5.58,3.15-8.71,3.47-3.85.4-7.59-1.19-11.08-2.88C365.05,416.44,358.15,411.72,356.13,404.38Z" transform="translate(-309.11 -99.97)"/><path class="cls-9" d="M489.92,348.9c2.77-2.3,6.49-4.52,9.73-3,2.42,1.17,5.41,5.16,5.1,7.84s-1.72,5.07-3.18,7.32c-3.43,5.23-9.24,9.14-13.59,13.62a3.21,3.21,0,0,1-1.82,1.16,3,3,0,0,1-1.71-.48,33.42,33.42,0,0,1-12.25-10.79,18.24,18.24,0,0,1-3.6-9.85c0-3.54,1.69-7.25,4.87-8.83a8.61,8.61,0,0,1,8.33.65,10.69,10.69,0,0,1,4.5,7.19C486.7,351.74,488.33,350.22,489.92,348.9Z" transform="translate(-309.11 -99.97)"/><path class="cls-8" d="M486,363.54a1.94,1.94,0,0,0,0-3.87c-2.49,0-2.49,3.87,0,3.87Z" transform="translate(-309.11 -99.97)"/><path class="cls-8" d="M459.64,356.2c-7-2.33-18-7.69-23.87-.35a2,2,0,0,0,1.37,3.31c3.49,0,6.79-1.27,10.31-1.32a118.52,118.52,0,0,1,11.91.44c1.24.1,1.35-1.72.28-2.08Z" transform="translate(-309.11 -99.97)"/><path class="cls-8" d="M457.27,365.63c-7.16,1.63-14.3,3-21.3,5.23-4.57,1.43-10.83,3-12.67,7.91a1.37,1.37,0,0,0,1.31,1.71c4.75.47,10.44-2.46,14.91-3.93,6.39-2.11,12.3-5.2,18.8-7.07a2,2,0,0,0-1.05-3.85Z" transform="translate(-309.11 -99.97)"/><path class="cls-8" d="M518.85,350.35c7.11-1.76,14.22-3.28,21.18-5.59,4.54-1.51,10.83-3.2,12.56-8.13a1.36,1.36,0,0,0-1.3-1.71c-4.74-.39-10.36,2.64-14.81,4.18-6.36,2.22-12.22,5.41-18.7,7.4a2,2,0,0,0,1.07,3.85Z" transform="translate(-309.11 -99.97)"/><path class="cls-8" d="M463.13,376c-3,3-7.28,5.07-11.26,6.6-3.54,1.35-7.94,2.52-9.47,6.33a2,2,0,0,0,1.41,2.44c4,1.62,9.31-1.5,12.78-3.33a20.21,20.21,0,0,0,9.29-9.91c.82-1.74-1.26-3.62-2.75-2.13Z" transform="translate(-309.11 -99.97)"/><path class="cls-8" d="M512.45,341.49c3.07-1.86,6.17-3.76,9.31-5.52s6.54-2.86,8.79-6a1.23,1.23,0,0,0-.74-1.81c-4-.72-7.45,1-10.9,2.95-3.85,2.18-6.83,4.85-7.92,9.24a1,1,0,0,0,1.46,1.13Z" transform="translate(-309.11 -99.97)"/><path class="cls-8" d="M518.59,358.94c2,3.62,8.37,3.5,12,3.66,4.35.2,12.1-.92,14.85-4.47a1.31,1.31,0,0,0-.26-2c-4.23-2.27-10,1.06-14.59,1.37-3.71.25-9.3-2.33-12,1.16a.29.29,0,0,0,0,.31Z" transform="translate(-309.11 -99.97)"/><path class="cls-1" d="M417.72,383.79c4.39,0,4.39-6.81,0-6.81s-4.39,6.81,0,6.81Z" transform="translate(-309.11 -99.97)"/><path class="cls-1" d="M406.77,386.87c4.31,0,4.31-6.7,0-6.7s-4.32,6.7,0,6.7Z" transform="translate(-309.11 -99.97)"/><path class="cls-1" d="M396.75,389.92c3.41,0,3.41-5.29,0-5.29s-3.41,5.29,0,5.29Z" transform="translate(-309.11 -99.97)"/><path class="cls-1" d="M388,392.87c3.18,0,3.18-4.93,0-4.93s-3.18,4.93,0,4.93Z" transform="translate(-309.11 -99.97)"/><path class="cls-1" d="M379.84,395.82c3,0,3-4.57,0-4.57s-2.95,4.57,0,4.57Z" transform="translate(-309.11 -99.97)"/><path class="cls-1" d="M561.66,335.62a3.13,3.13,0,0,1,0-.43,3,3,0,0,0-6,0c0,.14,0,.29,0,.43-.3,3.93,6.41,3.94,6.12,0Z" transform="translate(-309.11 -99.97)"/><path class="cls-1" d="M567.68,334.54c3.86,0,3.86-6,0-6s-3.86,6,0,6Z" transform="translate(-309.11 -99.97)"/><path class="cls-1" d="M577.8,329.4a2.22,2.22,0,0,0,.15-.23,2.11,2.11,0,1,0-3.65,0l.16.23a2,2,0,0,0,3.34,0Z" transform="translate(-309.11 -99.97)"/><path class="cls-1" d="M584.27,328.2c3,0,3-4.58,0-4.58s-2.95,4.58,0,4.58Z" transform="translate(-309.11 -99.97)"/><path class="cls-1" d="M592.73,324.6a1.82,1.82,0,0,0,0-3.63,1.82,1.82,0,0,0,0,3.63Z" transform="translate(-309.11 -99.97)"/><path class="cls-10" d="M357.13,206.09c1.4-1.26,2.93-2.23,4.45-3.35a27.31,27.31,0,0,0,4.74-3.88,11.84,11.84,0,0,0,2.14-4.16c.54-1.6.6-5-.3-6.48-2.57-4.13-9.77-7.75-14.51,1.35a.38.38,0,0,1-.35.21h0a.39.39,0,0,1-.34-.21c-4.74-9.1-11.94-5.48-14.52-1.35-.9,1.43-.82,4.88-.29,6.48a11.68,11.68,0,0,0,2.14,4.16,27,27,0,0,0,4.75,3.88c1.5,1.12,3,2.09,4.45,3.35.7.63,3.81,4,3.81,4S356.43,206.72,357.13,206.09Z" transform="translate(-309.11 -99.97)"/><path class="cls-10" d="M603.14,514.47a53.9,53.9,0,0,1-4.45,3.35A26.15,26.15,0,0,0,594,521.7a11.68,11.68,0,0,0-2.14,4.16c-.54,1.6-.61,5,.29,6.47,2.58,4.14,9.78,7.76,14.52-1.35a.4.4,0,0,1,.34-.2h0a.42.42,0,0,1,.35.2c4.74,9.11,11.93,5.49,14.52,1.35.89-1.43.83-4.87.29-6.47A11.68,11.68,0,0,0,620,521.7a26.5,26.5,0,0,0-4.74-3.88,52.26,52.26,0,0,1-4.45-3.35c-.7-.63-3.83-4-3.83-4S603.84,513.84,603.14,514.47Z" transform="translate(-309.11 -99.97)"/><path class="cls-10" d="M350.47,166.15q-9.25,0-14.51-7.06t-5.25-17.57q0-11.19,5.46-18.26a17.14,17.14,0,0,1,14.26-7.07A17.49,17.49,0,0,1,364.58,123q5.54,6.75,5.53,17.83A30.78,30.78,0,0,1,366,156.93q-4.14,6.93-10.61,8.62l0,.67q0,5.26,6.4,5.27a30.9,30.9,0,0,0,5.52-.45v4.81a16.46,16.46,0,0,1-5,.74q-5.52,0-8.49-2.33T350.47,166.15Zm0-4.89q6.29,0,9.85-5.74t3.55-14.77q0-9.3-3.67-14.47a11.46,11.46,0,0,0-9.77-5.17q-6.15,0-9.77,5.6T337,141.35q0,8.82,3.65,14.37T350.43,161.26Z" transform="translate(-309.11 -99.97)"/><path class="cls-10" d="M609.46,553.79q9.24,0,14.5,7.06t5.25,17.58q0,11.18-5.44,18.24a17.13,17.13,0,0,1-14.27,7.08A17.48,17.48,0,0,1,595.35,597q-5.55-6.75-5.54-17.84A30.73,30.73,0,0,1,594,563q4.14-6.94,10.62-8.63l0-.67c0-3.52-2.14-5.26-6.41-5.26a31,31,0,0,0-5.52.44v-4.81a16.83,16.83,0,0,1,5-.74c3.68,0,6.5.79,8.49,2.33S609.22,549.94,609.46,553.79Zm0,4.89q-6.3,0-9.85,5.74t-3.55,14.77q0,9.3,3.68,14.46a11.37,11.37,0,0,0,9.75,5.17q6.15,0,9.78-5.59t3.62-14.64q0-8.83-3.66-14.37T609.5,558.68Z" transform="translate(-309.11 -99.97)"/><path class="cls-10" d="M421.58,593.48H360.82c-13.82,0-25.06-12-25.06-26.65V230.71h1.55V566.83c0,13.83,10.55,25.08,23.51,25.08h60.76Z" transform="translate(-309.11 -99.97)"/><rect class="cls-10" x="241.67" y="491.94" width="31.98" height="1.57"/><path class="cls-10" d="M624.17,490.88h-1.56V153.11c0-13.83-10.54-25.08-23.51-25.08H550.78v-1.56H599.1c13.82,0,25.07,11.95,25.07,26.64Z" transform="translate(-309.11 -99.97)"/><rect class="cls-10" x="70.52" y="26.5" width="36.95" height="1.56"/></g></svg>