<svg xmlns="http://www.w3.org/2000/svg" viewBox="0 0 339.03 515.91"><defs><style>.cls-1{fill:#fff;}.cls-2{fill:#2d2d2d;}.cls-3{fill:#d6002b;}</style></defs><g id="Layer_1" data-name="Layer 1"><path class="cls-1" d="M620.13,617.15H339.79a28.57,28.57,0,0,1-28.56-28.57V131.36a28.57,28.57,0,0,1,28.56-28.57H620.13a28.57,28.57,0,0,1,28.57,28.57V588.58A28.57,28.57,0,0,1,620.13,617.15Z" transform="translate(-310.45 -102.01)"/><path class="cls-2" d="M620.13,617.93H339.79a29.38,29.38,0,0,1-29.34-29.35V131.36A29.38,29.38,0,0,1,339.79,102H620.13a29.38,29.38,0,0,1,29.34,29.35V588.58A29.38,29.38,0,0,1,620.13,617.93ZM339.79,103.57A27.83,27.83,0,0,0,312,131.36V588.58a27.83,27.83,0,0,0,27.79,27.8H620.13a27.84,27.84,0,0,0,27.8-27.8V131.36a27.83,27.83,0,0,0-27.8-27.79Z" transform="translate(-310.45 -102.01)"/><path class="cls-3" d="M490.63,385.38c3.91-3.52,8.2-6.23,12.43-9.36,4.6-3.41,9.54-6.46,13.24-10.82,3.05-3.6,4.46-7.16,6-11.63s1.7-14.08-.8-18.08c-7.21-11.54-27.31-21.64-40.55,3.77a1.08,1.08,0,0,1-.95.59h0a1.07,1.07,0,0,1-.95-.59c-13.25-25.41-33.34-15.31-40.56-3.77-2.49,4-2.31,13.61-.8,18.08s2.92,8,6,11.63c3.7,4.36,8.64,7.41,13.24,10.82,4.23,3.13,8.53,5.84,12.44,9.36,1.95,1.76,10.66,11.14,10.66,11.14S488.67,387.14,490.63,385.38Z" transform="translate(-310.45 -102.01)"/><path class="cls-3" d="M358.09,207.3c1.38-1.25,2.91-2.21,4.41-3.33a26.17,26.17,0,0,0,4.71-3.84,11.59,11.59,0,0,0,2.12-4.13c.54-1.59.6-5-.28-6.43-2.57-4.1-9.71-7.69-14.41,1.34a.39.39,0,0,1-.34.21h0a.39.39,0,0,1-.34-.21c-4.71-9-11.85-5.44-14.41-1.34-.89,1.42-.82,4.84-.29,6.43a11.61,11.61,0,0,0,2.13,4.13,26.45,26.45,0,0,0,4.7,3.84c1.5,1.12,3,2.08,4.42,3.33.69.63,3.79,4,3.79,4S357.4,207.93,358.09,207.3Z" transform="translate(-310.45 -102.01)"/><path class="cls-3" d="M602.17,513.26c-1.38,1.24-2.91,2.21-4.41,3.32a26.57,26.57,0,0,0-4.71,3.85,11.71,11.71,0,0,0-2.12,4.12c-.53,1.59-.6,5,.29,6.43,2.56,4.1,9.7,7.7,14.4-1.33a.39.39,0,0,1,.34-.21h0a.39.39,0,0,1,.34.21c4.7,9,11.84,5.43,14.4,1.33.89-1.41.82-4.84.28-6.43a11.39,11.39,0,0,0-2.12-4.12,26.15,26.15,0,0,0-4.7-3.85c-1.5-1.11-3-2.08-4.41-3.32-.7-.63-3.79-4-3.79-4S602.87,512.63,602.17,513.26Z" transform="translate(-310.45 -102.01)"/><path class="cls-3" d="M373.14,174.44h-6.08l-4.79-13.91H344.6l-4.26,13.91h-5l15.47-47.61h6.75ZM361,156.06l-7.38-22.88-7.36,22.88Z" transform="translate(-310.45 -102.01)"/><path class="cls-3" d="M586.92,545.49H593l4.79,13.93h17.67l4.25-13.93h5l-15.47,47.62h-6.75Zm12.15,18.39,7.37,22.87,7.37-22.87Z" transform="translate(-310.45 -102.01)"/></g></svg>