<svg xmlns="http://www.w3.org/2000/svg" xmlns:xlink="http://www.w3.org/1999/xlink" viewBox="0 0 339.03 515.91"><defs><style>.cls-1{fill:none;}.cls-2{fill:#fff;}.cls-3{fill:#2d2d2d;}.cls-4{fill:#d6002b;}.cls-5{fill:#0c0a35;}.cls-6{fill:#990028;}.cls-7{fill:#ffd6a1;}.cls-8{fill:#f70032;}.cls-9{fill:#e20c3f;}.cls-10{clip-path:url(#clip-path);}.cls-11{clip-path:url(#clip-path-2);}.cls-12{fill:#222272;}.cls-13{fill:#b70027;}.cls-14{clip-path:url(#clip-path-3);}.cls-15{clip-path:url(#clip-path-4);}</style><clipPath id="clip-path" transform="translate(-310.45 -102.01)"><path class="cls-1" d="M472.54,230.69c.58-.33-1.21-2.94,2.84-3.7,1.8-.35,2.81.26,3.15,2.07.44,2.29-1.75,6.19-4.8,8.07s-5.68,3-9.26,2.79a46,46,0,0,1-27.07-10.74c-2.61-2.23-8-6.67-9.38-6.23s-3.9,3.8-8.84,10.26c-3,3.93-7.92,8.76-12.88,8.62a5.93,5.93,0,0,1-5.35-3.61c-1-2.21-.69-4.72,1.31-6.11,2.84-2,4,.11,5.13.55.68.27.28-1.9-.1-2.51-2.73-4.25-7.79-3-10.7-1s-4.11,5.27-4.8,8.73a16.73,16.73,0,0,0,.82,8.55c2.07,5.6,8.93,6.68,14.89,6.94,7.53.33,14.4-3.81,16.8-9.28,4.48-10.14,3.68-11.4,4.81-11.23.76.11,1.93,7.74,3.6,10.58,8.29,14.08,27.23,12.93,35.68,10.81s14.39-7.24,17.45-15.39c3-7.86.47-12.11-2.83-16a9.58,9.58,0,0,0-8.62-3.06,5.8,5.8,0,0,0-4.59,4.8C469.26,228.73,471.77,231.13,472.54,230.69Z"/></clipPath><clipPath id="clip-path-2" transform="translate(-310.45 -102.01)"><path class="cls-1" d="M516.29,171c2.72,3.72,8,13.21,10.68,17,5.19,7.24,7.26,15.56,15.22,19.56,3.85,1.93,8.87,3,13.08,3.93s7.06,2.85,9,6.69c2.33,4.49,3.14,8.9.44,16.29-1.06,2.92-6.11,9-20.12,10.45a99.85,99.85,0,0,1-16.68.47c-8.82-.55-8.19-.74-17-.74-6.12,0-6.12-.29-8.45-5.82-1.57-3.72-4-17.56-5.81-23.85-.65-2.26-8.49-35.24-9.81-40.09-1-3.81-2.07-7.62-3.12-11.43-.57-2.09-1.12-4.39-.18-6.34,1.4-2.93,5.25-3.49,8.51-3.66l6.74-.35a7.47,7.47,0,0,1,2.71.18c1.06.33.49,2.84,1.26,3.64C508.88,163.16,511.13,163.94,516.29,171Z"/></clipPath><clipPath id="clip-path-3" transform="translate(-310.45 -102.01)"><path class="cls-1" d="M484.12,490.65c-.59.33,1.2,3-2.84,3.71-1.8.34-2.81-.26-3.16-2.07-.44-2.29,1.75-6.19,4.79-8.08s5.7-3,9.27-2.79a46,46,0,0,1,27.08,10.75c2.61,2.23,8,6.67,9.37,6.23s3.9-3.8,8.84-10.26c3-3.94,7.93-8.77,12.88-8.62a5.89,5.89,0,0,1,5.35,3.6c1,2.22.68,4.72-1.32,6.12-2.83,1.95-4-.12-5.12-.55-.67-.27-.29,1.9.11,2.5,2.73,4.27,7.78,3,10.69,1s4.12-5.27,4.8-8.74a16.61,16.61,0,0,0-.82-8.54c-2.07-5.59-8.93-6.68-14.89-6.95-7.53-.33-14.4,3.81-16.81,9.28-4.47,10.14-3.67,11.4-4.8,11.24-.76-.11-1.93-7.74-3.6-10.59-8.28-14.07-27.24-12.93-35.67-10.79s-14.41,7.22-17.46,15.38c-2.95,7.85-.47,12.1,2.83,16a9.54,9.54,0,0,0,8.62,3.06,5.74,5.74,0,0,0,4.58-4.8C487.4,492.62,484.88,490.21,484.12,490.65Z"/></clipPath><clipPath id="clip-path-4" transform="translate(-310.45 -102.01)"><path class="cls-1" d="M440.36,550.34c-2.71-3.72-8-13.22-10.68-17-5.18-7.25-7.26-15.57-15.21-19.57-3.86-1.94-8.88-3-13.1-3.93s-7-2.86-9-6.69c-2.31-4.49-3.13-8.9-.43-16.29,1.07-2.92,6.11-9,20.13-10.46a101,101,0,0,1,16.67-.46c8.83.55,8.19.73,17,.73,6.1,0,6.1.28,8.43,5.82,1.57,3.73,4,17.57,5.83,23.86.64,2.26,8.47,35.24,9.8,40.09l3.12,11.42c.57,2.09,1.12,4.4.19,6.34-1.41,3-5.27,3.5-8.51,3.66-2.25.13-4.5.24-6.75.35a7.7,7.7,0,0,1-2.71-.17c-1.06-.33-.47-2.85-1.26-3.64C447.78,558.19,445.52,557.41,440.36,550.34Z"/></clipPath></defs><g id="Layer_1" data-name="Layer 1"><path class="cls-2" d="M620.13,617.15H339.79a28.56,28.56,0,0,1-28.56-28.57V131.36a28.57,28.57,0,0,1,28.56-28.57H620.13a28.58,28.58,0,0,1,28.57,28.57V588.58A28.57,28.57,0,0,1,620.13,617.15Z" transform="translate(-310.45 -102.01)"/><path class="cls-3" d="M620.13,617.93H339.79a29.38,29.38,0,0,1-29.34-29.35V131.36A29.38,29.38,0,0,1,339.79,102H620.13a29.38,29.38,0,0,1,29.34,29.35V588.58A29.38,29.38,0,0,1,620.13,617.93ZM339.79,103.57A27.83,27.83,0,0,0,312,131.36V588.58a27.84,27.84,0,0,0,27.8,27.8H620.13a27.83,27.83,0,0,0,27.79-27.8V131.36a27.82,27.82,0,0,0-27.79-27.79Z" transform="translate(-310.45 -102.01)"/><path class="cls-4" d="M587.36,327.08c4.72,11.7,6.27,23,6.63,35.2.42,14.61-1.26,20.59-.84,35.2.11,3.54-14.41,18.38-16.78,21.47-4.07,5.32-7.3,9.88-12.22,10.22-29.83,2.06-53.28,9-83.22,8.1-27.75-.84-45.8-7.15-73.28-4.2-1.73.19-1.07,2.29-2.36,1.42-14.06-9.33-36.57-18.36-42.39-33.7C352.65,373.8,345,370,351.3,342.4c2.26-9.85,13.25-31.06,44.73-42.66,14.68-5.41,29.37-17.52,47.48-19.33a266.82,266.82,0,0,1,71.43,2.49c19.47,3.35,51.42,17.49,63,29.43A45,45,0,0,1,587.36,327.08Z" transform="translate(-310.45 -102.01)"/><path class="cls-4" d="M369.29,394.28c-4.72-11.71-6.27-23-6.62-35.21-.42-14.61,1.24-20.59.82-35.2-.1-3.55,14.43-18.38,16.79-21.47,4.07-5.33,7.3-9.88,12.22-10.22,29.82-2.07,53.28-9,83.22-8.1,27.75.84,45.8,7.15,73.29,4.19,1.72-.19,1.06-2.28,2.36-1.42,14.06,9.34,36.57,18.37,42.38,33.71,10.24,27,17.93,30.76,11.6,58.39-2.25,9.84-13.26,31.06-44.73,42.65C546,427,531.25,439.13,513.13,441a267.17,267.17,0,0,1-71.42-2.5c-19.47-3.36-51.43-17.49-63-29.43A45.23,45.23,0,0,1,369.29,394.28Z" transform="translate(-310.45 -102.01)"/><path class="cls-5" d="M356.52,329.91c1.86-14.91,10.22-26.43,26.71-37.89,14.28-9.95,31-12.06,36-10.56,15.26,4.56,13.71,22.42,28.17,29.12,15.11,7,40,13.49,54.45,21.81C539.37,354,565.17,369.81,607.49,379c-9.77,26.13-27.12,53.2-54.89,55.71-14.13,1.26-26.07-9.06-39.54-13.46C491,414,355.93,334.61,356.52,329.91Z" transform="translate(-310.45 -102.01)"/><path class="cls-5" d="M470.9,108.8a2.92,2.92,0,0,1,3,1.27c1.47,1.92,1.43,4.57,1.32,7a1,1,0,0,1-.24.73.94.94,0,0,1-.57.18,15.9,15.9,0,0,1-4.25-.25,14.92,14.92,0,0,1-1.08-5.15C469,111.06,469.47,109.24,470.9,108.8Z" transform="translate(-310.45 -102.01)"/><path class="cls-6" d="M411.23,285.32c-4.71,3.8-10.11,6.67-14.71,10.59a26.31,26.31,0,0,0-7.43,9.65,2.65,2.65,0,0,0,3.34,3.51c3-1.1,6-1.5,8.64.08,3.34,2,4.25,6.34,6.09,9.78a18.07,18.07,0,0,0,20.21,8.63c8.32-2.33,14.58-10.66,23.22-10.92,10.27-.31,18.24,11,28.5,10.41,8.82-.52,15.15-9.71,23.94-10.73,9.77-1.12,19.39,8.26,28.58,4.81a10.69,10.69,0,0,0,3.48-2.29c11.42-10.72,7.82-16.61,23-12.86a1.3,1.3,0,0,0,1-.1c6.47-3.83-15.69-20.93-25.7-29.51-9.3-8-16.82-18.68-18.38-30.8-.9-7,0-14.8-4.49-20.24a8,8,0,0,0-1.92-1.76c-4.06-2.46-9,.82-12.92,3.53-13.24,9.24-29.49,13-45.42,15.61-7.06,1.17-14.2,2.19-20.87,4.81a4.54,4.54,0,0,0-2.73,2.77c-.66,2,1.09,2.63,1.65,3.94a4.25,4.25,0,0,1,.06,2.4A48.51,48.51,0,0,1,411.23,285.32Z" transform="translate(-310.45 -102.01)"/><path class="cls-7" d="M450.24,153c-6.36,4.1-16,9.57-18.63,16.67s-4.35,14.57-7.86,21.28c-3.28,6.3-8,11.7-12.44,17.24-2.29,2.86-4.58,6.86-2.56,9.93,1.71,2.58,5.43,2.69,8.48,2.13s6.34-1.47,9.09,0c-.68,8.29-1,15.94-1.7,24.24-.28,3.46-.55,7,.62,10.3,2.57,7.12,11,10.25,18.53,10.73,16.17,1,32-6.07,44.7-16.12a58.25,58.25,0,0,0,8.54-8.07c4.43-5.29,7.42-11.61,10.36-17.85A46.45,46.45,0,0,0,511,214a39.83,39.83,0,0,0,.46-11.54c-.67-9.28-2.38-18.6-6.24-27.07s-10-16.09-18.16-20.61a45.37,45.37,0,0,0-14.9-4.9C463.13,148.39,457.94,148,450.24,153Z" transform="translate(-310.45 -102.01)"/><path class="cls-8" d="M467.17,112.57a29.3,29.3,0,0,1,11.28,1.15,34.49,34.49,0,0,1,19.34,14.46A32.06,32.06,0,0,1,502,151.87a144.76,144.76,0,0,0-61.12.31c-1-8.77.44-17.94,5-25.48S458.41,113.48,467.17,112.57Z" transform="translate(-310.45 -102.01)"/><path class="cls-5" d="M487.28,187.55a8.7,8.7,0,0,1-1.92.15c-10.24-.7-24.28-2.86-33.78-.56a21.87,21.87,0,0,0-3.45.69c-.63.31-.39,1.5-1,1.18-1.31-.65-2.57-11.18-2.37-16.38a1.15,1.15,0,0,1,.78-1c3.83-1.15,9.44-.94,13.27-.68,4.8.33,11.63,1.7,14.94,3.49C477.45,176.4,483.45,179.52,487.28,187.55Z" transform="translate(-310.45 -102.01)"/><path class="cls-2" d="M446.73,188.64a.39.39,0,0,1,0-.32c2.15-3.15,5-6.1,12.34-8,10.15-2.68,21-.42,28.17,7.27-10.59,5.53-18,6.16-35.26,3.43C450.29,190.71,447.3,190.26,446.73,188.64Z" transform="translate(-310.45 -102.01)"/><path class="cls-4" d="M472.54,230.69c.58-.33-1.21-2.94,2.84-3.7,1.8-.35,2.81.26,3.15,2.07.44,2.29-1.75,6.19-4.8,8.07s-5.68,3-9.26,2.79a46,46,0,0,1-27.07-10.74c-2.61-2.23-8-6.67-9.38-6.23s-3.9,3.8-8.84,10.26c-3,3.93-7.92,8.76-12.88,8.62a5.93,5.93,0,0,1-5.35-3.61c-1-2.21-.69-4.72,1.31-6.11,2.84-2,4,.11,5.13.55.68.27.28-1.9-.1-2.51-2.73-4.25-7.79-3-10.7-1s-4.11,5.27-4.8,8.73a16.73,16.73,0,0,0,.82,8.55c2.07,5.6,8.93,6.68,14.89,6.94,7.53.33,14.4-3.81,16.8-9.28,4.48-10.14,3.68-11.4,4.81-11.23.76.11,1.93,7.74,3.6,10.58,8.29,14.08,27.23,12.93,35.68,10.81s14.39-7.24,17.45-15.39c3-7.86.47-12.11-2.83-16a9.58,9.58,0,0,0-8.62-3.06,5.8,5.8,0,0,0-4.59,4.8C469.26,228.73,471.77,231.13,472.54,230.69Z" transform="translate(-310.45 -102.01)"/><path class="cls-9" d="M516.29,171c2.72,3.72,8,13.21,10.68,17,5.19,7.24,7.26,15.56,15.22,19.56,3.85,1.93,8.87,3,13.08,3.93s7.06,2.85,9,6.69c2.33,4.49,3.14,8.9.44,16.29-1.06,2.92-6.11,9-20.12,10.45a99.85,99.85,0,0,1-16.68.47c-8.82-.55-8.19-.74-17-.74-6.12,0-6.12-.29-8.45-5.82-1.57-3.72-4-17.56-5.81-23.85-.65-2.26-8.49-35.24-9.81-40.09-1-3.81-2.07-7.62-3.12-11.43-.57-2.09-1.12-4.39-.18-6.34,1.4-2.93,5.25-3.49,8.51-3.66l6.74-.35a7.47,7.47,0,0,1,2.71.18c1.06.33.49,2.84,1.26,3.64C508.88,163.16,511.13,163.94,516.29,171Z" transform="translate(-310.45 -102.01)"/><path class="cls-5" d="M465,190.8c6.1.37,6.23-4.28,6.18-5.81a4.81,4.81,0,0,0-4.34-4.36,5.37,5.37,0,0,0-5.57,4.24C460.81,187.4,462.44,190.65,465,190.8Z" transform="translate(-310.45 -102.01)"/><g class="cls-10"><path class="cls-5" d="M432.38,219.71c-4.24-2-7.3,2.28-8.81,5.75-.94,2.13-1.85,4.43-1.39,6.81,1.29,6.85,3.25,11.13.2,18-.16.34.24.7.53.42,3.49-3.4,4.4-6.95,3.76-11.69-.45-3.27-2.33-5.9-2.24-9.32.13-4.72,2.58-9.31,7.84-9.57.2,0,.31-.3.11-.4Z" transform="translate(-310.45 -102.01)"/><path class="cls-5" d="M431,222.51c4.15,7.93-1.17,11.45-1.25,19a19.3,19.3,0,0,0,5.93,14,.38.38,0,0,0,.64-.37c-.94-3.14-2.19-6.18-3.17-9.32-1.47-4.66,1.39-9.49,2.52-13.86s-.78-7.46-4-10a.43.43,0,0,0-.67.51Z" transform="translate(-310.45 -102.01)"/><path class="cls-5" d="M419.52,227.86c-4.11,1.87-3.84,7.11-3.3,10.93.63,4.52,1.5,9-1.82,12.79-2.41,2.73-6.07,2.21-9,3.74-.8.41-.46,1.41.22,1.7,5.18,2.18,10.67-2.66,12.7-7.08,1.24-2.7,1-5.76.66-8.62-.65-4.95-1.07-8.08,1.4-12.59a.64.64,0,0,0-.86-.87Z" transform="translate(-310.45 -102.01)"/><path class="cls-5" d="M413.47,233.2c-3.41,1.78-4.1,5.14-4.52,8.77-.38,3.37-.87,6.22-2.66,9.19-1.94,3.24-5.34,4.78-8.16,7-.37.3,0,.83.44.74,4.7-1,8.47-5.19,10.62-9.3,2.58-4.9.72-11.47,4.89-15.64a.51.51,0,0,0-.61-.8Z" transform="translate(-310.45 -102.01)"/><path class="cls-5" d="M408.26,235.31c-4.45-.53-5.53,6.15-7,9.05-2.81,5.6-9.23,6.52-14.56,7.67a.62.62,0,0,0-.27,1c2.91,3.18,9.48-.63,12.25-2.37a14.26,14.26,0,0,0,4.78-5c1.46-2.53,1.8-8.29,4.92-9.33a.52.52,0,0,0-.14-1Z" transform="translate(-310.45 -102.01)"/><path class="cls-5" d="M403.61,233.25c-2.57,4.38-7.34,4.92-11.18,7.69-2.59,1.87-5.84,5.5-5.86,8.85a.54.54,0,0,0,.91.37c1.6-1.62,2.41-3.89,3.91-5.66a16.36,16.36,0,0,1,6.3-4.23c3-1.31,6.46-3.17,6.55-6.85a.34.34,0,0,0-.63-.17Z" transform="translate(-310.45 -102.01)"/><path class="cls-5" d="M408.6,231.79c-3.33-3-7.68-4.27-12-2.36-5.91,2.62-8,8.48-13.31,11.76a.62.62,0,0,0,.31,1.14c3.2,0,5.19-2.17,7-4.59,4.86-6.42,9.89-7.9,17.81-5.7a.16.16,0,0,0,.16-.25Z" transform="translate(-310.45 -102.01)"/><path class="cls-5" d="M437.61,226.13c1.26.8,1.9,5.38,2.33,6.76,1.46,4.72.34,8.87-.88,13.43-1.08,4,1.07,7,3.67,9.81.46.49,1.18,0,1.07-.62-.79-3.87-2.8-6-1.57-10.4.84-3,1.58-5.77,1.08-8.89s-1.21-10.34-5.19-11.28a.66.66,0,0,0-.51,1.19Z" transform="translate(-310.45 -102.01)"/><path class="cls-5" d="M446.77,232.23c4.56,4.77.84,13.13,2.32,19.06,1.07,4.33,5,9,9.41,9.83a.67.67,0,0,0,.75-1c-1.39-2.48-3.71-4.23-5.41-6.52-2.14-2.89-2.37-6.53-2.33-10,0-4.61-.5-8.89-4.53-11.68a.17.17,0,0,0-.21.26Z" transform="translate(-310.45 -102.01)"/><path class="cls-5" d="M455.1,234.48c2.53,5.33.27,11.25,2.58,16.71,1.45,3.45,5.08,7.79,8.72,8.89a.49.49,0,0,0,.6-.6c-1.69-4.58-6.44-7.07-8-12s.24-9-3.36-13.44c-.28-.34-.73.09-.56.44Z" transform="translate(-310.45 -102.01)"/><path class="cls-5" d="M461.29,234.61c4.69.34,3.72,9.73,4.68,13.1,1.21,4.25,4.53,9.45,9.29,9.92a.64.64,0,0,0,.55-1c-1.87-2.81-4.8-4.57-6.69-7.48-1.55-2.38-1.91-5-2.4-7.68-.53-3-1.76-7.5-5.43-7.53-.41,0-.4.61,0,.63Z" transform="translate(-310.45 -102.01)"/><path class="cls-5" d="M469.41,233.73c3.22,1.42,4.1,8.09,5.76,11.08,2,3.55,5.06,7.47,9.48,7.41a.69.69,0,0,0,.47-1.16c-1.52-1.81-3.43-3.19-5.05-4.91a27.08,27.08,0,0,1-4.14-6.5c-1.27-2.54-3-6.48-6.35-6.59-.34,0-.51.53-.17.67Z" transform="translate(-310.45 -102.01)"/><path class="cls-5" d="M473.44,218.54c-2.17,4.8-.9,8.56,2.15,12.73,1.87,2.57,4.72,4.44,6.86,6.8,3.3,3.68,2.85,7.82,4.1,12.13a.74.74,0,0,0,1.35.18c2.12-4.25.26-8.87-2.22-12.62-4.57-6.91-12.65-9.37-12.08-19.18,0-.08-.13-.11-.16,0Z" transform="translate(-310.45 -102.01)"/><path class="cls-5" d="M478.28,217.06c-.48,4.71,1.25,7.66,4.49,11.07,2.59,2.73,5.68,3.91,7.2,7.67.88,2.14,1,3.94,2.67,5.56a.74.74,0,0,0,1.26-.52,16.66,16.66,0,0,0-3.79-10c-4-4.81-10-6.94-11.33-13.86-.06-.3-.47-.2-.5.07Z" transform="translate(-310.45 -102.01)"/></g><g class="cls-11"><path class="cls-5" d="M486,157.37c8.75,6.68,4.36,12,4.38,19.64,0,1.65,1.23,4.43,2.74,5.25,12.56,6.78,2.49,17.83,4.75,28,.65,2.94,4.37,6.55,6,8.84,5.33,7.53,3.39,13.8,1.53,21.8-1.42,6.13,1.82,12,6.78,15.33a.85.85,0,0,0,1.24-.95c-2.06-5.7-5.43-9.25-3.94-16,.8-3.54,2.82-7,2.06-10.77a32.94,32.94,0,0,0-6.25-13.31c-3.48-4.74-5.74-5.15-4.4-13,.47-2.72,1.81-5.28,2-8.05.83-10.37-11.23-14.56-9.06-24.23,1.35-6-1.26-12.51-7.67-13.31-.42,0-.45.51-.19.71Z" transform="translate(-310.45 -102.01)"/><path class="cls-5" d="M496.51,156.66c3.63.72-1,15,2.68,18.66,4.92,4.88,11,8.78,8.52,17.34-1,3.59-2.74,7.56-1.76,11.4,2.94,11.57,13.91,15.21,10.32,29.37-1.71,6.78-4.59,14.33,1.88,19.31.54.41,1.14-.36.87-.87-5.64-10.46,3.91-21.18-.15-32.34-1-2.9-3.48-5.44-5.45-7.74-5.88-6.91-4.63-12.95-2.38-21.13,1.91-7-1.92-10.84-7.18-14.46-8.71-6,.77-16.21-5.74-20.94a.87.87,0,0,0-.88,0l-.85.47a.51.51,0,0,0,.12.93Z" transform="translate(-310.45 -102.01)"/><path class="cls-5" d="M506,154.86c-4.9,3.91-.74,10.92,2,15s6.86,6.15,8.58,11.4c2.16,6.59-2.45,12-1.7,18.44,1.42,12.2,17,14.87,12.2,29.6-3.44,10.52-9,17.42-3,28.42a.56.56,0,0,0,1-.27c-.48-7.15-1.74-12.86,2.09-19.69a39.09,39.09,0,0,0,4.89-12.54c1.17-6.49-3.64-12.18-7.53-16.72C519.94,203,517.71,198,520.23,191c1.23-3.39.49-7.34-.17-10.75-1.74-9-17.89-13.83-13.06-24.68a.62.62,0,0,0-1-.75Z" transform="translate(-310.45 -102.01)"/><path class="cls-5" d="M528.87,182.05c-8.51,10.7-1.5,22.52,6.61,30.37,10.9,10.52,1,20.24-3.27,30.64-2,5-2,11.89,2.88,14.87.57.35,1.49-.24,1.22-.93-6-14.95,10.59-23.88,6.87-39.06-1.09-4.47-5.44-7.91-8.62-10.85-7.39-6.87-6.92-15.31-4.52-24.36.17-.62-.71-1.25-1.17-.68Z" transform="translate(-310.45 -102.01)"/><path class="cls-5" d="M537.87,200.69c.51,4.06,2.38,6.68,5.23,9.61,6.5,6.63,9.76,12.81,4.66,21.49-3.48,5.93-9.5,12.6-4.59,19.44a.71.71,0,0,0,1.31-.35c0-6.26,1.86-10.45,5.28-15.59,1.83-2.76,4.12-6.26,4.2-9.71.33-12.5-9.54-15.49-15.23-25.12-.22-.38-.93-.25-.86.23Z" transform="translate(-310.45 -102.01)"/><path class="cls-5" d="M552.33,205.22c4.7,6.53,8.87,11.52,6.79,20.1-1.39,5.73-5.54,10.17-6.65,16.12-1,5.4.51,12.15,6.19,13.81a.72.72,0,0,0,.69-1.2c-10.11-9.07,1.13-20.67,3.18-30.44,1.74-8.23-3.76-14.06-9.48-19-.36-.32-1,.11-.72.56Z" transform="translate(-310.45 -102.01)"/></g><path class="cls-6" d="M507.41,164.32a2.3,2.3,0,0,0,3.07-1.23c3.13-4.85,4.76-9.31,7.6-14.08a1.41,1.41,0,0,0-.79-2.1c-27.33-7.76-65.74-5.72-87.65-.76a2.67,2.67,0,0,0-1.53.84c-.65.91,0,2.16.64,3.07q3.5,5,7,9.9a5.06,5.06,0,0,0,2.16,2C438.82,162.32,493.8,161.58,507.41,164.32Z" transform="translate(-310.45 -102.01)"/><path class="cls-5" d="M440.43,156.68a4.22,4.22,0,1,0-4.21-4.22,4.26,4.26,0,0,0,4.21,4.22Z" transform="translate(-310.45 -102.01)"/><path class="cls-5" d="M453.93,155.65a5,5,0,0,0,6.44-.88,4.89,4.89,0,0,0,1.21-4.52,4.78,4.78,0,0,0-3.26-3.25,5.28,5.28,0,0,0-5.33,1.37c-2.24,2.24-1.48,5.59.94,7.28Z" transform="translate(-310.45 -102.01)"/><path class="cls-5" d="M477.79,154.53a.76.76,0,0,0,.09-.18,5.07,5.07,0,0,0-3-7.35c-3-.81-6.59,1.54-6.34,4.82a1.7,1.7,0,0,1,0,.22,5.08,5.08,0,0,0,3.63,4.77,5,5,0,0,0,5.59-2.28Z" transform="translate(-310.45 -102.01)"/><path class="cls-5" d="M490.58,157.09a4.46,4.46,0,1,0-4.45-4.46,4.5,4.5,0,0,0,4.45,4.46Z" transform="translate(-310.45 -102.01)"/><path class="cls-5" d="M506.47,158.13a3.49,3.49,0,1,0-3.5-3.49,3.52,3.52,0,0,0,3.5,3.49Z" transform="translate(-310.45 -102.01)"/><path class="cls-5" d="M453.26,127.8c-.09,1.06-.77,2.12-.38,3.18a.84.84,0,0,0,1.52.2c.63-1,.32-2.44.07-3.54-.17-.72-1.15-.49-1.21.16Z" transform="translate(-310.45 -102.01)"/><path class="cls-5" d="M465.73,134.18a3.61,3.61,0,0,0-.38,2.15c0,1.27,2.06,1.23,1.95,0a4.55,4.55,0,0,0-.62-2.15.56.56,0,0,0-.95,0Z" transform="translate(-310.45 -102.01)"/><path class="cls-5" d="M463.09,116.89a9,9,0,0,0-.56,4.18,1,1,0,0,0,1.89,0,9,9,0,0,0-.55-4.18.41.41,0,0,0-.78,0Z" transform="translate(-310.45 -102.01)"/><path class="cls-5" d="M474.69,124.07c-.16,1.08-.58,2.76.43,3.5a.51.51,0,0,0,.68-.18c.59-.82,0-2.38-.17-3.32-.09-.46-.88-.47-.94,0Z" transform="translate(-310.45 -102.01)"/><path class="cls-5" d="M482,117.29a4.06,4.06,0,0,0-.36,3c.24,1.31,2.35,1,2.29-.3a4.13,4.13,0,0,0-.24-1.21c-.17-.5-.56-.86-.76-1.35a.52.52,0,0,0-.93-.12Z" transform="translate(-310.45 -102.01)"/><path class="cls-5" d="M484.66,136.06a9.52,9.52,0,0,0-.3,2.43c.06,1.2,1.92,1.2,1.86,0a14.56,14.56,0,0,0-.5-2.43.55.55,0,0,0-1.06,0Z" transform="translate(-310.45 -102.01)"/><path class="cls-5" d="M491.4,127.36c0,.19-.17.36-.22.53A5.72,5.72,0,0,0,491,129a2.63,2.63,0,0,0,.56,2.14,1.07,1.07,0,0,0,1.66-.22,3.11,3.11,0,0,0,.05-2.23,2.78,2.78,0,0,0-1.14-1.62.45.45,0,0,0-.76.31Z" transform="translate(-310.45 -102.01)"/><path class="cls-5" d="M497.82,137.73c.11,1.1-.31,2.48.36,3.43a1,1,0,0,0,1.79-.75,5.29,5.29,0,0,0-.75-1.43c-.28-.45-.48-1-.73-1.43-.17-.3-.71-.18-.67.18Z" transform="translate(-310.45 -102.01)"/><path class="cls-5" d="M446.21,137.6c-.19,1.19-.91,3.11.14,4.06a.46.46,0,0,0,.65,0c1-.95.33-2.87.15-4.06a.49.49,0,0,0-.94,0Z" transform="translate(-310.45 -102.01)"/><path class="cls-8" d="M440.56,153.69a1.34,1.34,0,0,0,0-2.67,1.34,1.34,0,0,0,0,2.67Z" transform="translate(-310.45 -102.01)"/><path class="cls-8" d="M456.82,152.43a1.17,1.17,0,0,0,0-2.33,1.17,1.17,0,0,0,0,2.33Z" transform="translate(-310.45 -102.01)"/><path class="cls-8" d="M473.73,153.77a1.64,1.64,0,0,0,0-3.27,1.64,1.64,0,0,0,0,3.27Z" transform="translate(-310.45 -102.01)"/><path class="cls-8" d="M490.76,154.2a1.52,1.52,0,0,0,0-3,1.52,1.52,0,0,0,0,3Z" transform="translate(-310.45 -102.01)"/><path class="cls-8" d="M506.35,156.15a1.51,1.51,0,0,0,0-3,1.51,1.51,0,0,0,0,3Z" transform="translate(-310.45 -102.01)"/><path class="cls-8" d="M437.81,275.63c-4.38,10.38-7.16,23.23-15.27,31.6-4.73,4.88,2.76,12.38,7.46,7.46,8.64-9.05,12.1-26.85,10.4-38.73a1.42,1.42,0,0,0-2.59-.33Z" transform="translate(-310.45 -102.01)"/><path class="cls-8" d="M474.11,276.19c-3.08,12.34-3,29.38,2.57,41.07,2.79,5.9,11.27.76,8.67-5.07-4.73-10.63-6.68-24.07-8-35.56-.2-1.74-2.76-2.38-3.24-.44Z" transform="translate(-310.45 -102.01)"/><path class="cls-8" d="M503.12,269.94c-.82,8,2.24,15.59,5.81,22.63,2.71,5.35,8.83,17,15.94,16.22a4.07,4.07,0,0,0,3.94-3.93c.43-5.68-6.9-11.17-10.06-15.42-4.75-6.38-8.21-13.53-12-20.49-1-1.88-3.49-.82-3.67,1Z" transform="translate(-310.45 -102.01)"/><path class="cls-5" d="M423.91,219.52c3.9,0,8.1.32,11.9-.82,2.63-.8,5.24-3.63,4.67-6.56a6.07,6.07,0,0,0-5.3-4.95c-1.86-.22-6.46,1.46-4.64,4.06a.79.79,0,0,0,.83.34c1.59-.26,2-1.92,3.95-1.62,3.11.48,3.79,3.44,1.8,5.64-3.14,3.51-9.48,1.1-13.32,3.52a.21.21,0,0,0,.11.39Z" transform="translate(-310.45 -102.01)"/><path class="cls-5" d="M454.73,273.09a92.51,92.51,0,0,0-4.15,18.22c-.79,5.75-2.44,11.81-1.66,17.62.6,4.57,7.92,6.72,8.89,1.2,2.09-12,.39-24.45.53-36.55,0-2.16-3-2.4-3.61-.49Z" transform="translate(-310.45 -102.01)"/><path class="cls-5" d="M428.49,273c-4.06,10.43-15.26,18.16-23.22,25.5-4.38,4,2.06,10.3,6.49,6.49,7.62-6.56,23.94-20.25,19.5-32a1.45,1.45,0,0,0-2.77,0Z" transform="translate(-310.45 -102.01)"/><path class="cls-5" d="M485.91,269.37c-1.62,9.22.41,17.89,2.82,26.79,1.63,6,4.47,16.28,10.7,18.82,5.29,2.16,7.87-5.12,5-8.6s-4.79-9.82-6.8-14a121.29,121.29,0,0,1-8.13-23c-.43-1.7-3.27-1.86-3.59,0Z" transform="translate(-310.45 -102.01)"/><path class="cls-5" d="M517.84,271.83c-1,7.52,4,12.71,9,17.67,4.37,4.33,8,10.82,14.72,11.37,6.45.53,6.59-10.27,0-10.1-2.38.06-6.16-4.78-8.08-6.23-3.76-2.85-11.66-7.49-12.24-12.71a1.72,1.72,0,0,0-3.44,0Z" transform="translate(-310.45 -102.01)"/><path class="cls-5" d="M475.69,289.36c2.62,0,2.62-4.07,0-4.07s-2.61,4.07,0,4.07Z" transform="translate(-310.45 -102.01)"/><path class="cls-5" d="M476.35,298.56c3,0,3-4.57,0-4.57s-2.94,4.57,0,4.57Z" transform="translate(-310.45 -102.01)"/><path class="cls-5" d="M479.1,306.3l0-.05a2.4,2.4,0,0,0,0-3.37l0-.06a2.46,2.46,0,1,0,0,3.48Z" transform="translate(-310.45 -102.01)"/><path class="cls-5" d="M479,311.37l-.12.1a1.67,1.67,0,0,0,0,2.34l.12.1a1.8,1.8,0,1,0,0-2.54Z" transform="translate(-310.45 -102.01)"/><path class="cls-5" d="M506.69,278.32a1.91,1.91,0,0,0,0-3.81,1.91,1.91,0,0,0,0,3.81Z" transform="translate(-310.45 -102.01)"/><path class="cls-5" d="M509.35,285.78c2.85,0,2.85-4.41,0-4.41s-2.85,4.41,0,4.41Z" transform="translate(-310.45 -102.01)"/><path class="cls-5" d="M513.71,294a2.88,2.88,0,1,0-2.87-2.89,2.91,2.91,0,0,0,2.87,2.89Z" transform="translate(-310.45 -102.01)"/><path class="cls-5" d="M519.13,300.44a2.65,2.65,0,1,0-2.65-2.64,2.66,2.66,0,0,0,2.65,2.64Z" transform="translate(-310.45 -102.01)"/><path class="cls-5" d="M523.74,304.69a2,2,0,0,0,0-3.89c-2.5,0-2.5,3.89,0,3.89Z" transform="translate(-310.45 -102.01)"/><path class="cls-5" d="M437.77,286.57a1.91,1.91,0,0,0,0-3.82,1.91,1.91,0,0,0,0,3.82Z" transform="translate(-310.45 -102.01)"/><path class="cls-5" d="M436.2,294.69c3,0,3-4.69,0-4.69s-3,4.69,0,4.69Z" transform="translate(-310.45 -102.01)"/><path class="cls-5" d="M433.36,302.35c3.19,0,3.19-5,0-5s-3.19,5,0,5Z" transform="translate(-310.45 -102.01)"/><path class="cls-5" d="M429.87,308.58c2.65,0,2.65-4.1,0-4.1s-2.65,4.1,0,4.1Z" transform="translate(-310.45 -102.01)"/><path class="cls-5" d="M425.72,313.94a1.52,1.52,0,0,0,0-3,1.52,1.52,0,0,0,0,3Z" transform="translate(-310.45 -102.01)"/><path class="cls-12" d="M533.35,381.59a15.19,15.19,0,0,0,2.7,2.36c.65.46,1.87,1.49,2.63.73s-.84-1.52-1.31-1.76a13,13,0,0,1-3.09-2.26c-.61-.6-1.48.3-.93.93Z" transform="translate(-310.45 -102.01)"/><path class="cls-12" d="M554.47,397.12a15.19,15.19,0,0,0,2.7,2.36c.64.46,1.87,1.49,2.63.73s-.84-1.52-1.31-1.76a13,13,0,0,1-3.09-2.26c-.61-.6-1.48.3-.93.93Z" transform="translate(-310.45 -102.01)"/><path class="cls-12" d="M463.7,381.38a15.18,15.18,0,0,0,2.69,2.37c.65.46,1.88,1.49,2.64.73s-.85-1.52-1.31-1.77a12.83,12.83,0,0,1-3.09-2.25c-.61-.6-1.48.29-.93.92Z" transform="translate(-310.45 -102.01)"/><path class="cls-12" d="M588.23,383.33a14.73,14.73,0,0,0,2.68,2.37c.66.45,1.88,1.49,2.65.73s-.85-1.52-1.32-1.76a13.57,13.57,0,0,1-3.09-2.26.65.65,0,0,0-.92.92Z" transform="translate(-310.45 -102.01)"/><path class="cls-12" d="M511.19,381.87a10.1,10.1,0,0,0-.61,5.19c.16,1.2,2.06.87,2.06-.28a13.25,13.25,0,0,0-1-4.91.26.26,0,0,0-.49,0Z" transform="translate(-310.45 -102.01)"/><path class="cls-12" d="M443.27,364.13a10.13,10.13,0,0,0-.61,5.2c.16,1.2,2.07.87,2.07-.29a13.55,13.55,0,0,0-1-4.91.26.26,0,0,0-.49,0Z" transform="translate(-310.45 -102.01)"/><path class="cls-12" d="M376.39,327.2a10.21,10.21,0,0,0-.62,5.19c.17,1.2,2.07.88,2.07-.28a13.33,13.33,0,0,0-1-4.91.26.26,0,0,0-.49,0Z" transform="translate(-310.45 -102.01)"/><path class="cls-12" d="M493.79,386.22a10.2,10.2,0,0,0-.61,5.19c.17,1.2,2.07.87,2.07-.29a13.24,13.24,0,0,0-1-4.9.26.26,0,0,0-.5,0Z" transform="translate(-310.45 -102.01)"/><path class="cls-12" d="M506,342.05a11,11,0,0,1,2.76-.34c.78,0,1.93,0,2.26-.89a.49.49,0,0,0-.12-.46c-.64-.58-1.84-.19-2.62-.09a4.19,4.19,0,0,0-2.71,1.05.44.44,0,0,0,.43.73Z" transform="translate(-310.45 -102.01)"/><path class="cls-12" d="M402.21,339.57a11,11,0,0,1,2.76-.35c.78,0,1.93,0,2.26-.89a.47.47,0,0,0-.12-.46c-.63-.57-1.85-.19-2.62-.09a4.25,4.25,0,0,0-2.71,1.06.44.44,0,0,0,.43.73Z" transform="translate(-310.45 -102.01)"/><path class="cls-12" d="M449.89,329.2a11.16,11.16,0,0,1,2.76-.34c.78,0,2,0,2.26-.89a.46.46,0,0,0-.12-.46c-.63-.58-1.84-.19-2.6-.09a4.15,4.15,0,0,0-2.72,1.05.44.44,0,0,0,.42.73Z" transform="translate(-310.45 -102.01)"/><path class="cls-12" d="M511.35,354.42a10.89,10.89,0,0,1,2.54,1.13c.7.36,1.69,1,2.4.39a.44.44,0,0,0,.13-.46c-.24-.82-1.48-1.11-2.19-1.41a4.21,4.21,0,0,0-2.87-.49.44.44,0,0,0,0,.84Z" transform="translate(-310.45 -102.01)"/><path class="cls-12" d="M575.12,408.92a10.89,10.89,0,0,1,2.54,1.13c.69.35,1.69.95,2.4.39a.44.44,0,0,0,.13-.46c-.24-.82-1.48-1.11-2.19-1.42a4.18,4.18,0,0,0-2.88-.49.44.44,0,0,0,0,.85Z" transform="translate(-310.45 -102.01)"/><path class="cls-12" d="M385.84,296.7a11.56,11.56,0,0,1,2.75-.47c.78-.08,1.93-.13,2.22-1a.46.46,0,0,0-.15-.45c-.66-.55-1.85-.1-2.61,0a4.19,4.19,0,0,0-2.67,1.19.44.44,0,0,0,.46.7Z" transform="translate(-310.45 -102.01)"/><path class="cls-12" d="M573.54,395.49a11.11,11.11,0,0,1,2.55,1.12c.69.37,1.68,1,2.4.4a.5.5,0,0,0,.13-.46c-.24-.82-1.49-1.11-2.19-1.42a4.18,4.18,0,0,0-2.88-.48.43.43,0,0,0,0,.84Z" transform="translate(-310.45 -102.01)"/><path class="cls-12" d="M559,385.31a11.22,11.22,0,0,1,2.56,1.13c.69.36,1.67,1,2.38.39a.46.46,0,0,0,.14-.46c-.25-.81-1.49-1.11-2.2-1.41a4.18,4.18,0,0,0-2.87-.49.44.44,0,0,0,0,.84Z" transform="translate(-310.45 -102.01)"/><path class="cls-12" d="M517,372a1.91,1.91,0,0,0,2.23.73,15.81,15.81,0,0,0,1.81-.56,6.85,6.85,0,0,0,1.92-.67c.47-.32.64-1.19,0-1.46-1.06-.47-2,0-3.06.41a24.62,24.62,0,0,0-2.82,1.25.23.23,0,0,0-.08.3Z" transform="translate(-310.45 -102.01)"/><path class="cls-12" d="M394.41,325.56a1.92,1.92,0,0,0,2.22.73,14.74,14.74,0,0,0,1.82-.57,6.83,6.83,0,0,0,1.92-.66c.47-.32.63-1.19,0-1.47-1.07-.46-2.05,0-3.07.41a23.61,23.61,0,0,0-2.81,1.26.22.22,0,0,0-.08.3Z" transform="translate(-310.45 -102.01)"/><path class="cls-12" d="M430.69,340.36a1.93,1.93,0,0,0,2.24.73,16.29,16.29,0,0,0,1.8-.56,7.12,7.12,0,0,0,1.93-.67c.46-.32.63-1.19,0-1.46-1.06-.47-2.06,0-3.07.4a27.32,27.32,0,0,0-2.81,1.26.23.23,0,0,0-.09.3Z" transform="translate(-310.45 -102.01)"/><path class="cls-12" d="M485.32,336.43a1.91,1.91,0,0,0,2.22.74,15.85,15.85,0,0,0,1.81-.57,7.29,7.29,0,0,0,1.94-.66c.46-.32.62-1.2,0-1.47-1.08-.46-2.07,0-3.08.41a23.75,23.75,0,0,0-2.82,1.26.2.2,0,0,0-.07.29Z" transform="translate(-310.45 -102.01)"/><path class="cls-12" d="M376,314.27a1.93,1.93,0,0,0,2.24.73,17.15,17.15,0,0,0,1.81-.56,7.06,7.06,0,0,0,1.92-.67c.46-.32.63-1.19,0-1.46-1.07-.47-2.05,0-3.06.4A27.66,27.66,0,0,0,376.1,314a.24.24,0,0,0-.08.3Z" transform="translate(-310.45 -102.01)"/><path class="cls-5" d="M523.2,305.68l1.93,1.65c.52.46,1,1.12,1.79.94a.6.6,0,0,0,.48-.63c0-.78-.75-1.11-1.33-1.52s-1.36-1-2-1.49a.67.67,0,0,0-.83,1.05Z" transform="translate(-310.45 -102.01)"/><path class="cls-5" d="M545.67,312.57a17.14,17.14,0,0,1,1.22-2.42c.42-.72.78-1.4.35-2.19a.51.51,0,0,0-.65-.29c-.8.43-1,1-1.23,1.84a17.61,17.61,0,0,0-.79,2.75.58.58,0,0,0,1.1.31Z" transform="translate(-310.45 -102.01)"/><path class="cls-5" d="M539.08,327.32c1-.32,1.95-.61,2.95-.9a8.29,8.29,0,0,0,2.74-1.24,1.18,1.18,0,0,0-.54-2.1c-2.35-.33-4,2-5.79,3.07-.69.4,0,1.39.64,1.17Z" transform="translate(-310.45 -102.01)"/><path class="cls-5" d="M601.79,340c.45-1.09.87-2.19,1.33-3.27a3.82,3.82,0,0,0,.55-2.79.65.65,0,0,0-.83-.36c-1,.26-1.45,1.39-1.76,2.29-.38,1.12-.68,2.26-1,3.39s1.27,1.89,1.74.74Z" transform="translate(-310.45 -102.01)"/><path class="cls-8" d="M533.44,296.92c-6.6,7.18-14.53,13.95-17.17,23.33-1.6,5.71-.65,11.82.79,17.57a61.22,61.22,0,0,0,7.84,18.92c3.8,5.71,12,13.4,18.4,15.93,9.66,3.84,19.63,6.28,30,5.16,12-1.29,22.51-11.09,27.81-22s8.79-26.72,4.95-38.19c-.43-1.29-.91-2.57-1.39-3.84-5-13.15-17.38-24.48-30.66-29C564.53,281.59,550.92,277.86,533.44,296.92Z" transform="translate(-310.45 -102.01)"/><path class="cls-13" d="M514.69,322.13c-.09,6.31.76,11.84,3.9,16.13,6.66,9.06,19.49,18.32,28.7,24.78a5.92,5.92,0,0,0,2.49,1.19,2.09,2.09,0,0,0,2.28-1.17,1.47,1.47,0,0,0,.08-.35,7.85,7.85,0,0,0-1.69-5.48C543,347,539.88,346.75,530.07,333c-2.75-3.86,3.16-6.1,5.19-4.17,6.72,6.41,10.18,10.08,16.9,16.49a42.78,42.78,0,0,0,11.79,8c1.56.63,3.76-2.19,3.19-3.77-1.82-5.07-6-9.82-10.37-13.34s-12.71-9-15.12-13.5c-2-3.85,1.5-7.09,1.94-6.79,11.48,7.92,20.24,15.36,29.64,19.4,2.4,1,7.73-3.58-1.29-10.69-10.47-8.25-15.36-9.77-23.22-17.35-2.14-2.07,1.47-6.33,4.32-5.49.89.26,12.93,10.09,25.43,14.95,1.91.74,6.27,1.44,6.71-.44.94-4-5.11-9.16-10-12.33-5.3-3.44-13.58-9.51-19.24-12.3-4.24-2.1-12.43-4-24.75,3.16a31.5,31.5,0,0,0-11.73,12.05C516.59,312,514.76,316.32,514.69,322.13Z" transform="translate(-310.45 -102.01)"/><path class="cls-5" d="M594.46,324.59a3.64,3.64,0,1,0-5.1.6,3.67,3.67,0,0,0,5.1-.6Z" transform="translate(-310.45 -102.01)"/><path class="cls-5" d="M595.3,330.1a1.85,1.85,0,0,1,.14.14,2.78,2.78,0,0,0,3.41.05c1.11-.82,1.66-2.82.6-3.93l-.13-.14a2.9,2.9,0,0,0-4-.61,3,3,0,0,0-1.12,1.89,3,3,0,0,0,1,2.6Z" transform="translate(-310.45 -102.01)"/><path class="cls-5" d="M603.12,334.9a1.62,1.62,0,0,0-2.54-2,1.62,1.62,0,0,0,2.54,2Z" transform="translate(-310.45 -102.01)"/><path class="cls-5" d="M584.67,340.72a3.47,3.47,0,1,0-4.87.57,3.51,3.51,0,0,0,4.87-.57Z" transform="translate(-310.45 -102.01)"/><path class="cls-5" d="M591.16,345.51c2.21-2.82-2.16-6.26-4.37-3.45s2.15,6.26,4.37,3.45Z" transform="translate(-310.45 -102.01)"/><path class="cls-5" d="M596.23,347.92a1.27,1.27,0,0,0-2-1.57,1.27,1.27,0,0,0,2,1.57Z" transform="translate(-310.45 -102.01)"/><path class="cls-5" d="M571.51,352.08l-.2.09a3.57,3.57,0,0,0-2.11,2.69,3.39,3.39,0,0,0,4.59,3.63,3.56,3.56,0,0,0,2.13-2.69,1.6,1.6,0,0,1,.05-.21c.56-2.29-2.37-4.6-4.46-3.51Z" transform="translate(-310.45 -102.01)"/><path class="cls-5" d="M581.3,360a2.27,2.27,0,1,0-3.18.38,2.28,2.28,0,0,0,3.18-.38Z" transform="translate(-310.45 -102.01)"/><path class="cls-5" d="M561.42,369.78a2.94,2.94,0,1,0-4.13.49,3,3,0,0,0,4.13-.49Z" transform="translate(-310.45 -102.01)"/><path class="cls-5" d="M568,371.47a1.92,1.92,0,0,0-3-2.38,1.92,1.92,0,0,0,3,2.38Z" transform="translate(-310.45 -102.01)"/><path class="cls-5" d="M574.75,372a1.56,1.56,0,0,0-2.44-1.94,1.56,1.56,0,0,0,2.44,1.94Z" transform="translate(-310.45 -102.01)"/><path class="cls-5" d="M535,316.77c2.13-1.07,3.57-1.79,4.59-4.1s.56-5.12-.37-7.41a11.16,11.16,0,0,0-13.61-6.5c-5.47,1.48-9,8.26-9,13.55-.06,6.75,4.4,11.4,11.25,11,9.86-.53,17.44-18.58,7.14-23.65-6.48-3.18-12.39,1.94-14,8.1a10.83,10.83,0,0,0,1.23,8.55c1.65,2.65,5.62,4.62,8.39,2.2,2.57-2.24,3.42-5.71,3.65-9,.41-5.93-8.74-7.26-9.18-1.28a3.84,3.84,0,0,1-.09.75c.32-.74.63-1.49,1-2.23a5.29,5.29,0,0,0-1,3.41c0,5.42,8.4,5.12,9.19.1a4.8,4.8,0,0,0,.09-.75l-9.18-1.28a20.85,20.85,0,0,1-.46,3c.16-.75-.23.58-.24.61.91-2.27,6.43,1.54,5.38-1.11a8.71,8.71,0,0,1,.82-2.35c0-.09.66-.63.31-.44s.75.28.1,0c-.28-.1-.51-.84-.42-.1a6.2,6.2,0,0,1-.35,2,8.15,8.15,0,0,1-1.39,2.65c-.57.78-.39.58-.82.95a6.66,6.66,0,0,1-.76.55c.4-.21.37-.2-.12,0,.79-.33-.11.06-.51,0-1,0-.12.25-.72-.21.65.5-.12-.61-.12-.95,0-2.08.93-4.68,2.7-5.54a1.78,1.78,0,0,1,1.5,0,8.23,8.23,0,0,1,2.23,1.65c1.23,1.36,1.66,3.73.68,4.75-1.27,1.31.51,3.68,2.13,2.87Z" transform="translate(-310.45 -102.01)"/><path class="cls-6" d="M530,312.22c2-2.58-2-5.73-4-3.15s2,5.73,4,3.15Z" transform="translate(-310.45 -102.01)"/><path class="cls-6" d="M536.46,310.68a1.71,1.71,0,0,0-2.68-2.12,1.71,1.71,0,0,0,2.68,2.12Z" transform="translate(-310.45 -102.01)"/><path class="cls-6" d="M532.86,305.29a1.55,1.55,0,0,0-2.43-1.91,1.55,1.55,0,0,0,2.43,1.91Z" transform="translate(-310.45 -102.01)"/><path class="cls-6" d="M523.14,303.19l-.11.1a1.38,1.38,0,0,0,.27,2.33l.14.07c1,.57,2.13-.53,2-1.51s-1.48-1.78-2.3-1Z" transform="translate(-310.45 -102.01)"/><path class="cls-6" d="M521.53,312.26a1.45,1.45,0,0,0-2.28-1.8,1.45,1.45,0,0,0,2.28,1.8Z" transform="translate(-310.45 -102.01)"/><path class="cls-6" d="M524.17,318.48a1.38,1.38,0,0,0-2.17-1.71,1.38,1.38,0,0,0,2.17,1.71Z" transform="translate(-310.45 -102.01)"/><path class="cls-6" d="M531.69,318.68a1.42,1.42,0,0,0-2.23-1.76,1.42,1.42,0,0,0,2.23,1.76Z" transform="translate(-310.45 -102.01)"/><path class="cls-5" d="M488,612.83a2.91,2.91,0,0,1-3-1.27c-1.48-1.91-1.43-4.57-1.32-7a1,1,0,0,1,.23-.73.9.9,0,0,1,.58-.17,15.85,15.85,0,0,1,4.24.24,14.75,14.75,0,0,1,1.09,5.16C489.84,610.57,489.4,612.4,488,612.83Z" transform="translate(-310.45 -102.01)"/><path class="cls-6" d="M545.42,436c4.71-3.79,10.11-6.67,14.72-10.59a26.34,26.34,0,0,0,7.42-9.65,2.65,2.65,0,0,0-3.33-3.5c-3,1.09-6,1.5-8.66-.09-3.32-2-4.23-6.33-6.07-9.78a18.1,18.1,0,0,0-20.21-8.64c-8.33,2.35-14.59,10.67-23.23,10.94-10.26.31-18.24-11-28.49-10.41-8.83.51-15.16,9.71-23.94,10.72-9.78,1.13-19.39-8.25-28.59-4.8a10.74,10.74,0,0,0-3.48,2.29c-11.42,10.71-7.82,16.61-23,12.86a1.3,1.3,0,0,0-.95.1c-6.48,3.82,15.69,20.93,25.71,29.51,9.29,7.95,16.81,18.67,18.37,30.8.9,7,0,14.8,4.49,20.23a7.74,7.74,0,0,0,1.93,1.77c4.05,2.46,9-.83,12.91-3.55,13.25-9.22,29.5-12.94,45.42-15.59,7.06-1.18,14.2-2.2,20.87-4.81a4.63,4.63,0,0,0,2.74-2.77c.65-2.05-1.1-2.64-1.66-3.94a4.05,4.05,0,0,1-.05-2.39A48.48,48.48,0,0,1,545.42,436Z" transform="translate(-310.45 -102.01)"/><path class="cls-7" d="M506.41,568.38c6.36-4.11,16-9.58,18.64-16.68s4.35-14.56,7.84-21.27c3.3-6.3,8-11.7,12.45-17.24,2.29-2.87,4.59-6.87,2.56-9.93-1.7-2.58-5.43-2.69-8.47-2.14s-6.35,1.48-9.09.05c.67-8.29,1-15.95,1.7-24.25.27-3.45.54-7-.63-10.29-2.56-7.11-11-10.25-18.53-10.74-16.18-1-32,6.07-44.7,16.13a58.25,58.25,0,0,0-8.55,8.06c-4.43,5.3-7.4,11.61-10.35,17.86a46.81,46.81,0,0,0-3.64,9.46,39.46,39.46,0,0,0-.45,11.54c.67,9.29,2.38,18.6,6.23,27.08s10,16.08,18.16,20.59a45.15,45.15,0,0,0,14.9,4.91C493.53,573,498.71,573.34,506.41,568.38Z" transform="translate(-310.45 -102.01)"/><path class="cls-8" d="M489.48,608.79a29.14,29.14,0,0,1-11.28-1.17,34.38,34.38,0,0,1-19.34-14.46,32.06,32.06,0,0,1-4.25-23.68,144.76,144.76,0,0,0,61.12-.31c1,8.75-.44,17.94-5,25.48S498.25,607.87,489.48,608.79Z" transform="translate(-310.45 -102.01)"/><path class="cls-5" d="M469.37,533.81a7.84,7.84,0,0,1,1.92-.16c10.25.69,24.27,2.86,33.79.56a21.6,21.6,0,0,0,3.43-.69c.64-.31.4-1.49,1-1.18,1.31.64,2.57,11.17,2.37,16.37a1.12,1.12,0,0,1-.78,1.06c-3.84,1.15-9.44.94-13.26.68-4.8-.34-11.63-1.7-15-3.49C479.2,545,473.21,541.83,469.37,533.81Z" transform="translate(-310.45 -102.01)"/><path class="cls-2" d="M509.93,532.71a.42.42,0,0,1-.05.32c-2.15,3.16-5,6.1-12.34,8-10.14,2.68-21,.43-28.17-7.25,10.59-5.54,18-6.17,35.26-3.45C506.35,530.64,509.35,531.09,509.93,532.71Z" transform="translate(-310.45 -102.01)"/><path class="cls-4" d="M484.12,490.65c-.59.33,1.2,3-2.84,3.71-1.8.34-2.81-.26-3.16-2.07-.44-2.29,1.75-6.19,4.79-8.08s5.7-3,9.27-2.79a46,46,0,0,1,27.08,10.75c2.61,2.23,8,6.67,9.37,6.23s3.9-3.8,8.84-10.26c3-3.94,7.93-8.77,12.88-8.62a5.89,5.89,0,0,1,5.35,3.6c1,2.22.68,4.72-1.32,6.12-2.83,1.95-4-.12-5.12-.55-.67-.27-.29,1.9.11,2.5,2.73,4.27,7.78,3,10.69,1s4.12-5.27,4.8-8.74a16.61,16.61,0,0,0-.82-8.54c-2.07-5.59-8.93-6.68-14.89-6.95-7.53-.33-14.4,3.81-16.81,9.28-4.47,10.14-3.67,11.4-4.8,11.24-.76-.11-1.93-7.74-3.6-10.59-8.28-14.07-27.24-12.93-35.67-10.79s-14.41,7.22-17.46,15.38c-2.95,7.85-.47,12.1,2.83,16a9.54,9.54,0,0,0,8.62,3.06,5.74,5.74,0,0,0,4.58-4.8C487.4,492.62,484.88,490.21,484.12,490.65Z" transform="translate(-310.45 -102.01)"/><path class="cls-9" d="M440.36,550.34c-2.71-3.72-8-13.22-10.68-17-5.18-7.25-7.26-15.57-15.21-19.57-3.86-1.94-8.88-3-13.1-3.93s-7-2.86-9-6.69c-2.31-4.49-3.13-8.9-.43-16.29,1.07-2.92,6.11-9,20.13-10.46a101,101,0,0,1,16.67-.46c8.83.55,8.19.73,17,.73,6.1,0,6.1.28,8.43,5.82,1.57,3.73,4,17.57,5.83,23.86.64,2.26,8.47,35.24,9.8,40.09l3.12,11.42c.57,2.09,1.12,4.4.19,6.34-1.41,3-5.27,3.5-8.51,3.66-2.25.13-4.5.24-6.75.35a7.7,7.7,0,0,1-2.71-.17c-1.06-.33-.47-2.85-1.26-3.64C447.78,558.19,445.52,557.41,440.36,550.34Z" transform="translate(-310.45 -102.01)"/><path class="cls-5" d="M491.65,530.54c-6.09-.36-6.23,4.29-6.18,5.82a4.78,4.78,0,0,0,4.34,4.35,5.36,5.36,0,0,0,5.58-4.23C495.84,534,494.21,530.7,491.65,530.54Z" transform="translate(-310.45 -102.01)"/><g class="cls-14"><path class="cls-5" d="M524.27,501.64c4.24,2,7.3-2.28,8.82-5.76.93-2.12,1.84-4.42,1.39-6.8-1.3-6.85-3.25-11.14-.21-18,.15-.33-.24-.7-.53-.41-3.49,3.4-4.41,6.94-3.75,11.69.44,3.26,2.33,5.9,2.23,9.32-.14,4.72-2.58,9.31-7.84,9.57a.22.22,0,0,0-.11.4Z" transform="translate(-310.45 -102.01)"/><path class="cls-5" d="M525.62,498.84c-4.15-7.92,1.17-11.46,1.25-19a19.33,19.33,0,0,0-5.93-14,.38.38,0,0,0-.64.37c1,3.14,2.2,6.19,3.18,9.32,1.47,4.66-1.4,9.49-2.53,13.87s.77,7.45,4,10a.43.43,0,0,0,.67-.51Z" transform="translate(-310.45 -102.01)"/><path class="cls-5" d="M537.15,493.49c4.1-1.88,3.82-7.1,3.28-10.94-.64-4.51-1.49-9,1.82-12.79,2.41-2.72,6.08-2.2,9-3.72a1,1,0,0,0-.21-1.71c-5.19-2.18-10.67,2.65-12.7,7.08-1.25,2.7-1,5.76-.67,8.62.65,5,1.06,8.07-1.4,12.59a.64.64,0,0,0,.88.87Z" transform="translate(-310.45 -102.01)"/><path class="cls-5" d="M543.18,488.14c3.41-1.77,4.09-5.13,4.52-8.76.38-3.38.88-6.23,2.67-9.2,1.94-3.24,5.33-4.77,8.15-7,.38-.3,0-.82-.43-.74-4.72,1-8.48,5.21-10.63,9.31-2.57,4.89-.72,11.46-4.89,15.63a.51.51,0,0,0,.61.8Z" transform="translate(-310.45 -102.01)"/><path class="cls-5" d="M548.38,486c4.47.54,5.54-6.15,7-9,2.81-5.6,9.23-6.51,14.57-7.67a.62.62,0,0,0,.27-1c-2.92-3.18-9.48.63-12.25,2.36a14.37,14.37,0,0,0-4.79,5c-1.46,2.54-1.79,8.3-4.92,9.34a.51.51,0,0,0,.13,1Z" transform="translate(-310.45 -102.01)"/><path class="cls-5" d="M553,488.09c2.57-4.37,7.34-4.91,11.19-7.69,2.59-1.87,5.83-5.49,5.85-8.85a.53.53,0,0,0-.9-.37c-1.6,1.64-2.42,3.9-3.92,5.67a16.39,16.39,0,0,1-6.3,4.23c-3.05,1.3-6.45,3.17-6.55,6.84a.34.34,0,0,0,.63.17Z" transform="translate(-310.45 -102.01)"/><path class="cls-5" d="M548.07,489.56c3.31,3,7.66,4.27,12,2.36,5.91-2.62,8-8.48,13.31-11.76A.61.61,0,0,0,573,479c-3.21-.06-5.19,2.16-7,4.59-4.86,6.42-9.89,7.9-17.81,5.7a.15.15,0,0,0-.14.25Z" transform="translate(-310.45 -102.01)"/><path class="cls-5" d="M519,495.21c-1.26-.78-1.9-5.38-2.32-6.76-1.48-4.72-.35-8.87.87-13.42,1.08-4-1.06-7-3.67-9.82a.64.64,0,0,0-1.06.62c.78,3.88,2.79,6.06,1.56,10.41-.83,2.95-1.57,5.76-1.08,8.89s1.21,10.33,5.19,11.29a.67.67,0,0,0,.51-1.21Z" transform="translate(-310.45 -102.01)"/><path class="cls-5" d="M509.88,489.11c-4.55-4.77-.82-13.12-2.31-19.05-1.09-4.33-5-9-9.42-9.83a.66.66,0,0,0-.74,1c1.39,2.49,3.7,4.23,5.4,6.53,2.14,2.88,2.36,6.53,2.33,10,0,4.62.5,8.89,4.53,11.69.17.11.34-.13.21-.27Z" transform="translate(-310.45 -102.01)"/><path class="cls-5" d="M501.56,486.87c-2.53-5.34-.28-11.26-2.58-16.71-1.47-3.45-5.09-7.79-8.74-8.9-.33-.09-.72.26-.59.6,1.7,4.58,6.44,7.07,8,12s-.23,9,3.36,13.44c.28.33.73-.1.57-.44Z" transform="translate(-310.45 -102.01)"/><path class="cls-5" d="M495.35,486.73c-4.68-.34-3.7-9.73-4.66-13.09-1.22-4.25-4.53-9.46-9.31-9.92a.64.64,0,0,0-.54,1c1.86,2.81,4.81,4.57,6.68,7.47,1.56,2.39,1.92,5,2.41,7.69.53,3,1.77,7.49,5.42,7.53a.32.32,0,0,0,0-.64Z" transform="translate(-310.45 -102.01)"/><path class="cls-5" d="M487.25,487.62c-3.22-1.43-4.11-8.09-5.77-11.08-2-3.55-5.05-7.48-9.47-7.41a.68.68,0,0,0-.48,1.16c1.52,1.8,3.43,3.19,5.05,4.9a26.69,26.69,0,0,1,4.13,6.51c1.28,2.54,3.05,6.48,6.35,6.58.34,0,.52-.52.19-.66Z" transform="translate(-310.45 -102.01)"/><path class="cls-5" d="M483.21,502.81c2.18-4.81.9-8.56-2.15-12.73-1.87-2.58-4.71-4.44-6.85-6.81-3.32-3.68-2.85-7.8-4.11-12.13a.75.75,0,0,0-1.36-.18c-2.11,4.25-.26,8.88,2.24,12.63,4.56,6.91,12.64,9.37,12.07,19.17,0,.08.12.13.16.05Z" transform="translate(-310.45 -102.01)"/><path class="cls-5" d="M478.37,504.3c.48-4.72-1.25-7.67-4.49-11.09-2.6-2.71-5.67-3.9-7.21-7.66-.87-2.14-1-3.94-2.65-5.57a.74.74,0,0,0-1.26.52,16.61,16.61,0,0,0,3.79,10c4,4.8,10,6.93,11.32,13.86.05.3.47.19.5-.06Z" transform="translate(-310.45 -102.01)"/></g><g class="cls-15"><path class="cls-5" d="M470.67,564c-8.75-6.68-4.36-12-4.37-19.64,0-1.65-1.24-4.43-2.75-5.24-12.55-6.8-2.49-17.85-4.74-28-.66-2.92-4.38-6.55-6-8.85-5.33-7.52-3.39-13.78-1.54-21.79,1.42-6.13-1.82-12-6.78-15.33a.85.85,0,0,0-1.24,1c2.07,5.71,5.44,9.26,3.94,15.95-.8,3.54-2.81,7-2.05,10.77a32.89,32.89,0,0,0,6.23,13.32c3.49,4.74,5.75,5.14,4.4,13-.46,2.72-1.8,5.28-2,8-.82,10.37,11.23,14.58,9.06,24.24-1.35,6,1.26,12.5,7.67,13.31.42,0,.45-.52.19-.71Z" transform="translate(-310.45 -102.01)"/><path class="cls-5" d="M460.14,564.69c-3.64-.73,1-15-2.67-18.65-4.93-4.89-11-8.79-8.52-17.34,1-3.6,2.73-7.58,1.75-11.41-2.93-11.58-13.91-15.22-10.32-29.37,1.71-6.79,4.59-14.34-1.88-19.31-.53-.42-1.14.35-.87.86,5.65,10.46-3.9,21.19.15,32.34,1.06,2.91,3.48,5.45,5.44,7.75,5.89,6.9,4.64,13,2.39,21.13-1.92,7,1.92,10.83,7.18,14.46,8.71,6-.77,16.21,5.74,21a.89.89,0,0,0,.88,0l.85-.49a.51.51,0,0,0-.12-.92Z" transform="translate(-310.45 -102.01)"/><path class="cls-5" d="M450.62,566.49c4.91-3.92.74-10.92-2-15s-6.85-6.15-8.57-11.41c-2.15-6.58,2.45-12,1.7-18.43-1.43-12.21-17-14.87-12.2-29.6,3.45-10.52,9-17.43,3-28.43a.55.55,0,0,0-1,.28c.46,7.15,1.73,12.86-2.11,19.69a39,39,0,0,0-4.89,12.53c-1.16,6.49,3.64,12.18,7.52,16.73,4.67,5.46,6.89,10.45,4.37,17.43-1.22,3.39-.49,7.34.18,10.76,1.73,9,17.87,13.83,13,24.68a.62.62,0,0,0,1,.75Z" transform="translate(-310.45 -102.01)"/><path class="cls-5" d="M427.78,539.29c8.51-10.69,1.51-22.51-6.61-30.36-10.89-10.52-1-20.24,3.28-30.65,2-4.95,2-11.89-2.89-14.86-.57-.35-1.49.24-1.21.93,6,14.94-10.61,23.87-6.88,39.06,1.09,4.47,5.44,7.91,8.62,10.85,7.39,6.86,6.91,15.31,4.52,24.35-.16.63.72,1.26,1.17.68Z" transform="translate(-310.45 -102.01)"/><path class="cls-5" d="M418.79,520.66c-.52-4.07-2.38-6.68-5.24-9.6-6.49-6.65-9.75-12.83-4.66-21.5,3.48-5.94,9.51-12.6,4.58-19.45a.71.71,0,0,0-1.3.36c0,6.26-1.86,10.45-5.27,15.59-1.83,2.75-4.12,6.25-4.21,9.71-.33,12.49,9.54,15.48,15.23,25.13.22.35.93.24.87-.24Z" transform="translate(-310.45 -102.01)"/><path class="cls-5" d="M404.33,516.12c-4.7-6.52-8.88-11.51-6.79-20.09,1.39-5.73,5.53-10.18,6.65-16.12,1-5.4-.52-12.14-6.2-13.82a.73.73,0,0,0-.7,1.21c10.13,9.07-1.12,20.67-3.17,30.43-1.73,8.24,3.76,14.07,9.47,19,.38.32,1.07-.12.74-.57Z" transform="translate(-310.45 -102.01)"/></g><path class="cls-6" d="M449.23,557a3.27,3.27,0,0,0-1.91,0,3.14,3.14,0,0,0-1.15,1.22c-3.12,4.83-4.77,9.3-7.61,14.07a1.43,1.43,0,0,0,.8,2.1c27.33,7.75,65.74,5.72,87.65.75a2.51,2.51,0,0,0,1.53-.84c.66-.91,0-2.15-.65-3.06l-7-9.9a5,5,0,0,0-2.14-2C517.84,559,462.85,559.77,449.23,557Z" transform="translate(-310.45 -102.01)"/><path class="cls-5" d="M516.22,564.67a4.22,4.22,0,1,0,4.21,4.21,4.25,4.25,0,0,0-4.21-4.21Z" transform="translate(-310.45 -102.01)"/><path class="cls-5" d="M502.72,565.69a5,5,0,0,0-6.44.89,4.88,4.88,0,0,0-1.2,4.52,4.79,4.79,0,0,0,3.24,3.25,5.29,5.29,0,0,0,5.34-1.38c2.24-2.23,1.49-5.58-.94-7.28Z" transform="translate(-310.45 -102.01)"/><path class="cls-5" d="M478.86,566.81a.87.87,0,0,1-.1.19,5.07,5.07,0,0,0,3,7.35c3,.81,6.58-1.54,6.33-4.82a1.25,1.25,0,0,0,0-.21,5.08,5.08,0,0,0-3.63-4.78,5,5,0,0,0-5.58,2.27Z" transform="translate(-310.45 -102.01)"/><path class="cls-5" d="M466.07,564.25a4.47,4.47,0,1,0,4.47,4.47,4.5,4.5,0,0,0-4.47-4.47Z" transform="translate(-310.45 -102.01)"/><path class="cls-5" d="M450.18,563.22a3.49,3.49,0,1,0,3.49,3.49,3.52,3.52,0,0,0-3.49-3.49Z" transform="translate(-310.45 -102.01)"/><path class="cls-5" d="M503.39,593.55c.09-1,.76-2.12.38-3.17a.84.84,0,0,0-1.52-.21c-.63,1-.32,2.44-.06,3.54.15.71,1.15.49,1.2-.16Z" transform="translate(-310.45 -102.01)"/><path class="cls-5" d="M490.92,587.16a3.55,3.55,0,0,0,.38-2.14c0-1.27-2.05-1.24-1.94,0a4.35,4.35,0,0,0,.61,2.14.55.55,0,0,0,.95,0Z" transform="translate(-310.45 -102.01)"/><path class="cls-5" d="M493.56,604.45a8.84,8.84,0,0,0,.56-4.17,1,1,0,0,0-1.9,0,9.1,9.1,0,0,0,.56,4.17.41.41,0,0,0,.78,0Z" transform="translate(-310.45 -102.01)"/><path class="cls-5" d="M482,597.27c.16-1.07.57-2.75-.45-3.49a.49.49,0,0,0-.66.17c-.6.83,0,2.4.17,3.32a.49.49,0,0,0,.94,0Z" transform="translate(-310.45 -102.01)"/><path class="cls-5" d="M474.63,604.07a4.11,4.11,0,0,0,.36-3,1.17,1.17,0,0,0-2.29.31,4.19,4.19,0,0,0,.24,1.21c.18.5.56.86.75,1.34a.52.52,0,0,0,.94.14Z" transform="translate(-310.45 -102.01)"/><path class="cls-5" d="M472,585.28a9.33,9.33,0,0,0,.3-2.42c-.05-1.2-1.92-1.2-1.86,0a15.29,15.29,0,0,0,.5,2.42.55.55,0,0,0,1.06,0Z" transform="translate(-310.45 -102.01)"/><path class="cls-5" d="M465.25,594c0-.18.18-.36.22-.54a5.31,5.31,0,0,0,.15-1.08,2.68,2.68,0,0,0-.56-2.14,1.06,1.06,0,0,0-1.66.21,3.14,3.14,0,0,0,0,2.24,2.82,2.82,0,0,0,1.14,1.61.44.44,0,0,0,.76-.3Z" transform="translate(-310.45 -102.01)"/><path class="cls-5" d="M458.83,583.62c-.11-1.1.3-2.48-.36-3.43a1,1,0,0,0-1.8.76,5.67,5.67,0,0,0,.76,1.41c.29.46.48,1,.74,1.43s.71.18.66-.17Z" transform="translate(-310.45 -102.01)"/><path class="cls-5" d="M510.45,583.75c.18-1.2.9-3.11-.15-4.06a.46.46,0,0,0-.65,0c-1,.95-.33,2.86-.14,4.06a.49.49,0,0,0,.94,0Z" transform="translate(-310.45 -102.01)"/><path class="cls-8" d="M516.09,567.67a1.34,1.34,0,0,0,0,2.67,1.34,1.34,0,0,0,0-2.67Z" transform="translate(-310.45 -102.01)"/><path class="cls-8" d="M499.84,568.93a1.17,1.17,0,0,0,0,2.33,1.17,1.17,0,0,0,0-2.33Z" transform="translate(-310.45 -102.01)"/><path class="cls-8" d="M482.91,567.59a1.63,1.63,0,0,0,0,3.26,1.63,1.63,0,0,0,0-3.26Z" transform="translate(-310.45 -102.01)"/><path class="cls-8" d="M465.9,567.15a1.52,1.52,0,0,0,0,3,1.52,1.52,0,0,0,0-3Z" transform="translate(-310.45 -102.01)"/><path class="cls-8" d="M450.29,565.21a1.5,1.5,0,0,0,0,3,1.5,1.5,0,0,0,0-3Z" transform="translate(-310.45 -102.01)"/><path class="cls-8" d="M482.55,445.15c3.07-12.34,2.95-29.38-2.58-41.07-2.78-5.89-11.27-.75-8.67,5.08,4.73,10.63,6.68,24.06,8,35.56.19,1.73,2.75,2.37,3.24.43Z" transform="translate(-310.45 -102.01)"/><path class="cls-8" d="M453.54,451.41c.8-8-2.25-15.59-5.81-22.63-2.71-5.35-8.83-17-16-16.22a4,4,0,0,0-3.93,3.93c-.43,5.67,6.89,11.17,10.06,15.42,4.75,6.37,8.2,13.53,12,20.49,1,1.88,3.48.81,3.67-1Z" transform="translate(-310.45 -102.01)"/><path class="cls-5" d="M501.93,448.26A94.62,94.62,0,0,0,506.08,430c.79-5.75,2.43-11.8,1.67-17.61-.61-4.57-7.95-6.72-8.91-1.21-2.09,12-.4,24.45-.53,36.56,0,2.15,3,2.4,3.62.49Z" transform="translate(-310.45 -102.01)"/><path class="cls-5" d="M470.75,452c1.62-9.22-.42-17.89-2.82-26.8-1.63-6-4.49-16.26-10.71-18.81-5.29-2.16-7.87,5.12-5,8.6s4.78,9.82,6.78,14a120.43,120.43,0,0,1,8.15,23c.43,1.7,3.26,1.86,3.59,0Z" transform="translate(-310.45 -102.01)"/><path class="cls-5" d="M438.8,449.52c1-7.52-4-12.72-9-17.67-4.37-4.34-8-10.82-14.73-11.38-6.45-.52-6.58,10.28,0,10.11,2.38-.06,6.16,4.78,8.08,6.22,3.76,2.85,11.66,7.49,12.25,12.72a1.71,1.71,0,0,0,3.42,0Z" transform="translate(-310.45 -102.01)"/><path class="cls-5" d="M481,432c-2.62,0-2.62,4.06,0,4.06s2.62-4.06,0-4.06Z" transform="translate(-310.45 -102.01)"/><path class="cls-5" d="M480.29,422.8c-2.94,0-2.94,4.56,0,4.56s3-4.56,0-4.56Z" transform="translate(-310.45 -102.01)"/><path class="cls-5" d="M477.56,415.05l-.06,0a2.43,2.43,0,0,0,0,3.39l.06,0a2.45,2.45,0,1,0,0-3.47Z" transform="translate(-310.45 -102.01)"/><path class="cls-5" d="M477.64,410l.12-.11a1.65,1.65,0,0,0,0-2.33l-.12-.11a1.8,1.8,0,1,0,0,2.55Z" transform="translate(-310.45 -102.01)"/><path class="cls-5" d="M450,443a1.9,1.9,0,0,0,0,3.8,1.9,1.9,0,0,0,0-3.8Z" transform="translate(-310.45 -102.01)"/><path class="cls-5" d="M447.3,435.57c-2.84,0-2.84,4.41,0,4.41s2.85-4.41,0-4.41Z" transform="translate(-310.45 -102.01)"/><path class="cls-5" d="M442.94,427.39a2.88,2.88,0,1,0,2.88,2.88,2.91,2.91,0,0,0-2.88-2.88Z" transform="translate(-310.45 -102.01)"/><path class="cls-5" d="M437.53,420.9a2.65,2.65,0,1,0,2.64,2.65,2.67,2.67,0,0,0-2.64-2.65Z" transform="translate(-310.45 -102.01)"/><path class="cls-5" d="M432.9,416.66c-2.5,0-2.5,3.89,0,3.89a2,2,0,0,0,0-3.89Z" transform="translate(-310.45 -102.01)"/><path class="cls-5" d="M433.46,415.66,431.53,414c-.54-.45-1-1.11-1.79-.93a.57.57,0,0,0-.49.62c0,.79.76,1.11,1.32,1.52s1.37,1,2.05,1.49a.67.67,0,0,0,.84-1Z" transform="translate(-310.45 -102.01)"/><path class="cls-5" d="M411,408.78a17.69,17.69,0,0,1-1.22,2.42c-.41.72-.78,1.39-.36,2.19.12.22.4.43.66.28.79-.42.95-1,1.23-1.83a18.93,18.93,0,0,0,.8-2.76.58.58,0,0,0-1.11-.3Z" transform="translate(-310.45 -102.01)"/><path class="cls-5" d="M417.57,394c-1,.32-1.95.62-2.94.89a8.22,8.22,0,0,0-2.74,1.25,1.17,1.17,0,0,0,.52,2.09c2.36.33,4-2,5.8-3.06.7-.4,0-1.4-.64-1.17Z" transform="translate(-310.45 -102.01)"/><path class="cls-5" d="M354.86,381.37c-.45,1.09-.86,2.19-1.33,3.26a3.94,3.94,0,0,0-.55,2.8.64.64,0,0,0,.82.36c1-.26,1.47-1.39,1.78-2.3.38-1.11.67-2.26,1-3.39s-1.27-1.88-1.73-.73Z" transform="translate(-310.45 -102.01)"/><path class="cls-8" d="M423.22,424.43c6.58-7.18,14.52-14,17.16-23.34,1.6-5.71.66-11.81-.8-17.57a60.76,60.76,0,0,0-7.83-18.91c-3.79-5.71-12-13.41-18.41-15.94-9.65-3.84-19.63-6.28-30-5.16-12,1.3-22.51,11.1-27.8,22s-8.79,26.72-4.95,38.19c.43,1.3.92,2.58,1.39,3.85,5,13.14,17.39,24.48,30.67,29C392.14,439.76,405.73,443.49,423.22,424.43Z" transform="translate(-310.45 -102.01)"/><path class="cls-13" d="M442,399.21c.08-6.3-.77-11.83-3.92-16.12-6.65-9.07-19.47-18.33-28.69-24.78a6,6,0,0,0-2.49-1.2,2.12,2.12,0,0,0-2.29,1.18,1.36,1.36,0,0,0-.07.35,8,8,0,0,0,1.68,5.48c7.49,10.28,10.58,10.47,20.39,24.25,2.76,3.85-3.17,6.1-5.19,4.17-6.72-6.4-10.17-10.09-16.9-16.5a42.54,42.54,0,0,0-11.8-8c-1.55-.63-3.75,2.2-3.18,3.77,1.83,5.08,6,9.83,10.37,13.35s12.7,9,15.11,13.5c2.06,3.85-1.48,7.08-1.93,6.78-11.48-7.92-20.24-15.36-29.64-19.39-2.39-1-7.74,3.58,1.29,10.69,10.48,8.24,15.37,9.76,23.22,17.35,2.15,2.06-1.47,6.32-4.32,5.48-.89-.25-12.92-10.08-25.44-14.94-1.9-.75-6.26-1.44-6.7.43-.94,4,5.11,9.17,10,12.34,5.29,3.44,13.59,9.5,19.25,12.3,4.23,2.1,12.43,4,24.74-3.17a31.64,31.64,0,0,0,11.74-12C440.06,409.4,441.9,405,442,399.21Z" transform="translate(-310.45 -102.01)"/><path class="cls-5" d="M362.2,396.76a3.63,3.63,0,1,0,5.1-.61,3.66,3.66,0,0,0-5.1.61Z" transform="translate(-310.45 -102.01)"/><path class="cls-5" d="M361.35,391.25l-.14-.14a2.78,2.78,0,0,0-3.41-.05c-1.12.82-1.65,2.81-.6,3.93l.14.14a2.86,2.86,0,0,0,3.93.6,2.77,2.77,0,0,0,1.12-1.88,3,3,0,0,0-1-2.6Z" transform="translate(-310.45 -102.01)"/><path class="cls-5" d="M353.53,386.44a1.62,1.62,0,0,0,2.54,2,1.62,1.62,0,0,0-2.54-2Z" transform="translate(-310.45 -102.01)"/><path class="cls-5" d="M372,380.63a3.47,3.47,0,1,0,4.88-.58,3.52,3.52,0,0,0-4.88.58Z" transform="translate(-310.45 -102.01)"/><path class="cls-5" d="M365.49,375.85c-2.21,2.81,2.15,6.25,4.37,3.43s-2.14-6.25-4.37-3.43Z" transform="translate(-310.45 -102.01)"/><path class="cls-5" d="M360.41,373.43a1.28,1.28,0,0,0,2,1.57,1.28,1.28,0,0,0-2-1.57Z" transform="translate(-310.45 -102.01)"/><path class="cls-5" d="M385.15,369.27l.19-.1a3.57,3.57,0,0,0,2.12-2.69,3.4,3.4,0,0,0-4.6-3.63,3.55,3.55,0,0,0-2.12,2.69,2.09,2.09,0,0,0-.05.21c-.57,2.3,2.35,4.61,4.46,3.52Z" transform="translate(-310.45 -102.01)"/><path class="cls-5" d="M375.35,361.34a2.27,2.27,0,1,0,3.19-.37,2.28,2.28,0,0,0-3.19.37Z" transform="translate(-310.45 -102.01)"/><path class="cls-5" d="M395.23,351.57a2.94,2.94,0,1,0,4.13-.49,3,3,0,0,0-4.13.49Z" transform="translate(-310.45 -102.01)"/><path class="cls-5" d="M388.64,349.88c-1.54,1.94,1.48,4.33,3,2.38s-1.5-4.34-3-2.38Z" transform="translate(-310.45 -102.01)"/><path class="cls-5" d="M381.9,349.33a1.56,1.56,0,0,0,2.45,1.94,1.56,1.56,0,0,0-2.45-1.94Z" transform="translate(-310.45 -102.01)"/><path class="cls-5" d="M421.64,404.58c-2.14,1.07-3.57,1.79-4.61,4.09s-.56,5.11.38,7.41a11.17,11.17,0,0,0,13.62,6.5c5.46-1.48,9-8.25,9-13.53.07-6.77-4.39-11.41-11.24-11.05-9.87.52-17.44,18.58-7.15,23.65,6.48,3.18,12.4-1.94,14-8.1a10.66,10.66,0,0,0-1.25-8.55c-1.64-2.65-5.59-4.63-8.37-2.21-2.57,2.24-3.42,5.72-3.64,9-.43,5.92,8.74,7.26,9.18,1.28a3.82,3.82,0,0,1,.08-.75c-.32.74-.63,1.49-1,2.22a5.3,5.3,0,0,0,1-3.41c0-5.41-8.39-5.11-9.19-.1a4.9,4.9,0,0,0-.08.76l9.18,1.28a20.63,20.63,0,0,1,.45-3c-.16.74.23-.58.24-.62-.91,2.28-6.42-1.53-5.38,1.12a9.75,9.75,0,0,1-.81,2.34c-.05.09-.67.63-.31.45s-.76-.28-.11,0c.28.1.51.84.42.1a6.75,6.75,0,0,1,.35-2,8.77,8.77,0,0,1,1.38-2.65c.58-.79.41-.59.84-1,.24-.19.48-.38.74-.55-.39.21-.35.21.13,0-.79.33.11-.06.51,0,1,0,.12-.25.71.21-.64-.51.13.6.13.94,0,2.09-.94,4.69-2.69,5.54a1.77,1.77,0,0,1-1.51,0,8.44,8.44,0,0,1-2.23-1.65c-1.22-1.36-1.66-3.73-.68-4.76,1.27-1.3-.52-3.67-2.12-2.86Z" transform="translate(-310.45 -102.01)"/><path class="cls-6" d="M426.71,409.13c-2,2.58,2,5.72,4,3.15s-2-5.73-4-3.15Z" transform="translate(-310.45 -102.01)"/><path class="cls-6" d="M420.19,410.68a1.7,1.7,0,0,0,2.68,2.1,1.7,1.7,0,0,0-2.68-2.1Z" transform="translate(-310.45 -102.01)"/><path class="cls-6" d="M423.79,416.05a1.55,1.55,0,0,0,2.43,1.92,1.55,1.55,0,0,0-2.43-1.92Z" transform="translate(-310.45 -102.01)"/><path class="cls-6" d="M433.51,418.17a.43.43,0,0,1,.12-.11,1.38,1.38,0,0,0-.28-2.33l-.14-.08c-1-.57-2.12.53-2,1.52s1.47,1.78,2.3,1Z" transform="translate(-310.45 -102.01)"/><path class="cls-6" d="M435.12,409.08a1.46,1.46,0,0,0,2.29,1.8,1.46,1.46,0,0,0-2.29-1.8Z" transform="translate(-310.45 -102.01)"/><path class="cls-6" d="M432.48,402.87a1.38,1.38,0,0,0,2.17,1.71,1.38,1.38,0,0,0-2.17-1.71Z" transform="translate(-310.45 -102.01)"/><path class="cls-6" d="M425,402.66a1.42,1.42,0,0,0,2.23,1.76,1.42,1.42,0,0,0-2.23-1.76Z" transform="translate(-310.45 -102.01)"/><path class="cls-12" d="M455.89,351.87c3.25,10.4,17.94,16.08,26.18,22.06,6.17,4.47,14.13,5.37,19.78-.72,6.4-6.89,4-17.41-3.79-21.93-9.53-5.52-19.38-10.81-29.41-15.35-17.06-7.74-29.65,16.32-13.43,25.78,9.53,5.55,19.9,9.8,29.92,14.38L494.53,350a174.09,174.09,0,0,0-17.35-4.66c-5.58-1.19-11.55-3.31-17.17-1.41a6.4,6.4,0,0,0-4.12,7.93Z" transform="translate(-310.45 -102.01)"/><path class="cls-13" d="M475.56,362l.24.06a6,6,0,0,0,5.39-10.34l-.19-.16a6.32,6.32,0,0,0-4.46-1.63,6.11,6.11,0,0,0-5.52,7.93,6.27,6.27,0,0,0,4.54,4.14Z" transform="translate(-310.45 -102.01)"/><path class="cls-13" d="M466.57,350.65c2.33-4.49-4.62-8.11-7-3.62s4.63,8.11,7,3.62Z" transform="translate(-310.45 -102.01)"/><path class="cls-13" d="M494.86,363.63c2.08-4-4.11-7.21-6.19-3.22s4.1,7.21,6.19,3.22Z" transform="translate(-310.45 -102.01)"/><path class="cls-4" d="M358.08,207.3c1.39-1.25,2.92-2.21,4.42-3.33a26.52,26.52,0,0,0,4.71-3.84,11.75,11.75,0,0,0,2.12-4.13c.53-1.59.6-5-.29-6.43-2.56-4.1-9.7-7.69-14.4,1.34a.4.4,0,0,1-.34.21h0a.37.37,0,0,1-.34-.21c-4.72-9-11.85-5.44-14.42-1.34-.88,1.42-.81,4.84-.28,6.43a11.75,11.75,0,0,0,2.12,4.13,26.52,26.52,0,0,0,4.71,3.84c1.49,1.12,3,2.08,4.41,3.33.7.63,3.8,4,3.8,4S357.4,207.93,358.08,207.3Z" transform="translate(-310.45 -102.01)"/><path class="cls-4" d="M602.17,513.26c-1.39,1.24-2.92,2.21-4.41,3.32a26.23,26.23,0,0,0-4.7,3.85,11.25,11.25,0,0,0-2.13,4.12c-.54,1.59-.6,5,.29,6.43,2.56,4.1,9.7,7.7,14.4-1.33a.39.39,0,0,1,.34-.21h0a.37.37,0,0,1,.33.21c4.7,9,11.85,5.43,14.4,1.33.89-1.41.83-4.84.29-6.43a11.54,11.54,0,0,0-2.12-4.12,27,27,0,0,0-4.7-3.85c-1.51-1.11-3-2.08-4.42-3.32-.69-.63-3.79-4-3.79-4S602.87,512.63,602.17,513.26Z" transform="translate(-310.45 -102.01)"/><path class="cls-4" d="M364.08,126.83v33.09q0,8.67-3.92,12.08c-2.6,2.29-6.05,3.42-10.35,3.42a25.35,25.35,0,0,1-6.95-1v-4.88a29.77,29.77,0,0,0,6.21.73c2.66,0,4.61-.39,5.87-1.18a5.9,5.9,0,0,0,2.52-3.07,20.68,20.68,0,0,0,.65-6.11v-33.1Z" transform="translate(-310.45 -102.01)"/><path class="cls-4" d="M595.85,593.11V560c0-5.75,1.3-9.78,3.9-12.06s6-3.43,10.36-3.43a25.78,25.78,0,0,1,6.95,1v4.88a30.48,30.48,0,0,0-6.22-.72,11.4,11.4,0,0,0-5.86,1.18,5.79,5.79,0,0,0-2.52,3.07,20.68,20.68,0,0,0-.65,6.11v33.1Z" transform="translate(-310.45 -102.01)"/><path class="cls-4" d="M449.9,591.64H361.76c-13.72,0-24.88-11.86-24.88-26.43V231.73h1.56V565.21c0,13.72,10.45,24.88,23.32,24.88H449.9Z" transform="translate(-310.45 -102.01)"/><rect class="cls-4" x="210.27" y="488.07" width="61.23" height="1.55"/><path class="cls-4" d="M623,489.85h-1.55V154.73c0-13.72-10.46-24.88-23.32-24.88h-90.9v-1.54h90.9c13.72,0,24.87,11.85,24.87,26.42Z" transform="translate(-310.45 -102.01)"/><rect class="cls-4" x="69.96" y="26.29" width="56.66" height="1.55"/></g></svg>