<svg xmlns="http://www.w3.org/2000/svg" xmlns:xlink="http://www.w3.org/1999/xlink" viewBox="0 0 341.71 520"><defs><style>.cls-1{fill:none;}.cls-2{fill:#fff;}.cls-3{fill:#2d2d2d;}.cls-4{fill:#222272;}.cls-5{fill:#fcc07e;}.cls-6{fill:#f70032;}.cls-7{fill:#990028;}.cls-8{fill:#141247;}.cls-9{fill:#0c0a35;}.cls-10{clip-path:url(#clip-path);}.cls-11{clip-path:url(#clip-path-2);}.cls-12{fill:#ffd6a1;}.cls-13{clip-path:url(#clip-path-3);}.cls-14{clip-path:url(#clip-path-4);}.cls-15{fill:#191956;}</style><clipPath id="clip-path" transform="translate(-309.1 -99.97)"><path class="cls-1" d="M524.51,559.43A125.63,125.63,0,0,0,527,541.74a54.2,54.2,0,0,0-.08-10.11c-.36-3-1.1-5.91-1.54-8.89-.9-6.13-.47-12.37-.14-18.55a650.51,650.51,0,0,0,.26-65.65,92.12,92.12,0,0,1,.68-15.57c.68-5.61,1.13-11.38,3-16.73,1.81-5.09,4.9-12.23,9.74-12.62l.44-.52c0-.82-2.41-1.5-4-1.36-17.83,1.6-23.3,10.14-26.5,21.44a179.64,179.64,0,0,0-6.49,34.91c-1.27,12.82-2.14,25.75-1.07,38.6.94,11.22,3.36,22.26,5.77,33.26,1,4.54,2,9,3,13.57a134.65,134.65,0,0,0,4.62,17.4c1.55,4.24,4.72,9.05,9.19,8.43.16-.52.33-1.06.49-1.6Z"/></clipPath><clipPath id="clip-path-2" transform="translate(-309.1 -99.97)"><path class="cls-1" d="M445.66,459.44c-.67,6.33-1.86,12.61-2.58,18.93A230.57,230.57,0,0,0,442,504.79q0,10.29.22,20.58a73.73,73.73,0,0,0,.89,11.88,39.65,39.65,0,0,0,25.6,29.86c3.94,1.35,9.19,1.63,11.36-1.93,2-3.22.06-7.3-1-10.94A43.43,43.43,0,0,1,478,543c-.51-46.39,1.06-93-5.57-138.93-.9-6.21-2.07-12.68-5.91-17.62a25.53,25.53,0,0,0-12-8A38,38,0,0,0,434,377.36c5.29,6.12,6.69,14.58,7.89,22.57C444.82,419.64,447.78,439.62,445.66,459.44Z"/></clipPath><clipPath id="clip-path-3" transform="translate(-309.1 -99.97)"><path class="cls-1" d="M437.93,160.77a126,126,0,0,0-2.44,17.7,53.35,53.35,0,0,0,.07,10.11c.36,3,1.1,5.91,1.54,8.88.9,6.13.48,12.38.14,18.57a653.42,653.42,0,0,0-.26,65.65,92,92,0,0,1-.68,15.56c-.68,5.62-1.12,11.38-3,16.73-1.81,5.1-4.89,12.24-9.73,12.63-.16.16-.29.33-.44.51-.05.83,2.39,1.5,3.94,1.37,17.86-1.62,23.31-10.15,26.51-21.46A179.37,179.37,0,0,0,460,272.11c1.28-12.82,2.15-25.73,1.07-38.58-.94-11.23-3.35-22.27-5.76-33.28-1-4.52-2-9.05-3-13.57a137.06,137.06,0,0,0-4.63-17.39c-1.54-4.24-4.72-9-9.18-8.43-.17.53-.33,1.07-.49,1.61Z"/></clipPath><clipPath id="clip-path-4" transform="translate(-309.1 -99.97)"><path class="cls-1" d="M516.77,260.76c.68-6.33,1.87-12.59,2.59-18.93a232.76,232.76,0,0,0,1-26.42c0-6.84-.08-13.71-.22-20.56a75,75,0,0,0-.88-11.9,39.68,39.68,0,0,0-25.61-29.86c-3.94-1.35-9.19-1.61-11.37,1.93-2,3.23-.05,7.3,1,11a43.27,43.27,0,0,1,1.12,11.2c.5,46.39-1.06,93,5.57,138.94.89,6.19,2.06,12.67,5.92,17.61a25.43,25.43,0,0,0,12,8,38.09,38.09,0,0,0,20.52,1.11c-5.3-6.11-6.71-14.57-7.9-22.56C517.6,300.56,514.64,280.59,516.77,260.76Z"/></clipPath></defs><g id="Layer_1" data-name="Layer 1"><path class="cls-2" d="M621.24,619.19H338.68a28.8,28.8,0,0,1-28.79-28.8V129.55a28.79,28.79,0,0,1,28.79-28.8H621.24a28.8,28.8,0,0,1,28.81,28.8V590.39A28.81,28.81,0,0,1,621.24,619.19Z" transform="translate(-309.1 -99.97)"/><path class="cls-3" d="M621.24,620H338.68a29.62,29.62,0,0,1-29.58-29.58V129.55A29.62,29.62,0,0,1,338.68,100H621.24a29.61,29.61,0,0,1,29.58,29.58V590.39A29.61,29.61,0,0,1,621.24,620ZM338.68,101.54a28,28,0,0,0-28,28V590.39a28.06,28.06,0,0,0,28,28H621.24a28.06,28.06,0,0,0,28-28V129.55a28,28,0,0,0-28-28Z" transform="translate(-309.1 -99.97)"/><path class="cls-4" d="M451.76,389.51,466,381.89c20.64-11.05,41.57-22.29,57.74-37.42,11.1-10.38,19.66-22.34,28.16-34.22l17.42-24.36c1.44-.12.8,2,2.25,1.87,3.45,9,17.06,11.73,22.68,19.91a40.49,40.49,0,0,1,5.14,12c4.25,14.56,8.19,54.73,3,115-3.16,36.25-23.38,42.57-32,37.75-6.81-3.8-26.8-49.13-35.17-48.59-22.82,1.48-45.95-2.95-66.31-11.35-5.29-2.19-10.55-4.73-14.2-8.51S449.43,393.91,451.76,389.51Z" transform="translate(-309.1 -99.97)"/><path class="cls-4" d="M368.77,312.94c-4.85,6.18-6.85,13.52-8.34,20.72-4.14,20-2.25,40.24-.19,60.43,6.35,62.61,13.19,76.46,22.52,77.66C407.7,475,420.83,423.91,446,424.24c23.64.31,48,2.74,70.41-3.29,1-3.27-2.3-6.3-5.35-8.61-7.83-6-15.75-11.84-24.53-16.85-22.42-12.76-49.16-18.19-72.76-36.9C388.55,338.59,378.17,316,368.77,312.94Z" transform="translate(-309.1 -99.97)"/><path class="cls-4" d="M510.67,330.69l-14.22,7.62c-20.65,11.05-41.57,22.31-57.74,37.44C427.6,386.13,419,398.09,410.55,410l-17.42,24.36c-1.45.11-.81-2-2.25-1.88-3.46-9-17.08-11.71-22.68-19.89-2.56-3.72-3.94-7.88-5.15-12C358.79,386,355.4,343,360.64,282.77c3.16-36.24,28.16-36.31,31.46-34.92,15.29,6.44,26.79,49.14,35.15,48.59,22.83-1.47,46,2.95,66.34,11.36,5.28,2.17,10.53,4.71,14.18,8.5S513,326.31,510.67,330.69Z" transform="translate(-309.1 -99.97)"/><path class="cls-4" d="M593.66,407.28c4.86-6.19,6.85-13.53,8.34-20.74,4.13-20,2.24-40.22.2-60.41-6.35-62.63-6.14-78.53-22.83-79.36-28.7-1.43-37.77,49.54-63,49.19-23.65-.29-48-2.74-70.4,3.3-1,3.28,2.29,6.29,5.34,8.61,7.82,5.95,15.76,11.85,24.54,16.84,22.42,12.78,49.16,18.21,72.75,36.9C573.88,381.62,584.26,404.22,593.66,407.28Z" transform="translate(-309.1 -99.97)"/><path class="cls-5" d="M483.84,243.54c3-.59,6.15-1.06,9.1-.37a16.79,16.79,0,0,1,7.84,4.81A40.33,40.33,0,0,1,507,255.8a13.76,13.76,0,0,0,3,4c1.84,1.46,4.48,2.05,7,2.6a203,203,0,0,1,38.91,13c6.31,2.86,12.61,6.2,16.43,11.16a4.45,4.45,0,0,1,1.12,2.38c.1,2.21-2.81,3.63-5.28,4.68-29.93,12.63-46,39.64-72.89,56.1-7.5,4.59-17.5,8.42-26.05,5.25a29.76,29.76,0,0,1-8.4-5.36l-37.89-30.83a85.26,85.26,0,0,0-13.62-9.67c-6.84-3.66-15-5.84-20.74-10.55-1.81-1.47-4.3-3.35-6.53-2.32-.67-1.47.53-3,1.73-4.22,13.7-13.84,35.94-21.21,57.92-21.83,2.46-.07,5.12-.12,7.08-1.31,4.31-2.64,2.05-8.28,4.28-12.24,1.33-2.37,4.15-3.93,6.93-5.24A102.45,102.45,0,0,1,483.84,243.54Z" transform="translate(-309.1 -99.97)"/><path class="cls-6" d="M372.89,374a3.27,3.27,0,0,1,1.24,1.45c.3,1-.41,2-.9,2.85-1.92,3.62-.22,8.45,3.1,10.83s7.82,2.66,11.8,1.65,7.56-3.15,11.05-5.27q21.36-13,41.9-27.36c.75-.54,1.59-1.22,1.54-2.15a2.79,2.79,0,0,0-1.25-1.78c-17.86-14.67-36.25-29.66-58.17-37-3.8-1.27-8.66-2-11.25,1a8.85,8.85,0,0,0-1.7,5.45,24.89,24.89,0,0,0,2.15,11.25,25.46,25.46,0,0,0,.49,39.07Z" transform="translate(-309.1 -99.97)"/><path class="cls-6" d="M591.43,374a3.31,3.31,0,0,0-1.23,1.45c-.3,1,.4,2,.88,2.85,1.94,3.62.24,8.45-3.09,10.83s-7.82,2.66-11.79,1.65-7.55-3.15-11.06-5.27q-21.35-13-41.89-27.36c-.76-.54-1.6-1.22-1.55-2.15a2.75,2.75,0,0,1,1.25-1.78c17.86-14.67,36.25-29.66,58.17-37,3.81-1.27,8.68-2,11.27,1a9,9,0,0,1,1.69,5.45,24.89,24.89,0,0,1-2.15,11.25,25.43,25.43,0,0,1-.5,39.07Z" transform="translate(-309.1 -99.97)"/><path class="cls-7" d="M475.58,353.13a2.51,2.51,0,0,1-1.26.46,2.82,2.82,0,0,1-1.5-.52c-8.75-5.25-15.45-12.67-18.92-21,13.55,0,27.14-3,40.5-1.22L482.47,346.3C480.53,348.79,478.53,351.37,475.58,353.13Z" transform="translate(-309.1 -99.97)"/><path class="cls-8" d="M367.27,309.79c-1.41-3.73.17-7.66,2.47-11.25,3.17-5,9.22-9.78,18.2-11.35a52.41,52.41,0,0,1,10.74-.59c14.67.49,28.42,4.24,38.59,10.18,15.64,9.13,19.79,15,30,27a29.53,29.53,0,0,0,4.79,4.49,2.53,2.53,0,0,0,3-.21,81.94,81.94,0,0,1,13.58-14.79c13.37-10.93,34.09-21.07,54.87-27.36,20-6.05,30.06-3,34.13-1.8,10.12,3.1,17.41,12.77,16.17,19.65-.41,2.27-5.11,10.63-6.58,12.75-6.07,8.81-13,13.67-25.06,22.93-6.8,5.22-19.54,11.75-24.76,14.35-16,8-40.69,13.89-62,12.36s-36.65-6.59-52.08-15c-4.51-2.44-17.78-10.37-21.86-13C393.11,332.63,370.71,319,367.27,309.79Z" transform="translate(-309.1 -99.97)"/><path class="cls-7" d="M375.36,340.92c-3,8.41-4,22.84,2.56,30.07a2.83,2.83,0,0,0,3.38.44c3.25-1.52-.26-6.4-.86-8.35-2-6.39-3.36-14.68-1.69-21.23.56-2.22-2.64-3-3.39-.93Z" transform="translate(-309.1 -99.97)"/><path class="cls-7" d="M385.69,351.16c-2.15,4.92-1.62,13.66,2.8,17.33,2,1.7,5.13-.41,3.76-2.9-2.26-4-4.72-9-4.27-13.81a1.23,1.23,0,0,0-2.29-.62Z" transform="translate(-309.1 -99.97)"/><path class="cls-7" d="M397.28,359.86c.39,2.89.57,7.38,3.57,8.91a2,2,0,0,0,3-2.28c-.39-1.42-1.56-2.52-2.42-3.69a19.35,19.35,0,0,1-2.18-3.73c-.52-1.21-2.07-.25-1.93.79Z" transform="translate(-309.1 -99.97)"/><path class="cls-7" d="M585.48,342.12c1.7,6.74,0,14.42-1.68,21-.5,2-4.13,6.74-.87,8.27a2.84,2.84,0,0,0,3.36-.44c6.47-7.14,5.49-21.43,2.53-29.76-.74-2.09-3.9-1.27-3.34.91Z" transform="translate(-309.1 -99.97)"/><path class="cls-7" d="M575,355.28c.44,4.76-2,9.67-4.22,13.68-1.37,2.47,1.71,4.55,3.72,2.87,4.38-3.63,4.9-12.27,2.77-17.15a1.22,1.22,0,0,0-2.27.6Z" transform="translate(-309.1 -99.97)"/><path class="cls-7" d="M564.23,362.16a21.18,21.18,0,0,1-2.17,3.71c-.82,1.2-2,2.23-2.39,3.65a2,2,0,0,0,2.93,2.25c3-1.5,3.15-5.95,3.53-8.81.15-1-1.39-2-1.9-.8Z" transform="translate(-309.1 -99.97)"/><path class="cls-7" d="M481,388.71a19.63,19.63,0,1,0-19.62-19.63A19.81,19.81,0,0,0,481,388.71Z" transform="translate(-309.1 -99.97)"/><path class="cls-9" d="M481.2,373c6.19,0,6.19-9.59,0-9.59S475,373,481.2,373Z" transform="translate(-309.1 -99.97)"/><path class="cls-6" d="M469.27,361.3a.47.47,0,0,0,.05-.1,2,2,0,1,0-3.69-1v.12c.06,1.87,2.7,2.77,3.64,1Z" transform="translate(-309.1 -99.97)"/><path class="cls-6" d="M473.48,366.21c2.9,0,2.9-4.5,0-4.5s-2.9,4.5,0,4.5Z" transform="translate(-309.1 -99.97)"/><path class="cls-6" d="M488.07,366.05c2.71,0,2.71-4.18,0-4.18s-2.69,4.18,0,4.18Z" transform="translate(-309.1 -99.97)"/><path class="cls-6" d="M493,362.16c3,0,3-4.63,0-4.63s-3,4.63,0,4.63Z" transform="translate(-309.1 -99.97)"/><path class="cls-6" d="M475.23,377a2.41,2.41,0,1,0-2.4-2.39,2.42,2.42,0,0,0,2.4,2.39Z" transform="translate(-309.1 -99.97)"/><path class="cls-6" d="M470,382.07c2.72,0,2.72-4.22,0-4.22s-2.72,4.22,0,4.22Z" transform="translate(-309.1 -99.97)"/><path class="cls-6" d="M488.74,377.05l.16-.1a2.06,2.06,0,0,0,0-3.53.65.65,0,0,1-.16-.09,2.15,2.15,0,1,0,0,3.72Z" transform="translate(-309.1 -99.97)"/><path class="cls-6" d="M493.59,378.68a.86.86,0,0,0-.2-.13,1.63,1.63,0,1,0,0,2.82l.2-.13a1.5,1.5,0,0,0,0-2.56Z" transform="translate(-309.1 -99.97)"/><path class="cls-7" d="M449.36,359.91c3.63,0,3.63-4.51,0-4.51s-3.64,4.51,0,4.51Z" transform="translate(-309.1 -99.97)"/><path class="cls-7" d="M455.54,366.13c3.9,0,3.9-4.88,0-4.88s-3.91,4.88,0,4.88Z" transform="translate(-309.1 -99.97)"/><path class="cls-7" d="M504.45,368.93c3.06,0,3.06-3.81,0-3.81s-3.05,3.81,0,3.81Z" transform="translate(-309.1 -99.97)"/><path class="cls-7" d="M512.09,364.46c2.45,0,2.45-3,0-3s-2.44,3,0,3Z" transform="translate(-309.1 -99.97)"/><path class="cls-7" d="M518.46,360.63c3.33,0,3.33-4.14,0-4.14s-3.34,4.14,0,4.14Z" transform="translate(-309.1 -99.97)"/><path class="cls-5" d="M478.58,476.68c-3,.58-6.14,1-9.09.36a16.66,16.66,0,0,1-7.83-4.81,40.15,40.15,0,0,1-6.19-7.83,13.68,13.68,0,0,0-3-4c-1.85-1.47-4.48-2-7-2.61a201.48,201.48,0,0,1-38.9-13c-6.32-2.85-12.61-6.2-16.44-11.15a4.5,4.5,0,0,1-1.11-2.37c-.11-2.23,2.81-3.65,5.26-4.69,29.93-12.64,46-39.63,72.91-56.1,7.49-4.59,17.48-8.42,26-5.26a29.73,29.73,0,0,1,8.4,5.38q18.94,15.39,37.89,30.82a86.55,86.55,0,0,0,13.62,9.67c6.84,3.65,15,5.83,20.75,10.55,1.81,1.48,4.29,3.34,6.53,2.33.66,1.45-.54,3-1.74,4.22-13.69,13.84-35.93,21.2-57.92,21.83-2.46.07-5.11.12-7.07,1.31-4.31,2.62-2.06,8.28-4.29,12.24-1.32,2.35-4.14,3.92-6.92,5.22A103.43,103.43,0,0,1,478.58,476.68Z" transform="translate(-309.1 -99.97)"/><path class="cls-7" d="M486.87,367.07a2.49,2.49,0,0,1,1.25-.45,2.79,2.79,0,0,1,1.49.52c8.75,5.25,15.45,12.68,18.93,21-13.54-.05-27.14,3-40.51,1.21q6-7.71,11.92-15.43C481.9,371.41,483.91,368.83,486.87,367.07Z" transform="translate(-309.1 -99.97)"/><path class="cls-7" d="M578.22,363.34c2.13-4.89,1.6-13.54-2.76-17.17-2-1.68-5.09.41-3.72,2.87,2.23,4,4.65,8.92,4.21,13.68-.1,1.17,1.79,1.71,2.27.62Z" transform="translate(-309.1 -99.97)"/><path class="cls-7" d="M566.76,354.71c-.4-2.87-.57-7.3-3.54-8.8a2,2,0,0,0-2.93,2.25c.38,1.4,1.55,2.48,2.38,3.63a19.9,19.9,0,0,1,2.18,3.72c.51,1.19,2,.25,1.91-.8Z" transform="translate(-309.1 -99.97)"/><path class="cls-8" d="M595.17,410.15c1.4,4.08-.17,8.4-2.47,12.33a26.51,26.51,0,0,1-18.21,12.44,47.88,47.88,0,0,1-10.73.64c-14.68-.54-28.42-4.64-38.6-11.16-15.63-10-19.79-16.45-29.95-29.56a31.07,31.07,0,0,0-4.8-4.92,2.36,2.36,0,0,0-3,.22,86.58,86.58,0,0,1-13.58,16.23c-13.36,11.95-34.09,23.09-54.87,30-20,6.62-30.06,3.32-34.12,2-10.14-3.37-17.42-14-16.18-21.5.41-2.5,5.11-11.66,6.58-14,6.07-9.64,13-14.95,25.06-25.11,6.79-5.73,19.55-12.88,24.75-15.74,16.06-8.74,40.7-15.19,62-13.53s36.65,7.22,52.08,16.39c4.52,2.67,17.78,11.36,21.86,14.3C569.32,385.11,591.72,400.07,595.17,410.15Z" transform="translate(-309.1 -99.97)"/><path class="cls-6" d="M596.83,298.82a5.23,5.23,0,0,1-.56,6,18.22,18.22,0,0,1-2.44,2.88c-27.08,22.14-50.63,29.89-84.8,52.21-9,5.92-21.25,13.05-30.57,18.51-10.19,6-19.76,12.95-29.67,19.34l-44.53,30.16c-5.78,4.06-12,7.76-17.07,12.77-1.63,1.61-3.56,3.5-5.84,3.13a6.57,6.57,0,0,1-3.37-2.2c-5.61-5.74-7.53-11.37-9.41-24.28-.24-1.65-.3-3.05,1.08-4.29,35.27-31.65,70.85-53.16,111.44-78.09,7.6-4.66,15.28-9.24,23-13.81,21.64-12.91,40.8-23,62.45-35.89,2.21-1.32,4.61-2.67,7.18-2.42,2.23.22,5.07.06,9.24,2.57C589.18,289.13,591.68,291.64,596.83,298.82Z" transform="translate(-309.1 -99.97)"/><path class="cls-7" d="M482.28,335.24a19.64,19.64,0,1,0,19.63,19.65,19.82,19.82,0,0,0-19.63-19.65Z" transform="translate(-309.1 -99.97)"/><path class="cls-9" d="M482.07,351c-6.18,0-6.18,9.59,0,9.59s6.18-9.59,0-9.59Z" transform="translate(-309.1 -99.97)"/><path class="cls-6" d="M494,362.67l-.05.1a2,2,0,1,0,3.7,1v-.11c-.05-1.86-2.7-2.76-3.65-1Z" transform="translate(-309.1 -99.97)"/><path class="cls-6" d="M489.79,357.76c-2.91,0-2.91,4.5,0,4.5s2.9-4.5,0-4.5Z" transform="translate(-309.1 -99.97)"/><path class="cls-6" d="M475.2,357.91c-2.71,0-2.71,4.19,0,4.19s2.69-4.19,0-4.19Z" transform="translate(-309.1 -99.97)"/><path class="cls-6" d="M470.27,361.81c-3,0-3,4.63,0,4.63s3-4.63,0-4.63Z" transform="translate(-309.1 -99.97)"/><path class="cls-6" d="M488,346.93a2.4,2.4,0,1,0,2.4,2.4,2.43,2.43,0,0,0-2.4-2.4Z" transform="translate(-309.1 -99.97)"/><path class="cls-6" d="M493.29,341.9c-2.72,0-2.72,4.22,0,4.22s2.73-4.22,0-4.22Z" transform="translate(-309.1 -99.97)"/><path class="cls-6" d="M474.53,346.92l-.16.1a2.05,2.05,0,0,0,0,3.52l.16.1a2.15,2.15,0,1,0,0-3.72Z" transform="translate(-309.1 -99.97)"/><path class="cls-6" d="M469.67,345.29l.21.13a1.63,1.63,0,1,0,0-2.82,1.2,1.2,0,0,0-.21.13,1.51,1.51,0,0,0,0,2.56Z" transform="translate(-309.1 -99.97)"/><path class="cls-7" d="M388.94,359.29c-.44-4.82,2-9.78,4.27-13.82,1.38-2.5-1.73-4.6-3.76-2.9-4.42,3.66-4.95,12.4-2.8,17.33a1.23,1.23,0,0,0,2.29-.61Z" transform="translate(-309.1 -99.97)"/><path class="cls-7" d="M399.83,352.33a20.54,20.54,0,0,1,2.2-3.73c.82-1.23,2-2.25,2.4-3.69a2,2,0,0,0-2.95-2.28c-3,1.53-3.19,6-3.58,8.89-.13,1.06,1.41,2,1.93.81Z" transform="translate(-309.1 -99.97)"/><path class="cls-4" d="M474.18,459.85a38.45,38.45,0,0,0-.15-6.07,149.44,149.44,0,0,1,32.81-1.07,28,28,0,0,1-1.34,4.06,1.59,1.59,0,0,1-.37.63,1.67,1.67,0,0,1-1.17.36Z" transform="translate(-309.1 -99.97)"/><path class="cls-9" d="M492.72,429.07a30.9,30.9,0,0,1-6.66.22,29.79,29.79,0,0,0,1.65,8.66,5.74,5.74,0,0,0-2.51-1.58,3.24,3.24,0,0,0-3.53.88,3,3,0,0,0-.49,2.53c1,3.77,6.29,9.5,8.83,12.59l6.18-9.38c.62-.93,1.28-1.81,1.8-2.72,1.13-2.07.27-4.11-2.52-4.62a4.06,4.06,0,0,0-2.55.75c-.75.46-1.15,1.11-1.62,1.29-.25.1.57-1.58.76-2.79C492.39,433,493.25,429.86,492.72,429.07Z" transform="translate(-309.1 -99.97)"/><path class="cls-9" d="M524.51,559.43A125.63,125.63,0,0,0,527,541.74a54.2,54.2,0,0,0-.08-10.11c-.36-3-1.1-5.91-1.54-8.89-.9-6.13-.47-12.37-.14-18.55a650.51,650.51,0,0,0,.26-65.65,92.12,92.12,0,0,1,.68-15.57c.68-5.61,1.13-11.38,3-16.73,1.81-5.09,4.9-12.23,9.74-12.62l.44-.52c0-.82-2.41-1.5-4-1.36-17.83,1.6-23.3,10.14-26.5,21.44a179.64,179.64,0,0,0-6.49,34.91c-1.27,12.82-2.14,25.75-1.07,38.6.94,11.22,3.36,22.26,5.77,33.26,1,4.54,2,9,3,13.57a134.65,134.65,0,0,0,4.62,17.4c1.55,4.24,4.72,9.05,9.19,8.43.16-.52.33-1.06.49-1.6Z" transform="translate(-309.1 -99.97)"/><path class="cls-9" d="M445.66,459.44c-.67,6.33-1.86,12.61-2.58,18.93A230.57,230.57,0,0,0,442,504.79q0,10.29.22,20.58a73.73,73.73,0,0,0,.89,11.88,39.65,39.65,0,0,0,25.6,29.86c3.94,1.35,9.19,1.63,11.36-1.93,2-3.22.06-7.3-1-10.94A43.43,43.43,0,0,1,478,543c-.51-46.39,1.06-93-5.57-138.93-.9-6.21-2.07-12.68-5.91-17.62a25.53,25.53,0,0,0-12-8A38,38,0,0,0,434,377.36c5.29,6.12,6.69,14.58,7.89,22.57C444.82,419.64,447.78,439.62,445.66,459.44Z" transform="translate(-309.1 -99.97)"/><g class="cls-10"><path class="cls-6" d="M544,390.73c-12.51,1.6-19.54,8.74-24.29,20.19-3.25,7.81-3.59,16.71-3.93,25a322.15,322.15,0,0,0,.44,35.16.69.69,0,0,0,1.38,0c1.71-25.9-8.77-72.17,26.56-79.21.65-.14.5-1.26-.16-1.18Z" transform="translate(-309.1 -99.97)"/><path class="cls-6" d="M532.33,389.85c-11.22-1.48-19.19,14.5-22.22,23.09-1.32,3.72-.88,8.3-1.13,12.16-.28,4.18-1.26,8.3-1.59,12.49-.8,9.92-1.64,20.66-1.34,30.59,0,.48.78.62.85.13,2.08-13.48,1.72-27.21,3.32-40.73,1-8.41,1.57-15.29,5.77-22.87,3.76-6.77,8.58-12.51,16.41-14.29.36-.08.23-.54-.07-.57Z" transform="translate(-309.1 -99.97)"/></g><g class="cls-11"><path class="cls-6" d="M467.25,505.33c4.18-9.39,3.39-22.41,4.54-32.55,1.69-14.92.8-30.33-.19-45.28-1.21-18.21-5.09-50-25.78-56.76-.27-.1-.39.28-.19.43,20.15,13.95,23.09,40.25,24.33,62.92.63,11.82,1.12,23.82.23,35.64-.47,6.13-1.33,12.25-2,18.36-.56,5.25.08,12-1.36,17.07-.06.23.3.4.4.17Z" transform="translate(-309.1 -99.97)"/><path class="cls-6" d="M460.19,501.12c4.59-12.25,5.12-27.9,5.29-40.86a252.64,252.64,0,0,0-3-41.58c-2.8-18.33-9.56-41.61-30.91-44.34-.56-.08-.79.84-.29,1.06,10.18,4.72,17.55,10.8,21.85,21.38,3.8,9.34,5.87,20,7.15,29.94,3.23,25.25.9,49-1.28,74.24-.06.71,1,.76,1.2.16Z" transform="translate(-309.1 -99.97)"/><path class="cls-6" d="M450.91,496.52c5.24-1.14,5-9.93,5.42-14.09a209.16,209.16,0,0,0-.7-46.65c-2.92-24.67-9.76-48.39-31.55-62.64-.79-.51-1.54.47-1.19,1.19,1.6,3.31,4,5.35,6.84,7.68a54.23,54.23,0,0,1,11.43,13c6.54,10.16,8.92,23.32,11,35a188.81,188.81,0,0,1,2.53,36.72c-.08,5.61-.61,11.14-1.13,16.71-.38,4.06.09,9.27-3.05,12.4a.38.38,0,0,0,.36.63Z" transform="translate(-309.1 -99.97)"/><path class="cls-6" d="M447.52,486.43c4.42-20.77,4.09-45.07-6.24-64.24-.2-.38-.84-.12-.69.29,7.89,19.83,6.76,42.9,6,63.82,0,.5.79.63.89.13Z" transform="translate(-309.1 -99.97)"/></g><path class="cls-12" d="M473.11,559.79c3.34,3.39,6.84,6.89,11.33,8.51a33.2,33.2,0,0,0,6.5,1.34c9.63,1.28,19.82,2.51,28.76-1.31a8.3,8.3,0,0,0,2.74-1.68,8.48,8.48,0,0,0,1.82-3.06c3.58-9.3,1.3-19.81-2.39-29.06a10.91,10.91,0,0,1-1-3.54c-.09-2.13,1.13-4.07,2.27-5.88,6.93-10.86,13.34-22.52,15-35.27a1.49,1.49,0,0,0-.91-1.62c-1.88-.63-4.18.17-6.11,1l-10.32,4.55a117.57,117.57,0,0,0-5.66-32.25,9.61,9.61,0,0,0-2.48-4.53c-2.59-2.25-6.59-1.34-9.68.14-5.09,2.45-9.51,6.05-13.88,9.62a52.1,52.1,0,0,0-8.29,7.83A43.27,43.27,0,0,0,475,485.71a131.72,131.72,0,0,0-8.39,61.34,21.36,21.36,0,0,0,1.05,5.32C468.71,555.25,470.94,557.57,473.11,559.79Z" transform="translate(-309.1 -99.97)"/><path class="cls-6" d="M507.18,484.13c1.95-.18,10.52.24,12.88,1.27a2.44,2.44,0,0,0,3-1.17c.54-.75-.34-1.76-1.22-2a4.87,4.87,0,0,1-1.9-.74c.8-1,1.67-1.4,1.64-2.69a1.83,1.83,0,0,0-2-1.53,5.71,5.71,0,0,0-2.58,1.09C513.6,480.53,510.94,482.71,507.18,484.13Z" transform="translate(-309.1 -99.97)"/><path class="cls-9" d="M509,491.86a2.44,2.44,0,0,0-3.79-.28c-1,1-.05,2.92,1.33,3A2.58,2.58,0,0,0,509,491.86Z" transform="translate(-309.1 -99.97)"/><path class="cls-2" d="M479.51,532.83a49.45,49.45,0,0,1,7.94-4.43,24.87,24.87,0,0,1,23.1,2.61c-1.54,3.29-5,5.28-8.45,6.36C494.42,539.73,485.43,538.26,479.51,532.83Z" transform="translate(-309.1 -99.97)"/><path class="cls-9" d="M493.75,529.7a3.23,3.23,0,0,0,1,6.38c1.11-.11,4.65-.83,3.75-4.35-.3-1.21-1.79-1.75-3-2A4.23,4.23,0,0,0,493.75,529.7Z" transform="translate(-309.1 -99.97)"/><path class="cls-9" d="M479.56,548.34c3.48,2.79,8.11,3.36,12.54,3.49a39.39,39.39,0,0,0,12.46-1.7c1.94-.57,6.89-2.39,9.08-4.38,2.65-2.41,2.29-3.39.67-6.12a1.39,1.39,0,0,0-1.52-.7c-1.42.38-2.94,1.71-4,2.51-6.29,4.57-18.53,7.21-27.95,4.47A1.39,1.39,0,0,0,479.56,548.34Z" transform="translate(-309.1 -99.97)"/><path class="cls-4" d="M482,584.36c1,.8,2.11,2,1.5,3.15-.33.6-.27,1.5-.95,1.68A45.2,45.2,0,0,1,457.37,588a33.41,33.41,0,0,1-18.64-15.44c-3.56-6.65-4.47-14.38-5-21.91-1.7-26.61,10.16-52.31-5.33-83,8.3.44,15.69,6.1,21.67,11.89,5.8,5.59,8.8,6.78,15.28,15.08.63.78,5.2,4.2,5,5.18-.69,3.51-1.9,4.5-2.89,13-.85,7.21.27,8.14-.21,15.37-.64,9.93,1.43,19.65,2,29.57a50.07,50.07,0,0,0,1.08,8.18A34.32,34.32,0,0,0,482,584.36Z" transform="translate(-309.1 -99.97)"/><path class="cls-6" d="M430,463a4,4,0,0,0-4,.46,3.56,3.56,0,0,0-1.14,3.86,3.45,3.45,0,0,0,4.28,2,4,4,0,0,0,2.12-2,3.32,3.32,0,0,0-.06-3.43A3.14,3.14,0,0,0,430,463Z" transform="translate(-309.1 -99.97)"/><path class="cls-8" d="M467.15,517.49a337.8,337.8,0,0,0-2.92,39.43,60.37,60.37,0,0,0,.91,13.63,67.47,67.47,0,0,0,4.08,11.66L478,603.09q7.88-11.46,15.31-23.17A72.6,72.6,0,0,0,504,604.35c2.7-6.77,6.18-16.86,8.88-23.61,3.58,5.32,7.46,13.27,12.83,16.79,2.08-12.09,4.88-16.94,3.94-32.79-.08-1.46-2.49-10.51-3.91-10.09A23.41,23.41,0,0,1,524,561.3a6,6,0,0,1-2.58,3c-1.79.81-4-.13-5.23-1.65a13.64,13.64,0,0,1-2.24-5.41,18.32,18.32,0,0,1-13.11,9.68A20.07,20.07,0,0,1,485,562.64c-6.49-5.3-9.16-13.84-11.51-21.86S469.46,525.38,467.15,517.49Z" transform="translate(-309.1 -99.97)"/><path class="cls-6" d="M526.52,608.26a1.33,1.33,0,0,0,.49-.6,34.26,34.26,0,0,0,3.65-10.73c-3.16.31-6.32.62-9.49,1C520.48,597.94,526.35,608.36,526.52,608.26Z" transform="translate(-309.1 -99.97)"/><path class="cls-6" d="M503.38,615a1.45,1.45,0,0,0,.53-.59,34,34,0,0,0,4.33-10.47q-4.77.15-9.53.33C498,604.25,503.21,615.05,503.38,615Z" transform="translate(-309.1 -99.97)"/><path class="cls-6" d="M476.29,613.37a1.55,1.55,0,0,0,.57-.54A34.27,34.27,0,0,0,482,602.74c-3.17-.15-6.34-.3-9.52-.43C471.79,602.28,476.1,613.43,476.29,613.37Z" transform="translate(-309.1 -99.97)"/><path class="cls-9" d="M521.76,491.39a24.05,24.05,0,0,0-2.8,1.53c-1,.7-2,1.38-2.91,2.12-1.86,1.43-3.41,3.26-3.57,5.69a4.51,4.51,0,0,0,2.17,4.08c1.47.79,3.56,0,3.62-1.72a.73.73,0,0,0-.54-.71c-.93-.28-2,.48-2.65-.38-1.2-1.57.48-3.51,1.5-4.56A25.83,25.83,0,0,1,520,494.7a7.48,7.48,0,0,0,2.24-2.83.35.35,0,0,0-.48-.48Z" transform="translate(-309.1 -99.97)"/><path class="cls-9" d="M487.7,498.85c-13.12-3-21.49,10-20.86,21.82,0,.38.61.51.7.08,1.41-6.34,2.69-12.52,7.55-17.22a15.48,15.48,0,0,1,12.48-3.78c.51.05.62-.78.13-.9Z" transform="translate(-309.1 -99.97)"/><path class="cls-7" d="M519.61,570.87a41,41,0,0,1,.64,6.45c.1,1.84-.4,3.58,0,5.41.57,2.64,5.06,2.07,4.74-.64-.5-4.24-2-7.82-3.51-11.74a1,1,0,0,0-1.86.52Z" transform="translate(-309.1 -99.97)"/><path class="cls-7" d="M504.45,572.6c-1.29,4.28-3,8.92-2.88,13.47.05,1.65,2.38,3,3.6,1.5,1.37-1.76,1.12-3.57,1.23-5.71.16-3,.82-5.91,1.11-8.87.18-1.79-2.58-2-3.06-.39Z" transform="translate(-309.1 -99.97)"/><path class="cls-7" d="M483.3,569.13c-2.51,2-3.22,4.58-4.58,7.37s-3.18,5.28-2.48,8.45c.66,3,4.55,2.41,5.47,0,1.92-4.94,3.44-9.62,3.71-14.94.06-1.19-1.35-1.5-2.12-.88Z" transform="translate(-309.1 -99.97)"/><path class="cls-6" d="M460.37,581.59a4.23,4.23,0,0,0-.28-1.76.79.79,0,1,0-1.45.62,2.64,2.64,0,0,1,.19,1.14.77.77,0,0,0,1.54,0Z" transform="translate(-309.1 -99.97)"/><path class="cls-6" d="M449,569.28a5.46,5.46,0,0,0-.16-2.51,1.12,1.12,0,1,0-2.05.86A2.94,2.94,0,0,1,447,569c0,1.13,1.82,1.42,2,.28Z" transform="translate(-309.1 -99.97)"/><path class="cls-6" d="M458.54,553.49a5.37,5.37,0,0,0,0-2.49c-.27-1.66-2.83-1-2.54.7a4.42,4.42,0,0,0,.95,2.22,1,1,0,0,0,1.61-.43Z" transform="translate(-309.1 -99.97)"/><path class="cls-6" d="M438.91,552.61a5.68,5.68,0,0,0,0-2.56c-.18-1.3-2.23-.76-2,.57a4.41,4.41,0,0,0,.85,2.3.71.71,0,0,0,1.19-.31Z" transform="translate(-309.1 -99.97)"/><path class="cls-6" d="M446.36,536.65a4.07,4.07,0,0,0-.22-3.31c-.35-.59-1.43-.38-1.36.38a5.38,5.38,0,0,1,.09,2.52c-.32,1,1.15,1.32,1.49.41Z" transform="translate(-309.1 -99.97)"/><path class="cls-6" d="M459.6,528.87c.1-1.09.56-2.15.14-3.26s-2.07-1.27-2.26,0a4.46,4.46,0,0,0,1.07,3.69c.39.45,1,0,1.05-.43Z" transform="translate(-309.1 -99.97)"/><path class="cls-6" d="M449.46,511.05a6,6,0,0,0,.26-3.16,1.15,1.15,0,0,0-2.21,0,3.77,3.77,0,0,0,.84,3.45.66.66,0,0,0,1.11-.29Z" transform="translate(-309.1 -99.97)"/><path class="cls-6" d="M465.63,498.87a7.8,7.8,0,0,0,.05-2.64,1.27,1.27,0,0,0-1.58-.88,1.3,1.3,0,0,0-.91,1.58,3.43,3.43,0,0,0,1.35,2.22c.33.26,1,.24,1.09-.28Z" transform="translate(-309.1 -99.97)"/><path class="cls-6" d="M438.33,519.66a3.63,3.63,0,0,0-.35-2.61.43.43,0,0,0-.71,0,5,5,0,0,0-.75,2.61c-.13,1.16,1.72,1.17,1.81,0Z" transform="translate(-309.1 -99.97)"/><path class="cls-6" d="M441.69,487.11c-.29-1.15.22-2.44-.18-3.55a.93.93,0,0,0-1.77,0,5.25,5.25,0,0,0,.69,4.09.69.69,0,0,0,1.26-.54Z" transform="translate(-309.1 -99.97)"/><path class="cls-6" d="M498.06,456.21a.91.91,0,0,0,.14.07c.89.36,1.73-.69,1.5-1.5a1.23,1.23,0,0,0-2.05-.54.41.41,0,0,1-.09.1,1.14,1.14,0,0,0,.5,1.87Z" transform="translate(-309.1 -99.97)"/><path class="cls-6" d="M494,453.87a1.47,1.47,0,0,0,0,2.93,1.47,1.47,0,0,0,0-2.93Z" transform="translate(-309.1 -99.97)"/><path class="cls-6" d="M489.57,454.09a1.45,1.45,0,0,0,0,2.89,1.45,1.45,0,0,0,0-2.89Z" transform="translate(-309.1 -99.97)"/><path class="cls-6" d="M484.58,454.52a1.62,1.62,0,0,0,0,3.23,1.62,1.62,0,0,0,0-3.23Z" transform="translate(-309.1 -99.97)"/><path class="cls-6" d="M480,454.89a1.45,1.45,0,0,0,0,2.89,1.45,1.45,0,0,0,0-2.89Z" transform="translate(-309.1 -99.97)"/><path class="cls-6" d="M526.43,560.54a1,1,0,0,0,0,2,1,1,0,0,0,0-2Z" transform="translate(-309.1 -99.97)"/><path class="cls-6" d="M523.93,564.45a1.07,1.07,0,0,0,0,2.14,1.07,1.07,0,0,0,0-2.14Z" transform="translate(-309.1 -99.97)"/><path class="cls-6" d="M519,566a1.25,1.25,0,0,0,0,2.49,1.25,1.25,0,0,0,0-2.49Z" transform="translate(-309.1 -99.97)"/><path class="cls-6" d="M514.64,564.84a1.48,1.48,0,0,0,0,2.95,1.48,1.48,0,0,0,0-2.95Z" transform="translate(-309.1 -99.97)"/><path class="cls-6" d="M513.45,561.11a1.31,1.31,0,0,0,0,2.61,1.31,1.31,0,0,0,0-2.61Z" transform="translate(-309.1 -99.97)"/><path class="cls-6" d="M510.05,564.26a1.26,1.26,0,0,0,0,2.52,1.26,1.26,0,0,0,0-2.52Z" transform="translate(-309.1 -99.97)"/><path class="cls-6" d="M505.85,566.36a1.56,1.56,0,0,0,0,3.11,1.56,1.56,0,0,0,0-3.11Z" transform="translate(-309.1 -99.97)"/><path class="cls-6" d="M501.26,567.71a1.41,1.41,0,0,0,0,2.81,1.41,1.41,0,0,0,0-2.81Z" transform="translate(-309.1 -99.97)"/><path class="cls-6" d="M496.26,568.45a1.47,1.47,0,0,0,0,2.93,1.47,1.47,0,0,0,0-2.93Z" transform="translate(-309.1 -99.97)"/><path class="cls-6" d="M491.47,567.52a1.4,1.4,0,0,0,0,2.8,1.4,1.4,0,0,0,0-2.8Z" transform="translate(-309.1 -99.97)"/><path class="cls-6" d="M486.68,565.51a1.7,1.7,0,0,0,0,3.39,1.7,1.7,0,0,0,0-3.39Z" transform="translate(-309.1 -99.97)"/><path class="cls-6" d="M482.38,563.29a1.52,1.52,0,0,0,0,3,1.52,1.52,0,0,0,0-3Z" transform="translate(-309.1 -99.97)"/><path class="cls-6" d="M478.78,559.67a1.35,1.35,0,0,0,0,2.69,1.35,1.35,0,0,0,0-2.69Z" transform="translate(-309.1 -99.97)"/><path class="cls-6" d="M476.48,556.05a1.17,1.17,0,0,0,0,2.33,1.17,1.17,0,0,0,0-2.33Z" transform="translate(-309.1 -99.97)"/><path class="cls-6" d="M474.59,551.39a1.24,1.24,0,0,0,0,2.48,1.24,1.24,0,0,0,0-2.48Z" transform="translate(-309.1 -99.97)"/><path class="cls-6" d="M473.11,547.2a1.32,1.32,0,0,0,0,2.64,1.32,1.32,0,0,0,0-2.64Z" transform="translate(-309.1 -99.97)"/><path class="cls-6" d="M471.89,542.63a1.11,1.11,0,0,0,0,2.22,1.11,1.11,0,0,0,0-2.22Z" transform="translate(-309.1 -99.97)"/><path class="cls-6" d="M470.59,538.3a1,1,0,0,0,0,1.89.95.95,0,0,0,0-1.89Z" transform="translate(-309.1 -99.97)"/><path class="cls-6" d="M469,532.77a1.49,1.49,0,0,0,0,3,1.49,1.49,0,0,0,0-3Z" transform="translate(-309.1 -99.97)"/><path class="cls-6" d="M467.59,528.69a1.17,1.17,0,0,0,0,2.33,1.17,1.17,0,0,0,0-2.33Z" transform="translate(-309.1 -99.97)"/><path class="cls-8" d="M477.39,534.3c2.53,0,6.39,2.22,8.82,3.18a27.5,27.5,0,0,0,9.94,1.81c6,.15,12.56-2.17,15.41-7.66a1,1,0,0,0-1.63-1c-5.8,8.3-16.17,7-24.43,3.88-2.86-1.08-5.44-2.43-8.24-.72a.25.25,0,0,0,.13.47Z" transform="translate(-309.1 -99.97)"/><path class="cls-4" d="M488.24,260.37a39.59,39.59,0,0,0,.17,6.06,148.9,148.9,0,0,1-32.82,1.06,29.67,29.67,0,0,1,1.34-4.06,2,2,0,0,1,.38-.63,1.86,1.86,0,0,1,1.16-.36Z" transform="translate(-309.1 -99.97)"/><path class="cls-9" d="M469.71,291.14a31.58,31.58,0,0,1,6.66-.23,30.66,30.66,0,0,0-1.64-8.66,5.66,5.66,0,0,0,2.5,1.6,3.31,3.31,0,0,0,3.54-.88,3.08,3.08,0,0,0,.49-2.55c-1-3.76-6.3-9.5-8.84-12.58l-6.18,9.37c-.62,1-1.29,1.83-1.79,2.74-1.14,2.06-.27,4.11,2.52,4.6a4,4,0,0,0,2.55-.75c.75-.44,1.14-1.09,1.61-1.27.26-.12-.56,1.58-.76,2.77C470.05,287.22,469.19,290.34,469.71,291.14Z" transform="translate(-309.1 -99.97)"/><path class="cls-9" d="M437.93,160.77a126,126,0,0,0-2.44,17.7,53.35,53.35,0,0,0,.07,10.11c.36,3,1.1,5.91,1.54,8.88.9,6.13.48,12.38.14,18.57a653.42,653.42,0,0,0-.26,65.65,92,92,0,0,1-.68,15.56c-.68,5.62-1.12,11.38-3,16.73-1.81,5.1-4.89,12.24-9.73,12.63-.16.16-.29.33-.44.51-.05.83,2.39,1.5,3.94,1.37,17.86-1.62,23.31-10.15,26.51-21.46A179.37,179.37,0,0,0,460,272.11c1.28-12.82,2.15-25.73,1.07-38.58-.94-11.23-3.35-22.27-5.76-33.28-1-4.52-2-9.05-3-13.57a137.06,137.06,0,0,0-4.63-17.39c-1.54-4.24-4.72-9-9.18-8.43-.17.53-.33,1.07-.49,1.61Z" transform="translate(-309.1 -99.97)"/><path class="cls-9" d="M516.77,260.76c.68-6.33,1.87-12.59,2.59-18.93a232.76,232.76,0,0,0,1-26.42c0-6.84-.08-13.71-.22-20.56a75,75,0,0,0-.88-11.9,39.68,39.68,0,0,0-25.61-29.86c-3.94-1.35-9.19-1.61-11.37,1.93-2,3.23-.05,7.3,1,11a43.27,43.27,0,0,1,1.12,11.2c.5,46.39-1.06,93,5.57,138.94.89,6.19,2.06,12.67,5.92,17.61a25.43,25.43,0,0,0,12,8,38.09,38.09,0,0,0,20.52,1.11c-5.3-6.11-6.71-14.57-7.9-22.56C517.6,300.56,514.64,280.59,516.77,260.76Z" transform="translate(-309.1 -99.97)"/><g class="cls-13"><path class="cls-6" d="M418.47,329.47c12.52-1.6,19.55-8.74,24.3-20.19,3.24-7.81,3.59-16.71,3.92-25a319.51,319.51,0,0,0-.44-35.15.69.69,0,0,0-1.38,0c-1.7,25.89,8.77,72.18-26.55,79.22-.66.13-.52,1.24.15,1.16Z" transform="translate(-309.1 -99.97)"/><path class="cls-6" d="M430.11,330.37c11.22,1.48,19.17-14.51,22.21-23.11,1.32-3.71.88-8.3,1.14-12.14.27-4.19,1.25-8.32,1.59-12.49.8-9.93,1.63-20.66,1.33-30.61,0-.47-.77-.62-.85-.11-2.08,13.48-1.72,27.21-3.31,40.73-1,8.41-1.58,15.28-5.77,22.86-3.75,6.76-8.59,12.5-16.42,14.28-.35.08-.22.54.08.59Z" transform="translate(-309.1 -99.97)"/></g><g class="cls-14"><path class="cls-6" d="M495.18,214.89c-4.17,9.39-3.39,22.41-4.54,32.55-1.69,14.92-.8,30.33.19,45.26,1.21,18.22,5.09,50,25.79,56.78a.24.24,0,0,0,.18-.43c-20.15-14-23.08-40.27-24.32-62.92-.64-11.84-1.13-23.84-.23-35.66.46-6.13,1.33-12.24,2-18.36.56-5.25-.08-12,1.36-17.05.07-.23-.3-.4-.4-.17Z" transform="translate(-309.1 -99.97)"/><path class="cls-6" d="M502.24,219.1c-4.59,12.23-5.12,27.88-5.3,40.84a253.58,253.58,0,0,0,3,41.58c2.81,18.33,9.56,41.62,30.92,44.36a.58.58,0,0,0,.28-1.08c-10.17-4.71-17.54-10.8-21.85-21.38-3.8-9.32-5.88-20-7.14-29.92-3.24-25.26-.9-49.06,1.27-74.24.07-.75-1-.76-1.2-.16Z" transform="translate(-309.1 -99.97)"/><path class="cls-6" d="M511.52,223.7c-5.24,1.12-5,9.91-5.42,14.07a209.15,209.15,0,0,0,.71,46.65c2.92,24.69,9.74,48.41,31.54,62.64.78.53,1.54-.45,1.19-1.18-1.6-3.31-4-5.34-6.85-7.67a54.53,54.53,0,0,1-11.42-13c-6.54-10.17-8.92-23.31-11-35a189.07,189.07,0,0,1-2.53-36.74c.08-5.59.61-11.13,1.13-16.69.38-4.08-.09-9.27,3.06-12.41a.38.38,0,0,0-.37-.62Z" transform="translate(-309.1 -99.97)"/><path class="cls-6" d="M514.9,233.79c-4.41,20.77-4.09,45,6.26,64.23.19.37.84.11.67-.28-7.87-19.84-6.75-42.9-6-63.84a.46.46,0,0,0-.9-.11Z" transform="translate(-309.1 -99.97)"/></g><path class="cls-12" d="M489.32,160.43c-3.33-3.41-6.84-6.91-11.32-8.51a31.89,31.89,0,0,0-6.51-1.34c-9.64-1.3-19.81-2.51-28.75,1.31a8.36,8.36,0,0,0-2.75,1.66,8.64,8.64,0,0,0-1.82,3.08c-3.58,9.28-1.3,19.81,2.4,29.06a10.78,10.78,0,0,1,1,3.52c.09,2.14-1.12,4.09-2.27,5.89-6.93,10.87-13.33,22.53-15,35.27a1.49,1.49,0,0,0,.92,1.61c1.88.64,4.18-.16,6.09-1l10.33-4.53a118.55,118.55,0,0,0,5.65,32.23,9.74,9.74,0,0,0,2.5,4.55c2.59,2.24,6.59,1.32,9.68-.16,5.07-2.45,9.5-6,13.87-9.61a51.7,51.7,0,0,0,8.28-7.84,43.17,43.17,0,0,0,5.91-11.12,132,132,0,0,0,8.39-61.32,20.74,20.74,0,0,0-1.06-5.34C493.72,165,491.49,162.65,489.32,160.43Z" transform="translate(-309.1 -99.97)"/><path class="cls-6" d="M455.25,236.07c-1.95.18-10.52-.22-12.89-1.27a2.43,2.43,0,0,0-3,1.18c-.53.75.34,1.77,1.23,2a5.36,5.36,0,0,1,1.9.73c-.8,1-1.67,1.4-1.65,2.69a1.86,1.86,0,0,0,2,1.55,5.91,5.91,0,0,0,2.59-1.11C448.83,239.68,451.48,237.49,455.25,236.07Z" transform="translate(-309.1 -99.97)"/><path class="cls-9" d="M453.41,228.34a2.44,2.44,0,0,0,3.78.3c1-1,.06-2.94-1.33-3A2.53,2.53,0,0,0,453.41,228.34Z" transform="translate(-309.1 -99.97)"/><path class="cls-2" d="M482.92,187.39A49.68,49.68,0,0,1,475,191.8a24.9,24.9,0,0,1-23.1-2.6c1.54-3.3,5-5.27,8.44-6.35C468,180.47,477,181.94,482.92,187.39Z" transform="translate(-309.1 -99.97)"/><path class="cls-9" d="M468.68,190.5a3.33,3.33,0,0,0,2.54-3.64,3.37,3.37,0,0,0-3.5-2.74c-1.1.12-4.64.84-3.75,4.37.31,1.19,1.8,1.73,3,2A4.48,4.48,0,0,0,468.68,190.5Z" transform="translate(-309.1 -99.97)"/><path class="cls-9" d="M482.86,171.86c-3.46-2.77-8.1-3.36-12.53-3.49a39.58,39.58,0,0,0-12.45,1.71c-1.95.56-6.89,2.4-9.09,4.39-2.65,2.41-2.3,3.38-.67,6.12a1.43,1.43,0,0,0,1.51.7c1.44-.38,2.95-1.72,4.06-2.53,6.27-4.57,18.53-7.21,27.94-4.45A1.39,1.39,0,0,0,482.86,171.86Z" transform="translate(-309.1 -99.97)"/><path class="cls-4" d="M480.39,135.86c-1-.82-2.1-2-1.5-3.15.35-.62.29-1.51,1-1.69a45.29,45.29,0,0,1,25.21,1.22,33.56,33.56,0,0,1,18.64,15.44c3.56,6.67,4.47,14.4,4.95,21.92,1.7,26.62-10.14,52.32,5.34,83-8.31-.46-15.7-6.11-21.68-11.89-5.8-5.59-8.79-6.8-15.29-15.08-.62-.8-5.19-4.2-5-5.2.7-3.49,1.9-4.5,2.9-13,.85-7.22-.28-8.14.2-15.39.65-9.92-1.42-19.63-2.05-29.56A50.34,50.34,0,0,0,492,154.3,34.3,34.3,0,0,0,480.39,135.86Z" transform="translate(-309.1 -99.97)"/><path class="cls-6" d="M532.47,257.22a3.92,3.92,0,0,0,4-.46,3.57,3.57,0,0,0,1.15-3.84,3.44,3.44,0,0,0-4.28-2,4.08,4.08,0,0,0-2.15,2,3.32,3.32,0,0,0,.08,3.44A2.91,2.91,0,0,0,532.47,257.22Z" transform="translate(-309.1 -99.97)"/><path class="cls-8" d="M495.28,202.71a337.31,337.31,0,0,0,2.93-39.41,61.05,61.05,0,0,0-.92-13.65A67.36,67.36,0,0,0,493.21,138l-8.79-20.88q-7.85,11.46-15.3,23.17a72.69,72.69,0,0,0-10.69-24.42c-2.7,6.75-6.17,16.86-8.87,23.61-3.59-5.32-7.47-13.27-12.83-16.8-2.09,12.09-4.89,16.93-4,32.78.09,1.47,2.51,10.52,3.92,10.09a24.11,24.11,0,0,1,1.76-6.65,5.89,5.89,0,0,1,2.58-3c1.8-.81,4,.12,5.24,1.65A13.45,13.45,0,0,1,448.5,163a18.25,18.25,0,0,1,13.13-9.68,20,20,0,0,1,15.85,4.27c6.48,5.28,9.16,13.83,11.5,21.86S493,194.82,495.28,202.71Z" transform="translate(-309.1 -99.97)"/><path class="cls-6" d="M435.91,111.94a1.45,1.45,0,0,0-.49.6,34.1,34.1,0,0,0-3.64,10.75c3.15-.33,6.32-.64,9.47-1C442,122.28,436.08,111.84,435.91,111.94Z" transform="translate(-309.1 -99.97)"/><path class="cls-6" d="M459.05,105.25a1.49,1.49,0,0,0-.53.58,34.35,34.35,0,0,0-4.32,10.48l9.52-.34C464.41,116,459.23,105.17,459.05,105.25Z" transform="translate(-309.1 -99.97)"/><path class="cls-6" d="M486.15,106.85a1.36,1.36,0,0,0-.57.52,34.14,34.14,0,0,0-5.15,10.11c3.17.13,6.34.28,9.52.43C490.64,117.94,486.34,106.77,486.15,106.85Z" transform="translate(-309.1 -99.97)"/><path class="cls-9" d="M440.68,228.82a29.77,29.77,0,0,0,2.81-1.52c1-.7,1.94-1.39,2.89-2.12,1.87-1.45,3.42-3.28,3.56-5.71a4.44,4.44,0,0,0-2.16-4.07c-1.47-.8-3.57,0-3.62,1.73a.74.74,0,0,0,.54.7c.93.27,2-.49,2.66.37,1.2,1.58-.47,3.52-1.51,4.58a26.59,26.59,0,0,1-3.42,2.73,7.45,7.45,0,0,0-2.24,2.82.36.36,0,0,0,.49.49Z" transform="translate(-309.1 -99.97)"/><path class="cls-9" d="M474.74,221.37c13.11,3,21.49-10,20.85-21.82,0-.39-.6-.51-.69-.1-1.41,6.34-2.7,12.54-7.56,17.22a15.48,15.48,0,0,1-12.48,3.8c-.51-.07-.61.77-.12.9Z" transform="translate(-309.1 -99.97)"/><path class="cls-7" d="M442.83,149.34a40.87,40.87,0,0,1-.65-6.45c-.1-1.85.39-3.59,0-5.42-.55-2.62-5.05-2.07-4.73.66.51,4.22,1.95,7.81,3.51,11.72a1,1,0,0,0,1.87-.51Z" transform="translate(-309.1 -99.97)"/><path class="cls-7" d="M458,147.62c1.29-4.29,3-8.92,2.89-13.49-.07-1.65-2.38-3-3.61-1.48-1.37,1.74-1.12,3.55-1.23,5.69-.15,2.95-.82,5.92-1.11,8.85-.17,1.81,2.58,2.06,3.06.43Z" transform="translate(-309.1 -99.97)"/><path class="cls-7" d="M479.14,151.07c2.51-2,3.21-4.58,4.57-7.37s3.18-5.28,2.48-8.44c-.66-3-4.56-2.4-5.48,0-1.91,5-3.42,9.62-3.7,14.93-.06,1.21,1.35,1.5,2.13.88Z" transform="translate(-309.1 -99.97)"/><path class="cls-6" d="M502.06,138.62a4.26,4.26,0,0,0,.29,1.76.78.78,0,1,0,1.43-.61,3,3,0,0,1-.18-1.15.77.77,0,0,0-1.54,0Z" transform="translate(-309.1 -99.97)"/><path class="cls-6" d="M513.45,150.94a5,5,0,0,0,.16,2.5,1.11,1.11,0,1,0,2-.85,2.91,2.91,0,0,1-.22-1.39c0-1.11-1.83-1.42-2-.26Z" transform="translate(-309.1 -99.97)"/><path class="cls-6" d="M503.9,166.73a5.16,5.16,0,0,0,0,2.47c.27,1.67,2.83,1,2.55-.7a4.54,4.54,0,0,0-.95-2.2,1,1,0,0,0-1.61.43Z" transform="translate(-309.1 -99.97)"/><path class="cls-6" d="M523.52,167.59a5.83,5.83,0,0,0,0,2.56c.18,1.3,2.23.77,2-.55a4.39,4.39,0,0,0-.85-2.32.72.72,0,0,0-1.19.31Z" transform="translate(-309.1 -99.97)"/><path class="cls-6" d="M516.07,183.55a4.15,4.15,0,0,0,.22,3.31c.34.61,1.44.38,1.36-.36a5.45,5.45,0,0,1-.1-2.54c.34-.93-1.14-1.32-1.48-.41Z" transform="translate(-309.1 -99.97)"/><path class="cls-6" d="M500.62,193.55c-.11,1.11-.56,2.15-.15,3.28.35,1,2.07,1.25,2.26,0a4.52,4.52,0,0,0-1.07-3.71c-.38-.45-1,0-1,.43Z" transform="translate(-309.1 -99.97)"/><path class="cls-6" d="M513,209.15a6,6,0,0,0-.25,3.17,1.15,1.15,0,0,0,2.2,0,3.79,3.79,0,0,0-.83-3.46.68.68,0,0,0-1.12.29Z" transform="translate(-309.1 -99.97)"/><path class="cls-6" d="M496.81,221.35a7.44,7.44,0,0,0-.05,2.62,1.28,1.28,0,1,0,2.47-.68,3.32,3.32,0,0,0-1.33-2.23c-.34-.27-1-.25-1.09.29Z" transform="translate(-309.1 -99.97)"/><path class="cls-6" d="M524.1,200.54a3.62,3.62,0,0,0,.35,2.61.42.42,0,0,0,.72,0,4.81,4.81,0,0,0,.74-2.61c.13-1.15-1.72-1.17-1.81,0Z" transform="translate(-309.1 -99.97)"/><path class="cls-6" d="M520.75,233.09c.29,1.17-.23,2.45.18,3.55a.92.92,0,0,0,1.76,0,5.31,5.31,0,0,0-.68-4.09.7.7,0,0,0-1.26.54Z" transform="translate(-309.1 -99.97)"/><path class="cls-6" d="M464.37,264l-.14-.05c-.88-.36-1.71.67-1.5,1.5a1.23,1.23,0,0,0,2,.54.58.58,0,0,0,.1-.12,1.14,1.14,0,0,0-.5-1.87Z" transform="translate(-309.1 -99.97)"/><path class="cls-6" d="M468.47,266.34a1.46,1.46,0,0,0,0-2.92,1.46,1.46,0,0,0,0,2.92Z" transform="translate(-309.1 -99.97)"/><path class="cls-6" d="M472.86,266.11a1.44,1.44,0,0,0,0-2.87,1.44,1.44,0,0,0,0,2.87Z" transform="translate(-309.1 -99.97)"/><path class="cls-6" d="M477.86,265.68a1.61,1.61,0,0,0,0-3.22,1.61,1.61,0,0,0,0,3.22Z" transform="translate(-309.1 -99.97)"/><path class="cls-6" d="M482.46,265.31a1.44,1.44,0,0,0,0-2.87,1.44,1.44,0,0,0,0,2.87Z" transform="translate(-309.1 -99.97)"/><path class="cls-6" d="M436,159.68a1,1,0,0,0,0-2,1,1,0,0,0,0,2Z" transform="translate(-309.1 -99.97)"/><path class="cls-6" d="M438.5,155.77a1.07,1.07,0,0,0,0-2.14,1.07,1.07,0,0,0,0,2.14Z" transform="translate(-309.1 -99.97)"/><path class="cls-6" d="M443.4,154.24a1.24,1.24,0,0,0,0-2.48,1.24,1.24,0,0,0,0,2.48Z" transform="translate(-309.1 -99.97)"/><path class="cls-6" d="M447.79,155.38a1.49,1.49,0,0,0,0-3,1.49,1.49,0,0,0,0,3Z" transform="translate(-309.1 -99.97)"/><path class="cls-6" d="M449,159.09a1.3,1.3,0,0,0,0-2.6,1.3,1.3,0,0,0,0,2.6Z" transform="translate(-309.1 -99.97)"/><path class="cls-6" d="M452.39,156a1.26,1.26,0,0,0,0-2.51,1.26,1.26,0,0,0,0,2.51Z" transform="translate(-309.1 -99.97)"/><path class="cls-6" d="M456.58,153.86a1.57,1.57,0,0,0,0-3.13,1.57,1.57,0,0,0,0,3.13Z" transform="translate(-309.1 -99.97)"/><path class="cls-6" d="M461.18,152.49a1.4,1.4,0,0,0,0-2.79,1.4,1.4,0,0,0,0,2.79Z" transform="translate(-309.1 -99.97)"/><path class="cls-6" d="M466.18,151.76a1.46,1.46,0,0,0,0-2.92,1.46,1.46,0,0,0,0,2.92Z" transform="translate(-309.1 -99.97)"/><path class="cls-6" d="M471,152.7a1.4,1.4,0,0,0,0-2.8,1.4,1.4,0,0,0,0,2.8Z" transform="translate(-309.1 -99.97)"/><path class="cls-6" d="M475.76,154.69a1.7,1.7,0,0,0,0-3.39,1.7,1.7,0,0,0,0,3.39Z" transform="translate(-309.1 -99.97)"/><path class="cls-6" d="M480.06,156.91a1.52,1.52,0,0,0,0-3,1.52,1.52,0,0,0,0,3Z" transform="translate(-309.1 -99.97)"/><path class="cls-6" d="M483.65,160.53a1.35,1.35,0,0,0,0-2.69,1.35,1.35,0,0,0,0,2.69Z" transform="translate(-309.1 -99.97)"/><path class="cls-6" d="M486,164.15a1.17,1.17,0,0,0,0-2.33,1.17,1.17,0,0,0,0,2.33Z" transform="translate(-309.1 -99.97)"/><path class="cls-6" d="M487.85,168.81a1.24,1.24,0,0,0,0-2.48,1.24,1.24,0,0,0,0,2.48Z" transform="translate(-309.1 -99.97)"/><path class="cls-6" d="M489.33,173a1.32,1.32,0,0,0,0-2.64,1.32,1.32,0,0,0,0,2.64Z" transform="translate(-309.1 -99.97)"/><path class="cls-6" d="M490.54,177.57a1.1,1.1,0,0,0,0-2.2,1.1,1.1,0,0,0,0,2.2Z" transform="translate(-309.1 -99.97)"/><path class="cls-6" d="M491.84,181.91a1,1,0,0,0,0-1.89.95.95,0,0,0,0,1.89Z" transform="translate(-309.1 -99.97)"/><path class="cls-6" d="M493.44,187.43a1.48,1.48,0,0,0,0-3,1.48,1.48,0,0,0,0,3Z" transform="translate(-309.1 -99.97)"/><path class="cls-6" d="M494.84,191.53a1.17,1.17,0,0,0,0-2.33,1.17,1.17,0,0,0,0,2.33Z" transform="translate(-309.1 -99.97)"/><path class="cls-8" d="M485.06,185.9c-2.55,0-6.4-2.22-8.83-3.18a28,28,0,0,0-10-1.81c-6-.13-12.55,2.17-15.42,7.67a1,1,0,0,0,1.64,1c5.79-8.3,16.18-7,24.44-3.87,2.85,1.06,5.44,2.42,8.24.7a.25.25,0,0,0-.12-.47Z" transform="translate(-309.1 -99.97)"/><path class="cls-8" d="M347.7,235.52a0,0,0,0,0,0-.05s0,.05,0,.05Z" transform="translate(-309.1 -99.97)"/><path class="cls-8" d="M352.71,236.77a0,0,0,1,0,0,0s0,0,0,0Z" transform="translate(-309.1 -99.97)"/><path class="cls-8" d="M381.44,262.44a2.39,2.39,0,0,0-.13.21,1.78,1.78,0,0,0,.64,2.41l.21.15a2,2,0,1,0-.72-2.77Z" transform="translate(-309.1 -99.97)"/><path class="cls-8" d="M390.88,266.7c0,.16-.06.31-.08.47-.4,2.43,3.09,3.5,3.75,1,0-.16.08-.31.13-.47.68-2.5-3.4-3.51-3.8-1Z" transform="translate(-309.1 -99.97)"/><path class="cls-8" d="M390.69,259.59a1.55,1.55,0,0,0,0-3.1,1.55,1.55,0,0,0,0,3.1Z" transform="translate(-309.1 -99.97)"/><path class="cls-8" d="M377.75,278.57a.18.18,0,0,0-.1,0,1,1,0,0,0,1.41-.38l.12-.22a1.28,1.28,0,0,0-.45-1.72l-.32-.13a1.31,1.31,0,1,0-.66,2.47Z" transform="translate(-309.1 -99.97)"/><path class="cls-8" d="M372.34,269.61l.3-.05c1.41-.24,1.26-2,.35-2.7a3.16,3.16,0,0,0-.27-.2c-2.18-1.61-3.74,3.54-.38,2.95Z" transform="translate(-309.1 -99.97)"/><path class="cls-8" d="M387.62,277.93l-.23.2a1.24,1.24,0,0,0,.55,2.05,2.47,2.47,0,0,1,.29.06c2.74.64,1.71-4.22-.61-2.31Z" transform="translate(-309.1 -99.97)"/><path class="cls-8" d="M382.54,272.87a2.39,2.39,0,0,0,.34-.21c1.8-1-.53-3.63-1.79-1.79l-.22.33c-.71,1,.66,2.25,1.67,1.67Z" transform="translate(-309.1 -99.97)"/><path class="cls-8" d="M402.38,274a.09.09,0,1,0,0-.18.09.09,0,0,0,0,.18Z" transform="translate(-309.1 -99.97)"/><path class="cls-8" d="M402,276.23a1.5,1.5,0,0,0,0-3,1.5,1.5,0,0,0,0,3Z" transform="translate(-309.1 -99.97)"/><path class="cls-8" d="M399.88,264.92a1.45,1.45,0,0,0,0-2.9,1.45,1.45,0,0,0,0,2.9Z" transform="translate(-309.1 -99.97)"/><path class="cls-8" d="M376.92,257a3,3,0,0,1,.34.25,1,1,0,0,0,1,0l.34-.25a1.64,1.64,0,1,0-1.66,0Z" transform="translate(-309.1 -99.97)"/><path class="cls-8" d="M369.06,285.8a1.81,1.81,0,0,0,0-3.61,1.81,1.81,0,0,0,0,3.61Z" transform="translate(-309.1 -99.97)"/><path class="cls-8" d="M377.73,287c-.05.18-.09.34-.13.51a.61.61,0,0,0,.73.73,4.07,4.07,0,0,1,.5-.13c1.86-.47-.64-3-1.1-1.11Z" transform="translate(-309.1 -99.97)"/><path class="cls-8" d="M365.64,296.29l-.41-.05c-1.88-.21-1.88,3.12,0,2.9l.41-.05a1.4,1.4,0,0,0,0-2.8Z" transform="translate(-309.1 -99.97)"/><path class="cls-8" d="M364.39,328.69a1.36,1.36,0,0,0,0-2.72,1.36,1.36,0,0,0,0,2.72Z" transform="translate(-309.1 -99.97)"/><path class="cls-8" d="M367.73,334.18a1.43,1.43,0,0,0,0-2.85,1.43,1.43,0,0,0,0,2.85Z" transform="translate(-309.1 -99.97)"/><path class="cls-8" d="M363.82,338.88l-.8.1a.47.47,0,0,0,0,.91l.8.11a.58.58,0,1,0,0-1.12Z" transform="translate(-309.1 -99.97)"/><path class="cls-8" d="M365.64,315.24l-.33,0c-2,.21-1.31,3.15.34,2.53l.33-.12c1.22-.47,1.16-2.61-.34-2.44Z" transform="translate(-309.1 -99.97)"/><path class="cls-8" d="M365,375.32c0-.13,0-.26,0-.4-.38-3.8-5.22,1.05-1.43,1.43a2.86,2.86,0,0,0,.42,0,1,1,0,0,0,1-1.06Z" transform="translate(-309.1 -99.97)"/><path class="cls-8" d="M369,380.17a1.08,1.08,0,0,0,0-2.16,1.08,1.08,0,0,0,0,2.16Z" transform="translate(-309.1 -99.97)"/><path class="cls-8" d="M364.81,390.24a1.55,1.55,0,0,0,0-3.1,1.55,1.55,0,0,0,0,3.1Z" transform="translate(-309.1 -99.97)"/><path class="cls-8" d="M370.57,394.14l.29-.2a1.25,1.25,0,0,0,0-2.15l-.29-.21c-2.74-1.86-2.74,4.42,0,2.56Z" transform="translate(-309.1 -99.97)"/><path class="cls-8" d="M376.24,393.58c.1.25.19.51.28.77a.86.86,0,0,0,1.63,0c.09-.26.18-.52.28-.77.64-1.81-2.83-1.81-2.19,0Z" transform="translate(-309.1 -99.97)"/><path class="cls-8" d="M371.91,403.29a1.24,1.24,0,0,0,0-2.48,1.24,1.24,0,0,0,0,2.48Z" transform="translate(-309.1 -99.97)"/><path class="cls-8" d="M366.07,400.6a1.06,1.06,0,0,0,0-2.11,1.06,1.06,0,0,0,0,2.11Z" transform="translate(-309.1 -99.97)"/><path class="cls-8" d="M366.12,407.4l-.35.05c-1.78.26-1,3.3.75,2.72l.33-.1a1.38,1.38,0,0,0-.73-2.67Z" transform="translate(-309.1 -99.97)"/><path class="cls-8" d="M373.58,443.48a1.36,1.36,0,0,0,0-2.72,1.36,1.36,0,0,0,0,2.72Z" transform="translate(-309.1 -99.97)"/><path class="cls-8" d="M377.75,451.44a1.39,1.39,0,0,0,0-2.77,1.39,1.39,0,0,0,0,2.77Z" transform="translate(-309.1 -99.97)"/><path class="cls-8" d="M384.43,449.74a1.36,1.36,0,0,0,0-2.72,1.36,1.36,0,0,0,0,2.72Z" transform="translate(-309.1 -99.97)"/><path class="cls-8" d="M391.11,445.45a1.25,1.25,0,0,0,0-2.49,1.25,1.25,0,0,0,0,2.49Z" transform="translate(-309.1 -99.97)"/><path class="cls-8" d="M391.94,453.3a1.16,1.16,0,0,0,0-2.32,1.16,1.16,0,0,0,0,2.32Z" transform="translate(-309.1 -99.97)"/><path class="cls-8" d="M385.68,459.23a1.25,1.25,0,0,0,0-2.49,1.25,1.25,0,0,0,0,2.49Z" transform="translate(-309.1 -99.97)"/><path class="cls-8" d="M377.75,461.77a1.29,1.29,0,0,0,0-2.57,1.29,1.29,0,0,0,0,2.57Z" transform="translate(-309.1 -99.97)"/><path class="cls-8" d="M384.85,467a1.13,1.13,0,0,0,0-2.25,1.13,1.13,0,0,0,0,2.25Z" transform="translate(-309.1 -99.97)"/><path class="cls-8" d="M393.19,464.61a1.2,1.2,0,0,0,0-2.4,1.2,1.2,0,0,0,0,2.4Z" transform="translate(-309.1 -99.97)"/><path class="cls-8" d="M399,459.83a1.44,1.44,0,0,0,0-2.87,1.44,1.44,0,0,0,0,2.87Z" transform="translate(-309.1 -99.97)"/><path class="cls-8" d="M399.46,450.83a1.2,1.2,0,0,0,0-2.39,1.2,1.2,0,0,0,0,2.39Z" transform="translate(-309.1 -99.97)"/><path class="cls-8" d="M404.89,454.4a1,1,0,0,0,0-2,1,1,0,0,0,0,2Z" transform="translate(-309.1 -99.97)"/><path class="cls-8" d="M406.55,450.13a.91.91,0,0,0,0-1.82.91.91,0,0,0,0,1.82Z" transform="translate(-309.1 -99.97)"/><path class="cls-8" d="M560.58,269a1.79,1.79,0,0,0,0-3.57,1.79,1.79,0,0,0,0,3.57Z" transform="translate(-309.1 -99.97)"/><path class="cls-8" d="M566.43,262.18a1.64,1.64,0,0,0,0-3.28,1.64,1.64,0,0,0,0,3.28Z" transform="translate(-309.1 -99.97)"/><path class="cls-8" d="M573.11,269.45a1.81,1.81,0,0,0,0-3.62,1.81,1.81,0,0,0,0,3.62Z" transform="translate(-309.1 -99.97)"/><path class="cls-8" d="M568.93,275.94a1.62,1.62,0,0,0,0-3.24,1.62,1.62,0,0,0,0,3.24Z" transform="translate(-309.1 -99.97)"/><path class="cls-8" d="M576,259.44a1,1,0,0,0,0-2,1,1,0,0,0,0,2Z" transform="translate(-309.1 -99.97)"/><path class="cls-8" d="M576,254a1,1,0,0,0,0-1.94,1,1,0,0,0,0,1.94Z" transform="translate(-309.1 -99.97)"/><path class="cls-8" d="M583.67,251.42l-.27.18A1.28,1.28,0,0,0,584,254l.34,0c2.24.3,1.34-3.94-.71-2.57Z" transform="translate(-309.1 -99.97)"/><path class="cls-8" d="M585.21,262.06a1.52,1.52,0,0,0,0-3,1.52,1.52,0,0,0,0,3Z" transform="translate(-309.1 -99.97)"/><path class="cls-8" d="M580.55,266.55c0,.18-.06.34-.1.52a.6.6,0,0,0,.74.73l.51-.09c2-.41-.75-3.18-1.15-1.16Z" transform="translate(-309.1 -99.97)"/><path class="cls-8" d="M579.37,276.93a1.79,1.79,0,0,0,0-3.57,1.79,1.79,0,0,0,0,3.57Z" transform="translate(-309.1 -99.97)"/><path class="cls-8" d="M588.13,277.46a1.48,1.48,0,0,0,0-2.95,1.48,1.48,0,0,0,0,2.95Z" transform="translate(-309.1 -99.97)"/><path class="cls-8" d="M590.64,270.71a1.81,1.81,0,0,0,0-3.62,1.81,1.81,0,0,0,0,3.62Z" transform="translate(-309.1 -99.97)"/><path class="cls-8" d="M592.49,284.06l-.66.29a1,1,0,0,0,0,1.63l.66.3c2.43,1.14,2.43-3.34,0-2.22Z" transform="translate(-309.1 -99.97)"/><path class="cls-8" d="M581.46,282.92a1.09,1.09,0,0,0,0-2.17,1.09,1.09,0,0,0,0,2.17Z" transform="translate(-309.1 -99.97)"/><path class="cls-8" d="M594.94,312.9c-.17,0-.35.05-.52.09-3.25.49,1.3,5,1.79,1.79,0-.16.06-.34.08-.51a1.13,1.13,0,0,0-1.35-1.37Z" transform="translate(-309.1 -99.97)"/><path class="cls-8" d="M597.55,321.61a1.06,1.06,0,0,0,1.93.82c.78-1.32-1.47-2.29-1.93-.82Z" transform="translate(-309.1 -99.97)"/><path class="cls-8" d="M599.52,333.34c0-.17-.06-.31-.1-.46a1.17,1.17,0,0,0-.82-.83l-.26-.07a1.26,1.26,0,0,0-1.21,2.09.79.79,0,0,0,.39.26c.31.11,1,.36.55.11a1,1,0,0,0,1.45-1.1Z" transform="translate(-309.1 -99.97)"/><path class="cls-8" d="M600.73,370.84a1.22,1.22,0,0,0,2.22.93c.9-1.52-1.69-2.64-2.22-.93Z" transform="translate(-309.1 -99.97)"/><path class="cls-8" d="M597.32,378a1,1,0,0,0,0-2,1,1,0,0,0,0,2Z" transform="translate(-309.1 -99.97)"/><path class="cls-8" d="M600.24,386.59a1.24,1.24,0,0,0,0-2.48,1.24,1.24,0,0,0,0,2.48Z" transform="translate(-309.1 -99.97)"/><path class="cls-8" d="M594.39,391.84a1.48,1.48,0,0,0,0-2.95,1.48,1.48,0,0,0,0,2.95Z" transform="translate(-309.1 -99.97)"/><path class="cls-8" d="M590.64,396.7a.92.92,0,0,0,0-1.83.92.92,0,0,0,0,1.83Z" transform="translate(-309.1 -99.97)"/><path class="cls-8" d="M596.49,402.44a1.65,1.65,0,0,0,0-3.3,1.65,1.65,0,0,0,0,3.3Z" transform="translate(-309.1 -99.97)"/><path class="cls-8" d="M601.07,395.69a1.16,1.16,0,0,0,0-2.32,1.16,1.16,0,0,0,0,2.32Z" transform="translate(-309.1 -99.97)"/><path class="cls-8" d="M600,408.52l-.77.25a.83.83,0,0,0,0,1.58c.25.08.52.16.77.26,1.73.55,1.73-2.66,0-2.09Z" transform="translate(-309.1 -99.97)"/><path class="cls-8" d="M599,423.47a1.39,1.39,0,0,0,0-2.77,1.39,1.39,0,0,0,0,2.77Z" transform="translate(-309.1 -99.97)"/><path class="cls-8" d="M594.81,430a1.25,1.25,0,0,0,0-2.49,1.25,1.25,0,0,0,0,2.49Z" transform="translate(-309.1 -99.97)"/><path class="cls-8" d="M598.66,435.36l.21.2a.75.75,0,0,0,1.06,0l.22-.2c2.25-2.1-3.75-2.1-1.49,0Z" transform="translate(-309.1 -99.97)"/><path class="cls-8" d="M591.48,438a1.69,1.69,0,0,0,0-3.38,1.69,1.69,0,0,0,0,3.38Z" transform="translate(-309.1 -99.97)"/><path class="cls-8" d="M581,440.19a1.42,1.42,0,0,0,0-2.83,1.42,1.42,0,0,0,0,2.83Z" transform="translate(-309.1 -99.97)"/><path class="cls-8" d="M585.63,447.74a1.86,1.86,0,0,0,0-3.72,1.86,1.86,0,0,0,0,3.72Z" transform="translate(-309.1 -99.97)"/><path class="cls-8" d="M594.39,447.75a1.46,1.46,0,0,0,0-2.92,1.46,1.46,0,0,0,0,2.92Z" transform="translate(-309.1 -99.97)"/><path class="cls-8" d="M588.19,454.55a1.71,1.71,0,0,1-.29.16,1.46,1.46,0,0,0,.73,2.71,1.88,1.88,0,0,0,.34,0c2.49.14,1.55-4.21-.78-2.89Z" transform="translate(-309.1 -99.97)"/><path class="cls-8" d="M577.28,455.11a1.72,1.72,0,0,0,0-3.43,1.72,1.72,0,0,0,0,3.43Z" transform="translate(-309.1 -99.97)"/><path class="cls-8" d="M575,445.6a1,1,0,0,0,1.89.8c.75-1.29-1.45-2.25-1.89-.8Z" transform="translate(-309.1 -99.97)"/><path class="cls-8" d="M568.09,451.08a1.86,1.86,0,0,0,0-3.72,1.86,1.86,0,0,0,0,3.72Z" transform="translate(-309.1 -99.97)"/><path class="cls-8" d="M573.11,462.9c2.57,0,2.57-4,0-4s-2.58,4,0,4Z" transform="translate(-309.1 -99.97)"/><path class="cls-8" d="M566.43,457.68a1.37,1.37,0,0,0,0-2.74,1.37,1.37,0,0,0,0,2.74Z" transform="translate(-309.1 -99.97)"/><path class="cls-8" d="M580.62,466.78a1.29,1.29,0,0,0,0-2.58,1.29,1.29,0,0,0,0,2.58Z" transform="translate(-309.1 -99.97)"/><path class="cls-8" d="M562.67,449.14a1.6,1.6,0,0,0,0-3.2,1.6,1.6,0,0,0,0,3.2Z" transform="translate(-309.1 -99.97)"/><path class="cls-9" d="M605,522.82c0-.86.34-2.08.34-3a23,23,0,0,0-.1-2.61,11.8,11.8,0,0,0-3.59-7.74c2-.12,7-.12,9,0a11.81,11.81,0,0,0-3.6,7.74c-.09.88-.09,1.75-.1,2.61s.35,2.09.34,3Z" transform="translate(-309.1 -99.97)"/><path class="cls-9" d="M605.71,519.56a9.7,9.7,0,0,0-8.16-4.52,7.49,7.49,0,0,0-7,5.66c-.55,2.81.82,5.69,2.77,7.8s4.62,3.47,7,5a38.71,38.71,0,0,1,5.86,5.59,75.8,75.8,0,0,1,5.84-5.49c2.27-1.74,5.09-3.07,7-5.15s3.31-5,2.75-7.8a7.47,7.47,0,0,0-7-5.66,9.67,9.67,0,0,0-8.15,4.52Z" transform="translate(-309.1 -99.97)"/><path class="cls-9" d="M353.84,194.8c0,.85-.34,2.09-.34,2.94a25.2,25.2,0,0,0,.09,2.61,11.78,11.78,0,0,0,3.61,7.76c-2,.11-7.05.11-9,0a11.9,11.9,0,0,0,3.59-7.76c.09-.87.09-1.73.1-2.61s-.34-2.09-.34-2.94Z" transform="translate(-309.1 -99.97)"/><path class="cls-9" d="M353.1,198.07a9.64,9.64,0,0,0,8.16,4.51,7.49,7.49,0,0,0,7-5.66c.56-2.8-.81-5.7-2.76-7.79s-4.62-3.47-7-5a40.07,40.07,0,0,1-5.86-5.61,76.85,76.85,0,0,1-5.84,5.51c-2.26,1.74-5.08,3.06-7,5.15s-3.32,5-2.77,7.79a7.49,7.49,0,0,0,7,5.66,9.66,9.66,0,0,0,8.16-4.51Z" transform="translate(-309.1 -99.97)"/><path class="cls-9" d="M350.47,166.14c-6.16,0-11-2.35-14.51-7.06s-5.25-10.55-5.25-17.56q0-11.21,5.45-18.27a17.15,17.15,0,0,1,14.27-7.06,17.53,17.53,0,0,1,14.15,6.74c3.69,4.52,5.54,10.45,5.54,17.85A30.81,30.81,0,0,1,366,156.93q-4.14,6.91-10.62,8.62l0,.65c0,3.53,2.14,5.29,6.4,5.29a29.8,29.8,0,0,0,5.52-.46v4.81a16.72,16.72,0,0,1-5,.75q-5.52,0-8.49-2.33C351.81,172.69,350.7,170,350.47,166.14Zm0-4.89q6.29,0,9.85-5.73t3.55-14.79c0-6.17-1.23-11-3.67-14.44a11.43,11.43,0,0,0-9.77-5.19c-4.1,0-7.35,1.88-9.78,5.61s-3.61,8.6-3.61,14.63q0,8.82,3.66,14.38T350.43,161.25Z" transform="translate(-309.1 -99.97)"/><path class="cls-9" d="M609.47,553.79c6.16,0,11,2.34,14.49,7.06s5.25,10.56,5.25,17.57q0,11.19-5.43,18.27a17.2,17.2,0,0,1-14.29,7.06A17.48,17.48,0,0,1,595.35,597c-3.7-4.5-5.54-10.46-5.54-17.84A30.82,30.82,0,0,1,594,563c2.77-4.64,6.3-7.5,10.62-8.63l0-.67c0-3.5-2.15-5.26-6.4-5.26a30.12,30.12,0,0,0-5.53.45v-4.83a17.16,17.16,0,0,1,5-.73c3.68,0,6.5.78,8.49,2.33S609.23,549.94,609.47,553.79Zm0,4.89q-6.29,0-9.84,5.74t-3.55,14.77q0,9.3,3.68,14.46a11.37,11.37,0,0,0,9.75,5.17q6.15,0,9.78-5.59c2.4-3.72,3.62-8.61,3.62-14.64s-1.22-10.67-3.65-14.37S613.57,558.68,609.49,558.68Z" transform="translate(-309.1 -99.97)"/><path class="cls-15" d="M445.85,593.47h-85c-13.82,0-25.06-12-25.06-26.64V230.71a.77.77,0,0,1,.78-.78.77.77,0,0,1,.77.78V566.83c0,13.83,10.55,25.08,23.51,25.08h85a.78.78,0,1,1,0,1.56Z" transform="translate(-309.1 -99.97)"/><path class="cls-15" d="M582.77,593.47H536.66a.78.78,0,0,1,0-1.56h46.11a.78.78,0,0,1,0,1.56Z" transform="translate(-309.1 -99.97)"/><path class="cls-15" d="M623.39,491.66a.79.79,0,0,1-.78-.78V153.09c0-13.82-10.54-25.06-23.5-25.06H510a.79.79,0,0,1-.78-.78.78.78,0,0,1,.78-.78h89.15c13.82,0,25.07,11.93,25.07,26.62V490.88A.79.79,0,0,1,623.39,491.66Z" transform="translate(-309.1 -99.97)"/><path class="cls-15" d="M424.16,128H379.63a.79.79,0,0,1-.79-.78.78.78,0,0,1,.79-.78h44.53a.77.77,0,0,1,.78.78A.79.79,0,0,1,424.16,128Z" transform="translate(-309.1 -99.97)"/></g></svg>