<svg xmlns="http://www.w3.org/2000/svg" xmlns:xlink="http://www.w3.org/1999/xlink" viewBox="0 0 341.71 520"><defs><style>.cls-1{fill:#0c0a35;}.cls-2{fill:none;}.cls-3{fill:#191956;}.cls-4{fill:#fff;}.cls-5{fill:#2d2d2d;}.cls-6{fill:#222272;}.cls-7{fill:#ffd6a1;}.cls-8{fill:#b70027;}.cls-9{clip-path:url(#clip-path);}.cls-10{fill:#fcc07e;}.cls-11{clip-path:url(#clip-path-2);}.cls-12{fill:#f70032;}.cls-13{fill:#141247;}.cls-14{clip-path:url(#clip-path-3);}.cls-15{clip-path:url(#clip-path-4);}.cls-16{clip-path:url(#clip-path-5);}.cls-17{clip-path:url(#clip-path-6);}</style><clipPath id="clip-path" transform="translate(-309.11 -99.97)"><path class="cls-1" d="M503.09,226.05a13.81,13.81,0,0,0-10.31-4.62,28.27,28.27,0,0,0-11.29,2.5A42.66,42.66,0,0,0,466.1,234.2a27.85,27.85,0,0,0-7.58,16.65c-6.09-3.64-15.24-5.68-20.94-1.44-2.5,1.86-4,4.76-5.2,7.62-8.88,20.44-9.94,43.32-10.77,65.61-.21,5.4-.42,10.91-2.33,16-1.14,3-2.87,5.87-3.11,9.09a2.57,2.57,0,0,0,.37,1.74c.76,1,2.29.55,3.42.07q14.88-6.57,29.76-13.08c19.36-8.5,39.83-17.92,51.23-35.71,4.07-6.34,6.76-13.45,9.08-20.61,2.86-8.84,5.24-18,4.88-27.28S509,233.27,503.09,226.05Z"/></clipPath><clipPath id="clip-path-2" transform="translate(-309.11 -99.97)"><path class="cls-2" d="M500.27,257.27a6.54,6.54,0,0,0,4,.77c8.41-.28,19.5-1.14,27.62-3.36,7.49-2,14-4.86,17.77-11.61,2-3.47,1.08-9.52-2-12.12-2.21-1.89-4.57-2.59-7.26-3.7-6.73-2.74-9.87-10.45-10.11-17.71s.58-15-3.1-21.27c-2.87-4.9-8.11-8-13.56-9.48s-11.19-1.53-16.85-1.58c-2.38,0-5.11.11-6.57,2s-1,4.4-.47,6.64c3.24,13.79,7.64,27.7,6.45,41.82-.34,4-1.11,7.92-1.09,11.9a40.44,40.44,0,0,0,3.12,14.56A6.46,6.46,0,0,0,500.27,257.27Z"/></clipPath><clipPath id="clip-path-3" transform="translate(-309.11 -99.97)"><path class="cls-3" d="M443.84,228.82c4.08-1.45,8.65,0,12.31,2.33,6.65,4.19,11.4,11,14.17,18.29s3.69,15.27,3.84,23.13c.08,3.7,0,7.53-1.56,10.9-3,1-6.18-.73-8.78-2.52-10.23-7.06-19.17-17.76-19.36-30.19.71,14.81-8.78,29.6-22.56,35.11,1.19-7.53,5.71-14.25,6.65-21.82,1.23-10-3.85-20.64.11-29.9a5,5,0,0,1,1.47-2.14c1.86-1.38,4.49-.23,6.81-.4C439.43,231.43,441.48,229.65,443.84,228.82Z"/></clipPath><clipPath id="clip-path-4" transform="translate(-309.11 -99.97)"><path class="cls-1" d="M452.45,495.59a13.83,13.83,0,0,0,10.31,4.62,27.74,27.74,0,0,0,11.29-2.5,42.73,42.73,0,0,0,15.4-10.25A27.91,27.91,0,0,0,497,470.79c6.1,3.64,15.26,5.69,21,1.45,2.5-1.86,4-4.76,5.21-7.61,8.88-20.47,9.94-43.34,10.77-65.63.19-5.4.41-10.91,2.32-16,1.13-3,2.88-5.87,3.11-9.07a2.53,2.53,0,0,0-.37-1.75c-.76-1-2.28-.55-3.42-.06q-14.88,6.52-29.76,13.08C486.46,393.73,466,403.16,454.59,421c-4.06,6.32-6.75,13.45-9.08,20.59-2.87,8.84-5.23,18-4.87,27.3S446.59,488.39,452.45,495.59Z"/></clipPath><clipPath id="clip-path-5" transform="translate(-309.11 -99.97)"><path class="cls-2" d="M455.27,464.38a6.68,6.68,0,0,0-4-.78c-8.4.29-19.5,1.16-27.62,3.36-7.48,2-13.95,4.87-17.76,11.63-2,3.47-1.08,9.52,1.95,12.11,2.22,1.89,4.58,2.59,7.27,3.7,6.73,2.72,9.88,10.45,10.11,17.71s-.57,15,3.1,21.28c2.87,4.87,8.11,8,13.57,9.46s11.18,1.55,16.83,1.59c2.38,0,5.12-.13,6.58-2s1-4.4.47-6.65c-3.25-13.79-7.64-27.68-6.45-41.82.33-4,1.12-7.91,1.09-11.9a40.74,40.74,0,0,0-3.11-14.57A6.59,6.59,0,0,0,455.27,464.38Z"/></clipPath><clipPath id="clip-path-6" transform="translate(-309.11 -99.97)"><path class="cls-3" d="M511.7,492.84c-4.08,1.45-8.65,0-12.31-2.35-6.64-4.18-11.39-10.94-14.17-18.28s-3.69-15.28-3.84-23.12c-.08-3.7,0-7.55,1.57-10.93,3-1,6.17.74,8.77,2.53,10.23,7.06,19.18,17.77,19.36,30.2-.7-14.82,8.79-29.6,22.55-35.11-1.18,7.52-5.69,14.25-6.63,21.8-1.24,10,3.85,20.66-.11,29.92a5.14,5.14,0,0,1-1.47,2.12c-1.87,1.41-4.5.23-6.82.41C516.11,490.23,514.05,492,511.7,492.84Z"/></clipPath></defs><g id="Layer_1" data-name="Layer 1"><path class="cls-4" d="M621.24,619.19H338.69a28.8,28.8,0,0,1-28.81-28.8V129.55a28.8,28.8,0,0,1,28.81-28.8H621.24A28.8,28.8,0,0,1,650,129.55V590.39A28.8,28.8,0,0,1,621.24,619.19Z" transform="translate(-309.11 -99.97)"/><path class="cls-5" d="M621.24,620H338.69a29.6,29.6,0,0,1-29.58-29.58V129.55A29.6,29.6,0,0,1,338.69,100H621.24a29.62,29.62,0,0,1,29.58,29.58V590.39A29.62,29.62,0,0,1,621.24,620ZM338.69,101.54a28,28,0,0,0-28,28V590.39a28.06,28.06,0,0,0,28,28H621.24a28,28,0,0,0,28-28V129.55a28,28,0,0,0-28-28Z" transform="translate(-309.11 -99.97)"/><path class="cls-1" d="M577.35,430.34q-.81-16.54-1.62-33c-.1-2.24-.2-4.52.78-6.61,1.48-3.11,5-5.18,8-7.51a30.57,30.57,0,0,0,11.72-22.7c.34-8.38-2.74-16.7-7.76-24.07-1.37-2-2.92-4-3.64-6.19-1.66-5,1-10.21,1.2-15.36.38-10.52-9.33-19.42-19.41-26.14A128.61,128.61,0,0,0,524.56,270a216.35,216.35,0,0,0-25.67-3.83c-16.85-1.81-33.84-3.47-50.79-2.54s-34,4.59-47.78,12.62c-14.59,8.51-37.39,12-44.34,39.13-8.1,31.65,12.78,102,15.81,105.59,63.23,74.64,145.48,9.25,152.8,8.84,10.65-.58,21.67-2.2,31.75.61,3.34.92,6.5,2.33,10,2.88S575.17,432.59,577.35,430.34Z" transform="translate(-309.11 -99.97)"/><path class="cls-1" d="M378.19,291.3l1.62,33.07c.11,2.22.2,4.51-.78,6.58-1.47,3.12-5,5.19-8,7.54a30.56,30.56,0,0,0-11.72,22.68c-.33,8.38,2.74,16.71,7.76,24.07,1.37,2,2.91,4,3.65,6.21,1.64,5-1,10.19-1.21,15.36-.38,10.5,9.33,19.42,19.42,26.14,12.42,8.25,26.53,15.1,42,18.68a214.46,214.46,0,0,0,25.68,3.82c16.84,1.81,33.83,3.47,50.78,2.56s34.05-4.62,47.78-12.62c14.6-8.53,37.39-11.95,44.35-39.15,8.09-31.65,5.83-78.79,5.69-83.47-.1-3.1-6.47-48.46-72.86-54.79-61.81-5.88-141.1,20.68-143.17,20.34C385.76,287.76,380.36,289.07,378.19,291.3Z" transform="translate(-309.11 -99.97)"/><path class="cls-6" d="M475.6,106.9a2.62,2.62,0,0,1,2.83.08,6.72,6.72,0,0,1,2,2.24,31.24,31.24,0,0,1,4.38,12.4,26.62,26.62,0,0,1-15.39,1.59,85.43,85.43,0,0,1,5.12-14.71A4,4,0,0,1,475.6,106.9Z" transform="translate(-309.11 -99.97)"/><path class="cls-6" d="M368.12,412.55c4.47,18.08,11.46,26.14,29,32.48a8.31,8.31,0,0,0,3.53.7c1.82-.15,3.36-1.35,4.78-2.49C466.63,394.45,537,364.06,595,311c.78-.72,5.42-5.9,5.51-7a4.27,4.27,0,0,0-1.07-2.76c-4.9-7.11-9.87-14.28-16.36-20s-13-7.81-21.59-7.62c-14.44.31-33.52,19-50,30.35C471.6,331.66,442,346.12,403.24,375.4a296.89,296.89,0,0,0-32.42,28.43,10,10,0,0,0-3,4.48A9.41,9.41,0,0,0,368.12,412.55Z" transform="translate(-309.11 -99.97)"/><path class="cls-7" d="M493.59,244.39c12.16-16,15.12-37.36,14.17-57.46-.18-3.83-.56-7.86-2.7-11-2.42-3.57-6.65-5.43-10.75-6.78A82.77,82.77,0,0,0,428,175.94c-1.7,1-3.54,2.31-3.71,4.27-.14,1.78,1.2,3.31,2.48,4.55A95.12,95.12,0,0,0,438,194.15c-12.46,13.67-25,29-27.08,47.34a72.39,72.39,0,0,0,21.2-10.26,105.07,105.07,0,0,0-3.44,21.64c-.2,3.55-.15,7.3,1.67,10.37,3.18,5.35,10.33,6.42,16.53,7,5.65.49,11.48.95,16.85-.86,4.68-1.59,8.63-4.75,12.43-7.89C482.46,256.24,488.67,250.88,493.59,244.39Z" transform="translate(-309.11 -99.97)"/><path class="cls-8" d="M415.75,327.63A37.78,37.78,0,0,1,427.62,334c6.08,5.19,9.41,13.11,12.53,20.71,2.15,5.22,4.33,10.6,4.55,16.31.35,9.23-4.63,18-11.25,24s-14.76,9.64-22.78,13.14c-7.7,3.36-15.53,6.67-23.78,7.76s-17.12-.27-23.79-5.57c-6.22-4.94-10-12.8-11.78-20.86-3.56-15.63-.4-32.95,8.79-45.7s24.35-20.53,39.41-19.7A57.67,57.67,0,0,1,415.75,327.63Z" transform="translate(-309.11 -99.97)"/><path class="cls-4" d="M483.31,206a36.83,36.83,0,0,1-4.62,3.46c-3.65,2.1-8.1,2.17-12.28,1.79-3.67-.34-8-3-10.81-5.38-3.29-2.79-5.6-5.18-6.58-7.56,9.68-7.45,25-11,36.12-5.89,1.73.78,4.6,2.4,6,3.23C489.25,200.25,487,202.57,483.31,206Z" transform="translate(-309.11 -99.97)"/><path class="cls-8" d="M539.8,394a37.29,37.29,0,0,1-11.87-6.38c-6.08-5.18-9.42-13.09-12.53-20.69-2.15-5.22-4.34-10.61-4.55-16.3-.36-9.25,4.62-18,11.24-24s14.76-9.63,22.78-13.14c7.7-3.36,15.53-6.68,23.79-7.78s17.1.3,23.78,5.58c6.23,5,10,12.82,11.79,20.87,3.55,15.62.39,33-8.8,45.7s-24.34,20.52-39.41,19.7A56.94,56.94,0,0,1,539.8,394Z" transform="translate(-309.11 -99.97)"/><path class="cls-6" d="M528.17,339.21c-6.85,8.43-7.74,20.39-3.27,30.19,4.24,9.28,14.21,21.1,25.62,19.6,1.7-.23,3-2.23,1.52-3.65-6.1-5.76-13.39-8.53-18.28-15.85-5.9-8.82-5-18.83-2.57-28.53.41-1.63-1.82-3.25-3-1.76Z" transform="translate(-309.11 -99.97)"/><path class="cls-6" d="M547.77,343.17c-8.23,11.22,1.33,43.16,15.08,46.36a2.8,2.8,0,0,0,3.41-3.41c-1.81-7.26-8.48-13.29-11.21-20.56-2.25-6-5.74-14.42-3.24-20.7,1-2.49-2.68-3.55-4-1.69Z" transform="translate(-309.11 -99.97)"/><path class="cls-6" d="M565.21,342.84a42.53,42.53,0,0,1,8,23.48c.25,6-2.94,13.13.33,18.49a2.68,2.68,0,0,0,3.6.95c7.07-3.74,6.12-15.13,5.37-21.9a39.76,39.76,0,0,0-12.58-24.65c-2.4-2.27-6.75.75-4.72,3.63Z" transform="translate(-309.11 -99.97)"/><path class="cls-6" d="M590.57,370.33c12.69-1.3,9.72-21.78,7.73-30.23-1.38-5.85-10.63-32.67-19.91-19.94-1.54,2.12,0,6,2.6,6.39,5.54.82,8.27,11.87,9.68,16.73,2.19,7.57,3.06,18.31-1.11,25.28a1.18,1.18,0,0,0,1,1.77Z" transform="translate(-309.11 -99.97)"/><path class="cls-6" d="M538.71,368.1a1.9,1.9,0,0,0,0-3.8c-2.44,0-2.44,3.8,0,3.8Z" transform="translate(-309.11 -99.97)"/><path class="cls-6" d="M561.9,367.07c3.3,0,3.3-5.12,0-5.12s-3.3,5.12,0,5.12Z" transform="translate(-309.11 -99.97)"/><path class="cls-6" d="M586.78,352.63c3.15,0,3.15-4.88,0-4.88s-3.15,4.88,0,4.88Z" transform="translate(-309.11 -99.97)"/><path class="cls-6" d="M599,329.75a1.06,1.06,0,0,0,0-2.12,1.06,1.06,0,0,0,0,2.12Z" transform="translate(-309.11 -99.97)"/><path class="cls-6" d="M516,359a1.69,1.69,0,0,0,0-3.37,1.69,1.69,0,0,0,0,3.37Z" transform="translate(-309.11 -99.97)"/><path class="cls-6" d="M537.46,360.16a1.13,1.13,0,0,0,0-2.25,1.13,1.13,0,0,0,0,2.25Z" transform="translate(-309.11 -99.97)"/><path class="cls-6" d="M537.88,353.72a1,1,0,0,0,0-2,1,1,0,0,0,0,2Z" transform="translate(-309.11 -99.97)"/><path class="cls-6" d="M539.14,348.61a1,1,0,0,0,0-1.92,1,1,0,0,0,0,1.92Z" transform="translate(-309.11 -99.97)"/><path class="cls-6" d="M542.93,371c-.55-1.56-2.94-1.1-2.48.56s3,.86,2.48-.56Z" transform="translate(-309.11 -99.97)"/><path class="cls-6" d="M545.26,375.53l-.4-.06a.88.88,0,1,0,0,1.71c.13,0,.26-.05.4-.06a.83.83,0,0,0,0-1.59Z" transform="translate(-309.11 -99.97)"/><path class="cls-6" d="M560.22,360a1.76,1.76,0,0,0,0-3.52,1.76,1.76,0,0,0,0,3.52Z" transform="translate(-309.11 -99.97)"/><path class="cls-6" d="M559,354.27a1.56,1.56,0,0,0,0-3.11,1.56,1.56,0,0,0,0,3.11Z" transform="translate(-309.11 -99.97)"/><path class="cls-6" d="M558.53,347.65a.84.84,0,0,0,0-1.68.84.84,0,0,0,0,1.68Z" transform="translate(-309.11 -99.97)"/><path class="cls-6" d="M563.17,371.31h.42a.9.9,0,0,0,0-1.79h-.42a.9.9,0,0,0,0,1.79Z" transform="translate(-309.11 -99.97)"/><path class="cls-6" d="M565.28,376.09a1,1,0,0,0,0-2.07,1,1,0,0,0,0,2.07Z" transform="translate(-309.11 -99.97)"/><path class="cls-6" d="M567.13,378.58a2.59,2.59,0,0,1-.19.23.67.67,0,0,0,0,.91l.19.23c.54.69,1.64.1,1.64-.68s-1.1-1.36-1.64-.69Z" transform="translate(-309.11 -99.97)"/><path class="cls-6" d="M584.25,344.41a1.81,1.81,0,0,0,0-3.62,1.81,1.81,0,0,0,0,3.62Z" transform="translate(-309.11 -99.97)"/><path class="cls-6" d="M582.14,340.22a1.41,1.41,0,0,0,0-2.82,1.41,1.41,0,0,0,0,2.82Z" transform="translate(-309.11 -99.97)"/><path class="cls-6" d="M578.76,335.83a1.25,1.25,0,0,0,0-2.49,1.25,1.25,0,0,0,0,2.49Z" transform="translate(-309.11 -99.97)"/><path class="cls-6" d="M575,332.88a1.25,1.25,0,0,0,0-2.5,1.25,1.25,0,0,0,0,2.5Z" transform="translate(-309.11 -99.97)"/><path class="cls-6" d="M587.62,358.3a1.37,1.37,0,0,0,0-2.74,1.37,1.37,0,0,0,0,2.74Z" transform="translate(-309.11 -99.97)"/><path class="cls-6" d="M587.62,364a1.2,1.2,0,0,0,0-2.39,1.2,1.2,0,0,0,0,2.39Z" transform="translate(-309.11 -99.97)"/><path class="cls-6" d="M587.2,368.73a.85.85,0,0,0,0-1.69.85.85,0,0,0,0,1.69Z" transform="translate(-309.11 -99.97)"/><path class="cls-6" d="M596.89,322.15a1.06,1.06,0,0,0,0-2.12,1.06,1.06,0,0,0,0,2.12Z" transform="translate(-309.11 -99.97)"/><path class="cls-6" d="M593.1,317.14a1.11,1.11,0,0,0,0-2.21,1.11,1.11,0,0,0,0,2.21Z" transform="translate(-309.11 -99.97)"/><path class="cls-6" d="M589.31,314.57a1.06,1.06,0,0,0,0-2.12,1.06,1.06,0,0,0,0,2.12Z" transform="translate(-309.11 -99.97)"/><path class="cls-6" d="M583.6,311.18a2,2,0,0,0-.18.23.6.6,0,0,0,0,.83,1.32,1.32,0,0,0,.18.22c1.76,2.19,1.76-3.47,0-1.28Z" transform="translate(-309.11 -99.97)"/><path class="cls-6" d="M602,333.92l-.43.07a.18.18,0,1,0,0,.36l.43,0c.3,0,.3-.51,0-.48Z" transform="translate(-309.11 -99.97)"/><path class="cls-6" d="M601.53,335.46a1.29,1.29,0,0,0,0-2.58,1.29,1.29,0,0,0,0,2.58Z" transform="translate(-309.11 -99.97)"/><path class="cls-6" d="M602.66,339.52a2.15,2.15,0,0,0-.19.22.45.45,0,0,0,0,.66l.19.21c1.55,1.63,1.55-2.73,0-1.09Z" transform="translate(-309.11 -99.97)"/><path class="cls-6" d="M602.8,346.07a.94.94,0,0,0,0-1.87.94.94,0,0,0,0,1.87Z" transform="translate(-309.11 -99.97)"/><path class="cls-6" d="M516.38,352a1,1,0,0,0,0-2,1,1,0,0,0,0,2Z" transform="translate(-309.11 -99.97)"/><path class="cls-6" d="M518.06,346.9a.94.94,0,0,0,0-1.87.94.94,0,0,0,0,1.87Z" transform="translate(-309.11 -99.97)"/><path class="cls-6" d="M521,341.78a1.3,1.3,0,0,0,0-2.59,1.3,1.3,0,0,0,0,2.59Z" transform="translate(-309.11 -99.97)"/><path class="cls-6" d="M524,337.46a.35.35,0,0,0,0-.7.35.35,0,0,0,0,.7Z" transform="translate(-309.11 -99.97)"/><path class="cls-6" d="M517.65,365.36a.85.85,0,0,0,0-1.7.85.85,0,0,0,0,1.7Z" transform="translate(-309.11 -99.97)"/><path class="cls-6" d="M519.75,370.46a.89.89,0,0,0,0-1.77.89.89,0,0,0,0,1.77Z" transform="translate(-309.11 -99.97)"/><path class="cls-6" d="M521.85,375.27a1.06,1.06,0,0,0,0-2.12,1.06,1.06,0,0,0,0,2.12Z" transform="translate(-309.11 -99.97)"/><path class="cls-6" d="M524.21,379c.07.07.14.13.22.22a.58.58,0,0,0,.76,0c.07-.09.15-.15.21-.22,1.78-1.68-3-1.68-1.19,0Z" transform="translate(-309.11 -99.97)"/><path class="cls-6" d="M528.18,383.69a1.06,1.06,0,0,0,0-2.11,1.06,1.06,0,0,0,0,2.11Z" transform="translate(-309.11 -99.97)"/><path class="cls-6" d="M427.38,382.43c6.84-8.41,7.74-20.38,3.26-30.18-4.24-9.29-14.2-21.12-25.62-19.6-1.7.23-3,2.22-1.51,3.65,6.1,5.76,13.38,8.52,18.27,15.85,5.89,8.81,5,18.82,2.58,28.54-.41,1.61,1.81,3.23,3,1.74Z" transform="translate(-309.11 -99.97)"/><path class="cls-6" d="M407.76,378.49c8.24-11.22-1.32-43.16-15.08-46.38a2.8,2.8,0,0,0-3.4,3.41c1.8,7.26,8.49,13.31,11.21,20.56,2.25,6,5.74,14.43,3.25,20.69-1,2.51,2.67,3.56,4,1.72Z" transform="translate(-309.11 -99.97)"/><path class="cls-6" d="M390.33,378.8a42.57,42.57,0,0,1-8-23.47c-.25-6,2.94-13.12-.33-18.5a2.66,2.66,0,0,0-3.6-.93c-7.08,3.73-6.12,15.13-5.37,21.88a39.86,39.86,0,0,0,12.58,24.67c2.39,2.26,6.75-.77,4.72-3.65Z" transform="translate(-309.11 -99.97)"/><path class="cls-6" d="M365,351.32c-12.68,1.31-9.73,21.77-7.73,30.21,1.39,5.88,10.63,32.68,19.92,20,1.53-2.11,0-6-2.6-6.38-5.55-.83-8.28-11.87-9.69-16.74-2.19-7.55-3.05-18.3,1.11-25.28a1.17,1.17,0,0,0-1-1.76Z" transform="translate(-309.11 -99.97)"/><path class="cls-6" d="M416.82,357.35a1.91,1.91,0,0,0,0-3.81,1.91,1.91,0,0,0,0,3.81Z" transform="translate(-309.11 -99.97)"/><path class="cls-6" d="M393.64,359.69c3.3,0,3.3-5.12,0-5.12s-3.31,5.12,0,5.12Z" transform="translate(-309.11 -99.97)"/><path class="cls-6" d="M368.76,373.9c3.16,0,3.16-4.87,0-4.87s-3.14,4.87,0,4.87Z" transform="translate(-309.11 -99.97)"/><path class="cls-6" d="M356.54,394a1.06,1.06,0,0,0,0-2.11,1.06,1.06,0,0,0,0,2.11Z" transform="translate(-309.11 -99.97)"/><path class="cls-6" d="M439.59,366a1.69,1.69,0,0,0,0-3.38,1.69,1.69,0,0,0,0,3.38Z" transform="translate(-309.11 -99.97)"/><path class="cls-6" d="M418.09,363.73a1.13,1.13,0,0,0,0-2.25,1.13,1.13,0,0,0,0,2.25Z" transform="translate(-309.11 -99.97)"/><path class="cls-6" d="M417.67,369.94a1,1,0,0,0,0-2,1,1,0,0,0,0,2Z" transform="translate(-309.11 -99.97)"/><path class="cls-6" d="M416.4,375a1,1,0,0,0,0-1.94,1,1,0,0,0,0,1.94Z" transform="translate(-309.11 -99.97)"/><path class="cls-6" d="M412.62,350.62c.53,1.57,2.94,1.11,2.47-.57s-3-.87-2.47.57Z" transform="translate(-309.11 -99.97)"/><path class="cls-6" d="M410.28,346.12l.4.07a.88.88,0,1,0,0-1.72l-.4.07a.82.82,0,0,0,0,1.58Z" transform="translate(-309.11 -99.97)"/><path class="cls-6" d="M395.32,365.21a1.76,1.76,0,0,0,0-3.52,1.76,1.76,0,0,0,0,3.52Z" transform="translate(-309.11 -99.97)"/><path class="cls-6" d="M396.59,370.48a1.55,1.55,0,0,0,0-3.1,1.55,1.55,0,0,0,0,3.1Z" transform="translate(-309.11 -99.97)"/><path class="cls-6" d="M397,375.68a.85.85,0,0,0,0-1.69.85.85,0,0,0,0,1.69Z" transform="translate(-309.11 -99.97)"/><path class="cls-6" d="M392.37,350.34H392a.89.89,0,0,0,0,1.78h.41a.89.89,0,0,0,0-1.78Z" transform="translate(-309.11 -99.97)"/><path class="cls-6" d="M390.27,347.64a1,1,0,0,0,0-2.08,1,1,0,0,0,0,2.08Z" transform="translate(-309.11 -99.97)"/><path class="cls-6" d="M388.42,343.05c.06-.08.12-.14.19-.22a.67.67,0,0,0,0-.9l-.19-.23c-.56-.68-1.65-.1-1.65.69s1.09,1.35,1.65.66Z" transform="translate(-309.11 -99.97)"/><path class="cls-6" d="M371.3,380.87a1.81,1.81,0,0,0,0-3.62,1.81,1.81,0,0,0,0,3.62Z" transform="translate(-309.11 -99.97)"/><path class="cls-6" d="M373.4,384.26a1.41,1.41,0,0,0,0-2.82,1.41,1.41,0,0,0,0,2.82Z" transform="translate(-309.11 -99.97)"/><path class="cls-6" d="M376.78,388.3a1.25,1.25,0,0,0,0-2.49,1.25,1.25,0,0,0,0,2.49Z" transform="translate(-309.11 -99.97)"/><path class="cls-6" d="M380.57,391.25a1.25,1.25,0,0,0,0-2.49,1.25,1.25,0,0,0,0,2.49Z" transform="translate(-309.11 -99.97)"/><path class="cls-6" d="M367.92,366.08a1.37,1.37,0,0,0,0-2.73,1.37,1.37,0,0,0,0,2.73Z" transform="translate(-309.11 -99.97)"/><path class="cls-6" d="M367.92,360a1.2,1.2,0,0,0,0-2.4,1.2,1.2,0,0,0,0,2.4Z" transform="translate(-309.11 -99.97)"/><path class="cls-6" d="M368.35,354.6a.84.84,0,0,0,0-1.68.84.84,0,0,0,0,1.68Z" transform="translate(-309.11 -99.97)"/><path class="cls-6" d="M358.65,401.61a1.06,1.06,0,0,0,0-2.12,1.06,1.06,0,0,0,0,2.12Z" transform="translate(-309.11 -99.97)"/><path class="cls-6" d="M362.44,406.71a1.1,1.1,0,0,0,0-2.2,1.1,1.1,0,0,0,0,2.2Z" transform="translate(-309.11 -99.97)"/><path class="cls-6" d="M366.23,409.19a1.05,1.05,0,0,0,0-2.1,1.05,1.05,0,0,0,0,2.1Z" transform="translate(-309.11 -99.97)"/><path class="cls-6" d="M371.94,410.46c.07-.06.12-.15.19-.21a.63.63,0,0,0,0-.85,2.33,2.33,0,0,1-.19-.23c-1.77-2.17-1.77,3.48,0,1.29Z" transform="translate(-309.11 -99.97)"/><path class="cls-6" d="M353.59,387.72l.42-.05a.19.19,0,0,0,0-.38l-.42-.05c-.3,0-.3.51,0,.48Z" transform="translate(-309.11 -99.97)"/><path class="cls-6" d="M354,388.77a1.29,1.29,0,0,0,0-2.57,1.29,1.29,0,0,0,0,2.57Z" transform="translate(-309.11 -99.97)"/><path class="cls-6" d="M352.87,382.12a1.39,1.39,0,0,0,.21-.21.48.48,0,0,0,0-.67l-.21-.21c-1.55-1.61-1.55,2.72,0,1.09Z" transform="translate(-309.11 -99.97)"/><path class="cls-6" d="M352.74,377.46a.94.94,0,0,0,0-1.88.94.94,0,0,0,0,1.88Z" transform="translate(-309.11 -99.97)"/><path class="cls-6" d="M439.17,371.61a1,1,0,0,0,0-2,1,1,0,0,0,0,2Z" transform="translate(-309.11 -99.97)"/><path class="cls-6" d="M437.48,376.61a.94.94,0,0,0,0-1.87.94.94,0,0,0,0,1.87Z" transform="translate(-309.11 -99.97)"/><path class="cls-6" d="M434.53,382.45a1.29,1.29,0,0,0,0-2.58,1.29,1.29,0,0,0,0,2.58Z" transform="translate(-309.11 -99.97)"/><path class="cls-6" d="M431.58,384.88a.35.35,0,0,0,0-.7.35.35,0,0,0,0,.7Z" transform="translate(-309.11 -99.97)"/><path class="cls-6" d="M437.9,358a.85.85,0,0,0,0-1.69.85.85,0,0,0,0,1.69Z" transform="translate(-309.11 -99.97)"/><path class="cls-6" d="M435.79,353a.9.9,0,0,0,0-1.8.9.9,0,0,0,0,1.8Z" transform="translate(-309.11 -99.97)"/><path class="cls-6" d="M433.68,348.5a1.06,1.06,0,0,0,0-2.12,1.06,1.06,0,0,0,0,2.12Z" transform="translate(-309.11 -99.97)"/><path class="cls-6" d="M431.33,342.61l-.22-.19a.54.54,0,0,0-.76,0c-.08.06-.14.13-.21.19-1.77,1.7,3,1.7,1.19,0Z" transform="translate(-309.11 -99.97)"/><path class="cls-6" d="M427.36,340.05a1.05,1.05,0,0,0,0-2.1,1.05,1.05,0,0,0,0,2.1Z" transform="translate(-309.11 -99.97)"/><path class="cls-1" d="M503.09,226.05a13.81,13.81,0,0,0-10.31-4.62,28.27,28.27,0,0,0-11.29,2.5A42.66,42.66,0,0,0,466.1,234.2a27.85,27.85,0,0,0-7.58,16.65c-6.09-3.64-15.24-5.68-20.94-1.44-2.5,1.86-4,4.76-5.2,7.62-8.88,20.44-9.94,43.32-10.77,65.61-.21,5.4-.42,10.91-2.33,16-1.14,3-2.87,5.87-3.11,9.09a2.57,2.57,0,0,0,.37,1.74c.76,1,2.29.55,3.42.07q14.88-6.57,29.76-13.08c19.36-8.5,39.83-17.92,51.23-35.71,4.07-6.34,6.76-13.45,9.08-20.61,2.86-8.84,5.24-18,4.88-27.28S509,233.27,503.09,226.05Z" transform="translate(-309.11 -99.97)"/><g class="cls-9"><path class="cls-8" d="M414,354.26c8.5-4.29,12.38-12.36,14.78-21.33,3.19-11.86,5.3-23.73,9.19-35.42s7.65-23.75,9.55-36.06c1.68-10.86-7.15-17.79-10.76-27.25a1.27,1.27,0,0,0-2.48.34c-1.18,10.29,10.06,15.64,9.44,26.38-.66,11.19-4.55,23-8.1,33.58a289.07,289.07,0,0,0-8.32,31.6c-1,4.4-1.85,9-3.67,13.17a36.16,36.16,0,0,1-6.5,10.06c-3,3.36-2.54,1.31-3.91,4.14a.58.58,0,0,0,.78.79Z" transform="translate(-309.11 -99.97)"/><path class="cls-8" d="M420.87,354.78c6.7-1.86,10.19-8.51,13-14.3A164.75,164.75,0,0,0,443.73,314c3.92-13.47,7.76-26.87,11.54-40.37,3.89-13.94,3.15-30.79,1-45-.27-1.78-2.67-1.08-2.86.39-1.93,14.61,1.95,28.94-1.79,43.57-3,11.83-6,23.57-9.86,35.18-2.66,8-5.06,16-8,23.94-2.5,6.64-5.6,19.49-13,22.68-.19.08-.05.38.14.33Z" transform="translate(-309.11 -99.97)"/><path class="cls-8" d="M435.76,352.59c.92-4.84,4.67-7.61,7.28-11.44,3.07-4.5,5.41-9.46,8.09-14.19,5.65-10,8.92-21.91,12.81-32.68,4.53-12.5,6.13-25.9,7.84-39,.91-6.94,1.66-13.89,2-20.9.29-6,2.35-13.21.48-19a1.85,1.85,0,0,0-3.56,1c1.23,5.58-.51,12.38-.8,18-.35,7-1.06,14-2,20.9-1.77,13.65-3.76,27.19-8.45,40.18-4.17,11.56-7.24,23.55-13,34.46a82.08,82.08,0,0,1-8.59,13.66,19.21,19.21,0,0,0-4.3,8.43c-.25,1.42,1.89,2,2.17.6Z" transform="translate(-309.11 -99.97)"/><path class="cls-8" d="M446.85,344.73c8.46-9.08,16.65-17.8,21.79-29.28,4.68-10.45,7.74-22,10.88-33a255.37,255.37,0,0,0,7-34.23c1.63-11.65,1.23-24.45,6-35.36.48-1.13-.31-2.68-1.72-2.24-6.38,2-5.2,13.7-5.91,18.84-1.84,13.42-3.87,26.69-6.35,40-2.17,11.66-6.18,22.86-9.56,34.19-4.58,15.31-12.82,27.88-23.33,39.82-.75.85.48,2.08,1.26,1.25Z" transform="translate(-309.11 -99.97)"/><path class="cls-8" d="M465.94,335.29c7.7-4.5,9.75-13.11,13.59-20.62,4.56-8.87,7.37-18.76,10.24-28.24,3.61-12,7.28-24.41,8.9-36.82.75-5.78,1.16-11.58,1.51-17.4.38-6.56,3.13-13.44,1.67-20a1.15,1.15,0,0,0-2.2,0c-2.6,9.83-3,19.78-3.84,29.86-1.06,12.88-4.54,25.6-7.9,38a260,260,0,0,1-8.86,27.29c-3.14,8-7,21-14,26.29-.9.7-.12,2.17.91,1.56Z" transform="translate(-309.11 -99.97)"/><path class="cls-8" d="M477.94,329.54c7.08-5.22,11.3-14.63,15.41-22.13,5-9.05,8.77-18.38,13-27.82,3.39-7.66,3.67-15.85,4.46-24.08.92-9.72,4.17-20.33-1.89-29-.45-.63-1.68-.48-1.61.45a137.2,137.2,0,0,1-.74,26.49c-1,9.12-1.19,17.64-4.93,26.17-3.46,7.93-6.5,15.95-10.67,23.55s-7.43,19.29-14.06,25c-.76.65.26,2,1.06,1.39Z" transform="translate(-309.11 -99.97)"/></g><path class="cls-3" d="M500.27,257.27a6.54,6.54,0,0,0,4,.77c8.41-.28,19.5-1.14,27.62-3.36,7.49-2,14-4.86,17.77-11.61,2-3.47,1.08-9.52-2-12.12-2.21-1.89-4.57-2.59-7.26-3.7-6.73-2.74-9.87-10.45-10.11-17.71s.58-15-3.1-21.27c-2.87-4.9-8.11-8-13.56-9.48s-11.19-1.53-16.85-1.58c-2.38,0-5.11.11-6.57,2s-1,4.4-.47,6.64c3.24,13.79,7.64,27.7,6.45,41.82-.34,4-1.11,7.92-1.09,11.9a40.44,40.44,0,0,0,3.12,14.56A6.46,6.46,0,0,0,500.27,257.27Z" transform="translate(-309.11 -99.97)"/><path class="cls-1" d="M527.81,157.38a8,8,0,0,1-1,4.1c-1.3,2-3.9,2.65-6.23,3.13-29.56,5.83-60.18,9-89.75,3.31-2-.39-4.24-1-5.34-2.68a7.6,7.6,0,0,1-.89-3.94c-.2-5.22,0-10.64,2.29-15.33,2-4.11,5.26-9.29,8.6-12.41,8-7.4,14.65-11,25.2-13.65,11.64-2.9,27.37-1.87,38.62,2.32a52.6,52.6,0,0,1,19.12,12.06A31.37,31.37,0,0,1,527.81,157.38Z" transform="translate(-309.11 -99.97)"/><path class="cls-10" d="M547.5,309.58l2.37.59A22.17,22.17,0,0,0,547.5,309.58Z" transform="translate(-309.11 -99.97)"/><g class="cls-11"><path class="cls-8" d="M492.1,171.89c8.71,18.85,10.06,43.21,9.76,63.71-.19,13.6-4.41,33.52,9.17,42.57.85.56,1.68-.5,1.29-1.3-4-8.15-7-14.48-7.06-23.82-.11-9.83.9-19.57.32-29.42-1-17.67-3.84-36.78-11.62-52.83-.61-1.27-2.44-.16-1.86,1.09Z" transform="translate(-309.11 -99.97)"/><path class="cls-8" d="M501.36,172.47c10.25,16.5,5.49,39.9,7.42,58.43,1.6,15.33,1.11,32.6,16.75,40.93a.91.91,0,0,0,1.24-1.24c-5-8.67-10.49-15.34-11.81-25.71-1.18-9.23-2.16-18.75-2.71-28.06-.95-16.18-.61-30.95-9.91-44.93-.4-.6-1.37,0-1,.58Z" transform="translate(-309.11 -99.97)"/><path class="cls-8" d="M508.17,171.75c6.52,5.2,6.85,22.4,7.36,29.46.8,11.11.09,22,2.73,32.87,3,12.46,6.7,26.17,17.25,34.39.64.49,1.79-.16,1.24-1-9.45-13.68-16.37-31.68-16.68-48.36-.19-11.07-1-22.65-3.18-33.49-1.1-5.35-2.36-12.53-7.67-15.27-.83-.44-1.86.72-1.05,1.36Z" transform="translate(-309.11 -99.97)"/><path class="cls-8" d="M523.29,167.92c.4,6.05-5.73,9.5-4,16.17,2.8,10.94,3.68,22.1,5.29,33.3,1.57,11,4,22.08,8.06,32.43,3,7.68,8.06,17.85,16.07,21.26.63.28,1.54-.32,1-1-2.6-3.88-6-7-8.73-10.86-3.11-4.47-5-9.72-6.76-14.82-3.53-10.49-5.47-21.61-6.93-32.55C526.15,203,526,193,522.66,184.63c-2.54-6.42,3.77-10.93,2.09-16.91-.23-.8-1.53-.67-1.46.2Z" transform="translate(-309.11 -99.97)"/><path class="cls-8" d="M532,178.29c-5.61,16.77-.69,37.43,5.19,53.48,3.83,10.45,11.48,34,26.46,31.08a1.07,1.07,0,0,0,.46-1.78c-5-4.06-10-5.25-13.56-11.41-3.87-6.69-7-14.5-9.7-21.69-5.43-14.3-11.23-34-7.41-49.29a.75.75,0,0,0-1.44-.39Z" transform="translate(-309.11 -99.97)"/></g><path class="cls-6" d="M522.79,186.9c7.62-5.29,12.13-14.27,13.5-23.45s-.1-18.54-2.51-27.51c-10.31,7.34-19.26,19.09-26.68,29.32-1.93-10.19-7.63-23.92-12.6-33-9.18,9.71-15.58,21.74-23.71,32.34-2.9-6.93-5.79-13.86-8.85-20.73a44.33,44.33,0,0,0-8.16-12.29C446.36,141.6,438.44,153.76,435,166c-3-9.13-5.13-11-13.11-21-1.86-2.35-5.72-5.43-7.92-7.47-2.28,8.89-4.58,17.94-4.16,27.12s4,18.63,11.39,24c3.32,2.44,8.13,2.35,12.2,1.69a257.05,257.05,0,0,1,71.43-1.58c7.25.87,15.91,1.52,20.51-4.16Z" transform="translate(-309.11 -99.97)"/><path class="cls-12" d="M415.85,161.9c5.95,5.45,12,10,16.56,16.66-5.23.12-9.37,0-14.6.13C416,175.48,415.55,161.62,415.85,161.9Z" transform="translate(-309.11 -99.97)"/><path class="cls-12" d="M453.23,159c.25-.12.51.13.66.37a122.24,122.24,0,0,1,10.37,19l-19.52-.7c-.32-1.42.36-2.86,1-4.16L453,159.29A.54.54,0,0,1,453.23,159Z" transform="translate(-309.11 -99.97)"/><path class="cls-12" d="M499.54,179.25c-6-.57-13.85-1.11-19.87-1.11a147.13,147.13,0,0,1,12.17-19.75C495.86,164.1,498.5,172.35,499.54,179.25Z" transform="translate(-309.11 -99.97)"/><path class="cls-12" d="M510.87,179.82c2.33-2.94,4.19-4.83,6.72-7.57,3.5-3.78,7.42-6.57,11.18-9.93a36.1,36.1,0,0,1-3.55,15.62,3.63,3.63,0,0,1-1,1.41,4.13,4.13,0,0,1-2.9.6C518.24,179.85,514,179.92,510.87,179.82Z" transform="translate(-309.11 -99.97)"/><path class="cls-13" d="M566.49,278.88c2.24-12.3,3.71-26,6-38.27.6-3.26,5.14-33.41,6.09-38.47,1,0,4.56.6,5.54.6-1.5-3.53-1.61-5.69-2.59-10,2.19,1.53,4.94,3.42,9.37,1.14,2.35-1.22,2.16-4.86,1.91-6.93-1.7-14.66-4.75-25.22-6.56-37.55a185.43,185.43,0,0,1-18.79,29.09,19.45,19.45,0,0,0-3.67,6c-.7,2.25-.48,5.13,1.45,6.49,3.61,2.54,6.29,1.46,8.87,1-1.5,2.94-4.23,5.74-5.57,8.74,2.08,0,3.7.84,5.78.87-1.49,10.83-3.66,19.84-5.38,30.39-2.73,16.72-5.66,35.5-8.29,52.24-1,6.66-7.35,40.13-7.56,40.93a41.7,41.7,0,0,0,5.45,1.13C559.72,322.54,565.37,285,566.49,278.88Z" transform="translate(-309.11 -99.97)"/><path class="cls-1" d="M443.84,228.82c4.08-1.45,8.65,0,12.31,2.33,6.65,4.19,11.4,11,14.17,18.29s3.69,15.27,3.84,23.13c.08,3.7,0,7.53-1.56,10.9-3,1-6.18-.73-8.78-2.52-10.23-7.06-19.17-17.76-19.36-30.19.71,14.81-8.78,29.6-22.56,35.11,1.19-7.53,5.71-14.25,6.65-21.82,1.23-10-3.85-20.64.11-29.9a5,5,0,0,1,1.47-2.14c1.86-1.38,4.49-.23,6.81-.4C439.43,231.43,441.48,229.65,443.84,228.82Z" transform="translate(-309.11 -99.97)"/><path class="cls-3" d="M443.84,228.82c4.08-1.45,8.65,0,12.31,2.33,6.65,4.19,11.4,11,14.17,18.29s3.69,15.27,3.84,23.13c.08,3.7,0,7.53-1.56,10.9-3,1-6.18-.73-8.78-2.52-10.23-7.06-19.17-17.76-19.36-30.19.71,14.81-8.78,29.6-22.56,35.11,1.19-7.53,5.71-14.25,6.65-21.82,1.23-10-3.85-20.64.11-29.9a5,5,0,0,1,1.47-2.14c1.86-1.38,4.49-.23,6.81-.4C439.43,231.43,441.48,229.65,443.84,228.82Z" transform="translate(-309.11 -99.97)"/><g class="cls-14"><path class="cls-8" d="M433.78,226.8c-5.89,2.51-4.31,11.44-4.26,16.53.08,8,.55,16-.65,24-1,6.7-4.67,12.42-6.08,18.86a.79.79,0,0,0,1.31.77c6.7-6.13,8.18-16.71,9-25.35.57-6,.14-12.2,0-18.25-.06-4.29-1.26-11.58,1.77-15.07a.94.94,0,0,0-1.14-1.46Z" transform="translate(-309.11 -99.97)"/><path class="cls-8" d="M439.44,224.89c-5.24,8.62-1.26,16.5-1.44,26a111.07,111.07,0,0,1-1.2,16.59c-1,5.89-4.36,10.81-5.53,16.54a.92.92,0,0,0,1.35,1c7.54-4.65,8.33-16.66,8.82-24.69a112.6,112.6,0,0,0-.09-16.22c-.57-6.47-2.94-12.18-.44-18.65.34-.88-1-1.37-1.47-.62Z" transform="translate(-309.11 -99.97)"/><path class="cls-8" d="M440.74,226c1.82,2,2.31,5.82,3.24,8.25,1.39,3.63,2.77,7.25,4,10.92,2.58,7.45,2.58,15.48,4.86,23,1.67,5.52,5,10.32,8.7,14.63,3.39,3.9,7.05,8.89,12.34,9.82,1.49.26,2.83-1.5,1.57-2.71-10.64-10.09-18.6-18.74-21.05-33.79-1.55-9.52-5.14-24.36-12.82-31a.63.63,0,0,0-.88.9Z" transform="translate(-309.11 -99.97)"/><path class="cls-8" d="M448.59,224.19c5.16,4.12,7.31,12.13,9.27,18.11,2.44,7.49,4.24,15.1,7,22.47s10,24.43,20.07,22.5a1.16,1.16,0,0,0,.5-1.91c-4.06-4.95-8.74-8.72-12.19-14.33-4.06-6.6-6.48-14.2-8.76-21.54-2.91-9.41-5.45-21.65-14.93-26.58-.76-.39-1.72.67-1,1.28Z" transform="translate(-309.11 -99.97)"/></g><path class="cls-1" d="M470.57,205.76a5.38,5.38,0,1,0-5.39-5.38,5.42,5.42,0,0,0,5.39,5.38Z" transform="translate(-309.11 -99.97)"/><path class="cls-1" d="M430.42,232.29c3.82-1.53,8.29.65,12.08-1.35a8.14,8.14,0,0,0,4.56-6.62c.18-2-.19-4.93-2.13-6s-5.35-.62-5.48,2a.91.91,0,0,0,.66.84c1.31.54,2.83-.94,3.92.07s.57,3.46.14,4.7c-1,2.93-4.31,3.5-7,3.57-2.9.06-4.74.18-7.19,1.79-.51.34-.19,1.31.44,1.06Z" transform="translate(-309.11 -99.97)"/><path class="cls-8" d="M435.86,138.66a1.26,1.26,0,0,0,0-2.51,1.26,1.26,0,0,0,0,2.51Z" transform="translate(-309.11 -99.97)"/><path class="cls-12" d="M441.86,135.84a1.34,1.34,0,0,0-.46.79,1.27,1.27,0,0,0,1.53,1.53l.11,0-1-.13.13.08a1.42,1.42,0,1,0-.29-2.24Z" transform="translate(-309.11 -99.97)"/><path class="cls-12" d="M464.13,137.82a1.25,1.25,0,0,0,0-2.5,1.25,1.25,0,0,0,0,2.5Z" transform="translate(-309.11 -99.97)"/><path class="cls-12" d="M472.81,137.9a1.62,1.62,0,0,0,0-3.23,1.62,1.62,0,0,0,0,3.23Z" transform="translate(-309.11 -99.97)"/><path class="cls-12" d="M482.33,138.26a2,2,0,0,0,0-3.93,2,2,0,0,0,0,3.93Z" transform="translate(-309.11 -99.97)"/><path class="cls-12" d="M504.71,137.9a1.62,1.62,0,0,0,0-3.23,1.62,1.62,0,0,0,0,3.23Z" transform="translate(-309.11 -99.97)"/><path class="cls-12" d="M512.55,137.28a1.84,1.84,0,0,0,0-3.67,1.84,1.84,0,0,0,0,3.67Z" transform="translate(-309.11 -99.97)"/><path class="cls-8" d="M463.58,346.56l-.13.15q10.71-3.18,21.45-6.4l-.22-.11,4.38,2.35a1.19,1.19,0,0,1-.22-.12l-4.39-2.36A18.6,18.6,0,1,0,476.2,376a4.17,4.17,0,0,0,.5,0l4.78-.18A18.43,18.43,0,0,0,490,372l3.3-3.48a18.66,18.66,0,0,0,3.46-9.19c0-.07,0-.12.05-.18a18.43,18.43,0,0,0-21.45-19.85l-4.5,1.37a18.46,18.46,0,0,0-7.3,5.94Z" transform="translate(-309.11 -99.97)"/><path class="cls-8" d="M486.85,337.67A3.4,3.4,0,0,0,489,332a3.67,3.67,0,0,0-3.34-1.26,3.53,3.53,0,0,0-2.15,5.71,3.68,3.68,0,0,0,3.33,1.25Z" transform="translate(-309.11 -99.97)"/><path class="cls-8" d="M452.85,352.4c4.3,1.61,6.82-5.07,2.5-6.69s-6.82,5.06-2.5,6.69Z" transform="translate(-309.11 -99.97)"/><path class="cls-8" d="M500.4,367.14a3.37,3.37,0,1,0-2-4.32,3.4,3.4,0,0,0,2,4.32Z" transform="translate(-309.11 -99.97)"/><path class="cls-8" d="M473.13,382.6a4.6,4.6,0,0,0-1-2.45,10.12,10.12,0,0,0-1-.91,4.31,4.31,0,0,0-3.1-.7l2.82.66-.09-.05a3.85,3.85,0,0,0-3.67-.37,3.8,3.8,0,0,0-2.12,4s0,.07,0,.1l.66-2.82a4,4,0,0,0-.4,4.19,5.36,5.36,0,0,0,1.8,2.15,3.83,3.83,0,0,0,3.85.39,3.89,3.89,0,0,0,2.21-4.15Z" transform="translate(-309.11 -99.97)"/><path class="cls-1" d="M472.47,362.08a8.52,8.52,0,0,0,3.65,2.64,8.57,8.57,0,1,0-2.38-14.67c-3.44,2.79-4.41,8.61-1.27,12Z" transform="translate(-309.11 -99.97)"/><path class="cls-1" d="M482,347.23c3.92,1.48,6.21-4.62,2.29-6.1s-6.22,4.61-2.29,6.1Z" transform="translate(-309.11 -99.97)"/><path class="cls-1" d="M465,355.43a2.72,2.72,0,1,0-1.58-3.51,2.76,2.76,0,0,0,1.58,3.51Z" transform="translate(-309.11 -99.97)"/><path class="cls-1" d="M473.54,372.4c3.82,1.44,6-4.46,2.24-5.91s-6,4.48-2.24,5.91Z" transform="translate(-309.11 -99.97)"/><path class="cls-1" d="M489.55,364.06a2.92,2.92,0,1,0-1.7-3.77,3,3,0,0,0,1.7,3.77Z" transform="translate(-309.11 -99.97)"/><path class="cls-1" d="M461.33,190.52c2.86,1.66,6.37,1,9.57.84,3.64-.14,8.1.38,11.38-1.28a1,1,0,0,0,0-1.77c-3-1.46-6.55-.68-9.83-.48-3.51.21-8.05-.17-11.12,1.71a.57.57,0,0,0,0,1Z" transform="translate(-309.11 -99.97)"/><path class="cls-3" d="M545.89,418a159.89,159.89,0,0,1-4-23.59,191.76,191.76,0,0,1,0-22.49q.44-10.41.85-20.87.35-8.43.68-16.89c0-1.39.17-2.93,1.14-3.93a5.28,5.28,0,0,1,2.5-1.24c3.5-.91,18.25-20.71,21.79-20,5.68,32.76-1.6,62.79,1.88,86.31,9.28-4.23,17.71-9.28,24-16-1.25,9.29-1.88,19.32-3.12,28.63a81.59,81.59,0,0,1-3.17,12.93c-2.63,8.68-5.25,17.33-7.89,26-.93,3.1-2.24,6.6-5.28,7.73a10.38,10.38,0,0,1-3.47.44c-5.82.11-12.44-.13-16.2-4.57-1.8-2.1-2.63-4.84-3.38-7.51Q548.78,430.56,545.89,418Z" transform="translate(-309.11 -99.97)"/><path class="cls-7" d="M561.22,303.53c-20.79-7.24-26.66-3.78-25.73.11.62,2.48,4.87,3.48,7.35,4.1,2.32.57.94.57,3.25,1.15a84.14,84.14,0,0,0-10.38.72,3.94,3.94,0,0,0-3.36,3.9c-.11,4.61,9.92,5.09,11.34,6.39a30.82,30.82,0,0,0-8.51.64,3.53,3.53,0,0,0-2,4,4.3,4.3,0,0,0,3.2,3.12c2.8.81,6.21,1.2,9.08,1.74-1.85.35-4.19.21-6,.56a9.85,9.85,0,0,0-3.67,1.15c-1,.71-1.15,2.48-.84,3.69.39,1.55,2.17,2.22,3.71,2.66,3.35,1,19.55,3.67,22.32,1.84,4.62-3,5-6.31,7.45-12.7,1.65-4.29,2.54-13.49.52-17.63C567.3,305.75,563.87,304.46,561.22,303.53Z" transform="translate(-309.11 -99.97)"/><path class="cls-1" d="M562.54,307.75a2.44,2.44,0,0,0-1.61,3,1.3,1.3,0,0,0,2.54-.35,1.8,1.8,0,0,1,.15-1.24c.51-.65-.33-1.69-1.08-1.4Z" transform="translate(-309.11 -99.97)"/><path class="cls-1" d="M560.26,316.57a4.79,4.79,0,0,0-.35,3.31,1.25,1.25,0,0,0,2.39,0,4.74,4.74,0,0,0-.34-3.31,1,1,0,0,0-1.7,0Z" transform="translate(-309.11 -99.97)"/><path class="cls-1" d="M559.24,325.84c-.8,1-1.76,2.77-.73,3.91a.86.86,0,0,0,1.23,0c.59-.72.41-1.66,1-2.41.84-1.06-.65-2.58-1.5-1.5Z" transform="translate(-309.11 -99.97)"/><path class="cls-1" d="M556.61,334.67a13.76,13.76,0,0,0-.47,1.7c-.24,1.25,1.52,2.2,2.18.91a6.14,6.14,0,0,0,.61-2.3c.15-1.37-1.95-1.53-2.32-.31Z" transform="translate(-309.11 -99.97)"/><path class="cls-6" d="M479.93,614.74a2.6,2.6,0,0,1-2.82-.08,6.42,6.42,0,0,1-1.95-2.22A31,31,0,0,1,470.78,600a26.43,26.43,0,0,1,15.39-1.58A85.81,85.81,0,0,1,481,613.14,3.88,3.88,0,0,1,479.93,614.74Z" transform="translate(-309.11 -99.97)"/><path class="cls-7" d="M462,477.25c-12.18,16.06-15.14,37.35-14.17,57.48.17,3.83.55,7.84,2.7,11,2.42,3.59,6.64,5.44,10.75,6.78a82.75,82.75,0,0,0,66.27-6.83c1.71-1,3.55-2.3,3.7-4.26.15-1.77-1.19-3.31-2.47-4.56a94.32,94.32,0,0,0-11.24-9.39c12.47-13.65,25-29,27.08-47.32a71.65,71.65,0,0,0-21.19,10.24,105.53,105.53,0,0,0,3.44-21.64c.19-3.54.14-7.3-1.67-10.35-3.19-5.35-10.33-6.45-16.54-7-5.65-.49-11.48-.94-16.86.87-4.67,1.56-8.62,4.74-12.41,7.89C473.08,465.41,466.87,470.78,462,477.25Z" transform="translate(-309.11 -99.97)"/><path class="cls-4" d="M472.24,515.66a36,36,0,0,1,4.62-3.45c3.64-2.09,8.08-2.17,12.26-1.78,3.69.33,8,3,10.83,5.38,3.28,2.77,5.59,5.17,6.58,7.55-9.68,7.45-25,11-36.13,5.9-1.73-.78-4.6-2.39-6-3.24C466.29,521.39,468.58,519.07,472.24,515.66Z" transform="translate(-309.11 -99.97)"/><path class="cls-1" d="M452.45,495.59a13.83,13.83,0,0,0,10.31,4.62,27.74,27.74,0,0,0,11.29-2.5,42.73,42.73,0,0,0,15.4-10.25A27.91,27.91,0,0,0,497,470.79c6.1,3.64,15.26,5.69,21,1.45,2.5-1.86,4-4.76,5.21-7.61,8.88-20.47,9.94-43.34,10.77-65.63.19-5.4.41-10.91,2.32-16,1.13-3,2.88-5.87,3.11-9.07a2.53,2.53,0,0,0-.37-1.75c-.76-1-2.28-.55-3.42-.06q-14.88,6.52-29.76,13.08C486.46,393.73,466,403.16,454.59,421c-4.06,6.32-6.75,13.45-9.08,20.59-2.87,8.84-5.23,18-4.87,27.3S446.59,488.39,452.45,495.59Z" transform="translate(-309.11 -99.97)"/><g class="cls-15"><path class="cls-8" d="M541.57,367.38c-8.51,4.29-12.38,12.36-14.78,21.33-3.18,11.87-5.3,23.72-9.18,35.43s-7.67,23.76-9.56,36.07c-1.68,10.86,7.14,17.79,10.76,27.25a1.27,1.27,0,0,0,2.48-.35c1.18-10.29-10.07-15.65-9.43-26.4.66-11.18,4.55-22.95,8.1-33.55a290.83,290.83,0,0,0,8.31-31.6c1-4.42,1.86-9,3.68-13.19a36.65,36.65,0,0,1,6.49-10.06c3-3.36,2.54-1.29,3.91-4.15a.58.58,0,0,0-.78-.78Z" transform="translate(-309.11 -99.97)"/><path class="cls-8" d="M534.68,366.88c-6.7,1.85-10.19,8.49-13,14.3a165.56,165.56,0,0,0-9.82,26.44c-3.93,13.46-7.77,26.86-11.55,40.38-3.88,13.94-3.14,30.76-1,45,.27,1.77,2.67,1.07,2.86-.39C504.11,478,500.22,463.63,504,449c3-11.84,6-23.58,9.86-35.19,2.66-8,5.07-16,8-23.94,2.5-6.65,5.61-19.48,13-22.68.19-.08.06-.37-.13-.32Z" transform="translate(-309.11 -99.97)"/><path class="cls-8" d="M519.78,369.06c-.92,4.83-4.68,7.6-7.28,11.45-3.06,4.5-5.41,9.44-8.08,14.17-5.65,10-8.92,21.93-12.82,32.69-4.53,12.49-6.13,25.89-7.84,39-.9,7-1.65,13.9-2,20.91-.28,6-2.34,13.22-.49,19a1.86,1.86,0,0,0,3.58-1c-1.24-5.58.51-12.38.79-18,.34-7,1.06-13.94,2-20.91,1.76-13.64,3.75-27.16,8.44-40.16,4.17-11.56,7.25-23.54,13-34.45a82.09,82.09,0,0,1,8.59-13.68,19.16,19.16,0,0,0,4.3-8.43c.25-1.4-1.89-2-2.17-.59Z" transform="translate(-309.11 -99.97)"/><path class="cls-8" d="M508.7,376.92c-8.47,9.08-16.66,17.81-21.8,29.27-4.68,10.45-7.73,22-10.87,33a254.31,254.31,0,0,0-7,34.22c-1.64,11.68-1.24,24.48-6,35.39-.48,1.1.31,2.67,1.71,2.21,6.39-2,5.2-13.68,5.91-18.81,1.84-13.44,3.87-26.69,6.35-40.05,2.17-11.66,6.17-22.86,9.57-34.19,4.57-15.3,12.8-27.88,23.31-39.82.75-.85-.46-2.09-1.24-1.24Z" transform="translate(-309.11 -99.97)"/><path class="cls-8" d="M489.6,386.36c-7.69,4.49-9.75,13.11-13.6,20.63-4.55,8.87-7.36,18.73-10.23,28.24-3.61,11.95-7.28,24.41-8.89,36.8-.75,5.79-1.17,11.58-1.51,17.4-.38,6.55-3.14,13.45-1.68,20a1.15,1.15,0,0,0,2.2,0c2.6-9.84,3-19.78,3.85-29.85,1.05-12.9,4.54-25.6,7.89-38.06a265.35,265.35,0,0,1,8.85-27.28c3.16-8,7-21,14-26.3.89-.68.12-2.17-.92-1.55Z" transform="translate(-309.11 -99.97)"/><path class="cls-8" d="M477.59,392.1c-7.07,5.22-11.28,14.64-15.4,22.13-5,9.06-8.77,18.39-13,27.83-3.39,7.65-3.68,15.85-4.46,24.08-.93,9.72-4.17,20.34,1.88,29,.45.64,1.68.49,1.61-.44a137.39,137.39,0,0,1,.74-26.51c1-9.1,1.2-17.63,4.93-26.16,3.46-7.92,6.51-15.94,10.67-23.54s7.43-19.29,14.07-25c.76-.65-.26-2-1.08-1.39Z" transform="translate(-309.11 -99.97)"/></g><path class="cls-3" d="M455.27,464.38a6.68,6.68,0,0,0-4-.78c-8.4.29-19.5,1.16-27.62,3.36-7.48,2-13.95,4.87-17.76,11.63-2,3.47-1.08,9.52,1.95,12.11,2.22,1.89,4.58,2.59,7.27,3.7,6.73,2.72,9.88,10.45,10.11,17.71s-.57,15,3.1,21.28c2.87,4.87,8.11,8,13.57,9.46s11.18,1.55,16.83,1.59c2.38,0,5.12-.13,6.58-2s1-4.4.47-6.65c-3.25-13.79-7.64-27.68-6.45-41.82.33-4,1.12-7.91,1.09-11.9a40.74,40.74,0,0,0-3.11-14.57A6.59,6.59,0,0,0,455.27,464.38Z" transform="translate(-309.11 -99.97)"/><path class="cls-1" d="M427.74,564.26a8,8,0,0,1,1-4.1c1.29-2,3.88-2.66,6.23-3.11,29.56-5.84,60.16-9,89.74-3.31,2,.37,4.23.94,5.35,2.67a7.86,7.86,0,0,1,.89,3.93c.19,5.22,0,10.63-2.29,15.35-2,4.09-5.27,9.29-8.61,12.4-8,7.41-14.64,11-25.19,13.63-11.65,2.91-27.38,1.9-38.62-2.31a52.45,52.45,0,0,1-19.13-12.07A31.35,31.35,0,0,1,427.74,564.26Z" transform="translate(-309.11 -99.97)"/><path class="cls-10" d="M408,412.06l-2.35-.59A19.23,19.23,0,0,0,408,412.06Z" transform="translate(-309.11 -99.97)"/><g class="cls-16"><path class="cls-8" d="M463.45,549.76c-8.73-18.85-10.06-43.21-9.77-63.71.19-13.59,4.4-33.54-9.16-42.57-.86-.57-1.68.51-1.3,1.29,4,8.17,7,14.49,7.06,23.82.11,9.83-.9,19.57-.32,29.42,1,17.67,3.84,36.78,11.61,52.84.61,1.26,2.46.16,1.88-1.09Z" transform="translate(-309.11 -99.97)"/><path class="cls-8" d="M454.19,549.17c-10.25-16.5-5.49-39.88-7.42-58.42-1.61-15.34-1.12-32.61-16.76-40.94a.91.91,0,0,0-1.24,1.24c5,8.67,10.5,15.34,11.82,25.71,1.18,9.24,2.15,18.77,2.7,28.06,1,16.19.62,31,9.91,44.94.41.6,1.38,0,1-.59Z" transform="translate(-309.11 -99.97)"/><path class="cls-8" d="M447.38,549.89c-6.52-5.2-6.86-22.39-7.36-29.46-.8-11.11-.09-22-2.74-32.88-3-12.45-6.7-26.17-17.25-34.37-.64-.5-1.79.16-1.23.95,9.44,13.69,16.36,31.7,16.66,48.38.2,11,1,22.63,3.2,33.49,1.1,5.33,2.34,12.52,7.67,15.26.83.42,1.85-.72,1.05-1.37Z" transform="translate(-309.11 -99.97)"/><path class="cls-8" d="M432.26,553.74c-.41-6.07,5.73-9.51,4-16.18-2.8-10.94-3.67-22.09-5.29-33.31-1.57-11-4-22.08-8.05-32.42-3-7.67-8.06-17.85-16.08-21.27-.63-.26-1.53.34-1.05,1.06,2.61,3.86,6,7,8.73,10.86,3.11,4.46,5,9.7,6.75,14.82,3.54,10.47,5.48,21.6,6.94,32.54,1.17,8.82,1.37,18.85,4.66,27.18,2.54,6.43-3.76,10.93-2.09,16.91.22.8,1.53.66,1.47-.19Z" transform="translate(-309.11 -99.97)"/><path class="cls-8" d="M423.56,543.37c5.6-16.8.69-37.46-5.2-53.48-3.83-10.46-11.48-33.95-26.45-31.08a1.07,1.07,0,0,0-.48,1.77c5,4.05,10,5.25,13.58,11.4,3.86,6.69,7,14.51,9.69,21.69,5.42,14.31,11.23,34,7.41,49.29a.75.75,0,0,0,1.45.41Z" transform="translate(-309.11 -99.97)"/></g><path class="cls-6" d="M432.75,534.76c-7.63,5.26-12.13,14.27-13.5,23.43s.11,18.56,2.51,27.51c10.31-7.34,19.27-19.1,26.69-29.3,1.93,10.17,7.63,23.92,12.59,33,9.18-9.7,15.58-21.73,23.71-32.31,2.9,6.93,5.8,13.86,8.85,20.7a44.37,44.37,0,0,0,8.17,12.32c7.41-10.08,15.33-22.23,18.79-34.47,3,9.14,5.13,11,13.12,21,1.85,2.35,5.71,5.43,7.91,7.47,2.29-8.89,4.58-17.94,4.15-27.1s-4-18.64-11.38-24.07c-3.32-2.43-8.13-2.35-12.2-1.68a256.29,256.29,0,0,1-71.43,1.57c-7.25-.87-15.91-1.52-20.51,4.17Z" transform="translate(-309.11 -99.97)"/><path class="cls-12" d="M539.69,559.75c-6-5.44-12-10-16.56-16.66,5.24-.11,9.36,0,14.6-.13C539.55,546.17,540,560,539.69,559.75Z" transform="translate(-309.11 -99.97)"/><path class="cls-12" d="M502.31,562.66c-.24.11-.51-.15-.66-.38a124.3,124.3,0,0,1-10.37-19q9.78.33,19.53.7c.32,1.42-.36,2.85-1,4.14q-3.63,7.11-7.24,14.23A.64.64,0,0,1,502.31,562.66Z" transform="translate(-309.11 -99.97)"/><path class="cls-12" d="M456,542.39c6,.57,13.86,1.12,19.87,1.12a144.67,144.67,0,0,1-12.17,19.73C459.67,557.54,457.05,549.3,456,542.39Z" transform="translate(-309.11 -99.97)"/><path class="cls-12" d="M444.66,541.83c-2.33,2.92-4.17,4.82-6.71,7.57-3.5,3.77-7.42,6.57-11.17,9.91a36.12,36.12,0,0,1,3.54-15.62,4.17,4.17,0,0,1,1-1.4,4.31,4.31,0,0,1,2.89-.6C437.3,541.8,441.53,541.72,444.66,541.83Z" transform="translate(-309.11 -99.97)"/><path class="cls-13" d="M389.05,442.78c-2.24,12.29-3.71,26-5.95,38.27-.59,3.24-5.14,33.39-6.09,38.45-1,0-4.55-.61-5.54-.61,1.51,3.54,1.6,5.71,2.59,10-2.18-1.53-4.95-3.42-9.37-1.14-2.34,1.21-2.16,4.85-1.91,6.93,1.71,14.65,4.76,25.21,6.56,37.55a184,184,0,0,1,18.79-29.08,19.47,19.47,0,0,0,3.67-6c.69-2.25.47-5.13-1.44-6.49-3.61-2.54-6.3-1.45-8.88-1,1.5-3,4.23-5.74,5.58-8.76-2.09,0-3.7-.83-5.79-.86,1.49-10.81,3.67-19.84,5.39-30.38,2.72-16.73,5.66-35.51,8.28-52.26,1-6.63,7.35-40.12,7.57-40.92a47.89,47.89,0,0,0-5.46-1.13C395.83,399.1,390.17,436.62,389.05,442.78Z" transform="translate(-309.11 -99.97)"/><path class="cls-1" d="M511.7,492.84c-4.08,1.45-8.65,0-12.31-2.35-6.64-4.18-11.39-10.94-14.17-18.28s-3.69-15.28-3.84-23.12c-.08-3.7,0-7.55,1.57-10.93,3-1,6.17.74,8.77,2.53,10.23,7.06,19.18,17.77,19.36,30.2-.7-14.82,8.79-29.6,22.55-35.11-1.18,7.52-5.69,14.25-6.63,21.8-1.24,10,3.85,20.66-.11,29.92a5.14,5.14,0,0,1-1.47,2.12c-1.87,1.41-4.5.23-6.82.41C516.11,490.23,514.05,492,511.7,492.84Z" transform="translate(-309.11 -99.97)"/><path class="cls-3" d="M511.7,492.84c-4.08,1.45-8.65,0-12.31-2.35-6.64-4.18-11.39-10.94-14.17-18.28s-3.69-15.28-3.84-23.12c-.08-3.7,0-7.55,1.57-10.93,3-1,6.17.74,8.77,2.53,10.23,7.06,19.18,17.77,19.36,30.2-.7-14.82,8.79-29.6,22.55-35.11-1.18,7.52-5.69,14.25-6.63,21.8-1.24,10,3.85,20.66-.11,29.92a5.14,5.14,0,0,1-1.47,2.12c-1.87,1.41-4.5.23-6.82.41C516.11,490.23,514.05,492,511.7,492.84Z" transform="translate(-309.11 -99.97)"/><g class="cls-17"><path class="cls-8" d="M521.77,494.86c5.88-2.51,4.3-11.45,4.24-16.55-.08-8-.54-16,.66-24,1-6.69,4.67-12.41,6.09-18.87a.8.8,0,0,0-1.33-.76c-6.69,6.13-8.16,16.71-9,25.35-.57,6-.14,12.22-.05,18.25.06,4.29,1.26,11.58-1.77,15.06a1,1,0,0,0,1.15,1.49Z" transform="translate(-309.11 -99.97)"/><path class="cls-8" d="M516.11,496.75c5.23-8.63,1.25-16.48,1.43-26a112.47,112.47,0,0,1,1.21-16.6c1-5.89,4.36-10.83,5.53-16.55a.94.94,0,0,0-1.36-1c-7.54,4.64-8.33,16.68-8.83,24.68a112.7,112.7,0,0,0,.11,16.23c.55,6.49,2.93,12.18.43,18.65-.33.88,1,1.39,1.48.62Z" transform="translate(-309.11 -99.97)"/><path class="cls-8" d="M514.8,495.69c-1.82-1.94-2.3-5.8-3.23-8.25-1.39-3.62-2.78-7.24-4.05-10.93-2.58-7.43-2.57-15.45-4.86-23-1.66-5.49-5-10.32-8.7-14.61-3.39-3.91-7-8.88-12.34-9.81-1.48-.28-2.83,1.48-1.56,2.69,10.63,10.11,18.59,18.73,21,33.78,1.55,9.53,5.14,24.36,12.81,31a.63.63,0,0,0,.89-.9Z" transform="translate(-309.11 -99.97)"/><path class="cls-8" d="M507,497.47c-5.16-4.13-7.3-12.13-9.26-18.13-2.45-7.47-4.26-15.09-7-22.47s-10-24.41-20.05-22.49c-.93.16-1,1.31-.51,1.91,4.06,4.94,8.73,8.71,12.2,14.33,4.05,6.59,6.48,14.2,8.75,21.54,2.91,9.39,5.46,21.66,14.93,26.58.77.39,1.72-.69,1-1.27Z" transform="translate(-309.11 -99.97)"/></g><path class="cls-1" d="M485,515.88a5.39,5.39,0,1,0,5.38,5.38,5.44,5.44,0,0,0-5.38-5.38Z" transform="translate(-309.11 -99.97)"/><path class="cls-1" d="M525.12,489.36c-3.81,1.52-8.3-.66-12.09,1.34a8.15,8.15,0,0,0-4.55,6.62c-.18,2,.19,4.94,2.14,6.07s5.35.6,5.46-2a.9.9,0,0,0-.64-.87c-1.31-.52-2.83,1-3.92,0s-.57-3.45-.15-4.71c1-2.93,4.31-3.49,7-3.55,2.89-.08,4.75-.18,7.19-1.81.51-.35.19-1.29-.44-1.05Z" transform="translate(-309.11 -99.97)"/><path class="cls-8" d="M519.68,583a1.27,1.27,0,0,0,0,2.53,1.27,1.27,0,0,0,0-2.53Z" transform="translate(-309.11 -99.97)"/><path class="cls-12" d="M513.69,585.81a1.34,1.34,0,0,0,.44-.78,1.25,1.25,0,0,0-1.51-1.53h-.12c.34,0,.68.1,1,.13a.24.24,0,0,1-.11-.06,1.42,1.42,0,1,0,.29,2.23Z" transform="translate(-309.11 -99.97)"/><path class="cls-12" d="M491.41,583.84a1.24,1.24,0,0,0,0,2.48,1.24,1.24,0,0,0,0-2.48Z" transform="translate(-309.11 -99.97)"/><path class="cls-12" d="M482.74,583.74a1.62,1.62,0,0,0,0,3.23,1.62,1.62,0,0,0,0-3.23Z" transform="translate(-309.11 -99.97)"/><path class="cls-12" d="M473.21,583.4c-2.53,0-2.53,3.93,0,3.93a2,2,0,0,0,0-3.93Z" transform="translate(-309.11 -99.97)"/><path class="cls-12" d="M450.82,583.74a1.62,1.62,0,0,0,0,3.23,1.62,1.62,0,0,0,0-3.23Z" transform="translate(-309.11 -99.97)"/><path class="cls-12" d="M443,584.36a1.84,1.84,0,0,0,0,3.67,1.84,1.84,0,0,0,0-3.67Z" transform="translate(-309.11 -99.97)"/><path class="cls-1" d="M494.22,531.12c-2.86-1.66-6.37-1-9.57-.83-3.64.15-8.11-.37-11.39,1.29a1,1,0,0,0,0,1.76c3,1.47,6.56.67,9.83.47,3.51-.19,8,.17,11.13-1.69a.6.6,0,0,0,0-1Z" transform="translate(-309.11 -99.97)"/><path class="cls-3" d="M409.66,303.66a162.57,162.57,0,0,1,4,23.59,191.42,191.42,0,0,1,0,22.47c-.28,7-.57,13.91-.84,20.87-.23,5.65-.46,11.27-.69,16.9-.06,1.4-.16,2.93-1.13,3.94a5.35,5.35,0,0,1-2.5,1.23c-3.51.91-18.26,20.72-21.8,20-5.68-32.77,1.61-62.81-1.89-86.3-9.27,4.22-17.7,9.28-24,16,1.26-9.3,1.88-19.34,3.12-28.64a82.42,82.42,0,0,1,3.17-12.93l7.89-26c.94-3.1,2.24-6.6,5.29-7.71a10.36,10.36,0,0,1,3.47-.46c5.8-.1,12.44.15,16.2,4.57,1.79,2.12,2.61,4.85,3.37,7.51Q406.77,291.12,409.66,303.66Z" transform="translate(-309.11 -99.97)"/><path class="cls-7" d="M394.33,418.13c20.78,7.22,26.66,3.76,25.72-.12-.61-2.48-4.87-3.47-7.35-4.09-2.33-.57-.93-.57-3.26-1.16a83.21,83.21,0,0,0,10.39-.73,3.92,3.92,0,0,0,3.36-3.88c.11-4.62-9.91-5.09-11.33-6.41a31,31,0,0,0,8.49-.62,3.58,3.58,0,0,0,2.06-4.05A4.3,4.3,0,0,0,419.2,394a92.09,92.09,0,0,0-9.08-1.75c1.85-.36,4.2-.23,6-.57a9.78,9.78,0,0,0,3.67-1.14c1-.7,1.15-2.48.84-3.7-.39-1.53-2.16-2.2-3.7-2.64-3.37-1-19.56-3.69-22.32-1.86-4.63,3.05-5,6.31-7.45,12.7-1.66,4.3-2.55,13.5-.53,17.64C388.24,415.89,391.67,417.2,394.33,418.13Z" transform="translate(-309.11 -99.97)"/><path class="cls-1" d="M393,413.9a2.43,2.43,0,0,0,1.6-3,1.29,1.29,0,0,0-2.53.34,1.87,1.87,0,0,1-.16,1.22A1,1,0,0,0,393,413.9Z" transform="translate(-309.11 -99.97)"/><path class="cls-1" d="M395.28,405.08a4.85,4.85,0,0,0,.35-3.33,1.25,1.25,0,0,0-2.39,0,4.85,4.85,0,0,0,.35,3.33,1,1,0,0,0,1.69,0Z" transform="translate(-309.11 -99.97)"/><path class="cls-1" d="M396.31,395.8c.79-1,1.74-2.75.73-3.91a.87.87,0,0,0-1.24,0c-.58.72-.4,1.68-1,2.41-.85,1.06.65,2.58,1.51,1.5Z" transform="translate(-309.11 -99.97)"/><path class="cls-1" d="M398.94,387a17,17,0,0,0,.47-1.69c.23-1.28-1.53-2.21-2.19-.93a6.28,6.28,0,0,0-.61,2.29c-.15,1.37,1.95,1.55,2.33.33Z" transform="translate(-309.11 -99.97)"/><path class="cls-1" d="M605,522.82c0-.86.35-2.08.35-3a23,23,0,0,0-.1-2.61,11.91,11.91,0,0,0-3.6-7.74c2-.12,7-.12,9,0a11.86,11.86,0,0,0-3.6,7.74,23,23,0,0,0-.1,2.61c0,.87.34,2.09.34,3Z" transform="translate(-309.11 -99.97)"/><path class="cls-1" d="M605.7,519.56a9.68,9.68,0,0,0-8.16-4.52,7.47,7.47,0,0,0-7,5.66c-.56,2.81.81,5.69,2.76,7.8s4.62,3.47,7,5a38.71,38.71,0,0,1,5.86,5.59,75,75,0,0,1,5.83-5.49c2.27-1.74,5.09-3.07,7-5.15s3.31-5,2.76-7.8a7.5,7.5,0,0,0-7-5.66,9.68,9.68,0,0,0-8.16,4.52Z" transform="translate(-309.11 -99.97)"/><path class="cls-1" d="M353.83,194.8c0,.87-.35,2.09-.35,2.94a20.64,20.64,0,0,0,.11,2.61,11.9,11.9,0,0,0,3.59,7.76c-2,.11-7,.11-9,0a11.87,11.87,0,0,0,3.6-7.76,20.64,20.64,0,0,0,.11-2.61c0-.85-.35-2.07-.35-2.94Z" transform="translate(-309.11 -99.97)"/><path class="cls-1" d="M353.08,198.07a9.68,9.68,0,0,0,8.17,4.51,7.51,7.51,0,0,0,7.05-5.66c.54-2.8-.82-5.7-2.76-7.79s-4.63-3.47-7-5a39.26,39.26,0,0,1-5.85-5.61,76.85,76.85,0,0,1-5.84,5.51c-2.27,1.74-5.09,3.06-7,5.15s-3.31,5-2.75,7.79a7.49,7.49,0,0,0,7,5.66,9.65,9.65,0,0,0,8.16-4.51Z" transform="translate(-309.11 -99.97)"/><path class="cls-1" d="M374.79,173h-6.57l-14.38-26.51-11,13.71V173h-6V125h6v27.84L364.58,125h6.48l-13,16.78Z" transform="translate(-309.11 -99.97)"/><path class="cls-1" d="M585.13,547h6.57l14.36,26.51,11-13.73V547h6v48h-6V567.12L595.34,595h-6.49l13-16.8Z" transform="translate(-309.11 -99.97)"/><path class="cls-3" d="M433.67,593.47H360.82c-13.83,0-25.08-12-25.08-26.64V230.71a.79.79,0,0,1,1.58,0V566.83c0,13.83,10.53,25.08,23.5,25.08h72.85a.78.78,0,1,1,0,1.56Z" transform="translate(-309.11 -99.97)"/><path class="cls-3" d="M582.76,593.47H531.05a.78.78,0,0,1,0-1.56h51.71a.78.78,0,1,1,0,1.56Z" transform="translate(-309.11 -99.97)"/><path class="cls-3" d="M623.39,491.66a.79.79,0,0,1-.78-.78V153.09c0-13.82-10.55-25.06-23.52-25.06H527.15a.78.78,0,0,1-.78-.78.77.77,0,0,1,.78-.78h71.94c13.83,0,25.08,11.95,25.08,26.62V490.88A.79.79,0,0,1,623.39,491.66Z" transform="translate(-309.11 -99.97)"/><path class="cls-3" d="M429.76,128H379.62a.79.79,0,0,1-.78-.78.77.77,0,0,1,.78-.78h50.14a.77.77,0,0,1,.78.78A.79.79,0,0,1,429.76,128Z" transform="translate(-309.11 -99.97)"/></g></svg>