<svg xmlns="http://www.w3.org/2000/svg" xmlns:xlink="http://www.w3.org/1999/xlink" viewBox="0 0 341.72 520"><defs><style>.cls-1{fill:none;}.cls-2{fill:#fff;}.cls-3{fill:#2d2d2d;}.cls-4{fill:#141247;}.cls-5{fill:#0c0a35;}.cls-6{fill:#990028;}.cls-7{fill:#191956;}.cls-8{fill:#fcc07e;}.cls-9{fill:#ffd6a1;}.cls-10{fill:#d6002b;}.cls-11{fill:#222272;}.cls-12{clip-path:url(#clip-path);}.cls-13{fill:#b70027;}.cls-14{clip-path:url(#clip-path-2);}.cls-15{clip-path:url(#clip-path-3);}.cls-16{clip-path:url(#clip-path-4);}.cls-17{fill:#f70032;}.cls-18{clip-path:url(#clip-path-5);}.cls-19{clip-path:url(#clip-path-6);}.cls-20{clip-path:url(#clip-path-7);}.cls-21{clip-path:url(#clip-path-8);}</style><clipPath id="clip-path" transform="translate(-309.1 -99.97)"><path class="cls-1" d="M496.94,247.52c-6.27-1.19-16.31-5.38-22.17-14.3-3.52-5.33-5.2-11.9-6.89-18.05-.46-1.66-.73-3.2-1.27-4.61-.38-1-1.95-1-3-.89-6.89,1-7.64,1.2-13.49,2-.28,9.63-3.45,19.73-11.1,25.6-5.28,4-10.68,8.15-17,10.3,7.48-2,16.18-3.5,22.53-7.92s10.23-11.14,12.8-18.43a57.71,57.71,0,0,0,12.24,17.53,19.34,19.34,0,0,0,3.78,3,57.64,57.64,0,0,0,5.63,2.91C486.63,247.78,493,247.31,496.94,247.52Z"/></clipPath><clipPath id="clip-path-2" transform="translate(-309.1 -99.97)"><path class="cls-1" d="M455.63,246.92c4.19,5.49,10.59,5.74,15.37,5.52-2.26,4.67-4.65,9.41-8.46,12.92a21.69,21.69,0,0,1-11.94,5.51C452.72,263,455.41,255,455.63,246.92Z"/></clipPath><clipPath id="clip-path-3" transform="translate(-309.1 -99.97)"><path class="cls-1" d="M541.12,251.38c5.37,1.62,10.82,3.1,16.41,2.71a120.54,120.54,0,0,1-7.39-27.9c-.45-2.85-2.4-18.44-2.58-21.33a263.3,263.3,0,0,1,.28-40.21,2,2,0,0,0-.16-1.22,2.07,2.07,0,0,0-1.58-.67c-11.64-1-23.3,3.05-34.93,1.89-2.27,16-4.52,32.34-2.37,48.42.72,5.49,1.77,11.17,4.78,15.81C525,246.43,533.46,249.09,541.12,251.38Z"/></clipPath><clipPath id="clip-path-4" transform="translate(-309.1 -99.97)"><path class="cls-1" d="M561.87,141.5a66.41,66.41,0,0,0-14.17,29.06c-10.77,1-21.61,1-32.43.93-4.46,0-8.9-.31-13.36-.38-14.66-.21-22.75.83-40.28-.94-2.19-.22-4.07-1.76-5.68-3.26a7.46,7.46,0,0,1-1.52-2.47,93.65,93.65,0,0,0-14.59-22.61c-.32-.36-.84-.88-.54-1.26a2.33,2.33,0,0,1,1.26-.63c13.15-3.3,26.85-3.56,40.4-3.57q38.88-.06,77.7,2.44a5.34,5.34,0,0,1,2.57.62C562,139.9,562.45,140.83,561.87,141.5Z"/></clipPath><clipPath id="clip-path-5" transform="translate(-309.1 -99.97)"><path class="cls-1" d="M465.6,476.37c6.27,1.2,16.31,5.4,22.16,14.31,3.52,5.34,5.2,11.91,6.89,18.05.47,1.67.74,3.2,1.28,4.6.37,1,1.94,1,3,.88,6.9-.94,7.64-1.19,13.49-2,.29-9.66,3.45-19.73,11.11-25.62,5.27-4,10.67-8.15,17-10.3-7.47,2-16.17,3.52-22.52,7.92s-10.24,11.14-12.81,18.44a57.42,57.42,0,0,0-12.24-17.53,18.63,18.63,0,0,0-3.78-3,56.28,56.28,0,0,0-5.62-2.9C475.89,476.12,469.49,476.6,465.6,476.37Z"/></clipPath><clipPath id="clip-path-6" transform="translate(-309.1 -99.97)"><path class="cls-1" d="M506.91,477c-4.21-5.51-10.61-5.76-15.38-5.53,2.26-4.66,4.66-9.41,8.47-12.93a21.66,21.66,0,0,1,11.93-5.5C509.83,460.88,507.12,468.88,506.91,477Z"/></clipPath><clipPath id="clip-path-7" transform="translate(-309.1 -99.97)"><path class="cls-1" d="M421.41,472.5c-5.37-1.59-10.82-3.09-16.41-2.69a120.23,120.23,0,0,1,7.39,27.89c.46,2.87,2.41,18.45,2.58,21.34a260.49,260.49,0,0,1-.29,40.19,2.12,2.12,0,0,0,.17,1.23,2,2,0,0,0,1.59.66c11.64,1,23.3-3,34.93-1.87,2.26-16,4.52-32.35,2.37-48.41C453,505.34,452,499.67,449,495,437.58,477.48,429.08,474.82,421.41,472.5Z"/></clipPath><clipPath id="clip-path-8" transform="translate(-309.1 -99.97)"><path class="cls-1" d="M400.66,582.39a66.28,66.28,0,0,0,14.17-29c10.77-1.05,21.61-1,32.43-.93,4.46,0,8.91.31,13.36.37,14.67.2,22.76-.83,40.29.93,2.18.23,4.06,1.78,5.67,3.26a7.15,7.15,0,0,1,1.52,2.47,93.31,93.31,0,0,0,14.6,22.63c.31.36.83.88.54,1.25A2.16,2.16,0,0,1,522,584c-13.14,3.3-26.84,3.56-40.4,3.57q-38.86.08-77.7-2.44a5.14,5.14,0,0,1-2.57-.61C400.55,584,400.08,583.07,400.66,582.39Z"/></clipPath></defs><g id="Layer_1" data-name="Layer 1"><path class="cls-2" d="M621.23,619.19H338.68a28.8,28.8,0,0,1-28.79-28.8V129.55a28.79,28.79,0,0,1,28.79-28.8H621.23A28.8,28.8,0,0,1,650,129.55V590.39A28.81,28.81,0,0,1,621.23,619.19Z" transform="translate(-309.1 -99.97)"/><path class="cls-3" d="M621.24,620H338.68a29.61,29.61,0,0,1-29.58-29.58V129.55A29.61,29.61,0,0,1,338.68,100H621.24a29.61,29.61,0,0,1,29.58,29.58V590.39A29.61,29.61,0,0,1,621.24,620ZM338.68,101.54a28,28,0,0,0-28,28V590.39a28.06,28.06,0,0,0,28,28H621.24a28,28,0,0,0,28-28V129.55a28,28,0,0,0-28-28Z" transform="translate(-309.1 -99.97)"/><path class="cls-4" d="M543.53,281.52c12.05,1.43,24.43,3.44,34.41,9,8.59,4.81,14.84,11.9,19.71,19.34,14,21.44,8.39,77.68,5.57,77.73l-191.39,3.65c-9.62.18-19.35.36-28.76-1.21a6.56,6.56,0,0,1-3.22-1.17,4.23,4.23,0,0,1-1.18-2.54l-5.22-24.81c-2.12-10.06-4.23-20.34-1.95-30.37,2.84-12.46,12.41-23.52,24.56-31.6s26.81-13.49,41.78-17.58a152.9,152.9,0,0,1,25.77-5c11.78-1.11,23.68-.25,35.49.62C513.94,278.68,528.8,279.77,543.53,281.52Z" transform="translate(-309.1 -99.97)"/><path class="cls-4" d="M419,442.37c-12.05-1.42-24.43-3.42-34.4-9-8.59-4.82-14.85-11.9-19.71-19.33-14-21.45-8.4-77.68-5.57-77.73l191.38-3.67c9.62-.18,19.34-.36,28.77,1.22a6.62,6.62,0,0,1,3.21,1.16,4.38,4.38,0,0,1,1.19,2.56q2.6,12.4,5.22,24.8c2.1,10,4.22,20.33,1.94,30.36-2.84,12.46-12.4,23.51-24.56,31.62s-26.81,13.47-41.77,17.56a154.33,154.33,0,0,1-25.77,5c-11.78,1.11-23.7.24-35.5-.64C448.59,445.21,433.74,444.12,419,442.37Z" transform="translate(-309.1 -99.97)"/><path class="cls-5" d="M388.54,317.23c-5.89.63-11.86,1.72-17,4.61-6.79,3.82-15.06,11.5-18.94,18.26a50.89,50.89,0,0,0-4,43C352.08,393,360,401,369.29,406s19.75,7.32,30.22,8.38c2.7-22.75,2.76-45.72,2.81-68.63,0-7.34,0-14.89-2.69-21.72-1.07-2.71-2.75-5.45-5.48-6.47A12.19,12.19,0,0,0,388.54,317.23Z" transform="translate(-309.1 -99.97)"/><path class="cls-5" d="M574,406.68c5.89-.64,11.87-1.73,17-4.63,6.81-3.8,15.08-11.5,19-18.26a50.83,50.83,0,0,0,4-43c-3.51-9.93-11.46-17.88-20.72-22.89s-19.75-7.3-30.23-8.36c-2.7,22.74-2.75,45.7-2.81,68.61,0,7.35,0,14.89,2.69,21.72,1.07,2.71,2.76,5.46,5.49,6.49A12.56,12.56,0,0,0,574,406.68Z" transform="translate(-309.1 -99.97)"/><path class="cls-6" d="M589.81,379.45c6.32-9.51,4.82-34.49-5.34-41.24a1.2,1.2,0,0,0-1.78,1c-.05,6.38,2.39,12.94,3.14,19.28.79,6.76-.5,13.91.94,20.53a1.68,1.68,0,0,0,3,.39Z" transform="translate(-309.1 -99.97)"/><path class="cls-6" d="M599.9,378c8.34-1.34,8.52-14.24,7.77-20.42-.84-7-3.82-17.69-11.11-20.57-.87-.35-1.71.66-1.47,1.48,1.74,6.16,4.72,11.77,6.16,18.1,1.78,7.83-.11,13-2.66,20.1-.31.85.59,1.44,1.31,1.31Z" transform="translate(-309.1 -99.97)"/><path class="cls-7" d="M377.66,339.21c3.77-1,7.18-2.76,10.9-3.84s8.16-1.4,11.47.33,4.6,4.94,6.5,7.66a24.36,24.36,0,0,0,19.77,9.82c9.11-.1,18-5.32,26.73-3.21,6.93,1.68,11.18,7.48,17.91,9.67,11,3.58,22.81-3.75,34.69-3.95,6.79-.11,13.24,2.14,19.78,3.64a93.2,93.2,0,0,0,20.39,2.33c5.19,0,10.63-.46,14.89-2.84,3.75-2.09,6.29-5.48,10.44-7,4.33-1.59,9.41-.8,14,.38s9.12,2.67,13.87,2.43,15.94-4.58,16-8.4a49.74,49.74,0,0,0-9.62-30.62c-10.64-14.12-24-23.35-29-25.75-16.74-8-33.59-10.63-53-11.8-8.86-.52-17.74,0-26.62,0-16.06.08-32.39-2.06-48.14.76-42.28,7.64-54.59,4.29-73,26-10.36,12.24-11.16,26.65-8.91,30.32C370.18,340.84,375.31,339.84,377.66,339.21Z" transform="translate(-309.1 -99.97)"/><path class="cls-5" d="M498.33,110.26c.19-.65.55-1.44,1.23-1.44s.91.53,1.18,1a61.19,61.19,0,0,1,5.3,12.07q-4.38,0-8.75-.44c-.47,0-1-.18-1.21-.61a1.36,1.36,0,0,1,0-.8C496.76,116.77,497.43,113.49,498.33,110.26Z" transform="translate(-309.1 -99.97)"/><path class="cls-8" d="M523,262.57a47.61,47.61,0,0,0-1.74-8.56,103.19,103.19,0,0,1-2.34-37.83,60.57,60.57,0,0,0-39.39,21.21c-2.57,3.09-5.27,6.71-9.26,7.28a59.38,59.38,0,0,1-1.94,23.23,273.63,273.63,0,0,0,52.86-3.23,2.21,2.21,0,0,0,1.55-.7A2.09,2.09,0,0,0,523,262.57Z" transform="translate(-309.1 -99.97)"/><path class="cls-5" d="M523.72,257.48a2.53,2.53,0,0,0-3-1.37c-5.93,1.41-10.05,2-27.21,2.94-17.4,1-23.22-.49-24.51,1.47-14.72,22.19-24.53,28.27-34.9,35.39a1.19,1.19,0,0,0,.34,2.12c4.95,1.46,12.39,1.23,15.68.74,15.2-2.2,19.11-7.6,27.65-16.58,2.74,14.62,9.37,22.46,16.23,25.64a46.81,46.81,0,0,0,12-24.73,34.74,34.74,0,0,0,4.91,7c7.84,8.46,21.19,12.75,34.75,13.34a.66.66,0,0,0,.67-.54c.54-2.82-6.73-9.86-11.15-17.82C528.22,272.48,528.69,271.55,523.72,257.48Z" transform="translate(-309.1 -99.97)"/><path class="cls-9" d="M452.14,217c-.53,4.94-1.3,9.88-1.19,14.86s1.18,10,4,14.15a19,19,0,0,0,15.22,8.14,38.27,38.27,0,0,0,17.79-4.78c5.91-3.23,12.2-7.26,16.88-12.1,5.61-5.81,7.8-13.5,10.8-21,6.74-16.84,10.91-35.53,6.46-53.12a4.11,4.11,0,0,0-.82-1.83,4.35,4.35,0,0,0-2.16-1c-18.67-4.19-38.45.2-57.15-3.86-3.48,9.94-.12,21.63-4.87,31-2.61,5.19-7.32,8.9-11.52,12.9-2.11,2-4.26,5-2.82,7.52,1.79,3.13,7.41,2.12,9.08,5.33A6.53,6.53,0,0,1,452.14,217Z" transform="translate(-309.1 -99.97)"/><path class="cls-5" d="M496.94,247.52c-6.27-1.19-16.31-5.38-22.17-14.3-3.52-5.33-5.2-11.9-6.89-18.05-.46-1.66-.73-3.2-1.27-4.61-.38-1-1.95-1-3-.89-6.89,1-7.64,1.2-13.49,2-.28,9.63-3.45,19.73-11.1,25.6-5.28,4-10.68,8.15-17,10.3,7.48-2,16.18-3.5,22.53-7.92s10.23-11.14,12.8-18.43a57.71,57.71,0,0,0,12.24,17.53,19.34,19.34,0,0,0,3.78,3,57.64,57.64,0,0,0,5.63,2.91C486.63,247.78,493,247.31,496.94,247.52Z" transform="translate(-309.1 -99.97)"/><path class="cls-5" d="M455.63,246.92c4.19,5.49,10.59,5.74,15.37,5.52-2.26,4.67-4.65,9.41-8.46,12.92a21.69,21.69,0,0,1-11.94,5.51C452.72,263,455.41,255,455.63,246.92Z" transform="translate(-309.1 -99.97)"/><path class="cls-4" d="M541.12,251.38c5.37,1.62,10.82,3.1,16.41,2.71a120.54,120.54,0,0,1-7.39-27.9c-.45-2.85-2.4-18.44-2.58-21.33a263.3,263.3,0,0,1,.28-40.21,2,2,0,0,0-.16-1.22,2.07,2.07,0,0,0-1.58-.67c-11.64-1-23.3,3.05-34.93,1.89-2.27,16-4.52,32.34-2.37,48.42.72,5.49,1.77,11.17,4.78,15.81C525,246.43,533.46,249.09,541.12,251.38Z" transform="translate(-309.1 -99.97)"/><path class="cls-5" d="M505.79,175.64c0,.38.57,4.15-.28,4a42.63,42.63,0,0,0-7.23-.61c-14-.73-17.95-.86-28.32.92a22.43,22.43,0,0,1-.27-5.24,324.87,324.87,0,0,0,35,.17,1.1,1.1,0,0,1,.88.24A1,1,0,0,1,505.79,175.64Z" transform="translate(-309.1 -99.97)"/><path class="cls-10" d="M503.4,214.47a5.32,5.32,0,0,0-1.22-7,5.3,5.3,0,1,0,1.22,7Z" transform="translate(-309.1 -99.97)"/><path class="cls-11" d="M459.42,142.79a10.39,10.39,0,0,1,1.14-4.24c3.85-8.53,11.53-15,20.24-18.43s18.4-3.84,27.63-2.34a34.28,34.28,0,0,1,11.55,3.7,41.24,41.24,0,0,1,7.85,6.16c5.08,4.76,10.21,10.31,11,17.2-25.86,2.6-52.2,5.16-77.66-.08a2.4,2.4,0,0,1-1.31-.57A2,2,0,0,1,459.42,142.79Z" transform="translate(-309.1 -99.97)"/><g class="cls-12"><path class="cls-13" d="M455.06,208.14a91.71,91.71,0,0,1-3.27,19.34c-2.28,7.92-7.59,12.78-12.17,19.18-.36.5.39,1,.82.63,10.64-9.49,17.66-25,15.63-39.28-.09-.62-1-.41-1,.13Z" transform="translate(-309.1 -99.97)"/><path class="cls-13" d="M461,204.34c-4.23,13.62.37,32.92,13.42,40.13a23.86,23.86,0,0,0,4.48,1.09c-5.5-3.75-13-11.95-15.1-18.78-2.18-7.11-2.35-14.95-1.56-22.27.07-.74-1-.82-1.24-.17Z" transform="translate(-309.1 -99.97)"/><path class="cls-13" d="M420.27,247.62c18.63-.48,35.81-22.72,30.41-40.67a.64.64,0,0,0-1.22,0c-.75,3.52-.18,6.85-.89,10.47a54.69,54.69,0,0,1-4.65,13.47c-4.44,9.06-15.7,11.92-23.79,16.19a.29.29,0,0,0,.14.54Z" transform="translate(-309.1 -99.97)"/><path class="cls-13" d="M465,204.57c-1.74,10.5,1.56,23.17,8.36,31.47,6.68,8.14,16.58,18.13,28.42,15.28a1,1,0,0,0,.23-1.76c-3.67-1.94-7.69-2.56-11.45-4.34-4.86-2.28-9.12-7.63-12.64-11.58-7.35-8.21-9.84-18.62-12.11-29.07a.42.42,0,0,0-.81,0Z" transform="translate(-309.1 -99.97)"/></g><g class="cls-14"><path class="cls-13" d="M448.5,274c7.7-8,9-18.59,11.44-28.95.09-.4-.55-.57-.69-.19-2,4.92-2.45,10.25-4,15.33A60.28,60.28,0,0,1,448.47,274s0,0,0,0Z" transform="translate(-309.1 -99.97)"/><path class="cls-13" d="M452.84,273.53c3.41-2.24,4.89-6.66,6.48-10.24,2.46-5.53,3.26-11.38,4.16-17.34a.52.52,0,0,0-1-.27c-2.1,4.94-1.91,10.45-4,15.46-1.72,4.2-4.23,8-6,12.11a.24.24,0,0,0,.36.28Z" transform="translate(-309.1 -99.97)"/><path class="cls-13" d="M460.54,271.2c4.08-7.23,7.92-16.11,7.47-24.59a.64.64,0,0,0-1.21-.17c-1.4,4-1.8,8.4-2.94,12.51s-3.26,7.81-4,12.05c-.08.44.5.52.69.2Z" transform="translate(-309.1 -99.97)"/></g><g class="cls-15"><path class="cls-13" d="M517.93,244c-2.71-13-1.85-26.2-2.27-39.35-.48-14.91,3.08-28.82,4.46-43.48a.67.67,0,0,0-1.25-.33c-5.89,12.92-5.81,29.91-5.45,43.81.33,12.94-1.28,27.43,4.31,39.43,0,.13.23,0,.2-.08Z" transform="translate(-309.1 -99.97)"/><path class="cls-13" d="M524.89,248.11c-3.34-15.84-2.9-32-1.69-48.09,1-13,1.47-25.42,5.9-37.81a.69.69,0,0,0-1.15-.67c-7.78,8.54-6,24.92-6.85,35.56-1.33,16.55-2,35.19,3.53,51.09a.14.14,0,0,0,.26-.08Z" transform="translate(-309.1 -99.97)"/><path class="cls-13" d="M531.21,252.64c-3.42-29-2.48-60,4-88.39a.71.71,0,0,0-1.3-.54c-6.92,12-5.36,27.6-6.15,40.86-.92,15.62-2.52,33.17,2.78,48.15.12.33.69.31.64-.08Z" transform="translate(-309.1 -99.97)"/><path class="cls-13" d="M543.44,257c-1.48-7.79-3.71-15.34-4.3-23.28s-.88-15.87-1-23.76c-.22-14.12-.87-28.76,2.65-42.52.15-.59-.7-1-1-.43-6,11.82-4,27.15-4,40,0,17.43,1.11,33.77,7,50.19a.33.33,0,0,0,.63-.17Z" transform="translate(-309.1 -99.97)"/><path class="cls-13" d="M552.31,259.1c-3-13.72-4.16-27.66-6.3-41.52A192.15,192.15,0,0,1,543.76,191c-.09-8.36,2-16.53,1.17-24.91-.06-.61-1-.85-1.13-.17-2.15,15.54-2.72,30.74-.63,46.29,2.07,15.33,2.65,32.67,8.76,47,.09.22.43.05.38-.18Z" transform="translate(-309.1 -99.97)"/></g><path class="cls-5" d="M561.87,141.5a66.41,66.41,0,0,0-14.17,29.06c-10.77,1-21.61,1-32.43.93-4.46,0-8.9-.31-13.36-.38-14.66-.21-20.42-1.19-40.28-.94a7.14,7.14,0,0,1-5.68-3.26c-6.4-9.85-10.19-18.3-16.11-25.08-.32-.36-.84-.88-.54-1.26a2.33,2.33,0,0,1,1.26-.63c13.15-3.3,26.85-3.56,40.4-3.57q38.88-.06,77.7,2.44a5.34,5.34,0,0,1,2.57.62C562,139.9,562.45,140.83,561.87,141.5Z" transform="translate(-309.1 -99.97)"/><g class="cls-16"><path class="cls-6" d="M449.13,144.08l5.28,2.46a8.58,8.58,0,0,0,3.37,1,1.56,1.56,0,0,0,1-.24c.26-.2,8.91-11.43,9.07-12.85-7.92.28-16,.8-23.26,4a1.33,1.33,0,0,0-.74.59,1.18,1.18,0,0,0,.15,1C445,142.1,447.13,143.15,449.13,144.08Z" transform="translate(-309.1 -99.97)"/><path class="cls-6" d="M488.9,145.53c4.19-3.72,6.62-6.88,10.69-10.75l-22.23-1.3c-1.87-.12-3.94-.16-5.37,1,5.12,3.18,8.47,8.74,13.74,11.66C486,146.3,486.7,147.49,488.9,145.53Z" transform="translate(-309.1 -99.97)"/><path class="cls-6" d="M503.51,136.23c1.25,2,2.52,4.08,3.79,6.12a31.67,31.67,0,0,0,2.35,3.44,15.33,15.33,0,0,0,3.33,3,1.68,1.68,0,0,0,2.31-.59c3.59-4.94,5.71-6.63,9-10,1.09-1.11,1.49-1.14,2.06-2.58l-10.08-.6c-4.45-.28-9-.54-13.3.52A.64.64,0,0,0,503.51,136.23Z" transform="translate(-309.1 -99.97)"/><path class="cls-6" d="M532.8,134.24c-1.15.85-.51,2.65.23,3.89,2.94,4.85,5.93,9.78,9.9,13.81a1.56,1.56,0,0,0,2.46-.28c1.46-2.46,10.07-11.74,11.59-14.82a114.66,114.66,0,0,1-21.75-2.74A3,3,0,0,0,532.8,134.24Z" transform="translate(-309.1 -99.97)"/></g><path class="cls-5" d="M468.56,133.85a1.48,1.48,0,0,0,0-3,1.48,1.48,0,0,0,0,3Z" transform="translate(-309.1 -99.97)"/><path class="cls-5" d="M474.29,128.15a1,1,0,0,0,0-1.91,1,1,0,0,0,0,1.91Z" transform="translate(-309.1 -99.97)"/><path class="cls-5" d="M479.21,133.92a1.13,1.13,0,0,0,0-2.25,1.13,1.13,0,0,0,0,2.25Z" transform="translate(-309.1 -99.97)"/><path class="cls-5" d="M484.22,126.83a1.41,1.41,0,0,0,0-2.81,1.41,1.41,0,0,0,0,2.81Z" transform="translate(-309.1 -99.97)"/><path class="cls-5" d="M479.32,123.5a1.07,1.07,0,0,0,0-2.14,1.07,1.07,0,0,0,0,2.14Z" transform="translate(-309.1 -99.97)"/><path class="cls-5" d="M490.07,121.07a1.23,1.23,0,0,0,0-2.45,1.23,1.23,0,0,0,0,2.45Z" transform="translate(-309.1 -99.97)"/><path class="cls-5" d="M492.65,129a.93.93,0,0,0,0-1.86.93.93,0,0,0,0,1.86Z" transform="translate(-309.1 -99.97)"/><path class="cls-5" d="M488.43,135a1.56,1.56,0,0,0,0-3.11,1.56,1.56,0,0,0,0,3.11Z" transform="translate(-309.1 -99.97)"/><path class="cls-5" d="M498.5,135.29a1.57,1.57,0,0,0,0-3.13,1.57,1.57,0,0,0,0,3.13Z" transform="translate(-309.1 -99.97)"/><path class="cls-5" d="M497.69,123.86a1,1,0,0,0,0-2,1,1,0,0,0,0,2Z" transform="translate(-309.1 -99.97)"/><path class="cls-5" d="M503.81,120.4a1.11,1.11,0,0,0,0-2.22,1.11,1.11,0,0,0,0,2.22Z" transform="translate(-309.1 -99.97)"/><path class="cls-5" d="M505.58,127.48l.13,0c1.69.5,1.69-2.53,0-2l-.13,0a1,1,0,0,0,0,1.94Z" transform="translate(-309.1 -99.97)"/><path class="cls-5" d="M509.66,135.29a1.43,1.43,0,0,0,0-2.85,1.43,1.43,0,0,0,0,2.85Z" transform="translate(-309.1 -99.97)"/><path class="cls-5" d="M512.92,123.11a1.23,1.23,0,0,0,0-2.45,1.23,1.23,0,0,0,0,2.45Z" transform="translate(-309.1 -99.97)"/><path class="cls-5" d="M516.63,130a1.41,1.41,0,0,0,0-2.82,1.41,1.41,0,0,0,0,2.82Z" transform="translate(-309.1 -99.97)"/><path class="cls-5" d="M523.54,127.56a1,1,0,0,0,0-2.09,1,1,0,0,0,0,2.09Z" transform="translate(-309.1 -99.97)"/><path class="cls-5" d="M521.49,135.65a1.25,1.25,0,0,0,0-2.5,1.25,1.25,0,0,0,0,2.5Z" transform="translate(-309.1 -99.97)"/><path class="cls-5" d="M528.71,134.11a1.48,1.48,0,0,0,0-3,1.48,1.48,0,0,0,0,3Z" transform="translate(-309.1 -99.97)"/><path class="cls-17" d="M469.41,139.67c-.89,4.85-1.34,11,.16,15.69,1,3.29,6.05,2.74,6.07-.81,0-5.34-1.4-9.89-3-14.88-.47-1.45-2.88-1.71-3.21,0Z" transform="translate(-309.1 -99.97)"/><path class="cls-17" d="M444.24,144.93a7.53,7.53,0,0,0,1.59,5.54c1.36,2,2.42,4.56,4.28,6.13a2.43,2.43,0,0,0,3.8-2.93,24.65,24.65,0,0,0-3.87-5.11c-1.37-1.42-3.13-2.49-4.42-4a.83.83,0,0,0-1.38.36Z" transform="translate(-309.1 -99.97)"/><path class="cls-17" d="M498.8,141.26a43.38,43.38,0,0,0-2.48,8.13,50.78,50.78,0,0,1-.59,5.25c-1.13,4.42,6,6.22,6.73,1.85.83-4.81.05-10.54-1-15.23-.32-1.44-2.24-1.21-2.67,0Z" transform="translate(-309.1 -99.97)"/><path class="cls-17" d="M527.46,142.46a17.32,17.32,0,0,0-3,7.67c-.35,2.25-1.32,5.36,0,7.38a3.24,3.24,0,0,0,3.62,1.49c.12-.05.24-.08.36-.12a3.69,3.69,0,0,0,2.59-2.61,29.82,29.82,0,0,0,0-6.81c-.13-2.41.11-4.93-1.38-7a1.31,1.31,0,0,0-2.22,0Z" transform="translate(-309.1 -99.97)"/><path class="cls-17" d="M555.86,145.22c-2.23,1-3.63,3.29-5,5.27-1.49,2.15-3.3,4.4-3.23,7.14.06,2.28,3.49,3.58,4.58,1.25,1.85-4,4.6-7.94,5.38-12.32a1.2,1.2,0,0,0-1.75-1.34Z" transform="translate(-309.1 -99.97)"/><path class="cls-17" d="M473.33,161.13a1.29,1.29,0,0,0,0-2.57,1.29,1.29,0,0,0,0,2.57Z" transform="translate(-309.1 -99.97)"/><path class="cls-17" d="M454.35,160.6a1.29,1.29,0,0,0,0-2.58,1.29,1.29,0,0,0,0,2.58Z" transform="translate(-309.1 -99.97)"/><path class="cls-17" d="M498.64,162.37a1.17,1.17,0,0,0,0-2.33,1.17,1.17,0,0,0,0,2.33Z" transform="translate(-309.1 -99.97)"/><path class="cls-17" d="M527,161.41l-.14.11a.89.89,0,0,0,0,1.26.57.57,0,0,0,.14.13,1.06,1.06,0,1,0,0-1.5Z" transform="translate(-309.1 -99.97)"/><path class="cls-17" d="M549,164a1.47,1.47,0,0,0,0-2.94,1.47,1.47,0,0,0,0,2.94Z" transform="translate(-309.1 -99.97)"/><path class="cls-5" d="M471.83,150.83a1.86,1.86,0,0,0,0-3.72,1.86,1.86,0,0,0,0,3.72Z" transform="translate(-309.1 -99.97)"/><path class="cls-5" d="M449.66,151.53h-.41a0,0,0,0,0,0,0h.41a0,0,0,0,0,0,0Z" transform="translate(-309.1 -99.97)"/><path class="cls-5" d="M449.09,152.92a1.49,1.49,0,0,0,0-3,1.49,1.49,0,0,0,0,3Z" transform="translate(-309.1 -99.97)"/><path class="cls-5" d="M499.18,152a1.84,1.84,0,0,0,0-3.67,1.84,1.84,0,0,0,0,3.67Z" transform="translate(-309.1 -99.97)"/><path class="cls-5" d="M527.61,152.82a2,2,0,0,0,0-3.92c-2.51,0-2.51,3.92,0,3.92Z" transform="translate(-309.1 -99.97)"/><path class="cls-5" d="M552.38,155.38c2.65,0,2.65-4.11,0-4.11s-2.65,4.11,0,4.11Z" transform="translate(-309.1 -99.97)"/><path class="cls-5" d="M498.77,154.92a.79.79,0,0,0,0-1.58.79.79,0,0,0,0,1.58Z" transform="translate(-309.1 -99.97)"/><path class="cls-5" d="M472.24,153.57a.93.93,0,0,0,0-1.86.93.93,0,0,0,0,1.86Z" transform="translate(-309.1 -99.97)"/><path class="cls-5" d="M450.77,153.29l-.1,0c-1.29-.38-.77,2.05.28,1.09a.55.55,0,0,1,.09-.07.61.61,0,0,0-.27-1Z" transform="translate(-309.1 -99.97)"/><path class="cls-5" d="M447.35,149.87a.77.77,0,0,0,0-1.54.77.77,0,0,0,0,1.54Z" transform="translate(-309.1 -99.97)"/><path class="cls-5" d="M471.43,146.31a1,1,0,0,0,0-2.05,1,1,0,0,0,0,2.05Z" transform="translate(-309.1 -99.97)"/><path class="cls-5" d="M499.86,147.75a1.24,1.24,0,0,0,0-2.47,1.24,1.24,0,0,0,0,2.47Z" transform="translate(-309.1 -99.97)"/><path class="cls-5" d="M527.37,155.64a1,1,0,0,0,0-1.89.95.95,0,0,0,0,1.89Z" transform="translate(-309.1 -99.97)"/><path class="cls-5" d="M527.61,147.93a.88.88,0,0,0,0-1.75.88.88,0,0,0,0,1.75Z" transform="translate(-309.1 -99.97)"/><path class="cls-5" d="M551.82,156.11c-.56-1.22-2.5-.16-1.81,1s2.35.13,1.81-1Z" transform="translate(-309.1 -99.97)"/><path class="cls-5" d="M554,151.27a.81.81,0,0,0,0-1.62.81.81,0,0,0,0,1.62Z" transform="translate(-309.1 -99.97)"/><path class="cls-5" d="M478.89,183.86c.29.7.53,1.39,1.38,1.44a.43.43,0,0,0,.4-.31c.22-.59-.06-1-.25-1.55-.34-1-1.9-.52-1.53.42Z" transform="translate(-309.1 -99.97)"/><path class="cls-5" d="M489.78,181c-.45.86-.68,2.12.17,2.82.4.33,1.18.39,1.43-.18a3.43,3.43,0,0,0-.13-2.46.81.81,0,0,0-1.47-.18Z" transform="translate(-309.1 -99.97)"/><path class="cls-5" d="M500,182.64a11.5,11.5,0,0,1-.7,1.35c-.55,1,1,1.81,1.44.85a14.5,14.5,0,0,0,.66-1.81c.27-.93-1.06-1.24-1.4-.39Z" transform="translate(-309.1 -99.97)"/><path class="cls-5" d="M480.76,195.8c.64-.25,1.58-1,1.5-1.73a.35.35,0,0,0-.27-.34c-.92-.31-1.73,1-1.62,1.76,0,.18.18.39.39.31Z" transform="translate(-309.1 -99.97)"/><path class="cls-5" d="M490.29,193.47c-.84.7-.86,2.44-.59,3.42a1,1,0,0,0,2,0c.27-1,.25-2.72-.59-3.42a.54.54,0,0,0-.78,0Z" transform="translate(-309.1 -99.97)"/><path class="cls-5" d="M499,192.23a3,3,0,0,0,1,2.39.84.84,0,0,0,1,.14.43.43,0,0,0,.16-.14.81.81,0,0,0,.12-1c-.33-.63-.93-1.07-1.31-1.68a.5.5,0,0,0-.92.25Z" transform="translate(-309.1 -99.97)"/><path class="cls-5" d="M484.77,181.89c-1,.52-.69,1.94-.38,2.77.4,1.08,2.13.64,1.75-.49-.25-.75-.27-1.77-1-2.28a.39.39,0,0,0-.39,0Z" transform="translate(-309.1 -99.97)"/><path class="cls-5" d="M495.79,181.71c-.27.6-1.44,3.46,0,3.39.79,0,.94-1,1.05-1.63a1.65,1.65,0,0,0-.79-1.84.24.24,0,0,0-.31.08Z" transform="translate(-309.1 -99.97)"/><path class="cls-5" d="M485,197.17c1.38,0,2.22-1.93,2.24-3.13a1,1,0,0,0-1.42-.82,3.78,3.78,0,0,0-1.47,3.3.66.66,0,0,0,.65.65Z" transform="translate(-309.1 -99.97)"/><path class="cls-5" d="M494.57,193.63c-.63,1.11-.51,3.08.82,3.67a1,1,0,0,0,1.41-.57c.4-1.32-.79-2.27-1.51-3.18a.45.45,0,0,0-.72.08Z" transform="translate(-309.1 -99.97)"/><path class="cls-2" d="M472.59,189.81a1.42,1.42,0,0,1,.59-1,20.75,20.75,0,0,1,10.16-4.7,63.52,63.52,0,0,1,11.29-.75c2.51,0,10,2.23,12.86,4.32a27.23,27.23,0,0,1-34.07,3.2C473,190.65,472.58,190.29,472.59,189.81Z" transform="translate(-309.1 -99.97)"/><path class="cls-5" d="M486.26,190.39a4.61,4.61,0,0,0,4.33,1.53,4.56,4.56,0,0,0,3.38-3.1,3.19,3.19,0,0,0,.13-1.11c-.11-2.09-4.64-4.17-7.69-1.21A2.92,2.92,0,0,0,486.26,190.39Z" transform="translate(-309.1 -99.97)"/><path class="cls-17" d="M489.83,304.38l-.7.37c-6.05,3.1-3.45,13.73,3.55,13.11.26,0,.52-.05.79-.06,11.9-1.08,6.71-18.74-3.64-13.42Z" transform="translate(-309.1 -99.97)"/><path class="cls-17" d="M432.51,305.57c8.27,0,8.27-12.8,0-12.8s-8.26,12.8,0,12.8Z" transform="translate(-309.1 -99.97)"/><path class="cls-6" d="M445.8,297c5.37-1.93,9.54-4.78,14-8.33,3.58-2.89-1.75-8.48-5.15-5.14s-6.5,7-10.64,9.13c-2.36,1.24-.72,5.27,1.83,4.34Z" transform="translate(-309.1 -99.97)"/><path class="cls-6" d="M493.66,300a26.3,26.3,0,0,0,1.7-6.28c.5-2.74,1.24-5.41,1.59-8.18.67-5.39-8.95-5.53-8.46,0,.21,2.44.51,4.87.65,7.33s.44,5,1.83,7.13c.58.88,2.17,1.14,2.69,0Z" transform="translate(-309.1 -99.97)"/><path class="cls-6" d="M538.54,295.39c-1.11-1.2-2-3.76-3-5.34-.48-.79-.94-1.6-1.38-2.4-.25-.44-.45-.9-.69-1.34.48.9-.32-.77-.47-1.08a4.33,4.33,0,0,0-4.91-2c-2.45.67-3.43,3-3,5.35.47,2.74,3.32,4.35,5.38,5.83,1,.67,1.78,1.68,2.71,2.42a12.34,12.34,0,0,0,3.53,1.69c1.86.75,3-1.87,1.83-3.13Z" transform="translate(-309.1 -99.97)"/><path class="cls-6" d="M471,265.78a.77.77,0,0,0,.19.08c1.65.62,2.94-1.46,2.17-2.82l-.11-.19a2,2,0,1,0-2.25,2.93Z" transform="translate(-309.1 -99.97)"/><path class="cls-6" d="M479.48,265.93l0-.05a2,2,0,0,0,0-2.82l0-.05a2.08,2.08,0,1,0,0,2.92Z" transform="translate(-309.1 -99.97)"/><path class="cls-6" d="M483.94,266.65c2.81,0,2.81-4.36,0-4.36s-2.8,4.36,0,4.36Z" transform="translate(-309.1 -99.97)"/><path class="cls-6" d="M489.87,266.24c2.54,0,2.54-3.95,0-3.95a2,2,0,0,0,0,3.95Z" transform="translate(-309.1 -99.97)"/><path class="cls-6" d="M495.57,265.62a2,2,0,0,0,0-3.91c-2.52,0-2.52,3.91,0,3.91Z" transform="translate(-309.1 -99.97)"/><path class="cls-6" d="M500.68,265a1.72,1.72,0,0,0,0-3.44,1.72,1.72,0,0,0,0,3.44Z" transform="translate(-309.1 -99.97)"/><path class="cls-6" d="M505.94,264.71l.25.09a2,2,0,1,0,0-3.93,1.06,1.06,0,0,1-.25.09,2,2,0,0,0,0,3.75Z" transform="translate(-309.1 -99.97)"/><path class="cls-6" d="M513.46,264.58c2.76,0,2.76-4.29,0-4.29s-2.76,4.29,0,4.29Z" transform="translate(-309.1 -99.97)"/><path class="cls-6" d="M519.46,263.55a1.72,1.72,0,0,0,0-3.44,1.72,1.72,0,0,0,0,3.44Z" transform="translate(-309.1 -99.97)"/><path class="cls-17" d="M492.56,289.16a2.41,2.41,0,1,0-2.41-2.41,2.43,2.43,0,0,0,2.41,2.41Z" transform="translate(-309.1 -99.97)"/><path class="cls-17" d="M457.12,289a2.53,2.53,0,0,0,1.71-1.71,2.46,2.46,0,1,0-1.71,1.71Z" transform="translate(-309.1 -99.97)"/><path class="cls-17" d="M527.05,288.3a1.74,1.74,0,0,0,.11.18,2.26,2.26,0,0,0,2.53,1,2.29,2.29,0,0,0,1.66-2.17,1.48,1.48,0,0,1,0-.22,2.32,2.32,0,1,0-4.31,1.17Z" transform="translate(-309.1 -99.97)"/><path class="cls-17" d="M462.11,282.22c.63-.54,1.32-1,1.94-1.53s1.38-1.21,1.33-2.11a.83.83,0,0,0-.83-.83c-1.74.11-2.51,2.56-3.35,3.78-.38.57.44,1.1.91.69Z" transform="translate(-309.1 -99.97)"/><path class="cls-17" d="M458.91,280.64c.25-.18.6-.25.88-.41a5.14,5.14,0,0,0,.78-.69,4.44,4.44,0,0,0,1.26-1.87,1.38,1.38,0,0,0-2-1.55,3.28,3.28,0,0,0-1.38,1.91c-.07.34-.13.67-.21,1a4.29,4.29,0,0,1-.05.88c-.21.42.26,1.08.73.72Z" transform="translate(-309.1 -99.97)"/><path class="cls-17" d="M463.33,285a4.57,4.57,0,0,0,4.17-2.15c.44-.88-.3-2.3-1.42-1.86a5.45,5.45,0,0,0-1.9,1.35,6.93,6.93,0,0,0-.74.87,7.09,7.09,0,0,0-.55,1,.52.52,0,0,0,.44.78Z" transform="translate(-309.1 -99.97)"/><path class="cls-17" d="M488.86,281.84a2.48,2.48,0,0,0,.65-1.24,3.74,3.74,0,0,0-.19-1.9c-.41-1.16-2.31-1.41-2.59,0a2.88,2.88,0,0,0,1.39,3.24.6.6,0,0,0,.74-.1Z" transform="translate(-309.1 -99.97)"/><path class="cls-17" d="M493.36,280.26a2.22,2.22,0,0,0,.35-2,8.8,8.8,0,0,0-.24-2,.78.78,0,0,0-.68-.38c-2,.12-1.76,3.77-.27,4.49a.7.7,0,0,0,.84-.12Z" transform="translate(-309.1 -99.97)"/><path class="cls-17" d="M496,280.83a5.14,5.14,0,0,0,1.25-1.17,5.39,5.39,0,0,0,1.12-1.67c.23-.66-.54-1.54-1.26-1.25-1.26.52-2.57,2.54-1.81,3.91a.51.51,0,0,0,.7.18Z" transform="translate(-309.1 -99.97)"/><path class="cls-17" d="M525,283a3.52,3.52,0,0,0-1.32-3.65,1.24,1.24,0,0,0-1.8.73,3.06,3.06,0,0,0,2.36,3.34A.61.61,0,0,0,525,283Z" transform="translate(-309.1 -99.97)"/><path class="cls-17" d="M522.59,285A5.9,5.9,0,0,0,521,283.8a2.17,2.17,0,0,0-2.37-.31,1.15,1.15,0,0,0-.23,1.79c.87,1,2.69.56,3.88.41a.4.4,0,0,0,.27-.68Z" transform="translate(-309.1 -99.97)"/><path class="cls-17" d="M528.6,281a16.35,16.35,0,0,1,.28-1.86c.23-1.72-2.32-1.75-2.15-.31a4.78,4.78,0,0,0,.79,2.46.59.59,0,0,0,1.08-.29Z" transform="translate(-309.1 -99.97)"/><path class="cls-17" d="M464.35,309.66a1.24,1.24,0,0,0,0-2.48,1.24,1.24,0,0,0,0,2.48Z" transform="translate(-309.1 -99.97)"/><path class="cls-17" d="M443.2,315.2a1.24,1.24,0,0,0,0-2.47,1.24,1.24,0,0,0,0,2.47Z" transform="translate(-309.1 -99.97)"/><path class="cls-17" d="M357.42,387.21a1.24,1.24,0,0,0,0-2.48,1.24,1.24,0,0,0,0,2.48Z" transform="translate(-309.1 -99.97)"/><path class="cls-17" d="M440.69,329a1.24,1.24,0,0,0,0-2.48,1.24,1.24,0,0,0,0,2.48Z" transform="translate(-309.1 -99.97)"/><path class="cls-17" d="M421.91,321.32a1.49,1.49,0,0,0,0-3,1.49,1.49,0,0,0,0,3Z" transform="translate(-309.1 -99.97)"/><path class="cls-17" d="M396.23,312.73a1.73,1.73,0,0,0,0-3.45,1.73,1.73,0,0,0,0,3.45Z" transform="translate(-309.1 -99.97)"/><path class="cls-17" d="M383.09,326.18a1.72,1.72,0,0,0,0-3.44,1.72,1.72,0,0,0,0,3.44Z" transform="translate(-309.1 -99.97)"/><path class="cls-17" d="M455.76,332.55a1,1,0,0,1-.07.18,1.41,1.41,0,0,0,1.91,1.91l.17-.08a1.47,1.47,0,1,0-2-2Z" transform="translate(-309.1 -99.97)"/><path class="cls-17" d="M410.84,301.12c0,.06,0,.11-.08.18a1.41,1.41,0,0,0,1.91,1.9l.17-.08a1.46,1.46,0,1,0-2-2Z" transform="translate(-309.1 -99.97)"/><path class="cls-17" d="M484.49,326.91a1.9,1.9,0,0,0,0-3.8,1.9,1.9,0,0,0,0,3.8Z" transform="translate(-309.1 -99.97)"/><path class="cls-17" d="M428.17,345.27a1.89,1.89,0,0,0,0-3.78,1.89,1.89,0,0,0,0,3.78Z" transform="translate(-309.1 -99.97)"/><path class="cls-17" d="M398.3,330.34l.15,0-.95-.13a.49.49,0,0,0,.11.07,1.21,1.21,0,0,0,1.63-1.65,1.19,1.19,0,0,0-.63-.6,1.29,1.29,0,1,0-.31,2.35Z" transform="translate(-309.1 -99.97)"/><path class="cls-17" d="M357.1,379.58a.33.33,0,0,1,.15,0l-1-.13s.08,0,.11,0a1.2,1.2,0,0,0,1.64-1.63,1.25,1.25,0,0,0-.64-.6,1.29,1.29,0,1,0-.3,2.35Z" transform="translate(-309.1 -99.97)"/><path class="cls-17" d="M496.51,348.3a1.26,1.26,0,0,0,0-2.52,1.26,1.26,0,0,0,0,2.52Z" transform="translate(-309.1 -99.97)"/><path class="cls-17" d="M517.48,308a1.21,1.21,0,0,0,0-2.42,1.21,1.21,0,0,0,0,2.42Z" transform="translate(-309.1 -99.97)"/><path class="cls-17" d="M585.72,345.48a1.72,1.72,0,0,0,0-3.44,1.72,1.72,0,0,0,0,3.44Z" transform="translate(-309.1 -99.97)"/><path class="cls-17" d="M602.23,335.88a1.71,1.71,0,0,0,0-3.42,1.71,1.71,0,0,0,0,3.42Z" transform="translate(-309.1 -99.97)"/><path class="cls-17" d="M604.11,347.15a1.72,1.72,0,0,0,0-3.43,1.72,1.72,0,0,0,0,3.43Z" transform="translate(-309.1 -99.97)"/><path class="cls-6" d="M397,344.8a4.26,4.26,0,1,0-4.24-4.26A4.29,4.29,0,0,0,397,344.8Z" transform="translate(-309.1 -99.97)"/><path class="cls-6" d="M393.35,350.54a1.5,1.5,0,0,1,.09.18,3.09,3.09,0,0,0,3.5,1.42,3.15,3.15,0,0,0,2.16-3.82,1.29,1.29,0,0,0,0-.19,3.12,3.12,0,0,0-3.84-2.17c-2.11.57-2.66,2.77-1.87,4.58Z" transform="translate(-309.1 -99.97)"/><path class="cls-6" d="M436.38,364.58a1.48,1.48,0,0,1,.13.21,1.89,1.89,0,0,0,2.58.68,2.24,2.24,0,0,0,.69-.68,1.9,1.9,0,0,0-.69-2.58,1.48,1.48,0,0,0-.21-.13,1.84,1.84,0,0,0-2.5,2.5Z" transform="translate(-309.1 -99.97)"/><path class="cls-6" d="M479.67,373l.12.21a1.92,1.92,0,0,0,2.59.69,2.35,2.35,0,0,0,.68-.69,1.9,1.9,0,0,0-.68-2.59l-.22-.12a1.84,1.84,0,0,0-2.49,2.5Z" transform="translate(-309.1 -99.97)"/><path class="cls-6" d="M372.73,344.44c-6.32,9.52-4.83,34.5,5.33,41.24a1.2,1.2,0,0,0,1.79-1c0-6.38-2.4-12.93-3.14-19.27-.79-6.79.5-13.91-.95-20.53a1.67,1.67,0,0,0-3-.41Z" transform="translate(-309.1 -99.97)"/><path class="cls-6" d="M362.63,345.94c-8.33,1.34-8.51,14.23-7.76,20.43.84,7,3.81,17.69,11.1,20.58.88.34,1.71-.69,1.48-1.5-1.74-6.17-4.72-11.77-6.17-18.1-1.78-7.81.11-13,2.66-20.09.3-.85-.59-1.43-1.31-1.32Z" transform="translate(-309.1 -99.97)"/><path class="cls-7" d="M583,385.32c-3.78,1-7.17,2.74-10.9,3.83s-8.17,1.42-11.47-.34-4.6-4.91-6.5-7.63a24.38,24.38,0,0,0-19.76-9.85c-9.13.11-18,5.35-26.74,3.23-6.94-1.67-11.19-7.47-17.9-9.66-11-3.58-22.83,3.74-34.72,3.93-6.78.12-13.23-2.13-19.75-3.63a92.24,92.24,0,0,0-20.41-2.33c-5.18,0-10.63.45-14.88,2.83-3.75,2.09-6.3,5.5-10.45,7-4.32,1.6-9.41.8-13.95-.36s-9.11-2.69-13.86-2.46-11.57,3.34-11.65,7.16c-.27,10.61,5.28,20.59,9.62,30.62,7.13,16.48,35.3,40.89,77.69,38.79,8.86-.44,17.73,0,26.61,0,16.08-.07,56.75.49,72.72-.62,35.9-2.51,39.24-10,51.76-28.39,8.66-12.72,7.78-24.41,5.53-28.08C590.47,383.69,585.34,384.7,583,385.32Z" transform="translate(-309.1 -99.97)"/><path class="cls-5" d="M464.2,613.63c-.18.65-.54,1.45-1.22,1.45s-.92-.54-1.19-1a60.36,60.36,0,0,1-5.3-12.07c2.92,0,5.85.17,8.76.46.46,0,1,.16,1.2.6a1.36,1.36,0,0,1,0,.8C465.78,607.14,465.1,610.42,464.2,613.63Z" transform="translate(-309.1 -99.97)"/><path class="cls-8" d="M439.56,461.33a46.76,46.76,0,0,0,1.74,8.56,103,103,0,0,1,2.34,37.82,60.56,60.56,0,0,0,39.4-21.2c2.57-3.1,5.27-6.7,9.25-7.27a59.27,59.27,0,0,1,2-23.25,274.49,274.49,0,0,0-52.88,3.24,2.25,2.25,0,0,0-1.56.7A2.09,2.09,0,0,0,439.56,461.33Z" transform="translate(-309.1 -99.97)"/><path class="cls-5" d="M438.81,466.41a2.55,2.55,0,0,0,3,1.38c5.94-1.42,10.06-2,27.22-2.93,17.4-1,23.22.47,24.51-1.49,14.71-22.17,24.53-28.27,34.89-35.38a1.2,1.2,0,0,0-.34-2.14c-4.94-1.43-12.38-1.2-15.67-.73-15.2,2.22-19.12,7.61-27.66,16.6-2.75-14.63-9.37-22.49-16.23-25.67a47.08,47.08,0,0,0-12,24.74,33.79,33.79,0,0,0-4.9-7c-7.84-8.45-21.19-12.75-34.74-13.34a.68.68,0,0,0-.68.54c-.54,2.82,6.73,9.86,11.15,17.84C434.31,451.42,433.85,452.33,438.81,466.41Z" transform="translate(-309.1 -99.97)"/><path class="cls-9" d="M510.39,506.89c.54-4.94,1.3-9.88,1.19-14.85s-1.18-10.05-4-14.16a19,19,0,0,0-15.21-8.13,37.89,37.89,0,0,0-17.8,4.78c-5.9,3.22-12.2,7.25-16.88,12.08-5.61,5.8-7.81,13.5-10.8,21-6.73,16.84-10.91,35.53-6.46,53.11a3.09,3.09,0,0,0,3,2.82c18.67,4.2,38.45-.18,57.14,3.88,3.49-10,.12-21.64,4.88-31,2.6-5.18,7.32-8.9,11.52-12.9,2.1-2,4.24-5,2.82-7.51-1.8-3.15-7.42-2.12-9.08-5.33A6.5,6.5,0,0,1,510.39,506.89Z" transform="translate(-309.1 -99.97)"/><path class="cls-5" d="M465.6,476.37c6.27,1.2,16.31,5.4,22.16,14.31,3.52,5.34,5.2,11.91,6.89,18.05.47,1.67.74,3.2,1.28,4.6.37,1,1.94,1,3,.88,6.9-.94,7.64-1.19,13.49-2,.29-9.66,3.45-19.73,11.11-25.62,5.27-4,10.67-8.15,17-10.3-7.47,2-16.17,3.52-22.52,7.92s-10.24,11.14-12.81,18.44a57.42,57.42,0,0,0-12.24-17.53,18.63,18.63,0,0,0-3.78-3,56.28,56.28,0,0,0-5.62-2.9C475.89,476.12,469.49,476.6,465.6,476.37Z" transform="translate(-309.1 -99.97)"/><path class="cls-5" d="M506.91,477c-4.21-5.51-10.61-5.76-15.38-5.53,2.26-4.66,4.66-9.41,8.47-12.93a21.66,21.66,0,0,1,11.93-5.5C509.83,460.88,507.12,468.88,506.91,477Z" transform="translate(-309.1 -99.97)"/><path class="cls-4" d="M421.41,472.5c-5.37-1.59-10.82-3.09-16.41-2.69a120.23,120.23,0,0,1,7.39,27.89c.46,2.87,2.41,18.45,2.58,21.34a260.49,260.49,0,0,1-.29,40.19,2.12,2.12,0,0,0,.17,1.23,2,2,0,0,0,1.59.66c11.64,1,23.3-3,34.93-1.87,2.26-16,4.52-32.35,2.37-48.41C453,505.34,452,499.67,449,495,437.58,477.48,429.08,474.82,421.41,472.5Z" transform="translate(-309.1 -99.97)"/><path class="cls-5" d="M456.74,548.24c-.05-.36-.56-4.12.28-3.94a42.56,42.56,0,0,0,7.23.6c14,.73,17.95.86,28.32-.91a21.63,21.63,0,0,1,.27,5.21,332.76,332.76,0,0,0-35-.16,1,1,0,0,1-.88-.23A1,1,0,0,1,456.74,548.24Z" transform="translate(-309.1 -99.97)"/><path class="cls-10" d="M459.13,509.44a5.42,5.42,0,0,0-.37,4.94,5.62,5.62,0,0,0,1.59,2,5.3,5.3,0,1,0-1.22-7Z" transform="translate(-309.1 -99.97)"/><path class="cls-11" d="M503.12,581.12a10.64,10.64,0,0,1-1.14,4.23c-3.87,8.52-11.53,15-20.25,18.41s-18.4,3.87-27.63,2.37a34.91,34.91,0,0,1-11.54-3.7,42.56,42.56,0,0,1-7.86-6.18c-5.07-4.76-10.21-10.29-11-17.21,25.86-2.57,52.2-5.13,77.66.1a2.33,2.33,0,0,1,1.3.56A2,2,0,0,1,503.12,581.12Z" transform="translate(-309.1 -99.97)"/><g class="cls-18"><path class="cls-13" d="M507.48,515.75a90.36,90.36,0,0,1,3.27-19.33c2.27-7.92,7.58-12.8,12.16-19.17.37-.51-.39-1-.81-.64-10.65,9.49-17.67,25-15.64,39.28.09.61,1,.41,1-.14Z" transform="translate(-309.1 -99.97)"/><path class="cls-13" d="M501.53,519.56c4.23-13.61-.38-32.94-13.42-40.14a25.23,25.23,0,0,0-4.49-1.08c5.5,3.75,13,11.94,15.1,18.77,2.19,7.11,2.36,14.95,1.57,22.27-.08.74,1,.83,1.24.18Z" transform="translate(-309.1 -99.97)"/><path class="cls-13" d="M542.26,476.29c-18.62.47-35.81,22.69-30.4,40.65a.64.64,0,0,0,1.22,0c.75-3.51.17-6.85.88-10.47A55.39,55.39,0,0,1,518.61,493c4.44-9.05,15.71-11.9,23.8-16.19a.28.28,0,0,0-.15-.52Z" transform="translate(-309.1 -99.97)"/><path class="cls-13" d="M497.57,519.33c1.74-10.51-1.56-23.18-8.36-31.47-6.69-8.13-16.59-18.13-28.43-15.27a1,1,0,0,0-.22,1.74c3.65,1.94,7.69,2.58,11.44,4.34,4.87,2.3,9.12,7.64,12.64,11.59,7.36,8.2,9.84,18.62,12.12,29.07a.42.42,0,0,0,.81,0Z" transform="translate(-309.1 -99.97)"/></g><g class="cls-19"><path class="cls-13" d="M514,449.87c-7.7,8-9,18.61-11.43,29-.1.39.54.57.7.18,1.94-4.92,2.43-10.26,4-15.31a61,61,0,0,1,6.77-13.8s0,0,0,0Z" transform="translate(-309.1 -99.97)"/><path class="cls-13" d="M509.69,450.38c-3.4,2.22-4.88,6.63-6.48,10.22-2.46,5.53-3.25,11.4-4.15,17.35a.51.51,0,0,0,1,.26c2.11-4.94,1.91-10.45,4-15.46,1.73-4.19,4.24-8,6.05-12.1.1-.22-.17-.39-.36-.27Z" transform="translate(-309.1 -99.97)"/><path class="cls-13" d="M502,452.71c-4.08,7.22-7.91,16.09-7.47,24.59a.64.64,0,0,0,1.21.16c1.41-4,1.81-8.4,2.95-12.51s3.26-7.82,4-12.05c.09-.44-.5-.53-.69-.19Z" transform="translate(-309.1 -99.97)"/></g><g class="cls-20"><path class="cls-13" d="M444.6,479.87c2.72,13,1.85,26.21,2.28,39.35.47,14.9-3.09,28.83-4.47,43.47a.68.68,0,0,0,1.25.34c5.89-12.91,5.82-29.9,5.45-43.81-.32-12.93,1.28-27.43-4.3-39.44-.06-.13-.24,0-.21.09Z" transform="translate(-309.1 -99.97)"/><path class="cls-13" d="M437.65,475.8c3.34,15.83,2.89,32,1.68,48.08-1,13-1.47,25.42-5.9,37.81a.69.69,0,0,0,1.15.67c7.79-8.54,6-24.93,6.86-35.56,1.33-16.55,1.95-35.19-3.54-51.08a.13.13,0,1,0-.25.08Z" transform="translate(-309.1 -99.97)"/><path class="cls-13" d="M431.32,471.26c3.43,29,2.48,60-4,88.38a.71.71,0,0,0,1.29.55c6.92-12,5.37-27.6,6.15-40.86.92-15.62,2.53-33.16-2.77-48.16-.12-.31-.69-.3-.65.09Z" transform="translate(-309.1 -99.97)"/><path class="cls-13" d="M419.09,466.86c1.48,7.8,3.7,15.33,4.31,23.29s.88,15.84,1,23.74c.21,14.13.87,28.78-2.65,42.54-.14.57.7,1,1,.41,6.06-11.81,4-27.15,4-40,0-17.41-1.11-33.75-7-50.19a.32.32,0,0,0-.62.18Z" transform="translate(-309.1 -99.97)"/><path class="cls-13" d="M410.22,464.79c3,13.73,4.16,27.67,6.3,41.53a191.87,191.87,0,0,1,2.25,26.55c.09,8.36-1.95,16.55-1.16,24.93.06.58,1,.83,1.12.14,2.15-15.52,2.73-30.71.62-46.27-2.06-15.33-2.64-32.68-8.74-47-.1-.23-.43-.07-.39.16Z" transform="translate(-309.1 -99.97)"/></g><path class="cls-5" d="M400.66,582.39a66.28,66.28,0,0,0,14.17-29c10.77-1.05,21.61-1,32.43-.93,4.46,0,8.91.31,13.36.37,14.67.2,20.43,1.18,40.29.93a7.19,7.19,0,0,1,5.67,3.26c6.4,9.87,10.19,18.31,16.12,25.1.31.36.83.88.54,1.25A2.16,2.16,0,0,1,522,584c-13.14,3.3-26.84,3.56-40.4,3.57q-38.86.08-77.7-2.44a5.14,5.14,0,0,1-2.57-.61C400.55,584,400.08,583.07,400.66,582.39Z" transform="translate(-309.1 -99.97)"/><g class="cls-21"><path class="cls-6" d="M513.41,579.83l-5.29-2.48a8.8,8.8,0,0,0-3.37-1,1.4,1.4,0,0,0-1,.25c-.25.18-8.9,11.43-9.06,12.84,7.91-.29,16-.81,23.25-4a1.47,1.47,0,0,0,.75-.6,1.19,1.19,0,0,0-.16-1C517.52,581.8,515.4,580.76,513.41,579.83Z" transform="translate(-309.1 -99.97)"/><path class="cls-6" d="M473.63,578.38c-4.19,3.71-6.61,6.88-10.68,10.74l22.22,1.31c1.87.09,3.95.14,5.37-1-5.12-3.18-8.47-8.75-13.74-11.66C476.58,577.61,475.83,576.4,473.63,578.38Z" transform="translate(-309.1 -99.97)"/><path class="cls-6" d="M459,587.67c-1.26-2-2.51-4.08-3.78-6.11a30.44,30.44,0,0,0-2.36-3.45,15.63,15.63,0,0,0-3.33-3,1.71,1.71,0,0,0-2.31.59c-3.58,4.95-5.71,6.65-9,10-1.08,1.11-1.48,1.13-2.05,2.58l10.08.6c4.44.28,9,.54,13.28-.52A.62.62,0,0,0,459,587.67Z" transform="translate(-309.1 -99.97)"/><path class="cls-6" d="M429.74,589.66c1.14-.85.5-2.66-.24-3.88-2.93-4.86-5.92-9.79-9.89-13.81a1.56,1.56,0,0,0-2.47.27c-1.45,2.47-10.07,11.73-11.59,14.83a113,113,0,0,1,21.75,2.74A3.07,3.07,0,0,0,429.74,589.66Z" transform="translate(-309.1 -99.97)"/></g><path class="cls-5" d="M494,590.05a1.49,1.49,0,0,0,0,3,1.49,1.49,0,0,0,0-3Z" transform="translate(-309.1 -99.97)"/><path class="cls-5" d="M488.24,595.76a1,1,0,0,0,0,1.89.95.95,0,0,0,0-1.89Z" transform="translate(-309.1 -99.97)"/><path class="cls-5" d="M483.32,590a1.12,1.12,0,0,0,0,2.23,1.12,1.12,0,0,0,0-2.23Z" transform="translate(-309.1 -99.97)"/><path class="cls-5" d="M478.31,597.08a1.4,1.4,0,0,0,0,2.8,1.4,1.4,0,0,0,0-2.8Z" transform="translate(-309.1 -99.97)"/><path class="cls-5" d="M483.21,600.4a1.07,1.07,0,0,0,0,2.14,1.07,1.07,0,0,0,0-2.14Z" transform="translate(-309.1 -99.97)"/><path class="cls-5" d="M472.47,602.82a1.23,1.23,0,0,0,0,2.46,1.23,1.23,0,0,0,0-2.46Z" transform="translate(-309.1 -99.97)"/><path class="cls-5" d="M469.88,595a.93.93,0,0,0,0,1.86.93.93,0,0,0,0-1.86Z" transform="translate(-309.1 -99.97)"/><path class="cls-5" d="M474.1,588.89a1.56,1.56,0,0,0,0,3.12,1.56,1.56,0,0,0,0-3.12Z" transform="translate(-309.1 -99.97)"/><path class="cls-5" d="M464,588.62a1.56,1.56,0,0,0,0,3.11,1.56,1.56,0,0,0,0-3.11Z" transform="translate(-309.1 -99.97)"/><path class="cls-5" d="M464.85,600a1,1,0,0,0,0,2.05,1,1,0,0,0,0-2.05Z" transform="translate(-309.1 -99.97)"/><path class="cls-5" d="M458.72,603.49a1.11,1.11,0,0,0,0,2.21,1.11,1.11,0,0,0,0-2.21Z" transform="translate(-309.1 -99.97)"/><path class="cls-5" d="M457,596.41l-.13,0c-1.68-.52-1.68,2.52,0,2a.31.31,0,0,1,.13,0,1,1,0,0,0,0-2Z" transform="translate(-309.1 -99.97)"/><path class="cls-5" d="M452.88,588.62a1.42,1.42,0,0,0,0,2.83,1.42,1.42,0,0,0,0-2.83Z" transform="translate(-309.1 -99.97)"/><path class="cls-5" d="M449.61,600.78a1.23,1.23,0,0,0,0,2.46,1.23,1.23,0,0,0,0-2.46Z" transform="translate(-309.1 -99.97)"/><path class="cls-5" d="M445.91,593.91a1.42,1.42,0,0,0,0,2.83,1.42,1.42,0,0,0,0-2.83Z" transform="translate(-309.1 -99.97)"/><path class="cls-5" d="M439,596.33a1.05,1.05,0,0,0,0,2.1,1.05,1.05,0,0,0,0-2.1Z" transform="translate(-309.1 -99.97)"/><path class="cls-5" d="M441,588.24a1.26,1.26,0,0,0,0,2.51,1.26,1.26,0,0,0,0-2.51Z" transform="translate(-309.1 -99.97)"/><path class="cls-5" d="M433.83,589.79a1.48,1.48,0,0,0,0,3,1.48,1.48,0,0,0,0-3Z" transform="translate(-309.1 -99.97)"/><path class="cls-17" d="M493.12,584.23c.9-4.84,1.34-10.94-.15-15.7-1.05-3.3-6.05-2.73-6.07.83,0,5.31,1.4,9.88,3,14.87.46,1.45,2.87,1.71,3.2,0Z" transform="translate(-309.1 -99.97)"/><path class="cls-17" d="M518.3,579a7.53,7.53,0,0,0-1.59-5.54c-1.37-2-2.43-4.55-4.29-6.12a2.43,2.43,0,0,0-3.79,2.94,23.87,23.87,0,0,0,3.86,5.1c1.38,1.42,3.13,2.5,4.42,4a.84.84,0,0,0,1.39-.38Z" transform="translate(-309.1 -99.97)"/><path class="cls-17" d="M463.73,582.65a43,43,0,0,0,2.48-8.14,51.09,51.09,0,0,1,.59-5.25c1.13-4.43-6-6.23-6.73-1.86-.82,4.81,0,10.54,1,15.25.32,1.43,2.25,1.2,2.67,0Z" transform="translate(-309.1 -99.97)"/><path class="cls-17" d="M435.07,581.44a17.42,17.42,0,0,0,3-7.66c.36-2.27,1.32-5.38,0-7.4a3.24,3.24,0,0,0-3.62-1.47l-.36.11a3.68,3.68,0,0,0-2.59,2.59,29.91,29.91,0,0,0,0,6.82c.12,2.43-.12,4.94,1.38,7a1.3,1.3,0,0,0,2.21,0Z" transform="translate(-309.1 -99.97)"/><path class="cls-17" d="M406.67,578.69c2.24-1.05,3.63-3.3,5-5.27,1.48-2.15,3.29-4.42,3.23-7.16-.07-2.28-3.51-3.57-4.59-1.24-1.85,4-4.6,7.94-5.37,12.33a1.2,1.2,0,0,0,1.74,1.34Z" transform="translate(-309.1 -99.97)"/><path class="cls-17" d="M489.21,562.77a1.29,1.29,0,0,0,0,2.58,1.29,1.29,0,0,0,0-2.58Z" transform="translate(-309.1 -99.97)"/><path class="cls-17" d="M508.19,563.29a1.29,1.29,0,0,0,0,2.58,1.29,1.29,0,0,0,0-2.58Z" transform="translate(-309.1 -99.97)"/><path class="cls-17" d="M463.89,561.52a1.17,1.17,0,0,0,0,2.34,1.17,1.17,0,0,0,0-2.34Z" transform="translate(-309.1 -99.97)"/><path class="cls-17" d="M435.54,562.49a.57.57,0,0,0,.14-.13.88.88,0,0,0,0-1.25l-.14-.13a1.07,1.07,0,1,0,0,1.51Z" transform="translate(-309.1 -99.97)"/><path class="cls-17" d="M413.55,559.87a1.46,1.46,0,0,0,0,2.92,1.46,1.46,0,0,0,0-2.92Z" transform="translate(-309.1 -99.97)"/><path class="cls-5" d="M490.7,573.08a1.86,1.86,0,0,0,0,3.71,1.86,1.86,0,0,0,0-3.71Z" transform="translate(-309.1 -99.97)"/><path class="cls-5" d="M512.87,572.38h.41a0,0,0,0,0,0,0h-.41s0,0,0,0Z" transform="translate(-309.1 -99.97)"/><path class="cls-5" d="M513.45,571a1.5,1.5,0,0,0,0,3,1.5,1.5,0,0,0,0-3Z" transform="translate(-309.1 -99.97)"/><path class="cls-5" d="M463.35,571.87a1.85,1.85,0,0,0,0,3.69,1.85,1.85,0,0,0,0-3.69Z" transform="translate(-309.1 -99.97)"/><path class="cls-5" d="M434.92,571.07a2,2,0,0,0,0,3.91,2,2,0,0,0,0-3.91Z" transform="translate(-309.1 -99.97)"/><path class="cls-5" d="M410.15,568.53c-2.64,0-2.64,4.11,0,4.11s2.66-4.11,0-4.11Z" transform="translate(-309.1 -99.97)"/><path class="cls-5" d="M463.76,569a.8.8,0,0,0,0,1.6.8.8,0,0,0,0-1.6Z" transform="translate(-309.1 -99.97)"/><path class="cls-5" d="M490.29,570.34a.93.93,0,0,0,0,1.86.93.93,0,0,0,0-1.86Z" transform="translate(-309.1 -99.97)"/><path class="cls-5" d="M511.76,570.61l.1,0c1.3.38.77-2-.29-1.08l-.07.07a.6.6,0,0,0,.26,1Z" transform="translate(-309.1 -99.97)"/><path class="cls-5" d="M515.19,574a.77.77,0,0,0,0,1.53.77.77,0,0,0,0-1.53Z" transform="translate(-309.1 -99.97)"/><path class="cls-5" d="M491.11,577.58a1,1,0,0,0,0,2.07,1,1,0,0,0,0-2.07Z" transform="translate(-309.1 -99.97)"/><path class="cls-5" d="M462.67,576.16a1.22,1.22,0,0,0,0,2.44,1.22,1.22,0,0,0,0-2.44Z" transform="translate(-309.1 -99.97)"/><path class="cls-5" d="M435.16,568.25a1,1,0,0,0,0,1.89.95.95,0,0,0,0-1.89Z" transform="translate(-309.1 -99.97)"/><path class="cls-5" d="M434.92,576a.87.87,0,0,0,0,1.73.87.87,0,0,0,0-1.73Z" transform="translate(-309.1 -99.97)"/><path class="cls-5" d="M410.71,567.79c.57,1.23,2.51.17,1.81-1s-2.35-.15-1.81,1Z" transform="translate(-309.1 -99.97)"/><path class="cls-5" d="M408.52,572.64a.81.81,0,0,0,0,1.61.81.81,0,0,0,0-1.61Z" transform="translate(-309.1 -99.97)"/><path class="cls-5" d="M483.63,540c-.27-.72-.52-1.38-1.37-1.43a.4.4,0,0,0-.4.31c-.22.57.07,1,.25,1.55.34,1,1.9.5,1.52-.43Z" transform="translate(-309.1 -99.97)"/><path class="cls-5" d="M472.75,542.9c.45-.87.68-2.12-.17-2.83-.4-.34-1.18-.4-1.42.18a3.51,3.51,0,0,0,.11,2.47.82.82,0,0,0,1.48.18Z" transform="translate(-309.1 -99.97)"/><path class="cls-5" d="M462.56,541.25a13.34,13.34,0,0,1,.69-1.36c.55-.94-1-1.79-1.44-.83a15,15,0,0,0-.67,1.8c-.26.94,1.07,1.24,1.42.39Z" transform="translate(-309.1 -99.97)"/><path class="cls-5" d="M481.77,528.09c-.64.26-1.58,1-1.49,1.74a.36.36,0,0,0,.25.35c.94.31,1.73-1,1.64-1.78,0-.18-.19-.38-.4-.31Z" transform="translate(-309.1 -99.97)"/><path class="cls-5" d="M472.25,530.44c.83-.72.86-2.46.59-3.43a1,1,0,0,0-2,0c-.27,1-.23,2.71.6,3.43a.62.62,0,0,0,.79,0Z" transform="translate(-309.1 -99.97)"/><path class="cls-5" d="M463.57,531.68a3,3,0,0,0-1-2.42.83.83,0,0,0-1-.11.57.57,0,0,0-.16.11.85.85,0,0,0-.12,1c.33.65.93,1.09,1.31,1.69a.5.5,0,0,0,.92-.24Z" transform="translate(-309.1 -99.97)"/><path class="cls-5" d="M477.77,542c1-.53.68-1.94.37-2.77-.4-1.09-2.12-.65-1.75.48.25.76.28,1.79,1,2.29a.36.36,0,0,0,.4,0Z" transform="translate(-309.1 -99.97)"/><path class="cls-5" d="M466.74,542.18c.28-.59,1.44-3.44-.05-3.39-.79,0-.94,1-1,1.63a1.63,1.63,0,0,0,.79,1.85.21.21,0,0,0,.3-.09Z" transform="translate(-309.1 -99.97)"/><path class="cls-5" d="M477.57,526.74c-1.38,0-2.22,1.9-2.25,3.11a1,1,0,0,0,1.42.82,3.81,3.81,0,0,0,1.48-3.28.66.66,0,0,0-.65-.65Z" transform="translate(-309.1 -99.97)"/><path class="cls-5" d="M468,530.26c.63-1.09.52-3.08-.81-3.65a1,1,0,0,0-1.43.57c-.38,1.32.81,2.26,1.52,3.18a.45.45,0,0,0,.72-.1Z" transform="translate(-309.1 -99.97)"/><path class="cls-2" d="M490,534.09a1.41,1.41,0,0,1-.6,1,20.58,20.58,0,0,1-10.15,4.7,61.75,61.75,0,0,1-11.3.76c-2.51,0-10-2.23-12.84-4.33A27.25,27.25,0,0,1,489.12,533C489.52,533.26,490,533.62,490,534.09Z" transform="translate(-309.1 -99.97)"/><path class="cls-5" d="M476.27,533.52a4.46,4.46,0,0,0-7.71,1.56,3.76,3.76,0,0,0-.13,1.1c.11,2.1,4.64,4.19,7.68,1.22A2.89,2.89,0,0,0,476.27,533.52Z" transform="translate(-309.1 -99.97)"/><path class="cls-17" d="M472.7,419.53l.71-.38c6-3.1,3.44-13.74-3.56-13.11l-.79.07c-11.89,1.06-6.71,18.73,3.64,13.42Z" transform="translate(-309.1 -99.97)"/><path class="cls-17" d="M530,418.32c-8.27,0-8.27,12.82,0,12.82s8.26-12.82,0-12.82Z" transform="translate(-309.1 -99.97)"/><path class="cls-6" d="M516.73,426.93c-5.36,1.94-9.54,4.79-14,8.35-3.58,2.88,1.74,8.48,5.15,5.13s6.51-7,10.65-9.14c2.35-1.24.71-5.25-1.84-4.34Z" transform="translate(-309.1 -99.97)"/><path class="cls-6" d="M468.87,424a25.5,25.5,0,0,0-1.69,6.27c-.51,2.74-1.26,5.42-1.6,8.19-.67,5.38,8.94,5.51,8.46,0-.21-2.46-.5-4.88-.65-7.35s-.44-5-1.83-7.11a1.56,1.56,0,0,0-2.69,0Z" transform="translate(-309.1 -99.97)"/><path class="cls-6" d="M424,428.51c1.11,1.19,2,3.77,3,5.33.49.79.93,1.62,1.39,2.42.24.44.44.88.68,1.32-.48-.9.32.78.48,1.09a4.33,4.33,0,0,0,4.9,2c2.46-.67,3.43-3,3-5.33-.47-2.74-3.32-4.37-5.39-5.84-1-.67-1.78-1.68-2.71-2.43a12.65,12.65,0,0,0-3.53-1.7c-1.86-.73-3,1.88-1.82,3.15Z" transform="translate(-309.1 -99.97)"/><path class="cls-6" d="M491.57,458.12l-.19-.08c-1.66-.64-2.95,1.47-2.17,2.82,0,.05.06.12.1.18a2,2,0,1,0,2.26-2.92Z" transform="translate(-309.1 -99.97)"/><path class="cls-6" d="M483.05,458a.15.15,0,0,1-.05.06,2,2,0,0,0,0,2.81l.05.06a2.08,2.08,0,1,0,0-2.93Z" transform="translate(-309.1 -99.97)"/><path class="cls-6" d="M478.59,457.26c-2.8,0-2.8,4.34,0,4.34s2.81-4.34,0-4.34Z" transform="translate(-309.1 -99.97)"/><path class="cls-6" d="M472.66,457.65c-2.54,0-2.54,4,0,4a2,2,0,0,0,0-4Z" transform="translate(-309.1 -99.97)"/><path class="cls-6" d="M467,458.29a2,2,0,0,0,0,3.91c2.52,0,2.52-3.91,0-3.91Z" transform="translate(-309.1 -99.97)"/><path class="cls-6" d="M461.85,458.94a1.71,1.71,0,0,0,0,3.42,1.71,1.71,0,0,0,0-3.42Z" transform="translate(-309.1 -99.97)"/><path class="cls-6" d="M456.6,459.18l-.26-.08a2,2,0,1,0,0,3.93l.26-.1a2,2,0,0,0,0-3.75Z" transform="translate(-309.1 -99.97)"/><path class="cls-6" d="M449.08,459.33c-2.76,0-2.76,4.27,0,4.27s2.75-4.27,0-4.27Z" transform="translate(-309.1 -99.97)"/><path class="cls-6" d="M443.08,460.36a1.72,1.72,0,0,0,0,3.44,1.72,1.72,0,0,0,0-3.44Z" transform="translate(-309.1 -99.97)"/><path class="cls-17" d="M470,434.74a2.41,2.41,0,1,0,2.42,2.4,2.41,2.41,0,0,0-2.42-2.4Z" transform="translate(-309.1 -99.97)"/><path class="cls-6" d="M361.8,415.4c-1.93-2.28-10.44-13.14-9.32-15.9a7.78,7.78,0,0,1,3.68-3.5c69.5-38.19,145.19-67.31,212.63-107.46a8.65,8.65,0,0,1,4-1.54,8.32,8.32,0,0,1,3.67,1c12.63,5.77,26,12.57,32.33,24.95a7.75,7.75,0,0,1,1.06,4.07,7.43,7.43,0,0,1-3.31,5c-30,21.35-56.93,35.12-100.76,56.42C469.27,396.21,425.56,411.7,390,431.28c-2.45,1.36-5.15,2.78-7.91,2.27S367,421.61,361.8,415.4Z" transform="translate(-309.1 -99.97)"/><path class="cls-17" d="M505.42,434.94a2.46,2.46,0,1,0,3.12,2.36,2.46,2.46,0,0,0-3.12-2.36Z" transform="translate(-309.1 -99.97)"/><path class="cls-17" d="M435.48,435.6l-.11-.19a2.27,2.27,0,0,0-2.53-1,2.29,2.29,0,0,0-1.65,2.17c0,.07,0,.15,0,.23A2.31,2.31,0,0,0,434.1,439a2.34,2.34,0,0,0,1.38-3.4Z" transform="translate(-309.1 -99.97)"/><path class="cls-17" d="M500.43,441.67c-.62.55-1.33,1-1.95,1.55s-1.38,1.19-1.33,2.1a.84.84,0,0,0,.83.83c1.74-.11,2.51-2.56,3.35-3.78.39-.57-.44-1.11-.9-.7Z" transform="translate(-309.1 -99.97)"/><path class="cls-17" d="M503.63,443.25c-.26.2-.6.25-.89.43a5.86,5.86,0,0,0-2,2.56,1.38,1.38,0,0,0,2,1.53,3.23,3.23,0,0,0,1.38-1.89c.07-.35.13-.69.2-1s0-.67.07-.88c.21-.44-.27-1.08-.73-.74Z" transform="translate(-309.1 -99.97)"/><path class="cls-17" d="M499.2,438.91a4.1,4.1,0,0,0-2.22.43,4,4,0,0,0-2,1.73c-.44.88.31,2.3,1.43,1.86a5.23,5.23,0,0,0,1.89-1.36c.27-.29.51-.55.75-.86s.35-.67.55-1a.53.53,0,0,0-.45-.79Z" transform="translate(-309.1 -99.97)"/><path class="cls-17" d="M473.67,442.06a2.56,2.56,0,0,0-.65,1.24,4.05,4.05,0,0,0,.18,1.89c.42,1.16,2.33,1.42,2.6,0a2.87,2.87,0,0,0-1.39-3.23.61.61,0,0,0-.74.1Z" transform="translate(-309.1 -99.97)"/><path class="cls-17" d="M469.18,443.64a2.19,2.19,0,0,0-.35,1.94,9.18,9.18,0,0,0,.23,2,.77.77,0,0,0,.69.39c2-.13,1.75-3.78.27-4.48a.71.71,0,0,0-.84.11Z" transform="translate(-309.1 -99.97)"/><path class="cls-17" d="M466.49,443.06a4.52,4.52,0,0,0-1.24,1.19,5,5,0,0,0-1.12,1.64c-.24.69.54,1.57,1.26,1.28,1.25-.53,2.56-2.57,1.8-3.92a.52.52,0,0,0-.7-.19Z" transform="translate(-309.1 -99.97)"/><path class="cls-17" d="M437.59,440.89a3.51,3.51,0,0,0,1.31,3.65,1.23,1.23,0,0,0,1.8-.72,3.11,3.11,0,0,0-2.36-3.36.63.63,0,0,0-.75.43Z" transform="translate(-309.1 -99.97)"/><path class="cls-17" d="M440,438.9a6,6,0,0,0,1.54,1.2,2.2,2.2,0,0,0,2.37.31,1.15,1.15,0,0,0,.23-1.79c-.86-1-2.68-.55-3.87-.41a.41.41,0,0,0-.27.69Z" transform="translate(-309.1 -99.97)"/><path class="cls-17" d="M433.93,442.89a17.37,17.37,0,0,1-.27,1.88c-.23,1.69,2.31,1.74,2.14.29a4.81,4.81,0,0,0-.79-2.46.59.59,0,0,0-1.08.29Z" transform="translate(-309.1 -99.97)"/><path class="cls-17" d="M498.18,414.24a1.24,1.24,0,0,0,0,2.48,1.24,1.24,0,0,0,0-2.48Z" transform="translate(-309.1 -99.97)"/><path class="cls-17" d="M517.23,396.31a1.49,1.49,0,0,0,0,3,1.49,1.49,0,0,0,0-3Z" transform="translate(-309.1 -99.97)"/><path class="cls-17" d="M545.8,401.79a1.72,1.72,0,0,0,0,3.44,1.72,1.72,0,0,0,0-3.44Z" transform="translate(-309.1 -99.97)"/><path class="cls-17" d="M550.26,423.54a1.72,1.72,0,0,0,0,3.44,1.72,1.72,0,0,0,0-3.44Z" transform="translate(-309.1 -99.97)"/><path class="cls-17" d="M503.23,394.29a1.47,1.47,0,0,1,.07-.17,1.41,1.41,0,0,0-1.91-1.91l-.17.07a1.49,1.49,0,0,0-.3,2.3,1.47,1.47,0,0,0,2.31-.29Z" transform="translate(-309.1 -99.97)"/><path class="cls-17" d="M478.05,397a1.9,1.9,0,0,0,0,3.79,1.9,1.9,0,0,0,0-3.79Z" transform="translate(-309.1 -99.97)"/><path class="cls-17" d="M564.24,393.57a.41.41,0,0,0-.16,0c.32,0,.64.08.95.12l-.11-.05a1.21,1.21,0,0,0-1.64,1.63,1.4,1.4,0,0,0,.65.62,1.33,1.33,0,0,0,1.89-.79,1.29,1.29,0,0,0-1.58-1.56Z" transform="translate(-309.1 -99.97)"/><path class="cls-17" d="M549.32,383.62a.41.41,0,0,1-.16,0l1,.14-.11-.05a1.2,1.2,0,0,0-1.64,1.63,1.32,1.32,0,1,0,1-1.75Z" transform="translate(-309.1 -99.97)"/><path class="cls-17" d="M572.47,411.33h-.15l1,.13-.12-.05a1.23,1.23,0,1,0-1,2.25,1.31,1.31,0,0,0,1.88-.76,1.29,1.29,0,0,0-1.58-1.58Z" transform="translate(-309.1 -99.97)"/><path class="cls-17" d="M588.76,393.65l-.15,0,1,.12-.12-.05a1.2,1.2,0,0,0-1.63,1.63,1.21,1.21,0,0,0,.64.62,1.28,1.28,0,1,0,.3-2.35Z" transform="translate(-309.1 -99.97)"/><path class="cls-17" d="M528.36,383.48a1.26,1.26,0,0,0,0,2.52,1.26,1.26,0,0,0,0-2.52Z" transform="translate(-309.1 -99.97)"/><path class="cls-17" d="M527.1,410.4a1.26,1.26,0,0,0,0,2.52,1.26,1.26,0,0,0,0-2.52Z" transform="translate(-309.1 -99.97)"/><path class="cls-17" d="M445.05,415.91a1.21,1.21,0,0,0,0,2.41,1.21,1.21,0,0,0,0-2.41Z" transform="translate(-309.1 -99.97)"/><path class="cls-17" d="M408.76,432.93a1.21,1.21,0,0,0,0,2.41,1.21,1.21,0,0,0,0-2.41Z" transform="translate(-309.1 -99.97)"/><path class="cls-6" d="M565.56,379.11a4.25,4.25,0,1,0,4.25,4.25,4.3,4.3,0,0,0-4.25-4.25Z" transform="translate(-309.1 -99.97)"/><path class="cls-6" d="M569.18,373.37l-.08-.18a3.07,3.07,0,0,0-3.5-1.42,3.11,3.11,0,0,0-2.17,3.81,1.49,1.49,0,0,0,0,.18,3.16,3.16,0,0,0,3.85,2.19c2.11-.59,2.66-2.77,1.86-4.58Z" transform="translate(-309.1 -99.97)"/><path class="cls-6" d="M526.15,359.33a1.48,1.48,0,0,0-.13-.21,1.88,1.88,0,0,0-2.58-.69,2,2,0,0,0-.68.69,1.87,1.87,0,0,0,.68,2.57l.22.13a1.84,1.84,0,0,0,2.49-2.49Z" transform="translate(-309.1 -99.97)"/><path class="cls-6" d="M482.86,351l-.12-.22a1.9,1.9,0,0,0-2.59-.68,2.1,2.1,0,0,0-.68.68,1.9,1.9,0,0,0,.68,2.58l.22.13a1.83,1.83,0,0,0,2.49-2.49Z" transform="translate(-309.1 -99.97)"/><path class="cls-6" d="M483.3,359.25l-.13-.07a4.86,4.86,0,1,0-4.9,8.4c2,1.19,4.17.63,5.89-.75a.24.24,0,0,1,.1-.08,4.6,4.6,0,0,0,1.39-3.38,4.81,4.81,0,0,0-2.35-4.12Z" transform="translate(-309.1 -99.97)"/><path class="cls-17" d="M541.55,301.54a7.3,7.3,0,0,0-.91,2c-.89,2.49.57,5.46,2.74,6.73a6,6,0,0,0,7.23-.93,1.35,1.35,0,0,1,.3-.28l-1.23,1,.19-.1a6.09,6.09,0,0,0-3.07-11.35,5.93,5.93,0,0,0-3.07.84,6,6,0,0,0-2.18,2.18Z" transform="translate(-309.1 -99.97)"/><path class="cls-17" d="M421,422.36a7.09,7.09,0,0,0,.91-2c.89-2.49-.56-5.44-2.74-6.72a6,6,0,0,0-7.22.93,1.22,1.22,0,0,1-.3.26l1.22-.93a1.24,1.24,0,0,1-.2.1,6.09,6.09,0,0,0,3.08,11.35,6.08,6.08,0,0,0,3.08-.83,6,6,0,0,0,2.17-2.19Z" transform="translate(-309.1 -99.97)"/><path class="cls-17" d="M362.42,386a1.71,1.71,0,0,0,0,3.42,1.71,1.71,0,0,0,0-3.42Z" transform="translate(-309.1 -99.97)"/><path class="cls-17" d="M370.57,379.09a1.72,1.72,0,0,0,0,3.44,1.72,1.72,0,0,0,0-3.44Z" transform="translate(-309.1 -99.97)"/><path class="cls-17" d="M550.26,285.79a1.72,1.72,0,0,0,0,3.44,1.72,1.72,0,0,0,0-3.44Z" transform="translate(-309.1 -99.97)"/><path class="cls-17" d="M476.91,385.27A20.33,20.33,0,1,0,456.6,365a20.52,20.52,0,0,0,20.31,20.32Z" transform="translate(-309.1 -99.97)"/><path class="cls-17" d="M441.57,388.22a7.14,7.14,0,1,0-7.13-7.13,7.2,7.2,0,0,0,7.13,7.13Z" transform="translate(-309.1 -99.97)"/><path class="cls-17" d="M418.16,394.4c5.74,0,5.74-8.92,0-8.92s-5.77,8.92,0,8.92Z" transform="translate(-309.1 -99.97)"/><path class="cls-17" d="M513.32,358.33c9.84,0,9.84-15.26,0-15.26s-9.84,15.26,0,15.26Z" transform="translate(-309.1 -99.97)"/><path class="cls-17" d="M534.19,342.43c3.33,0,3.33-5.16,0-5.16s-3.33,5.16,0,5.16Z" transform="translate(-309.1 -99.97)"/><path class="cls-7" d="M476.59,371.7c8.78,0,8.78-13.61,0-13.61s-8.78,13.61,0,13.61Z" transform="translate(-309.1 -99.97)"/><path class="cls-7" d="M477.42,356.56c4.32,0,4.32-6.69,0-6.69s-4.31,6.69,0,6.69Z" transform="translate(-309.1 -99.97)"/><path class="cls-7" d="M467.41,358.89c4.08,0,4.08-6.35,0-6.35s-4.1,6.35,0,6.35Z" transform="translate(-309.1 -99.97)"/><path class="cls-7" d="M464.06,369.08c4.32,0,4.32-6.69,0-6.69s-4.31,6.69,0,6.69Z" transform="translate(-309.1 -99.97)"/><path class="cls-7" d="M470.75,378.45c3.47,0,3.47-5.41,0-5.41s-3.49,5.41,0,5.41Z" transform="translate(-309.1 -99.97)"/><path class="cls-7" d="M483.5,374.67c-.14-.13-.27-.28-.41-.41a2.11,2.11,0,0,0-3,0c-.14.13-.28.28-.41.41a2.7,2.7,0,1,0,3.81,0Z" transform="translate(-309.1 -99.97)"/><path class="cls-7" d="M488.28,371.41c4.08,0,4.08-6.34,0-6.34s-4.09,6.34,0,6.34Z" transform="translate(-309.1 -99.97)"/><path class="cls-7" d="M487.45,360.91c4.53,0,4.53-7.05,0-7.05s-4.55,7.05,0,7.05Z" transform="translate(-309.1 -99.97)"/><path class="cls-7" d="M395.54,401.23c1.68,3.57,7.39,1.09,6.36-2.67-1.31-4.78-8.55-2-6.36,2.67Z" transform="translate(-309.1 -99.97)"/><path class="cls-7" d="M385.59,409.66c6.06,0,6.06-9.39,0-9.39s-6,9.39,0,9.39Z" transform="translate(-309.1 -99.97)"/><path class="cls-7" d="M372.23,413.87c3.94,0,3.94-6.12,0-6.12s-3.94,6.12,0,6.12Z" transform="translate(-309.1 -99.97)"/><path class="cls-7" d="M553.83,329c-.13.21-.27.4-.41.62a3.14,3.14,0,1,0-5.59-1.42c.42,3.32,4.87,4.27,6,.8Z" transform="translate(-309.1 -99.97)"/><path class="cls-7" d="M565.08,326c5.83,0,5.83-9,0-9s-5.82,9,0,9Z" transform="translate(-309.1 -99.97)"/><path class="cls-7" d="M578.44,317.85c5,0,5-7.75,0-7.75s-5,7.75,0,7.75Z" transform="translate(-309.1 -99.97)"/><path class="cls-5" d="M605,522.82c0-.86.35-2.08.35-3a25.52,25.52,0,0,0-.1-2.61,11.86,11.86,0,0,0-3.6-7.74c2-.12,7-.12,9,0a11.86,11.86,0,0,0-3.6,7.74,25.52,25.52,0,0,0-.1,2.61c0,.87.34,2.09.34,3Z" transform="translate(-309.1 -99.97)"/><path class="cls-5" d="M605.7,519.56a9.7,9.7,0,0,0-8.16-4.52,7.48,7.48,0,0,0-7,5.66c-.56,2.81.81,5.69,2.75,7.8s4.63,3.47,7,5a39,39,0,0,1,5.87,5.59,75,75,0,0,1,5.83-5.49c2.28-1.74,5.09-3.07,7-5.15s3.31-5,2.75-7.8a7.47,7.47,0,0,0-7-5.66,9.71,9.71,0,0,0-8.16,4.52Z" transform="translate(-309.1 -99.97)"/><path class="cls-5" d="M353.83,194.8c0,.85-.34,2.09-.34,2.94a22.69,22.69,0,0,0,.1,2.61,11.86,11.86,0,0,0,3.59,7.76c-2,.11-7,.11-9,0a11.86,11.86,0,0,0,3.59-7.76,25.2,25.2,0,0,0,.11-2.61c0-.85-.35-2.09-.34-2.94Z" transform="translate(-309.1 -99.97)"/><path class="cls-5" d="M353.09,198.07a9.66,9.66,0,0,0,8.16,4.51,7.48,7.48,0,0,0,7-5.67c.56-2.79-.8-5.69-2.75-7.78s-4.63-3.47-7-5a39.78,39.78,0,0,1-5.87-5.61,79.39,79.39,0,0,1-5.82,5.51c-2.28,1.74-5.1,3.06-7,5.15s-3.3,5-2.75,7.78a7.48,7.48,0,0,0,7,5.67,9.68,9.68,0,0,0,8.16-4.51Z" transform="translate(-309.1 -99.97)"/><path class="cls-5" d="M363.15,125v33.35q0,8.73-3.94,12.18c-2.62,2.3-6.11,3.44-10.43,3.44a26.17,26.17,0,0,1-7-1v-4.92a30.29,30.29,0,0,0,6.26.73c2.68,0,4.65-.39,5.91-1.19a5.89,5.89,0,0,0,2.55-3.1,20.87,20.87,0,0,0,.65-6.14V125Z" transform="translate(-309.1 -99.97)"/><path class="cls-5" d="M596.77,595V561.6q0-8.73,3.93-12.17c2.63-2.3,6.1-3.45,10.44-3.45a26.08,26.08,0,0,1,7,1v4.93a30.21,30.21,0,0,0-6.26-.73q-4,0-5.91,1.2a5.83,5.83,0,0,0-2.54,3.08,21.11,21.11,0,0,0-.65,6.17V595Z" transform="translate(-309.1 -99.97)"/><path class="cls-7" d="M419.29,593.47H360.82c-13.83,0-25.07-12-25.07-26.64V230.71a.78.78,0,0,1,1.56,0V566.83c0,13.83,10.54,25.08,23.51,25.08h58.47a.78.78,0,0,1,0,1.56Z" transform="translate(-309.1 -99.97)"/><path class="cls-7" d="M582.76,593.47H523.24a.78.78,0,1,1,0-1.56h59.52a.78.78,0,0,1,0,1.56Z" transform="translate(-309.1 -99.97)"/><path class="cls-7" d="M623.38,491.66a.79.79,0,0,1-.78-.78V153.09c0-13.82-10.54-25.06-23.5-25.06H543.41a.79.79,0,0,1-.78-.78.77.77,0,0,1,.78-.78H599.1c13.83,0,25.07,11.93,25.07,26.62V490.88A.79.79,0,0,1,623.38,491.66Z" transform="translate(-309.1 -99.97)"/><path class="cls-7" d="M454.48,128H379.62a.8.8,0,0,1-.79-.78.78.78,0,0,1,.79-.78h74.86a.78.78,0,0,1,.79.78A.79.79,0,0,1,454.48,128Z" transform="translate(-309.1 -99.97)"/></g></svg>